<svg width="443" height="474" viewBox="0 0 443 474" fill="none" xmlns="http://www.w3.org/2000/svg">
<path d="M379.113 433.33L380.956 371.907L409.795 389.671L379.113 433.33Z" fill="#0096A2"/>
<path d="M375.374 408.479L367.881 449.69L355.504 419.208L375.374 408.479Z" fill="#00474D"/>
<rect width="62.0977" height="22.581" transform="matrix(-0.0284836 0.999594 -0.879916 0.47513 377.192 346.378)" fill="#005E66"/>
<path d="M362.659 371.308C362.618 372.741 363.607 373.351 364.869 372.67C366.13 371.989 367.185 370.275 367.226 368.842C367.267 367.409 366.278 366.8 365.016 367.481C363.755 368.162 362.699 369.876 362.659 371.308Z" fill="#D5F6F0"/>
<path d="M364.609 381.794C363.347 382.475 362.358 381.866 362.399 380.433C362.439 379 363.495 377.286 364.756 376.605C366.018 375.924 367.007 376.533 366.966 377.966C366.925 379.399 365.87 381.113 364.609 381.794Z" fill="#D5F6F0"/>
<path d="M362.139 389.557C362.098 390.99 363.087 391.599 364.349 390.918C365.61 390.237 366.665 388.523 366.706 387.09C366.747 385.658 365.758 385.048 364.496 385.729C363.235 386.41 362.179 388.124 362.139 389.557Z" fill="#D5F6F0"/>
<path d="M361.879 398.681C361.838 400.114 362.827 400.723 364.089 400.042C365.35 399.361 366.405 397.648 366.446 396.215C366.487 394.782 365.498 394.172 364.236 394.853C362.975 395.535 361.919 397.248 361.879 398.681Z" fill="#D5F6F0"/>
<rect width="62.0977" height="22.581" transform="matrix(-0.0284836 0.999594 -0.851432 -0.524465 396.419 358.223)" fill="#0096A2"/>
<path d="M397.459 348.268L387.217 364.402L387.203 364.918L387.524 353.632L397.459 348.268Z" fill="#005E66"/>
<path d="M355.677 418.895L357.338 357.36L328.499 339.595L355.677 418.895Z" fill="#018A95"/>
<path d="M394.648 420.278L367.839 449.84L375.397 408.344L394.648 420.278Z" fill="#017983"/>
<path d="M373.421 419.273L387.175 428.557L381.093 435.321L371.597 429.518L373.421 419.273Z" fill="#89E5D3"/>
<path fill-rule="evenodd" clip-rule="evenodd" d="M331.476 179.509C335.228 181.393 337.979 183.671 339.366 186.183C341.981 185.827 344.715 185.639 347.529 185.639C366.288 185.639 381.495 194.017 381.495 204.353C381.495 208.216 379.371 211.806 375.731 214.787C382.843 218.715 387.266 224.228 387.266 230.332C387.266 237.512 381.145 243.873 371.727 247.801C374.241 250.098 375.719 252.893 375.725 255.909C380.432 258.041 383.66 262.418 383.66 267.472C383.66 270.623 382.405 273.512 380.318 275.757C381.961 276.914 382.99 278.573 382.99 280.416C382.99 283.912 379.286 286.747 374.717 286.747C370.148 286.747 366.444 283.912 366.444 280.416C366.444 280.335 366.446 280.255 366.45 280.175C360.758 279.177 356.265 275.176 355.102 270.086C354.585 270.109 354.063 270.121 353.537 270.121C341.282 270.121 331.348 263.767 331.348 255.929C331.348 253.766 332.105 251.716 333.458 249.881C324.781 247.54 317.913 243.361 314.388 238.222C307.275 241.42 298.139 243.343 288.174 243.343C265.488 243.343 247.097 233.378 247.097 221.085C247.097 219.713 247.326 218.37 247.764 217.066C245.76 217.218 243.699 217.297 241.596 217.297C221.695 217.297 205.562 210.21 205.562 201.468C205.562 194.172 216.8 188.028 232.086 186.196C231.679 185.215 231.465 184.199 231.465 183.159C231.465 177.736 237.277 172.993 245.954 170.407C243.295 167.082 241.788 163.285 241.788 159.254C241.788 146.14 257.734 135.51 277.404 135.51C294.297 135.51 308.443 143.35 312.101 153.87C324.039 155.94 332.92 163.774 332.92 173.122C332.92 175.357 332.412 177.505 331.476 179.509Z" fill="white"/>
<path fill-rule="evenodd" clip-rule="evenodd" d="M197.662 60.8124C195.253 61.641 192.63 62.0959 189.886 62.0959C188.761 62.0959 187.657 62.0195 186.579 61.8722C184.415 67.1338 177.19 71 168.611 71C158.322 71 149.981 65.4395 149.981 58.5802C149.981 51.7209 158.322 46.1604 168.611 46.1604C168.684 46.1604 168.758 46.1607 168.832 46.1613C168.686 45.2813 168.611 44.3815 168.611 43.4662C168.611 33.1773 178.136 24.8365 189.886 24.8365C196.43 24.8365 202.284 27.4235 206.186 31.4932C207.769 31.2016 209.437 31.0458 211.159 31.0458C221.448 31.0458 229.789 36.6063 229.789 43.4656C229.789 45.3374 229.168 47.1125 228.055 48.7043C232.893 50.3772 236 52.9723 236 55.886C236 60.9318 226.683 65.0223 215.19 65.0223C207.83 65.0223 201.362 63.3445 197.662 60.8124Z" fill="white"/>
<path fill-rule="evenodd" clip-rule="evenodd" d="M34.8848 15.9852C35.6868 14.6755 36.1311 13.2323 36.1311 11.7162C36.1311 5.74387 29.2372 0.902344 20.7332 0.902344C12.2292 0.902344 5.3353 5.74387 5.3353 11.7162C5.3353 12.2003 5.3806 12.677 5.46838 13.1443C2.27081 15.8299 0.238281 19.8576 0.238281 24.3601C0.238281 32.4457 6.7929 39.0003 14.8784 39.0003C19.1217 39.0003 22.9434 37.195 25.6173 34.3107C28.4111 36.3078 32.3005 37.5464 36.6018 37.5464C45.1059 37.5464 51.9997 32.7049 51.9997 26.7325C51.9997 20.7602 45.1059 15.9187 36.6018 15.9187C36.0214 15.9187 35.4485 15.9412 34.8848 15.9852Z" fill="white"/>
</svg>
