<svg fill="none" height="56" viewBox="0 0 44 56" width="44" xmlns="http://www.w3.org/2000/svg" xmlns:xlink="http://www.w3.org/1999/xlink"><linearGradient id="a"><stop offset="0" stop-color="#002f33"/><stop offset=".297991" stop-color="#0096a2"/><stop offset="1" stop-color="#005e66"/></linearGradient><linearGradient id="b" gradientUnits="userSpaceOnUse" x1="11.2384" x2="42.9236" xlink:href="#a" y1="41.7206" y2="41.7206"/><linearGradient id="c" gradientUnits="userSpaceOnUse" x1="10.0735" x2="41.7587" xlink:href="#a" y1="37.6815" y2="37.6815"/><linearGradient id="d" gradientUnits="userSpaceOnUse" x1="12.3147" x2="43.9999" xlink:href="#a" y1="33.642" y2="33.642"/><linearGradient id="e" gradientUnits="userSpaceOnUse" x1="11.9141" x2="43.5993" xlink:href="#a" y1="29.6029" y2="29.6029"/><circle cx="15.8425" cy="27.8425" fill="#0096a2" r="15.8425"/><circle cx="15.8425" cy="27.8413" fill="#89e5d3" r="11.0415"/><circle cx="15.8384" cy="28.043" r="13.5169" stroke="#005e66" stroke-width=".978844"/><path d="m11.2384 39.7009h31.6852v4.03933h-31.6852z" fill="url(#b)"/><g stroke-width=".652562"><path d="m12.6412 40.5623v2.3173" stroke="#89e5d3"/><path d="m14.0046 40.5623v2.3173" stroke="#89e5d3"/><path d="m15.5968 40.5623v2.3173" stroke="#89e5d3"/><path d="m17.3529 40.5623v2.3173" stroke="#89e5d3"/><g stroke="#eafaf7"><path d="m20.4526 40.5623v2.3173"/><path d="m24.0914 40.5623v2.3173"/><path d="m28.062 40.5623v2.3173"/><path d="m32.2707 40.5623v2.3173"/><path d="m35.5415 40.5623v2.3173"/></g><path d="m38.5331 40.5623v2.3173" stroke="#d5f6f0"/><path d="m40.9396 40.5623v2.3173" stroke="#d5f6f0"/><path d="m42.0854 40.5623v2.3173" stroke="#d5f6f0"/></g><path d="m10.0735 35.6619h31.6852v4.03933h-31.6852z" fill="url(#c)"/><g stroke-width=".652562"><path d="m11.4753 36.5215v2.3173" stroke="#89e5d3"/><path d="m12.8398 36.5215v2.3173" stroke="#89e5d3"/><path d="m14.4308 36.5215v2.3173" stroke="#89e5d3"/><path d="m16.1875 36.5215v2.3173" stroke="#89e5d3"/><path d="m19.2882 36.5215v2.3173" stroke="#eafaf7"/><path d="m22.9255 36.5215v2.3173" stroke="#eafaf7"/><path d="m26.8966 36.5215v2.3173" stroke="#eafaf7"/><path d="m31.1042 36.5215v2.3173" stroke="#eafaf7"/><path d="m34.3762 36.5215v2.3173" stroke="#eafaf7"/><path d="m37.3671 36.5215v2.3173" stroke="#d5f6f0"/><path d="m39.7737 36.5215v2.3173" stroke="#d5f6f0"/><path d="m40.9189 36.5215v2.3173" stroke="#d5f6f0"/></g><path d="m12.3147 31.6223h31.6852v4.03933h-31.6852z" fill="url(#d)"/><path d="m13.7178 32.4834v2.3173" stroke="#89e5d3" stroke-width=".652562"/><path d="m15.0821 32.4834v2.3173" stroke="#89e5d3" stroke-width=".652562"/><path d="m16.6742 32.4834v2.3173" stroke="#89e5d3" stroke-width=".652562"/><path d="m18.4303 32.4834v2.3173" stroke="#89e5d3" stroke-width=".652562"/><path d="m21.5316 32.4834v2.3173" stroke="#eafaf7" stroke-width=".652562"/><path d="m25.1688 32.4834v2.3173" stroke="#eafaf7" stroke-width=".652562"/><path d="m29.1394 32.4834v2.3173" stroke="#eafaf7" stroke-width=".652562"/><path d="m33.3472 32.4834v2.3173" stroke="#eafaf7" stroke-width=".652562"/><path d="m36.6195 32.4834v2.3173" stroke="#eafaf7" stroke-width=".652562"/><path d="m39.6109 32.4834.0001 2.3173" stroke="#d5f6f0" stroke-width=".652562"/><path d="m42.016 32.4834v2.3173" stroke="#d5f6f0" stroke-width=".652562"/><path d="m43.1614 32.4834v2.3173" stroke="#d5f6f0" stroke-width=".652562"/><path d="m11.9141 27.5833h31.6852v4.03933h-31.6852z" fill="url(#e)"/><path d="m13.3171 28.4448v2.3173" stroke="#89e5d3" stroke-width=".652562"/><path d="m14.6807 28.4448v2.3173" stroke="#89e5d3" stroke-width=".652562"/><path d="m16.2721 28.4448v2.3173" stroke="#89e5d3" stroke-width=".652562"/><path d="m18.0279 28.4448v2.3173" stroke="#89e5d3" stroke-width=".652562"/><path d="m21.1285 28.4448v2.3173" stroke="#eafaf7" stroke-width=".652562"/><path d="m24.7668 28.4448v2.3173" stroke="#eafaf7" stroke-width=".652562"/><path d="m28.7369 28.4448v2.3173" stroke="#eafaf7" stroke-width=".652562"/><path d="m32.9455 28.4448v2.3173" stroke="#eafaf7" stroke-width=".652562"/><path d="m36.217 28.4448v2.3173" stroke="#eafaf7" stroke-width=".652562"/><path d="m39.2088 28.4448.0001 2.3173" stroke="#d5f6f0" stroke-width=".652562"/><path d="m41.6144 28.4448v2.3173" stroke="#d5f6f0" stroke-width=".652562"/><path d="m42.7602 28.4448v2.3173" stroke="#d5f6f0" stroke-width=".652562"/></svg>