<svg fill="none" height="56" viewBox="0 0 44 56" width="44" xmlns="http://www.w3.org/2000/svg"><path d="m0 0h13.9999v34.9998h-13.9999z" fill="#d5f6f0" transform="matrix(.866025 .5 -.00000002 1 4 7)"/><path d="m0 0h13.9999v17.4999h-13.9999z" fill="#89e5d3" transform="matrix(.866025 -.5 .00000002 1 28.2756 38.5)"/><path d="m0 0h13.9999v34.9998h-13.9999z" fill="#89e5d3" transform="matrix(.866025 -.5 .00000002 1 16.1247 14.0002)"/><path d="m0 0h13.9999v17.4999h-13.9999z" fill="#d5f6f0" transform="matrix(.866025 .5 -.00000002 1 16.1247 31.4995)"/><path d="m0 0h13.9999v13.9999h-13.9999z" fill="#eafaf7" transform="matrix(.866025 -.5 .866025 .5 4 7)"/><path d="m0 0h13.9999v13.9999h-13.9999z" fill="#eafaf7" transform="matrix(.866025 -.5 .866025 .5 16.1247 31.4995)"/><g fill="#005e66"><path d="m0 0h1.39999v1.39999h-1.39999z" transform="matrix(.866025 .5 -.00000002 1 5.13745 10.0701)"/><path d="m0 0h1.39999v1.39999h-1.39999z" transform="matrix(.866025 .5 -.00000002 1 8.01709 11.7339)"/><path d="m0 0h1.39999v1.39999h-1.39999z" transform="matrix(.866025 .5 -.00000002 1 10.8964 13.3953)"/><path d="m0 0h1.39999v1.39999h-1.39999z" transform="matrix(.866025 .5 -.00000002 1 13.7761 15.0586)"/><path d="m0 0h1.39999v1.39999h-1.39999z" transform="matrix(.866025 .5 -.00000002 1 5.13739 12.9468)"/><path d="m0 0h1.39999v1.39999h-1.39999z" transform="matrix(.866025 .5 -.00000002 1 8.01709 14.6101)"/><path d="m0 0h1.39999v1.39999h-1.39999z" transform="matrix(.866025 .5 -.00000002 1 10.8964 16.2729)"/><path d="m0 0h1.39999v1.39999h-1.39999z" transform="matrix(.866025 .5 -.00000002 1 13.7761 17.9353)"/><path d="m0 0h1.39999v1.39999h-1.39999z" transform="matrix(.866025 .5 -.00000002 1 5.13739 15.8247)"/><path d="m0 0h1.39999v1.39999h-1.39999z" transform="matrix(.866025 .5 -.00000002 1 8.01709 17.4878)"/><path d="m0 0h1.39999v1.39999h-1.39999z" transform="matrix(.866025 .5 -.00000002 1 10.8964 19.1501)"/><path d="m0 0h1.39999v1.39999h-1.39999z" transform="matrix(.866025 .5 -.00000002 1 13.7761 20.8125)"/><path d="m0 0h1.39999v1.39999h-1.39999z" transform="matrix(.866025 .5 -.00000002 1 5.13739 18.7031)"/><path d="m0 0h1.39999v1.39999h-1.39999z" transform="matrix(.866025 .5 -.00000002 1 8.01709 20.3657)"/><path d="m0 0h1.39999v1.39999h-1.39999z" transform="matrix(.866025 .5 -.00000002 1 10.8964 22.0276)"/><path d="m0 0h1.39999v1.39999h-1.39999z" transform="matrix(.866025 .5 -.00000002 1 13.7761 23.6902)"/><path d="m0 0h1.39999v1.39999h-1.39999z" transform="matrix(.866025 .5 -.00000002 1 5.13739 21.5798)"/><path d="m0 0h1.39999v1.39999h-1.39999z" transform="matrix(.866025 .5 -.00000002 1 8.01697 23.2422)"/><path d="m0 0h1.39999v1.39999h-1.39999z" transform="matrix(.866025 .5 -.00000002 1 10.8964 24.9045)"/><path d="m0 0h1.39999v1.39999h-1.39999z" transform="matrix(.866025 .5 -.00000002 1 13.7761 26.5676)"/><path d="m0 0h1.39999v1.39999h-1.39999z" transform="matrix(.866025 .5 -.00000002 1 5.13739 24.4565)"/><path d="m0 0h1.39999v1.39999h-1.39999z" transform="matrix(.866025 .5 -.00000002 1 8.01697 26.1196)"/><path d="m0 0h1.39999v1.39999h-1.39999z" transform="matrix(.866025 .5 -.00000002 1 10.8964 27.7815)"/><path d="m0 0h1.39999v1.39999h-1.39999z" transform="matrix(.866025 .5 -.00000002 1 13.7763 29.4441)"/><path d="m0 0h1.39999v1.39999h-1.39999z" transform="matrix(.866025 .5 -.00000002 1 5.13739 27.334)"/><path d="m0 0h1.39999v1.39999h-1.39999z" transform="matrix(.866025 .5 -.00000002 1 8.01697 28.9968)"/><path d="m0 0h1.39999v1.39999h-1.39999z" transform="matrix(.866025 .5 -.00000002 1 10.8962 30.6594)"/><path d="m0 0h1.39999v1.39999h-1.39999z" transform="matrix(.866025 .5 -.00000002 1 13.7763 32.3213)"/><path d="m0 0h1.39999v1.39999h-1.39999z" transform="matrix(.866025 .5 -.00000002 1 5.13739 30.2112)"/><path d="m0 0h1.39999v1.39999h-1.39999z" transform="matrix(.866025 .5 -.00000002 1 8.01709 31.8733)"/><path d="m0 0h1.39999v1.39999h-1.39999z" transform="matrix(.866025 .5 -.00000002 1 10.8964 33.5359)"/><path d="m0 0h1.39999v1.39999h-1.39999z" transform="matrix(.866025 .5 -.00000002 1 13.7761 35.1978)"/><path d="m0 0h1.39999v1.39999h-1.39999z" transform="matrix(.866025 .5 -.00000002 1 5.13739 33.0889)"/><path d="m0 0h1.39999v1.39999h-1.39999z" transform="matrix(.866025 .5 -.00000002 1 8.01709 34.751)"/><path d="m0 0h1.39999v1.39999h-1.39999z" transform="matrix(.866025 .5 -.00000002 1 10.8964 36.4136)"/><path d="m0 0h1.39999v1.39999h-1.39999z" transform="matrix(.866025 .5 -.00000002 1 13.7761 38.0757)"/><path d="m0 0h1.39999v1.39999h-1.39999z" transform="matrix(.866025 .5 -.00000002 1 5.13739 35.9658)"/><path d="m0 0h1.39999v1.39999h-1.39999z" transform="matrix(.866025 .5 -.00000002 1 8.01709 37.6279)"/><path d="m0 0h1.39999v1.39999h-1.39999z" transform="matrix(.866025 .5 -.00000002 1 10.8964 39.2903)"/><path d="m0 0h1.39999v1.39999h-1.39999z" transform="matrix(.866025 .5 -.00000002 1 13.7763 40.9536)"/><path d="m0 0h1.39999v1.39999h-1.39999z" transform="matrix(.866025 .5 -.00000002 1 5.13739 38.8428)"/><path d="m0 0h1.39999v1.39999h-1.39999z" transform="matrix(.866025 .5 -.00000002 1 8.01709 40.5056)"/><path d="m0 0h1.39999v1.39999h-1.39999z" transform="matrix(.866025 .5 -.00000002 1 10.8964 42.1682)"/><path d="m0 0h1.39999v1.39999h-1.39999z" transform="matrix(.866025 .5 -.00000002 1 13.7761 43.8308)"/><path d="m0 0h1.39999v1.39999h-1.39999z" transform="matrix(.866025 .5 -.00000002 1 16.1247 33.6201)"/><path d="m0 0h1.39999v1.39999h-1.39999z" transform="matrix(.866025 .5 -.00000002 1 19.0034 35.2839)"/><path d="m0 0h1.39999v1.39999h-1.39999z" transform="matrix(.866025 .5 -.00000002 1 21.884 36.9463)"/><path d="m0 0h1.39999v1.39999h-1.39999z" transform="matrix(.866025 .5 -.00000002 1 24.7617 38.6086)"/><path d="m0 0h1.39999v1.39999h-1.39999z" transform="matrix(.866025 .5 -.00000002 1 16.1248 36.3977)"/><path d="m0 0h1.39999v1.39999h-1.39999z" transform="matrix(.866025 .5 -.00000002 1 19.0034 38.0598)"/><path d="m0 0h1.39999v1.39999h-1.39999z" transform="matrix(.866025 .5 -.00000002 1 21.884 39.7239)"/><path d="m0 0h1.39999v1.39999h-1.39999z" transform="matrix(.866025 .5 -.00000002 1 24.7617 41.3848)"/><path d="m0 0h1.39999v1.39999h-1.39999z" transform="matrix(.866025 .5 -.00000002 1 16.1248 39.1733)"/><path d="m0 0h1.39999v1.39999h-1.39999z" transform="matrix(.866025 .5 -.00000002 1 19.0034 40.8367)"/><path d="m0 0h1.39999v1.39999h-1.39999z" transform="matrix(.866025 .5 -.00000002 1 21.884 42.4993)"/><path d="m0 0h1.39999v1.39999h-1.39999z" transform="matrix(.866025 .5 -.00000002 1 24.7617 44.1616)"/><path d="m0 0h1.39999v1.39999h-1.39999z" transform="matrix(.866025 .5 -.00000002 1 16.1248 41.9509)"/><path d="m0 0h1.39999v1.39999h-1.39999z" transform="matrix(.866025 .5 -.00000002 1 19.0035 43.6123)"/><path d="m0 0h1.39999v1.39999h-1.39999z" transform="matrix(.866025 .5 -.00000002 1 21.884 45.2756)"/><path d="m0 0h1.39999v1.39999h-1.39999z" transform="matrix(.866025 .5 -.00000002 1 24.7617 46.9382)"/><path d="m0 0h1.39999v1.39999h-1.39999z" transform="matrix(.866025 .5 -.00000002 1 16.1248 44.7275)"/><path d="m0 0h1.39999v1.39999h-1.39999z" transform="matrix(.866025 .5 -.00000002 1 19.0034 46.3887)"/><path d="m0 0h1.39999v1.39999h-1.39999z" transform="matrix(.866025 .5 -.00000002 1 21.884 48.0527)"/><path d="m0 0h1.39999v1.39999h-1.39999z" transform="matrix(.866025 .5 -.00000002 1 24.7617 49.7158)"/></g><g fill="#002f33"><path d="m0 0h1.39999v1.39999h-1.39999z" transform="matrix(.866025 -.5 .00000002 1 29.5513 39.7273)"/><path d="m0 0h1.39999v1.39999h-1.39999z" transform="matrix(.866025 -.5 .00000002 1 32.4309 38.0649)"/><path d="m0 0h1.39999v1.39999h-1.39999z" transform="matrix(.866025 -.5 .00000002 1 35.3115 36.4016)"/><path d="m0 0h1.39999v1.39999h-1.39999z" transform="matrix(.866025 -.5 .00000002 1 38.1912 34.7393)"/><path d="m0 0h1.39999v1.39999h-1.39999z" transform="matrix(.866025 -.5 .00000002 1 29.5513 42.5042)"/><path d="m0 0h1.39999v1.39999h-1.39999z" transform="matrix(.866025 -.5 .00000002 1 32.4309 40.8418)"/><path d="m0 0h1.39999v1.39999h-1.39999z" transform="matrix(.866025 -.5 .00000002 1 35.3115 39.179)"/><path d="m0 0h1.39999v1.39999h-1.39999z" transform="matrix(.866025 -.5 .00000002 1 38.1913 37.5164)"/><path d="m0 0h1.39999v1.39999h-1.39999z" transform="matrix(.866025 -.5 .00000002 1 29.5513 45.281)"/><path d="m0 0h1.39999v1.39999h-1.39999z" transform="matrix(.866025 -.5 .00000002 1 32.4309 43.6172)"/><path d="m0 0h1.39999v1.39999h-1.39999z" transform="matrix(.866025 -.5 .00000002 1 35.3115 41.9553)"/><path d="m0 0h1.39999v1.39999h-1.39999z" transform="matrix(.866025 -.5 .00000002 1 38.1913 40.2927)"/><path d="m0 0h1.39999v1.39999h-1.39999z" transform="matrix(.866025 -.5 .00000002 1 29.5513 48.0571)"/><path d="m0 0h1.39999v1.39999h-1.39999z" transform="matrix(.866025 -.5 .00000002 1 32.4309 46.3943)"/><path d="m0 0h1.39999v1.39999h-1.39999z" transform="matrix(.866025 -.5 .00000002 1 35.3115 44.7334)"/><path d="m0 0h1.39999v1.39999h-1.39999z" transform="matrix(.866025 -.5 .00000002 1 38.1913 43.0701)"/><path d="m0 0h1.39999v1.39999h-1.39999z" transform="matrix(.866025 -.5 .00000002 1 29.5513 50.8337)"/><path d="m0 0h1.39999v1.39999h-1.39999z" transform="matrix(.866025 -.5 .00000002 1 32.4311 49.1719)"/><path d="m0 0h1.39999v1.39999h-1.39999z" transform="matrix(.866025 -.5 .00000002 1 35.3115 47.5093)"/><path d="m0 0h1.39999v1.39999h-1.39999z" transform="matrix(.866025 -.5 .00000002 1 38.1913 45.8469)"/><path d="m0 0h1.39999v1.39999h-1.39999z" transform="matrix(.866025 -.5 .00000002 1 17.2616 15.8254)"/><path d="m0 0h1.39999v1.39999h-1.39999z" transform="matrix(.866025 -.5 .00000002 1 20.1411 14.1631)"/><path d="m0 0h1.39999v1.39999h-1.39999z" transform="matrix(.866025 -.5 .00000002 1 23.0203 12.5007)"/><path d="m0 0h1.39999v1.39999h-1.39999z" transform="matrix(.866025 -.5 .00000002 1 25.8983 10.8376)"/><path d="m0 0h1.39999v1.39999h-1.39999z" transform="matrix(.866025 -.5 .00000002 1 17.2614 18.6016)"/><path d="m0 0h1.39999v1.39999h-1.39999z" transform="matrix(.866025 -.5 .00000002 1 20.1409 16.9395)"/><path d="m0 0h1.39999v1.39999h-1.39999z" transform="matrix(.866025 -.5 .00000002 1 23.0201 15.2766)"/><path d="m0 0h1.39999v1.39999h-1.39999z" transform="matrix(.866025 -.5 .00000002 1 25.8983 13.614)"/><path d="m0 0h1.39999v1.39999h-1.39999z" transform="matrix(.866025 -.5 .00000002 1 17.2614 21.3784)"/><path d="m0 0h1.39999v1.39999h-1.39999z" transform="matrix(.866025 -.5 .00000002 1 20.1411 19.7156)"/><path d="m0 0h1.39999v1.39999h-1.39999z" transform="matrix(.866025 -.5 .00000002 1 23.0203 18.053)"/><path d="m0 0h1.39999v1.39999h-1.39999z" transform="matrix(.866025 -.5 .00000002 1 25.8983 16.3901)"/><path d="m0 0h1.39999v1.39999h-1.39999z" transform="matrix(.866025 -.5 .00000002 1 17.2614 24.1541)"/><path d="m0 0h1.39999v1.39999h-1.39999z" transform="matrix(.866025 -.5 .00000002 1 20.1411 22.4919)"/><path d="m0 0h1.39999v1.39999h-1.39999z" transform="matrix(.866025 -.5 .00000002 1 23.0203 20.8298)"/><path d="m0 0h1.39999v1.39999h-1.39999z" transform="matrix(.866025 -.5 .00000002 1 25.8983 19.167)"/><path d="m0 0h1.39999v1.39999h-1.39999z" transform="matrix(.866025 -.5 .00000002 1 17.2614 26.9326)"/><path d="m0 0h1.39999v1.39999h-1.39999z" transform="matrix(.866025 -.5 .00000002 1 20.1411 25.2695)"/><path d="m0 0h1.39999v1.39999h-1.39999z" transform="matrix(.866025 -.5 .00000002 1 23.0203 23.6067)"/><path d="m0 0h1.39999v1.39999h-1.39999z" transform="matrix(.866025 -.5 .00000002 1 25.8983 21.9443)"/></g></svg>