<svg fill="none" height="56" viewBox="0 0 44 56" width="44" xmlns="http://www.w3.org/2000/svg" xmlns:xlink="http://www.w3.org/1999/xlink"><clipPath id="a"><path d="m0 0h44v56h-44z"/></clipPath><g clip-path="url(#a)"><path d="m22.7141 3.28942 2.8161 8.80928 4.8733-2.71008.3786 8.09158 6.2722.5034-2.1099 6.2811 6.8241 3.6489-4.3136 3.6223 6.4543 6.3015-5.9346.4743 5.2128 8.1031-6.7541-2.7377 3.2673 8.8104-6.6615-5.5801.8806 8.3277-5.6693-7.6687-1.625 6.7204-3.9113-8.7218-3.9113 4.2054-1.625-8.5968-5.6693 1.1225.8807-7.3109-6.66159-2.1121 3.26737-5.0375-6.75418-5.0613 5.21285-2.0838-5.93463-7.3271 6.45431 1.1513-4.31356-8.60321 6.82403 4.23091-2.1099-8.71745 6.2722 6.73914.3787-7.654369 4.8732 8.337209z" fill="#d5f6f0"/><path d="m0 0h33.7166v8.40519h-33.7166z" fill="#0096a2" transform="matrix(.866025 .5 -.866025 .5 7.27905 10.3098)"/><path d="m0 0h8.40518v16.8104h-8.40518z" fill="#002f33" transform="matrix(.866025 -.5 .00000002 1 29.1991 31.3228)"/><path d="m0 0h33.6208v16.8104h-33.6208z" fill="#005e66" transform="matrix(.866025 .5 -.00000002 1 .082275 14.5603)"/><path d="m6.16056 23.5516v3.5095l-2.1595-4.7562-.95977-.5542v6.4648l1.2797.7389v-3.5095l2.15949 4.7563.95978.5541v-6.4648zm3.67851 7.1664v-1.1452l1.99953 1.1544v-1.4038l-1.99953-1.1544v-1.0713l2.19953 1.2699v-1.4223l-3.47923-2.0087v6.4648l3.51913 2.0318v-1.4223zm4.26523 3.8847 1.4556.8405.9118-3.2878.9118 4.3406 1.4556.8404 1.5437-5.5736-1.3437-.7757-.9678 3.9666-1.0797-5.1488-1.0398-.6003-1.0797 3.902-.9678-5.0841-1.3437-.7758zm8.802 5.2112c1.2157.7019 2.0795.4618 2.0795-.785 0-1.3668-.9518-2.2581-1.7996-3.0431-.8717-.8081-1.0077-1.0898-1.0077-1.3853 0-.2586.1999-.374.5998-.1431.5119.2955.7759.7342.9678 1.3068l1.0798-.1062c-.4079-1.1868-1.1278-2.1103-2.0476-2.6414-.9677-.5587-1.8795-.3648-1.8795.882 0 1.2376.8158 2.1703 1.6476 2.9184.8398.7527 1.1597 1.0944 1.1597 1.4915 0 .2494-.1519.4387-.7598.0878-.6318-.3648-.9758-.9236-1.1757-1.5747l-1.1038.1016c.312 1.1314 1.0638 2.2119 2.2395 2.8907z" fill="#d5f6f0"/></g></svg>