<svg fill="none" height="56" viewBox="0 0 44 56" width="44" xmlns="http://www.w3.org/2000/svg" xmlns:xlink="http://www.w3.org/1999/xlink"><linearGradient id="a"><stop offset="0" stop-color="#0096a2"/><stop offset="1" stop-color="#002f33"/></linearGradient><linearGradient id="b" gradientUnits="userSpaceOnUse" x1="23.9316" x2="37.817" xlink:href="#a" y1="12.492" y2="21.6551"/><linearGradient id="c" gradientUnits="userSpaceOnUse" x1="37.2989" x2="47.6041" xlink:href="#a" y1="26.9277" y2="35.8912"/><clipPath id="d"><path d="m0 0h44v56h-44z"/></clipPath><g clip-path="url(#d)"><path d="m5.6 12.465s1.92698-1.1089 3.88088-.685c1.50252.326 3.14122 1.5305 3.14122 1.5305l-4.18747 2.4176s-1.87192-1.2968-3.44551-1.4797c-1.55366-.1805-3.57663.6343-3.57663.6343z" fill="#0096a2"/><path d="m10.5796 11.4177 4.1875-2.41763s3.2662-1.93858 9.9378 1.38453c10.1506 5.0558 12.5787 16.4857 12.5787 16.4857l-4.1875 2.4177s-3.9976-12.0626-12.5787-16.4858c-5.5631-2.86756-9.9378-1.3845-9.9378-1.3845z" fill="url(#b)"/><path d="m33.0964 29.2778 4.1875-2.4176s4.9892 2.4176 6.531 9.6795c.7302 3.4387-.9362 4.6335-.9362 4.6335l-4.1875 2.4176s1.6022-1.302.9362-4.6335c-.9362-4.6832-6.531-9.6795-6.531-9.6795z" fill="url(#c)"/><path d="m11.1723 31.9662c-1.0194-.1042-2.16119-.4922-3.36686-1.1883-4.31083-2.4888-7.80544048-7.9739-7.80544039-12.2513.0000001-4.2773 3.49461039-5.7271 7.80544039-3.2383.19463.1124.3876.2309.57867.3551.25148-5.3255 5.69499-6.55388 12.37339-2.6981 6.4406 3.7185 11.7328 10.8394 12.327 16.3789 3.8703 3.1671 6.697 7.7421 6.697 11.2283 0 4.2359-4.1732 5.2604-9.3213 2.2882-1.9403-1.1203-3.7422-2.6484-5.2343-4.3447-1.1162 2.1318-4.0411 2.4242-7.4736.4424-2.735-1.5791-5.1477-4.2298-6.58-6.9722z" fill="#005e66"/><path clip-rule="evenodd" d="m18.736 32.1712-5.8226-3.3617-3.18488 9.2181 6.67088 3.8515v7.0978l4.884-9.2621-.0209.0007.0197-.0273-5.0921-2.9399z" fill="#d5f6f0" fill-rule="evenodd"/><path d="m0 0h6.73836v2.41766h-6.73836z" fill="#eafaf7" transform="matrix(.866025 .5 -.866025 .5 14.8176 27.6814)"/><path d="m18.3107 35.5093 5.0665 3.0113-2.0938 1.2089-5.0977-2.9889z" fill="#eafaf7"/><g fill="#89e5d3"><path d="m18.5595 32.2593 2.0934-1.2086-2.3502 4.4656-2.0933 1.2086z"/><path d="m21.2643 39.7276 2.1167-1.2098-4.8906 9.2492-2.0933 1.2086z"/></g></g></svg>