<svg fill="none" height="56" viewBox="0 0 44 56" width="44" xmlns="http://www.w3.org/2000/svg" xmlns:xlink="http://www.w3.org/1999/xlink"><linearGradient id="a"><stop offset="0" stop-color="#002f33"/><stop offset=".348958" stop-color="#0096a2"/><stop offset="1" stop-color="#002f33"/></linearGradient><linearGradient id="b" gradientUnits="userSpaceOnUse" x1="3.57345" x2="3.57345" xlink:href="#a" y1="0" y2="13.034"/><linearGradient id="c" gradientUnits="userSpaceOnUse" x1="3.80733" x2="3.80733" xlink:href="#a" y1="0" y2="12.4354"/><linearGradient id="d" gradientUnits="userSpaceOnUse" x1="3.71771" x2="3.71771" xlink:href="#a" y1="0" y2="12.4354"/><mask id="e" height="18" maskUnits="userSpaceOnUse" width="7" x="22" y="26"><path d="m0 0h7.14691v13.034h-7.14691z" fill="#d9d9d9" transform="matrix(.866025 .5 -.00000002 1 22.5351 26.5903)"/></mask><path d="m0 0h9.41932v18.244h-9.41932z" fill="#002f33" transform="matrix(.866025 -.5 .00000002 1 32.0136 29.3435)"/><path d="m0 0h32.4967v9.41932h-32.4967z" fill="#0096a2" transform="matrix(.866025 .5 -.866025 .5 12.028 8.3855)"/><path d="m.593192 1.02744h31.1262v16.8761h-31.1262z" fill="#0c0d0d" stroke="#005e66" stroke-width="1.36992" transform="matrix(.866025 .5 -.00000002 1 3.90851 12.8238)"/><g mask="url(#e)"><path d="m0 0h7.14691v13.034h-7.14691z" fill="url(#b)" transform="matrix(.866025 .5 -.00000002 1 22.5351 26.5903)"/><g fill="#fff"><path d="m23.9411 30.5996 3.531 2.0387v-1.3192l-1.7433-1.0064.8605-.5054c.4748-.2741.8086-.6981.8086-1.4176 0-1.2078-.8308-2.3899-1.7581-2.9252-.7196-.4154-1.4169-.3983-1.7507.2998l1.0015 1.2549c.1409-.2956.4005-.4198.764-.2099.3487.2013.5564.5782.5564.9551 0 .3512-.2226.5739-.5267.758l-1.7432 1.0836z"/><path d="m26.3791 39.3153.8976-.8009v-1.1135l-3.3382-1.9273v1.2849l1.899 1.0964-.9421.8351.4526 1.0408.2448.1413c.2299.1328.4079.3041.5266.4925.1187.197.1781.3941.1781.5825 0 .197-.0594.3255-.1781.3769-.1187.0599-.2967.0171-.5266-.1157-.4006-.2312-.6677-.591-.7938-1.0921l-1.0237.0942c.1484.514.3858.9679.7122 1.3706.3263.4111.6898.7238 1.1053.9636.5266.3041.9717.3897 1.3426.2441.3635-.1413.549-.5225.549-1.1563 0-.3941-.1039-.8052-.3042-1.2121-.2077-.4111-.4747-.7795-.8011-1.105z"/></g></g><path d="m0 0h7.61466v12.4354h-7.61466z" fill="url(#c)" transform="matrix(.866025 .5 -.00000002 1 7.07597 17.5371)"/><path d="m10.309 22.6254-1.35753-.2185.28931 1.3406.91982.2398v4.5484l1.1869.6853v-5.996z" fill="#fff"/><path d="m0 0h7.43541v12.4354h-7.43541z" fill="url(#d)" transform="matrix(.866025 .5 -.00000002 1 15.2153 22.2363)"/><path d="m16.6204 32.2652 3.531 2.0386v-1.3191l-1.7432-1.0065.8605-.5054c.4747-.2741.8086-.6981.8086-1.4176 0-1.2078-.8309-2.3898-1.7581-2.9252-.7196-.4154-1.4169-.3983-1.7507.2998l1.0014 1.2549c.141-.2955.4006-.4197.7641-.2099.3487.2013.5564.5782.5564.9551 0 .3512-.2226.5739-.5267.7581l-1.7433 1.0835z" fill="#fff"/></svg>