<svg fill="none" height="57" viewBox="0 0 44 57" width="44" xmlns="http://www.w3.org/2000/svg" xmlns:xlink="http://www.w3.org/1999/xlink"><linearGradient id="a" gradientUnits="userSpaceOnUse" x1="15.5265" x2="12.8932" y1="23.9583" y2="29.5708"><stop offset="0" stop-color="#eafaf7"/><stop offset="1" stop-color="#d5f6f0"/></linearGradient><linearGradient id="b" gradientUnits="userSpaceOnUse" x1="22.8305" x2="15.3349" y1="14.2565" y2="27.4384"><stop offset="0" stop-color="#89e5d3"/><stop offset="1" stop-color="#eafaf7"/></linearGradient><linearGradient id="c" gradientUnits="userSpaceOnUse" x1="23.3084" x2="26.5414" y1="37.5748" y2="32.7638"><stop offset="0" stop-color="#d5f6f0"/><stop offset=".553295" stop-color="#eafaf7"/></linearGradient><clipPath id="d"><path d="m0 .839111h44v56h-44z"/></clipPath><g clip-path="url(#d)"><path d="m4.75195 23.6548 4.20576 2.4282 2.27639 13.5068-4.20571-2.4282z" fill="#d5f6f0"/><path d="m8.84814 26.083 2.10286-1.2141 2.2982 13.5069-2.1028 1.214z" fill="#89e5d3"/><path d="m5.35793 15.9149s-3.03471 0-4.0971 3.3388c-1.06238 3.3388 1.46381 5.2898 1.46381 5.2898 1.00505.6374 2.07107 1.3611 3.18771 2.1466l4.31475 3.1205c.2623.1926.5263.3866.792.5819l.0018.0014c.5573.4095 3.0569 1.9211 3.5945 2.5184 4.0976 4.5529 2.2181 7.5499 4.8564 15.328l14.7217-28.076c-3.4768 1.7493-10.4723 3.187-17.7569.3035-4.044-1.6008-6.82933-3.0352-11.07867-4.5529z" fill="url(#a)"/><circle fill="url(#b)" r="14.1139" stroke="#0096a2" stroke-width=".910573" transform="matrix(.866025 -.5 .00000002 1 31.0267 35.7958)"/><path d="m25.7356 26.6479 6.7871 2.774-5.767 10.3198-6.4825-3.381s.4553-1.9729 1.9729-4.7046c1.5176-2.7318 3.4895-5.0082 3.4895-5.0082z" fill="url(#c)"/><circle fill="#005e66" r="4.85209" transform="matrix(.866025 -.5 .00000002 1 29.7141 34.6568)"/></g></svg>