<svg fill="none" height="56" viewBox="0 0 44 56" width="44" xmlns="http://www.w3.org/2000/svg"><path d="m0 0h13.5v16.875h-13.5z" fill="#002f33" transform="matrix(.866025 -.5 .00000002 1 27.4087 38.125)"/><path d="m0 0h13.5v33.75h-13.5z" fill="#002f33" transform="matrix(.866025 -.5 .00000002 1 15.6917 14.5)"/><path d="m0 0h13.5v13.5h-13.5z" fill="#0096a2" transform="matrix(.866025 -.5 .866025 .5 4 7.75)"/><path d="m0 0h13.5v13.5h-13.5z" fill="#0096a2" transform="matrix(.866025 -.5 .866025 .5 15.6917 31.3745)"/><path d="m4 7.75 11.6913 6.75v33.75l-11.6913-6.75z" fill="#005e66"/><path d="m15.6917 31.3745 11.6913 6.75v16.875l-11.6913-6.75z" fill="#005e66"/><g fill="#d5f6f0"><path d="m0 0h4.01955v4.01955h-4.01955z" transform="matrix(.866025 .5 -.00000002 1 5.12024 17.8086)"/><path d="m0 0h4.01955v4.01955h-4.01955z" transform="matrix(.866025 .5 -.00000002 1 5.12024 11.7791)"/><path d="m0 0h4.01955v4.01955h-4.01955z" transform="matrix(.866025 .5 -.00000002 1 5.12024 23.8376)"/><path d="m0 0h4.01955v4.01955h-4.01955z" transform="matrix(.866025 .5 -.00000002 1 5.12024 29.8669)"/><path d="m0 0h4.01955v4.01955h-4.01955z" transform="matrix(.866025 .5 -.00000002 1 20.7849 38.9109)"/><path d="m0 0h4.01955v4.01954h-4.01955z" transform="matrix(.866025 .5 -.00000002 1 5.12024 35.8962)"/><path d="m0 0h4.01955v4.01955h-4.01955z" transform="matrix(.866025 .5 -.00000002 1 20.7849 44.9402)"/><path d="m0 0h4.01955v4.01955h-4.01955z" transform="matrix(.866025 .5 -.00000002 1 10.3418 20.823)"/><path d="m0 0h4.01955v4.01955h-4.01955z" transform="matrix(.866025 .5 -.00000002 1 10.3418 14.7937)"/><path d="m0 0h4.01955v4.01955h-4.01955z" transform="matrix(.866025 .5 -.00000002 1 10.3418 26.8525)"/><path d="m0 0h4.01955v4.01955h-4.01955z" transform="matrix(.866025 .5 -.00000002 1 10.3418 32.8818)"/><path d="m0 0h4.01955v4.01955h-4.01955z" transform="matrix(.866025 .5 -.00000002 1 10.3418 38.9109)"/><path d="m0 0h4.01955v4.01954h-4.01955z" transform="matrix(.866025 .5 -.00000002 1 15.5634 35.8962)"/><path d="m0 0h4.01955v4.01955h-4.01955z" transform="matrix(.866025 .5 -.00000002 1 15.5634 41.9258)"/></g><g fill="#89e5d3"><path d="m0 0h4.01955v4.01955h-4.01955z" transform="matrix(.866025 -.5 .00000002 1 34.1246 37.906)"/><path d="m0 0h4.01955v4.01955h-4.01955z" transform="matrix(.866025 -.5 .00000002 1 34.1246 43.9355)"/><path d="m0 0h4.01955v4.01955h-4.01955z" transform="matrix(.866025 -.5 .00000002 1 28.9031 40.9209)"/><path d="m0 0h4.01955v4.01955h-4.01955z" transform="matrix(.866025 -.5 .00000002 1 28.9031 46.95)"/><path d="m0 0h4.01955v4.01955h-4.01955z" transform="matrix(.866025 -.5 .00000002 1 22.5254 13.7888)"/><path d="m0 0h4.01955v4.01955h-4.01955z" transform="matrix(.866025 -.5 .00000002 1 22.5254 19.8184)"/><path d="m0 0h4.01955v4.01955h-4.01955z" transform="matrix(.866025 -.5 .00000002 1 17.3038 16.8037)"/><path d="m0 0h4.01955v4.01955h-4.01955z" transform="matrix(.866025 -.5 .00000002 1 17.3038 22.8328)"/></g></svg>