<svg width="44" height="56" viewBox="0 0 44 56" fill="none" xmlns="http://www.w3.org/2000/svg">
<rect width="24.7546" height="3.53637" transform="matrix(0.866025 0.5 -0.866025 0.5 21.2366 6)" fill="#0096A2"/>
<rect width="3.53637" height="24.7546" transform="matrix(0.866025 -0.5 2.20305e-08 1 39.6121 20.1455)" fill="#002F33"/>
<rect width="24.7546" height="24.7546" transform="matrix(0.866025 0.5 -2.20305e-08 1 18.174 7.76807)" fill="#005E66"/>
<rect width="24.7546" height="3.53637" transform="matrix(0.866025 0.5 -0.866025 0.5 12.6496 8.33374)" fill="#0096A2"/>
<rect width="3.53637" height="24.7546" transform="matrix(0.866025 -0.5 2.20305e-08 1 31.025 22.4792)" fill="#002F33"/>
<rect width="24.7546" height="24.7546" transform="matrix(0.866025 0.5 -2.20305e-08 1 9.58698 10.1018)" fill="#005E66"/>
<rect width="24.7546" height="3.53637" transform="matrix(0.866025 0.5 -0.866025 0.5 4.06256 11.3044)" fill="#EAFAF7"/>
<rect width="3.53637" height="24.7546" transform="matrix(0.866025 -0.5 2.20305e-08 1 22.438 25.45)" fill="#89E5D3"/>
<rect width="24.7546" height="24.7546" transform="matrix(0.866025 0.5 -2.20305e-08 1 1 13.0728)" fill="#D5F6F0"/>
<path fill-rule="evenodd" clip-rule="evenodd" d="M19.3755 27.2183L16.3129 25.4501L16.3129 25.4502L13.2503 23.682L13.2503 27.2184L16.3129 28.9866L16.3129 32.5228L19.3755 34.291L19.3755 27.2183Z" fill="#005E66"/>
<path fill-rule="evenodd" clip-rule="evenodd" d="M3.68737 36.0591L6.74996 37.8273L6.74996 37.8272L9.81256 39.5954L9.81256 36.059L6.74996 34.2908L6.74996 30.7545L3.68737 28.9863L3.68737 36.0591Z" fill="#005E66"/>
</svg>
