<svg fill="none" height="56" viewBox="0 0 44 56" width="44" xmlns="http://www.w3.org/2000/svg" xmlns:xlink="http://www.w3.org/1999/xlink"><linearGradient id="a" gradientUnits="userSpaceOnUse" x1="1.4696" x2="26.517" y1="15.205" y2="25.576"><stop offset="0" stop-color="#89e5d3"/><stop offset="1" stop-color="#eafaf7"/></linearGradient><linearGradient id="b" gradientUnits="userSpaceOnUse" x1="12.9004" x2="31.2151" y1="6.4918" y2="22.9282"><stop offset=".393837" stop-color="#eafaf7"/><stop offset=".890625" stop-color="#89e5d3"/></linearGradient><clipPath id="c"><path d="m0 0h44v56h-44z"/></clipPath><g clip-path="url(#c)"><path d="m20.5361 35.2071 3.9455-2.2779s-10.0634 10.7318-18.70001-6.8375c-4.48961-9.1332-.37707-14.8665-.37707-14.8665l-3.3908 2.3393s-6.46296 8.2723 3.76789 20.3489c9.16559 10.819 14.75449 1.2937 14.75449 1.2937z" fill="url(#a)"/><circle fill="#eafaf7" fill-opacity=".56" r="11.7702" transform="matrix(.866025 .5 -.00000002 1 11.7553 24.7232)"/><path d="m1.56201 13.8967 3.67824-2.7739s1.76897-1.88343 5.32245-1.31491c12.6951 2.03111 13.7077 18.72851 13.7077 18.72851l-3.9455 2.278s.4593-15.7751-14.6305-18.3923c-1.97112-.3419-4.13239 1.4746-4.13239 1.4746z" fill="url(#b)"/><path d="m20.3341 35.3594 3.983-2.2996-1.6901 2.0158s-.1508.6584-2.2929 2.079c-2.1422 1.4206-4.5504 1.7394-4.5504 1.7394s1.4787-.339 2.8848-1.6016c1.4062-1.2626 1.6656-1.933 1.6656-1.933z" fill="#89e5d3"/><path d="m0 0h20.5015v4.5559h-20.5015z" fill="#005e66" transform="matrix(.866025 .5 -.00000002 1 22.2959 31.9536)"/><path d="m0 0h2.27795v4.5559h-2.27795z" fill="#d5f6f0" transform="matrix(.866025 .5 -.00000002 1 20.3303 30.8147)"/><path d="m0 0h2.27795v4.5559h-2.27795z" fill="#eafaf7" transform="matrix(.866025 .5 -.866025 .5 24.2797 28.5366)"/><path d="m0 0h20.5015v4.5559h-20.5015z" fill="#0096a2" transform="matrix(.866025 .5 -.866025 .5 26.2451 29.6753)"/><path d="m0 0h4.5559v4.5559h-4.5559z" fill="#002f33" transform="matrix(.866025 -.5 .00000002 1 40.0499 42.2043)"/></g></svg>