<svg fill="none" height="56" viewBox="0 0 44 56" width="44" xmlns="http://www.w3.org/2000/svg" xmlns:xlink="http://www.w3.org/1999/xlink"><clipPath id="a"><path d="m0 0h44v56h-44z"/></clipPath><g clip-path="url(#a)"><path d="m0 0h33.7738v33.7738h-33.7738z" fill="#d5f6f0" transform="matrix(.866025 .5 -.00000002 1 6.02087 5.33618)"/><g fill="#005e66"><path d="m0 0h33.7738v8.44345h-33.7738z" transform="matrix(.866025 .5 -.00000002 1 6.02087 5.33618)"/><path d="m0 0h4.22172v4.22172h-4.22172z" transform="matrix(.866025 .5 -.00000002 1 9.6842 20.1121)"/><path d="m0 0h4.22172v4.22172h-4.22172z" transform="matrix(.866025 .5 -.00000002 1 9.6842 26.4941)"/><path d="m0 0h4.22172v4.22172h-4.22172z" transform="matrix(.866025 .5 -.00000002 1 9.6842 32.876)"/><path d="m0 0h4.22172v4.22172h-4.22172z" transform="matrix(.866025 .5 -.00000002 1 15.7761 23.6272)"/><path d="m0 0h4.22172v4.22172h-4.22172z" transform="matrix(.866025 .5 -.00000002 1 15.7761 30.0085)"/><path d="m0 0h4.22172v4.22172h-4.22172z" transform="matrix(.866025 .5 -.00000002 1 15.7761 36.3904)"/><path d="m0 0h4.22172v4.22172h-4.22172z" transform="matrix(.866025 .5 -.00000002 1 21.8463 27.1414)"/><path d="m0 0h4.22172v4.22172h-4.22172z" transform="matrix(.866025 .5 -.00000002 1 21.8463 33.5234)"/><path d="m0 0h4.22172v4.22172h-4.22172z" transform="matrix(.866025 .5 -.00000002 1 21.8463 39.9053)"/><path d="m0 0h4.22172v4.22172h-4.22172z" transform="matrix(.866025 .5 -.00000002 1 27.9381 30.656)"/><path d="m0 0h4.22172v4.22172h-4.22172z" transform="matrix(.866025 .5 -.00000002 1 27.9381 37.0378)"/><path d="m0 0h4.22172v4.22172h-4.22172z" transform="matrix(.866025 .5 -.00000002 1 27.9381 43.4197)"/></g><path d="m0 0h33.7738v33.7738h-33.7738z" fill="#d5f6f0" transform="matrix(.866025 .5 -.00000002 1 6.02087 5.33618)"/><g fill="#005e66"><path d="m0 0h33.7738v8.44345h-33.7738z" transform="matrix(.866025 .5 -.00000002 1 6.02087 5.33618)"/><path d="m0 0h4.22172v4.22172h-4.22172z" transform="matrix(.866025 .5 -.00000002 1 9.6842 20.1121)"/><path d="m0 0h4.22172v4.22172h-4.22172z" transform="matrix(.866025 .5 -.00000002 1 9.6842 26.4941)"/><path d="m0 0h4.22172v4.22172h-4.22172z" transform="matrix(.866025 .5 -.00000002 1 9.6842 32.876)"/><path d="m0 0h4.22172v4.22172h-4.22172z" transform="matrix(.866025 .5 -.00000002 1 15.7761 23.6272)"/><path d="m0 0h4.22172v4.22172h-4.22172z" transform="matrix(.866025 .5 -.00000002 1 15.7761 30.0085)"/><path d="m0 0h4.22172v4.22172h-4.22172z" transform="matrix(.866025 .5 -.00000002 1 15.7761 36.3904)"/><path d="m0 0h4.22172v4.22172h-4.22172z" transform="matrix(.866025 .5 -.00000002 1 21.8463 27.1414)"/><path d="m0 0h4.22172v4.22172h-4.22172z" transform="matrix(.866025 .5 -.00000002 1 21.8463 33.5234)"/><path d="m0 0h4.22172v4.22172h-4.22172z" transform="matrix(.866025 .5 -.00000002 1 21.8463 39.9053)"/><path d="m0 0h4.22172v4.22172h-4.22172z" transform="matrix(.866025 .5 -.00000002 1 27.9381 30.656)"/><path d="m0 0h4.22172v4.22172h-4.22172z" transform="matrix(.866025 .5 -.00000002 1 27.9381 37.0378)"/><path d="m0 0h4.22172v4.22172h-4.22172z" transform="matrix(.866025 .5 -.00000002 1 27.9381 43.4197)"/></g><path d="m0 0h4.22172v33.7738h-4.22172z" fill="#89e5d3" transform="matrix(.866025 -.5 .00000002 1 35.2653 22.2231)"/><path d="m0-.5h25.3303" stroke="#000" transform="matrix(-.00000006 -1 .866025 -.5 35.6187 55.792)"/><path d="m0-.5h25.3303" stroke="#000" transform="matrix(-.00000006 -1 .866025 -.5 36.7166 55.1567)"/><path d="m0-.5h25.3303" stroke="#000" transform="matrix(-.00000006 -1 .866025 -.5 37.8187 54.5225)"/><path d="m0-.5h25.3303" stroke="#000" transform="matrix(-.00000006 -1 .866025 -.5 38.925 53.887)"/><path d="m0 0h4.21966v8.44345h-4.21966z" fill="#002f33" transform="matrix(.866025 -.5 .00000002 1 35.2653 22.2231)"/><path d="m9.67749 3.2251 29.24891 16.8869-3.6561 2.1108-29.24893-16.88684z" fill="#0096a2"/><circle r="4.83483" stroke="#eafaf7" stroke-width="2" transform="matrix(.866025 -.5 .00000002 1 31.595 17.1957)"/><circle r="4.83483" stroke="#eafaf7" stroke-width="2" transform="matrix(.866025 -.5 .00000002 1 16.871 8.75213)"/><path clip-rule="evenodd" d="m26.6751 13.0312-7.0914-4.09419-3.6561 2.11089 9.5237 5.4985zm7.2332 4.1761-3.8633 1.9912 5.2379 3.0242 3.6561-2.1109z" fill="#0096a2" fill-rule="evenodd"/><path clip-rule="evenodd" d="m11.9357 4.58685-2.27958-1.3161-3.65612 2.11086 4.7119 2.7204zm7.2343 4.17676-3.8633 1.99129 5.2394 3.0249 3.6562-2.1108z" fill="#0096a2" fill-rule="evenodd"/><path clip-rule="evenodd" d="m25.5145 16.5894-8.4637-4.8865v8.4434l18.2215 10.5202v-8.4434l-5.0445-2.9124v8.3792l-4.7133-2.7213z" fill="#005e66" fill-rule="evenodd"/><path clip-rule="evenodd" d="m10.7908 8.14671-4.76993-2.75389v8.44348l14.52653 8.3869v-8.4435l-5.0433-2.9117v8.3783l-4.7133-2.7213z" fill="#005e66" fill-rule="evenodd"/></g></svg>