<svg fill="none" height="56" viewBox="0 0 44 56" width="44" xmlns="http://www.w3.org/2000/svg" xmlns:xlink="http://www.w3.org/1999/xlink"><clipPath id="a"><path d="m0 0h44v56h-44z"/></clipPath><g clip-path="url(#a)"><path d="m21.9915 31.7634 4.3326-2.5236v10.0945l-4.3326 2.5236z" fill="#89e5d3"/><path d="m0 0h5.01406v5.04726h-5.01406z" fill="#89e5d3" transform="matrix(.864105 -.503311 .00000002 1 13.3315 11.5728)"/><path d="m0 0h10.0281v5.01406h-10.0281z" fill="#eafaf7" transform="matrix(.864105 .503311 -.864105 .503311 26.3346 24.1934)"/><path d="m26.3304 14.0943-12.9981-7.57086-4.32808 2.52628-.00422-.00246v5.04724l4.3327 2.5237v-5.0185l12.9977 7.5707.0003 10.0659-4.3327-2.5236-4.3327 2.5236v10.0945l4.3327 2.5237v-10.0946l4.3327 2.5237 4.3327-2.5302v-10.088l-.0706-.0411.077.0444z" fill="#d5f6f0"/><path d="m21.998 46.9017-4.3327-2.5236v5.0472l4.3327 2.5237z" fill="#d5f6f0"/><path d="m17.6664 4.00365 12.9968 7.58685-4.3326 2.5236-12.9968-7.58684z" fill="#eafaf7"/><path d="m30.5695 21.6802 4.3326-2.5237.0989 10.0838-4.3327 2.5237z" fill="#89e5d3"/><path d="m0 0h5.01405v5.01406h-5.01405z" fill="#eafaf7" transform="matrix(.864105 .503311 -.864105 .503311 21.9915 41.8579)"/><path d="m0 0h5.01406v5.04726h-5.01406z" fill="#89e5d3" transform="matrix(.864105 -.503311 .00000002 1 21.9915 46.9053)"/><path d="m26.335 14.1013 4.3326-2.5236 4.2234 7.584-4.3326 2.5236z" fill="#eafaf7"/></g></svg>