<svg fill="none" height="56" viewBox="0 0 44 56" width="44" xmlns="http://www.w3.org/2000/svg" xmlns:xlink="http://www.w3.org/1999/xlink"><clipPath id="a"><path d="m0 0h44v56h-44z"/></clipPath><g clip-path="url(#a)"><path d="m7.62939 3.46935s1.66156-2.0724 4.22271-2.33442c2.5612-.262026 6.5184 1.0848 6.5184 1.0848l19.2937 10.24287v33.3429l-29.20778-12.1917-1.03833-29.5065z" fill="#002f33"/><path d="m0 0h24.3792v36.7622h-24.3792z" fill="#d5f6f0" transform="matrix(.866025 .5 -.00000002 1 8.92834 4.20483)"/><path d="m0 0h6.88804v36.7621h-6.88804z" fill="#89e5d3" transform="matrix(.866025 -.5 .00000002 1 30.0768 16.4971)"/><g stroke="#002f33"><path d="m0-.5h36.7621" transform="matrix(.00000002 1 -.866025 .5 35.4265 13.4077)"/><path d="m0-.5h36.7621" transform="matrix(.00000002 1 -.866025 .5 34.0912 14.1799)"/><path d="m0-.5h36.7621" transform="matrix(.00000002 1 -.866025 .5 32.7557 14.9529)"/><path d="m0-.5h36.7621" transform="matrix(.00000002 1 -.866025 .5 31.4078 15.7253)"/><path d="m0-.5h36.7621" transform="matrix(.00000002 1 -.866025 .5 30.0768 16.4971)"/></g><path d="m0 0h24.3784v6.17393h-24.3784z" fill="#eafaf7" transform="matrix(.866025 .5 -.866025 .5 14.3119 1.22021)"/><g stroke="#0096a2"><path d="m0-.5h24.5683" transform="matrix(.86151 .502593 -.86151 .502593 14.2566 1.06274)"/><path d="m0-.5h24.5683" transform="matrix(.86151 .502593 -.86151 .502593 12.9423 1.83423)"/><path d="m0-.5h24.5683" transform="matrix(.86151 .502593 -.86151 .502593 11.6071 2.60571)"/><path d="m0-.5h24.5683" transform="matrix(.86151 .502593 -.86151 .502593 10.2889 3.37793)"/><path d="m0-.5h24.5683" transform="matrix(.86151 .502593 -.86151 .502593 8.9707 4.14941)"/></g><path d="m31.6753 10.3553v4.555l-17.9647-10.10713z" fill="#fff"/><path d="m32.537 32.7446 1.3661 15.3671-1.3645-.4935z" fill="#d7dadb"/><path d="m7.61224 3.46944s-.07752.97199 0 1.4602c.23223 1.4626 2.09599 2.57734 2.09599 2.57734l17.38997 9.64542v37.9143l-18.53052-13.5533s-1.00551-.9909-1.33494-1.8077c-.31428-.7791-.21924-1.9103-.21924-1.9103v-31.48804s.06444-1.47547.21596-1.93063c.08212-.24669.38278-.90729.38278-.90729z" fill="#005e66"/></g></svg>