<svg fill="none" height="56" viewBox="0 0 44 56" width="44" xmlns="http://www.w3.org/2000/svg" xmlns:xlink="http://www.w3.org/1999/xlink"><clipPath id="a"><path d="m0 0h44v56h-44z"/></clipPath><g clip-path="url(#a)"><path d="m39.9617 32.3768-19.9466-11.6432 11.0038-6.4009z" fill="#0096a2"/><path d="m31.092 29.1577 12.2676 9.8926-12.2676-1.3579z" fill="#00474d"/><path d="m0 0h23.3388v8.53471h-23.3388z" fill="#005e66" transform="matrix(.864391 .502821 -.00000002 1 10.9177 17.4011)"/><g fill="#d5f6f0"><path d="m16.5565 26.7113c.4656.2709.8432.0513.8432-.4905s-.3776-1.2006-.8432-1.4715c-.4657-.2709-.8432-.0513-.8432.4905s.3775 1.2006.8432 1.4715z"/><path d="m20.3651 27.9458c0 .5418-.3775.7614-.8432.4905s-.8432-.9297-.8432-1.4715.3775-.7614.8432-.4905.8432.9297.8432 1.4715z"/><path d="m22.4873 30.1613c.4657.2709.8432.0512.8432-.4905 0-.5418-.3775-1.2006-.8432-1.4715s-.8432-.0513-.8432.4905.3775 1.2006.8432 1.4715z"/><path d="m25.4527 31.8863c.4657.2708.8432.0512.8432-.4905 0-.5418-.3775-1.2006-.8432-1.4715s-.8432-.0513-.8432.4905.3775 1.2006.8432 1.4715z"/></g><path d="m0 0h23.3388v8.48683h-23.3388z" fill="#0096a2" transform="matrix(.864391 .502821 -.864391 .502821 18.2544 13.1335)"/><path d="m15.1538 11 3.5002 6.3034.1678.0976-3.668-2.1336z" fill="#005e66"/><path d="m31.0196 37.5789-20.0156-11.6031-11.00393607 6.4011z" fill="#018a95"/><path d="m38.4221 24.8665 4.9797 14.2248-12.3502-9.9657z" fill="#017983"/><path d="m34.3071 31.7456 5.5159-2.9071 1.1488 3.2373-3.608 2.1161z" fill="#89e5d3"/></g></svg>