<svg fill="none" height="56" viewBox="0 0 44 56" width="44" xmlns="http://www.w3.org/2000/svg"><path d="m0 0h34v24h-34z" fill="#005e66" transform="matrix(.866025 .5 -.00000002 1 4 10)"/><path d="m0 0h8v24h-8z" fill="#002f33" transform="matrix(.866025 -.5 .00000002 1 33.4448 27)"/><path d="m0 0h34v8h-34z" fill="#0096a2" transform="matrix(.866025 .5 -.866025 .5 10.9282 6)"/><path d="m0 0h1v34h-1z" fill="#eafaf7" transform="matrix(.866025 -.5 .866025 .5 8.34436 7.49951)"/><path d="m0 0h1v24h-1z" fill="#89e5d3" transform="matrix(.866025 -.5 .00000002 1 37.7893 24.4995)"/><path d="m0 0h1.53692v4.15877h-1.53692z" fill="#eafaf7" transform="matrix(.866025 .5 -.866025 .5 12.1895 8.57617)"/><path d="m0 0h1.53692v4.15877h-1.53692z" fill="#eafaf7" transform="matrix(.866025 .5 -.866025 .5 33.4448 20.9207)"/><path d="m0 0h2v6h-2z" fill="#89e5d3" transform="matrix(.866025 -.5 .00000002 1 16.0945 7.99805)"/><path d="m25.6342 13.499-10.3923-5.99998v5.99998l.8661.5v-4.05384l8.6602 5.00004v4.0538l.866.5z" fill="#d5f6f0"/><path d="m0 0h12v2h-12z" fill="#eafaf7" transform="matrix(.866025 .5 -.866025 .5 16.974 6.49902)"/><path d="m0 0h2v6h-2z" fill="#89e5d3" transform="matrix(.866025 -.5 .00000002 1 25.6343 13.499)"/></svg>