<svg fill="none" height="56" viewBox="0 0 44 56" width="44" xmlns="http://www.w3.org/2000/svg"><path d="m0 0h34.7622v16.0442h-34.7622z" fill="#eafaf7" transform="matrix(.866025 .5 -.866025 .5 13.895 25.3464)"/><path d="m0 0h34.7622v2.67403h-34.7622z" fill="#d5f6f0" transform="matrix(.866025 .5 -.00000002 1 0 33.3684)"/><path d="m0 0h16.0435v2.67403h-16.0435z" fill="#89e5d3" transform="matrix(.866025 -.5 .00000002 1 30.105 50.7161)"/><path d="m0 0h29.4143v10.6961h-29.4143z" fill="#eafaf7" transform="matrix(.866025 .5 -.866025 .5 13.8956 26.1821)"/><path d="m0 0h29.4143v2.67403h-29.4143z" fill="#d5f6f0" transform="matrix(.866025 .5 -.00000002 1 4.63318 31.5303)"/><path d="m0 0h10.6961v2.67403h-10.6961z" fill="#89e5d3" transform="matrix(.866025 -.5 .00000002 1 30.1069 46.2373)"/><g fill="#0096a2"><path d="m11.473 14.158 2.3158 1.337v16.0442s-.5785.5296-1.3598.381c-.888-.1689-.956-.9263-.956-.9263z"/><path d="m16.1046 16.832 2.3158 1.337v16.0442s-.3115.3742-.8009.3742c-1.4868 0-1.5149-1.1476-1.5149-1.1476z"/><path d="m20.7361 19.5059 2.3158 1.337v16.0442s-.4997.5991-1.1006.4859c-1.2211-.2302-1.2152-1.1241-1.2152-1.1241z"/><path d="m25.3677 22.1799 2.3158 1.337-.0001 16.0442s-.4604.4065-.8522.4065c-1.4001 0-1.4635-1.0786-1.4635-1.0786z"/><path d="m29.9993 24.8542 2.3157 1.3371v16.0441s-.6166.4123-1.0629.3798c-1.2531-.0911-1.2528-1.146-1.2528-1.146z"/></g><path d="m0 0h29.4143v8.02209h-29.4143z" fill="#eafaf7" transform="matrix(.866025 .5 -.866025 .5 12.5901 10.845)"/><path d="m0 0h29.4143v2.67403h-29.4143z" fill="#d5f6f0" transform="matrix(.866025 .5 -.00000002 1 5.64185 14.856)"/><path d="m0 0h8.02209v2.67403h-8.02209z" fill="#89e5d3" transform="matrix(.866026 -.5 .00000002 1 31.1163 29.5632)"/><path d="m20.1283 9.70197 11.0303 17.75483-22.06072-12.7368z" fill="#d5f6f0"/><path d="m20.1257 9.70337 2.3158-1.33702 11.0267 17.74465-2.3158 1.337z" fill="#89e5d3"/></svg>