<svg width="40" height="55" viewBox="0 0 40 55" fill="none" xmlns="http://www.w3.org/2000/svg">
<path fill-rule="evenodd" clip-rule="evenodd" d="M7.99998 24.9426H0V54.9426H40V24.9426H32L32 12.9426C32 6.31521 26.6274 0.942627 20 0.942627C13.3726 0.942627 7.99997 6.31521 7.99997 12.9426L7.99998 24.9426ZM14 24.9426H26L26 12.9426C26 9.62892 23.3137 6.94263 20 6.94263C16.6863 6.94263 14 9.62892 14 12.9426L14 24.9426Z" fill="#7A8485"/>
<path d="M22.1944 42.3183C23.8239 41.5098 24.944 39.8291 24.944 37.8867C24.944 35.1562 22.7305 32.9426 20 32.9426C17.2694 32.9426 15.0559 35.1562 15.0559 37.8867C15.0559 39.8291 16.176 41.5098 17.8056 42.3183L15.2953 48.6248H24.7047L22.1944 42.3183Z" fill="#0C0D0D"/>
</svg>
