<svg width="84" height="94" viewBox="0 0 84 94" fill="none" xmlns="http://www.w3.org/2000/svg">
<circle cx="42" cy="42" r="42" fill="url(#paint0_radial_12029_23359)"/>
<rect x="9.92773" y="14.4238" width="46.3971" height="70.1547" fill="url(#paint1_linear_12029_23359)"/>
<line x1="16.0781" y1="22.8848" x2="50.4803" y2="22.8848" stroke="#F8F7FF" stroke-width="2"/>
<line x1="16.0781" y1="46.8848" x2="50.4803" y2="46.8848" stroke="#F8F7FF" stroke-width="2"/>
<line x1="16.0781" y1="70.8848" x2="50.4803" y2="70.8848" stroke="#F8F7FF" stroke-width="2"/>
<line x1="16.0781" y1="30.8848" x2="50.4803" y2="30.8848" stroke="#F8F7FF" stroke-width="2"/>
<line x1="16.0781" y1="54.8848" x2="50.4803" y2="54.8848" stroke="#F8F7FF" stroke-width="2"/>
<line x1="16.0781" y1="38.8848" x2="50.4803" y2="38.8848" stroke="#F8F7FF" stroke-width="2"/>
<line x1="16.0781" y1="62.8848" x2="50.4803" y2="62.8848" stroke="#F8F7FF" stroke-width="2"/>
<path d="M40.543 80.7314L45.2268 81.9865L42.0619 93.7981L40.4294 90.8067L37.3781 92.5431L40.543 80.7314Z" fill="#3E0DFF"/>
<path d="M46.3398 80.7314L41.656 81.9865L44.8209 93.7981L46.4535 90.8067L49.5048 92.5431L46.3398 80.7314Z" fill="#3E0DFF"/>
<path d="M43.4406 73.1885L45.1631 74.9252L47.5775 74.5327L47.9502 76.9502L50.1343 78.0518L49.0148 80.2267L50.1343 82.4016L47.9502 83.5032L47.5775 85.9207L45.1631 85.5281L43.4406 87.2649L41.718 85.5281L39.3036 85.9207L38.9309 83.5032L36.7468 82.4016L37.8663 80.2267L36.7468 78.0518L38.9309 76.9502L39.3036 74.5327L41.718 74.9252L43.4406 73.1885Z" fill="#B29FFF"/>
<defs>
<radialGradient id="paint0_radial_12029_23359" cx="0" cy="0" r="1" gradientUnits="userSpaceOnUse" gradientTransform="translate(29.4268 21.9955) rotate(58.0179) scale(66.8061)">
<stop stop-color="#F8F7FF"/>
<stop offset="1" stop-color="#D1C6FF"/>
</radialGradient>
<linearGradient id="paint1_linear_12029_23359" x1="9.92773" y1="27.753" x2="23.1871" y2="90.3224" gradientUnits="userSpaceOnUse">
<stop stop-color="#B29FFF"/>
<stop offset="1" stop-color="#492AC8"/>
</linearGradient>
</defs>
</svg>
