<svg fill="none" height="56" viewBox="0 0 44 56" width="44" xmlns="http://www.w3.org/2000/svg" xmlns:xlink="http://www.w3.org/1999/xlink"><linearGradient id="a"><stop offset="0" stop-color="#0096a2"/><stop offset="1" stop-color="#002f33"/></linearGradient><linearGradient id="b" gradientUnits="userSpaceOnUse" x1="28.3354" x2="60.7703" xlink:href="#a" y1="-5.27483" y2="16.9445"/><linearGradient id="c" gradientUnits="userSpaceOnUse" x1="20.2329" x2="23.2348" xlink:href="#a" y1="37.8878" y2="40.9326"/><linearGradient id="d" gradientUnits="userSpaceOnUse" x1="25.2338" x2="40.0314" y1="14.8869" y2="32.7822"><stop offset="0" stop-color="#0096a2"/><stop offset=".521293" stop-color="#002f33"/><stop offset="1" stop-color="#0096a2"/></linearGradient><linearGradient id="e" gradientUnits="userSpaceOnUse" x1="20.5391" x2="23.4774" xlink:href="#a" y1="12.7288" y2="15.7426"/><clipPath id="f"><path d="m0 0h44v56h-44z"/></clipPath><g clip-path="url(#f)"><path d="m8.59515 6.12207 4.56345-2.63473s13.4571-4.185811 24.0265 15.36746c10.1938 18.8584 0 28.6955 0 28.6955l-4.5635 2.6347s7.918-7.8091-3.6679-30.1678c-5.8766-11.34084-20.35855-13.89513-20.35855-13.89513z" fill="url(#b)"/><circle fill="#005e66" r="20.5533" transform="matrix(.866025 .5 -.00000002 1 19.7997 28.57)"/><path d="m16.553 40.0125 3.3333-1.9046s1.3455-.2185 2.2649 1.1337c.6953 1.0227 0 2.5437 0 2.5437l-3.2345 1.8805s.7388-.7457-.2671-2.5533c-.7582-1.3623-2.0966-1.1-2.0966-1.1z" fill="url(#c)"/><circle fill="#d5f6f0" r="1.78045" transform="matrix(.866025 .5 -.00000002 1 17.7508 41.8135)"/><path d="m13.4849 16.8487 3.5468-2.1426s6.9845-1.0284 10.2558 7.5065c1.6098 4.2003.2387 8.3862.8115 13.4714.3365 2.9873 1.8936 5.0856 1.8936 5.0856l-3.5469 2.1426s-1.3905-1.8159-1.8936-5.0856c-.7609-4.9457.6168-9.2929-.9931-13.4932-1.1411-2.9773-10.0741-7.4847-10.0741-7.4847z" fill="url(#d)"/><path d="m16.837 14.8662 3.6863-2.1125s1.3456-.2185 2.2649 1.1337c.6953 1.0227.1501 2.3517.1501 2.3517l-3.6363 2.0752s.6376-.5404-.3684-2.348c-.7581-1.3623-2.0966-1.1001-2.0966-1.1001z" fill="url(#e)"/><path d="m19.3546 18.3247c.1128-.1823.1767-.4273.1767-.7263 0-.9833-.6904-2.179-1.5419-2.6707-.8516-.4916-1.5419-.0931-1.5419.8903 0 .299.0638.6176.1766.9302-2.9439-.9751-5.152.7701-5.152 4.3856v7.589s-.2092 2.0005-.6763 2.9623c-.355.7311-1.18887 1.5413-1.18887 1.5413l16.76487 9.6792s-.8339-1.7731-1.1889-2.9142c-.4671-1.5011-.6763-3.7431-.6763-3.7431v-7.5891c0-3.6155-2.208-7.9103-5.152-10.3345z" fill="#d5f6f0"/></g></svg>