<svg fill="none" height="56" viewBox="0 0 44 56" width="44" xmlns="http://www.w3.org/2000/svg" xmlns:xlink="http://www.w3.org/1999/xlink"><clipPath id="a"><path d="m0 0h44v56h-44z"/></clipPath><g clip-path="url(#a)"><path d="m34.6565 25.4531 6.5223-3.7834c1.0028-.5817 1.8158-.1128 1.8158 1.0474v23.865c0 1.7402-1.2195 3.8583-2.7237 4.7309l-2.8907 1.6768c-1.5043.8726-2.7237.1692-2.7237-1.5711z" fill="#89e5d3"/><path d="m34.6565 25.4531v25.4405c0 2.0303 1.4227 2.8509 3.1776 1.8329l1.9829-1.1502c1.7549-1.018 3.1776-3.4891 3.1776-5.5194v-23.0289c0-1.3319-.9333-1.8702-2.0845-1.2024-1.1513.6678-2.0846 2.2889-2.0846 3.6208v21.8522" stroke="#002f33" stroke-width=".525164"/><path d="m0-.262582h24.252" stroke="#000" stroke-width=".525164" transform="matrix(.00000002 1 -.862227 .572172 37.5233 23.7981)"/><path d="m0-.262582h24.252" stroke="#000" stroke-width=".525164" transform="matrix(.00000002 1 -.862227 .572172 35.9612 24.7078)"/><path d="m1.02589 6.24257 33.35231 19.36463v25.1165s.1783 1.4641.8533 2.0758c.6736.6103 1.7045.5075 1.7045.5075s-.7043.1663-1.2151.0875c-.4431-.0684-1.1813-.3894-1.1813-.3894l-30.3647-16.2857s-2.37284-1.1547-2.86677-2.7376c-.434771-1.3934-.28217-4.1646-.28217-4.1646l-.00007-9.0028z" fill="#eafaf7"/><path d="m0 0h14.4694v10.6489h-14.4694z" fill="#002f33" transform="matrix(.864383 .501842 -.00000002 1 5.12683 21.9453)"/><g stroke="#002f33" stroke-width="1.05033"><path d="m0-.525164h28.939" transform="matrix(.864379 .506138 -.00281745 .998356 5.12683 14.1638)"/><path d="m0-.525164h12.5795" transform="matrix(.864383 .502833 -.00000002 1 19.2684 31.752)"/><path d="m0-.525164h28.9406" transform="matrix(.864329 .513983 -.00952499 .994398 5.12683 18.0286)"/><path d="m0-.525164h12.5795" transform="matrix(.864383 .502834 -.00000002 1 19.2684 35.9558)"/><path d="m0-.525164h12.5795" transform="matrix(.864383 .502834 -.00000002 1 19.2684 40.8059)"/></g><path d="m0 0h38.5854v4.82314h-38.5854z" fill="#fff" transform="matrix(.864383 .502833 -.864383 .502833 5.47278 3.84399)"/><g stroke-width=".525164"><path d="m0-.262582h38.668" stroke="#000" transform="matrix(.862472 .503943 -.866291 .501721 5.47363 3.76025)"/><path d="m0-.262582h38.6149" stroke="#000" transform="matrix(.862776 .503766 -.865987 .501899 1.34241 6.21826)"/><path d="m0-.262582h38.6149" stroke="#000" transform="matrix(.862776 .503766 -.865987 .501899 2.72986 5.41016)"/><path d="m0-.262582h38.6149" stroke="#000" transform="matrix(.862776 .503766 -.865987 .501899 4.11963 4.60205)"/></g><path d="m10.1651 1.6888c1.3169-.00003 3.1405 1.13804 3.1405 1.13804l26.7087 15.51416s1.7749 1.2647 2.3888 1.8771.8046 2.0659.8046 2.0659-.2704-1.0375-1.0713-1.1004c-.8636-.0678-1.6744.6393-1.6744.6393l-1.1636 1.0563-33.35227-19.40188 1.74021-.95588s1.16187-.83261 2.47876-.83264z" fill="#fff"/></g></svg>