<svg fill="none" height="56" viewBox="0 0 44 56" width="44" xmlns="http://www.w3.org/2000/svg" xmlns:xlink="http://www.w3.org/1999/xlink"><clipPath id="a"><path d="m0 0h44v56h-44z"/></clipPath><g clip-path="url(#a)"><path d="m20.5646 5.81536 17.8095 46.16664-35.61897-20.5646z" fill="#005e66"/><path d="m18.7004 29.5181 2.4626 1.4218.6156-5.6128v-4.7745l-3.6938-2.1326v4.7745zm1.2313 7.0133c.5336.308.985.3538 1.375.1254.3693-.2165.5746-.6471.5746-1.2677 0-.6208-.2053-1.2644-.5746-1.9313-.39-.6548-.8414-1.1541-1.375-1.4622-.5335-.3081-1.0055-.3418-1.3749-.1254-.3899.2285-.5746.647-.5746 1.2677s.1847 1.2764.5746 1.9312c.3694.6669.8414 1.1543 1.3749 1.4623z" fill="#d5f6f0"/><path d="m20.5607 5.81104 3.7998-2.2265 17.6395 46.43886-3.7998 2.2265z" fill="#002f33"/></g></svg>