<svg fill="none" height="56" viewBox="0 0 44 56" width="44" xmlns="http://www.w3.org/2000/svg" xmlns:xlink="http://www.w3.org/1999/xlink"><linearGradient id="a" gradientUnits="userSpaceOnUse" x1="18.3194" x2="23.5191" y1="28.178" y2="32.8444"><stop offset=".393837" stop-color="#0096a2"/><stop offset=".890625" stop-color="#002f33"/></linearGradient><linearGradient id="b" gradientUnits="userSpaceOnUse" x1="27.0053" x2="48.499" y1="8.7786" y2="26.9671"><stop offset="0" stop-color="#0096a2"/><stop offset="1" stop-color="#002f33"/></linearGradient><linearGradient id="c"><stop offset="0" stop-color="#d5f6f0"/><stop offset="1" stop-color="#89e5d3"/></linearGradient><linearGradient id="d" gradientUnits="userSpaceOnUse" x1="18.7847" x2="20.3055" xlink:href="#c" y1="8.14648" y2="8.92096"/><linearGradient id="e" gradientUnits="userSpaceOnUse" x1="18.2549" x2="21.0633" xlink:href="#c" y1="6.30927" y2="7.73939"/><linearGradient id="f"><stop offset="0" stop-color="#eafaf7"/><stop offset="1" stop-color="#89e5d3"/></linearGradient><linearGradient id="g" gradientUnits="userSpaceOnUse" x1="30.3158" x2="32.3769" xlink:href="#f" y1="18.2247" y2="20.2035"/><linearGradient id="h" gradientUnits="userSpaceOnUse" x1="30.5017" x2="34.9144" xlink:href="#f" y1="15.9669" y2="20.2035"/><clipPath id="i"><path d="m0 0h44v56h-44z"/></clipPath><g clip-path="url(#i)"><circle fill="#eafaf7" fill-opacity=".56" r="16.5376" transform="matrix(.866025 .5 -.00000002 1 18.0969 32.5369)"/><circle fill="#eafaf7" r="16.5376" transform="matrix(.866025 .5 -.00000002 1 18.3198 32.5369)"/><circle r="14.7979" stroke="#000" stroke-dasharray="2.07 12.43" stroke-width="3.72963" transform="matrix(.866025 .5 -.00000002 1 18.1601 32.5038)"/><path d="m15.1298 30.3564 1.0149-.8637s.8336-.5944 1.7724-.2792c3.4039 1.143 3.5924 5.2419 3.5924 5.2419l-1.0822.6279s-.5937-4.4835-4.0069-5.1573c-.5543-.1094-1.2906.4304-1.2906.4304z" fill="url(#a)"/><path d="m20.4261 35.0784 1.0852-.6346s.0907.5338-.0701 1.1554c-.117.4525-.4224.9804-1.0112 1.2842s-1.3756.4309-1.3756.4309.4466-.0225.8558-.4309c.5675-.5664.5159-1.805.5159-1.805z" fill="#002f33"/><circle fill="#005e66" r="3.34162" transform="matrix(.866025 .5 -.00000002 1 17.551 33.605)"/><path d="m6.83051 10.8826 7.28619-4.19702s1.6006-.87657 2.7023-.99377c1.2013-.12778 2.6835 0 3.2603.17435 4.497 1.35929 16.0823 5.88884 21.469 21.64394 2.7768 8.1217.8742 14.5509-.0087 16.9069-.1954.5215-.407 1.1331-.7941 1.7075-.2615.3879-1.1732 1.1948-1.1732 1.1948l-8.2727 6.1693c1.2962-1.9037 8.1074-7.2947 1.0194-24.3378-8.0835-19.43648-25.48849-18.2682-25.48849-18.2682z" fill="url(#b)"/><circle r="17.8302" stroke="#005e66" stroke-width="4.49388" transform="matrix(.866025 .5 -.00000002 1 18.3873 32.5754)"/><path d="m17.5286 6.36513s.2394 1.16487 2.5997.83342c.9007-.12648 1.0766-.86221 1.0766-.86221v1.72618s-.2408.49233-.943.62517c-2.0282.38373-2.7333-.59638-2.7333-.59638z" fill="url(#d)"/><path d="m16.0021 2.96673s.3755 2.20421 4.7339 1.59218c1.6632-.23356 1.988-1.59212 1.988-1.59212v3.18748s-.4446.90911-1.7412 1.15441c-3.7453.70858-4.9807-1.15446-4.9807-1.15446z" fill="url(#e)"/><circle fill="#eafaf7" r="2.74116" transform="matrix(.866025 .5 -.866025 .5 19.3666 3.01973)"/><path d="m31.0439 17.3178s-.2453.9654 1.1393 1.7907c.8841.527 1.1385.0442 1.1385.0442l-1.0798 1.063s-.6996.3233-1.1565.0419c-1.2474-.7683-.9787-1.7999-.9787-1.7999z" fill="url(#g)"/><path d="m32.0604 14.0253s-.525 2.067 2.4392 3.8339c1.8928 1.1283 2.4374.0946 2.4374.0946l-2.3118 2.2757s-1.4977.6923-2.4759.0898c-2.6706-1.645-2.0953-3.8534-2.0953-3.8534z" fill="url(#h)"/><g fill="#89e5d3"><ellipse cx="34.4783" cy="16.0099" rx="2.47647" ry="3.12681" transform="matrix(.7599036 -.65003579 .65003579 .7599036 -2.128892 26.256048)"/><path d="m17.8833 16.6499.5199 13.4611-1.0399-.6004z"/></g></g></svg>