<svg fill="none" height="56" viewBox="0 0 44 56" width="44" xmlns="http://www.w3.org/2000/svg" xmlns:xlink="http://www.w3.org/1999/xlink"><clipPath id="a"><path d="m0 0h44v56h-44z"/></clipPath><g clip-path="url(#a)"><path d="m14.1142 4.64819 2.5766.27124-6.0209 3.47613-2.57648-.27124z" fill="#0096a2"/><path d="m22.5117 32.7715 6.0209-3.4761 1.6963 3.9076-6.0208 3.4762z" fill="#002f33"/><path d="m16.2374 34.8535 6.0376-3.426-.4567 2.8281-5.9544 3.5727z" fill="#002f33"/><path d="m3.47565 12.7011 6.02084-3.4761-2.89375-1.24239-6.020831 3.47609z" fill="#0096a2"/><path d="m23.5299 30.6339 6.103-3.4603-.9674 2.1346-6.103 3.4603z" fill="#002f33"/><path d="m11.5903 1.34253 2.6603 3.23797-6.02087 3.47613-2.66023-3.23797z" fill="#0096a2"/><path d="m12.5187 11.188s-3.39668 5.4336 1.7387 12.2407c5.1353 6.8072 8.8025 4.2774 8.8025 4.2774l-6.0208 3.4762s-4.5947.0331-7.1704-2.8547c-2.57573-2.8879-3.37086-13.6635-3.37086-13.6635z" fill="#0096a2"/><path d="m15.8401 7.85449 6.009-3.46527.4014 3.75131-6.009 3.46527z" fill="#002f33"/><path d="m16.2266 11.6177 6.0208-3.47615 2.476 2.55945-6.0208 3.4761z" fill="#0096a2"/><path d="m.59322 11.4531.81524.2992c.58038.2823 1.15672.5125 1.73643.7804.21453.1006.32348.075.40351-.1266.26295-.6426.56894-1.2409.83862-1.8773.02111-.0597.02867-.1316.02217-.2109-.00649-.0792-.02689-.1641-.05983-.2488-.3867-.8243-.79558-1.64278-1.19909-2.46204l-.3966-.80834s2.40279-1.78798 3.09458-2.19877c0 0 .26309.295.78833 1.05408.50976.73695 1.00137 1.49137 1.51651 2.22366.05721.06955.12046.1282.1856.17209.06514.0439.13069.07205.19235.08261.69807.09241 1.39031.16386 2.07676.21433.0579-.00077.1089-.01945.1495-.05481.0406-.03535.0698-.08655.0858-.1502.1009-.69579.1722-1.4141.2576-2.12115l.0894-.83276c1.0644.6026 3.5984 2.06436 4.6632 2.69104l.1124.92644c.0901.82081.1533 1.63072.2528 2.45542.0169.1363.142.3654.2502.4823.6766.7276 1.3666 1.4281 2.0425 2.1568.1661.179.273.2563.4196.2035.495-.1802 1.0007-.3347 1.5037-.4962.4641-.1483.7997.0509 1.2166.7637.7595 1.2984 1.5116 2.6016 2.2563 3.9096.3228.5653.3228 1.0258.0343 1.277-.4109.3584-.8259.7121-1.2193 1.0961-.034.0462-.0557.1071-.0634.1787-.0078.0717-.0015.1525.0184.2372.2753.9872.5667 1.9791.8742 2.9757.0438.1409.2018.3432.3175.4294.6315.4702 1.2676.9051 1.9005 1.3668.577.4208.8152.3234.8152.9935.0041 1.1542-.0042 2.8367-.0082 3.9857v.7919c-.6349-.2656-2.0955-.7251-2.725-.9721-.0683-.018-.1319-.0169-.1866.0033s-.0993.0591-.1308.114c-.2966.6053-.5603 1.2514-.8548 1.861-.0794.1639-.0673.3161.0531.5556.4069.8189.807 1.6409 1.2105 2.4633.3074.6286.4764.9355.4764.9355-.7528.4522-2.5112 1.5441-3.2784 1.9746 0 0-.235-.3281-.6701-.9591-.5172-.7505-1.0189-1.5162-1.5408-2.2617-.0546-.0716-.1161-.1333-.1803-.1808-.0641-.0474-.1294-.0796-.1916-.0944-.6971-.0878-1.388-.1541-2.0727-.1988-.115-.0074-.2488.0776-.269.2003-.1022.7074-.1654 1.4444-.2542 2.1619l-.1155.6366c-1.098-.6173-3.546-1.8697-4.6449-2.5207l-.0931-.9157c-.0928-.8224-.1789-1.6417-.2529-2.4563-.0202-.2197-.0814-.3389-.2609-.521-.69069-.7048-1.36791-1.4289-2.04244-2.1655-.16409-.1786-.269-.2578-.41763-.2046-.52119.1883-1.6117.578-2.15038.7306l-.52151-.9049c-.78774-1.3349-2.07389-3.465-2.83787-4.8152l.53586-.5007c.3988-.3615.80701-.7074 1.19707-1.0825.03144-.041.05149-.0957.0588-.1603.00731-.0647.00171-.1378-.01643-.2144-.26901-.9319-.56895-1.8707-.83055-2.8029-.08608-.3076-.17687-.4904-.4331-.6671-.60526-.4093-1.19976-.8713-1.80099-1.286l-.846695-.5253zm12.92318 2.5869c-3.58384-2.0559-6.51936-.3471-6.50255 3.7938.00606 2.0047.70011 4.322 1.92956 6.4423 1.22949 2.1203 2.89369 3.8701 4.62679 4.8647 3.5791 2.0486 6.5039.3227 6.485-3.8249-.0188-4.1475-2.955-9.22-6.5388-11.2759z" fill="#005e66"/><path d="m0 0h6.95226v4.63484h-6.95226z" fill="#002f33" transform="matrix(.866025 -.5 .00000002 1 26.5781 26.7109)"/><path d="m20.7305 13.5166 6.0208-3.4761 3.4654 5.7481-6.0208 3.4761z" fill="#005e66"/><path d="m22.4604 20.6504 6.0209-3.4761 1.2015 3.686-6.0209 3.4761z" fill="#002f33"/><g fill="#0096a2"><path d="m17.2031 1.67041 4.6247 2.73109-6.0209 3.47613-4.6246-2.73109z"/><path d="m29.6842 20.8604 2.9023 2.3778-6.0209 3.4761-2.9022-2.3778z"/><path d="m24.6975 10.6886 2.0434-.6332-5.7393 3.4176-2.2901.7124z"/></g><path d="m24.1941 19.2321 6.0617-3.4572-1.7286 1.3829-6.0155 3.4803z" fill="#002f33"/><path d="m31.7926 34.1756 1.6252.1711-3.7979 2.1927-1.6253-.1711z" fill="#eafaf7"/><path d="m37.0898 51.9155 3.798-2.1927 1.0701 2.4649-3.798 2.1928z" fill="#89e5d3"/><path d="m33.1301 53.2292 3.8085-2.1611-.2881 1.784-3.756 2.2537z" fill="#89e5d3"/><path d="m25.0832 39.2554 3.7979-2.1928-1.8254-.7837-3.7979 2.1928z" fill="#eafaf7"/><path d="m37.7352 50.5676 3.8498-2.1827-.6102 1.3465-3.8498 2.1827z" fill="#89e5d3"/><path d="m30.1992 32.0903 1.6781 2.0425-3.7979 2.1928-1.6781-2.0425z" fill="#eafaf7"/><path d="m30.7891 38.301s-2.1426 3.4275 1.0967 7.7215c3.2394 4.2939 5.5526 2.6981 5.5526 2.6981l-3.7979 2.1928s-2.8983.0209-4.523-1.8008c-1.6248-1.8216-2.1264-8.6188-2.1264-8.6188z" fill="#eafaf7"/><path d="m32.8789 36.1982 3.7905-2.1858.2532 2.3663-3.7905 2.1859z" fill="#89e5d3"/><path d="m33.125 38.572 3.7979-2.1927 1.5619 1.6145-3.7979 2.1927z" fill="#eafaf7"/><path d="m23.2649 38.4682.5142.1887c.3661.1781.7297.3233 1.0954.4923.1353.0634.204.0473.2545-.0798.1659-.4054.3589-.7828.529-1.1842.0133-.0377.0181-.0831.014-.1331s-.017-.1035-.0378-.1569c-.2439-.52-.5018-1.0363-.7563-1.5531l-.2502-.5099s1.5157-1.1278 1.952-1.387c0 0 .166.1861.4973.6649.3216.4649.6317.9408.9566 1.4027.0361.0439.076.0809.1171.1086s.0824.0454.1213.0521c.4404.0583.877.1033 1.31.1352.0366-.0005.0688-.0123.0944-.0346s.044-.0546.0541-.0947c.0636-.4389.1086-.892.1625-1.338l.0564-.5254c.6714.3802 2.2698 1.3022 2.9415 1.6975l.0709.5844c.0568.5178.0967 1.0287.1595 1.5489.0106.086.0895.2305.1578.3042.4268.459.862.9009 1.2884 1.3606.1048.1129.1722.1616.2647.1283.3122-.1136.6312-.2111.9485-.313.2928-.0935.5044.0321.7675.4818.479.819.9535 1.641 1.4232 2.4661.2036.3566.2036.6471.0216.8056-.2592.226-.5209.4492-.7691.6914-.0215.0291-.0351.0675-.04.1127s-.0009.0962.0116.1496c.1737.6228.3575 1.2485.5515 1.8771.0276.0889.1273.2165.2002.2709.3984.2966.7997.5709 1.1989.8621.364.2655.5142.204.5142.6267.0026.7281-.0026 1.7894-.0052 2.5142v.4995c-.4004-.1675-1.3218-.4574-1.7189-.6131-.0431-.0114-.0832-.0107-.1177.002-.0345.0128-.0626.0373-.0825.0719-.1871.3819-.3534.7894-.5392 1.1739-.0501.1034-.0424.1994.0335.3505.2567.5166.5091 1.0351.7636 1.5538.1939.3966.3005.5901.3005.5901-.4749.2853-1.5841.9741-2.068 1.2456 0 0-.1483-.2069-.4228-.6049-.3262-.4735-.6426-.9565-.9718-1.4267-.0345-.0452-.0733-.0841-.1138-.1141-.0404-.0299-.0816-.0502-.1208-.0596-.4398-.0553-.8756-.0971-1.3075-.1254-.0725-.0046-.157.049-.1697.1264-.0645.4463-.1043.9111-.1603 1.3637l-.0729.4016c-.6926-.3894-2.2368-1.1794-2.93-1.59l-.0587-.5777c-.0586-.5187-.1129-1.0355-.1595-1.5494-.0128-.1386-.0514-.2138-.1646-.3287-.4357-.4445-.8629-.9013-1.2884-1.3659-.1035-.1127-.1697-.1626-.2634-.1291-.3288.1188-1.0167.3646-1.3565.4608l-.329-.5708c-.4969-.842-1.3082-2.1857-1.7901-3.0373l.338-.3159c.2516-.228.5091-.4462.7552-.6828.0198-.0259.0324-.0604.037-.1012.0047-.0407.0011-.0869-.0103-.1352-.1697-.5878-.3589-1.18-.5239-1.7681-.0543-.194-.1116-.3093-.2732-.4208-.3818-.2581-.7568-.5496-1.1361-.8112l-.5341-.3313zm8.1519 1.6318c-2.2607-1.2969-4.1124-.219-4.1018 2.3931.0038 1.2646.4416 2.7263 1.2172 4.0638.7755 1.3375 1.8253 2.4413 2.9185 3.0687 2.2577 1.2922 4.1027.2035 4.0908-2.4128-.0119-2.6162-1.8641-5.8159-4.1247-7.1128z" fill="#d5f6f0"/><path d="m0 0h4.38547v2.92365h-4.38547z" fill="#89e5d3" transform="matrix(.866025 -.5 .00000002 1 39.6562 48.0928)"/><path d="m35.9648 39.7698 3.798-2.1928 2.186 3.6259-3.798 2.1928z" fill="#d5f6f0"/><path d="m37.0547 44.27 3.7979-2.1927.7579 2.3251-3.7979 2.1927z" fill="#89e5d3"/><g fill="#eafaf7"><path d="m33.7422 32.2974 2.9172 1.7227-3.7979 2.1928-2.9172-1.7228z"/><path d="m41.6172 44.4023 1.8307 1.5-3.7979 2.1927-1.8307-1.4999z"/><path d="m38.4712 37.9858 1.289-.3994-3.6203 2.1559-1.4446.4493z"/></g><path d="m38.1511 43.3751 3.8237-2.1808-1.0904.8723-3.7946 2.1954z" fill="#89e5d3"/></g></svg>