<svg fill="none" height="56" viewBox="0 0 44 56" width="44" xmlns="http://www.w3.org/2000/svg"><path d="m12.011 17.9586 9.9913 10.0413.007-3.4191z" fill="#89e5d3"/><path d="m12.0095 17.9586 9.9912 10.0412-3.402.0071z" fill="#005e66"/><path d="m31.8928 37.9403-9.9913-10.0412 3.402-.007z" fill="#89e5d3"/><path d="m31.893 37.9417-9.9913-10.0412-.007 3.4191z" fill="#002f33"/><path d="m31.893 17.8576-9.9913 10.0412-.007-3.419z" fill="#7accb2"/><path d="m31.8936 17.8573-9.9913 10.0412 3.4021.007z" fill="#005e66"/><path d="m11.9111 37.9391 9.9913-10.0412-3.4021-.007z" fill="#002f33"/><path d="m11.9109 37.9405 9.9913-10.0412.007 3.419z" fill="#002f33"/><path d="m21.9982 6.0017v22.1092l3.7531-3.7564z" fill="#89e5d3"/><path d="m21.9974 5.99999v22.10921l-3.7531-3.7564z" fill="#002f33"/><path d="m21.9982 49.9981v-22.1093l3.7531 3.7564z" fill="#005e66"/><path d="m21.9974 50v-22.1092l-3.7531 3.7564z" fill="#002f33"/><path d="m43.9983 27.8883h-21.9993l3.7377-3.7718z" fill="#7accb2"/><path d="m44 27.8895h-21.9992l3.7377 3.7719z" fill="#002f33"/><path d="m.00182043 27.8883h21.99927957l-3.7377-3.7718z" fill="#005e66"/><path d="m-.0000103 27.8895h21.9992103l-3.7377 3.7719z" fill="#002f33"/></svg>