<svg fill="none" height="56" viewBox="0 0 44 56" width="44" xmlns="http://www.w3.org/2000/svg" xmlns:xlink="http://www.w3.org/1999/xlink"><linearGradient id="a" gradientUnits="userSpaceOnUse" x1="25.5723" x2="13.9932" y1="35.7192" y2="35.4657"><stop offset="0" stop-color="#002f33"/><stop offset="1" stop-color="#005e66"/></linearGradient><path clip-rule="evenodd" d="m34.5901 31.606c.0089-.1947.0134-.3905.0134-.5875 0-6.9715-5.6515-12.623-12.623-12.623-6.9716 0-12.62308 5.6515-12.62308 12.623 0 .3746.01632.7454.04828 1.1117v-1.5655s7.0343 6.9395 12.3349 6.8974c5.222-.0416 12.8495-6.8974 12.8495-6.8974z" fill="#005e66" fill-rule="evenodd"/><path d="m9.42383 30.5647s3.69717 3.7012 12.33497 3.7012c7.3052 0 12.8494-3.7012 12.8494-3.7012v3.7012s-4.6561 3.8038-12.8494 3.8038c-8.1934 0-12.33497-3.8038-12.33497-3.8038z" fill="url(#a)"/><path d="m0 0h25.4209v25.386h-25.4209z" fill="#0096a2" transform="matrix(.866025 .5 -.866025 .5 21.9849 11)"/><path d="m35.0955 35.2354h2.62106v8.94732h-2.62106z" fill="#d5f6f0"/><path d="m35.5977 44.1831v-7.7797" stroke="#002f33"/><path d="m36.7025 44.2305v-6.2639" stroke="#002f33"/><path d="m35.5733 25.4493-.23.9731.1841.0436.1874-.0268zm-13.8185-2.2391 13.5885 3.2122.4601-1.9463-13.5885-3.2122zm13.96 3.229c-.1194.0171-.2095.0028-.2629-.0107-.0599-.0153-.1037-.0372-.1327-.0562-.0633-.0413-.0464-.0603-.003.0352l1.8207-.8276c-.3455-.7602-1.0176-1.2188-1.705-1.1206zm-.3986-.0317c-.0439-.0965-.0474-.1562-.0354-.0879.007.0401.0162.1064.0265.2039.0203.1934.0399.4625.058.7971.036.6663.0635 1.549.0816 2.5146.0361 1.932.0337 4.157-.011 5.5774l1.9991.0629c.046-1.4651.048-3.7258.0115-5.6778-.0183-.9764-.0463-1.8853-.0841-2.585-.0188-.3484-.0406-.6559-.0661-.8982-.0127-.1204-.0274-.2368-.0455-.3399-.0131-.0749-.0428-.2383-.1139-.3947z" fill="#d5f6f0"/></svg>