<svg fill="none" height="56" viewBox="0 0 44 56" width="44" xmlns="http://www.w3.org/2000/svg"><g fill="#005e66"><path d="m0 0h5.25913v10.5183h-5.25913z" transform="matrix(.866025 .5 -.00000002 1 13.1102 32.3301)"/><path d="m0 0h5.25913v10.5183h-5.25913z" transform="matrix(.866025 .5 -.00000002 1 4.00598 11.4697)"/><path d="m0 0h5.25878v21.0365h-5.25878z" transform="matrix(.866025 .5 -.00000002 1 17.6638 24.6179)"/></g><path d="m0 0h5.25913v10.5183h-5.25913z" fill="#002f33" transform="matrix(.866025 -.5 .00000002 1 17.6638 34.96)"/><path d="m0 0h5.25913v10.5183h-5.25913z" fill="#000" transform="matrix(.866026 -.5 .00000002 1 22.2189 37.5886)"/><path d="m0 0h5.25913v5.25913h-5.25913z" fill="#002f33" transform="matrix(.866025 -.5 .00000002 1 13.1124 16.7104)"/><path d="m0 0h5.25913v10.5183h-5.25913z" fill="#0096a2" transform="matrix(.866025 .5 -.866025 .5 22.2189 27.0747)"/><path d="m0 0h5.25913v5.25913h-5.25913z" fill="#eafaf7" transform="matrix(.866025 .5 -.866025 .5 13.1102 42.8506)"/><path d="m0 0h5.25913v5.25913h-5.25913z" fill="#eafaf7" transform="matrix(.866025 .5 -.866025 .5 8.55457 3.58032)"/><path d="m0 0h5.25913v5.25913h-5.25913z" fill="#eafaf7" transform="matrix(.866026 .5 -.866026 .5 17.6638 45.6558)"/><path d="m0 0h5.25913v5.25913h-5.25913z" fill="#d5f6f0" transform="matrix(.866025 .5 -.00000002 1 8.55457 45.4819)"/><path d="m0 0h5.25913v5.25913h-5.25913z" fill="#d5f6f0" transform="matrix(.866025 .5 -.00000002 1 13.1113 48.1113)"/><path d="m0 0h10.5183v5.25913h-10.5183z" fill="#89e5d3" transform="matrix(.866025 -.5 .00000002 1 13.1102 48.1113)"/><path d="m0 0h10.5183v5.25913h-10.5183z" fill="#89e5d3" transform="matrix(.866025 -.5 .00000002 1 17.6654 50.74)"/><path d="m0 0h5.25913v5.25913h-5.25913z" fill="#002f33" transform="matrix(.866026 -.5 .00000002 1 22.2189 32.3301)"/><path d="m0 0h10.5183v10.5183h-10.5183z" fill="#005e66" transform="matrix(.866025 .5 -.00000002 1 16.9429 14.3804)"/><path d="m0 0h.832641v10.5207h-.832641z" fill="#002f33" transform="matrix(.866026 -.5 .00000002 1 26.0527 19.6042)"/><path d="m0 0h5.25913v15.7202h-5.25913z" fill="#002f33" transform="matrix(.866025 -.5 .00000002 1 26.7736 19.3589)"/><path d="m0 0h5.25913v5.25913h-5.25913z" fill="#005e66" transform="matrix(.866025 .5 -.00000002 1 31.3281 21.9712)"/><path d="m0 0h5.25913v5.25913h-5.25913z" fill="#002f33" transform="matrix(.866025 -.5 .00000002 1 35.8827 24.5991)"/><path d="m0 0h10.5183v5.25913h-10.5183z" fill="#002f33" transform="matrix(.866025 -.5 .00000002 1 31.3259 21.9712)"/><g fill="#0096a2"><path d="m0 0h5.25913v10.5183h-5.25913z" transform="matrix(.866025 .5 -.866025 .5 35.8827 14.0818)"/><path d="m0 0h5.25913v10.5183h-5.25913z" transform="matrix(.866025 .5 -.866025 .5 17.6638 8.84058)"/><path d="m0 0h5.25913v10.5183h-5.25913z" transform="matrix(.866025 -.5 .866025 .5 17.6638 14.1001)"/></g><path d="m0 0h5.25913v5.25913h-5.25913z" fill="#89e5d3" transform="matrix(.866025 -.5 .00000002 1 35.8876 29.8311)"/><path d="m0 0h5.25913v5.25913h-5.25913z" fill="#89e5d3" transform="matrix(.866025 -.5 .00000002 1 8.55835 8.84058)"/><path d="m0 0h5.25913v10.5183h-5.25913z" fill="#002f33" transform="matrix(.866025 -.5 .00000002 1 8.55725 14.0818)"/><path d="m0 0h5.25913v5.25913h-5.25913z" fill="#d5f6f0" transform="matrix(.866025 .5 -.00000002 1 31.3319 27.1995)"/><path d="m0 0h5.25913v5.25913h-5.25913z" fill="#d5f6f0" transform="matrix(.866025 .5 -.00000002 1 4.00598 6.21069)"/><path d="m0 0h5.25913v5.25913h-5.25913z" fill="#005e66" transform="matrix(.866025 .5 -.00000002 1 26.7719 19.3589)"/><path d="m0 0h6.01053v10.4334h-6.01053z" fill="#0096a2" transform="matrix(.866025 -.5 .866025 .5 17.0103 14.5171)"/><path d="m0 0h5.25913v10.5183h-5.25913z" fill="#89e5d3" transform="matrix(.866025 -.5 .00000002 1 26.7712 7.88623)"/><path d="m0 0h10.5183v10.5183h-10.5183z" fill="#d5f6f0" transform="matrix(.866025 .5 -.00000002 1 17.6615 2.62866)"/><path d="m0 0h10.5183v5.25913h-10.5183z" fill="#eafaf7" transform="matrix(.866025 .5 -.866025 .5 22.2156 0)"/></svg>