<svg fill="none" height="56" viewBox="0 0 44 56" width="44" xmlns="http://www.w3.org/2000/svg" xmlns:xlink="http://www.w3.org/1999/xlink"><linearGradient id="a"><stop offset="0" stop-color="#0096a2"/><stop offset="1" stop-color="#002f33"/></linearGradient><linearGradient id="b" gradientUnits="userSpaceOnUse" x1="29.1763" x2="65.1101" xlink:href="#a" y1="-8.44152" y2="16.1747"/><linearGradient id="c" gradientUnits="userSpaceOnUse" x1="21.2915" x2="28.5188" xlink:href="#a" y1="13.5822" y2="20.7595"/><clipPath id="d"><path d="m0 0h44v56h-44z"/></clipPath><g clip-path="url(#d)"><path d="m7.30658 4.18481 5.05582-2.91895s14.9087-4.63735 26.6182 17.02524c11.2935 20.8927 0 31.791 0 31.791l-5.0557 2.919s8.7721-8.6516-4.0636-33.4223c-6.5105-12.56416-22.55472-15.39399-22.55472-15.39399z" fill="url(#b)"/><circle fill="#005e66" r="22.7705" transform="matrix(.866025 .5 -.00000002 1 19.7198 29.0544)"/><path d="m19.7177 13.8394 3.1604-1.8247 2.9316 12.2138-3.1604 1.8247z" fill="url(#c)"/><path d="m24.5169 33.5906 3.1604-1.8247 2.9316 12.2138-3.1604 1.8247z" fill="#002f33"/><path d="m32.2595 31.6005 3.1604-1.8247-9.6103-5.5472-3.1604 1.8246z" fill="#0096a2"/><path d="m16.8205 22.7006 3.1604-1.8247-9.6102-5.5472-3.16043 1.8246z" fill="#0096a2"/><path d="m19.7198 13.8523 2.9558 12.2109 9.5652 5.5225-7.7384 2.0243 2.9558 12.2109-7.7384-10.9598-7.7384 2.0242 2.9558-8.7978-7.73846-10.9599 9.56526 5.5225z" fill="#d5f6f0"/></g></svg>