<svg fill="none" height="56" viewBox="0 0 44 56" width="44" xmlns="http://www.w3.org/2000/svg" xmlns:xlink="http://www.w3.org/1999/xlink"><linearGradient id="a" gradientUnits="userSpaceOnUse" x1="19.8904" x2="40.1329" y1="8.08912" y2="19.2222"><stop offset=".286602" stop-color="#0096a2"/><stop offset="1" stop-color="#002f33"/></linearGradient><clipPath id="b"><path d="m0 0h44v56h-44z"/></clipPath><g clip-path="url(#b)"><path d="m19.9071 24.4607 5.3024-2.7745s6.8076 10.5536 8.4042 15.26c1.5967 4.7064.9938 7.3286.9938 7.3286l-4.6403 2.9171s.5796-3.1102-.9937-7.3287c-1.5734-4.2184-9.0664-15.4025-9.0664-15.4025z" fill="#002f33"/><path d="m0 0h6.40085v5.53783h-6.40085z" fill="#0096a2" transform="matrix(.866025 .5 -.866025 .5 11.0029 30.6392)"/><path clip-rule="evenodd" d="m16.6622 9.13031 3.8273 2.20969 8.2565 10.3568 2.7097 3.6821c1.0738 1.2928 1.8027 3.0268 1.8027 4.5366 0 2.1953-1.5412 3.0851-3.4423 1.9874-1.1712-.6762-2.2059-1.9489-2.8277-3.3399l-6.5142-3.6273c3.0884 2.6213 9.8668 14.8635 9.6313 20.6106 0 .5592-.0261 1.0962-.0772 1.6103l3.2301 1.8649v3.6297l-27.2584-15.7377.20648-3.5104 5.53162 3.1936c.7104-1.457 1.1047-3.2932 1.1047-5.4635 0-3.2568-.888-6.7869-2.3998-10.1323.0274-.0022.0547-.0044.0822-.0063-1.11069-2.5588-1.75833-5.238-1.75833-7.7181 0-5.64769 3.35863-8.45048 7.89533-7.14948zm3.812 15.80539c.0977.054-.0982-.0567 0 0z" fill="#005e66" fill-rule="evenodd"/><path d="m16.6572 6.12042 4.2412-2.49144v3.00793l-4.2412 2.49144z" fill="#002f33"/><path d="m16.6495 9.13113 4.2553-2.49756 3.8413 2.21222s9.8005 11.64891 12.4465 16.38341c1.0593 2.8839-.3303 4.1472-.3303 4.1472l-4.2552 2.4975s.9482-1.5904.4854-3.1886c-1.3714-3.455-12.6017-17.342-12.6017-17.342z" fill="url(#a)"/><path d="m34.6135 44.2727 3.236 1.8683-4.6341 2.8609-3.2359-1.8683z" fill="#0096a2"/><path d="m33.2145 49.0049 4.6357-2.8608v3.6462l-4.6357 2.8608z" fill="#002f33"/><path d="m17.698 3.3654c1.9014-.23311 3.2008.26437 3.2008.26437l-4.2458 2.48961s-1.0492-.30598-2.2597-.30598c-1.4261.03595-2.7527.80726-2.7527.80726s4.012-3.0045 6.0574-3.25526z" fill="#0096a2"/></g></svg>