<svg fill="none" height="56" viewBox="0 0 44 56" width="44" xmlns="http://www.w3.org/2000/svg" xmlns:xlink="http://www.w3.org/1999/xlink"><linearGradient id="a"><stop offset="0" stop-color="#0096a2"/><stop offset="1" stop-color="#002f33"/></linearGradient><linearGradient id="b" gradientUnits="userSpaceOnUse" x1="29.1763" x2="65.1102" xlink:href="#a" y1="-8.44152" y2="16.1747"/><linearGradient id="c" gradientUnits="userSpaceOnUse" x1="14.7604" x2="21.9878" xlink:href="#a" y1="16.4376" y2="23.6149"/><linearGradient id="d"><stop offset="0" stop-color="#002f33"/><stop offset=".333333" stop-color="#184d52"/><stop offset="1" stop-color="#002f33"/></linearGradient><linearGradient id="e" gradientUnits="userSpaceOnUse" x1="22.2578" x2="22.7408" xlink:href="#d" y1="39.6181" y2="40.4546"/><linearGradient id="f" gradientUnits="userSpaceOnUse" x1="22.2578" x2="22.7408" xlink:href="#d" y1="41.8316" y2="42.6682"/><linearGradient id="g" gradientUnits="userSpaceOnUse" x1="22.2578" x2="22.7408" xlink:href="#d" y1="44.0746" y2="44.9112"/><linearGradient id="h"><stop offset="0" stop-color="#002f33"/><stop offset=".685701" stop-color="#0096a2"/><stop offset="1" stop-color="#002f33"/></linearGradient><linearGradient id="i" gradientUnits="userSpaceOnUse" x1="20.9776" x2="15.4113" xlink:href="#h" y1="41.1043" y2="41.1043"/><linearGradient id="j" gradientUnits="userSpaceOnUse" x1="20.9775" x2="15.4113" xlink:href="#h" y1="43.3575" y2="43.3575"/><linearGradient id="k" gradientUnits="userSpaceOnUse" x1="20.9775" x2="15.4113" xlink:href="#h" y1="45.6104" y2="45.6104"/><clipPath id="l"><path d="m0 0h44v56h-44z"/></clipPath><g clip-path="url(#l)"><path d="m7.30664 4.18481 5.05576-2.91895s14.9087-4.63735 26.6183 17.02524c11.2934 20.8927 0 31.791 0 31.791l-5.0558 2.919s8.7721-8.6516-4.0635-33.4223c-6.5105-12.56416-22.55476-15.39399-22.55476-15.39399z" fill="url(#b)"/><circle fill="#005e66" r="22.7705" transform="matrix(.866025 .5 -.00000002 1 19.7198 29.0544)"/><path d="m13.1866 16.6948 3.1604-1.8246s4.3431-1.2742 8.5013 3.9402c2.8295 3.5482 5.7522 7.9876 3.3126 14.0841-1.2864 3.2147-3.2553 3.2598-4.1339 4.4093-.5156.6747-.1765 1.1547-.1765 1.1547l-3.1604 1.8247s.3022-1.1187.614-1.8247c.9014-2.0403 2.8963-2.3347 3.5442-4.3921 1.9819-6.2939-.3309-9.8831-3.1604-13.4314-2.3839-2.9894-8.5013-3.9402-8.5013-3.9402z" fill="url(#c)"/><circle fill="#d5f6f0" r="9.01497" transform="matrix(.866025 .5 -.00000002 1 18.1744 26.5403)"/><path d="m12.0672 28.5361s3.8197 4.0103 6.0393 5.3096c2.2731 1.3306 6.2517 1.7867 6.2517 1.7867s-2.2957 1.6003-3.1476 3.0814c-.4657.8096-.7193 2.5651-.7193 2.5651l-4.5267-2.6135s-.3575-2.0256-.7498-3.4133c-.6832-2.4171-3.1476-6.716-3.1476-6.716z" fill="#d5f6f0"/><path d="m20.684 40.2605 3.1604-1.8247s.4289.5551.4289 1.0554c0 .2112-.4289.4647-.4289.4647l-3.1604 1.8246s.195-.1989.2561-.4332c.0943-.3613-.2561-1.0868-.2561-1.0868z" fill="url(#e)"/><path d="m20.6065 42.502 3.2379-1.8528s.4289.5551.4289 1.0554c0 .2112-.4289.4646-.4289.4646l-3.1604 1.8247s.195-.1989.2561-.4333c.0943-.3613-.3336-1.0586-.3336-1.0586z" fill="url(#f)"/><path d="m20.684 44.717 3.1604-1.8246s.4289.5551.4289 1.0553c0 .2112-.4289.4647-.4289.4647l-3.0957 1.8132s.1303-.1875.1914-.4218c.0943-.3613-.2561-1.0868-.2561-1.0868z" fill="url(#g)"/><path d="m20.6841 41.7177 3.1819-1.8371v.8358l-3.1819 1.8371z" fill="#002f33"/><path d="m20.6841 43.9314 3.1819-1.8371v.8357l-3.1819 1.8371z" fill="#002f33"/><path d="m15.5523 37.2061 5.2048 3.005s.4178.6756.4114 1.0207c-.0062.3334-.4114.5112-.4114.5112l-5.2048-3.005s-.366-.6307-.3717-.9634c-.006-.3447.3717-.5685.3717-.5685z" fill="url(#i)"/><path d="m15.5522 39.4593 5.2048 3.005s.4178.6756.4114 1.0207c-.0062.3334-.4114.5111-.4114.5111l-5.2048-3.005s-.366-.6307-.3717-.9633c-.0059-.3447.3717-.5685.3717-.5685z" fill="url(#j)"/><path d="m15.5522 41.7122 5.2048 3.005s.4178.6756.4114 1.0207c-.0062.3334-.4114.5112-.4114.5112l-5.2048-3.005s-.366-.6307-.3717-.9633c-.0059-.3448.3717-.5686.3717-.5686z" fill="url(#k)"/><g fill="#d5f6f0"><path d="m0 0h5.99684v.721188h-5.99684z" transform="matrix(.866025 .5 -.00000002 1 15.5634 38.7444)"/><path d="m0 0h5.99684v.721188h-5.99684z" transform="matrix(.866025 .5 -.00000002 1 15.5634 40.9973)"/><path d="m16.1259 43.5752 4.0973 2.3656s-1.1326.6653-2.0486.1364c-.9161-.5288-2.0487-2.502-2.0487-2.502z"/></g></g></svg>