<svg fill="none" height="56" viewBox="0 0 44 56" width="44" xmlns="http://www.w3.org/2000/svg" xmlns:xlink="http://www.w3.org/1999/xlink"><linearGradient id="a" gradientUnits="userSpaceOnUse" x1="16.2579" x2="23.3206" y1="10.1779" y2="41.9574"><stop offset="0" stop-color="#0096a2"/><stop offset="1" stop-color="#002f33"/></linearGradient><clipPath id="b"><path d="m0 0h44v56h-44z"/></clipPath><g clip-path="url(#b)"><path clip-rule="evenodd" d="m35.607 41.2246c.7476-1.0709 1.1579-2.4686 1.1579-4.1782 0-7.3755-7.6352-17.7626-17.0538-23.2004-9.4185-5.43781-17.05369-3.86703-17.05369 3.5084 0 7.3755 7.63519 17.7626 17.05369 23.2004 4.0868 2.3595 7.8379 3.3995 10.7751 3.2182l9.027 8.2271z" fill="#005e66" fill-rule="evenodd"/><g stroke="#d5f6f0" stroke-width="1.12961"><path d="m0-.564807h22.055" transform="matrix(.866025 .5 -.00000002 1 10.3387 16.1846)"/><path d="m0-.564807h22.055" transform="matrix(.866025 .5 -.00000002 1 10.3387 22.4861)"/><path d="m0-.564807h22.055" transform="matrix(.866025 .5 -.00000002 1 10.3387 28.7874)"/></g><path d="m6.62987 11.055 2.7286-1.57534s13.15933-4.56696 27.04233 17.01424c5.0156 7.7967 1.953 13.1553 1.953 13.1553l-2.7286 1.5753s3.2423-5.409-2.1815-14.0077c-11.3789-18.03943-26.81383-16.1618-26.81383-16.1618z" fill="url(#a)"/><path d="m35.6238 41.2245 2.7286-1.5753 3.8861 10.7741-2.7285 1.5753z" fill="#002f33"/></g></svg>