<svg fill="none" height="56" viewBox="0 0 44 56" width="44" xmlns="http://www.w3.org/2000/svg" xmlns:xlink="http://www.w3.org/1999/xlink"><clipPath id="a"><path d="m0 0h44v56h-44z"/></clipPath><g clip-path="url(#a)"><path d="m0 0h5.05264v35.3685h-5.05264z" fill="#89e5d3" transform="matrix(.866026 -.5 .00000002 1 30.8783 16.158)"/><g stroke="#002f33"><path d="m0-.5h35.3685" transform="matrix(-.00000003 -1 .851696 -.310565 32.3375 50.6838)"/><path d="m0-.5h35.3685" transform="matrix(-.00000003 -1 .851696 -.310565 33.7969 49.8413)"/><path d="m0-.5h35.3685" transform="matrix(-.00000003 -1 .851696 -.310565 35.2561 48.9988)"/></g><path d="m0 0h25.2632v35.3685h-25.2632z" fill="#d5f6f0" transform="matrix(.866026 .5 -.00000002 1 9 3.52637)"/><g stroke="#005e66"><path d="m0-.5h15.1579" transform="matrix(.866026 .5 -.00000002 1 13.3757 11.1055)"/><path d="m0-.5h15.1579" transform="matrix(.866026 .5 -.00000002 1 13.3757 16.158)"/><path d="m0-.5h15.1579" transform="matrix(.866026 .5 -.00000002 1 13.3757 21.2107)"/><path d="m0-.5h15.1579" transform="matrix(.866026 .5 -.00000002 1 13.3757 26.2634)"/><path d="m0-.5h15.1579" transform="matrix(.866026 .5 -.00000002 1 13.3757 31.3159)"/><path d="m0-.5h10.1053" transform="matrix(.866026 .499999 -.00000002 1 13.3757 36.3687)"/></g><path clip-rule="evenodd" d="m28.6908 45.6315-4.3757-2.5263v10.1053l.0098.0057 2.1841-3.2316 2.1818 5.7475z" fill="#0096a2" fill-rule="evenodd"/><path d="m26.5027 40.594.6814 1.488 1.0858.1315.0608 1.3813 1.1453.9224-.5791.8361.8412 1.4203-1.0352.0255.2701 1.4674-1.1626-.7933-.3868 1.0485-.9209-1.3602-.921.2968-.3868-1.4952-1.1626-.5492.2701-1.1555-1.0352-1.2208.8412-.449-.5791-1.5048 1.1453.4001.0608-1.311 1.0858 1.1222z" fill="#005e66"/><path d="m0 0h25.2632v5.05264h-25.2632z" fill="#eafaf7" transform="matrix(.866026 .5 -.866026 .5 13.3767 1)"/><path d="m0-.5h25.2632" stroke="#0096a2" transform="matrix(.866026 .5 -.866026 .5 12.8418 1.31689)"/><path d="m0-.5h25.2632" stroke="#0096a2" transform="matrix(.866026 .5 -.866026 .5 11.3823 2.15918)"/><path d="m0-.5h25.2632" stroke="#0096a2" transform="matrix(.866026 .5 -.866026 .5 9.92444 3.00122)"/></g></svg>