<svg fill="none" height="70" viewBox="0 0 107 70" width="107" xmlns="http://www.w3.org/2000/svg" xmlns:xlink="http://www.w3.org/1999/xlink"><linearGradient id="a" gradientUnits="userSpaceOnUse" x1=".521484" x2="106.001" y1=".25" y2=".25"><stop offset="0" stop-color="#0096a2"/><stop offset="1" stop-color="#89e5d3"/></linearGradient><g clip-rule="evenodd" fill="url(#a)" fill-rule="evenodd"><path d="m21.5194 40.4668c-.591.4133-1.1806.8286-1.7688 1.246-.1698-.7099-.316-1.4235-.4388-2.1395-1.1057-6.4494-.3085-13.0991 2.3189-19.1264 2.9191-6.6965 7.9388-12.26075 14.3003-15.85178 6.3615-3.59102 13.719-5.013645 20.9606-4.052851 6.518.864781 12.6232 3.618141 17.5736 7.897281.5496.47507 1.085.96894 1.6051 1.48113-.6613.28792-1.3216.57812-1.9808.87062-18.4362 8.1796-36.041 18.1174-52.5701 29.6755zm-.3829-2.171c16.1581-11.228 33.3302-20.9216 51.2922-28.95412-4.5206-3.67604-9.9857-6.04535-15.8001-6.81679-6.8111-.90367-13.7312.43438-19.7145 3.8119-5.9832 3.37752-10.7045 8.61091-13.45 14.90931-2.3439 5.3767-3.1392 11.28-2.3276 17.0497z"/><path d="m32.0306 61.6041c2.7377 2.4141 5.8572 4.3654 9.236 5.7717 4.051 1.686 8.395 2.5555 12.7827 2.5585h.0193c5.0396-.0073 10.0116-1.1604 14.54-3.372 4.5284-2.2117 8.4946-5.424 11.5988-9.394 3.1042-3.9701 5.2652-8.594 6.3194-13.5221.9019-4.2165.9736-8.5611.2187-12.7924-.1274-.7141-.2784-1.4251-.4529-2.1316-.586.4176-1.1735.8331-1.7625 1.2463-8.0995 5.6824-16.4854 10.946-25.1249 15.7699-8.7512 4.9734-17.7568 9.4842-26.9796 13.5138-.6596.2882-1.3204.5739-1.9822.8572.5133.5161 1.0427 1.0146 1.5872 1.4947zm10.0045 3.9253c3.8079 1.5848 7.8912 2.4021 12.0156 2.4049h.015c4.7364-.0068 9.4092-1.0906 13.6652-3.1691 4.2559-2.0786 7.9835-5.0976 10.901-8.8289 2.9174-3.7312 4.9483-8.0769 5.9391-12.7085.7821-3.6558.9-7.4141.3565-11.0967-7.9204 5.5196-16.1106 10.6425-24.5406 15.3498-8.5435 4.8551-17.3278 9.2723-26.3188 13.2346 2.3969 1.9889 5.0813 3.6128 7.967 4.8139z"/><path d="m102.264 4.21387c1.874 0 3.057.41644 3.516 1.2339 1.501 2.66266-4.709 9.55563-16.2997 18.17983-.5617.4179-1.136.8399-1.7227 1.2656-.1827-.6835-.3877-1.3594-.6145-2.0268-1.3061-3.8443-3.3329-7.4048-5.9716-10.4905-.4597-.5375-.9379-1.0607-1.4342-1.5684.6704-.2814 1.3314-.5546 1.9828-.81923 9.1648-3.72407 16.4071-5.7744 20.5439-5.7744zm-1.612 7.18943c-2.6234 2.8303-6.628 6.3163-11.8264 10.2168-1.3163-3.6476-3.2478-7.043-5.7102-10.0385 3.9533-1.58795 7.5106-2.8441 10.5747-3.74223 3.759-1.10182 6.6469-1.6255 8.5739-1.6255.812 0 1.329.09328 1.626.19746.042.01474.076.02851.104.04081-.017.1497-.088.46442-.366 1.01371-.502.993-1.471 2.31447-2.976 3.93745zm3.443-4.89781.003.00291c.002.00146.003.00208.003.00208l-.001-.0009s-.003-.0022-.005-.00409z"/><path d="m16.9449 46.4157c-11.5307 8.6242-17.703988 15.521-16.200288 18.1901.478138.8252 1.665758 1.2455 3.562878 1.2455 4.1189 0 11.29181-1.9968 20.32891-5.6492.6497-.2626 1.3091-.5338 1.9776-.8133-.4893-.5114-.9608-1.0377-1.414-1.578-2.6307-3.1366-4.6425-6.7443-5.9282-10.6308-.2222-.6716-.4227-1.3516-.601-2.0389-.5879.4288-1.1633.8537-1.7259 1.2746zm-14.28918 17.235c.30339.1063.82801.2006 1.65177.2006 1.92404 0 4.79397-.5115 8.51461-1.5892 3.03-.8777 6.5418-2.1062 10.4373-3.6622-2.4552-3.041-4.3736-6.479-5.6724-10.1652-5.1595 3.8929-9.13388 7.3729-11.73816 10.1999-1.49617 1.6242-2.45926 2.9468-2.95749 3.9409-.27937.5575-.3481.8747-.36382 1.0239.03271.0152.0748.0325.12819.0513z"/><path d="m58.4251 43.9573c-9.4411 5.3645-19.1774 10.192-29.1623 14.4597-4.0534-4.198-6.9403-9.3817-8.3751-15.0381 17.5325-12.4498 36.31-23.0461 56.0305-31.6186 4.1285 4.1804 7.0846 9.3733 8.5717 15.0573-8.6997 6.2063-17.735 11.9282-27.0648 17.1397zm-28.6542 12.0637c-3.0234-3.417-5.269-7.4502-6.5809-11.8201 16.7096-11.7517 34.5442-21.816 53.2418-30.0449 3.0874 3.4094 5.3906 7.4542 6.7474 11.8491-8.2856 5.85-16.874 11.2596-25.7294 16.2061l-.0063.0036-.0064.0036c-8.9674 5.0953-18.2029 9.7028-27.6662 13.8026z"/></g></svg>