<svg fill="none" height="74" viewBox="0 0 74 74" width="74" xmlns="http://www.w3.org/2000/svg" xmlns:xlink="http://www.w3.org/1999/xlink"><linearGradient id="a" gradientUnits="userSpaceOnUse" x1=".703125" x2="73.8187" y1=".25" y2=".25"><stop offset="0" stop-color="#0096a2"/><stop offset="1" stop-color="#89e5d3"/></linearGradient><g fill="url(#a)"><path clip-rule="evenodd" d="m52.5971 56.3382c-3.0952 2.3342-6.6467 3.1767-10.5023 2.772-3.8556-.4046-7.414-2.257-9.9571-5.1831-2.5431-2.926-3.8814-6.708-3.7448-10.5823.1367-3.8744 1.7381-7.5526 4.481-10.2922 2.7429-2.7397 6.423-4.3368 10.2975-4.4688 3.8745-.1321 7.6548 1.2107 10.5779 3.7572s4.7713 6.1072 5.1714 9.9632c.4001 3.8561-.3146 7.2196-2.6526 10.312l8.4217 8.3603c.4436-.5034.8722-1.0177 1.2854-1.5421 5.4164-6.8731 8.202-15.4837 7.8066-24.27-.4256-9.4567-4.5028-18.3796-11.3736-24.8913-6.8709-6.51156-15.9997-10.104131-25.4656-10.021713-9.4659.082419-18.5307 3.833393-25.2872 10.463613-6.75639 6.6303-10.67756 15.6229-10.938381 25.0855-.260821 9.4627 3.159031 18.6576 9.539981 25.65 6.381 6.9923 15.2255 11.237 24.6724 11.8407 8.776.5608 17.4363-2.061 24.4097-7.3453.5332-.404 1.0565-.8236 1.5693-1.2585zm-.2523 2.5814c-3.1841 1.9155-6.7338 2.5707-10.4588 2.1797-4.3592-.4575-8.3826-2.5519-11.2579-5.8602s-4.3884-7.5843-4.2339-11.9648 1.9651-8.5392 5.0663-11.6368 7.2621-4.9033 11.6428-5.0526c4.3806-.1493 8.6548 1.3689 11.9598 4.2481 3.3049 2.8792 5.3945 6.905 5.8469 11.2648.3833 3.6936-.1604 7.1045-2.0585 10.2648l5.6945 5.653c5.0269-6.467 7.6081-14.5326 7.2378-22.7613-.4023-8.9393-4.2564-17.3741-10.7514-23.5295-6.495-6.15537-15.1243-9.5514-24.0724-9.47349-8.948.07791-17.5169 3.62368-23.9037 9.89119-6.38684 6.2676-10.09349 14.7682-10.34004 23.7131-.24655 8.945 2.98621 17.6369 9.01804 24.2467 6.0319 6.6098 14.3925 10.6223 23.3227 11.193 8.2052.5243 16.3033-1.8945 22.8575-6.7806z" fill-rule="evenodd"/><path clip-rule="evenodd" d="m46.7081 30.9755c2.1418.5076 4.1231 1.5413 5.7647 3.0077 1.6415 1.4663 2.8913 3.319 3.6363 5.3902s.9616 4.2955.6301 6.4716c-.3314 2.176-1.2004 4.2349-2.5282 5.9904l-2.581 2.581c-1.7792 1.3441-3.8692 2.217-6.0758 2.5376-2.2067.3206-4.4586.0786-6.5467-.7037-2.0882-.7822-3.9448-2.0792-5.3977-3.7707-1.453-1.6915-2.455-3.7227-2.9133-5.9049-.4582-2.1823-.3577-4.4449.2922-6.578.6499-2.133 1.8281-4.0673 3.4253-5.6233 1.5971-1.556 3.5615-2.6834 5.7107-3.2774 2.1493-.594 4.4138-.6355 6.5834-.1205zm3.6097 21.9247c-1.4869 1.0959-3.2218 1.8088-5.0512 2.0746-1.8732.2721-3.7849.0667-5.5575-.5974-1.7726-.664-3.3488-1.7651-4.5822-3.201s-2.0841-3.1602-2.473-5.0127c-.389-1.8525-.3037-3.7733.248-5.5841.5517-1.8107 1.5519-3.4527 2.9077-4.7737 1.3559-1.3209 3.0234-2.2779 4.8479-2.7822 1.8245-.5042 3.7469-.5394 5.5887-.1022 1.8181.4308 3.5007 1.3085 4.8942 2.5532 1.3934 1.2448 2.4543 2.8175 3.0867 4.5756.6324 1.7582.8163 3.6464.5349 5.4935-.2747 1.8035-.9843 3.5123-2.0668 4.979z" fill-rule="evenodd"/><path d="m54.9003 54.4492c.3077-.3105.6065-.6298.896-.9575l17.4315 17.4315-2.3409 2.3409-17.4562-17.4562c.3341-.2828.6599-.5751.977-.8764.1666-.1583.3309-.3191.4926-.4823z"/></g></svg>