<svg fill="none" height="114" viewBox="0 0 74 114" width="74" xmlns="http://www.w3.org/2000/svg"><path d="m0 0h28.3046v35.3807h-28.3046z" fill="#b29fff" transform="matrix(.866025 -.5 .00000002 1 49.081 78.6184)"/><path d="m0 0h28.3046v70.7614h-28.3046z" fill="#b29fff" transform="matrix(.866025 -.5 .00000002 1 24.5134 29.0852)"/><path clip-rule="evenodd" d="m24.5125 29.0859-24.5125-14.1523v70.7614l24.5125 14.1523zm24.5136 49.5312-24.5124-14.1523v35.3808l24.5124 14.1524z" fill="#e6dfff" fill-rule="evenodd"/><path d="m0 0h28.3046v28.3046h-28.3046z" fill="#f8f7ff" transform="matrix(.866025 -.5 .866025 .5 0 14.9336)"/><path d="m0 0h28.3046v28.3046h-28.3046z" fill="#f8f7ff" transform="matrix(.866025 -.5 .866025 .5 24.5134 64.4653)"/><g fill="#3e0dff"><path d="m0 0h2.83046v2.83046h-2.83046z" transform="matrix(.866025 .5 -.00000002 1 2.2995 21.1404)"/><path d="m0 0h2.83046v2.83046h-2.83046z" transform="matrix(.866025 .5 -.00000002 1 8.12177 24.5037)"/><path d="m0 0h2.83046v2.83046h-2.83046z" transform="matrix(.866025 .5 -.00000002 1 13.942 27.8628)"/><path d="m0 0h2.83046v2.83046h-2.83046z" transform="matrix(.866025 .5 -.00000002 1 19.7648 31.2258)"/><path d="m0 0h2.83046v2.83046h-2.83046z" transform="matrix(.866025 .5 -.00000002 1 2.29974 26.9573)"/><path d="m0 0h2.83046v2.83046h-2.83046z" transform="matrix(.866025 .5 -.00000002 1 8.12177 30.3201)"/><path d="m0 0h2.83046v2.83046h-2.83046z" transform="matrix(.866025 .5 -.00000002 1 13.942 33.6807)"/><path d="m0 0h2.83046v2.83046h-2.83046z" transform="matrix(.866025 .5 -.00000002 1 19.7648 37.0413)"/><path d="m0 0h2.83046v2.83046h-2.83046z" transform="matrix(.866025 .5 -.00000002 1 2.29974 32.7761)"/><path d="m0 0h2.83046v2.83046h-2.83046z" transform="matrix(.866025 .5 -.00000002 1 8.12177 36.1365)"/><path d="m0 0h2.83046v2.83046h-2.83046z" transform="matrix(.866025 .5 -.00000002 1 13.942 39.4978)"/><path d="m0 0h2.83046v2.83046h-2.83046z" transform="matrix(.866025 .5 -.00000002 1 19.7648 42.8591)"/><path d="m0 0h2.83046v2.83046h-2.83046z" transform="matrix(.866025 .5 -.00000002 1 2.29974 38.593)"/><path d="m0 0h2.83046v2.83046h-2.83046z" transform="matrix(.866025 .5 -.00000002 1 8.12177 41.9548)"/><path d="m0 0h2.83046v2.83046h-2.83046z" transform="matrix(.866025 .5 -.00000002 1 13.942 45.3164)"/><path d="m0 0h2.83046v2.83046h-2.83046z" transform="matrix(.866025 .5 -.00000002 1 19.7648 48.676)"/><path d="m0 0h2.83046v2.83046h-2.83046z" transform="matrix(.866025 .5 -.00000002 1 2.29974 44.4094)"/><path d="m0 0h2.83046v2.83046h-2.83046z" transform="matrix(.866025 .5 -.00000002 1 8.12177 47.7712)"/><path d="m0 0h2.83046v2.83046h-2.83046z" transform="matrix(.866025 .5 -.00000002 1 13.942 51.1318)"/><path d="m0 0h2.83046v2.83046h-2.83046z" transform="matrix(.866025 .5 -.00000002 1 19.7648 54.4949)"/><path d="m0 0h2.83046v2.83046h-2.83046z" transform="matrix(.866025 .5 -.00000002 1 2.29974 50.2263)"/><path d="m0 0h2.83046v2.83046h-2.83046z" transform="matrix(.866025 .5 -.00000002 1 8.12177 53.5876)"/><path d="m0 0h2.83046v2.83046h-2.83046z" transform="matrix(.866025 .5 -.00000002 1 13.942 56.949)"/><path d="m0 0h2.83046v2.83046h-2.83046z" transform="matrix(.866025 .5 -.00000002 1 19.7648 60.311)"/><path d="m0 0h2.83046v2.83046h-2.83046z" transform="matrix(.866025 .5 -.00000002 1 2.29974 56.0435)"/><path d="m0 0h2.83046v2.83046h-2.83046z" transform="matrix(.866025 .5 -.00000002 1 8.12177 59.406)"/><path d="m0 0h2.83046v2.83046h-2.83046z" transform="matrix(.866025 .5 -.00000002 1 13.942 62.7676)"/><path d="m0 0h2.83046v2.83046h-2.83046z" transform="matrix(.866025 .5 -.00000002 1 19.7648 66.1265)"/><path d="m0 0h2.83046v2.83046h-2.83046z" transform="matrix(.866025 .5 -.00000002 1 2.29974 61.8604)"/><path d="m0 0h2.83046v2.83046h-2.83046z" transform="matrix(.866025 .5 -.00000002 1 8.12177 65.2224)"/><path d="m0 0h2.83046v2.83046h-2.83046z" transform="matrix(.866025 .5 -.00000002 1 13.942 68.5837)"/><path d="m0 0h2.83046v2.83046h-2.83046z" transform="matrix(.866025 .5 -.00000002 1 19.7648 71.9434)"/><path d="m0 0h2.83046v2.83046h-2.83046z" transform="matrix(.866025 .5 -.00000002 1 2.29974 67.6782)"/><path d="m0 0h2.83046v2.83046h-2.83046z" transform="matrix(.866025 .5 -.00000002 1 8.12177 71.0388)"/><path d="m0 0h2.83046v2.83046h-2.83046z" transform="matrix(.866025 .5 -.00000002 1 13.942 74.4009)"/><path d="m0 0h2.83046v2.83046h-2.83046z" transform="matrix(.866025 .5 -.00000002 1 19.7648 77.7622)"/><path d="m0 0h2.83046v2.83046h-2.83046z" transform="matrix(.866025 .5 -.00000002 1 2.29974 73.4961)"/><path d="m0 0h2.83046v2.83046h-2.83046z" transform="matrix(.866025 .5 -.00000002 1 8.12177 76.8552)"/><path d="m0 0h2.83046v2.83046h-2.83046z" transform="matrix(.866025 .5 -.00000002 1 13.942 80.217)"/><path d="m0 0h2.83046v2.83046h-2.83046z" transform="matrix(.866025 .5 -.00000002 1 19.7648 83.5791)"/><path d="m0 0h2.83046v2.83046h-2.83046z" transform="matrix(.866025 .5 -.00000002 1 2.29974 79.3125)"/><path d="m0 0h2.83046v2.83046h-2.83046z" transform="matrix(.866025 .5 -.00000002 1 8.12177 82.6736)"/><path d="m0 0h2.83046v2.83046h-2.83046z" transform="matrix(.866025 .5 -.00000002 1 13.942 86.0349)"/><path d="m0 0h2.83046v2.83046h-2.83046z" transform="matrix(.866025 .5 -.00000002 1 19.7648 89.3962)"/><path d="m0 0h2.83046v2.83046h-2.83046z" transform="matrix(.866025 .5 -.00000002 1 24.5137 68.751)"/><path d="m0 0h2.83046v2.83046h-2.83046z" transform="matrix(.866025 .5 -.00000002 1 30.3349 72.114)"/><path d="m0 0h2.83046v2.83046h-2.83046z" transform="matrix(.866025 .5 -.00000002 1 36.1561 75.4751)"/><path d="m0 0h2.83046v2.83046h-2.83046z" transform="matrix(.866025 .5 -.00000002 1 41.9772 78.8364)"/><path d="m0 0h2.83046v2.83046h-2.83046z" transform="matrix(.866025 .5 -.00000002 1 24.5137 74.3657)"/><path d="m0 0h2.83046v2.83046h-2.83046z" transform="matrix(.866025 .5 -.00000002 1 30.334 77.7275)"/><path d="m0 0h2.83046v2.83046h-2.83046z" transform="matrix(.866025 .5 -.00000002 1 36.1561 81.0898)"/><path d="m0 0h2.83046v2.83046h-2.83046z" transform="matrix(.866025 .5 -.00000002 1 41.9766 84.4502)"/><path d="m0 0h2.83046v2.83046h-2.83046z" transform="matrix(.866025 .5 -.00000002 1 24.5137 79.9797)"/><path d="m0 0h2.83046v2.83046h-2.83046z" transform="matrix(.866025 .5 -.00000002 1 30.3349 83.3418)"/><path d="m0 0h2.83046v2.83046h-2.83046z" transform="matrix(.866025 .5 -.00000002 1 36.1561 86.7029)"/><path d="m0 0h2.83046v2.83046h-2.83046z" transform="matrix(.866025 .5 -.00000002 1 41.9772 90.0642)"/><path d="m0 0h2.83046v2.83046h-2.83046z" transform="matrix(.866025 .5 -.00000002 1 24.5137 85.5935)"/><path d="m0 0h2.83046v2.83046h-2.83046z" transform="matrix(.866025 .5 -.00000002 1 30.3349 88.9548)"/><path d="m0 0h2.83046v2.83046h-2.83046z" transform="matrix(.866025 .5 -.00000002 1 36.1561 92.3162)"/><path d="m0 0h2.83046v2.83046h-2.83046z" transform="matrix(.866025 .5 -.00000002 1 41.9772 95.6772)"/><path d="m0 0h2.83046v2.83046h-2.83046z" transform="matrix(.866025 .5 -.00000002 1 24.5137 91.2075)"/><path d="m0 0h2.83046v2.83046h-2.83046z" transform="matrix(.866025 .5 -.00000002 1 30.3349 94.5679)"/><path d="m0 0h2.83046v2.83046h-2.83046z" transform="matrix(.866025 .5 -.00000002 1 36.1561 97.9309)"/><path d="m0 0h2.83046v2.83046h-2.83046z" transform="matrix(.866025 .5 -.00000002 1 41.9772 101.292)"/></g><g fill="#1c133f"><path d="m0 0h2.83046v2.83046h-2.83046z" transform="matrix(.866025 -.5 .00000002 1 51.6571 81.1003)"/><path d="m0 0h2.83046v2.83046h-2.83046z" transform="matrix(.866025 -.5 .00000002 1 57.4781 77.7405)"/><path d="m0 0h2.83046v2.83046h-2.83046z" transform="matrix(.866025 -.5 .00000002 1 63.301 74.3774)"/><path d="m0 0h2.83046v2.83046h-2.83046z" transform="matrix(.866025 -.5 .00000002 1 69.1238 71.0171)"/><path d="m0 0h2.83046v2.83046h-2.83046z" transform="matrix(.866025 -.5 .00000002 1 51.657 86.7148)"/><path d="m0 0h2.83046v2.83046h-2.83046z" transform="matrix(.866025 -.5 .00000002 1 57.4781 83.3535)"/><path d="m0 0h2.83046v2.83046h-2.83046z" transform="matrix(.866025 -.5 .00000002 1 63.301 79.9929)"/><path d="m0 0h2.83046v2.83046h-2.83046z" transform="matrix(.866025 -.5 .00000002 1 69.1238 76.6318)"/><path d="m0 0h2.83046v2.83046h-2.83046z" transform="matrix(.866025 -.5 .00000002 1 51.657 92.3293)"/><path d="m0 0h2.83046v2.83046h-2.83046z" transform="matrix(.866025 -.5 .00000002 1 57.4781 88.9673)"/><path d="m0 0h2.83046v2.83046h-2.83046z" transform="matrix(.866025 -.5 .00000002 1 63.301 85.6062)"/><path d="m0 0h2.83046v2.83046h-2.83046z" transform="matrix(.866025 -.5 .00000002 1 69.1238 82.2449)"/><path d="m0 0h2.83046v2.83046h-2.83046z" transform="matrix(.866025 -.5 .00000002 1 51.657 97.9426)"/><path d="m0 0h2.83046v2.83046h-2.83046z" transform="matrix(.866025 -.5 .00000002 1 57.4773 94.5806)"/><path d="m0 0h2.83046v2.83046h-2.83046z" transform="matrix(.866025 -.5 .00000002 1 63.301 91.2207)"/><path d="m0 0h2.83046v2.83046h-2.83046z" transform="matrix(.866025 -.5 .00000002 1 69.1238 87.8596)"/><path d="m0 0h2.83046v2.83046h-2.83046z" transform="matrix(.866025 -.5 .00000002 1 51.657 103.557)"/><path d="m0 0h2.83046v2.83046h-2.83046z" transform="matrix(.866025 -.5 .00000002 1 57.4781 100.196)"/><path d="m0 0h2.83046v2.83046h-2.83046z" transform="matrix(.866025 -.5 .00000002 1 63.301 96.8347)"/><path d="m0 0h2.83046v2.83046h-2.83046z" transform="matrix(.866025 -.5 .00000002 1 69.1238 93.4727)"/><path d="m0 0h2.83046v2.83046h-2.83046z" transform="matrix(.866025 -.5 .00000002 1 26.8112 32.7751)"/><path d="m0 0h2.83046v2.83046h-2.83046z" transform="matrix(.866025 -.5 .00000002 1 32.6335 29.4143)"/><path d="m0 0h2.83046v2.83046h-2.83046z" transform="matrix(.866025 -.5 .00000002 1 38.4554 26.0522)"/><path d="m0 0h2.83046v2.83046h-2.83046z" transform="matrix(.866025 -.5 .00000002 1 44.2749 22.6912)"/><path d="m0 0h2.83046v2.83046h-2.83046z" transform="matrix(.866025 -.5 .00000002 1 26.8115 38.3879)"/><path d="m0 0h2.83046v2.83046h-2.83046z" transform="matrix(.866025 -.5 .00000002 1 32.6335 35.0276)"/><path d="m0 0h2.83046v2.83046h-2.83046z" transform="matrix(.866025 -.5 .00000002 1 38.4554 31.667)"/><path d="m0 0h2.83046v2.83046h-2.83046z" transform="matrix(.866025 -.5 .00000002 1 44.2749 28.3042)"/><path d="m0 0h2.83046v2.83046h-2.83046z" transform="matrix(.866025 -.5 .00000002 1 26.8115 44.0027)"/><path d="m0 0h2.83046v2.83046h-2.83046z" transform="matrix(.866025 -.5 .00000002 1 32.6335 40.6409)"/><path d="m0 0h2.83046v2.83046h-2.83046z" transform="matrix(.866025 -.5 .00000002 1 38.4554 37.28)"/><path d="m0 0h2.83046v2.83046h-2.83046z" transform="matrix(.866025 -.5 .00000002 1 44.2741 33.9182)"/><path d="m0 0h2.83046v2.83046h-2.83046z" transform="matrix(.866025 -.5 .00000002 1 26.8115 49.6157)"/><path d="m0 0h2.83046v2.83046h-2.83046z" transform="matrix(.866025 -.5 .00000002 1 32.6335 46.2542)"/><path d="m0 0h2.83046v2.83046h-2.83046z" transform="matrix(.866025 -.5 .00000002 1 38.4554 42.8933)"/><path d="m0 0h2.83046v2.83046h-2.83046z" transform="matrix(.866025 -.5 .00000002 1 44.2749 39.532)"/><path d="m0 0h2.83046v2.83046h-2.83046z" transform="matrix(.866025 -.5 .00000002 1 26.8115 55.2305)"/><path d="m0 0h2.83046v2.83046h-2.83046z" transform="matrix(.866025 -.5 .00000002 1 32.6335 51.8694)"/><path d="m0 0h2.83046v2.83046h-2.83046z" transform="matrix(.866025 -.5 .00000002 1 38.4554 48.5081)"/><path d="m0 0h2.83046v2.83046h-2.83046z" transform="matrix(.866025 -.5 .00000002 1 44.2749 45.1458)"/></g></svg>