<svg fill="none" height="222" viewBox="0 0 175 222" width="175" xmlns="http://www.w3.org/2000/svg"><path d="m0 0h100.351v100.665h-100.351z" fill="#89e5d3" transform="matrix(.86512 -.501566 .00000002 1 87.4883 121.312)"/><path d="m0 0h100.351v100.665h-100.351z" fill="#d5f6f0" transform="matrix(.86512 .501566 -.00000002 1 .789062 70.9805)"/><path d="m0 0h100.351v100.351h-100.351z" fill="#eafaf7" transform="matrix(.86512 -.501566 .86512 .501566 .671875 70.9805)"/><path d="m0 0h21.6975v100.351h-21.6975z" fill="#0096a2" transform="matrix(.86512 -.501566 .86512 .501566 34.6953 51.2559)"/><path d="m0 0h21.6975v100.351h-21.6975z" fill="#0096a2" transform="matrix(.86512 .501566 -.86512 .501566 121.512 40.373)"/><path d="m0 0h21.6975v100.665h-21.6975z" fill="#002f33" transform="matrix(.86512 -.501566 .00000002 1 121.51 101.588)"/><path d="m0 0h21.6975v100.665h-21.6975z" fill="#005e66" transform="matrix(.86512 .501566 -.00000002 1 34.6934 90.7051)"/><path d="m0 0h34.3463v78.3997h-34.3463z" fill="#005e66" transform="matrix(.97365 -.228048 .571777 .820409 22.0938 7.85547)"/><path d="m0 0h34.3463v78.3997h-34.3463z" fill="#0096a2" transform="matrix(-.97365 -.228048 -.571777 .820409 145.459 16.4004)"/></svg>