<svg fill="none" height="103" viewBox="0 0 81 103" width="81" xmlns="http://www.w3.org/2000/svg"><path d="m0 0h46.2766v46.4215h-46.2766z" fill="#1c133f" transform="matrix(.86512 -.501566 .00000002 1 40.4648 55.9316)"/><path d="m0 0h46.2766v46.4215h-46.2766z" fill="#3e0dff" transform="matrix(.86512 .501566 -.00000002 1 .484375 32.7227)"/><path d="m0 0h46.2766v46.2766h-46.2766z" fill="#714eff" transform="matrix(.86512 -.501566 .86512 .501566 .429688 32.7227)"/><path d="m0 0h10.0058v46.2766h-10.0058z" fill="#f8f7ff" transform="matrix(.86512 -.501566 .86512 .501566 16.1191 23.627)"/><path d="m0 0h10.0058v46.2766h-10.0058z" fill="#f8f7ff" transform="matrix(.86512 .501566 -.86512 .501566 56.1543 18.6074)"/><path d="m0 0h10.0058v46.4215h-10.0058z" fill="#b29fff" transform="matrix(.86512 -.501566 .00000002 1 56.1543 46.8359)"/><path d="m0 0h10.0058v46.4215h-10.0058z" fill="#e6dfff" transform="matrix(.86512 .501566 -.00000002 1 16.1191 41.8184)"/><path d="m0 0h15.8387v36.1538h-15.8387z" fill="#e6dfff" transform="matrix(.97365 -.228048 .571777 .820409 10.3086 3.61133)"/><path d="m0 0h15.8387v36.1538h-15.8387z" fill="#f8f7ff" transform="matrix(-.97365 -.228048 -.571777 .820409 67.1973 7.55273)"/></svg>