<svg fill="none" height="512" viewBox="0 0 241 512" width="241" xmlns="http://www.w3.org/2000/svg"><path d="m54.8877 94.7575c0 7.2465 2.2646 13.9645 6.1248 19.4845h-.0978l59.8703 79.593 59.871-79.593h-.099c3.861-5.52 6.125-12.238 6.125-19.4845 0-18.7991-15.239-34.0388-34.038-34.0388-14.571 0-27.003 9.1549-31.859 22.0263-4.856-12.8714-17.288-22.0263-31.8585-22.0263-18.7991 0-34.0388 15.2397-34.0388 34.0388z" fill="#ef6f6c"/><g stroke="#000"><path d="m118.936 275.185s-6.364-14.091-5.268-23.389c1.23-10.424 12.793-13.1 12.871-23.596.06-8.2-7.603-19.573-7.603-19.573" stroke-width="3.69766"/><g stroke-width="2.92129"><path d="m122.323.167969v19.909431"/><path d="m240.498 122.495h-19.826"/><path d="m20.3245 122.495h-19.826526"/><path d="m0-1.46064h19.868" transform="matrix(-.705628 .708583 -.705628 -.708583 218.464 22.2964)"/><path d="m0-1.46064h19.868" transform="matrix(-.70563 .70858 -.70563 -.70858 36.5537 205.698)"/><path d="m0-1.46064h19.868" transform="matrix(-.705628 -.708583 .705628 -.708583 218.464 219.777)"/><path d="m0-1.46064h19.868" transform="matrix(-.70563 -.70858 .70563 -.70858 36.5537 36.3748)"/></g></g><path d="m23.6378 377.535 62.5689-78.577 114.8013 134.3-62.569 78.576z" fill="#89e5d3"/><path d="m23.6382 377.532h120.886v176.679h-120.886z" fill="#005e66" transform="matrix(.76013159 -.64976916 .64976916 .76013159 -239.638594 105.917374)"/><path d="m152.903 394.146c.12 2.261-1.351 5.28-6.409 9.876-6.338 5.762-14.269 7.591-20.826 9.101.024-.012.045-.024.07-.036-14.084 3.663-20.924 10.355-17.683 14.46 1.554 1.969 2.709 2.927 5.148 4.155 9.645 4.853 21.859 3.25 31.074-4.067 9.707-7.707 13.191-20.324 9.576-31.191-.324-.973-.559-1.681-.729-2.19-.333-1.006-.242-.499-.221-.108z" fill="#0096a2"/><path d="m114.608 411.445c13.171-7.684 17.261-15.049 18.953-17.533-.022.031-.044.062-.07.096-1.261 1.716-6.011 7.521-11.297 9.661-.544.22-1.093.405-1.645.539-5.18 1.257-11.53 1.294-17.717 4.108-4.7961 2.181-5.0676 6.025-3.4249 7.221 2.0089 1.464 6.6739.883 15.2009-4.092z" fill="#0096a2"/><path d="m133.56 393.914c.102-.141.178-.25.218-.315-.066.09-.143.205-.218.315z" fill="#00a1ac"/><path d="m108.804 400.489c2.598-1.839 5.269-4.193 7.405-6.207.008-.006.015-.014.023-.021.23-.216.467-.443.705-.669.202-.195.399-.385.589-.569.052-.052.106-.104.159-.155.269-.264.523-.514.76-.751.162-.161.323-.323.487-.487.126-.127.244-.247.357-.362.233-.238.439-.449.61-.626.142-.148.253-.264.347-.362.164-.172.26-.275.26-.275-1.981 2.073-3.864 3.57-6.565 4.921-.853.426-1.783.838-2.83 1.249-3.567 1.399-7.626.748-11.08 2.878-3.4552 2.13-2.4064 4.771-.5259 5.287 1.8799.515 3.6359.157 9.2989-3.851z" fill="#0096a2"/><g fill="#89e5d3"><path d="m113.145 394.002c2.701-1.351 4.585-2.849 6.565-4.921 0 0-.097.102-.26.274 3.905-4.071 7.664-8.588 8.139-10.576.641-2.683-1.492-3.762-4.032-1.845-2.539 1.917-4.88 6.712-6.135 10.027-.702 1.853-2.065 4.379-4.277 7.041z"/><path d="m115.748 378.17c-2.726-.388-5.314 5.534-7.943 8.657-1.762 2.094-4.226 2.988-6.23 3.805-2.484 1.012-1.075 4.053 1.394 1.772 2.046-1.89 4.958-3.918 7.853-5.843 5.095-3.389 7.652-8.003 4.926-8.391z"/><path d="m121.403 402.751c5.286-2.14 10.037-7.945 11.297-9.661.514-.743 1.004-1.5 1.459-2.271 5.113-8.686 4.995-13.061 1.655-13.099-4.178-.046-5.905 9.086-8.224 15.1-1.423 3.691-3.595 7.007-6.187 9.931z"/><path d="m136.461 394.161c-7.152 8.674-2.628 13.662-11.52 17.993-.025.012-.045.024-.07.036 6.557-1.509 14.487-3.339 20.827-9.1 5.932-5.392 6.929-8.612 6.214-10.985-.211-.699-.563-1.328-.99-1.912-2.152-2.947-8.622-3.114-14.461 3.968z"/></g></svg>