<svg width="638" height="805" fill="none" xmlns="http://www.w3.org/2000/svg" viewBox="0 0 200 650">
  <path d="M170.522 503.398a5.58 5.58 0 100-11.16 5.58 5.58 0 000 11.16zM164.057 528.375a2.587 2.587 0 01-2.587-2.587v-18.139a3.234 3.234 0 013.233-3.233h1.94v.065c.209-.043.425-.065.646-.065h6.466c.239 0 .472.026.697.075v-.075h1.94a3.233 3.233 0 013.232 3.233v18.139a2.586 2.586 0 01-2.586 2.587l-.05-.001v15.519a2.586 2.586 0 01-5.172 0v-15.518h-2.587v15.518a2.586 2.586 0 01-5.172 0v-15.518zM379.677 297.788a5.58 5.58 0 100-11.159 5.58 5.58 0 000 11.159zM373.211 322.765a2.586 2.586 0 01-2.586-2.587v-18.139a3.232 3.232 0 013.232-3.233h1.94v.065c.209-.043.425-.065.647-.065h6.466c.239 0 .472.026.696.075v-.075h1.94a3.233 3.233 0 013.233 3.233v18.139a2.587 2.587 0 01-2.587 2.587l-.049-.001v15.519a2.586 2.586 0 01-5.173 0v-15.518h-2.586v15.518a2.586 2.586 0 01-5.173 0v-15.518zM396.923 612.354a5.58 5.58 0 100-11.159 5.58 5.58 0 000 11.159zM390.457 637.331a2.586 2.586 0 01-2.586-2.586v-18.14a3.233 3.233 0 013.233-3.233h1.939v.065c.209-.042.425-.065.647-.065h6.466c.239 0 .472.026.696.076v-.076h1.94a3.234 3.234 0 013.233 3.233v18.14a2.586 2.586 0 01-2.586 2.586l-.05-.001v15.519a2.586 2.586 0 01-5.173 0v-15.518h-2.586v15.518a2.586 2.586 0 01-5.173 0v-15.518zM279.189 646.038a5.58 5.58 0 100-11.16 5.58 5.58 0 000 11.16zM272.724 671.015a2.587 2.587 0 01-2.587-2.587v-18.139a3.234 3.234 0 013.233-3.233h1.94v.065c.209-.042.425-.065.646-.065h6.466c.239 0 .472.026.697.075v-.075h1.94a3.233 3.233 0 013.232 3.233v18.139a2.586 2.586 0 01-2.586 2.587l-.05-.001v15.519a2.586 2.586 0 01-5.172 0v-15.518h-2.587v15.518a2.586 2.586 0 01-5.172 0v-15.518z" fill="#B29FFF"/>
  <path d="M470.288 311.012a5.58 5.58 0 100-11.159 5.58 5.58 0 000 11.159zM463.822 335.989a2.586 2.586 0 01-2.586-2.586v-18.139a3.232 3.232 0 013.233-3.233h1.94v.064c.208-.042.425-.064.646-.064h6.466c.239 0 .472.026.696.075v-.075h1.94a3.232 3.232 0 013.233 3.233v18.139a2.586 2.586 0 01-2.586 2.586h-.05v15.518a2.586 2.586 0 11-5.173 0v-15.518h-2.586v15.518a2.586 2.586 0 11-5.173 0v-15.518zM492.394 620.994a5.615 5.615 0 11-11.23 0 5.615 5.615 0 0111.23 0z" fill="#F8F7FF"/>
  <path fill-rule="evenodd" clip-rule="evenodd" d="M494.238 651.078c-.18.06-.374.096-.577.102v16.622a2.385 2.385 0 11-4.77 0V651.181h-3.23v16.575a2.385 2.385 0 01-4.77 0v-16.575h-.581c-.251 0-.489-.045-.706-.127a1.886 1.886 0 01-2.567-1.76v-18.826c-.397-1.238.515-2.601 1.91-2.601h15.752c.366 0 .7.095.985.257.626.307 1.058.95 1.058 1.695v19.475a1.887 1.887 0 01-2.504 1.784zm-2.907-11.644c.075-.088.142-.182.201-.281l1.436-2.429v6.275l-1.575-3.443a1.997 1.997 0 00-.062-.122zm-8.942-.228l-1.579-2.544v6.507l1.607-3.591c.03-.066.062-.13.099-.192a1.882 1.882 0 01-.127-.18z" fill="#F8F7FF"/>
  <path d="M369.801 659.262a5.58 5.58 0 100-11.159 5.58 5.58 0 000 11.159zM363.335 684.239a2.586 2.586 0 01-2.586-2.586v-18.139a3.232 3.232 0 013.232-3.233h1.94v.065c.209-.043.425-.065.647-.065h6.466c.239 0 .472.026.696.075v-.075h1.94a3.233 3.233 0 013.233 3.233v18.139a2.586 2.586 0 01-2.587 2.586h-.049v15.518a2.587 2.587 0 11-5.173 0v-15.518h-2.586v15.518a2.587 2.587 0 11-5.173 0v-15.518zM301.097 550.354a5.615 5.615 0 11-11.23 0 5.615 5.615 0 0111.23 0z" fill="#F8F7FF"/>
  <path fill-rule="evenodd" clip-rule="evenodd" d="M302.941 580.437c-.18.06-.374.096-.577.102V597.162a2.385 2.385 0 01-4.77 0V580.54h-3.23v16.575a2.385 2.385 0 01-4.77 0V580.54h-.58c-.252 0-.49-.045-.707-.127a1.886 1.886 0 01-2.567-1.76v-18.826c-.397-1.238.515-2.6 1.91-2.6h15.752c.366 0 .7.094.985.256.627.307 1.058.95 1.058 1.695v19.475a1.887 1.887 0 01-2.504 1.784zm-2.906-11.644c.074-.088.142-.182.2-.281l1.436-2.429v6.275l-1.575-3.442a2.345 2.345 0 00-.061-.123zm-8.943-.228l-1.579-2.544v6.507l1.607-3.591c.03-.065.063-.129.099-.191a2.032 2.032 0 01-.127-.181z" fill="#F8F7FF"/>
  <path d="M506.426 348.719a5.58 5.58 0 100-11.159 5.58 5.58 0 000 11.159zM499.96 373.696a2.586 2.586 0 01-2.586-2.586v-18.139a3.232 3.232 0 013.232-3.233h1.94v.064c.209-.042.425-.064.647-.064h6.466c.239 0 .472.026.696.075v-.075h1.94a3.233 3.233 0 013.233 3.233v18.139a2.586 2.586 0 01-2.587 2.586h-.049v15.518a2.587 2.587 0 11-5.173 0v-15.518h-2.586v15.518a2.587 2.587 0 11-5.173 0v-15.518z" fill="#B29FFF"/>
  <path d="M413.511 690.915a5.615 5.615 0 11-11.23 0 5.615 5.615 0 0111.23 0z" fill="#F8F7FF"/>
  <path fill-rule="evenodd" clip-rule="evenodd" d="M415.356 720.998c-.181.06-.374.096-.578.102v16.623a2.385 2.385 0 01-4.77 0v-16.622h-3.23v16.575a2.385 2.385 0 01-4.77 0v-16.575h-.58a1.99 1.99 0 01-.706-.127 1.887 1.887 0 01-2.568-1.76v-18.825c-.397-1.239.516-2.601 1.91-2.601h15.752c.367 0 .7.094.986.256a1.887 1.887 0 011.057 1.695v19.475a1.887 1.887 0 01-2.503 1.784zm-2.907-11.644c.075-.088.142-.182.201-.281l1.436-2.429v6.276l-1.576-3.443a1.758 1.758 0 00-.061-.123zm-8.942-.228l-1.579-2.544v6.507l1.607-3.59c.029-.066.062-.13.098-.192a1.886 1.886 0 01-.126-.181z" fill="#F8F7FF"/>
  <path d="M195.593 416.784a5.58 5.58 0 100-11.159 5.58 5.58 0 000 11.159zM189.127 441.761a2.586 2.586 0 01-2.586-2.586v-18.139a3.232 3.232 0 013.232-3.233h1.94v.065c.209-.043.425-.065.647-.065h6.466c.239 0 .472.026.696.075v-.075h1.94a3.233 3.233 0 013.233 3.233v18.139a2.586 2.586 0 01-2.587 2.586h-.049v15.518a2.587 2.587 0 11-5.173 0v-15.518H194.3v15.518a2.587 2.587 0 11-5.173 0v-15.518z" fill="#F8F7FF"/>
  <path d="M410.166 204.418a5.615 5.615 0 11-11.23 0 5.615 5.615 0 0111.23 0z" fill="#E6DFFF"/>
  <path fill-rule="evenodd" clip-rule="evenodd" d="M412.01 234.501c-.18.061-.374.096-.577.103v16.622a2.385 2.385 0 01-4.77 0v-16.622h-3.23v16.575a2.385 2.385 0 11-4.77 0v-16.575h-.58c-.252 0-.489-.045-.707-.126a1.886 1.886 0 01-2.567-1.76v-18.826c-.397-1.239.515-2.601 1.91-2.601h15.752c.366 0 .7.095.985.256a1.887 1.887 0 011.058 1.696v19.475a1.886 1.886 0 01-2.504 1.783zm-2.906-11.643c.074-.088.142-.182.2-.281l1.436-2.429v6.275l-1.575-3.443a2.774 2.774 0 00-.061-.122zm-8.943-.228l-1.579-2.544v6.507l1.607-3.591c.03-.066.063-.13.099-.192a2.017 2.017 0 01-.127-.18z" fill="#E6DFFF"/>
  <path d="M428.345 519.565a5.615 5.615 0 11-11.23 0 5.615 5.615 0 0111.23 0z" fill="#B29FFF"/>
  <path fill-rule="evenodd" clip-rule="evenodd" d="M430.189 549.648c-.18.06-.374.096-.577.102v16.623a2.385 2.385 0 01-4.77 0v-16.622h-3.23v16.575a2.385 2.385 0 01-4.77 0v-16.575h-.58c-.252 0-.49-.045-.707-.127a1.887 1.887 0 01-2.567-1.76v-18.826c-.397-1.238.515-2.6 1.91-2.6h15.752c.366 0 .7.094.985.256a1.886 1.886 0 011.058 1.695v19.475a1.887 1.887 0 01-2.504 1.784zm-2.906-11.644c.074-.088.142-.182.2-.281l1.436-2.429v6.275l-1.575-3.442a2.345 2.345 0 00-.061-.123zm-8.943-.228l-1.579-2.544v6.507l1.607-3.591c.03-.065.063-.129.099-.191a1.896 1.896 0 01-.127-.181z" fill="#B29FFF"/>
  <path d="M565.986 707.725a5.58 5.58 0 10.001-11.159 5.58 5.58 0 00-.001 11.159zM559.521 732.702a2.586 2.586 0 01-2.587-2.586v-18.139a3.233 3.233 0 013.233-3.233h1.94v.064c.209-.042.425-.064.646-.064h6.466c.239 0 .472.026.697.075v-.075h1.94a3.232 3.232 0 013.232 3.233v18.139a2.586 2.586 0 01-2.586 2.586h-.05v15.518a2.586 2.586 0 11-5.172 0v-15.518h-2.587v15.518a2.586 2.586 0 11-5.172 0v-15.518z" fill="#F8F7FF"/>
  <path d="M320.796 567.294a5.615 5.615 0 11-11.23 0 5.615 5.615 0 0111.23 0z" fill="#3E0DFF"/>
  <path fill-rule="evenodd" clip-rule="evenodd" d="M322.641 597.377a1.985 1.985 0 01-.578.102v16.623a2.385 2.385 0 01-4.77 0V597.48h-3.23v16.575a2.385 2.385 0 11-4.77 0V597.48h-.58c-.252 0-.489-.045-.706-.126a1.886 1.886 0 01-2.568-1.76v-18.826c-.396-1.239.516-2.601 1.91-2.601h15.752c.367 0 .7.095.986.256a1.888 1.888 0 011.057 1.696v19.475a1.885 1.885 0 01-2.503 1.783zm-2.907-11.643c.075-.088.142-.182.201-.281l1.436-2.429v6.275l-1.576-3.443a1.982 1.982 0 00-.061-.122zm-8.942-.228l-1.579-2.544v6.506l1.607-3.59c.029-.066.062-.13.098-.192a2.233 2.233 0 01-.126-.18z" fill="#3E0DFF"/>
  <path d="M532.833 310.482a5.614 5.614 0 01-5.615 5.615 5.614 5.614 0 01-5.615-5.615 5.614 5.614 0 1111.23 0z" fill="#3E0DFF"/>
  <path fill-rule="evenodd" clip-rule="evenodd" d="M534.677 340.566c-.18.06-.374.096-.577.102v16.622a2.385 2.385 0 11-4.77 0V340.669h-3.23v16.575a2.385 2.385 0 01-4.77 0v-16.575h-.581c-.251 0-.489-.045-.706-.127a1.886 1.886 0 01-2.567-1.76v-18.826c-.397-1.238.515-2.601 1.91-2.601h15.751c.367 0 .701.095.986.257.626.307 1.058.95 1.058 1.695v19.475a1.887 1.887 0 01-2.504 1.784zm-2.907-11.644c.075-.088.142-.182.201-.281l1.436-2.429v6.275l-1.575-3.443a1.997 1.997 0 00-.062-.122zm-8.942-.228l-1.579-2.544v6.507l1.607-3.591a1.74 1.74 0 01.099-.192 1.882 1.882 0 01-.127-.18z" fill="#3E0DFF"/>
  <path d="M433.106 658.477a5.615 5.615 0 11-11.23 0 5.615 5.615 0 0111.23 0z" fill="#B29FFF"/>
  <path fill-rule="evenodd" clip-rule="evenodd" d="M434.95 688.56c-.18.061-.374.096-.577.102v16.623a2.385 2.385 0 01-4.77 0v-16.622h-3.23v16.575a2.385 2.385 0 01-4.77 0v-16.575h-.58c-.252 0-.49-.045-.707-.126a1.886 1.886 0 01-2.567-1.76v-18.826c-.397-1.239.515-2.601 1.91-2.601h15.752c.366 0 .7.095.985.256a1.887 1.887 0 011.058 1.696v19.475a1.886 1.886 0 01-2.504 1.783zm-2.906-11.644c.074-.087.142-.181.2-.281l1.436-2.429v6.276l-1.575-3.443c-.019-.042-.04-.082-.061-.123zm-8.943-.227l-1.579-2.544v6.506l1.607-3.59c.03-.066.063-.13.099-.192a2.017 2.017 0 01-.127-.18z" fill="#B29FFF"/>
  <path d="M410.268 464.833a5.58 5.58 0 10.001-11.159 5.58 5.58 0 00-.001 11.159zM403.803 489.81a2.586 2.586 0 01-2.587-2.586v-18.139a3.233 3.233 0 013.233-3.233h1.94v.065c.209-.043.425-.065.647-.065h6.465c.24 0 .473.026.697.075v-.075h1.94a3.233 3.233 0 013.233 3.233v18.139a2.586 2.586 0 01-2.587 2.586h-.05v15.518a2.586 2.586 0 11-5.172 0V489.81h-2.587v15.518a2.586 2.586 0 11-5.172 0V489.81z" fill="#3E0DFF"/>
  <path d="M611.283 260.135a5.58 5.58 0 10.001-11.159 5.58 5.58 0 00-.001 11.159zM604.817 285.112a2.586 2.586 0 01-2.586-2.586v-18.139a3.233 3.233 0 013.233-3.233h1.94v.064c.209-.042.425-.064.646-.064h6.466c.239 0 .472.026.697.075v-.075h1.939a3.232 3.232 0 013.233 3.233v18.139a2.586 2.586 0 01-2.586 2.586h-.05v15.518a2.586 2.586 0 11-5.173 0v-15.518h-2.586v15.518a2.586 2.586 0 11-5.173 0v-15.518zM628.529 574.702a5.58 5.58 0 100-11.16 5.58 5.58 0 000 11.16zM622.064 599.679a2.587 2.587 0 01-2.587-2.587v-18.139a3.234 3.234 0 013.233-3.233h1.94v.065c.209-.043.425-.065.646-.065h6.466c.239 0 .472.026.697.075v-.075h1.94a3.233 3.233 0 013.232 3.233v18.139a2.586 2.586 0 01-2.586 2.587l-.05-.001v15.519a2.586 2.586 0 01-5.172 0v-15.518h-2.587v15.518a2.586 2.586 0 01-5.172 0v-15.518z" fill="#714EFF"/>
  <path d="M210.722 374.53a5.58 5.58 0 100-11.159 5.58 5.58 0 000 11.159zM204.256 399.507a2.586 2.586 0 01-2.587-2.586v-18.14a3.234 3.234 0 013.233-3.233h1.94v.065c.209-.042.425-.065.647-.065h6.466c.239 0 .472.026.696.076v-.076h1.94a3.234 3.234 0 013.233 3.233v18.14a2.586 2.586 0 01-2.587 2.586l-.05-.001v15.519a2.586 2.586 0 11-5.172 0v-15.518h-2.587v15.518a2.586 2.586 0 11-5.172 0v-15.518z" fill="#B29FFF"/>
  <path d="M430.373 161.553a5.614 5.614 0 11-11.23 0 5.615 5.615 0 0111.23 0z" fill="#3E0DFF"/>
  <path fill-rule="evenodd" clip-rule="evenodd" d="M432.217 191.637c-.18.06-.374.096-.577.102v16.622a2.385 2.385 0 11-4.77 0V191.74h-3.23v16.575a2.385 2.385 0 01-4.77 0V191.74h-.58c-.252 0-.489-.045-.707-.127a1.887 1.887 0 01-2.567-1.76v-18.826c-.397-1.238.515-2.6 1.91-2.6h15.752c.366 0 .7.094.985.256.627.307 1.058.95 1.058 1.695v19.475a1.887 1.887 0 01-2.504 1.784zm-2.906-11.644c.075-.088.142-.182.2-.281l1.437-2.429v6.275l-1.576-3.442a2.345 2.345 0 00-.061-.123zm-8.943-.228l-1.579-2.544v6.507l1.607-3.591c.03-.066.063-.129.099-.191a2.032 2.032 0 01-.127-.181z" fill="#3E0DFF"/>
  <path d="M449.369 478.359a5.615 5.615 0 11-11.23 0 5.615 5.615 0 0111.23 0z" fill="#B29FFF"/>
  <path fill-rule="evenodd" clip-rule="evenodd" d="M451.213 508.442c-.18.061-.374.097-.577.103v16.622a2.385 2.385 0 11-4.77 0V508.546h-3.23v16.575a2.385 2.385 0 01-4.77 0v-16.575h-.58c-.252 0-.49-.045-.707-.127a1.886 1.886 0 01-2.567-1.76v-18.826c-.397-1.238.515-2.601 1.91-2.601h15.752c.366 0 .7.095.985.257.627.307 1.058.95 1.058 1.695v19.475a1.887 1.887 0 01-2.504 1.783zm-2.907-11.643a1.97 1.97 0 00.201-.281l1.436-2.429v6.275l-1.575-3.443a1.997 1.997 0 00-.062-.122zm-8.942-.228l-1.579-2.544v6.507l1.607-3.591c.03-.066.063-.13.099-.192a1.882 1.882 0 01-.127-.18z" fill="#B29FFF"/>
  <path d="M323.469 518.221a5.58 5.58 0 100-11.159 5.58 5.58 0 000 11.159zM317.003 543.198a2.586 2.586 0 01-2.586-2.586v-18.139a3.232 3.232 0 013.232-3.233h1.94v.065c.209-.043.425-.065.647-.065h6.466c.239 0 .472.026.696.075v-.075h1.94a3.233 3.233 0 013.233 3.233v18.139a2.586 2.586 0 01-2.587 2.586h-.049v15.518a2.587 2.587 0 11-5.173 0v-15.518h-2.586v15.518a2.587 2.587 0 11-5.173 0v-15.518z" fill="#B29FFF"/>
  <path d="M96.216 523.917a5.58 5.58 0 100-11.158 5.58 5.58 0 000 11.158zM89.75 548.894a2.586 2.586 0 01-2.586-2.586v-18.139a3.233 3.233 0 013.233-3.233h1.94V525c.208-.042.424-.064.646-.064h6.466c.239 0 .472.026.696.075v-.075h1.94a3.233 3.233 0 013.233 3.233v18.139a2.586 2.586 0 01-2.587 2.586h-.049v15.518a2.587 2.587 0 11-5.173 0v-15.518h-2.586v15.518a2.587 2.587 0 11-5.173 0v-15.518z" fill="#3E0DFF"/>
  <path d="M312.623 311.616a5.615 5.615 0 11-11.23 0 5.615 5.615 0 0111.23 0z" fill="#B29FFF"/>
  <path fill-rule="evenodd" clip-rule="evenodd" d="M314.467 341.699c-.18.061-.374.096-.577.102v16.623a2.385 2.385 0 01-4.77 0v-16.622h-3.23v16.575a2.385 2.385 0 01-4.77 0v-16.575h-.581c-.251 0-.489-.045-.706-.126a1.886 1.886 0 01-2.567-1.761V321.09c-.397-1.239.515-2.601 1.91-2.601h15.752c.366 0 .7.094.985.256a1.888 1.888 0 011.058 1.695v19.475a1.887 1.887 0 01-2.504 1.784zm-2.907-11.644c.075-.087.142-.181.201-.281l1.436-2.429v6.276l-1.575-3.443a1.768 1.768 0 00-.062-.123zm-8.942-.228l-1.579-2.544v6.507l1.607-3.59c.03-.066.062-.13.099-.192a1.896 1.896 0 01-.127-.181z" fill="#B29FFF"/>
  <path d="M322.616 632.873a5.579 5.579 0 100-11.159 5.579 5.579 0 000 11.159zM316.15 657.85a2.586 2.586 0 01-2.586-2.586v-18.139a3.232 3.232 0 013.233-3.233h1.94v.065c.209-.043.425-.065.646-.065h6.466c.239 0 .472.026.697.075v-.075h1.939a3.232 3.232 0 013.233 3.233v18.139a2.586 2.586 0 01-2.586 2.586h-.05v15.519a2.586 2.586 0 11-5.173-.001V657.85h-2.586v15.519a2.586 2.586 0 11-5.173-.001V657.85z" fill="#B29FFF"/>
  <path d="M205.883 666.557a5.58 5.58 0 100-11.159 5.58 5.58 0 000 11.159zM199.417 691.534a2.586 2.586 0 01-2.586-2.586v-18.139a3.232 3.232 0 013.232-3.233h1.94v.064c.209-.042.425-.064.647-.064h6.466c.239 0 .472.026.696.075v-.075h1.94a3.233 3.233 0 013.233 3.233v18.139a2.586 2.586 0 01-2.587 2.586h-.049v15.518a2.587 2.587 0 11-5.173 0v-15.518h-2.586v15.518a2.587 2.587 0 11-5.173 0v-15.518z" fill="#3E0DFF"/>
  <path d="M263.429 272.779a5.58 5.58 0 100-11.159 5.58 5.58 0 000 11.159zM256.963 297.756a2.587 2.587 0 01-2.587-2.587V277.03a3.233 3.233 0 013.233-3.233h1.94v.065c.209-.043.425-.065.647-.065h6.466c.239 0 .472.026.696.075v-.075h1.94a3.233 3.233 0 013.233 3.233v18.139a2.587 2.587 0 01-2.587 2.587l-.05-.001v15.519a2.586 2.586 0 11-5.172 0v-15.518h-2.587v15.518a2.586 2.586 0 11-5.172 0v-15.518zM477.55 62.597a5.615 5.615 0 11-11.23 0 5.615 5.615 0 0111.23 0z" fill="#000"/>
  <path fill-rule="evenodd" clip-rule="evenodd" d="M479.394 92.68c-.18.06-.374.096-.577.102V109.405a2.385 2.385 0 01-4.77 0V92.783h-3.23v16.575a2.385 2.385 0 01-4.77 0V92.783h-.581c-.251 0-.489-.045-.706-.127a1.886 1.886 0 01-2.567-1.76V72.07c-.397-1.238.515-2.6 1.91-2.6h15.752c.366 0 .7.094.985.256.626.307 1.058.95 1.058 1.695v19.475a1.887 1.887 0 01-2.504 1.784zm-2.907-11.644c.075-.088.142-.182.201-.281l1.436-2.429v6.275l-1.575-3.442a1.881 1.881 0 00-.062-.123zm-8.942-.228l-1.579-2.544v6.507l1.607-3.59c.03-.066.062-.13.099-.192a1.928 1.928 0 01-.127-.18z" fill="#000"/>
  <path d="M489.828 381.735a5.58 5.58 0 100-11.159 5.58 5.58 0 000 11.159zM483.362 406.712a2.586 2.586 0 01-2.586-2.587v-18.139a3.233 3.233 0 013.233-3.233h1.94v.065c.208-.042.425-.065.646-.065h6.466c.239 0 .472.026.696.076v-.076h1.94a3.233 3.233 0 013.233 3.233v18.139a2.586 2.586 0 01-2.586 2.587l-.05-.001v15.519a2.586 2.586 0 01-5.173 0v-15.518h-2.586v15.518a2.586 2.586 0 01-5.173 0v-15.518zM372.096 415.419a5.58 5.58 0 100-11.159 5.58 5.58 0 000 11.159zM365.63 440.396a2.587 2.587 0 01-2.587-2.587V419.67a3.234 3.234 0 013.233-3.233h1.94v.065c.209-.043.425-.065.647-.065h6.466c.239 0 .472.026.696.075v-.075h1.94a3.234 3.234 0 013.233 3.233v18.139a2.587 2.587 0 01-2.587 2.587l-.05-.001v15.519a2.586 2.586 0 11-5.172 0v-15.518h-2.587v15.518a2.586 2.586 0 11-5.172 0v-15.518z" fill="#000"/>
  <path d="M270.694 393.609a5.615 5.615 0 11-11.23 0 5.615 5.615 0 0111.23 0z" fill="#E6DFFF"/>
  <path fill-rule="evenodd" clip-rule="evenodd" d="M272.539 423.692c-.18.06-.374.096-.578.102V440.417a2.385 2.385 0 11-4.77 0v-16.622h-3.23v16.575a2.385 2.385 0 11-4.77 0v-16.575h-.58a1.99 1.99 0 01-.706-.127 1.887 1.887 0 01-2.568-1.76v-18.826c-.396-1.238.516-2.6 1.91-2.6h15.752c.367 0 .701.094.986.256a1.887 1.887 0 011.057 1.695v19.475a1.886 1.886 0 01-2.503 1.784zm-2.907-11.644c.075-.088.142-.182.201-.281l1.436-2.429v6.275l-1.576-3.442a1.758 1.758 0 00-.061-.123zm-8.942-.228l-1.579-2.544v6.507l1.607-3.591c.029-.065.062-.129.098-.191a2.085 2.085 0 01-.126-.181z" fill="#E6DFFF"/>
  <path d="M472.157 194.678a5.579 5.579 0 100-11.157 5.579 5.579 0 000 11.157zM465.691 219.655a2.586 2.586 0 01-2.586-2.586V198.93a3.232 3.232 0 013.233-3.233h1.94v.064c.209-.042.425-.064.646-.064h6.466c.239 0 .472.026.697.075v-.075h1.939a3.232 3.232 0 013.233 3.233v18.139a2.586 2.586 0 01-2.586 2.586h-.05v15.518a2.586 2.586 0 11-5.173 0v-15.518h-2.586v15.518a2.586 2.586 0 11-5.173 0v-15.518z" fill="#3E0DFF"/>
  <path d="M470.184 442.685a5.615 5.615 0 11-11.23 0 5.615 5.615 0 0111.23 0z" fill="#E6DFFF"/>
  <path fill-rule="evenodd" clip-rule="evenodd" d="M472.029 472.768c-.181.06-.374.096-.578.102v16.623a2.385 2.385 0 01-4.77 0v-16.622h-3.23v16.575a2.385 2.385 0 01-4.77 0v-16.575h-.58a1.99 1.99 0 01-.706-.127 1.887 1.887 0 01-2.568-1.76v-18.825c-.397-1.239.516-2.601 1.91-2.601h15.752c.367 0 .7.094.986.256a1.887 1.887 0 011.057 1.695v19.475a1.886 1.886 0 01-2.503 1.784zm-2.907-11.644c.075-.087.142-.182.201-.281l1.436-2.429v6.276l-1.576-3.443a1.758 1.758 0 00-.061-.123zm-8.942-.228l-1.579-2.544v6.507l1.607-3.59c.029-.066.062-.13.098-.192a2.085 2.085 0 01-.126-.181z" fill="#E6DFFF"/>
  <path d="M371.67 542.928a5.58 5.58 0 100-11.159 5.58 5.58 0 000 11.159zM365.204 567.905a2.586 2.586 0 01-2.586-2.586V547.18a3.232 3.232 0 013.233-3.233h1.939v.065c.209-.043.426-.065.647-.065h6.466c.239 0 .472.026.696.075v-.075h1.94a3.232 3.232 0 013.233 3.233v18.139a2.586 2.586 0 01-2.586 2.586h-.05v15.518a2.587 2.587 0 11-5.173 0v-15.518h-2.586v15.518a2.587 2.587 0 11-5.173 0v-15.518zM608.018 345.428a5.58 5.58 0 100-11.159 5.58 5.58 0 000 11.159zM601.552 370.405a2.586 2.586 0 01-2.587-2.586V349.68a3.233 3.233 0 013.233-3.233h1.94v.064c.209-.042.425-.064.647-.064h6.466c.239 0 .472.026.696.075v-.075h1.94a3.233 3.233 0 013.233 3.233v18.139a2.586 2.586 0 01-2.587 2.586h-.05v15.518a2.586 2.586 0 11-5.172 0v-15.518h-2.587v15.518a2.586 2.586 0 11-5.172 0v-15.518zM625.264 659.995a5.58 5.58 0 100-11.159 5.58 5.58 0 000 11.159zM618.798 684.972a2.586 2.586 0 01-2.586-2.587v-18.139a3.233 3.233 0 013.232-3.233h1.94v.065c.209-.043.425-.065.647-.065h6.466c.239 0 .472.026.696.075v-.075h1.94a3.234 3.234 0 013.233 3.233v18.139a2.587 2.587 0 01-2.587 2.587l-.049-.001v15.519a2.586 2.586 0 01-5.173 0v-15.518h-2.586v15.518a2.586 2.586 0 01-5.173 0v-15.518zM511.664 688.17a5.615 5.615 0 11-11.23 0 5.615 5.615 0 0111.23 0z" fill="#E6DFFF"/>
  <path fill-rule="evenodd" clip-rule="evenodd" d="M513.508 718.253c-.18.06-.374.096-.577.102v16.623a2.385 2.385 0 01-4.77 0v-16.622h-3.23v16.575a2.385 2.385 0 01-4.77 0v-16.575h-.581c-.251 0-.489-.045-.706-.126a1.886 1.886 0 01-2.567-1.761v-18.825c-.397-1.239.515-2.601 1.91-2.601h15.752c.366 0 .7.094.985.256a1.888 1.888 0 011.058 1.695v19.475a1.887 1.887 0 01-2.504 1.784zm-2.907-11.644c.075-.087.142-.181.201-.281l1.436-2.429v6.276l-1.575-3.443a1.768 1.768 0 00-.062-.123zm-8.942-.228l-1.579-2.544v6.507l1.607-3.59c.03-.066.062-.13.099-.192a1.896 1.896 0 01-.127-.181z" fill="#E6DFFF"/>
  <path d="M515.504 11.159a5.58 5.58 0 100-11.159 5.58 5.58 0 000 11.159zM509.038 36.136a2.586 2.586 0 01-2.586-2.587V15.41a3.233 3.233 0 013.233-3.233h1.939v.065c.209-.043.425-.065.647-.065h6.466c.239 0 .472.026.696.075v-.075h1.94a3.233 3.233 0 013.233 3.233v18.14a2.586 2.586 0 01-2.636 2.585v15.519a2.586 2.586 0 01-5.173 0V36.136h-2.586v15.518a2.586 2.586 0 01-5.173 0V36.136zM532.75 325.725a5.58 5.58 0 100-11.159 5.58 5.58 0 000 11.159zM526.284 350.702a2.586 2.586 0 01-2.586-2.586v-18.14a3.232 3.232 0 013.233-3.232h1.939v.064c.209-.042.426-.064.647-.064h6.466c.239 0 .472.025.696.075v-.075h1.94a3.232 3.232 0 013.233 3.232v18.14a2.586 2.586 0 01-2.586 2.586h-.05v15.518a2.586 2.586 0 01-5.173 0v-15.518h-2.586v15.518a2.586 2.586 0 01-5.173 0v-15.518zM415.018 359.409a5.58 5.58 0 100-11.159 5.58 5.58 0 000 11.159zM408.552 384.386a2.586 2.586 0 01-2.587-2.586v-18.14a3.234 3.234 0 013.233-3.233h1.94v.065c.209-.042.425-.065.647-.065h6.465c.24 0 .473.026.697.076v-.076h1.94a3.234 3.234 0 013.233 3.233v18.14a2.586 2.586 0 01-2.587 2.586l-.05-.001v15.519a2.586 2.586 0 01-5.172 0v-15.518h-2.587v15.518a2.586 2.586 0 01-5.172 0v-15.518z" fill="#E6DFFF"/>
  <path d="M263.116 340.429a5.579 5.579 0 005.579-5.579 5.579 5.579 0 10-11.158 0 5.58 5.58 0 005.579 5.579zM256.65 365.406a2.586 2.586 0 01-2.586-2.586v-18.14a3.233 3.233 0 013.233-3.233h1.94v.065c.209-.042.425-.065.646-.065h6.466c.239 0 .472.026.697.076v-.076h1.939a3.233 3.233 0 013.233 3.233v18.14a2.586 2.586 0 01-2.586 2.586l-.05-.001v15.519a2.586 2.586 0 01-5.173 0v-15.518h-2.586v15.518a2.586 2.586 0 01-5.173 0v-15.518z" fill="#B29FFF"/>
  <path d="M478.165 131.369a5.615 5.615 0 11-11.23 0 5.615 5.615 0 0111.23 0z" fill="#3E0DFF"/>
  <path fill-rule="evenodd" clip-rule="evenodd" d="M480.009 161.452c-.18.061-.374.096-.577.102v16.623a2.385 2.385 0 01-4.77 0v-16.622h-3.23v16.575a2.385 2.385 0 01-4.77 0v-16.575h-.581c-.251 0-.489-.045-.706-.126a1.885 1.885 0 01-2.567-1.76v-18.826c-.397-1.239.515-2.601 1.91-2.601h15.752c.366 0 .7.095.985.256a1.888 1.888 0 011.058 1.696v19.475a1.886 1.886 0 01-2.504 1.783zm-2.907-11.643c.075-.088.142-.182.201-.282l1.436-2.429v6.276l-1.575-3.443a1.997 1.997 0 00-.062-.122zm-8.942-.228l-1.579-2.544v6.506l1.607-3.59c.03-.066.062-.13.099-.192a2.017 2.017 0 01-.127-.18z" fill="#3E0DFF"/>
  <path d="M489.516 449.385a5.58 5.58 0 100-11.159 5.58 5.58 0 000 11.159zM483.05 474.362a2.586 2.586 0 01-2.587-2.586v-18.139a3.233 3.233 0 013.233-3.233h1.94v.064c.209-.042.425-.064.647-.064h6.465c.24 0 .473.026.697.075v-.075h1.94a3.233 3.233 0 013.233 3.233v18.139a2.586 2.586 0 01-2.587 2.586h-.05v15.518a2.586 2.586 0 11-5.172 0v-15.518h-2.587v15.518a2.586 2.586 0 11-5.172 0v-15.518z" fill="#B29FFF"/>
  <path d="M371.783 483.069a5.579 5.579 0 005.579-5.579 5.579 5.579 0 10-11.158 0 5.58 5.58 0 005.579 5.579zM365.317 508.046a2.586 2.586 0 01-2.586-2.586v-18.14a3.232 3.232 0 013.233-3.232h1.94v.064c.209-.042.425-.064.646-.064h6.466c.239 0 .472.025.697.075v-.075h1.939a3.232 3.232 0 013.233 3.232v18.14a2.586 2.586 0 01-2.586 2.586h-.05v15.518a2.586 2.586 0 01-5.173 0v-15.518h-2.586v15.518a2.586 2.586 0 01-5.173 0v-15.518z" fill="#3E0DFF"/>
  <path d="M200.765 256.769a5.58 5.58 0 100-11.159 5.58 5.58 0 000 11.159zM194.299 281.746a2.587 2.587 0 01-2.587-2.587V261.02a3.234 3.234 0 013.233-3.233h1.94v.065c.209-.042.425-.065.647-.065h6.466c.239 0 .472.026.696.075v-.075h1.94a3.234 3.234 0 013.233 3.233v18.139a2.587 2.587 0 01-2.587 2.587l-.05-.001v15.519a2.586 2.586 0 01-5.172 0v-15.518h-2.587v15.518a2.586 2.586 0 01-5.172 0v-15.518zM409.919 51.159a5.58 5.58 0 100-11.159 5.58 5.58 0 000 11.159zM403.453 76.136a2.586 2.586 0 01-2.586-2.587V55.41a3.233 3.233 0 013.233-3.233h1.939v.065c.209-.043.426-.065.647-.065h6.466c.239 0 .472.026.696.075v-.075h1.94a3.233 3.233 0 013.233 3.233v18.14a2.586 2.586 0 01-2.636 2.585v15.519a2.586 2.586 0 01-5.173 0V76.136h-2.586v15.518a2.586 2.586 0 01-5.173 0V76.136zM427.165 365.725a5.58 5.58 0 100-11.159 5.58 5.58 0 000 11.159zM420.699 390.702a2.586 2.586 0 01-2.586-2.586v-18.14a3.232 3.232 0 013.233-3.232h1.939v.064c.209-.042.426-.064.647-.064h6.466c.239 0 .472.025.696.075v-.075h1.94a3.232 3.232 0 013.233 3.232v18.14a2.586 2.586 0 01-2.586 2.586h-.05v15.518a2.586 2.586 0 01-5.173 0v-15.518h-2.586v15.518a2.586 2.586 0 01-5.173 0v-15.518zM315.462 395.802a5.614 5.614 0 11-11.23 0 5.614 5.614 0 015.615-5.614 5.614 5.614 0 015.615 5.614z" fill="#B29FFF"/>
  <path fill-rule="evenodd" clip-rule="evenodd" d="M317.307 425.886c-.181.06-.374.096-.578.102V442.611a2.385 2.385 0 01-4.77 0v-16.622h-3.23v16.575a2.385 2.385 0 01-4.77 0v-16.575h-.58a1.99 1.99 0 01-.706-.127 1.887 1.887 0 01-2.568-1.76v-18.826c-.397-1.238.515-2.6 1.91-2.6h15.752c.366 0 .7.094.986.256.626.307 1.057.95 1.057 1.695v19.475a1.887 1.887 0 01-2.503 1.784zm-2.907-11.644c.075-.088.142-.182.201-.281l1.436-2.429v6.275l-1.576-3.442a1.758 1.758 0 00-.061-.123zm-8.942-.228l-1.58-2.544v6.507l1.607-3.591c.03-.065.063-.129.099-.191a2.02 2.02 0 01-.126-.181z" fill="#B29FFF"/>
  <path d="M343.772 362.835a5.58 5.58 0 10.001-11.159 5.58 5.58 0 00-.001 11.159zM337.307 387.812a2.586 2.586 0 01-2.587-2.586v-18.139a3.233 3.233 0 013.233-3.233h1.94v.064c.209-.042.425-.064.646-.064h6.466c.239 0 .472.026.697.075v-.075h1.94a3.232 3.232 0 013.232 3.233v18.139a2.586 2.586 0 01-2.586 2.586h-.05v15.518a2.586 2.586 0 11-5.172 0v-15.518h-2.587v15.518a2.586 2.586 0 11-5.172 0v-15.518zM553.926 157.225a5.58 5.58 0 100-11.159 5.58 5.58 0 000 11.159zM547.46 182.202a2.586 2.586 0 01-2.586-2.586v-18.14a3.232 3.232 0 013.232-3.232h1.94v.064c.209-.042.425-.064.647-.064h6.466c.239 0 .472.025.696.075v-.075h1.94a3.233 3.233 0 013.233 3.232v18.14a2.586 2.586 0 01-2.587 2.586h-.049v15.518a2.586 2.586 0 01-5.173 0v-15.518h-2.586v15.518a2.586 2.586 0 01-5.173 0v-15.518zM571.172 471.791a5.579 5.579 0 100-11.157 5.579 5.579 0 000 11.157zM564.706 496.768a2.586 2.586 0 01-2.586-2.586v-18.139a3.232 3.232 0 013.233-3.233h1.939v.065c.209-.043.426-.065.647-.065h6.466c.239 0 .472.026.696.075v-.075h1.94a3.232 3.232 0 013.233 3.233v18.139a2.586 2.586 0 01-2.586 2.586h-.05v15.518a2.587 2.587 0 11-5.173 0v-15.518h-2.586v15.518a2.587 2.587 0 11-5.173 0v-15.518zM453.44 505.475a5.58 5.58 0 10.001-11.159 5.58 5.58 0 00-.001 11.159zM446.975 530.452a2.586 2.586 0 01-2.587-2.586v-18.14a3.233 3.233 0 013.233-3.232h1.94v.064c.209-.042.425-.064.646-.064h6.466c.239 0 .472.025.697.075v-.075h1.94a3.232 3.232 0 013.232 3.232v18.14a2.586 2.586 0 01-2.586 2.586h-.05v15.518a2.586 2.586 0 01-5.172 0v-15.518h-2.587v15.518a2.586 2.586 0 01-5.172 0v-15.518zM495.764 761.329a5.58 5.58 0 100-11.159 5.58 5.58 0 000 11.159zM489.298 786.306a2.587 2.587 0 01-2.587-2.587V765.58a3.233 3.233 0 013.233-3.233h1.94v.065c.209-.043.425-.065.647-.065h6.466c.239 0 .472.026.696.075v-.075h1.94a3.233 3.233 0 013.233 3.233v18.139a2.587 2.587 0 01-2.587 2.587l-.05-.001v15.519a2.586 2.586 0 11-5.172 0v-15.518h-2.587v15.518a2.586 2.586 0 01-5.172 0v-15.518zM81.438 390.279a5.58 5.58 0 100-11.159 5.58 5.58 0 000 11.159zM74.973 415.256a2.587 2.587 0 01-2.587-2.587V394.53a3.233 3.233 0 013.233-3.233h1.94v.065c.209-.043.425-.065.647-.065h6.465c.24 0 .472.026.697.075v-.075h1.94a3.233 3.233 0 013.232 3.233v18.139a2.587 2.587 0 01-2.586 2.587l-.05-.001v15.519a2.586 2.586 0 01-5.172 0v-15.518h-2.587v15.518a2.586 2.586 0 01-5.172 0v-15.518z" fill="#E6DFFF"/>
  <path d="M290.593 184.668a5.58 5.58 0 100-11.159 5.58 5.58 0 000 11.159zM284.127 209.645a2.586 2.586 0 01-2.586-2.586V188.92a3.232 3.232 0 013.232-3.233h1.94v.065c.209-.043.425-.065.647-.065h6.466c.239 0 .472.026.696.075v-.075h1.94a3.233 3.233 0 013.233 3.233v18.139a2.586 2.586 0 01-2.587 2.586h-.049v15.518a2.587 2.587 0 11-5.173 0v-15.518H289.3v15.518a2.587 2.587 0 11-5.173 0v-15.518z" fill="#3E0DFF"/>
  <path d="M309.364 200.589a5.615 5.615 0 11-11.23 0 5.615 5.615 0 0111.23 0z" fill="#F8F7FF"/>
  <path fill-rule="evenodd" clip-rule="evenodd" d="M311.209 230.672c-.181.06-.374.096-.578.102V247.397a2.385 2.385 0 11-4.77 0v-16.622h-3.23v16.575a2.385 2.385 0 11-4.77 0v-16.575h-.58a1.99 1.99 0 01-.706-.127 1.887 1.887 0 01-2.568-1.76v-18.826c-.396-1.238.516-2.6 1.91-2.6h15.752c.367 0 .701.094.986.256a1.887 1.887 0 011.057 1.695v19.475a1.886 1.886 0 01-2.503 1.784zm-2.907-11.644c.075-.088.142-.182.201-.281l1.436-2.429v6.275l-1.576-3.442a1.758 1.758 0 00-.061-.123zm-8.942-.228l-1.579-2.544v6.507l1.607-3.591c.029-.065.062-.129.098-.191a2.085 2.085 0 01-.126-.181z" fill="#F8F7FF"/>
  <path d="M196.185 526.269a5.615 5.615 0 11-11.23 0 5.615 5.615 0 0111.23 0z" fill="#E6DFFF"/>
  <path fill-rule="evenodd" clip-rule="evenodd" d="M198.029 556.352c-.18.06-.374.096-.577.102v16.623a2.385 2.385 0 01-4.77 0v-16.622h-3.23v16.575a2.385 2.385 0 01-4.77 0v-16.575h-.58c-.252 0-.489-.045-.707-.127a1.887 1.887 0 01-2.567-1.76v-18.825c-.397-1.239.515-2.601 1.91-2.601h15.752c.366 0 .7.094.985.256a1.886 1.886 0 011.058 1.695v19.475a1.887 1.887 0 01-2.504 1.784zm-2.906-11.644c.075-.088.142-.182.2-.281l1.437-2.429v6.276l-1.576-3.443a2.345 2.345 0 00-.061-.123zm-8.943-.228l-1.579-2.544v6.507l1.607-3.59c.03-.066.063-.13.099-.192a1.896 1.896 0 01-.127-.181z" fill="#E6DFFF"/>
  <path d="M244.847 379.071a5.579 5.579 0 100-11.158 5.58 5.58 0 100 11.158zM238.381 404.048a2.586 2.586 0 01-2.587-2.586v-18.139a3.233 3.233 0 013.233-3.233h1.94v.065c.209-.043.425-.065.647-.065h6.466c.239 0 .472.026.696.075v-.075h1.94a3.233 3.233 0 013.233 3.233v18.139a2.586 2.586 0 01-2.587 2.586h-.05v15.519a2.586 2.586 0 11-5.172-.001v-15.518h-2.587v15.519a2.586 2.586 0 11-5.172-.001v-15.518zM454.001 173.461a5.58 5.58 0 100-11.159 5.58 5.58 0 000 11.159zM447.535 198.438a2.586 2.586 0 01-2.586-2.586v-18.139a3.232 3.232 0 013.233-3.233h1.939v.065c.209-.043.426-.065.647-.065h6.466c.239 0 .472.026.696.075v-.075h1.94a3.232 3.232 0 013.233 3.233v18.139a2.586 2.586 0 01-2.586 2.586h-.05v15.518a2.587 2.587 0 11-5.173 0v-15.518h-2.586v15.518a2.587 2.587 0 11-5.173 0v-15.518zM477.993 482.445a5.615 5.615 0 11-11.23 0 5.615 5.615 0 0111.23 0z" fill="#000"/>
  <path fill-rule="evenodd" clip-rule="evenodd" d="M479.838 512.528a1.985 1.985 0 01-.578.102v16.623a2.385 2.385 0 01-4.77 0v-16.622h-3.23v16.575a2.385 2.385 0 01-4.77 0v-16.575h-.58c-.252 0-.489-.045-.706-.126a1.886 1.886 0 01-2.568-1.76v-18.826c-.396-1.239.516-2.601 1.91-2.601h15.752c.367 0 .7.095.986.256a1.888 1.888 0 011.057 1.696v19.475a1.885 1.885 0 01-2.503 1.783zm-2.907-11.644c.075-.087.142-.181.201-.281l1.436-2.429v6.276l-1.576-3.443a2.338 2.338 0 00-.061-.123zm-8.942-.227l-1.579-2.544v6.506l1.607-3.59c.029-.066.062-.13.098-.192a2.233 2.233 0 01-.126-.18z" fill="#000"/>
  <path d="M359.664 514.77a5.615 5.615 0 11-11.23 0 5.615 5.615 0 0111.23 0z" fill="#000"/>
  <path fill-rule="evenodd" clip-rule="evenodd" d="M361.508 544.853c-.18.06-.374.096-.577.102V561.578a2.385 2.385 0 01-4.77 0v-16.622h-3.23v16.575a2.385 2.385 0 01-4.77 0v-16.575h-.581c-.251 0-.489-.045-.706-.127a1.886 1.886 0 01-2.567-1.76v-18.826c-.397-1.238.515-2.6 1.91-2.6h15.752c.366 0 .7.094.985.256.626.307 1.058.95 1.058 1.695v19.475a1.887 1.887 0 01-2.504 1.784zm-2.907-11.644c.075-.088.142-.182.201-.281l1.436-2.429v6.275l-1.575-3.442a1.768 1.768 0 00-.062-.123zm-8.942-.228l-1.579-2.544v6.507l1.607-3.591c.03-.065.062-.129.099-.191a1.896 1.896 0 01-.127-.181z" fill="#000"/>
  <path d="M409.784 704.289a5.615 5.615 0 11-11.23 0 5.615 5.615 0 0111.23 0z" fill="#000"/>
  <path fill-rule="evenodd" clip-rule="evenodd" d="M411.628 734.372c-.18.06-.374.096-.577.102v16.623a2.385 2.385 0 01-4.77 0v-16.622h-3.23v16.575a2.385 2.385 0 01-4.77 0v-16.575h-.58c-.252 0-.49-.045-.707-.127a1.886 1.886 0 01-2.567-1.76v-18.825c-.397-1.239.515-2.601 1.91-2.601h15.752c.366 0 .7.094.985.256a1.886 1.886 0 011.058 1.695v19.475a1.887 1.887 0 01-2.504 1.784zm-2.906-11.644c.074-.087.142-.182.2-.281l1.436-2.429v6.276l-1.575-3.443a2.345 2.345 0 00-.061-.123zm-8.943-.228l-1.579-2.544v6.507l1.607-3.59c.03-.066.063-.13.099-.192a1.896 1.896 0 01-.127-.181z" fill="#000"/>
  <path d="M292.474 276.271a5.58 5.58 0 100-11.159 5.58 5.58 0 000 11.159zM286.008 301.248a2.587 2.587 0 01-2.587-2.587v-18.139a3.234 3.234 0 013.233-3.233h1.94v.065c.209-.043.425-.065.647-.065h6.465c.24 0 .473.026.697.075v-.075h1.94a3.234 3.234 0 013.233 3.233v18.139a2.587 2.587 0 01-2.587 2.587l-.05-.001v15.519a2.586 2.586 0 01-5.172 0v-15.518h-2.587v15.518a2.586 2.586 0 01-5.172 0v-15.518zM502.627 70.66a5.58 5.58 0 100-11.158 5.58 5.58 0 000 11.159zM496.161 95.638a2.586 2.586 0 01-2.586-2.587V74.912a3.233 3.233 0 013.233-3.233h1.939v.065c.209-.043.426-.065.647-.065h6.466c.239 0 .472.026.696.075v-.075h1.94a3.233 3.233 0 013.233 3.233v18.14a2.586 2.586 0 01-2.636 2.585v15.519a2.586 2.586 0 01-5.173 0V95.638h-2.586v15.518a2.586 2.586 0 01-5.173 0V95.638zM519.873 385.227a5.58 5.58 0 100-11.159 5.58 5.58 0 000 11.159zM513.407 410.204a2.586 2.586 0 01-2.586-2.586v-18.14a3.233 3.233 0 013.233-3.233h1.939v.065c.209-.042.426-.065.647-.065h6.466c.239 0 .472.026.696.076v-.076h1.94a3.233 3.233 0 013.233 3.233v18.14a2.586 2.586 0 01-2.586 2.586h-.05v15.518a2.586 2.586 0 01-5.173 0v-15.518h-2.586v15.518a2.586 2.586 0 01-5.173 0v-15.518zM442.511 428.77a5.58 5.58 0 100-11.159 5.58 5.58 0 000 11.159zM436.045 453.747a2.586 2.586 0 01-2.587-2.586v-18.14a3.234 3.234 0 013.233-3.233h1.94v.065c.209-.042.425-.065.647-.065h6.466c.239 0 .472.026.696.076v-.076h1.94a3.234 3.234 0 013.233 3.233v18.14a2.586 2.586 0 01-2.587 2.586l-.049-.001v15.519a2.586 2.586 0 01-5.173 0v-15.518h-2.586v15.518a2.586 2.586 0 01-5.173 0v-15.518z" fill="#714EFF"/>
  <path d="M316.77 417.398a5.58 5.58 0 100-11.16 5.58 5.58 0 000 11.16zM310.305 442.375a2.587 2.587 0 01-2.587-2.587v-18.139a3.234 3.234 0 013.233-3.233h1.94v.065c.209-.043.425-.065.647-.065h6.465c.239 0 .473.026.697.075v-.075h1.94a3.234 3.234 0 013.233 3.233v18.139a2.587 2.587 0 01-2.587 2.587l-.05-.001v15.519a2.586 2.586 0 01-5.172 0v-15.518h-2.587v15.518a2.586 2.586 0 01-5.172 0v-15.518zM533.968 205.975a5.615 5.615 0 11-11.23 0 5.615 5.615 0 0111.23 0z" fill="#F8F7FF"/>
  <path fill-rule="evenodd" clip-rule="evenodd" d="M535.813 236.058a1.985 1.985 0 01-.578.103v16.622a2.384 2.384 0 11-4.77 0V236.162h-3.23v16.574a2.384 2.384 0 11-4.77 0v-16.574h-.58c-.252 0-.489-.046-.706-.127a1.887 1.887 0 01-2.568-1.76v-18.826c-.396-1.238.516-2.601 1.91-2.601h15.752c.367 0 .701.095.986.257.626.306 1.057.95 1.057 1.695v19.475a1.886 1.886 0 01-2.503 1.783zm-2.907-11.643c.075-.088.142-.182.201-.281l1.436-2.429v6.275l-1.576-3.443a1.982 1.982 0 00-.061-.122zm-8.942-.228l-1.579-2.544v6.507l1.607-3.591c.029-.066.062-.13.098-.192a2.07 2.07 0 01-.126-.18z" fill="#F8F7FF"/>
  <path d="M544.17 526.354a5.58 5.58 0 100-11.159 5.58 5.58 0 000 11.159zM537.704 551.331a2.586 2.586 0 01-2.586-2.586v-18.14a3.233 3.233 0 013.233-3.233h1.939v.065c.209-.042.426-.065.647-.065h6.466c.239 0 .472.026.696.076v-.076h1.94a3.233 3.233 0 013.233 3.233v18.14a2.586 2.586 0 01-2.586 2.586l-.05-.001v15.519a2.586 2.586 0 01-5.173 0v-15.518h-2.586v15.518a2.586 2.586 0 01-5.173 0v-15.518zM433.841 555.802a5.614 5.614 0 11-11.23 0 5.614 5.614 0 015.615-5.614 5.614 5.614 0 015.615 5.614z" fill="#F8F7FF"/>
  <path fill-rule="evenodd" clip-rule="evenodd" d="M435.686 585.886c-.181.06-.374.096-.578.102V602.611a2.385 2.385 0 01-4.77 0v-16.622h-3.23v16.575a2.385 2.385 0 01-4.77 0v-16.575h-.58a1.99 1.99 0 01-.706-.127 1.887 1.887 0 01-2.568-1.76v-18.826c-.397-1.238.516-2.6 1.91-2.6h15.752c.367 0 .7.094.986.256.626.307 1.057.95 1.057 1.695v19.475a1.886 1.886 0 01-2.503 1.784zm-2.907-11.644c.075-.088.142-.182.201-.281l1.436-2.429v6.275l-1.576-3.442a1.758 1.758 0 00-.061-.123zm-8.942-.228l-1.579-2.544v6.507l1.607-3.591c.029-.065.062-.129.098-.191a2.25 2.25 0 01-.126-.181z" fill="#F8F7FF"/>
  <path d="M157.915 454.542a5.58 5.58 0 100-11.159 5.58 5.58 0 000 11.159zM151.449 479.519a2.586 2.586 0 01-2.586-2.586v-18.139a3.232 3.232 0 013.233-3.233h1.939v.064c.209-.042.426-.064.647-.064h6.466c.239 0 .472.026.696.075v-.075h1.94a3.232 3.232 0 013.233 3.233v18.139a2.586 2.586 0 01-2.586 2.586h-.05v15.518a2.587 2.587 0 11-5.173 0v-15.518h-2.586v15.518a2.587 2.587 0 11-5.173 0v-15.518z" fill="#1C133F"/>
  <path d="M367.069 248.932a5.58 5.58 0 10.001-11.159 5.58 5.58 0 00-.001 11.159zM360.603 273.909a2.586 2.586 0 01-2.586-2.586v-18.14a3.233 3.233 0 013.233-3.232h1.94v.064c.209-.042.425-.064.646-.064h6.466c.239 0 .472.026.697.075v-.075h1.939a3.232 3.232 0 013.233 3.232v18.14a2.586 2.586 0 01-2.586 2.586h-.05v15.518a2.586 2.586 0 01-5.173 0v-15.518h-2.586v15.518a2.586 2.586 0 01-5.173 0v-15.518z" fill="#B29FFF"/>
  <path d="M389.446 558.216a5.615 5.615 0 11-11.23 0 5.615 5.615 0 0111.23 0z" fill="#1C133F"/>
  <path fill-rule="evenodd" clip-rule="evenodd" d="M391.29 588.299c-.18.061-.374.096-.577.102v16.623a2.385 2.385 0 01-4.77 0v-16.622h-3.23v16.575a2.385 2.385 0 01-4.77 0v-16.575h-.58c-.252 0-.489-.045-.707-.126a1.886 1.886 0 01-2.567-1.76V567.69c-.397-1.239.515-2.601 1.91-2.601h15.752c.366 0 .7.095.985.256a1.887 1.887 0 011.058 1.696v19.475a1.886 1.886 0 01-2.504 1.783zm-2.906-11.644c.075-.087.142-.181.2-.281l1.437-2.429v6.276l-1.576-3.443c-.019-.041-.04-.082-.061-.123zm-8.943-.227l-1.579-2.544v6.506l1.607-3.59c.03-.066.063-.13.099-.192a2.017 2.017 0 01-.127-.18z" fill="#1C133F"/>
  <path d="M271.664 591.256a5.615 5.615 0 11-11.23 0 5.615 5.615 0 0111.23 0z" fill="#1C133F"/>
  <path fill-rule="evenodd" clip-rule="evenodd" d="M273.508 621.339c-.18.06-.374.096-.577.102V638.064a2.385 2.385 0 01-4.77 0v-16.622h-3.23v16.575a2.385 2.385 0 01-4.77 0v-16.575h-.581c-.251 0-.489-.045-.706-.127a1.886 1.886 0 01-2.567-1.76v-18.826c-.397-1.238.515-2.6 1.91-2.6h15.752c.366 0 .7.094.985.256a1.888 1.888 0 011.058 1.695v19.475a1.887 1.887 0 01-2.504 1.784zm-2.907-11.644c.075-.088.142-.182.201-.281l1.436-2.429v6.275l-1.575-3.442a1.768 1.768 0 00-.062-.123zm-8.942-.228l-1.579-2.544v6.507l1.607-3.591c.03-.065.062-.129.099-.191a1.896 1.896 0 01-.127-.181z" fill="#1C133F"/>
  <path d="M293.2 368.418a5.615 5.615 0 11-11.23 0 5.615 5.615 0 0111.23 0z" fill="#1C133F"/>
  <path fill-rule="evenodd" clip-rule="evenodd" d="M295.045 398.501a2.019 2.019 0 01-.578.103v16.622a2.385 2.385 0 01-4.77 0v-16.622h-3.23v16.575a2.385 2.385 0 11-4.77 0v-16.575h-.58c-.252 0-.489-.045-.706-.126a1.886 1.886 0 01-2.568-1.76v-18.826c-.396-1.239.516-2.601 1.91-2.601h15.752c.367 0 .7.095.986.256a1.888 1.888 0 011.057 1.696v19.475a1.885 1.885 0 01-2.503 1.783zm-2.907-11.643c.075-.088.142-.182.201-.281l1.436-2.429v6.275l-1.576-3.443a1.982 1.982 0 00-.061-.122zm-8.942-.228l-1.579-2.544v6.507l1.607-3.591c.029-.066.062-.13.098-.192a2.233 2.233 0 01-.126-.18z" fill="#1C133F"/>
  <path d="M497.35 168.536a5.58 5.58 0 100-11.159 5.58 5.58 0 000 11.159zM490.884 193.513a2.587 2.587 0 01-2.587-2.587v-18.139a3.234 3.234 0 013.233-3.233h1.94v.065c.209-.043.425-.065.647-.065h6.465c.24 0 .473.026.697.075v-.075h1.94a3.234 3.234 0 013.233 3.233v18.139a2.587 2.587 0 01-2.587 2.587l-.05-.001v15.519a2.586 2.586 0 01-5.172 0v-15.518h-2.587v15.518a2.586 2.586 0 01-5.172 0v-15.518zM521.474 483.102a5.58 5.58 0 100-11.159 5.58 5.58 0 000 11.159zM515.008 508.079a2.586 2.586 0 01-2.587-2.586v-18.14a3.234 3.234 0 013.233-3.233h1.94v.065c.209-.042.425-.065.647-.065h6.465c.24 0 .473.026.697.076v-.076h1.94a3.234 3.234 0 013.233 3.233v18.14a2.586 2.586 0 01-2.587 2.586h-.05v15.518a2.586 2.586 0 01-5.172 0v-15.518h-2.587v15.518a2.586 2.586 0 01-5.172 0v-15.518zM396.864 516.786a5.58 5.58 0 100-11.16 5.58 5.58 0 000 11.16zM390.398 541.763a2.586 2.586 0 01-2.586-2.587v-18.139a3.233 3.233 0 013.233-3.233h1.94v.065c.209-.043.425-.065.646-.065h6.466c.239 0 .472.026.697.075v-.075h1.939a3.233 3.233 0 013.233 3.233v18.139a2.586 2.586 0 01-2.586 2.587l-.05-.001v15.519a2.586 2.586 0 01-5.173 0v-15.518h-2.586v15.518a2.586 2.586 0 01-5.173 0v-15.518zM540.857 698.77a5.58 5.58 0 10.001-11.159 5.58 5.58 0 00-.001 11.159zM534.392 723.747a2.586 2.586 0 01-2.587-2.586v-18.139a3.233 3.233 0 013.233-3.233h1.94v.064c.209-.042.425-.064.646-.064h6.466c.239 0 .472.026.697.075v-.075h1.94a3.232 3.232 0 013.232 3.233v18.139a2.586 2.586 0 01-2.586 2.586h-.05v15.518a2.586 2.586 0 11-5.172 0v-15.518h-2.587v15.518a2.586 2.586 0 11-5.172 0v-15.518z" fill="#1C133F"/>
  <path d="M286.727 413.905a5.579 5.579 0 100-11.158 5.58 5.58 0 000 11.158zM280.262 438.882a2.586 2.586 0 01-2.587-2.586v-18.139a3.233 3.233 0 013.233-3.233h1.94v.065c.209-.043.425-.065.647-.065h6.465c.24 0 .473.026.697.075v-.075h1.94a3.233 3.233 0 013.233 3.233v18.139a2.586 2.586 0 01-2.587 2.586h-.05V454.4a2.586 2.586 0 11-5.172 0v-15.518h-2.587V454.4a2.586 2.586 0 11-5.172 0v-15.518z" fill="#3E0DFF"/>
  <path d="M500.895 202.822a5.615 5.615 0 11-11.23 0 5.615 5.615 0 0111.23 0z" fill="#B29FFF"/>
  <path fill-rule="evenodd" clip-rule="evenodd" d="M502.739 232.905c-.18.061-.374.096-.577.102v16.623a2.385 2.385 0 01-4.77 0v-16.622h-3.23v16.575a2.385 2.385 0 01-4.77 0v-16.575h-.58c-.252 0-.489-.045-.707-.126a1.886 1.886 0 01-2.567-1.76v-18.826c-.397-1.239.515-2.601 1.91-2.601H503.2c.366 0 .7.094.985.256a1.886 1.886 0 011.058 1.695v19.476a1.886 1.886 0 01-2.504 1.783zm-2.906-11.644c.074-.087.142-.181.2-.281l1.436-2.429v6.276l-1.575-3.443c-.019-.042-.04-.082-.061-.123zm-8.943-.227l-1.579-2.545v6.507l1.607-3.59c.03-.066.063-.13.099-.192a2.017 2.017 0 01-.127-.18z" fill="#B29FFF"/>
  <path d="M520.754 516.994a5.615 5.615 0 11-11.23 0 5.615 5.615 0 0111.23 0z" fill="#B29FFF"/>
  <path fill-rule="evenodd" clip-rule="evenodd" d="M522.599 547.078c-.181.06-.374.096-.578.102v16.622a2.385 2.385 0 11-4.77 0V547.181h-3.23v16.575a2.385 2.385 0 01-4.77 0v-16.575h-.58a1.99 1.99 0 01-.706-.127 1.887 1.887 0 01-2.568-1.76v-18.826c-.396-1.238.516-2.601 1.91-2.601h15.752c.367 0 .7.095.986.257.626.307 1.057.95 1.057 1.695v19.475a1.886 1.886 0 01-2.503 1.784zm-2.907-11.644c.075-.088.142-.182.201-.281l1.436-2.429v6.275l-1.576-3.443a1.982 1.982 0 00-.061-.122zm-8.942-.228l-1.579-2.544v6.507l1.607-3.591c.029-.066.062-.13.098-.192a2.07 2.07 0 01-.126-.18z" fill="#B29FFF"/>
  <path d="M540.389 738.53a5.58 5.58 0 100-11.159 5.58 5.58 0 000 11.159zM533.923 763.507a2.586 2.586 0 01-2.587-2.586v-18.14a3.234 3.234 0 013.233-3.233h1.94v.065c.209-.042.425-.065.647-.065h6.466c.239 0 .472.026.696.076v-.076h1.94a3.234 3.234 0 013.233 3.233v18.14a2.586 2.586 0 01-2.587 2.586l-.05-.001v15.519a2.586 2.586 0 11-5.172 0v-15.518h-2.587v15.518a2.586 2.586 0 01-5.172 0v-15.518zM448.159 745.213a5.58 5.58 0 100-11.159 5.58 5.58 0 000 11.159zM441.693 770.19a2.586 2.586 0 01-2.586-2.586v-18.139a3.232 3.232 0 013.233-3.233h1.94v.064c.209-.042.425-.064.646-.064h6.466c.239 0 .472.026.697.075v-.075h1.939a3.232 3.232 0 013.233 3.233v18.139a2.586 2.586 0 01-2.586 2.586h-.05v15.518a2.586 2.586 0 11-5.173 0V770.19h-2.586v15.518a2.586 2.586 0 11-5.173 0V770.19zM521.142 612.745a5.58 5.58 0 100-11.159 5.58 5.58 0 000 11.159zM514.676 637.722a2.587 2.587 0 01-2.587-2.587v-18.139a3.233 3.233 0 013.233-3.233h1.94v.065c.209-.043.425-.065.647-.065h6.465c.24 0 .473.026.697.075v-.075h1.94a3.233 3.233 0 013.233 3.233v18.139a2.587 2.587 0 01-2.587 2.587l-.05-.001v15.519a2.586 2.586 0 01-5.172 0v-15.518h-2.587v15.518a2.586 2.586 0 01-5.172 0v-15.518zM117.364 295.911a5.615 5.615 0 11-11.23 0 5.615 5.615 0 0111.23 0z" fill="#B29FFF"/>
  <path fill-rule="evenodd" clip-rule="evenodd" d="M119.209 325.994c-.181.06-.374.096-.578.102V342.719a2.385 2.385 0 11-4.77 0v-16.622h-3.23v16.575a2.385 2.385 0 11-4.77 0v-16.575h-.58a1.99 1.99 0 01-.706-.127 1.887 1.887 0 01-2.568-1.76v-18.826c-.396-1.238.516-2.6 1.91-2.6h15.752c.367 0 .701.094.986.256a1.887 1.887 0 011.057 1.695v19.475a1.886 1.886 0 01-2.503 1.784zm-2.907-11.644c.075-.088.142-.182.201-.281l1.436-2.429v6.275l-1.576-3.442a1.758 1.758 0 00-.061-.123zm-8.942-.228l-1.579-2.544v6.507l1.607-3.591c.029-.065.062-.129.098-.191a2.085 2.085 0 01-.126-.181z" fill="#B29FFF"/>
  <path d="M311.765 97.782a5.58 5.58 0 100-11.159 5.58 5.58 0 000 11.159zM305.299 122.759a2.587 2.587 0 01-2.587-2.587v-18.139a3.234 3.234 0 013.233-3.233h1.94v.065c.209-.043.425-.065.647-.065h6.466c.239 0 .472.026.696.075V98.8h1.94a3.234 3.234 0 013.233 3.233v18.139a2.587 2.587 0 01-2.587 2.587l-.05-.001v15.519a2.586 2.586 0 01-5.172 0v-15.518h-2.587v15.518a2.586 2.586 0 01-5.172 0v-15.518zM219.463 440.228a5.615 5.615 0 11-11.23 0 5.615 5.615 0 0111.23 0z" fill="#B29FFF"/>
  <path fill-rule="evenodd" clip-rule="evenodd" d="M221.308 470.311c-.18.06-.374.096-.578.102V487.036a2.385 2.385 0 11-4.77 0v-16.622h-3.23v16.575a2.385 2.385 0 11-4.77 0v-16.575h-.58a1.99 1.99 0 01-.706-.127 1.887 1.887 0 01-2.568-1.76v-18.826c-.396-1.238.516-2.6 1.91-2.6h15.752c.367 0 .701.094.986.256.626.307 1.058.95 1.058 1.695v19.475a1.887 1.887 0 01-2.504 1.784zm-2.907-11.644c.075-.088.142-.182.201-.281l1.436-2.429v6.275l-1.575-3.442a2.355 2.355 0 00-.062-.123zm-8.942-.228l-1.579-2.544v6.507l1.607-3.591c.029-.065.062-.129.098-.191a2.085 2.085 0 01-.126-.181z" fill="#B29FFF"/>
  <path d="M326.796 432.77a5.58 5.58 0 100-11.159 5.58 5.58 0 000 11.159zM320.33 457.747a2.586 2.586 0 01-2.586-2.586v-18.14a3.233 3.233 0 013.233-3.233h1.939v.065c.209-.042.425-.065.647-.065h6.466c.239 0 .472.026.696.076v-.076h1.94a3.234 3.234 0 013.233 3.233v18.14a2.586 2.586 0 01-2.586 2.586l-.05-.001v15.519a2.586 2.586 0 01-5.173 0v-15.518h-2.586v15.518a2.586 2.586 0 01-5.173 0v-15.518z" fill="#000"/>
  <path d="M538.357 221.811a5.58 5.58 0 10.001-11.159 5.58 5.58 0 00-.001 11.159zM531.892 246.788a2.586 2.586 0 01-2.587-2.586v-18.14a3.234 3.234 0 013.233-3.233h1.94v.065c.209-.042.425-.065.646-.065h6.466c.239 0 .472.026.697.076v-.076h1.94a3.233 3.233 0 013.232 3.233v18.14a2.586 2.586 0 01-2.586 2.586l-.05-.001v15.519a2.586 2.586 0 01-5.172 0v-15.518h-2.587v15.518a2.586 2.586 0 01-5.172 0v-15.518z" fill="#B29FFF"/>
  <path d="M520.358 661.36a5.58 5.58 0 100-11.16 5.58 5.58 0 000 11.16zM513.892 686.337a2.586 2.586 0 01-2.586-2.587v-18.139a3.234 3.234 0 013.233-3.233h1.94v.065c.209-.042.425-.065.646-.065h6.466c.239 0 .472.026.697.076v-.076h1.939a3.233 3.233 0 013.233 3.233v18.139a2.586 2.586 0 01-2.586 2.587l-.05-.001v15.519a2.586 2.586 0 01-5.172 0v-15.518h-2.587v15.518a2.586 2.586 0 01-5.173 0v-15.518z" fill="#F8F7FF"/>
  <path d="M555.603 536.377a5.58 5.58 0 10.001-11.159 5.58 5.58 0 00-.001 11.159zM549.138 561.354a2.586 2.586 0 01-2.587-2.586v-18.139a3.233 3.233 0 013.233-3.233h1.94v.065c.209-.043.425-.065.647-.065h6.465c.239 0 .473.026.697.075v-.075h1.94a3.233 3.233 0 013.233 3.233v18.139a2.586 2.586 0 01-2.587 2.586h-.05v15.518a2.586 2.586 0 11-5.172 0v-15.518h-2.587v15.518a2.586 2.586 0 11-5.172 0v-15.518zM437.872 570.061a5.58 5.58 0 100-11.159 5.58 5.58 0 000 11.159zM431.406 595.038a2.586 2.586 0 01-2.586-2.586v-18.14a3.233 3.233 0 013.233-3.233h1.94v.065c.208-.042.425-.065.646-.065h6.466c.239 0 .472.026.696.076v-.076h1.94a3.233 3.233 0 013.233 3.233v18.14a2.586 2.586 0 01-2.586 2.586l-.05-.001v15.519a2.586 2.586 0 01-5.173 0v-15.518h-2.586v15.518a2.586 2.586 0 01-5.173 0v-15.518zM549.419 639.48a5.615 5.615 0 11-11.23 0 5.615 5.615 0 0111.23 0z" fill="#000"/>
  <path fill-rule="evenodd" clip-rule="evenodd" d="M551.264 669.563a1.985 1.985 0 01-.578.102v16.623a2.385 2.385 0 01-4.77 0v-16.622h-3.23v16.575a2.385 2.385 0 01-4.77 0v-16.575h-.58c-.252 0-.489-.045-.706-.126a1.886 1.886 0 01-2.568-1.76v-18.826c-.397-1.239.515-2.601 1.91-2.601h15.752c.367 0 .7.094.986.256a1.887 1.887 0 011.057 1.695v19.476a1.886 1.886 0 01-2.503 1.783zm-2.907-11.644c.075-.087.142-.181.201-.281l1.436-2.429v6.276l-1.576-3.443a1.758 1.758 0 00-.061-.123zm-8.942-.228l-1.58-2.544v6.507l1.608-3.59c.029-.066.062-.13.098-.192a1.886 1.886 0 01-.126-.181z" fill="#000"/>
  <path d="M363.606 340.429a5.58 5.58 0 10.001-11.159 5.58 5.58 0 00-.001 11.159zM357.141 365.406a2.586 2.586 0 01-2.587-2.586v-18.14a3.234 3.234 0 013.233-3.233h1.94v.065c.209-.042.425-.065.646-.065h6.466c.239 0 .472.026.697.076v-.076h1.94a3.233 3.233 0 013.232 3.233v18.14a2.586 2.586 0 01-2.586 2.586l-.05-.001v15.519a2.586 2.586 0 01-5.172 0v-15.518h-2.587v15.518a2.586 2.586 0 01-5.172 0v-15.518zM573.76 134.819a5.58 5.58 0 100-11.159 5.58 5.58 0 000 11.159zM567.294 159.796a2.586 2.586 0 01-2.586-2.587V139.07a3.233 3.233 0 013.233-3.233h1.939v.065c.209-.042.425-.065.647-.065h6.466c.239 0 .472.026.696.075v-.075h1.94a3.234 3.234 0 013.233 3.233v18.139a2.586 2.586 0 01-2.586 2.587l-.05-.001v15.519a2.586 2.586 0 01-5.173 0v-15.518h-2.586v15.518a2.586 2.586 0 01-5.173 0v-15.518zM591.006 449.385a5.58 5.58 0 100-11.159 5.58 5.58 0 000 11.159zM584.54 474.362a2.586 2.586 0 01-2.586-2.586v-18.139a3.232 3.232 0 013.233-3.233h1.939v.064c.209-.042.426-.064.647-.064h6.466c.239 0 .472.026.696.075v-.075h1.94a3.232 3.232 0 013.233 3.233v18.139a2.586 2.586 0 01-2.586 2.586h-.05v15.518a2.587 2.587 0 11-5.173 0v-15.518h-2.586v15.518a2.587 2.587 0 11-5.173 0v-15.518zM474.925 500.089a5.58 5.58 0 100-11.159 5.58 5.58 0 000 11.159zM468.459 525.066a2.586 2.586 0 01-2.586-2.587V504.34a3.232 3.232 0 013.232-3.233h1.94v.065c.209-.043.425-.065.647-.065h6.466c.239 0 .472.026.696.075v-.075h1.94a3.233 3.233 0 013.233 3.233v18.139a2.587 2.587 0 01-2.587 2.587l-.049-.001v15.519a2.586 2.586 0 01-5.173 0v-15.518h-2.586v15.518a2.586 2.586 0 01-5.173 0v-15.518z" fill="#B29FFF"/>
  <path d="M253.278 462.469a5.615 5.615 0 11-11.23 0 5.615 5.615 0 0111.23 0z" fill="#000"/>
  <path fill-rule="evenodd" clip-rule="evenodd" d="M255.123 492.552c-.18.06-.374.096-.578.102V509.277a2.385 2.385 0 11-4.77 0v-16.622h-3.23v16.575a2.385 2.385 0 11-4.77 0v-16.575h-.58a1.99 1.99 0 01-.706-.127 1.887 1.887 0 01-2.568-1.76v-18.826c-.396-1.238.516-2.6 1.91-2.6h15.752c.367 0 .701.094.986.256.626.307 1.057.95 1.057 1.695v19.475a1.886 1.886 0 01-2.503 1.784zm-2.907-11.644c.075-.088.142-.182.201-.281l1.436-2.429v6.275l-1.576-3.442a1.758 1.758 0 00-.061-.123zm-8.942-.228l-1.579-2.544v6.507l1.607-3.591c.029-.065.062-.129.098-.191a2.25 2.25 0 01-.126-.181z" fill="#000"/>
  <path d="M457.679 262.155a5.58 5.58 0 100-11.159 5.58 5.58 0 000 11.159zM451.213 287.132a2.587 2.587 0 01-2.587-2.587v-18.139a3.234 3.234 0 013.233-3.233h1.94v.065c.209-.043.425-.065.647-.065h6.466c.239 0 .472.026.696.075v-.075h1.94a3.234 3.234 0 013.233 3.233v18.139a2.587 2.587 0 01-2.587 2.587l-.05-.001v15.519a2.586 2.586 0 11-5.172 0v-15.518h-2.587v15.518a2.586 2.586 0 11-5.172 0v-15.518z" fill="#000"/>
  <path d="M479.02 571.023a5.615 5.615 0 11-11.23 0 5.615 5.615 0 0111.23 0z" fill="#3E0DFF"/>
  <path fill-rule="evenodd" clip-rule="evenodd" d="M480.865 601.106a1.985 1.985 0 01-.578.102v16.623a2.385 2.385 0 11-4.77 0v-16.622h-3.23v16.575a2.385 2.385 0 11-4.77 0v-16.575h-.58c-.252 0-.489-.045-.706-.126a1.887 1.887 0 01-2.568-1.761v-18.825c-.396-1.239.516-2.601 1.91-2.601h15.752c.367 0 .701.094.986.256a1.887 1.887 0 011.057 1.695v19.475a1.886 1.886 0 01-2.503 1.784zm-2.907-11.644c.075-.087.142-.181.201-.281l1.436-2.429v6.276l-1.576-3.443a1.758 1.758 0 00-.061-.123zm-8.942-.228l-1.579-2.544v6.507l1.607-3.59c.029-.066.062-.13.098-.192a2.085 2.085 0 01-.126-.181z" fill="#3E0DFF"/>
  <path d="M357.13 372.994a5.615 5.615 0 11-11.23 0 5.615 5.615 0 0111.23 0z" fill="#000"/>
  <path fill-rule="evenodd" clip-rule="evenodd" d="M358.975 403.078c-.18.06-.374.096-.578.102v16.622a2.384 2.384 0 11-4.77 0V403.181h-3.23v16.575a2.385 2.385 0 11-4.77 0v-16.575h-.58a1.99 1.99 0 01-.706-.127 1.887 1.887 0 01-2.568-1.76v-18.826c-.396-1.238.516-2.601 1.91-2.601h15.752c.367 0 .701.095.986.257.626.307 1.058.95 1.058 1.695v19.475a1.887 1.887 0 01-2.504 1.784zm-2.907-11.644c.075-.088.142-.182.201-.281l1.436-2.429v6.275l-1.575-3.443a2.792 2.792 0 00-.062-.122zm-8.942-.228l-1.579-2.544v6.507l1.607-3.591c.029-.066.062-.13.098-.192a2.07 2.07 0 01-.126-.18z" fill="#000"/>
  <path d="M369.011 693.725a5.58 5.58 0 100-11.159 5.58 5.58 0 000 11.159zM362.545 718.702a2.586 2.586 0 01-2.587-2.586v-18.14a3.233 3.233 0 013.233-3.232h1.94v.064c.209-.042.425-.064.647-.064h6.466c.239 0 .472.025.696.075v-.075h1.94a3.233 3.233 0 013.233 3.232v18.14a2.586 2.586 0 01-2.587 2.586h-.049v15.518a2.586 2.586 0 01-5.173 0v-15.518h-2.586v15.518a2.586 2.586 0 01-5.173 0v-15.518zM252.277 727.409a5.58 5.58 0 10.001-11.159 5.58 5.58 0 00-.001 11.159zM245.811 752.386a2.586 2.586 0 01-2.586-2.586v-18.14a3.234 3.234 0 013.233-3.233h1.94v.065c.209-.042.425-.065.646-.065h6.466c.239 0 .472.026.697.076v-.076h1.939a3.233 3.233 0 013.233 3.233v18.14a2.586 2.586 0 01-2.586 2.586l-.05-.001v15.519a2.586 2.586 0 01-5.173 0v-15.518h-2.586v15.518a2.586 2.586 0 01-5.173 0v-15.518z" fill="#000"/>
  <path d="M232.958 422.048a5.58 5.58 0 100-11.159 5.58 5.58 0 000 11.159zM226.492 447.025a2.586 2.586 0 01-2.586-2.586v-18.14a3.232 3.232 0 013.233-3.232h1.939v.064c.209-.042.426-.064.647-.064h6.466c.239 0 .472.025.696.075v-.075h1.94a3.232 3.232 0 013.233 3.232v18.14a2.586 2.586 0 01-2.586 2.586h-.05v15.518a2.586 2.586 0 01-5.173 0v-15.518h-2.586v15.518a2.586 2.586 0 01-5.173 0v-15.518zM447.337 211.802a5.614 5.614 0 01-5.615 5.615 5.614 5.614 0 110-11.229 5.614 5.614 0 015.615 5.614z" fill="#714EFF"/>
  <path fill-rule="evenodd" clip-rule="evenodd" d="M449.182 241.886c-.18.06-.374.096-.578.102V258.611a2.385 2.385 0 11-4.77 0v-16.622h-3.23v16.575a2.385 2.385 0 11-4.77 0v-16.575h-.58a1.99 1.99 0 01-.706-.127 1.887 1.887 0 01-2.568-1.76v-18.826c-.396-1.238.516-2.6 1.91-2.6h15.752c.367 0 .701.094.986.256.626.307 1.058.95 1.058 1.695v19.475a1.887 1.887 0 01-2.504 1.784zm-2.907-11.644c.075-.088.142-.182.201-.281l1.436-2.429v6.275l-1.575-3.442a2.355 2.355 0 00-.062-.123zm-8.942-.228l-1.579-2.544v6.507l1.607-3.591c.029-.065.062-.129.098-.191a2.25 2.25 0 01-.126-.181z" fill="#714EFF"/>
  <path d="M464.574 524.994a5.615 5.615 0 11-11.23 0 5.615 5.615 0 0111.23 0z" fill="#714EFF"/>
  <path fill-rule="evenodd" clip-rule="evenodd" d="M466.418 555.078c-.18.06-.374.096-.577.102v16.622a2.385 2.385 0 11-4.77 0V555.181h-3.23v16.575a2.385 2.385 0 01-4.77 0v-16.575h-.581c-.251 0-.489-.045-.706-.127a1.886 1.886 0 01-2.567-1.76v-18.826c-.397-1.238.515-2.601 1.909-2.601h15.752c.367 0 .701.095.986.257.626.307 1.058.95 1.058 1.695v19.475a1.887 1.887 0 01-2.504 1.784zm-2.907-11.644c.075-.088.142-.182.201-.281l1.436-2.429v6.275l-1.575-3.443a1.997 1.997 0 00-.062-.122zm-8.942-.228l-1.579-2.544v6.507l1.607-3.591a1.74 1.74 0 01.099-.192 1.882 1.882 0 01-.127-.18z" fill="#714EFF"/>
  <path d="M550.47 580.994a5.615 5.615 0 11-11.23 0 5.615 5.615 0 0111.23 0z" fill="#3E0DFF"/>
  <path fill-rule="evenodd" clip-rule="evenodd" d="M552.314 611.078c-.18.06-.374.096-.577.102v16.622a2.385 2.385 0 11-4.77 0V611.181h-3.23v16.575a2.385 2.385 0 01-4.77 0v-16.575h-.58c-.252 0-.49-.045-.707-.127a1.887 1.887 0 01-2.567-1.76v-18.826c-.397-1.238.515-2.601 1.91-2.601h15.752c.366 0 .7.095.985.257.627.307 1.058.95 1.058 1.695v19.475a1.887 1.887 0 01-2.504 1.784zm-2.906-11.644c.074-.088.142-.182.2-.281l1.436-2.429v6.275l-1.575-3.443a2.774 2.774 0 00-.061-.122zm-8.943-.228l-1.579-2.544v6.507l1.607-3.591c.03-.066.063-.13.099-.192a1.882 1.882 0 01-.127-.18z" fill="#3E0DFF"/>
  <path d="M340.492 587.659a5.58 5.58 0 100-11.159 5.58 5.58 0 000 11.159zM334.026 612.636a2.587 2.587 0 01-2.587-2.587V591.91a3.234 3.234 0 013.233-3.233h1.94v.065c.209-.043.425-.065.647-.065h6.466c.239 0 .472.026.696.075v-.075h1.94a3.234 3.234 0 013.233 3.233v18.139a2.587 2.587 0 01-2.587 2.587l-.05-.001v15.519a2.586 2.586 0 11-5.172 0v-15.518h-2.587v15.518a2.586 2.586 0 11-5.172 0v-15.518z" fill="#B29FFF"/>
  <path d="M144.61 492.298a5.58 5.58 0 10.001-11.159 5.58 5.58 0 00-.001 11.159zM138.144 517.275a2.586 2.586 0 01-2.586-2.586v-18.14a3.233 3.233 0 013.233-3.232h1.94v.064c.209-.042.425-.064.646-.064h6.466c.239 0 .472.025.697.075v-.075h1.939a3.232 3.232 0 013.233 3.232v18.14a2.586 2.586 0 01-2.586 2.586h-.05v15.518a2.586 2.586 0 01-5.173 0v-15.518h-2.586v15.518a2.586 2.586 0 01-5.173 0v-15.518z" fill="#000"/>
  <path d="M359.664 280.919a5.614 5.614 0 11-11.23 0 5.615 5.615 0 0111.23 0z" fill="#3E0DFF"/>
  <path fill-rule="evenodd" clip-rule="evenodd" d="M361.508 311.003c-.18.06-.374.096-.577.102v16.622a2.385 2.385 0 11-4.77 0V311.106h-3.23v16.575a2.385 2.385 0 01-4.77 0v-16.575h-.581c-.251 0-.489-.045-.706-.127a1.886 1.886 0 01-2.567-1.76v-18.826c-.397-1.238.515-2.601 1.91-2.601h15.752c.366 0 .7.095.985.257.626.307 1.058.95 1.058 1.695v19.475a1.887 1.887 0 01-2.504 1.784zm-2.907-11.644c.075-.088.142-.182.201-.281l1.436-2.429v6.275l-1.575-3.442a1.768 1.768 0 00-.062-.123zm-8.942-.228l-1.579-2.544v6.507l1.607-3.591c.03-.066.062-.13.099-.192a1.882 1.882 0 01-.127-.18z" fill="#3E0DFF"/>
  <path d="M371.011 601.254a5.58 5.58 0 100-11.159 5.58 5.58 0 000 11.159zM364.545 626.231a2.586 2.586 0 01-2.587-2.586v-18.139a3.233 3.233 0 013.233-3.233h1.94v.065c.209-.043.425-.065.647-.065h6.466c.239 0 .472.026.696.075v-.075h1.94a3.233 3.233 0 013.233 3.233v18.139a2.586 2.586 0 01-2.587 2.586h-.049v15.518a2.587 2.587 0 11-5.173 0v-15.518h-2.586v15.518a2.587 2.587 0 11-5.173 0v-15.518z" fill="#000"/>
  <path d="M363.462 604.745a5.615 5.615 0 11-11.23 0 5.615 5.615 0 0111.23 0z" fill="#1C133F"/>
  <path fill-rule="evenodd" clip-rule="evenodd" d="M365.307 634.828a1.985 1.985 0 01-.578.103v16.622a2.385 2.385 0 11-4.77 0V634.932h-3.23v16.574a2.385 2.385 0 01-4.77.001v-16.575h-.58a1.99 1.99 0 01-.706-.127 1.887 1.887 0 01-2.568-1.76v-18.826c-.397-1.238.515-2.601 1.91-2.601h15.752c.366 0 .7.095.986.257.626.307 1.057.95 1.057 1.695v19.475a1.887 1.887 0 01-2.503 1.783zm-2.907-11.643c.075-.088.142-.182.201-.281l1.436-2.429v6.275l-1.576-3.443a1.982 1.982 0 00-.061-.122zm-8.942-.228l-1.58-2.544v6.507l1.607-3.591c.03-.066.063-.13.099-.192a1.872 1.872 0 01-.126-.18z" fill="#1C133F"/>
  <path d="M254.277 634.938a5.58 5.58 0 10.001-11.159 5.58 5.58 0 00-.001 11.159zM247.811 659.915a2.586 2.586 0 01-2.586-2.586V639.19a3.233 3.233 0 013.233-3.233h1.94v.064c.209-.042.425-.064.646-.064h6.466c.239 0 .472.026.697.075v-.075h1.939a3.232 3.232 0 013.233 3.233v18.139a2.586 2.586 0 01-2.586 2.586h-.05v15.518a2.586 2.586 0 11-5.173 0v-15.518h-2.586v15.518a2.586 2.586 0 11-5.173 0v-15.518zM190.222 414.611a5.615 5.615 0 11-11.23 0 5.615 5.615 0 0111.23 0z" fill="#000"/>
  <path fill-rule="evenodd" clip-rule="evenodd" d="M192.066 444.694c-.18.061-.374.097-.577.103v16.622a2.385 2.385 0 11-4.77 0V444.798h-3.23v16.574a2.385 2.385 0 11-4.77 0v-16.574h-.58c-.252 0-.49-.046-.707-.127a1.886 1.886 0 01-2.567-1.76v-18.826c-.397-1.238.515-2.601 1.91-2.601h15.752c.366 0 .7.095.985.257.627.306 1.058.95 1.058 1.695v19.475a1.887 1.887 0 01-2.504 1.783zm-2.906-11.643c.074-.088.142-.182.2-.281l1.436-2.429v6.275l-1.575-3.443a2.774 2.774 0 00-.061-.122zm-8.943-.228l-1.579-2.544v6.507l1.607-3.591c.03-.066.063-.13.099-.192a1.882 1.882 0 01-.127-.18z" fill="#000"/>
  <path d="M393.563 214.879a5.58 5.58 0 10.001-11.159 5.58 5.58 0 00-.001 11.159zM387.098 239.856a2.586 2.586 0 01-2.587-2.586v-18.139a3.233 3.233 0 013.233-3.233h1.94v.065c.209-.043.425-.065.646-.065h6.466c.239 0 .472.026.697.075v-.075h1.94a3.232 3.232 0 013.232 3.233v18.139a2.586 2.586 0 01-2.586 2.586h-.05v15.518a2.586 2.586 0 11-5.172 0v-15.518h-2.587v15.518a2.586 2.586 0 11-5.172 0v-15.518z" fill="#000"/>
  <path d="M410.81 529.446a5.58 5.58 0 100-11.159 5.58 5.58 0 000 11.159zM404.344 554.423a2.587 2.587 0 01-2.587-2.587v-18.139a3.234 3.234 0 013.233-3.233h1.94v.065c.209-.042.425-.065.647-.065h6.465c.24 0 .473.026.697.075v-.075h1.94a3.234 3.234 0 013.233 3.233v18.139a2.587 2.587 0 01-2.587 2.587l-.05-.001v15.519a2.586 2.586 0 01-5.172 0v-15.518h-2.587v15.518a2.586 2.586 0 01-5.172 0v-15.518z" fill="#3E0DFF"/>
  <path d="M554.803 711.43a5.58 5.58 0 100-11.159 5.58 5.58 0 000 11.159zM548.337 736.407a2.586 2.586 0 01-2.587-2.586v-18.139a3.233 3.233 0 013.233-3.233h1.94v.065c.209-.043.425-.065.647-.065h6.466c.239 0 .472.026.696.075v-.075h1.94a3.233 3.233 0 013.233 3.233v18.139a2.586 2.586 0 01-2.587 2.586h-.049v15.518a2.587 2.587 0 11-5.173 0v-15.518h-2.586v15.518a2.587 2.587 0 11-5.173 0v-15.518zM471.413 712.441a5.615 5.615 0 11-11.23 0 5.615 5.615 0 0111.23 0z" fill="#000"/>
  <path fill-rule="evenodd" clip-rule="evenodd" d="M473.258 742.525c-.181.06-.374.096-.578.102v16.622a2.385 2.385 0 11-4.77 0V742.628h-3.23v16.575a2.385 2.385 0 01-4.77 0v-16.575h-.58a1.99 1.99 0 01-.706-.127 1.887 1.887 0 01-2.568-1.76v-18.826c-.397-1.238.516-2.601 1.91-2.601h15.752c.367 0 .7.095.986.257.626.307 1.057.95 1.057 1.695v19.475a1.886 1.886 0 01-2.503 1.784zm-2.907-11.644c.075-.088.142-.182.201-.281l1.436-2.429v6.275l-1.576-3.443a1.982 1.982 0 00-.061-.122zm-8.942-.228l-1.579-2.544v6.507l1.607-3.591c.029-.066.062-.13.098-.192a2.07 2.07 0 01-.126-.18z" fill="#000"/>
  <path d="M295.155 556.269a5.615 5.615 0 11-11.23 0 5.615 5.615 0 0111.23 0z" fill="#000"/>
  <path fill-rule="evenodd" clip-rule="evenodd" d="M296.999 586.352c-.18.061-.374.096-.577.103v16.622a2.385 2.385 0 01-4.77 0V586.456h-3.23v16.574a2.385 2.385 0 11-4.77 0v-16.574h-.58c-.252 0-.489-.046-.707-.127a1.887 1.887 0 01-2.567-1.76v-18.826c-.397-1.239.515-2.601 1.91-2.601h15.752c.366 0 .7.095.985.257.627.306 1.058.95 1.058 1.695v19.475a1.887 1.887 0 01-2.504 1.783zm-2.906-11.643c.074-.088.142-.182.2-.281l1.437-2.429v6.275l-1.576-3.443a2.774 2.774 0 00-.061-.122zm-8.943-.228l-1.579-2.544v6.507l1.607-3.591c.03-.066.063-.13.099-.192a1.882 1.882 0 01-.127-.18z" fill="#000"/>
  <path d="M281.214 454.529a5.58 5.58 0 100-11.159 5.58 5.58 0 000 11.159zM274.748 479.506a2.586 2.586 0 01-2.586-2.587V458.78a3.232 3.232 0 013.233-3.233h1.939v.065c.209-.043.425-.065.647-.065h6.466c.239 0 .472.026.696.075v-.075h1.94a3.233 3.233 0 013.233 3.233v18.139a2.586 2.586 0 01-2.586 2.587l-.05-.001v15.519a2.586 2.586 0 01-5.173 0v-15.518h-2.586v15.518a2.586 2.586 0 01-5.173 0v-15.518zM497.06 244.994a5.615 5.615 0 11-11.23 0 5.615 5.615 0 0111.23 0z" fill="#714EFF"/>
  <path fill-rule="evenodd" clip-rule="evenodd" d="M498.904 275.078c-.18.06-.374.096-.577.102v16.622a2.385 2.385 0 11-4.77 0V275.181h-3.23v16.575a2.385 2.385 0 01-4.77 0v-16.575h-.581c-.251 0-.489-.045-.706-.127a1.886 1.886 0 01-2.567-1.76v-18.826c-.397-1.238.515-2.601 1.91-2.601h15.752c.366 0 .7.095.985.257.626.307 1.058.95 1.058 1.695v19.475a1.887 1.887 0 01-2.504 1.784zm-2.907-11.644c.075-.088.142-.182.201-.281l1.436-2.429v6.275l-1.575-3.443a1.997 1.997 0 00-.062-.122zm-8.942-.228l-1.579-2.544v6.507l1.607-3.591c.03-.066.062-.13.099-.192a1.882 1.882 0 01-.127-.18z" fill="#714EFF"/>
  <path d="M508.613 563.485a5.58 5.58 0 100-11.16 5.58 5.58 0 000 11.16zM502.147 588.462a2.586 2.586 0 01-2.586-2.587v-18.139a3.233 3.233 0 013.233-3.233h1.94v.065c.209-.042.425-.065.646-.065h6.466c.239 0 .472.026.697.076v-.076h1.939a3.233 3.233 0 013.233 3.233v18.139a2.586 2.586 0 01-2.586 2.587l-.05-.001v15.519a2.586 2.586 0 01-5.173 0v-15.518h-2.586v15.518a2.586 2.586 0 01-5.173 0v-15.518zM523.462 697.972a5.615 5.615 0 11-11.23 0 5.615 5.615 0 0111.23 0z" fill="#714EFF"/>
  <path fill-rule="evenodd" clip-rule="evenodd" d="M525.307 728.055c-.181.06-.374.096-.578.102v16.623a2.385 2.385 0 01-4.77 0v-16.622h-3.23v16.575a2.385 2.385 0 01-4.77 0v-16.575h-.58c-.252 0-.489-.045-.706-.126a1.887 1.887 0 01-2.568-1.761v-18.825c-.397-1.239.515-2.601 1.91-2.601h15.752c.366 0 .7.094.986.256a1.887 1.887 0 011.057 1.695v19.475a1.887 1.887 0 01-2.503 1.784zm-2.907-11.644c.075-.087.142-.181.201-.281l1.436-2.429v6.276l-1.576-3.443a1.758 1.758 0 00-.061-.123zm-8.942-.228l-1.58-2.544v6.507l1.607-3.59c.03-.066.063-.13.099-.192a1.886 1.886 0 01-.126-.181z" fill="#714EFF"/>
  <path d="M309.192 447.27a5.615 5.615 0 11-11.23 0 5.615 5.615 0 0111.23 0z" fill="#714EFF"/>
  <path fill-rule="evenodd" clip-rule="evenodd" d="M311.037 477.353a2.019 2.019 0 01-.578.103v16.622a2.385 2.385 0 01-4.77 0V477.457h-3.23v16.574a2.385 2.385 0 11-4.77 0v-16.574h-.58c-.252 0-.489-.046-.707-.127a1.887 1.887 0 01-2.567-1.76v-18.826c-.397-1.239.515-2.601 1.91-2.601h15.752c.366 0 .7.095.985.256a1.887 1.887 0 011.058 1.696v19.475a1.887 1.887 0 01-2.503 1.783zm-2.907-11.643c.075-.088.142-.182.201-.281l1.436-2.429v6.275l-1.576-3.443a1.982 1.982 0 00-.061-.122zm-8.942-.228l-1.58-2.544v6.507l1.607-3.591c.03-.066.063-.13.099-.192a1.872 1.872 0 01-.126-.18z" fill="#714EFF"/>
  <path d="M514.254 250.844a5.58 5.58 0 100-11.159 5.58 5.58 0 000 11.159zM507.788 275.821a2.586 2.586 0 01-2.586-2.586v-18.139a3.232 3.232 0 013.233-3.233h1.939v.064c.209-.042.425-.064.647-.064h6.466c.239 0 .472.026.696.075v-.075h1.94a3.233 3.233 0 013.233 3.233v18.139a2.586 2.586 0 01-2.586 2.586h-.05v15.518a2.587 2.587 0 11-5.173 0v-15.518h-2.586v15.518a2.587 2.587 0 11-5.173 0v-15.518zM413.768 599.094a5.58 5.58 0 100-11.159 5.58 5.58 0 000 11.159zM407.302 624.071a2.586 2.586 0 01-2.587-2.586v-18.139a3.233 3.233 0 013.233-3.233h1.94v.065c.209-.043.425-.065.647-.065H417c.24 0 .473.026.697.075v-.075h1.94a3.233 3.233 0 013.233 3.233v18.139a2.586 2.586 0 01-2.587 2.586h-.05v15.518a2.586 2.586 0 11-5.172 0v-15.518h-2.587v15.518a2.586 2.586 0 11-5.172 0v-15.518zM208.765 568.769a5.58 5.58 0 100-11.159 5.58 5.58 0 000 11.159zM202.299 593.746a2.587 2.587 0 01-2.587-2.587V573.02a3.234 3.234 0 013.233-3.233h1.94v.065c.209-.042.425-.065.647-.065h6.466c.239 0 .472.026.696.075v-.075h1.94a3.234 3.234 0 013.233 3.233v18.139a2.587 2.587 0 01-2.587 2.587l-.05-.001v15.519a2.586 2.586 0 01-5.172 0v-15.518h-2.587v15.518a2.586 2.586 0 01-5.172 0v-15.518zM422.761 363.802a5.614 5.614 0 01-5.615 5.615 5.614 5.614 0 01-5.615-5.615 5.614 5.614 0 015.615-5.614 5.614 5.614 0 015.615 5.614z" fill="#714EFF"/>
  <path fill-rule="evenodd" clip-rule="evenodd" d="M424.605 393.886c-.18.06-.374.096-.577.102V410.611a2.385 2.385 0 01-4.77 0v-16.622h-3.23v16.575a2.385 2.385 0 01-4.77 0v-16.575h-.581c-.251 0-.489-.045-.706-.127a1.886 1.886 0 01-2.567-1.76v-18.826c-.397-1.238.515-2.6 1.909-2.6h15.752c.367 0 .701.094.986.256.626.307 1.058.95 1.058 1.695v19.475a1.887 1.887 0 01-2.504 1.784zm-2.907-11.644c.075-.088.142-.182.201-.281l1.436-2.429v6.275l-1.575-3.442a1.768 1.768 0 00-.062-.123zm-8.942-.228l-1.579-2.544v6.507l1.607-3.591a1.82 1.82 0 01.099-.191 2.032 2.032 0 01-.127-.181z" fill="#714EFF"/>
  <path d="M317.432 711.409a5.58 5.58 0 100-11.159 5.58 5.58 0 000 11.159zM310.966 736.386a2.586 2.586 0 01-2.587-2.586v-18.14a3.234 3.234 0 013.233-3.233h1.94v.065c.209-.042.425-.065.647-.065h6.466c.239 0 .472.026.696.076v-.076h1.94a3.234 3.234 0 013.233 3.233v18.14a2.586 2.586 0 01-2.587 2.586l-.05-.001v15.519a2.586 2.586 0 01-5.172 0v-15.518h-2.587v15.518a2.586 2.586 0 01-5.172 0v-15.518z" fill="#3E0DFF"/>
  <path d="M307.839 499.235a5.58 5.58 0 100-11.159 5.58 5.58 0 000 11.159zM301.373 524.212a2.586 2.586 0 01-2.586-2.587v-18.139a3.233 3.233 0 013.233-3.233h1.939v.065c.209-.042.425-.065.647-.065h6.466c.239 0 .472.026.696.076v-.076h1.94a3.234 3.234 0 013.233 3.233v18.139a2.586 2.586 0 01-2.586 2.587l-.05-.001v15.519a2.586 2.586 0 01-5.173 0v-15.518h-2.586v15.518a2.586 2.586 0 01-5.173 0v-15.518z" fill="#E6DFFF"/>
  <path d="M322.518 309.101a5.58 5.58 0 100-11.16 5.58 5.58 0 000 11.16zM316.053 334.078a2.587 2.587 0 01-2.587-2.587v-18.139a3.234 3.234 0 013.233-3.233h1.94v.065c.209-.042.425-.065.647-.065h6.465c.24 0 .473.026.697.075v-.075h1.94a3.234 3.234 0 013.233 3.233v18.139a2.587 2.587 0 01-2.587 2.587l-.05-.001v15.519a2.586 2.586 0 01-5.172 0v-15.518h-2.587v15.518a2.586 2.586 0 01-5.172 0v-15.518z" fill="#F8F7FF"/>
  <path d="M540.552 99.802a5.614 5.614 0 01-5.615 5.615 5.614 5.614 0 110-11.23 5.615 5.615 0 015.615 5.615z" fill="#B29FFF"/>
  <path fill-rule="evenodd" clip-rule="evenodd" d="M542.396 129.886c-.18.06-.374.096-.577.102V146.611a2.385 2.385 0 01-4.77 0v-16.622h-3.23v16.575a2.385 2.385 0 01-4.77 0v-16.575h-.58c-.252 0-.49-.045-.707-.127a1.887 1.887 0 01-2.567-1.76v-18.826c-.397-1.238.515-2.6 1.91-2.6h15.752c.366 0 .7.094.985.256.627.307 1.058.95 1.058 1.695v19.475a1.887 1.887 0 01-2.504 1.784zm-2.906-11.644c.074-.088.142-.182.2-.281l1.436-2.429v6.275l-1.575-3.442a2.345 2.345 0 00-.061-.123zm-8.943-.228l-1.579-2.544v6.507l1.607-3.591c.03-.065.063-.129.099-.191a2.032 2.032 0 01-.127-.181z" fill="#B29FFF"/>
  <path d="M549.918 418.057a5.58 5.58 0 100-11.159 5.58 5.58 0 000 11.159zM543.452 443.034a2.586 2.586 0 01-2.586-2.586v-18.14a3.232 3.232 0 013.233-3.232h1.939v.064c.209-.042.426-.064.647-.064h6.466c.239 0 .472.026.696.075v-.075h1.94a3.232 3.232 0 013.233 3.232v18.14a2.586 2.586 0 01-2.586 2.586h-.05v15.518a2.586 2.586 0 01-5.173 0v-15.518h-2.586v15.518a2.586 2.586 0 01-5.173 0v-15.518zM419.948 471.995a5.58 5.58 0 100-11.16 5.58 5.58 0 000 11.16zM413.482 496.972a2.586 2.586 0 01-2.586-2.587v-18.139a3.233 3.233 0 013.233-3.233h1.94v.065c.209-.043.425-.065.646-.065h6.466c.239 0 .472.026.697.075v-.075h1.939a3.233 3.233 0 013.233 3.233v18.139a2.586 2.586 0 01-2.586 2.587l-.05-.001v15.519a2.586 2.586 0 01-5.173 0v-15.518h-2.586v15.518a2.586 2.586 0 01-5.173 0v-15.518z" fill="#F8F7FF"/>
  <path d="M151.665 580.994a5.615 5.615 0 11-11.23 0 5.615 5.615 0 0111.23 0z" fill="#000"/>
  <path fill-rule="evenodd" clip-rule="evenodd" d="M153.51 611.078c-.181.06-.374.096-.578.102v16.622a2.385 2.385 0 11-4.77 0V611.181h-3.23v16.575a2.385 2.385 0 01-4.77 0v-16.575h-.58a1.99 1.99 0 01-.706-.127 1.887 1.887 0 01-2.568-1.76v-18.826c-.397-1.238.516-2.601 1.91-2.601h15.752c.367 0 .7.095.986.257.626.307 1.057.95 1.057 1.695v19.475a1.887 1.887 0 01-2.503 1.784zm-2.907-11.644c.075-.088.142-.182.201-.281l1.436-2.429v6.275l-1.576-3.443a1.982 1.982 0 00-.061-.122zm-8.942-.228l-1.579-2.544v6.507l1.607-3.591c.029-.066.062-.13.098-.192a2.07 2.07 0 01-.126-.18z" fill="#000"/>
  <path d="M137.763 588.994a5.614 5.614 0 11-11.23 0 5.615 5.615 0 0111.23 0z" fill="#F8F7FF"/>
  <path fill-rule="evenodd" clip-rule="evenodd" d="M139.608 619.078c-.18.06-.374.096-.578.102v16.622a2.384 2.384 0 11-4.77 0v-16.614l.001-.007h-3.231v16.575a2.385 2.385 0 11-4.77 0v-16.575h-.58a1.99 1.99 0 01-.706-.127 1.886 1.886 0 01-2.567-1.76v-18.826c-.397-1.238.515-2.601 1.909-2.601h15.752c.367 0 .701.095.986.257.626.307 1.058.95 1.058 1.695v19.475a1.887 1.887 0 01-2.504 1.784zm-2.907-11.644c.075-.088.142-.182.201-.281l1.436-2.429v6.275l-1.575-3.443a1.997 1.997 0 00-.062-.122zm-8.942-.228l-1.579-2.544v6.507l1.607-3.591c.029-.066.062-.13.098-.192a2.07 2.07 0 01-.126-.18z" fill="#F8F7FF"/>
  <path d="M346.351 382.688a5.614 5.614 0 11-11.23 0 5.615 5.615 0 0111.23 0z" fill="#F8F7FF"/>
  <path fill-rule="evenodd" clip-rule="evenodd" d="M348.196 412.772c-.181.06-.374.096-.578.102v16.622a2.385 2.385 0 11-4.77 0V412.875h-3.23v16.575a2.385 2.385 0 01-4.77 0v-16.575h-.58a1.99 1.99 0 01-.706-.127 1.887 1.887 0 01-2.568-1.76v-18.826c-.397-1.238.516-2.6 1.91-2.6h15.752c.367 0 .7.094.986.256.626.307 1.057.95 1.057 1.695v19.475a1.886 1.886 0 01-2.503 1.784zm-2.907-11.644c.075-.088.142-.182.201-.281l1.436-2.429v6.275l-1.576-3.442a1.758 1.758 0 00-.061-.123zm-8.942-.228l-1.579-2.544v6.507l1.607-3.591c.029-.065.062-.129.098-.191a2.25 2.25 0 01-.126-.181z" fill="#F8F7FF"/>
  <path d="M240.359 735.409a5.58 5.58 0 10.001-11.159 5.58 5.58 0 00-.001 11.159zM233.893 760.386a2.586 2.586 0 01-2.586-2.586v-18.14a3.234 3.234 0 013.233-3.233h1.94v.065c.209-.042.425-.065.646-.065h6.466c.239 0 .472.026.697.076v-.076h1.939a3.233 3.233 0 013.233 3.233v18.14a2.586 2.586 0 01-2.586 2.586l-.05-.001v15.519a2.586 2.586 0 01-5.173 0v-15.518h-2.586v15.518a2.586 2.586 0 01-5.173 0v-15.518zM281.488 279.978a5.615 5.615 0 11-11.23 0 5.615 5.615 0 0111.23 0z" fill="#F8F7FF"/>
  <path fill-rule="evenodd" clip-rule="evenodd" d="M283.332 310.061c-.18.06-.374.096-.577.102V326.786a2.385 2.385 0 01-4.77 0v-16.622h-3.23v16.575a2.385 2.385 0 01-4.77 0v-16.575h-.58c-.252 0-.489-.045-.707-.127a1.887 1.887 0 01-2.567-1.76v-18.826c-.397-1.238.515-2.6 1.91-2.6h15.752c.366 0 .7.094.985.256.627.307 1.058.95 1.058 1.695v19.475a1.887 1.887 0 01-2.504 1.784zm-2.906-11.644c.074-.088.142-.182.2-.281l1.437-2.429v6.275l-1.576-3.442a2.345 2.345 0 00-.061-.123zm-8.943-.228l-1.579-2.544v6.507l1.607-3.591c.03-.065.063-.129.099-.191a1.896 1.896 0 01-.127-.181z" fill="#F8F7FF"/>
  <path d="M484.473 79.717a5.58 5.58 0 100-11.158 5.58 5.58 0 000 11.158zM478.007 104.694a2.586 2.586 0 01-2.587-2.586v-18.14a3.233 3.233 0 013.233-3.232h1.94v.064c.209-.042.425-.064.647-.064h6.466c.239 0 .472.026.696.075v-.075h1.94a3.233 3.233 0 013.233 3.233v18.139a2.586 2.586 0 01-2.587 2.586h-.05v15.518a2.586 2.586 0 11-5.172 0v-15.518h-2.587v15.518a2.586 2.586 0 11-5.172 0v-15.518zM501.719 394.284a5.58 5.58 0 100-11.159 5.58 5.58 0 000 11.159zM495.253 419.261a2.586 2.586 0 01-2.586-2.587v-18.139a3.233 3.233 0 013.232-3.233h1.94v.065c.209-.043.425-.065.647-.065h6.466c.239 0 .472.026.696.075v-.075h1.94a3.234 3.234 0 013.233 3.233v18.139a2.587 2.587 0 01-2.587 2.587l-.049-.001v15.519a2.586 2.586 0 01-5.173 0v-15.518h-2.586v15.518a2.586 2.586 0 01-5.173 0v-15.518z" fill="#F8F7FF"/>
  <path d="M389.273 419.802a5.614 5.614 0 11-11.23 0 5.614 5.614 0 015.615-5.614 5.614 5.614 0 015.615 5.614z" fill="#3E0DFF"/>
  <path fill-rule="evenodd" clip-rule="evenodd" d="M391.118 449.886c-.181.06-.374.096-.578.102V466.611a2.385 2.385 0 01-4.77 0v-16.622h-3.23v16.575a2.385 2.385 0 01-4.77 0v-16.575h-.58a1.99 1.99 0 01-.706-.127 1.887 1.887 0 01-2.568-1.76v-18.826c-.397-1.238.515-2.6 1.91-2.6h15.752c.367 0 .7.094.986.256.626.307 1.057.95 1.057 1.695v19.475a1.887 1.887 0 01-2.503 1.784zm-2.907-11.644c.075-.088.142-.182.201-.281l1.436-2.429v6.275l-1.576-3.442a1.758 1.758 0 00-.061-.123zm-8.942-.228l-1.58-2.544v6.507l1.608-3.591c.029-.065.062-.129.098-.191a2.02 2.02 0 01-.126-.181z" fill="#3E0DFF"/>
  <path d="M399.664 326.929a5.615 5.615 0 11-11.23 0 5.615 5.615 0 0111.23 0z" fill="#F8F7FF"/>
  <path fill-rule="evenodd" clip-rule="evenodd" d="M401.508 357.012c-.18.061-.374.096-.577.102v16.623a2.385 2.385 0 01-4.77 0v-16.622h-3.23v16.575a2.385 2.385 0 01-4.77 0v-16.575h-.581c-.251 0-.489-.045-.706-.126a1.886 1.886 0 01-2.567-1.761v-18.825c-.397-1.239.515-2.601 1.91-2.601h15.752c.366 0 .7.094.985.256a1.888 1.888 0 011.058 1.695v19.475a1.887 1.887 0 01-2.504 1.784zm-2.907-11.644c.075-.087.142-.181.201-.281l1.436-2.429v6.276l-1.575-3.443a1.768 1.768 0 00-.062-.123zm-8.942-.228l-1.579-2.544v6.507l1.607-3.59c.03-.066.062-.13.099-.192a1.896 1.896 0 01-.127-.181z" fill="#F8F7FF"/>
  <path d="M603.805 126.936a5.58 5.58 0 100-11.159 5.58 5.58 0 000 11.159zM597.339 151.913a2.586 2.586 0 01-2.586-2.586v-18.14a3.233 3.233 0 013.232-3.233h1.94v.065c.209-.042.425-.065.647-.065h6.466c.239 0 .472.026.696.076v-.076h1.94a3.234 3.234 0 013.233 3.233v18.14a2.586 2.586 0 01-2.587 2.586l-.049-.001v15.519a2.586 2.586 0 01-5.173 0v-15.518h-2.586v15.518a2.586 2.586 0 01-5.173 0v-15.518zM621.051 441.502a5.58 5.58 0 100-11.159 5.58 5.58 0 000 11.159zM614.585 466.479a2.586 2.586 0 01-2.586-2.586v-18.139a3.232 3.232 0 013.233-3.233h1.939v.065c.209-.043.425-.065.647-.065h6.466c.239 0 .472.026.696.075v-.075h1.94a3.233 3.233 0 013.233 3.233v18.139a2.586 2.586 0 01-2.586 2.586h-.05v15.518a2.587 2.587 0 11-5.173 0v-15.518h-2.586v15.518a2.587 2.587 0 11-5.173 0v-15.518z" fill="#F8F7FF"/>
  <path d="M502.324 475.106a5.58 5.58 0 100-11.159 5.58 5.58 0 000 11.159zM495.858 500.083a2.586 2.586 0 01-2.587-2.586v-18.139a3.233 3.233 0 013.233-3.233h1.94v.064c.209-.042.425-.064.647-.064h6.466c.239 0 .472.026.696.075v-.075h1.94a3.233 3.233 0 013.233 3.233v18.139a2.586 2.586 0 01-2.587 2.586h-.049v15.518a2.587 2.587 0 11-5.173 0v-15.518h-2.586v15.518a2.587 2.587 0 11-5.173 0v-15.518z" fill="#B29FFF"/>
  <path d="M353.212 444.994a5.615 5.615 0 11-11.23 0 5.615 5.615 0 0111.23 0z" fill="#1C133F"/>
  <path fill-rule="evenodd" clip-rule="evenodd" d="M355.057 475.078c-.181.06-.374.096-.578.102v16.622a2.385 2.385 0 11-4.77 0V475.181h-3.23v16.575a2.385 2.385 0 01-4.77 0v-16.575h-.58a1.99 1.99 0 01-.706-.127 1.887 1.887 0 01-2.568-1.76v-18.826c-.397-1.238.515-2.601 1.91-2.601h15.752c.366 0 .7.095.986.257.626.307 1.057.95 1.057 1.695v19.475a1.887 1.887 0 01-2.503 1.784zm-2.907-11.644c.075-.088.142-.182.201-.281l1.436-2.429v6.275l-1.576-3.443a1.982 1.982 0 00-.061-.122zm-8.942-.228l-1.58-2.544v6.507l1.607-3.591c.03-.066.063-.13.099-.192a1.872 1.872 0 01-.126-.18z" fill="#1C133F"/>
  <path d="M556.969 244.616a5.58 5.58 0 100-11.159 5.58 5.58 0 000 11.159zM550.503 269.593a2.586 2.586 0 01-2.586-2.587v-18.139a3.233 3.233 0 013.232-3.233h1.94v.065c.209-.043.425-.065.647-.065h6.466c.239 0 .472.026.696.075v-.075h1.94a3.234 3.234 0 013.233 3.233v18.139a2.587 2.587 0 01-2.587 2.587l-.049-.001v15.519a2.586 2.586 0 01-5.173 0v-15.518h-2.586v15.518a2.586 2.586 0 01-5.173 0v-15.518zM574.215 559.182a5.58 5.58 0 100-11.159 5.58 5.58 0 000 11.159zM567.749 584.159a2.586 2.586 0 01-2.586-2.586v-18.14a3.232 3.232 0 013.233-3.232h1.939v.064c.209-.042.426-.064.647-.064h6.466c.239 0 .472.026.696.075v-.075h1.94a3.232 3.232 0 013.233 3.232v18.14a2.586 2.586 0 01-2.586 2.586h-.05v15.518a2.586 2.586 0 01-5.173 0v-15.518h-2.586v15.518a2.586 2.586 0 01-5.173 0v-15.518zM456.482 592.866a5.58 5.58 0 10.001-11.159 5.58 5.58 0 00-.001 11.159zM450.017 617.843a2.586 2.586 0 01-2.587-2.586v-18.14a3.234 3.234 0 013.233-3.233h1.94v.065c.209-.042.425-.065.646-.065h6.466c.239 0 .472.026.697.076v-.076h1.94a3.233 3.233 0 013.232 3.233v18.14a2.586 2.586 0 01-2.586 2.586l-.05-.001v15.519a2.586 2.586 0 01-5.172 0v-15.518h-2.587v15.518a2.586 2.586 0 01-5.172 0v-15.518zM409.112 229.746a5.615 5.615 0 11-11.23 0 5.615 5.615 0 0111.23 0z" fill="#1C133F"/>
  <path fill-rule="evenodd" clip-rule="evenodd" d="M410.957 259.829a1.985 1.985 0 01-.578.103v16.622a2.385 2.385 0 11-4.77 0V259.933h-3.23v16.574a2.385 2.385 0 11-4.77 0v-16.574h-.58c-.252 0-.489-.046-.706-.127a1.887 1.887 0 01-2.568-1.76V239.22c-.397-1.238.516-2.601 1.91-2.601h15.752c.367 0 .7.095.986.257.626.306 1.057.95 1.057 1.695v19.475a1.887 1.887 0 01-2.503 1.783zm-2.907-11.643c.075-.088.142-.182.201-.281l1.436-2.429v6.275l-1.576-3.443a1.982 1.982 0 00-.061-.122zm-8.942-.228l-1.579-2.544v6.507l1.607-3.591c.029-.066.062-.13.098-.192a2.07 2.07 0 01-.126-.18z" fill="#1C133F"/>
  <path d="M601.918 28.918a5.58 5.58 0 100-11.158 5.58 5.58 0 000 11.158zM595.452 53.895a2.586 2.586 0 01-2.586-2.586V33.17a3.233 3.233 0 013.233-3.232h1.94v.065c.208-.043.425-.065.646-.065h6.466c.239 0 .472.026.696.075v-.075h1.94a3.233 3.233 0 013.233 3.233v18.14a2.586 2.586 0 01-2.636 2.585v15.518a2.586 2.586 0 11-5.173 0V53.895h-2.586v15.518a2.586 2.586 0 11-5.173 0V53.895zM619.164 343.485a5.58 5.58 0 100-11.159 5.58 5.58 0 000 11.159zM612.698 368.462a2.586 2.586 0 01-2.586-2.587v-18.139a3.233 3.233 0 013.233-3.233h1.94v.065c.209-.042.425-.065.646-.065h6.466c.239 0 .472.026.697.076v-.076h1.939a3.233 3.233 0 013.233 3.233v18.139a2.586 2.586 0 01-2.586 2.587l-.05-.001v15.519a2.586 2.586 0 01-5.173 0v-15.518h-2.586v15.518a2.586 2.586 0 01-5.173 0v-15.518z" fill="#1C133F"/>
  <path d="M509.609 406.279a5.58 5.58 0 100-11.16 5.58 5.58 0 000 11.16zM503.143 431.256a2.586 2.586 0 01-2.586-2.587V410.53a3.234 3.234 0 013.233-3.233h1.94v.065c.209-.042.425-.065.646-.065h6.466c.239 0 .472.026.697.075v-.075h1.939a3.233 3.233 0 013.233 3.233v18.139a2.586 2.586 0 01-2.586 2.587l-.05-.001v15.519a2.586 2.586 0 01-5.173 0v-15.518h-2.586v15.518a2.586 2.586 0 01-5.173 0v-15.518z" fill="#3E0DFF"/>
  <path d="M15.45 591.716a5.615 5.615 0 11-11.23 0 5.615 5.615 0 0111.23 0z" fill="#1C133F"/>
  <path fill-rule="evenodd" clip-rule="evenodd" d="M17.295 621.799a1.98 1.98 0 01-.578.103v16.622a2.384 2.384 0 11-4.77 0V621.903h-3.23v16.574a2.384 2.384 0 11-4.77 0v-16.574h-.58c-.252 0-.49-.046-.706-.127a1.887 1.887 0 01-2.568-1.76V601.19c-.396-1.239.516-2.601 1.91-2.601h15.752c.367 0 .7.095.986.257.626.306 1.057.95 1.057 1.695v19.475a1.887 1.887 0 01-2.503 1.783zm-2.907-11.643c.075-.088.142-.182.2-.281l1.437-2.429v6.275l-1.576-3.443a2.106 2.106 0 00-.061-.122zm-8.942-.228l-1.58-2.544v6.507l1.608-3.591c.03-.066.062-.13.098-.192a1.948 1.948 0 01-.126-.18z" fill="#1C133F"/>
  <path d="M221.44 383.774a5.614 5.614 0 11-11.23 0 5.615 5.615 0 0111.23 0z" fill="#3E0DFF"/>
  <path fill-rule="evenodd" clip-rule="evenodd" d="M223.285 413.857c-.18.061-.374.096-.578.102l.001.009v16.614a2.385 2.385 0 01-4.77 0V413.96h-3.231v16.575a2.384 2.384 0 11-4.769 0V413.96h-.581c-.252 0-.489-.045-.706-.126a1.885 1.885 0 01-2.567-1.76v-18.826c-.397-1.239.515-2.601 1.909-2.601h15.752c.367 0 .701.095.986.256a1.888 1.888 0 011.058 1.696v19.475a1.886 1.886 0 01-2.504 1.783zm-2.907-11.643c.075-.088.142-.182.201-.281l1.436-2.429v6.275l-1.575-3.443a1.997 1.997 0 00-.062-.122zm-8.942-.228l-1.579-2.544v6.506l1.607-3.59c.029-.066.062-.13.098-.192a2.233 2.233 0 01-.126-.18z" fill="#3E0DFF"/>
  <path d="M229.119 700.994a5.615 5.615 0 11-11.23 0 5.615 5.615 0 0111.23 0z" fill="#3E0DFF"/>
  <path fill-rule="evenodd" clip-rule="evenodd" d="M230.963 731.078c-.18.06-.374.096-.577.102v16.622a2.385 2.385 0 11-4.77 0V731.181h-3.23v16.575a2.385 2.385 0 01-4.77 0v-16.575h-.58c-.252 0-.49-.045-.707-.127a1.886 1.886 0 01-2.567-1.76v-18.826c-.397-1.238.515-2.601 1.91-2.601h15.752c.366 0 .7.095.985.257.627.307 1.058.95 1.058 1.695v19.475a1.887 1.887 0 01-2.504 1.784zm-2.907-11.644a1.97 1.97 0 00.201-.281l1.436-2.429v6.275l-1.575-3.443a1.997 1.997 0 00-.062-.122zm-8.942-.228l-1.579-2.544v6.507l1.607-3.591c.03-.066.063-.13.099-.192a1.882 1.882 0 01-.127-.18z" fill="#3E0DFF"/>
  <path d="M116.277 738.53a5.58 5.58 0 10.001-11.159 5.58 5.58 0 00-.001 11.159zM109.811 763.507a2.586 2.586 0 01-2.586-2.586v-18.14a3.234 3.234 0 013.233-3.233h1.94v.065c.209-.042.425-.065.646-.065h6.466c.239 0 .472.026.697.076v-.076h1.939a3.233 3.233 0 013.233 3.233v18.14a2.586 2.586 0 01-2.586 2.586l-.05-.001v15.519a2.586 2.586 0 01-5.173 0v-15.518h-2.586v15.518a2.586 2.586 0 01-5.173 0v-15.518z" fill="#B29FFF"/>
  <path d="M218.495 255.454a5.615 5.615 0 11-11.23 0 5.615 5.615 0 0111.23 0z" fill="#000"/>
  <path fill-rule="evenodd" clip-rule="evenodd" d="M220.34 285.537c-.18.06-.374.096-.578.102v16.623a2.385 2.385 0 11-4.77 0V285.64h-3.23v16.575a2.385 2.385 0 11-4.77 0V285.64h-.58c-.252 0-.489-.045-.706-.126a1.887 1.887 0 01-2.568-1.761v-18.825c-.396-1.239.516-2.601 1.91-2.601H220.8c.367 0 .701.094.986.256a1.888 1.888 0 011.058 1.695v19.475a1.887 1.887 0 01-2.504 1.784zm-2.907-11.644c.075-.087.142-.181.201-.281l1.436-2.429v6.276l-1.575-3.443a2.355 2.355 0 00-.062-.123zm-8.942-.228l-1.579-2.544v6.507l1.607-3.59c.029-.066.062-.13.098-.192a2.085 2.085 0 01-.126-.181z" fill="#000"/>
  <path d="M422.901 57.385a5.58 5.58 0 10.001-11.159 5.58 5.58 0 00-.001 11.16zM416.435 82.362a2.586 2.586 0 01-2.586-2.586v-18.14a3.233 3.233 0 013.233-3.232h1.94v.064c.209-.042.425-.064.646-.064h6.466c.239 0 .472.026.697.075v-.075h1.939a3.233 3.233 0 013.233 3.233v18.139a2.586 2.586 0 01-2.636 2.586V97.88a2.587 2.587 0 11-5.173 0V82.362h-2.586V97.88a2.587 2.587 0 11-5.173 0V82.362z" fill="#B29FFF"/>
  <path d="M198.923 488.167a5.58 5.58 0 100-11.159 5.58 5.58 0 000 11.159zM192.457 513.144a2.586 2.586 0 01-2.586-2.586v-18.139a3.232 3.232 0 013.233-3.233h1.939v.064c.209-.042.425-.064.647-.064h6.466c.239 0 .472.026.696.075v-.075h1.94a3.233 3.233 0 013.233 3.233v18.139a2.586 2.586 0 01-2.586 2.586h-.05v15.518a2.587 2.587 0 11-5.173 0v-15.518h-2.586v15.518a2.587 2.587 0 11-5.173 0v-15.518zM408.077 282.557a5.58 5.58 0 100-11.159 5.58 5.58 0 000 11.159zM401.611 307.534a2.586 2.586 0 01-2.586-2.586v-18.14a3.232 3.232 0 013.233-3.232h1.94v.064c.208-.042.425-.064.646-.064h6.466c.239 0 .472.026.696.075v-.075h1.94a3.232 3.232 0 013.233 3.232v18.14a2.586 2.586 0 01-2.586 2.586h-.05v15.518a2.586 2.586 0 01-5.173 0v-15.518h-2.586v15.518a2.586 2.586 0 01-5.173 0v-15.518z" fill="#3E0DFF"/>
  <path d="M311.664 628.994a5.615 5.615 0 11-11.23 0 5.615 5.615 0 0111.23 0z" fill="#E6DFFF"/>
  <path fill-rule="evenodd" clip-rule="evenodd" d="M313.508 659.078c-.18.06-.374.096-.577.102v16.622a2.385 2.385 0 11-4.77 0V659.181h-3.23v16.575a2.385 2.385 0 01-4.77 0v-16.575h-.581c-.251 0-.489-.045-.706-.127a1.886 1.886 0 01-2.567-1.76v-18.826c-.397-1.238.515-2.601 1.91-2.601h15.752c.366 0 .7.095.985.257.626.307 1.058.95 1.058 1.695v19.475a1.887 1.887 0 01-2.504 1.784zm-2.907-11.644c.075-.088.142-.182.201-.281l1.436-2.429v6.275l-1.575-3.443a1.997 1.997 0 00-.062-.122zm-8.942-.228l-1.579-2.544v6.507l1.607-3.591c.03-.066.062-.13.099-.192a1.882 1.882 0 01-.127-.18z" fill="#E6DFFF"/>
  <path d="M166.991 359.665a5.579 5.579 0 100-11.157 5.579 5.579 0 000 11.157zM160.525 384.642a2.586 2.586 0 01-2.586-2.586v-18.139a3.232 3.232 0 013.233-3.233h1.94v.064c.209-.042.425-.064.646-.064h6.466c.239 0 .472.026.697.075v-.075h1.939a3.232 3.232 0 013.233 3.233v18.139a2.586 2.586 0 01-2.586 2.586h-.05v15.518a2.586 2.586 0 11-5.173 0v-15.518h-2.586v15.518a2.586 2.586 0 11-5.173 0v-15.518zM381.586 147.802a5.614 5.614 0 11-11.23 0 5.614 5.614 0 015.615-5.614 5.614 5.614 0 015.615 5.614z" fill="#714EFF"/>
  <path fill-rule="evenodd" clip-rule="evenodd" d="M383.431 177.886c-.181.06-.374.096-.578.102V194.611a2.385 2.385 0 01-4.77 0v-16.622h-3.23v16.575a2.385 2.385 0 01-4.77 0v-16.575h-.58a1.99 1.99 0 01-.706-.127 1.887 1.887 0 01-2.568-1.76v-18.826c-.396-1.238.516-2.6 1.91-2.6h15.752c.367 0 .7.094.986.256.626.307 1.057.95 1.057 1.695v19.475a1.886 1.886 0 01-2.503 1.784zm-2.907-11.644c.075-.088.142-.182.201-.281l1.436-2.429v6.275l-1.576-3.442a1.758 1.758 0 00-.061-.123zm-8.942-.228l-1.579-2.544v6.507l1.607-3.591c.029-.065.062-.129.098-.191a2.25 2.25 0 01-.126-.181z" fill="#714EFF"/>
  <path d="M286.415 481.556a5.58 5.58 0 100-11.159 5.58 5.58 0 000 11.159zM279.949 506.533a2.586 2.586 0 01-2.586-2.586v-18.14a3.233 3.233 0 013.233-3.233h1.939v.065c.209-.042.426-.065.647-.065h6.466c.239 0 .472.026.696.076v-.076h1.94a3.233 3.233 0 013.233 3.233v18.14a2.586 2.586 0 01-2.586 2.586l-.05-.001v15.519a2.586 2.586 0 01-5.173 0v-15.518h-2.586v15.518a2.586 2.586 0 01-5.173 0v-15.518zM496.568 275.946a5.58 5.58 0 100-11.16 5.58 5.58 0 000 11.16zM490.102 300.923a2.586 2.586 0 01-2.586-2.587v-18.139a3.234 3.234 0 013.233-3.233h1.94v.065c.209-.042.425-.065.646-.065h6.466c.239 0 .472.026.697.075v-.075h1.939a3.233 3.233 0 013.233 3.233v18.139a2.586 2.586 0 01-2.586 2.587l-.05-.001v15.519a2.586 2.586 0 01-5.173 0v-15.518h-2.586v15.518a2.586 2.586 0 01-5.173 0v-15.518zM482.603 698.53a5.58 5.58 0 10.001-11.159 5.58 5.58 0 00-.001 11.159zM476.138 723.507a2.586 2.586 0 01-2.587-2.586v-18.14a3.234 3.234 0 013.233-3.233h1.94v.065c.209-.042.425-.065.647-.065h6.465c.239 0 .473.026.697.076v-.076h1.94a3.234 3.234 0 013.233 3.233v18.14a2.586 2.586 0 01-2.587 2.586l-.05-.001v15.519a2.586 2.586 0 01-5.172 0v-15.518h-2.587v15.518a2.586 2.586 0 01-5.172 0v-15.518zM236.677 535.796a5.58 5.58 0 100-11.159 5.58 5.58 0 000 11.159zM230.211 560.773a2.586 2.586 0 01-2.586-2.586v-18.139a3.232 3.232 0 013.232-3.233h1.94v.064c.209-.042.425-.064.647-.064h6.466c.239 0 .472.026.696.075v-.075h1.94a3.233 3.233 0 013.233 3.233v18.139a2.586 2.586 0 01-2.587 2.586h-.049v15.518a2.586 2.586 0 11-5.173 0v-15.518h-2.586v15.518a2.586 2.586 0 11-5.173 0v-15.518z" fill="#000"/>
  <path d="M451.66 324.994a5.615 5.615 0 11-11.23 0 5.615 5.615 0 0111.23 0z" fill="#3E0DFF"/>
  <path fill-rule="evenodd" clip-rule="evenodd" d="M453.504 355.078c-.18.06-.374.096-.577.102v16.622a2.385 2.385 0 11-4.77 0V355.181h-3.23v16.575a2.385 2.385 0 01-4.77 0v-16.575h-.58c-.252 0-.49-.045-.707-.127a1.886 1.886 0 01-2.567-1.76v-18.826c-.397-1.238.515-2.601 1.91-2.601h15.752c.366 0 .7.095.985.257.627.307 1.058.95 1.058 1.695v19.475a1.887 1.887 0 01-2.504 1.784zm-2.907-11.644a1.97 1.97 0 00.201-.281l1.436-2.429v6.275l-1.575-3.443a1.997 1.997 0 00-.062-.122zm-8.942-.228l-1.579-2.544v6.507l1.607-3.591c.03-.066.063-.13.099-.192a1.882 1.882 0 01-.127-.18z" fill="#3E0DFF"/>
  <path d="M463.077 644.752a5.58 5.58 0 100-11.159 5.58 5.58 0 000 11.159zM456.611 669.729a2.586 2.586 0 01-2.586-2.586v-18.139a3.232 3.232 0 013.233-3.233h1.94v.065c.208-.043.425-.065.646-.065h6.466c.239 0 .472.026.696.075v-.075h1.94a3.232 3.232 0 013.233 3.233v18.139a2.586 2.586 0 01-2.586 2.586h-.05v15.518a2.586 2.586 0 11-5.173 0v-15.518h-2.586v15.518a2.586 2.586 0 11-5.173 0v-15.518z" fill="#000"/>
  <path d="M334.694 530.518a5.58 5.58 0 10.001-11.159 5.58 5.58 0 00-.001 11.159zM328.228 555.495a2.586 2.586 0 01-2.586-2.586v-18.14a3.233 3.233 0 013.233-3.232h1.94v.064c.209-.042.425-.064.646-.064h6.466c.239 0 .472.025.697.075v-.075h1.939a3.232 3.232 0 013.233 3.232v18.14a2.586 2.586 0 01-2.586 2.586h-.05v15.518a2.586 2.586 0 01-5.173 0v-15.518h-2.586v15.518a2.586 2.586 0 01-5.173 0v-15.518zM386.458 719.186a5.58 5.58 0 100-11.159 5.58 5.58 0 000 11.159zM379.992 744.163a2.586 2.586 0 01-2.586-2.586v-18.14a3.233 3.233 0 013.233-3.233h1.939v.065c.209-.042.426-.065.647-.065h6.466c.239 0 .472.026.696.076v-.076h1.94a3.233 3.233 0 013.233 3.233v18.14a2.586 2.586 0 01-2.586 2.586l-.05-.001v15.519a2.586 2.586 0 01-5.173 0v-15.518h-2.586v15.518a2.586 2.586 0 01-5.173 0v-15.518zM550.007 320.177a5.615 5.615 0 11-11.23 0 5.615 5.615 0 0111.23 0z" fill="#714EFF"/>
  <path fill-rule="evenodd" clip-rule="evenodd" d="M551.851 350.26c-.18.06-.374.096-.577.102v16.623a2.385 2.385 0 01-4.77 0v-16.622h-3.23v16.575a2.385 2.385 0 01-4.77 0v-16.575h-.58c-.252 0-.489-.045-.707-.127a1.887 1.887 0 01-2.567-1.76v-18.825c-.397-1.239.515-2.601 1.91-2.601h15.752c.366 0 .7.094.985.256a1.886 1.886 0 011.058 1.695v19.475a1.887 1.887 0 01-2.504 1.784zm-2.906-11.644c.075-.088.142-.182.2-.281l1.437-2.429v6.275l-1.576-3.442a2.345 2.345 0 00-.061-.123zm-8.942-.228l-1.58-2.544v6.507l1.607-3.591c.03-.065.063-.129.099-.191a1.722 1.722 0 01-.126-.181z" fill="#714EFF"/>
  <path d="M562.094 639.475a5.58 5.58 0 100-11.159 5.58 5.58 0 000 11.159zM555.628 664.452a2.586 2.586 0 01-2.586-2.586v-18.14a3.232 3.232 0 013.233-3.232h1.939v.064c.209-.042.425-.064.647-.064h6.466c.239 0 .472.025.696.075v-.075h1.94a3.233 3.233 0 013.233 3.232v18.14a2.586 2.586 0 01-2.586 2.586h-.05v15.518a2.586 2.586 0 01-5.173 0v-15.518h-2.586v15.518a2.586 2.586 0 01-5.173 0v-15.518zM444.361 673.159a5.58 5.58 0 10.001-11.159 5.58 5.58 0 00-.001 11.159zM437.895 698.136a2.586 2.586 0 01-2.586-2.586v-18.14a3.234 3.234 0 013.233-3.233h1.94v.065c.209-.042.425-.065.646-.065h6.466c.239 0 .472.026.697.076v-.076h1.939a3.233 3.233 0 013.233 3.233v18.14a2.586 2.586 0 01-2.586 2.586l-.05-.001v15.519a2.586 2.586 0 01-5.173 0v-15.518h-2.586v15.518a2.586 2.586 0 01-5.173 0v-15.518zM281.235 495.591a5.615 5.615 0 11-11.23 0 5.615 5.615 0 0111.23 0z" fill="#714EFF"/>
  <path fill-rule="evenodd" clip-rule="evenodd" d="M283.079 525.674c-.18.06-.374.096-.577.102v16.623a2.385 2.385 0 01-4.77 0v-16.622h-3.23v16.575a2.385 2.385 0 01-4.77 0v-16.575h-.58c-.252 0-.49-.045-.707-.127a1.886 1.886 0 01-2.567-1.76v-18.825c-.397-1.239.515-2.601 1.91-2.601h15.752c.366 0 .7.094.985.256a1.886 1.886 0 011.058 1.695v19.475a1.887 1.887 0 01-2.504 1.784zm-2.907-11.644c.075-.087.143-.182.201-.281l1.436-2.429v6.276l-1.575-3.443a1.768 1.768 0 00-.062-.123zm-8.942-.228l-1.579-2.544v6.507l1.607-3.59c.03-.066.062-.13.099-.192a1.896 1.896 0 01-.127-.181z" fill="#714EFF"/>
  <path d="M261.134 516.622a5.58 5.58 0 100-11.159 5.58 5.58 0 000 11.159zM254.668 541.599a2.586 2.586 0 01-2.586-2.587v-18.139a3.232 3.232 0 013.232-3.233h1.94v.065c.209-.043.425-.065.647-.065h6.466c.239 0 .472.026.696.075v-.075h1.94a3.233 3.233 0 013.233 3.233v18.139a2.587 2.587 0 01-2.587 2.587l-.049-.001v15.519a2.586 2.586 0 01-5.173 0v-15.518h-2.586v15.518a2.586 2.586 0 01-5.173 0v-15.518z" fill="#F8F7FF"/>
  <path d="M350.741 673.459a5.615 5.615 0 11-11.23 0 5.615 5.615 0 0111.23 0z" fill="#1C133F"/>
  <path fill-rule="evenodd" clip-rule="evenodd" d="M352.586 703.542c-.181.06-.374.096-.578.102v16.623a2.385 2.385 0 01-4.77 0v-16.622h-3.23v16.575a2.385 2.385 0 01-4.77 0v-16.575h-.58a1.99 1.99 0 01-.706-.127 1.887 1.887 0 01-2.568-1.76v-18.825c-.396-1.239.516-2.601 1.91-2.601h15.752c.367 0 .7.094.986.256a1.887 1.887 0 011.057 1.695v19.475a1.886 1.886 0 01-2.503 1.784zm-2.907-11.644c.075-.088.142-.182.201-.281l1.436-2.429v6.275l-1.576-3.442a1.758 1.758 0 00-.061-.123zm-8.942-.228l-1.579-2.544v6.507l1.607-3.591c.029-.065.062-.129.098-.191a2.085 2.085 0 01-.126-.181z" fill="#1C133F"/>
  <path d="M363.462 696.08a5.615 5.615 0 11-11.23 0 5.615 5.615 0 0111.23 0z" fill="#E6DFFF"/>
  <path fill-rule="evenodd" clip-rule="evenodd" d="M365.307 726.163a1.985 1.985 0 01-.578.103v16.622a2.385 2.385 0 11-4.77 0V726.267h-3.23v16.574a2.385 2.385 0 11-4.77 0v-16.574h-.58c-.252 0-.489-.046-.706-.127a1.887 1.887 0 01-2.568-1.76v-18.826c-.397-1.238.515-2.601 1.91-2.601h15.752c.366 0 .7.095.986.257.626.306 1.057.95 1.057 1.695v19.475a1.887 1.887 0 01-2.503 1.783zM362.4 714.52c.075-.088.142-.182.201-.281l1.436-2.429v6.275l-1.576-3.443a1.982 1.982 0 00-.061-.122zm-8.942-.228l-1.58-2.544v6.507l1.607-3.591c.03-.066.063-.13.099-.192a1.872 1.872 0 01-.126-.18z" fill="#E6DFFF"/>
</svg>
