<svg fill="none" height="167" viewBox="0 0 162 167" width="162" xmlns="http://www.w3.org/2000/svg"><g fill="#fff" stroke="#fff" stroke-width="1.08844"><path d="m21.1642 103.987h.0002c8.5539 26.243 33.2149 45.21 62.3087 45.208 12.1007 0 22.5939-2.026 32.1409-7.565 9.483-5.5 17.983-14.435 26.198-28.175h18.243c-7.509 19.3-22.1 35.058-40.578 44.088-10.872 5.311-23.0874 8.294-36.0026 8.294-19.0375.002-36.5586-6.476-50.4877-17.343h-.0003c-4.1828-3.263-8.0326-6.929-11.5102-10.929l-.0066.005c-12.68108-14.263-20.15895-35.45-20.16101-53.8998-.00478-45.3825 36.77471-82.17313 82.14731-82.17313 15.4055-.00099 31.5981 2.53447 50.0151 16.98483v.0001c.42.3293.842.6658 1.266 1.0072l.001.001c1.144.9165 2.266 1.8547 3.356 2.8258l.001.0014c.042.0372.093.0813.142.1225.016.0151.034.0297.049.0435l-.004.0055c9.523 8.5389 17.046 19.2606 21.767 31.3874l-18.219.0012c-10.846-21.2153-32.911-35.7392-58.3717-35.7392-15.2185 0-29.2262 5.1927-40.3475 13.9001l-.0002.0002c-4.8908 3.8305-9.2225 8.3416-12.8567 13.3908-7.7442 10.7626-12.3065 23.967-12.3065 38.2386.0014 7.0931 1.1337 13.9204 3.2168 20.319z"/><path d="m70.0405 128.656-.184-.044c-3.22-.77-6.3106-1.877-9.2301-3.282l11.8707-11.871h8.1146c1.2614 0 2.5015-.088 3.7178-.241 14.695-1.832 26.0675-14.3589 26.0675-29.551-.003-15.6042-12.0018-28.4065-27.2724-29.6844l.0029-.0596c-.8584-.0459-1.0682-.0441-1.439-.0413-.0508.0005-.1044.0009-.1631.0012v.0087c-.3047-.0092-.6104-.0139-.9172-.0139h-.0013l-.0161-.0001-.0626-.0004-.2386-.0018-.8583-.0058c-.7141-.0046-1.6757-.0105-2.6655-.0153-1.7259-.0083-3.5598-.0135-4.3004-.0025l-11.8463-11.8458c6.0487-2.9106 12.8224-4.548 19.9833-4.548 23.8256 0 43.4366 18.0373 45.9346 41.2027.179 1.6445.275 3.3144.275 5.0041.003 25.5222-20.681 46.2122-46.1976 46.2122-3.639 0-7.1791-.423-10.5739-1.221z"/><path d="m85.7772 80.115 3.2144 3.214-36.3519 36.353c-.1335-.122-.2583-.241-.3776-.368-2.8627-3.048-4.7912-5.687-6.0014-7.559-.6051-.935-1.0308-1.678-1.3037-2.186-.1366-.253-.2348-.447-.2985-.577-.0161-.033-.0299-.061-.0416-.086v-.021l-.0685-.123c-1.2969-2.354-2.4181-4.817-3.3389-7.374-1.1887-3.3015-2.0379-6.7648-2.5305-10.3439-.3154-2.3051-.4915-4.6544-.4915-7.0445 0-.2162.004-.4335.0095-.6563l.0001-.0066c.1742-13.9483 5.9102-26.5533 15.0939-35.7078l10.4235 10.4227zm3.7734 2.9923-.0013.0011z"/></g></svg>
