<svg fill="none" height="15" viewBox="0 0 14 15" width="14" xmlns="http://www.w3.org/2000/svg"><g fill="#b29fff"><path d="m7.35956 7.03379c-.03289.00159-.06643.00493-.10099.00977.03628-.00499.07022-.00832.10099-.00977z"/><path d="m12.3073 9.70901c-.0551 1.24279-.5734 3.21059-1.9047 3.91399 1.6477-.7985 2.9441-2.1995 3.5974-3.91399z"/><path d="m12.3073 9.70901c-1.4403 2.40019-2.96905 3.09919-5.07421 3.09919-2.5227.0002-4.66108-1.6307-5.40279-3.88737-.18065-.55023-.27894-1.13728-.27909-1.74718 0-1.22732.39562-2.36265 1.06724-3.28808-1.794491 2.25175-2.274829 5.94832-.84307 7.99343.30597.3491.64497.6693 1.01324.954 1.22622.9488 2.76877 1.5143 4.44456 1.5141 1.13692 0 2.21234-.2604 3.16942-.7241 1.3313-.7034 1.8496-2.6712 1.9047-3.91399z"/><path d="m11.7461 1.57082c.0978.07828.1961.16047.2953.24663-.096-.08484-.1947-.16678-.2953-.24663z"/><path d="m3.87998 2.61287c-.0495.03983-.09868.08003-.14663.12112.96431-.74878 2.17883-1.19529 3.49831-1.19529 2.21821 0 4.13914 1.26073 5.07484 3.09931l1.6929-.00015c-.4137-1.08554-1.086-2.04459-1.9414-2.80533-2.40768-1.623018-5.9902-.980356-8.17802.78034z"/><path d="m2.61845 3.88557c.31502-.43423.69055-.8222 1.1149-1.15158.04795-.04109.09713-.08129.14663-.12112 2.18782-1.760696 5.77034-2.403358 8.17802-.78034.0012.00089.0027.00164.0038.00247-.0067-.00599-.0134-.01164-.0204-.01755-.0992-.08616-.1975-.16835-.2953-.24663-.0372-.0297-.0742-.05905-.1112-.08778-1.6213-1.261528-3.04864-1.48318752-4.40336-1.48303993-3.99431 0-7.23201621 3.21200993-7.23153995 7.17377993.00014883 1.61251.65911395 3.46312 1.77823995 4.70942-.0011-.0014-.00188-.0029-.00286-.0042-1.431759-2.04511-.951421-5.74168.84307-7.99343z"/><path d="m6.03118 11.1178c.30537.0724.62408.1108.95186.1108 2.25811 0 4.08826-1.8156 4.08806-4.05525 0-.14833-.0085-.29478-.0242-.4391-.145-.68735-1.09235-1.90629-3.70877-2.08429-.04665-.00345-.09281-.00605-.13767-.00794-.06248-.00271-.12294-.00401-.18143-.00401h-.03646c1.41167 0 2.55627 1.13519 2.55642 2.53549 0 0 .34165 3.944-3.50781 3.9443z"/><path d="m6.03118 11.1178c3.84946-.0003 3.50781-3.9443 3.50781-3.9443 0 1.29311-.97576 2.35923-2.23699 2.51524-.10466.01292-.2111.02039-.31912.02039h-.72954l-1.09999 1.09067c.27615.1374.57035.2448.87784.3178 0 .0001-.00001.0002-.00001.0002z"/><path d="m6.98257 4.63801c.12713.00189.09742-.00245.21789.00401.04486.00189.09102.00449.13767.00794 2.61642.178 3.56377 1.39694 3.70877 2.08429-.2212-2.03289-1.95652-3.61579-4.06498-3.61579-.65769 0-1.27847.15494-1.82911.42879l1.09817 1.08893c.07885-.00301.73159.00183.73159.00183z"/><path d="m4.76993 8.27575c.74291-.69987 1.93129-1.15709 2.48864-1.23219.03456-.00484.0681-.00818.10099-.00977.16098-.0085.29907.02089.40495.09127l-3.17059-3.14406c-.83155.80493-1.3527 1.92362-1.36824 3.16339-.0005.01943-.00089.03873-.00089.0581 0 .20961.01557.41557.04349.61733.04358.3137.11871.61719.22366.90677.08145.22417.18048.4401.29526.64632.18175-.31744.5482-.68773.98273-1.09716z"/><path d="m4.46857 10.2975c.0217.0228.04572.0435.06969.0654l3.2455-3.21851-.01925-.01933c-.10588-.07038-.24397-.09977-.40495-.09127-.03077.00145-.06471.00478-.10099.00977-.55735.0751-1.74573.53232-2.48864 1.23219-.43453.40943-.80098.77972-.98273 1.09716l.00002.00012s.17643.39142.68135.92447z"/></g></svg>