<svg fill="none" height="67" viewBox="0 0 108 67" width="108" xmlns="http://www.w3.org/2000/svg" xmlns:xlink="http://www.w3.org/1999/xlink"><linearGradient id="a"><stop offset="0" stop-color="#002f33"/><stop offset=".297991" stop-color="#0096a2"/><stop offset="1" stop-color="#005e66"/></linearGradient><linearGradient id="b" gradientUnits="userSpaceOnUse" x1="39.8517" x2="105.761" xlink:href="#a" y1="61.8223" y2="61.8222"/><linearGradient id="c" gradientUnits="userSpaceOnUse" x1="37.4288" x2="103.338" xlink:href="#a" y1="53.4206" y2="53.4206"/><linearGradient id="d" gradientUnits="userSpaceOnUse" x1="42.091" x2="108" xlink:href="#a" y1="45.0181" y2="45.018"/><linearGradient id="e" gradientUnits="userSpaceOnUse" x1="41.2574" x2="107.167" xlink:href="#a" y1="36.6164" y2="36.6164"/><circle cx="32.9545" cy="33.0697" fill="#0096a2" r="32.9545"/><circle cx="32.9546" cy="33.0674" fill="#89e5d3" r="22.9678"/><circle cx="32.946" cy="33.4866" r="28.6456" stroke="#005e66" stroke-width=".978844"/><path d="m39.8517 57.6211h65.9093v8.40232h-65.9093z" fill="url(#b)"/><g stroke-width=".652562"><path d="m42.4175 59.4128v4.8203" stroke="#89e5d3"/><path d="m45.2536 59.4128.0001 4.8203" stroke="#89e5d3"/><path d="m48.5652 59.4128v4.8203" stroke="#89e5d3"/><path d="m52.2184 59.4128v4.8203" stroke="#89e5d3"/><g stroke="#eafaf7"><path d="m58.6662 59.4128v4.8203"/><path d="m66.2353 59.4128v4.8203"/><path d="m74.4946 59.4128v4.8203"/><path d="m83.2492 59.4128v4.8203"/><path d="m90.0531 59.4128v4.8203"/></g><path d="m96.2756 59.4128v4.8203" stroke="#d5f6f0"/><path d="m101.282 59.4128v4.8203" stroke="#d5f6f0"/><path d="m103.665 59.4128v4.8203" stroke="#d5f6f0"/></g><path d="m37.4288 49.2195h65.9093v8.40232h-65.9093z" fill="url(#c)"/><g stroke-width=".652562"><path d="m39.9922 51.0081v4.8203" stroke="#89e5d3"/><path d="m42.8305 51.0081v4.8203" stroke="#89e5d3"/><path d="m46.1401 51.0081v4.8203" stroke="#89e5d3"/><path d="m49.7943 51.0081v4.8203" stroke="#89e5d3"/><path d="m56.2442 51.0081v4.8203" stroke="#eafaf7"/><path d="m63.8101 51.0081v4.8203" stroke="#eafaf7"/><path d="m72.0705 51.0081v4.8203" stroke="#eafaf7"/><path d="m80.823 51.0081v4.8203" stroke="#eafaf7"/><path d="m87.629 51.0081v4.8203" stroke="#eafaf7"/><path d="m93.8505 51.0081-.0001 4.8203" stroke="#d5f6f0"/><path d="m98.8563 51.0081v4.8203" stroke="#d5f6f0"/><path d="m101.239 51.0081v4.8203" stroke="#d5f6f0"/></g><path d="m42.091 40.8169h65.9093v8.40232h-65.9093z" fill="url(#d)"/><path d="m44.6567 42.6082v4.8203" stroke="#89e5d3" stroke-width=".652562"/><path d="m47.4949 42.6082v4.8203" stroke="#89e5d3" stroke-width=".652562"/><path d="m50.8066 42.6082v4.8203" stroke="#89e5d3" stroke-width=".652562"/><path d="m54.4598 42.6082v4.8203" stroke="#89e5d3" stroke-width=".652562"/><path d="m60.9107 42.6082v4.8203" stroke="#eafaf7" stroke-width=".652562"/><path d="m68.4766 42.6082v4.8203" stroke="#eafaf7" stroke-width=".652562"/><path d="m76.7359 42.6082v4.8203" stroke="#eafaf7" stroke-width=".652562"/><path d="m85.4885 42.6082-.0001 4.8203" stroke="#eafaf7" stroke-width=".652562"/><path d="m92.2955 42.6082v4.8203" stroke="#eafaf7" stroke-width=".652562"/><path d="m98.518 42.6082v4.8203" stroke="#d5f6f0" stroke-width=".652562"/><path d="m103.521 42.6082v4.8203" stroke="#d5f6f0" stroke-width=".652562"/><path d="m105.903 42.6082v4.8203" stroke="#d5f6f0" stroke-width=".652562"/><path d="m41.2574 32.4153h65.9093v8.40232h-65.9093z" fill="url(#e)"/><path d="m43.8235 34.2073v4.8203" stroke="#89e5d3" stroke-width=".652562"/><path d="m46.6597 34.2073v4.8203" stroke="#89e5d3" stroke-width=".652562"/><path d="m49.9703 34.2073v4.8203" stroke="#89e5d3" stroke-width=".652562"/><path d="m53.6224 34.2073v4.8203" stroke="#89e5d3" stroke-width=".652562"/><path d="m60.0723 34.2073v4.8203" stroke="#eafaf7" stroke-width=".652562"/><path d="m67.6403 34.2073v4.8203" stroke="#eafaf7" stroke-width=".652562"/><path d="m75.8986 34.2073v4.8203" stroke="#eafaf7" stroke-width=".652562"/><path d="m84.6532 34.2073v4.8203" stroke="#eafaf7" stroke-width=".652562"/><path d="m91.4581 34.2073v4.8203" stroke="#eafaf7" stroke-width=".652562"/><path d="m97.6817 34.2073v4.8203" stroke="#d5f6f0" stroke-width=".652562"/><path d="m102.685 34.2073v4.8203" stroke="#d5f6f0" stroke-width=".652562"/><path d="m105.069 34.2073v4.8203" stroke="#d5f6f0" stroke-width=".652562"/></svg>