<svg width="535" height="290" viewBox="0 0 535 290" fill="none" xmlns="http://www.w3.org/2000/svg">
<rect x="18.541" y="90.5" width="194" height="199" fill="url(#paint0_radial_12252_23222)" stroke="black"/>
<rect x="74.541" y="21.5" width="127" height="267" fill="url(#paint1_linear_12252_23222)" stroke="url(#paint2_linear_12252_23222)" stroke-width="3"/>
<rect x="83.041" y="80.0002" width="20" height="20" fill="#1C133F"/>
<rect x="83.041" y="170" width="20" height="20" fill="#1C133F"/>
<rect x="83.041" y="110" width="20" height="20" fill="#1C133F"/>
<rect x="83.041" y="200" width="20" height="20" fill="#F8F7FF"/>
<rect x="83.041" y="140" width="20" height="20" fill="#1C133F"/>
<rect x="83.041" y="230" width="20" height="20" fill="#1C133F"/>
<rect x="113.041" y="80.0002" width="20" height="20" fill="#1C133F"/>
<rect x="113.041" y="170" width="20" height="20" fill="#1C133F"/>
<rect x="113.041" y="110" width="20" height="20" fill="#1C133F"/>
<rect x="113.041" y="200" width="20" height="20" fill="#1C133F"/>
<rect x="113.041" y="140" width="20" height="20" fill="#F8F7FF"/>
<rect x="113.041" y="230" width="20" height="20" fill="#1C133F"/>
<rect x="173.041" y="80.0002" width="20" height="20" fill="#1C133F"/>
<rect x="173.041" y="170" width="20" height="20" fill="#1C133F"/>
<rect x="173.041" y="110" width="20" height="20" fill="#1C133F"/>
<rect x="173.041" y="200" width="20" height="20" fill="#1C133F"/>
<rect x="173.041" y="140" width="20" height="20" fill="#1C133F"/>
<rect x="173.041" y="230" width="20" height="20" fill="#1C133F"/>
<rect x="173.041" y="260" width="20" height="30" fill="#1C133F"/>
<rect x="143.041" y="80.0002" width="20" height="20" fill="#F8F7FF"/>
<rect x="143.041" y="170" width="20" height="20" fill="#F8F7FF"/>
<rect x="143.041" y="110" width="20" height="20" fill="#1C133F"/>
<rect x="143.041" y="200" width="20" height="20" fill="#1C133F"/>
<rect x="143.041" y="140" width="20" height="20" fill="#1C133F"/>
<rect x="143.041" y="230" width="20" height="20" fill="#1C133F"/>
<path d="M1.5 231.5H91.5413V278.5H1.5V231.5ZM99.4498 231.5H114.716L129.091 251.983C130.686 254.255 131.541 256.963 131.541 259.738V278.5H99.4498V231.5Z" fill="url(#paint3_linear_12252_23222)" stroke="url(#paint4_linear_12252_23222)" stroke-width="3"/>
<circle cx="13.041" cy="280" r="10" fill="url(#paint5_linear_12252_23222)"/>
<circle cx="13.041" cy="280" r="5" fill="#714EFF"/>
<circle cx="115.496" cy="280" r="10" fill="url(#paint6_linear_12252_23222)"/>
<circle cx="115.496" cy="280" r="5" fill="#714EFF"/>
<path d="M103.041 233.653H112.805L125.495 250.963V255H103.041V233.653Z" fill="url(#paint7_linear_12252_23222)"/>
<mask id="mask0_12252_23222" style="mask-type:alpha" maskUnits="userSpaceOnUse" x="224" y="0" width="311" height="290">
<rect x="224.842" width="309.198" height="290" fill="url(#paint8_radial_12252_23222)"/>
</mask>
<g mask="url(#mask0_12252_23222)">
<rect x="233.041" y="80" width="301" height="215" fill="url(#paint9_radial_12252_23222)"/>
<path d="M354.625 288.5L365.408 91.5H381.878L391.466 288.5H354.625Z" fill="url(#paint10_linear_12252_23222)" stroke="url(#paint11_linear_12252_23222)" stroke-width="3"/>
<mask id="path-37-inside-1_12252_23222" fill="white">
<path fill-rule="evenodd" clip-rule="evenodd" d="M388.693 42.1402C391.63 39.7382 393.872 36.5172 395.069 32.8257C397.16 34.2564 399.689 35.0933 402.414 35.0933C409.605 35.0933 415.435 29.2634 415.435 22.0719C415.435 14.8804 409.605 9.05054 402.414 9.05054C398.079 9.05054 394.239 11.1687 391.872 14.4264C388.214 9.6958 382.483 6.64966 376.041 6.64966C369.435 6.64966 363.576 9.85289 359.934 14.791C358.913 14.6933 357.878 14.6433 356.831 14.6433C346.755 14.6433 337.76 19.2706 331.855 26.516C327.32 21.9078 321.011 19.0505 314.035 19.0505C300.228 19.0505 289.035 30.2434 289.035 44.0505C289.035 49.3316 290.673 54.2302 293.468 58.2663C287.112 62.9762 282.992 70.5321 282.992 79.0503C282.992 84.0834 284.431 88.7806 286.919 92.7533C284.496 95.1179 282.992 98.4193 282.992 102.072C282.992 109.263 288.822 115.093 296.014 115.093C302.233 115.093 307.434 110.733 308.726 104.902L308.844 104.903C321.322 104.903 331.735 96.0631 334.162 84.3048C335.722 84.6953 337.354 84.9026 339.035 84.9026C344.649 84.9026 349.722 82.5898 353.355 78.8652C354.496 78.9878 355.656 79.0506 356.831 79.0506C374.616 79.0506 389.034 64.6326 389.034 46.847C389.034 45.2482 388.918 43.6766 388.693 42.1402Z"/>
</mask>
<path fill-rule="evenodd" clip-rule="evenodd" d="M388.693 42.1402C391.63 39.7382 393.872 36.5172 395.069 32.8257C397.16 34.2564 399.689 35.0933 402.414 35.0933C409.605 35.0933 415.435 29.2634 415.435 22.0719C415.435 14.8804 409.605 9.05054 402.414 9.05054C398.079 9.05054 394.239 11.1687 391.872 14.4264C388.214 9.6958 382.483 6.64966 376.041 6.64966C369.435 6.64966 363.576 9.85289 359.934 14.791C358.913 14.6933 357.878 14.6433 356.831 14.6433C346.755 14.6433 337.76 19.2706 331.855 26.516C327.32 21.9078 321.011 19.0505 314.035 19.0505C300.228 19.0505 289.035 30.2434 289.035 44.0505C289.035 49.3316 290.673 54.2302 293.468 58.2663C287.112 62.9762 282.992 70.5321 282.992 79.0503C282.992 84.0834 284.431 88.7806 286.919 92.7533C284.496 95.1179 282.992 98.4193 282.992 102.072C282.992 109.263 288.822 115.093 296.014 115.093C302.233 115.093 307.434 110.733 308.726 104.902L308.844 104.903C321.322 104.903 331.735 96.0631 334.162 84.3048C335.722 84.6953 337.354 84.9026 339.035 84.9026C344.649 84.9026 349.722 82.5898 353.355 78.8652C354.496 78.9878 355.656 79.0506 356.831 79.0506C374.616 79.0506 389.034 64.6326 389.034 46.847C389.034 45.2482 388.918 43.6766 388.693 42.1402Z" fill="white"/>
<path d="M388.693 42.1402L386.794 39.8178L385.478 40.8935L385.724 42.5749L388.693 42.1402ZM395.069 32.8257L396.763 30.3499L393.453 28.0846L392.216 31.9001L395.069 32.8257ZM391.872 14.4264L389.499 16.2615L391.947 19.4275L394.299 16.1897L391.872 14.4264ZM359.934 14.791L359.649 17.7773L361.34 17.9391L362.349 16.5716L359.934 14.791ZM331.855 26.516L329.717 28.6202L332.065 31.0066L334.18 28.4113L331.855 26.516ZM293.468 58.2663L295.254 60.6766L297.588 58.9468L295.934 56.5583L293.468 58.2663ZM286.919 92.7533L289.014 94.9L290.745 93.2106L289.461 91.1609L286.919 92.7533ZM308.726 104.902L308.733 101.902L306.32 101.897L305.798 104.253L308.726 104.902ZM308.844 104.903L308.838 107.903H308.844V104.903ZM334.162 84.3048L334.891 81.3946L331.857 80.635L331.224 83.6982L334.162 84.3048ZM353.355 78.8652L353.675 75.8823L352.225 75.7267L351.207 76.7706L353.355 78.8652ZM390.592 44.4626C393.966 41.7036 396.544 38.0013 397.923 33.7512L392.216 31.9001C391.199 35.033 389.295 37.7728 386.794 39.8178L390.592 44.4626ZM393.375 35.3015C395.949 37.0628 399.066 38.0933 402.414 38.0933V32.0933C400.313 32.0933 398.371 31.45 396.763 30.3499L393.375 35.3015ZM402.414 38.0933C411.262 38.0933 418.435 30.9203 418.435 22.0719H412.435C412.435 27.6065 407.949 32.0933 402.414 32.0933V38.0933ZM418.435 22.0719C418.435 13.2235 411.262 6.05054 402.414 6.05054V12.0505C407.949 12.0505 412.435 16.5373 412.435 22.0719H418.435ZM402.414 6.05054C397.078 6.05054 392.352 8.66183 389.445 12.663L394.299 16.1897C396.126 13.6755 399.08 12.0505 402.414 12.0505V6.05054ZM394.246 12.5913C390.044 7.15762 383.452 3.64966 376.041 3.64966V9.64966C381.515 9.64966 386.385 12.234 389.499 16.2615L394.246 12.5913ZM376.041 3.64966C368.441 3.64966 361.703 7.33849 357.52 13.0103L362.349 16.5716C365.449 12.3673 370.428 9.64966 376.041 9.64966V3.64966ZM356.831 17.6433C357.782 17.6433 358.722 17.6887 359.649 17.7773L360.22 11.8046C359.104 11.6978 357.973 11.6433 356.831 11.6433V17.6433ZM334.18 28.4113C339.54 21.8349 347.695 17.6433 356.831 17.6433V11.6433C345.815 11.6433 335.98 16.7063 329.529 24.6207L334.18 28.4113ZM333.993 24.4117C328.917 19.2541 321.848 16.0505 314.035 16.0505V22.0505C320.175 22.0505 325.722 24.5616 329.717 28.6202L333.993 24.4117ZM314.035 16.0505C298.571 16.0505 286.035 28.5866 286.035 44.0505H292.035C292.035 31.9003 301.885 22.0505 314.035 22.0505V16.0505ZM286.035 44.0505C286.035 49.9613 287.87 55.4525 291.001 59.9742L295.934 56.5583C293.475 53.0079 292.035 48.7019 292.035 44.0505H286.035ZM291.681 55.856C284.595 61.1074 279.992 69.5416 279.992 79.0503H285.992C285.992 71.5227 289.629 64.8451 295.254 60.6766L291.681 55.856ZM279.992 79.0503C279.992 84.6629 281.598 89.9096 284.376 94.3456L289.461 91.1609C287.263 87.6516 285.992 83.504 285.992 79.0503H279.992ZM284.823 90.6065C281.846 93.5124 279.992 97.5783 279.992 102.072H285.992C285.992 99.2602 287.146 96.7234 289.014 94.9L284.823 90.6065ZM279.992 102.072C279.992 110.92 287.165 118.093 296.014 118.093V112.093C290.479 112.093 285.992 107.607 285.992 102.072H279.992ZM296.014 118.093C303.67 118.093 310.065 112.726 311.655 105.552L305.798 104.253C304.803 108.74 300.796 112.093 296.014 112.093V118.093ZM308.72 107.902L308.838 107.903L308.851 101.903L308.733 101.902L308.72 107.902ZM308.844 107.903C322.773 107.903 334.391 98.0354 337.1 84.9114L331.224 83.6982C329.079 94.0909 319.87 101.903 308.844 101.903V107.903ZM333.434 87.215C335.23 87.6646 337.107 87.9026 339.035 87.9026V81.9026C337.602 81.9026 336.214 81.7259 334.891 81.3946L333.434 87.215ZM339.035 87.9026C345.49 87.9026 351.329 85.2395 355.502 80.9598L351.207 76.7706C348.116 79.9402 343.807 81.9026 339.035 81.9026V87.9026ZM356.831 76.0506C355.763 76.0506 354.71 75.9935 353.675 75.8823L353.034 81.8481C354.282 81.982 355.549 82.0506 356.831 82.0506V76.0506ZM386.034 46.847C386.034 62.9757 372.959 76.0506 356.831 76.0506V82.0506C376.273 82.0506 392.034 66.2894 392.034 46.847H386.034ZM385.724 42.5749C385.928 43.9678 386.034 45.3941 386.034 46.847H392.034C392.034 45.1022 391.907 43.3854 391.661 41.7055L385.724 42.5749Z" fill="#492AC8" mask="url(#path-37-inside-1_12252_23222)"/>
<path d="M346.564 111.419C346.547 111.67 346.528 111.949 346.507 112.255C346.401 113.834 346.254 116.128 346.091 118.989C345.764 124.711 345.373 132.703 345.111 141.789C344.589 159.94 344.586 182.532 346.686 200.097C348.848 218.188 354.417 240.779 359.426 258.799C361.934 267.82 364.307 275.715 366.053 281.355C366.926 284.175 367.642 286.432 368.141 287.985C368.189 288.137 368.236 288.281 368.281 288.419H226.895C226.94 288.279 226.986 288.131 227.035 287.976C227.525 286.423 228.228 284.165 229.086 281.344C230.801 275.702 233.131 267.804 235.594 258.782C240.514 240.758 245.983 218.169 248.107 200.095C250.172 182.527 250.169 159.937 249.656 141.787C249.399 132.702 249.013 124.71 248.692 118.989C248.532 116.128 248.387 113.835 248.283 112.256C248.262 111.95 248.244 111.671 248.227 111.419H346.564Z" fill="url(#paint12_linear_12252_23222)" stroke="url(#paint13_linear_12252_23222)" stroke-width="3"/>
</g>
<path d="M423.044 134.83H428.422L430.526 289.919H420.996L423.044 134.83Z" fill="url(#paint14_linear_12252_23222)"/>
<path d="M418.628 97.9276C420.169 92.2254 425.092 85.3935 427.725 82.0186C428.296 81.2867 429.424 81.693 429.424 82.6213V129.919H424.159C424.159 129.919 415.32 110.167 418.628 97.9276Z" fill="url(#paint15_linear_12252_23222)"/>
<path d="M397.022 157.729C391.313 159.245 382.935 158.398 378.696 157.805C377.776 157.676 377.564 156.496 378.368 156.032L419.33 132.383L421.962 136.942C421.962 136.942 409.276 154.473 397.022 157.729Z" fill="url(#paint16_linear_12252_23222)"/>
<path d="M461.528 144.061C465.696 148.247 469.151 155.927 470.757 159.894C471.106 160.755 470.19 161.528 469.386 161.064L428.424 137.415L431.057 132.856C431.057 132.856 452.582 135.077 461.528 144.061Z" fill="url(#paint17_linear_12252_23222)"/>
<circle cx="425.762" cy="132.383" r="6.67459" fill="url(#paint18_radial_12252_23222)"/>
<rect x="489.314" y="200" width="3.28732" height="89.9194" fill="url(#paint19_linear_12252_23222)"/>
<path d="M480.541 179.311H501.376V190C501.376 194.694 497.57 198.5 492.876 198.5H489.041C484.347 198.5 480.541 194.694 480.541 190V179.311Z" fill="#D1C6FF" stroke="#492AC8" stroke-width="3"/>
<path d="M483.496 167.395C483.496 166.435 484.274 165.657 485.234 165.657V165.657C486.194 165.657 486.972 166.435 486.972 167.395V177.81H483.496V167.395Z" fill="white"/>
<path d="M494.758 167.395C494.758 166.435 495.536 165.657 496.496 165.657V165.657C497.456 165.657 498.234 166.435 498.234 167.395V177.81H494.758V167.395Z" fill="white"/>
<defs>
<radialGradient id="paint0_radial_12252_23222" cx="0" cy="0" r="1" gradientUnits="userSpaceOnUse" gradientTransform="translate(38.7704 105.887) rotate(48.5589) scale(252.241 245.042)">
<stop stop-color="#714EFF"/>
<stop offset="1"/>
</radialGradient>
<linearGradient id="paint1_linear_12252_23222" x1="98.8193" y1="50.9142" x2="213.792" y2="276.472" gradientUnits="userSpaceOnUse">
<stop stop-color="#B29FFF"/>
<stop offset="1" stop-color="#714EFF"/>
</linearGradient>
<linearGradient id="paint2_linear_12252_23222" x1="81.0916" y1="27.139" x2="222.597" y2="266.278" gradientUnits="userSpaceOnUse">
<stop stop-color="#D1C6FF"/>
<stop offset="1" stop-color="#492AC8"/>
</linearGradient>
<linearGradient id="paint3_linear_12252_23222" x1="119.587" y1="241.144" x2="2.65384" y2="250.864" gradientUnits="userSpaceOnUse">
<stop stop-color="white"/>
<stop offset="1" stop-color="#D1C6FF"/>
</linearGradient>
<linearGradient id="paint4_linear_12252_23222" x1="7.93753" y1="234.596" x2="126.513" y2="276.447" gradientUnits="userSpaceOnUse">
<stop stop-color="#492AC8"/>
<stop offset="1" stop-color="#1C133F"/>
</linearGradient>
<linearGradient id="paint5_linear_12252_23222" x1="13.041" y1="270" x2="13.041" y2="290" gradientUnits="userSpaceOnUse">
<stop stop-color="#492AC8"/>
<stop offset="1" stop-color="#1C133F"/>
</linearGradient>
<linearGradient id="paint6_linear_12252_23222" x1="115.496" y1="270" x2="115.496" y2="290" gradientUnits="userSpaceOnUse">
<stop stop-color="#492AC8"/>
<stop offset="1" stop-color="#1C133F"/>
</linearGradient>
<linearGradient id="paint7_linear_12252_23222" x1="114.268" y1="233.653" x2="114.268" y2="255" gradientUnits="userSpaceOnUse">
<stop stop-color="#492AC8"/>
<stop offset="1" stop-color="#1C133F"/>
</linearGradient>
<radialGradient id="paint8_radial_12252_23222" cx="0" cy="0" r="1" gradientUnits="userSpaceOnUse" gradientTransform="translate(278.055 59.0339) rotate(46.7587) scale(317.054 338.044)">
<stop stop-color="#D1C6FF"/>
<stop offset="1" stop-color="#714EFF"/>
</radialGradient>
<radialGradient id="paint9_radial_12252_23222" cx="0" cy="0" r="1" gradientUnits="userSpaceOnUse" gradientTransform="translate(284.843 123.766) rotate(39.0012) scale(272.085 284.296)">
<stop stop-color="#D1C6FF"/>
<stop offset="1" stop-color="#714EFF"/>
</radialGradient>
<linearGradient id="paint10_linear_12252_23222" x1="353.041" y1="90" x2="386.283" y2="291.117" gradientUnits="userSpaceOnUse">
<stop stop-color="#D1C6FF"/>
<stop offset="1" stop-color="#492AC8"/>
</linearGradient>
<linearGradient id="paint11_linear_12252_23222" x1="362.136" y1="90" x2="387.763" y2="290.674" gradientUnits="userSpaceOnUse">
<stop stop-color="#714EFF"/>
<stop offset="1" stop-color="#1C133F"/>
</linearGradient>
<linearGradient id="paint12_linear_12252_23222" x1="253.688" y1="115.09" x2="351.963" y2="289.919" gradientUnits="userSpaceOnUse">
<stop stop-color="#714EFF"/>
<stop offset="1"/>
</linearGradient>
<linearGradient id="paint13_linear_12252_23222" x1="261.403" y1="109.919" x2="357.518" y2="289.919" gradientUnits="userSpaceOnUse">
<stop stop-color="#F8F7FF"/>
<stop offset="1" stop-color="#B29FFF"/>
</linearGradient>
<linearGradient id="paint14_linear_12252_23222" x1="425.761" y1="134.83" x2="425.761" y2="289.919" gradientUnits="userSpaceOnUse">
<stop stop-color="white"/>
<stop offset="1" stop-color="#E6DFFF"/>
</linearGradient>
<linearGradient id="paint15_linear_12252_23222" x1="423.655" y1="79.9194" x2="423.655" y2="129.919" gradientUnits="userSpaceOnUse">
<stop stop-color="white"/>
<stop offset="1" stop-color="#D1C6FF"/>
</linearGradient>
<linearGradient id="paint16_linear_12252_23222" x1="381.748" y1="157.906" x2="419.923" y2="135.183" gradientUnits="userSpaceOnUse">
<stop stop-color="white"/>
<stop offset="1" stop-color="#D1C6FF"/>
</linearGradient>
<linearGradient id="paint17_linear_12252_23222" x1="474.61" y1="157.419" x2="431.309" y2="132.419" gradientUnits="userSpaceOnUse">
<stop stop-color="white"/>
<stop offset="1" stop-color="#D1C6FF"/>
</linearGradient>
<radialGradient id="paint18_radial_12252_23222" cx="0" cy="0" r="1" gradientUnits="userSpaceOnUse" gradientTransform="translate(424.137 129.494) rotate(80.3535) scale(9.70042)">
<stop stop-color="white"/>
<stop offset="1" stop-color="#E6DFFF"/>
</radialGradient>
<linearGradient id="paint19_linear_12252_23222" x1="490.958" y1="200" x2="490.958" y2="289.919" gradientUnits="userSpaceOnUse">
<stop stop-color="#492AC8"/>
<stop offset="1" stop-color="#1C133F"/>
</linearGradient>
</defs>
</svg>
