<svg fill="none" height="178" viewBox="0 0 648 178" width="648" xmlns="http://www.w3.org/2000/svg" xmlns:xlink="http://www.w3.org/1999/xlink"><linearGradient id="a" gradientUnits="userSpaceOnUse" x1="-4.20106" x2="631.839" y1="9.00003" y2="135.306"><stop offset="0"/><stop offset=".250414" stop-color="#3d4243"/><stop offset="1"/></linearGradient><linearGradient id="b" gradientUnits="userSpaceOnUse" x1="324" x2="324" y1="9" y2="169"><stop offset="0" stop-color="#fafafa"/><stop offset="1" stop-color="#fafafa" stop-opacity="0"/></linearGradient><linearGradient id="c" gradientUnits="userSpaceOnUse" x1="22.3837" x2="324" y1="29.5792" y2="169"><stop offset=".190102" stop-opacity="0"/><stop offset=".325283" stop-color="#fff"/><stop offset=".562435" stop-opacity="0"/></linearGradient><linearGradient id="d" gradientUnits="userSpaceOnUse" x1="26" x2="26" y1="0" y2="94"><stop offset="0" stop-color="#0c0d0d"/><stop offset=".348958" stop-color="#3d4243"/><stop offset="1" stop-color="#0c0d0d"/></linearGradient><clipPath id="e"><path d="m0 0h648v178h-648z"/></clipPath><g clip-path="url(#e)"><path d="m0 0h648v178h-648z" fill="#fff"/><path d="m4.5 4.5h639v169h-639z" fill="#0c0d0d"/><g stroke-width="9"><path d="m4.5 4.5h639v169h-639z" stroke="url(#a)"/><path d="m4.5 4.5h639v169h-639z" stroke="url(#b)" stroke-opacity=".19"/><path d="m4.5 4.5h639v169h-639z" stroke="url(#c)" stroke-opacity=".54"/></g><path d="m228.899 134.799h-10.24l-2.56 18.88h7.68z" fill="#89e5d3"/><path d="m431.899 134.799h-10.24l-2.56 18.88h7.68z" fill="#89e5d3"/><path d="m0 0h52v94h-52z" fill="url(#d)" transform="translate(31.5 42)"/><path d="m51.7538 95h10.24c0-.768.32-1.6 1.024-2.496.704-.832 1.536-1.728 2.56-2.624s1.984-1.856 3.008-2.944c1.024-1.024 1.856-2.368 2.56-3.904s1.088-3.136 1.088-4.928c0-3.904-1.472-7.04-4.352-9.344-2.944-2.304-6.336-3.456-10.24-3.456-3.584 0-6.848.96-9.728 2.752s-4.992 4.352-6.4 7.552l8.832 5.056c1.536-3.584 3.84-5.376 6.912-5.376 3.136 0 4.736 1.28 4.736 3.712 0 1.024-.384 2.048-1.088 3.072s-1.536 1.984-2.56 2.88-1.984 1.856-3.008 2.816-1.856 2.048-2.56 3.328-1.024 2.56-1.024 3.904zm5.12 16.896c1.664 0 3.072-.576 4.288-1.792 1.152-1.152 1.792-2.624 1.792-4.288s-.64-3.072-1.792-4.288c-1.216-1.152-2.624-1.792-4.288-1.792s-3.136.64-4.288 1.792c-1.216 1.216-1.792 2.624-1.792 4.288s.576 3.136 1.792 4.288c1.152 1.216 2.624 1.792 4.288 1.792z" fill="#89e5d3"/><path d="m0 0h52v94h-52z" fill="url(#d)" transform="translate(87.5 42)"/><path d="m107.754 95h10.24c0-.768.32-1.6 1.024-2.496.704-.832 1.536-1.728 2.56-2.624s1.984-1.856 3.008-2.944c1.024-1.024 1.856-2.368 2.56-3.904s1.088-3.136 1.088-4.928c0-3.904-1.472-7.04-4.352-9.344-2.944-2.304-6.336-3.456-10.24-3.456-3.584 0-6.848.96-9.728 2.752s-4.9922 4.352-6.4002 7.552l8.8322 5.056c1.536-3.584 3.84-5.376 6.912-5.376 3.136 0 4.736 1.28 4.736 3.712 0 1.024-.384 2.048-1.088 3.072s-1.536 1.984-2.56 2.88-1.984 1.856-3.008 2.816-1.856 2.048-2.56 3.328-1.024 2.56-1.024 3.904zm5.12 16.896c1.664 0 3.072-.576 4.288-1.792 1.152-1.152 1.792-2.624 1.792-4.288s-.64-3.072-1.792-4.288c-1.216-1.152-2.624-1.792-4.288-1.792s-3.136.64-4.288 1.792c-1.216 1.216-1.792 2.624-1.792 4.288s.576 3.136 1.792 4.288c1.152 1.216 2.624 1.792 4.288 1.792z" fill="#89e5d3"/><path d="m0 0h52v94h-52z" fill="url(#d)" transform="translate(143.5 42)"/><path d="m163.754 95h10.24c0-.768.32-1.6 1.024-2.496.704-.832 1.536-1.728 2.56-2.624s1.984-1.856 3.008-2.944c1.024-1.024 1.856-2.368 2.56-3.904s1.088-3.136 1.088-4.928c0-3.904-1.472-7.04-4.352-9.344-2.944-2.304-6.336-3.456-10.24-3.456-3.584 0-6.848.96-9.728 2.752s-4.992 4.352-6.4 7.552l8.832 5.056c1.536-3.584 3.84-5.376 6.912-5.376 3.136 0 4.736 1.28 4.736 3.712 0 1.024-.384 2.048-1.088 3.072s-1.536 1.984-2.56 2.88-1.984 1.856-3.008 2.816-1.856 2.048-2.56 3.328-1.024 2.56-1.024 3.904zm5.12 16.896c1.664 0 3.072-.576 4.288-1.792 1.152-1.152 1.792-2.624 1.792-4.288s-.64-3.072-1.792-4.288c-1.216-1.152-2.624-1.792-4.288-1.792s-3.136.64-4.288 1.792c-1.216 1.216-1.792 2.624-1.792 4.288s.576 3.136 1.792 4.288c1.152 1.216 2.624 1.792 4.288 1.792z" fill="#89e5d3"/><path d="m0 0h52v94h-52z" fill="url(#d)" transform="translate(234.5 42)"/><path d="m254.754 95h10.24c0-.768.32-1.6 1.024-2.496.704-.832 1.536-1.728 2.56-2.624s1.984-1.856 3.008-2.944c1.024-1.024 1.856-2.368 2.56-3.904s1.088-3.136 1.088-4.928c0-3.904-1.472-7.04-4.352-9.344-2.944-2.304-6.336-3.456-10.24-3.456-3.584 0-6.848.96-9.728 2.752s-4.992 4.352-6.4 7.552l8.832 5.056c1.536-3.584 3.84-5.376 6.912-5.376 3.136 0 4.736 1.28 4.736 3.712 0 1.024-.384 2.048-1.088 3.072s-1.536 1.984-2.56 2.88-1.984 1.856-3.008 2.816-1.856 2.048-2.56 3.328-1.024 2.56-1.024 3.904zm5.12 16.896c1.664 0 3.072-.576 4.288-1.792 1.152-1.152 1.792-2.624 1.792-4.288s-.64-3.072-1.792-4.288c-1.216-1.152-2.624-1.792-4.288-1.792s-3.136.64-4.288 1.792c-1.216 1.216-1.792 2.624-1.792 4.288s.576 3.136 1.792 4.288c1.152 1.216 2.624 1.792 4.288 1.792z" fill="#89e5d3"/><path d="m0 0h52v94h-52z" fill="url(#d)" transform="translate(290.5 42)"/><path d="m310.754 95h10.24c0-.768.32-1.6 1.024-2.496.704-.832 1.536-1.728 2.56-2.624s1.984-1.856 3.008-2.944c1.024-1.024 1.856-2.368 2.56-3.904s1.088-3.136 1.088-4.928c0-3.904-1.472-7.04-4.352-9.344-2.944-2.304-6.336-3.456-10.24-3.456-3.584 0-6.848.96-9.728 2.752s-4.992 4.352-6.4 7.552l8.832 5.056c1.536-3.584 3.84-5.376 6.912-5.376 3.136 0 4.736 1.28 4.736 3.712 0 1.024-.384 2.048-1.088 3.072s-1.536 1.984-2.56 2.88-1.984 1.856-3.008 2.816-1.856 2.048-2.56 3.328-1.024 2.56-1.024 3.904zm5.12 16.896c1.664 0 3.072-.576 4.288-1.792 1.152-1.152 1.792-2.624 1.792-4.288s-.64-3.072-1.792-4.288c-1.216-1.152-2.624-1.792-4.288-1.792s-3.136.64-4.288 1.792c-1.216 1.216-1.792 2.624-1.792 4.288s.576 3.136 1.792 4.288c1.152 1.216 2.624 1.792 4.288 1.792z" fill="#89e5d3"/><path d="m0 0h52v94h-52z" fill="url(#d)" transform="translate(346.5 42)"/><path d="m366.754 95h10.24c0-.768.32-1.6 1.024-2.496.704-.832 1.536-1.728 2.56-2.624s1.984-1.856 3.008-2.944c1.024-1.024 1.856-2.368 2.56-3.904s1.088-3.136 1.088-4.928c0-3.904-1.472-7.04-4.352-9.344-2.944-2.304-6.336-3.456-10.24-3.456-3.584 0-6.848.96-9.728 2.752s-4.992 4.352-6.4 7.552l8.832 5.056c1.536-3.584 3.84-5.376 6.912-5.376 3.136 0 4.736 1.28 4.736 3.712 0 1.024-.384 2.048-1.088 3.072s-1.536 1.984-2.56 2.88-1.984 1.856-3.008 2.816-1.856 2.048-2.56 3.328-1.024 2.56-1.024 3.904zm5.12 16.896c1.664 0 3.072-.576 4.288-1.792 1.152-1.152 1.792-2.624 1.792-4.288s-.64-3.072-1.792-4.288c-1.216-1.152-2.624-1.792-4.288-1.792s-3.136.64-4.288 1.792c-1.216 1.216-1.792 2.624-1.792 4.288s.576 3.136 1.792 4.288c1.152 1.216 2.624 1.792 4.288 1.792z" fill="#89e5d3"/><path d="m0 0h52v94h-52z" fill="url(#d)" transform="translate(437.5 42)"/><path d="m457.754 95h10.24c0-.768.32-1.6 1.024-2.496.704-.832 1.536-1.728 2.56-2.624s1.984-1.856 3.008-2.944c1.024-1.024 1.856-2.368 2.56-3.904s1.088-3.136 1.088-4.928c0-3.904-1.472-7.04-4.352-9.344-2.944-2.304-6.336-3.456-10.24-3.456-3.584 0-6.848.96-9.728 2.752s-4.992 4.352-6.4 7.552l8.832 5.056c1.536-3.584 3.84-5.376 6.912-5.376 3.136 0 4.736 1.28 4.736 3.712 0 1.024-.384 2.048-1.088 3.072s-1.536 1.984-2.56 2.88-1.984 1.856-3.008 2.816-1.856 2.048-2.56 3.328-1.024 2.56-1.024 3.904zm5.12 16.896c1.664 0 3.072-.576 4.288-1.792 1.152-1.152 1.792-2.624 1.792-4.288s-.64-3.072-1.792-4.288c-1.216-1.152-2.624-1.792-4.288-1.792s-3.136.64-4.288 1.792c-1.216 1.216-1.792 2.624-1.792 4.288s.576 3.136 1.792 4.288c1.152 1.216 2.624 1.792 4.288 1.792z" fill="#89e5d3"/><path d="m0 0h52v94h-52z" fill="url(#d)" transform="translate(493.5 42)"/><path d="m513.754 95h10.24c0-.768.32-1.6 1.024-2.496.704-.832 1.536-1.728 2.56-2.624s1.984-1.856 3.008-2.944c1.024-1.024 1.856-2.368 2.56-3.904s1.088-3.136 1.088-4.928c0-3.904-1.472-7.04-4.352-9.344-2.944-2.304-6.336-3.456-10.24-3.456-3.584 0-6.848.96-9.728 2.752s-4.992 4.352-6.4 7.552l8.832 5.056c1.536-3.584 3.84-5.376 6.912-5.376 3.136 0 4.736 1.28 4.736 3.712 0 1.024-.384 2.048-1.088 3.072s-1.536 1.984-2.56 2.88-1.984 1.856-3.008 2.816-1.856 2.048-2.56 3.328-1.024 2.56-1.024 3.904zm5.12 16.896c1.664 0 3.072-.576 4.288-1.792 1.152-1.152 1.792-2.624 1.792-4.288s-.64-3.072-1.792-4.288c-1.216-1.152-2.624-1.792-4.288-1.792s-3.136.64-4.288 1.792c-1.216 1.216-1.792 2.624-1.792 4.288s.576 3.136 1.792 4.288c1.152 1.216 2.624 1.792 4.288 1.792z" fill="#89e5d3"/><path d="m0 0h52v94h-52z" fill="url(#d)" transform="translate(549.5 42)"/><path d="m569.754 95h10.24c0-.768.32-1.6 1.024-2.496.704-.832 1.536-1.728 2.56-2.624s1.984-1.856 3.008-2.944c1.024-1.024 1.856-2.368 2.56-3.904s1.088-3.136 1.088-4.928c0-3.904-1.472-7.04-4.352-9.344-2.944-2.304-6.336-3.456-10.24-3.456-3.584 0-6.848.96-9.728 2.752s-4.992 4.352-6.4 7.552l8.832 5.056c1.536-3.584 3.84-5.376 6.912-5.376 3.136 0 4.736 1.28 4.736 3.712 0 1.024-.384 2.048-1.088 3.072s-1.536 1.984-2.56 2.88-1.984 1.856-3.008 2.816-1.856 2.048-2.56 3.328-1.024 2.56-1.024 3.904zm5.12 16.896c1.664 0 3.072-.576 4.288-1.792 1.152-1.152 1.792-2.624 1.792-4.288s-.64-3.072-1.792-4.288c-1.216-1.152-2.624-1.792-4.288-1.792s-3.136.64-4.288 1.792c-1.216 1.216-1.792 2.624-1.792 4.288s.576 3.136 1.792 4.288c1.152 1.216 2.624 1.792 4.288 1.792z" fill="#89e5d3"/></g></svg>