<svg fill="none" height="474" viewBox="0 0 443 474" width="443" xmlns="http://www.w3.org/2000/svg"><path d="m379.113 433.33 1.843-61.423 28.839 17.764z" fill="#0096a2"/><path d="m375.374 408.479-7.493 41.211-12.377-30.482z" fill="#00474d"/><path d="m0 0h62.0977v22.581h-62.0977z" fill="#005e66" transform="matrix(-.0284836 .999594 -.879916 .47513 377.192 346.378)"/><g fill="#d5f6f0"><path d="m362.659 371.308c-.041 1.433.948 2.043 2.21 1.362 1.261-.681 2.316-2.395 2.357-3.828s-.948-2.042-2.21-1.361c-1.261.681-2.317 2.395-2.357 3.827z"/><path d="m364.609 381.794c-1.262.681-2.251.072-2.21-1.361.04-1.433 1.096-3.147 2.357-3.828 1.262-.681 2.251-.072 2.21 1.361s-1.096 3.147-2.357 3.828z"/><path d="m362.139 389.557c-.041 1.433.948 2.042 2.21 1.361 1.261-.681 2.316-2.395 2.357-3.828.041-1.432-.948-2.042-2.21-1.361-1.261.681-2.317 2.395-2.357 3.828z"/><path d="m361.879 398.681c-.041 1.433.948 2.042 2.21 1.361 1.261-.681 2.316-2.394 2.357-3.827s-.948-2.043-2.21-1.362c-1.261.682-2.317 2.395-2.357 3.828z"/></g><path d="m0 0h62.0977v22.581h-62.0977z" fill="#0096a2" transform="matrix(-.0284836 .999594 -.851432 -.524465 396.419 358.223)"/><path d="m397.459 348.268-10.242 16.134-.014.516.321-11.286z" fill="#005e66"/><path d="m355.677 418.895 1.661-61.535-28.839-17.765z" fill="#018a95"/><path d="m394.648 420.278-26.809 29.562 7.558-41.496z" fill="#017983"/><path d="m373.421 419.273 13.754 9.284-6.082 6.764-9.496-5.803z" fill="#89e5d3"/><g clip-rule="evenodd" fill="#fff" fill-rule="evenodd"><path d="m331.476 179.509c3.752 1.884 6.503 4.162 7.89 6.674 2.615-.356 5.349-.544 8.163-.544 18.759 0 33.966 8.378 33.966 18.714 0 3.863-2.124 7.453-5.764 10.434 7.112 3.928 11.535 9.441 11.535 15.545 0 7.18-6.121 13.541-15.539 17.469 2.514 2.297 3.992 5.092 3.998 8.108 4.707 2.132 7.935 6.509 7.935 11.563 0 3.151-1.255 6.04-3.342 8.285 1.643 1.157 2.672 2.816 2.672 4.659 0 3.496-3.704 6.331-8.273 6.331s-8.273-2.835-8.273-6.331c0-.081.002-.161.006-.241-5.692-.998-10.185-4.999-11.348-10.089-.517.023-1.039.035-1.565.035-12.255 0-22.189-6.354-22.189-14.192 0-2.163.757-4.213 2.11-6.048-8.677-2.341-15.545-6.52-19.07-11.659-7.113 3.198-16.249 5.121-26.214 5.121-22.686 0-41.077-9.965-41.077-22.258 0-1.372.229-2.715.667-4.019-2.004.152-4.065.231-6.168.231-19.901 0-36.034-7.087-36.034-15.829 0-7.296 11.238-13.44 26.524-15.272-.407-.981-.621-1.997-.621-3.037 0-5.423 5.812-10.166 14.489-12.752-2.659-3.325-4.166-7.122-4.166-11.153 0-13.114 15.946-23.744 35.616-23.744 16.893 0 31.039 7.84 34.697 18.36 11.938 2.07 20.819 9.904 20.819 19.252 0 2.235-.508 4.383-1.444 6.387z"/><path d="m197.662 60.8124c-2.409.8286-5.032 1.2835-7.776 1.2835-1.125 0-2.229-.0764-3.307-.2237-2.164 5.2616-9.389 9.1278-17.968 9.1278-10.289 0-18.63-5.5605-18.63-12.4198s8.341-12.4198 18.63-12.4198c.073 0 .147.0003.221.0009-.146-.88-.221-1.7798-.221-2.6951 0-10.2889 9.525-18.6297 21.275-18.6297 6.544 0 12.398 2.587 16.3 6.6567 1.583-.2916 3.251-.4474 4.973-.4474 10.289 0 18.63 5.5605 18.63 12.4198 0 1.8718-.621 3.6469-1.734 5.2387 4.838 1.6729 7.945 4.268 7.945 7.1817 0 5.0458-9.317 9.1363-20.81 9.1363-7.36 0-13.828-1.6778-17.528-4.2099z"/><path d="m34.8848 15.9852c.802-1.3097 1.2463-2.7529 1.2463-4.269 0-5.97233-6.8939-10.813856-15.3979-10.813856s-15.3979 4.841526-15.3979 10.813856c0 .4841.0453.9608.13308 1.4281-3.19757 2.6856-5.230099 6.7133-5.230099 11.2158 0 8.0856 6.554619 14.6402 14.640119 14.6402 4.2433 0 8.065-1.8053 10.7389-4.6896 2.7938 1.9971 6.6832 3.2357 10.9845 3.2357 8.5041 0 15.3979-4.8415 15.3979-10.8139 0-5.9723-6.8938-10.8138-15.3979-10.8138-.5804 0-1.1533.0225-1.717.0665z"/></g></svg>