<svg fill="none" height="552" viewBox="0 0 499 552" width="499" xmlns="http://www.w3.org/2000/svg"><path d="m366.712 42.3939 23.561 56.7554-33.591-4.3446z" fill="#0096a2"/><path d="m380.334 63.5135-10.104-40.6498 23.809 22.7039z" fill="#00474d"/><path d="m0 0h62.0977v22.581h-62.0977z" fill="#005e66" transform="matrix(-.384785 -.923006 .606954 -.794737 404.195 120.876)"/><g fill="#d5f6f0"><path d="m407.2 92.1759c-.552-1.3231-1.704-1.4721-2.574-.3329s-1.129 3.1353-.577 4.4584 1.704 1.4721 2.574.3329 1.128-3.1353.577-4.4584z"/><path d="m401.113 83.4179c.87-1.1392 2.023-.9902 2.574.3329.552 1.3231.294 3.3191-.576 4.4584-.87 1.1392-2.023.9901-2.574-.333-.552-1.323-.294-3.3191.576-4.4583z"/><path d="m400.175 75.3257c-.551-1.3231-1.704-1.4722-2.574-.333s-1.128 3.1353-.577 4.4584c.552 1.3231 1.704 1.4721 2.574.3329.871-1.1392 1.129-3.1353.577-4.4583z"/><path d="m396.663 66.9005c-.552-1.3231-1.704-1.4721-2.574-.3329s-1.128 3.1353-.577 4.4584c.552 1.3231 1.704 1.4721 2.574.3329s1.128-3.1353.577-4.4584z"/></g><path d="m0 0h62.0977v22.581h-62.0977z" fill="#0096a2" transform="matrix(-.384785 -.923006 .991739 .128269 381.799 117.979)"/><path d="m384.941 127.482 2.707-18.918-.198-.477 4.344 10.422z" fill="#005e66"/><path d="m394.011 45.9236 23.771 56.7824 33.592 4.345z" fill="#018a95"/><path d="m357.914 60.677 12.293-37.9677 10.161 40.9372z" fill="#017983"/><path d="m377.678 52.8701-16.354-2.8118 2.765-8.666 11.042 1.3883z" fill="#89e5d3"/><path d="m42.809 443.093c18.0496 23.081 156.99 106.548 231.598 54.288 31.919-22.358 37.317-91.44-28.584-136.887-35.794-24.684-90.589-43.645-97.275-9.014s48.326 71.174 99.637 82.83c51.312 11.656 105.079-7.285 114.101-42.765 9.022-35.479-25.377-72.945-45.291-85.383-19.915-12.437-62.261-31.619-72.334-8.844-10.073 22.776 27.373 44.539 61.441 53.706 26.869 7.23 66.238 3.599 96.343-28.955 41.934-45.344 30.915-122.582 28.732-159.845" stroke="#d7dadb" stroke-width="2.33471"/></svg>