<svg fill="none" height="48" viewBox="0 0 48 48" width="48" xmlns="http://www.w3.org/2000/svg"><path d="m24 25.3333 10.6666-6.6667v-2.6666l-10.6666 6.6666-10.6667-6.6666v2.6666z"/><path clip-rule="evenodd" d="m0 24c0-13.2548 10.7452-24 24-24s24 10.7452 24 24-10.7452 24-24 24-24-10.7452-24-24zm13.3333-10.6667h21.3333c1.4667 0 2.6667 1.2 2.6667 2.6667v16c0 1.4666-1.2 2.6666-2.6667 2.6666h-21.3333c-1.4667 0-2.6667-1.2-2.6667-2.6666l.0134-16c0-1.4667 1.1866-2.6667 2.6533-2.6667z" fill-rule="evenodd"/></svg>