<svg fill="none" height="186" viewBox="0 0 199 186" width="199" xmlns="http://www.w3.org/2000/svg" xmlns:xlink="http://www.w3.org/1999/xlink"><linearGradient id="a" gradientUnits="userSpaceOnUse" x1="123.634" x2="77.7381" y1="84.8704" y2="121.259"><stop offset="0" stop-color="#005e66"/><stop offset=".5" stop-color="#89e5d3"/></linearGradient><circle cx="112.602" cy="97.5892" fill="#fff" r="35.9388"/><path d="m104.357 114.496c-15.968-6.656-29.1783-14.9633-37.6543-22.8101-4.2572-3.9412-7.0659-7.5327-8.5376-10.4965-1.481-2.9825-1.2799-4.5911-.9637-5.3496s1.3172-2.0337 4.4781-3.0813c3.1411-1.0409 7.6691-1.5741 13.4652-1.3246 11.5398.4968 26.7393 4.032 42.7073 10.6881 15.967 6.6561 29.178 14.9635 37.654 22.81 4.257 3.942 7.066 7.533 8.537 10.497 1.481 2.982 1.28 4.591.964 5.349-.316.759-1.317 2.034-4.478 3.082-3.141 1.041-7.669 1.574-13.465 1.324-11.54-.496-26.74-4.032-42.707-10.688z" stroke="url(#a)" stroke-width="12.3499"/><path clip-rule="evenodd" d="m142.536 117.227-63.5093-32.0727c2.659-7.9251 8.0796-14.9636 15.8512-19.5334 17.1101-10.0608 39.1361-4.3465 49.1961 12.7633 7.362 12.52 6.277 27.6728-1.538 38.8428z" fill="#fff" fill-rule="evenodd"/><g fill="#0096a2"><path d="m157.236.611328.861 7.623622 6-4.78154-4.781 5.99989 7.623.8615-7.623.8615 4.781 5.9999-6-4.7816-.861 7.6237-.862-7.6237-6 4.7816 4.782-5.9999-7.624-.8615 7.624-.8615-4.782-5.99989 6 4.78154z"/><path d="m62.9054 163.901 4.0565 7.202 8.2015-1.033-7.2026 4.056 1.0337 8.202-4.0566-7.203-8.2014 1.034 7.2025-4.057z"/><path d="m124.52 19.7619-2.807 5.1783 5.126 2.9013-5.792-1.0685-1.175 5.7712-.774-5.8387-5.852.6654 5.314-2.5399-2.441-5.3599 4.057 4.2689z"/><path d="m194.617 62.3658-1.717 3.3889 2.488 2.8712-3.389-1.7178-2.871 2.4883 1.718-3.3889-2.489-2.8711 3.389 1.7178z"/><path d="m91.8977 168.258-3.6307-.559-.6262 3.62-.5901-3.626-3.6361.523 3.2659-1.682-1.621-3.296 2.6086 2.586 2.6343-2.56-1.6538 3.28z"/><path d="m.945614 133.73c-.340145 2.893.399506 7.128 2.741856 9.098 2.34235 1.969 6.78713 1.37 9.40603.61 2.3784-.691 4.3565-1.289 5.4847-2.72-.3885.414-1.0321.669-1.2173.73-.3839.126-1.3324.226-1.7928 0 .7144 0 2.9965-1.196 4.15-2.091 2.22-1.722 2.8034-3.335 2.8034-4.198-.3214.541-1.0815 1.423-1.5358 1.679-.3625.204-1.3814.569-1.5433.311.6502-.216 1.5378-1.478 2.3509-2.49.5975-.745 1.5072-3.435 1.3669-3.903-.2313.708-1.0954 1.186-1.3669 1.298-.3115.13-.6933.056-.8076 0l9.763-11.584-2.9719 2.091 7.625-11.525-2.7956 1.207 8.5458-13.9305-8.5458 7.7085 1.8575-3.856-10.5623 10.543 1.2749-3.808c-2.5432 2.881-7.5216 9.079-8.1848 9.919-.66.835-5.749 6.839-6.7845 8.462-.26883-.269-.1227-1.075.1682-1.813.281-.713.6673-1.797 1.1352-2.176-.5552.126-1.70969.576-2.71188 1.768-.88361 1.051-2.58659 3.271-2.92512 4.117-.09956-.362-.121-.568.18902-1.847.13542-.559.62732-.945 1.19317-1.576-1.02289.327-2.38828 2.197-3.03347 3.034-.64519.836-1.75695 3.728-1.86647 4.942-.229-.408-.29382-1.281-.16704-2.127.14309-.954.34856-1.159.5868-1.909-.72985.998-1.48965 1.144-1.829796 4.036z"/></g><circle cx="8.47335" cy="136.664" fill="#eafaf7" r="5.7502"/></svg>