<svg fill="none" height="275" viewBox="0 0 352 275" width="352" xmlns="http://www.w3.org/2000/svg"><path d="m0 0h14.6599v100.277h-14.6599z" fill="#714eff" transform="matrix(.866025 .5 -.866025 .5 142.75 77.5293)"/><path d="m0 0h14.6599v136.826h-14.6599z" fill="#714eff" transform="matrix(.866025 .5 -.866025 .5 284.752 159.508)"/><path d="m0 0h14.6599v70.9569h-14.6599z" fill="#714eff" transform="matrix(.866025 .5 -.866025 .5 239.627 70.4648)"/><path d="m0 0h15.7169v178.591h-15.7169z" fill="#714eff" transform="matrix(-.866025 .5 -.866025 -.5 297.412 166.826)"/><path d="m0 0h33.5858v83.9646h-33.5858z" fill="#e6dfff" transform="matrix(.866025 .5 -.00000002 1 0 38.3906)"/><path d="m0 0h33.5858v41.9823h-33.5858z" fill="#b29fff" transform="matrix(.866025 -.5 .00000002 1 58.2363 113.959)"/><path d="m0 0h33.5858v83.9646h-33.5858z" fill="#b29fff" transform="matrix(.866025 -.5 .00000002 1 29.0879 55.1836)"/><path d="m0 0h33.5858v41.9823h-33.5858z" fill="#e6dfff" transform="matrix(.866025 .5 -.00000002 1 29.0879 97.1641)"/><path d="m0 0h33.5858v33.5858h-33.5858z" fill="#f8f7ff" transform="matrix(.866025 -.5 .866025 .5 0 38.3906)"/><path d="m0 0h33.5858v33.5858h-33.5858z" fill="#f8f7ff" transform="matrix(.866025 -.5 .866025 .5 29.0879 97.1641)"/><g fill="#3e0dff"><path d="m0 0h3.35858v3.35858h-3.35858z" transform="matrix(.866025 .5 -.00000002 1 2.72852 45.7539)"/><path d="m0 0h3.35858v3.35858h-3.35858z" transform="matrix(.866025 .5 -.00000002 1 9.63867 49.7441)"/><path d="m0 0h3.35858v3.35858h-3.35858z" transform="matrix(.866025 .5 -.00000002 1 16.5449 53.7324)"/><path d="m0 0h3.35858v3.35858h-3.35858z" transform="matrix(.866025 .5 -.00000002 1 23.4531 57.7227)"/><path d="m0 0h3.35858v3.35858h-3.35858z" transform="matrix(.866025 .5 -.00000002 1 2.72852 52.6562)"/><path d="m0 0h3.35858v3.35858h-3.35858z" transform="matrix(.866025 .5 -.00000002 1 9.63867 56.6465)"/><path d="m0 0h3.35858v3.35858h-3.35858z" transform="matrix(.866025 .5 -.00000002 1 16.5449 60.6348)"/><path d="m0 0h3.35858v3.35858h-3.35858z" transform="matrix(.866025 .5 -.00000002 1 23.4531 64.6211)"/><path d="m0 0h3.35858v3.35858h-3.35858z" transform="matrix(.866025 .5 -.00000002 1 2.72852 59.5605)"/><path d="m0 0h3.35858v3.35858h-3.35858z" transform="matrix(.866025 .5 -.00000002 1 9.63867 63.5469)"/><path d="m0 0h3.35858v3.35858h-3.35858z" transform="matrix(.866025 .5 -.00000002 1 16.5449 67.5371)"/><path d="m0 0h3.35858v3.35858h-3.35858z" transform="matrix(.866025 .5 -.00000002 1 23.4531 71.5254)"/><path d="m0 0h3.35858v3.35858h-3.35858z" transform="matrix(.866025 .5 -.00000002 1 2.72852 66.4648)"/><path d="m0 0h3.35858v3.35858h-3.35858z" transform="matrix(.866025 .5 -.00000002 1 9.63867 70.4512)"/><path d="m0 0h3.35858v3.35858h-3.35858z" transform="matrix(.866025 .5 -.00000002 1 16.5449 74.4414)"/><path d="m0 0h3.35858v3.35858h-3.35858z" transform="matrix(.866025 .5 -.00000002 1 23.4531 78.4258)"/><path d="m0 0h3.35858v3.35858h-3.35858z" transform="matrix(.866025 .5 -.00000002 1 2.72852 73.3652)"/><path d="m0 0h3.35858v3.35858h-3.35858z" transform="matrix(.866025 .5 -.00000002 1 9.63867 77.3535)"/><path d="m0 0h3.35858v3.35858h-3.35858z" transform="matrix(.866025 .5 -.00000002 1 16.5449 81.3418)"/><path d="m0 0h3.35858v3.35858h-3.35858z" transform="matrix(.866025 .5 -.00000002 1 23.4531 85.3301)"/><path d="m0 0h3.35858v3.35858h-3.35858z" transform="matrix(.866025 .5 -.00000002 1 2.72852 80.2676)"/><path d="m0 0h3.35858v3.35858h-3.35858z" transform="matrix(.866025 .5 -.00000002 1 9.63867 84.2539)"/><path d="m0 0h3.35858v3.35858h-3.35858z" transform="matrix(.866025 .5 -.00000002 1 16.5449 88.2441)"/><path d="m0 0h3.35858v3.35858h-3.35858z" transform="matrix(.866025 .5 -.00000002 1 23.4531 92.2324)"/><path d="m0 0h3.35858v3.35858h-3.35858z" transform="matrix(.866025 .5 -.00000002 1 2.72852 87.168)"/><path d="m0 0h3.35858v3.35858h-3.35858z" transform="matrix(.866025 .5 -.00000002 1 9.63867 91.1582)"/><path d="m0 0h3.35858v3.35858h-3.35858z" transform="matrix(.866025 .5 -.00000002 1 16.5449 95.1484)"/><path d="m0 0h3.35858v3.35858h-3.35858z" transform="matrix(.866025 .5 -.00000002 1 23.4531 99.1348)"/><path d="m0 0h3.35858v3.35858h-3.35858z" transform="matrix(.866025 .5 -.00000002 1 2.72852 94.0723)"/><path d="m0 0h3.35858v3.35858h-3.35858z" transform="matrix(.866025 .5 -.00000002 1 9.63867 98.0605)"/><path d="m0 0h3.35858v3.35858h-3.35858z" transform="matrix(.866025 .5 -.00000002 1 16.5449 102.049)"/><path d="m0 0h3.35858v3.35858h-3.35858z" transform="matrix(.866025 .5 -.00000002 1 23.4531 106.037)"/><path d="m0 0h3.35858v3.35858h-3.35858z" transform="matrix(.866025 .5 -.00000002 1 2.72852 100.975)"/><path d="m0 0h3.35858v3.35858h-3.35858z" transform="matrix(.866025 .5 -.00000002 1 9.63867 104.963)"/><path d="m0 0h3.35858v3.35858h-3.35858z" transform="matrix(.866025 .5 -.00000002 1 16.5449 108.951)"/><path d="m0 0h3.35858v3.35858h-3.35858z" transform="matrix(.866025 .5 -.00000002 1 23.4531 112.939)"/><path d="m0 0h3.35858v3.35858h-3.35858z" transform="matrix(.866025 .5 -.00000002 1 2.72852 107.879)"/><path d="m0 0h3.35858v3.35858h-3.35858z" transform="matrix(.866025 .5 -.00000002 1 9.63867 111.865)"/><path d="m0 0h3.35858v3.35858h-3.35858z" transform="matrix(.866025 .5 -.00000002 1 16.5449 115.852)"/><path d="m0 0h3.35858v3.35858h-3.35858z" transform="matrix(.866025 .5 -.00000002 1 23.4531 119.844)"/><path d="m0 0h3.35858v3.35858h-3.35858z" transform="matrix(.866025 .5 -.00000002 1 2.72852 114.779)"/><path d="m0 0h3.35858v3.35858h-3.35858z" transform="matrix(.866025 .5 -.00000002 1 9.63867 118.77)"/><path d="m0 0h3.35858v3.35858h-3.35858z" transform="matrix(.866025 .5 -.00000002 1 16.5449 122.756)"/><path d="m0 0h3.35858v3.35858h-3.35858z" transform="matrix(.866025 .5 -.00000002 1 23.4531 126.746)"/><path d="m0 0h3.35858v3.35858h-3.35858z" transform="matrix(.866025 .5 -.00000002 1 29.0859 102.252)"/><path d="m0 0h3.35858v3.35858h-3.35858z" transform="matrix(.866025 .5 -.00000002 1 35.9922 106.242)"/><path d="m0 0h3.35858v3.35858h-3.35858z" transform="matrix(.866025 .5 -.00000002 1 42.9023 110.23)"/><path d="m0 0h3.35858v3.35858h-3.35858z" transform="matrix(.866025 .5 -.00000002 1 49.8066 114.219)"/><path d="m0 0h3.35858v3.35858h-3.35858z" transform="matrix(.866025 .5 -.00000002 1 29.0859 108.914)"/><path d="m0 0h3.35858v3.35858h-3.35858z" transform="matrix(.866025 .5 -.00000002 1 35.9922 112.902)"/><path d="m0 0h3.35858v3.35858h-3.35858z" transform="matrix(.866025 .5 -.00000002 1 42.9023 116.893)"/><path d="m0 0h3.35858v3.35858h-3.35858z" transform="matrix(.866025 .5 -.00000002 1 49.8066 120.879)"/><path d="m0 0h3.35858v3.35858h-3.35858z" transform="matrix(.866025 .5 -.00000002 1 29.0859 115.574)"/><path d="m0 0h3.35858v3.35858h-3.35858z" transform="matrix(.866025 .5 -.00000002 1 35.9922 119.562)"/><path d="m0 0h3.35858v3.35858h-3.35858z" transform="matrix(.866025 .5 -.00000002 1 42.9023 123.551)"/><path d="m0 0h3.35858v3.35858h-3.35858z" transform="matrix(.866025 .5 -.00000002 1 49.8066 127.539)"/><path d="m0 0h3.35858v3.35858h-3.35858z" transform="matrix(.866025 .5 -.00000002 1 29.0859 122.234)"/><path d="m0 0h3.35858v3.35858h-3.35858z" transform="matrix(.866025 .5 -.00000002 1 35.9922 126.225)"/><path d="m0 0h3.35858v3.35858h-3.35858z" transform="matrix(.866025 .5 -.00000002 1 42.9023 130.211)"/><path d="m0 0h3.35858v3.35858h-3.35858z" transform="matrix(.866025 .5 -.00000002 1 49.8066 134.201)"/><path d="m0 0h3.35858v3.35858h-3.35858z" transform="matrix(.866025 .5 -.00000002 1 29.0859 128.896)"/><path d="m0 0h3.35858v3.35858h-3.35858z" transform="matrix(.866025 .5 -.00000002 1 35.9922 132.883)"/><path d="m0 0h3.35858v3.35858h-3.35858z" transform="matrix(.866025 .5 -.00000002 1 42.9023 136.875)"/><path d="m0 0h3.35858v3.35858h-3.35858z" transform="matrix(.866025 .5 -.00000002 1 49.8066 140.863)"/></g><g fill="#1c133f"><path d="m0 0h3.35858v3.35858h-3.35858z" transform="matrix(.866025 -.5 .00000002 1 61.2949 116.902)"/><path d="m0 0h3.35858v3.35858h-3.35858z" transform="matrix(.866025 -.5 .00000002 1 68.2012 112.916)"/><path d="m0 0h3.35858v3.35858h-3.35858z" transform="matrix(.866025 -.5 .00000002 1 75.1113 108.926)"/><path d="m0 0h3.35858v3.35858h-3.35858z" transform="matrix(.866025 -.5 .00000002 1 82.0215 104.938)"/><path d="m0 0h3.35858v3.35858h-3.35858z" transform="matrix(.866025 -.5 .00000002 1 61.2949 123.566)"/><path d="m0 0h3.35858v3.35858h-3.35858z" transform="matrix(.866025 -.5 .00000002 1 68.2012 119.576)"/><path d="m0 0h3.35858v3.35858h-3.35858z" transform="matrix(.866025 -.5 .00000002 1 75.1113 115.59)"/><path d="m0 0h3.35858v3.35858h-3.35858z" transform="matrix(.866025 -.5 .00000002 1 82.0215 111.6)"/><path d="m0 0h3.35858v3.35858h-3.35858z" transform="matrix(.866025 -.5 .00000002 1 61.2949 130.227)"/><path d="m0 0h3.35858v3.35858h-3.35858z" transform="matrix(.866025 -.5 .00000002 1 68.2012 126.236)"/><path d="m0 0h3.35858v3.35858h-3.35858z" transform="matrix(.866025 -.5 .00000002 1 75.1113 122.248)"/><path d="m0 0h3.35858v3.35858h-3.35858z" transform="matrix(.866025 -.5 .00000002 1 82.0215 118.262)"/><path d="m0 0h3.35858v3.35858h-3.35858z" transform="matrix(.866025 -.5 .00000002 1 61.2949 136.889)"/><path d="m0 0h3.35858v3.35858h-3.35858z" transform="matrix(.866025 -.5 .00000002 1 68.2012 132.898)"/><path d="m0 0h3.35858v3.35858h-3.35858z" transform="matrix(.866025 -.5 .00000002 1 75.1113 128.912)"/><path d="m0 0h3.35858v3.35858h-3.35858z" transform="matrix(.866025 -.5 .00000002 1 82.0215 124.924)"/><path d="m0 0h3.35858v3.35858h-3.35858z" transform="matrix(.866025 -.5 .00000002 1 61.2949 143.549)"/><path d="m0 0h3.35858v3.35858h-3.35858z" transform="matrix(.866025 -.5 .00000002 1 68.2012 139.562)"/><path d="m0 0h3.35858v3.35858h-3.35858z" transform="matrix(.866025 -.5 .00000002 1 75.1113 135.572)"/><path d="m0 0h3.35858v3.35858h-3.35858z" transform="matrix(.866025 -.5 .00000002 1 82.0215 131.584)"/><path d="m0 0h3.35858v3.35858h-3.35858z" transform="matrix(.866025 -.5 .00000002 1 31.8125 59.5605)"/><path d="m0 0h3.35858v3.35858h-3.35858z" transform="matrix(.866025 -.5 .00000002 1 38.7207 55.5762)"/><path d="m0 0h3.35858v3.35858h-3.35858z" transform="matrix(.866025 -.5 .00000002 1 45.6289 51.5859)"/><path d="m0 0h3.35858v3.35858h-3.35858z" transform="matrix(.866025 -.5 .00000002 1 52.5332 47.5977)"/><path d="m0 0h3.35858v3.35858h-3.35858z" transform="matrix(.866025 -.5 .00000002 1 31.8125 66.2227)"/><path d="m0 0h3.35858v3.35858h-3.35858z" transform="matrix(.866025 -.5 .00000002 1 38.7207 62.2363)"/><path d="m0 0h3.35858v3.35858h-3.35858z" transform="matrix(.866025 -.5 .00000002 1 45.6289 58.2461)"/><path d="m0 0h3.35858v3.35858h-3.35858z" transform="matrix(.866025 -.5 .00000002 1 52.5332 54.2578)"/><path d="m0 0h3.35858v3.35858h-3.35858z" transform="matrix(.866025 -.5 .00000002 1 31.8125 72.8848)"/><path d="m0 0h3.35858v3.35858h-3.35858z" transform="matrix(.866025 -.5 .00000002 1 38.7207 68.8965)"/><path d="m0 0h3.35858v3.35858h-3.35858z" transform="matrix(.866025 -.5 .00000002 1 45.6289 64.9062)"/><path d="m0 0h3.35858v3.35858h-3.35858z" transform="matrix(.866025 -.5 .00000002 1 52.5332 60.918)"/><path d="m0 0h3.35858v3.35858h-3.35858z" transform="matrix(.866025 -.5 .00000002 1 31.8125 79.5449)"/><path d="m0 0h3.35858v3.35858h-3.35858z" transform="matrix(.866025 -.5 .00000002 1 38.7207 75.5566)"/><path d="m0 0h3.35858v3.35858h-3.35858z" transform="matrix(.866025 -.5 .00000002 1 45.6289 71.5684)"/><path d="m0 0h3.35858v3.35858h-3.35858z" transform="matrix(.866025 -.5 .00000002 1 52.5332 67.5801)"/><path d="m0 0h3.35858v3.35858h-3.35858z" transform="matrix(.866025 -.5 .00000002 1 31.8125 86.209)"/><path d="m0 0h3.35858v3.35858h-3.35858z" transform="matrix(.866025 -.5 .00000002 1 38.7207 82.2188)"/><path d="m0 0h3.35858v3.35858h-3.35858z" transform="matrix(.866025 -.5 .00000002 1 45.6289 78.2305)"/><path d="m0 0h3.35858v3.35858h-3.35858z" transform="matrix(.866025 -.5 .00000002 1 52.5332 74.2422)"/></g><path d="m0 0h39.3008v39.4239h-39.3008z" fill="#b29fff" transform="matrix(.86512 -.501566 .00000002 1 174.943 235.574)"/><path d="m0 0h39.3008v39.4239h-39.3008z" fill="#e6dfff" transform="matrix(.86512 .501566 -.00000002 1 140.988 215.863)"/><path d="m0 0h39.3008v39.3008h-39.3008z" fill="#f8f7ff" transform="matrix(.86512 -.501566 .86512 .501566 140.943 215.863)"/><path d="m0 0h8.49748v39.3008h-8.49748z" fill="#714eff" transform="matrix(.86512 -.501566 .86512 .501566 154.266 208.137)"/><path d="m0 0h8.49748v39.3008h-8.49748z" fill="#714eff" transform="matrix(.86512 .501566 -.86512 .501566 188.266 203.875)"/><path d="m0 0h8.49748v39.4239h-8.49748z" fill="#1c133f" transform="matrix(.86512 -.501566 .00000002 1 188.268 227.85)"/><path d="m0 0h8.49748v39.4239h-8.49748z" fill="#3e0dff" transform="matrix(.86512 .501566 -.00000002 1 154.268 223.588)"/><path d="m0 0h13.4512v30.704h-13.4512z" fill="#3e0dff" transform="matrix(.97365 -.228048 .571777 .820409 149.33 191.143)"/><path d="m0 0h13.4512v30.704h-13.4512z" fill="#714eff" transform="matrix(-.97365 -.228048 -.571777 .820409 197.645 194.49)"/><path d="m0 0h39.3008v39.4239h-39.3008z" fill="#b29fff" transform="matrix(.86512 -.501566 .00000002 1 258 48.0039)"/><path d="m0 0h39.3008v39.4239h-39.3008z" fill="#e6dfff" transform="matrix(.86512 .501566 -.00000002 1 224.047 28.291)"/><path d="m0 0h39.3008v39.3008h-39.3008z" fill="#f8f7ff" transform="matrix(.86512 -.501566 .86512 .501566 224 28.291)"/><path d="m0 0h8.49748v39.3008h-8.49748z" fill="#714eff" transform="matrix(.86512 -.501566 .86512 .501566 237.324 20.5645)"/><path d="m0 0h8.49748v39.3008h-8.49748z" fill="#714eff" transform="matrix(.86512 .501566 -.86512 .501566 271.324 16.3027)"/><path d="m0 0h8.49748v39.4239h-8.49748z" fill="#1c133f" transform="matrix(.86512 -.501566 .00000002 1 271.322 40.2793)"/><path d="m0 0h8.49748v39.4239h-8.49748z" fill="#3e0dff" transform="matrix(.86512 .501566 -.00000002 1 237.324 36.0156)"/><path d="m0 0h13.4512v30.704h-13.4512z" fill="#3e0dff" transform="matrix(.97365 -.228048 .571777 .820409 232.389 3.57227)"/><path d="m0 0h13.4512v30.704h-13.4512z" fill="#714eff" transform="matrix(-.97365 -.228048 -.571777 .820409 280.703 6.91797)"/></svg>