<svg fill="none" height="957" viewBox="0 0 788 957" width="788" xmlns="http://www.w3.org/2000/svg" xmlns:xlink="http://www.w3.org/1999/xlink"><linearGradient id="a"><stop offset="0" stop-color="#89e5d3"/><stop offset="1" stop-color="#0096a2"/></linearGradient><linearGradient id="b" gradientUnits="userSpaceOnUse" x1="456.935" x2="404.979" xlink:href="#a" y1="306.004" y2="382.999"/><linearGradient id="c" gradientUnits="userSpaceOnUse" x1="84.2711" x2="32.3145" xlink:href="#a" y1="306.004" y2="382.999"/><linearGradient id="d" gradientUnits="userSpaceOnUse" x1="643.267" x2="591.311" xlink:href="#a" y1="166.033" y2="89.0384"/><linearGradient id="e" gradientUnits="userSpaceOnUse" x1="270.603" x2="218.647" xlink:href="#a" y1="166.033" y2="89.0384"/><linearGradient id="f" gradientUnits="userSpaceOnUse" x1="456.935" x2="404.979" xlink:href="#a" y1="82.0396" y2="159.034"/><linearGradient id="g" gradientUnits="userSpaceOnUse" x1="84.2711" x2="32.3145" xlink:href="#a" y1="82.0415" y2="159.036"/><linearGradient id="h" gradientUnits="userSpaceOnUse" x1="456.935" x2="404.979" xlink:href="#a" y1="529.965" y2="606.96"/><linearGradient id="i" gradientUnits="userSpaceOnUse" x1="84.2711" x2="32.3145" xlink:href="#a" y1="529.967" y2="606.962"/><linearGradient id="j" gradientUnits="userSpaceOnUse" x1="643.267" x2="591.311" xlink:href="#a" y1="389.996" y2="313.001"/><linearGradient id="k" gradientUnits="userSpaceOnUse" x1="270.603" x2="218.647" xlink:href="#a" y1="389.996" y2="313.001"/><linearGradient id="l" gradientUnits="userSpaceOnUse" x1="456.931" x2="404.975" xlink:href="#a" y1="753.926" y2="830.921"/><linearGradient id="m" gradientUnits="userSpaceOnUse" x1="84.2711" x2="32.3145" xlink:href="#a" y1="753.93" y2="830.924"/><linearGradient id="n" gradientUnits="userSpaceOnUse" x1="643.267" x2="591.311" xlink:href="#a" y1="613.958" y2="536.964"/><linearGradient id="o" gradientUnits="userSpaceOnUse" x1="270.603" x2="218.647" xlink:href="#a" y1="613.958" y2="536.964"/><linearGradient id="p" gradientUnits="userSpaceOnUse" x1="643.267" x2="591.311" xlink:href="#a" y1="837.921" y2="760.927"/><linearGradient id="q" gradientUnits="userSpaceOnUse" x1="270.603" x2="218.647" xlink:href="#a" y1="837.921" y2="760.927"/><clipPath id="r"><path d="m0 0h788v957h-788z"/></clipPath><g clip-path="url(#r)"><path clip-rule="evenodd" d="m401.861 315.529-26.79 46.403c-5.406 9.363 1.351 21.067 12.163 21.067h125.107c10.812 0 17.569-11.704 12.163-21.067l-26.79-46.403z" fill="url(#b)" fill-rule="evenodd"/><path clip-rule="evenodd" d="m403.934 318.102c0-6.764 4.563-12.369 10.523-13.367 2.415-5.934 7.927-10.081 14.34-10.081 6.111 0 11.404 3.766 13.979 9.256.585-.104 1.185-.158 1.797-.158.97 0 1.91.135 2.805.39 1.44-3.462 4.673-5.875 8.431-5.875 3.678 0 6.853 2.312 8.337 5.657 1.434-.986 3.138-1.557 4.966-1.557 3.996 0 7.4 2.729 8.684 6.548 1.83-1.154 3.955-1.814 6.223-1.814 6.865 0 12.43 6.055 12.43 13.525 0 6.765-4.563 12.37-10.523 13.368-2.416 5.934-7.927 10.08-14.34 10.08-6.111 0-11.404-3.766-13.979-9.256-.583.104-1.182.157-1.793.157-.971 0-1.912-.135-2.808-.39-1.439 3.465-4.674 5.88-8.433 5.88-3.678 0-6.853-2.311-8.337-5.655-1.432.982-3.134 1.551-4.959 1.551-3.997 0-7.401-2.731-8.685-6.55-1.831 1.156-3.958 1.817-6.228 1.817-6.865 0-12.43-6.055-12.43-13.526z" fill="#fff" fill-rule="evenodd"/><path d="m435.232 195.27v-1.5h-1.5-.902c-1.422 0-2.575-1.153-2.575-2.575 0-1.421 1.153-2.574 2.575-2.574h33.908c1.422 0 2.574 1.153 2.574 2.574 0 1.422-1.152 2.575-2.574 2.575h-.903-1.5v1.5 65.052.401l.201.349 58.665 101.611c4.829 8.363-1.207 18.817-10.864 18.817h-125.107c-9.657 0-15.693-10.454-10.864-18.817l58.665-101.611.201-.349v-.401z" stroke="#fff" stroke-width="3"/><path d="m599.786 213.016h-.001l-12.123 9.436c-1.314 1.023-1.908 2.648-1.739 4.213.152 1.404.217 2.863.217 4.335 0 1.539-.067 3.005-.2 4.425-.144 1.532.459 3.089 1.719 4.079l12.054 9.475.018.015.019.014c.611.45.841 1.268.381 2.126l-12.789 22.115-.01.016-.009.017c-.418.767-1.274 1.067-2.084.782l-14.31-5.748c-1.493-.599-3.153-.342-4.41.564-2.361 1.701-4.888 3.185-7.58 4.406-1.41.639-2.466 1.948-2.693 3.545l-2.158 15.225-.001.012-.002.013c-.103.823-.775 1.419-1.645 1.419h-25.6c-.8 0-1.506-.54-1.722-1.497l-2.151-15.172c-.226-1.598-1.283-2.905-2.69-3.545-2.688-1.224-5.194-2.715-7.596-4.43-1.254-.897-2.902-1.14-4.379-.547l-14.297 5.743c-.89.263-1.725-.056-2.115-.77l-.009-.017-.009-.016-12.791-22.117c-.385-.716-.176-1.69.413-2.148h.001l12.123-9.436c1.314-1.023 1.908-2.647 1.74-4.212-.152-1.424-.218-2.909-.218-4.336 0-1.385.128-2.856.321-4.301.212-1.592-.398-3.226-1.71-4.247l-12.123-9.436-.03-.023-.031-.022c-.614-.43-.826-1.273-.359-2.092 0 0 .001-.001.001-.001l12.731-22.13.009-.015.008-.015c.418-.767 1.274-1.067 2.084-.782l14.334 5.757c1.472.592 3.114.352 4.368-.539 2.377-1.689 4.911-3.208 7.604-4.439 1.404-.642 2.461-1.948 2.687-3.546l2.155-15.205c.159-.914.836-1.464 1.651-1.464h25.6c.853 0 1.564.587 1.718 1.464l2.155 15.205c.226 1.598 1.283 2.905 2.69 3.545 2.688 1.224 5.194 2.715 7.596 4.43 1.255.897 2.902 1.14 4.379.547l14.297-5.743c.89-.263 1.725.056 2.115.77l.009.017.009.016 12.791 22.117c.385.716.176 1.69-.413 2.148zm-85.646 17.984c0 14.028 11.472 25.5 25.5 25.5s25.5-11.472 25.5-25.5-11.472-25.5-25.5-25.5-25.5 11.472-25.5 25.5z" stroke="#fff" stroke-width="3"/><path clip-rule="evenodd" d="m29.1969 315.529-26.79039 46.403c-5.40586 9.363 1.35148 21.067 12.16319 21.067h125.1073c10.812 0 17.569-11.704 12.163-21.067l-26.79-46.403z" fill="url(#c)" fill-rule="evenodd"/><path clip-rule="evenodd" d="m31.2695 318.102c0-6.764 4.5635-12.369 10.5233-13.367 2.4156-5.934 7.9273-10.081 14.3402-10.081 6.1113 0 11.4042 3.766 13.9791 9.256.5847-.104 1.185-.158 1.7971-.158.9694 0 1.9094.135 2.8044.39 1.4407-3.462 4.6737-5.875 8.431-5.875 3.6779 0 6.8535 2.312 8.3373 5.657 1.4339-.986 3.1379-1.557 4.966-1.557 3.9961 0 7.3991 2.729 8.6841 6.548 1.83-1.154 3.955-1.814 6.223-1.814 6.865 0 12.43 6.055 12.43 13.525 0 6.765-4.563 12.37-10.523 13.368-2.416 5.934-7.927 10.08-14.34 10.08-6.1114 0-11.4043-3.766-13.9792-9.256-.5833.104-1.1822.157-1.7928.157-.9707 0-1.9119-.135-2.8079-.39-1.4396 3.465-4.6741 5.88-8.4335 5.88-3.6775 0-6.8527-2.311-8.3368-5.655-1.4323.982-3.1336 1.551-4.9586 1.551-3.9973 0-7.4012-2.731-8.6849-6.55-1.8313 1.156-3.9587 1.817-6.2282 1.817-6.8652 0-12.4306-6.055-12.4306-13.526z" fill="#fff" fill-rule="evenodd"/><path d="m62.5681 195.27v-1.5h-1.5-.9025c-1.4218 0-2.5743-1.153-2.5743-2.575 0-1.421 1.1525-2.574 2.5743-2.574h33.9083c1.4218 0 2.5743 1.153 2.5743 2.574 0 1.422-1.1525 2.575-2.5743 2.575h-.9033-1.5v1.5 65.052.401l.201.349 58.6654 101.611c4.829 8.363-1.207 18.817-10.864 18.817h-125.1072c-9.65702 0-15.69267-10.454-10.86416-18.817l58.66546-101.611.201-.349v-.401z" stroke="#fff" stroke-width="3"/><path d="m227.122 213.016h-.001l-12.123 9.436c-1.314 1.023-1.908 2.648-1.739 4.213.152 1.404.217 2.863.217 4.335 0 1.539-.067 3.005-.2 4.425-.144 1.532.459 3.089 1.719 4.079l12.054 9.475.018.015.019.014c.611.45.841 1.268.381 2.126l-12.789 22.115-.01.016-.009.017c-.418.767-1.274 1.067-2.084.782l-14.31-5.748c-1.493-.599-3.153-.342-4.411.564-2.36 1.701-4.887 3.185-7.579 4.406-1.41.639-2.467 1.948-2.693 3.545l-2.158 15.225-.002.012-.001.013c-.103.823-.775 1.419-1.645 1.419h-25.6c-.8 0-1.506-.54-1.722-1.497l-2.151-15.172c-.226-1.598-1.283-2.905-2.69-3.545-2.688-1.224-5.194-2.715-7.596-4.43-1.255-.897-2.902-1.14-4.379-.547l-14.297 5.743c-.89.263-1.725-.056-2.115-.77l-.009-.017-.009-.016-12.791-22.117c-.385-.716-.176-1.69.413-2.148h.001l12.123-9.436c1.314-1.023 1.908-2.647 1.74-4.212-.152-1.424-.218-2.909-.218-4.336 0-1.385.128-2.856.321-4.301.212-1.592-.398-3.226-1.71-4.247l-12.123-9.436-.03-.023-.031-.022c-.614-.43-.826-1.273-.359-2.092 0 0 .001-.001.001-.001l12.731-22.13.009-.015.008-.015c.418-.767 1.274-1.067 2.084-.782l14.333 5.757c1.473.592 3.115.352 4.369-.539 2.377-1.689 4.911-3.208 7.604-4.439 1.404-.642 2.46-1.948 2.687-3.546l2.155-15.205c.159-.914.836-1.464 1.651-1.464h25.6c.853 0 1.564.587 1.718 1.464l2.155 15.205c.226 1.598 1.283 2.905 2.69 3.545 2.688 1.224 5.194 2.715 7.596 4.43 1.255.897 2.902 1.14 4.379.547l14.297-5.743c.89-.263 1.725.056 2.115.77l.009.017.009.016 12.791 22.117c.385.716.176 1.69-.413 2.148zm-85.646 17.984c0 14.028 11.472 25.5 25.5 25.5s25.5-11.472 25.5-25.5-11.472-25.5-25.5-25.5-25.5 11.472-25.5 25.5z" stroke="#fff" stroke-width="3"/><path clip-rule="evenodd" d="m588.193 156.508-26.79-46.403c-5.406-9.363 1.351-21.0668 12.163-21.0668h125.107c10.812 0 17.569 11.7038 12.163 21.0678l-26.79 46.402z" fill="url(#d)" fill-rule="evenodd"/><path clip-rule="evenodd" d="m590.266 153.935c0 6.764 4.563 12.369 10.523 13.367 2.415 5.934 7.927 10.081 14.34 10.081 6.111 0 11.404-3.766 13.979-9.256.585.104 1.185.158 1.797.158.97 0 1.91-.135 2.805-.39 1.44 3.462 4.673 5.875 8.431 5.875 3.678 0 6.853-2.312 8.337-5.656 1.434.985 3.138 1.556 4.966 1.556 3.996 0 7.4-2.729 8.684-6.548 1.83 1.154 3.955 1.815 6.223 1.815 6.865 0 12.43-6.056 12.43-13.526 0-6.765-4.563-12.369-10.523-13.368-2.416-5.934-7.927-10.08-14.34-10.08-6.111 0-11.404 3.766-13.979 9.256-.583-.104-1.182-.157-1.793-.157-.971 0-1.912.136-2.808.391-1.439-3.466-4.674-5.881-8.433-5.881-3.678 0-6.853 2.311-8.337 5.656-1.432-.983-3.134-1.552-4.959-1.552-3.997 0-7.401 2.731-8.685 6.55-1.831-1.155-3.958-1.817-6.228-1.817-6.865 0-12.43 6.055-12.43 13.526z" fill="#fff" fill-rule="evenodd"/><path d="m621.564 276.767v1.5h-1.5-.902c-1.422 0-2.575 1.153-2.575 2.575 0 1.421 1.153 2.574 2.575 2.574h33.908c1.422 0 2.574-1.153 2.574-2.574 0-1.422-1.152-2.575-2.574-2.575h-.903-1.5v-1.5-65.051-.402l.201-.348 58.665-101.612c4.829-8.363-1.207-18.8173-10.864-18.8173h-125.107c-9.657 0-15.693 10.4543-10.864 18.8173l58.665 101.612.201.348v.402z" stroke="#fff" stroke-width="3"/><path d="m786.118 249.136h-.001l-12.123-9.436c-1.314-1.023-1.908-2.648-1.739-4.212.152-1.404.217-2.864.217-4.336 0-1.538-.067-3.005-.2-4.425-.144-1.532.459-3.088 1.719-4.079l12.054-9.475.018-.014.019-.014c.611-.45.841-1.269.381-2.126l-12.789-22.116-.01-.016-.009-.016c-.418-.768-1.274-1.067-2.084-.783l-14.31 5.748c-1.492.6-3.153.342-4.41-.564-2.361-1.7-4.888-3.185-7.58-4.406-1.41-.639-2.466-1.947-2.693-3.544l-2.158-15.226-.001-.012-.002-.012c-.103-.824-.775-1.42-1.645-1.42h-25.6c-.8 0-1.506.54-1.722 1.498l-2.151 15.172c-.226 1.597-1.283 2.904-2.69 3.545-2.688 1.223-5.194 2.714-7.596 4.43-1.254.896-2.902 1.14-4.379.546l-14.297-5.742c-.89-.264-1.725.055-2.115.77l-.009.016-.009.016-12.791 22.117c-.385.716-.176 1.69.413 2.148l.001.001 12.123 9.435c1.314 1.023 1.908 2.648 1.74 4.212-.152 1.424-.218 2.909-.218 4.336 0 1.386.128 2.856.321 4.302.212 1.591-.398 3.225-1.71 4.246l-12.123 9.436-.03.023-.031.022c-.614.43-.826 1.273-.359 2.092.001.001.001.001.001.002l12.731 22.129.009.015.008.015c.418.767 1.274 1.067 2.084.783l14.334-5.758c1.472-.591 3.114-.352 4.368.539 2.377 1.69 4.911 3.209 7.604 4.439 1.404.642 2.461 1.948 2.687 3.546l2.155 15.205c.159.915.836 1.464 1.651 1.464h25.6c.853 0 1.565-.587 1.718-1.464l2.155-15.205c.226-1.597 1.283-2.905 2.69-3.545 2.688-1.224 5.194-2.715 7.596-4.43 1.255-.896 2.902-1.14 4.379-.547l14.297 5.743c.89.263 1.725-.055 2.115-.77l.009-.016.009-.017 12.791-22.117c.385-.715.176-1.69-.413-2.148zm-85.646-17.984c0-14.028 11.472-25.5 25.5-25.5 14.029 0 25.5 11.472 25.5 25.5 0 14.029-11.471 25.5-25.5 25.5-14.028 0-25.5-11.471-25.5-25.5z" stroke="#fff" stroke-width="3"/><path clip-rule="evenodd" d="m215.529 156.508-26.79-46.403c-5.406-9.363 1.351-21.0668 12.163-21.0668h125.107c10.812 0 17.569 11.7038 12.163 21.0678l-26.79 46.402z" fill="url(#e)" fill-rule="evenodd"/><path clip-rule="evenodd" d="m217.602 153.935c0 6.764 4.563 12.369 10.523 13.367 2.415 5.934 7.927 10.081 14.34 10.081 6.111 0 11.404-3.766 13.979-9.256.585.104 1.185.158 1.797.158.97 0 1.91-.135 2.805-.39 1.44 3.462 4.673 5.875 8.431 5.875 3.678 0 6.853-2.312 8.337-5.656 1.434.985 3.138 1.556 4.966 1.556 3.996 0 7.4-2.729 8.684-6.548 1.83 1.154 3.955 1.815 6.223 1.815 6.865 0 12.43-6.056 12.43-13.526 0-6.765-4.563-12.369-10.523-13.368-2.416-5.934-7.927-10.08-14.34-10.08-6.111 0-11.404 3.766-13.979 9.256-.583-.104-1.182-.157-1.793-.157-.971 0-1.912.136-2.808.391-1.439-3.466-4.674-5.881-8.433-5.881-3.678 0-6.853 2.311-8.337 5.656-1.433-.983-3.134-1.552-4.959-1.552-3.997 0-7.401 2.731-8.685 6.55-1.831-1.155-3.958-1.817-6.228-1.817-6.865 0-12.43 6.055-12.43 13.526z" fill="#fff" fill-rule="evenodd"/><path d="m248.9 276.767v1.5h-1.5-.902c-1.422 0-2.575 1.153-2.575 2.575 0 1.421 1.153 2.574 2.575 2.574h33.908c1.422 0 2.574-1.153 2.574-2.574 0-1.422-1.152-2.575-2.574-2.575h-.903-1.5v-1.5-65.051-.402l.201-.348 58.665-101.612c4.829-8.363-1.207-18.8173-10.864-18.8173h-125.107c-9.657 0-15.693 10.4543-10.864 18.8173l58.665 101.612.201.348v.402z" stroke="#fff" stroke-width="3"/><path d="m413.454 248.984h-.001l-12.123-9.436c-1.314-1.023-1.908-2.648-1.739-4.213.152-1.404.217-2.863.217-4.335 0-1.539-.067-3.005-.2-4.425-.144-1.532.459-3.089 1.719-4.079l12.054-9.475.018-.015.019-.014c.611-.45.841-1.268.381-2.126l-12.789-22.115-.01-.016-.009-.017c-.418-.767-1.274-1.067-2.084-.782l-14.31 5.748c-1.493.599-3.153.342-4.41-.564-2.361-1.701-4.888-3.185-7.58-4.406-1.41-.639-2.466-1.948-2.693-3.545l-2.158-15.225-.002-.012-.001-.013c-.103-.823-.775-1.419-1.645-1.419h-25.6c-.8 0-1.506.54-1.722 1.497l-2.151 15.172c-.226 1.598-1.283 2.905-2.69 3.545-2.688 1.224-5.194 2.715-7.596 4.43-1.254.897-2.902 1.14-4.379.547l-14.297-5.743c-.89-.263-1.725.056-2.115.77l-.009.017-.009.016-12.791 22.117c-.385.716-.176 1.69.413 2.148h.001l12.123 9.436c1.314 1.023 1.908 2.647 1.74 4.212-.152 1.424-.218 2.909-.218 4.336 0 1.385.128 2.856.321 4.301.212 1.592-.398 3.226-1.71 4.247l-12.123 9.436-.03.023-.031.022c-.614.43-.826 1.273-.359 2.092 0 0 .001.001.001.001l12.731 22.13.009.015.008.015c.418.767 1.274 1.067 2.084.782l14.333-5.757c1.473-.592 3.115-.352 4.369.539 2.377 1.689 4.911 3.208 7.604 4.439 1.404.642 2.46 1.948 2.687 3.546l2.155 15.205c.159.914.836 1.464 1.651 1.464h25.6c.853 0 1.564-.587 1.718-1.464l2.155-15.205c.226-1.598 1.283-2.905 2.69-3.545 2.688-1.224 5.194-2.715 7.596-4.43 1.255-.897 2.902-1.14 4.379-.547l14.297 5.743c.89.263 1.725-.056 2.115-.77l.009-.017.009-.016 12.791-22.117c.385-.716.176-1.69-.413-2.148zm-85.646-17.984c0-14.028 11.472-25.5 25.5-25.5s25.5 11.472 25.5 25.5-11.472 25.5-25.5 25.5-25.5-11.472-25.5-25.5z" stroke="#fff" stroke-width="3"/><path clip-rule="evenodd" d="m401.861 91.5645-26.79 46.4025c-5.406 9.363 1.351 21.067 12.163 21.067h125.107c10.812 0 17.569-11.704 12.163-21.067l-26.79-46.4025z" fill="url(#f)" fill-rule="evenodd"/><path clip-rule="evenodd" d="m403.934 94.1376c0-6.7644 4.563-12.369 10.523-13.3676 2.415-5.9341 7.927-10.0805 14.34-10.0805 6.111 0 11.404 3.7655 13.979 9.2553.585-.1039 1.185-.1579 1.797-.1579.97 0 1.91.1355 2.805.3899 1.44-3.462 4.673-5.8742 8.431-5.8742 3.678 0 6.853 2.3114 8.337 5.6561 1.434-.9851 3.138-1.5562 4.966-1.5562 3.996 0 7.4 2.729 8.684 6.5475 1.83-1.1538 3.955-1.8143 6.223-1.8143 6.865 0 12.43 6.0558 12.43 13.5259 0 6.7644-4.563 12.3694-10.523 13.3674-2.416 5.934-7.927 10.08-14.34 10.08-6.111 0-11.404-3.766-13.979-9.256-.583.104-1.182.158-1.793.158-.971 0-1.912-.136-2.808-.391-1.439 3.465-4.674 5.88-8.433 5.88-3.678 0-6.853-2.311-8.337-5.655-1.432.982-3.134 1.551-4.959 1.551-3.997 0-7.401-2.73-8.685-6.55-1.831 1.156-3.958 1.818-6.228 1.818-6.865 0-12.43-6.056-12.43-13.5264z" fill="#fff" fill-rule="evenodd"/><path d="m435.232-28.6951v-1.5h-1.5-.902c-1.422 0-2.575-1.1526-2.575-2.5743 0-1.4218 1.153-2.5744 2.575-2.5744h33.908c1.422 0 2.574 1.1526 2.574 2.5744 0 1.4217-1.152 2.5743-2.574 2.5743h-.903-1.5v1.5 65.0518.4019l.201.3481 58.665 101.6113c4.829 8.364-1.207 18.818-10.864 18.818h-125.107c-9.657 0-15.693-10.454-10.864-18.818l58.665-101.6113.201-.3481v-.4019z" stroke="#fff" stroke-width="3"/><path d="m599.786-10.9469-.001.0003-12.123 9.4356c-1.314 1.023405-1.908 2.64815-1.739 4.21293.152 1.4038.217 2.86368.217 4.33519 0 1.53873-.067 3.00538-.2 4.42538-.144 1.5317.459 3.0883 1.719 4.0786l12.054 9.4753.018.0144.019.0139c.611.45.841 1.2688.381 2.1261l-12.789 22.1154-.01.0162-.009.0164c-.418.7674-1.274 1.067-2.084.7825l-14.31-5.748c-1.493-.5997-3.153-.3422-4.41.5638-2.361 1.7007-4.888 3.185-7.58 4.4059-1.41.6393-2.466 1.9477-2.693 3.5449l-2.158 15.2254-.001.0122-.002.0122c-.103.8239-.775 1.4194-1.645 1.4194h-25.6c-.8 0-1.506-.5398-1.722-1.4973l-2.151-15.1719c-.226-1.5975-1.283-2.9047-2.69-3.5452-2.688-1.2237-5.194-2.7147-7.596-4.43-1.254-.8962-2.902-1.14-4.379-.5467l-14.297 5.7427c-.89.2634-1.725-.0551-2.115-.7699l-.009-.0164-.009-.0162-12.791-22.1171c-.385-.7156-.176-1.69.413-2.148l.001-.0003 12.123-9.4356c1.314-1.0232 1.908-2.6475 1.74-4.2119-.152-1.4242-.218-2.90873-.218-4.33618 0-1.38545.128-2.85564.321-4.3012.212-1.59166-.398-3.225952-1.71-4.24692l-12.123-9.4356-.03-.0233-.031-.0218c-.614-.4299-.826-1.2731-.359-2.0921 0-.0005.001-.001.001-.0015l12.731-22.1296.009-.0148.008-.0149c.418-.7674 1.274-1.0669 2.084-.7825l14.334 5.7576c1.472.5913 3.114.3517 4.368-.5395 2.377-1.6893 4.911-3.2082 7.604-4.439 1.404-.642 2.461-1.948 2.687-3.5457l2.155-15.205c.159-.9147.836-1.4642 1.651-1.4642h25.6c.853 0 1.564.5875 1.718 1.4644l2.155 15.2048c.226 1.5975 1.283 2.9047 2.69 3.5452 2.688 1.2237 5.194 2.7147 7.596 4.43 1.255.8963 2.902 1.14 4.379.5467l14.297-5.7427c.89-.2634 1.725.0552 2.115.7699l.009.0164.009.0162 12.791 22.117c.385.7156.176 1.6901-.413 2.1481zm-85.646 17.98402c0 14.02838 11.472 25.49998 25.5 25.49998s25.5-11.4716 25.5-25.49998c0-14.02843-11.472-25.50002-25.5-25.50002s-25.5 11.47159-25.5 25.50002z" stroke="#fff" stroke-width="3"/><path clip-rule="evenodd" d="m29.1969 91.5664-26.79039 46.4026c-5.40586 9.363 1.35148 21.067 12.16319 21.067h125.1073c10.812 0 17.569-11.704 12.163-21.067l-26.79-46.4026z" fill="url(#g)" fill-rule="evenodd"/><path clip-rule="evenodd" d="m31.2695 94.1396c0-6.7644 4.5635-12.3691 10.5233-13.3677 2.4156-5.9341 7.9273-10.0805 14.3402-10.0805 6.1113 0 11.4042 3.7655 13.9791 9.2553.5847-.1038 1.185-.1578 1.7971-.1578.9694 0 1.9094.1355 2.8044.3898 1.4407-3.4619 4.6737-5.8742 8.431-5.8742 3.6779 0 6.8535 2.3114 8.3373 5.6562 1.4339-.9852 3.1379-1.5562 4.966-1.5562 3.9961 0 7.3991 2.729 8.6841 6.5475 1.83-1.1538 3.955-1.8143 6.223-1.8143 6.865 0 12.43 6.0557 12.43 13.5259 0 6.7644-4.563 12.3694-10.523 13.3674-2.416 5.934-7.927 10.08-14.34 10.08-6.1114 0-11.4043-3.766-13.9792-9.256-.5833.104-1.1822.158-1.7928.158-.9707 0-1.9119-.136-2.8079-.391-1.4396 3.465-4.6741 5.88-8.4335 5.88-3.6775 0-6.8527-2.311-8.3368-5.655-1.4323.982-3.1336 1.551-4.9586 1.551-3.9973 0-7.4012-2.73-8.6849-6.55-1.8313 1.156-3.9587 1.817-6.2282 1.817-6.8652 0-12.4306-6.055-12.4306-13.5254z" fill="#fff" fill-rule="evenodd"/><g stroke="#fff" stroke-width="3"><path d="m62.5681-28.6932v-1.5h-1.5-.9025c-1.4218 0-2.5743-1.1525-2.5743-2.5743 0-1.4217 1.1525-2.5743 2.5743-2.5743h33.9083c1.4218 0 2.5743 1.1526 2.5743 2.5743 0 1.4218-1.1525 2.5743-2.5743 2.5743h-.9033-1.5v1.5 65.0519.4019l.201.3481 58.6654 101.6113c4.829 8.364-1.207 18.818-10.864 18.818h-125.1072c-9.65702 0-15.69267-10.454-10.86416-18.818l58.66546-101.6113.201-.3481v-.4019z"/><path d="m227.122-10.9469-.001.0003-12.123 9.4356c-1.314 1.023405-1.908 2.64815-1.739 4.21293.152 1.4038.217 2.86368.217 4.33519 0 1.53873-.067 3.00538-.2 4.42538-.144 1.5317.459 3.0883 1.719 4.0786l12.054 9.4753.018.0144.019.0139c.611.45.841 1.2688.381 2.1261l-12.789 22.1154-.01.0162-.009.0164c-.418.7674-1.274 1.067-2.084.7825l-14.31-5.748c-1.493-.5997-3.153-.3422-4.411.5638-2.36 1.7007-4.887 3.185-7.579 4.4059-1.41.6393-2.467 1.9477-2.693 3.5449l-2.158 15.2254-.002.0122-.001.0122c-.103.8239-.775 1.4194-1.645 1.4194h-25.6c-.8 0-1.506-.5398-1.722-1.4973l-2.151-15.1719c-.226-1.5975-1.283-2.9047-2.69-3.5452-2.688-1.2237-5.194-2.7147-7.596-4.43-1.255-.8962-2.902-1.14-4.379-.5467l-14.297 5.7427c-.89.2634-1.725-.0551-2.115-.7699l-.009-.0164-.009-.0162-12.791-22.1171c-.385-.7156-.176-1.69.413-2.148l.001-.0003 12.123-9.4356c1.314-1.0232 1.908-2.6475 1.74-4.2119-.152-1.4242-.218-2.90873-.218-4.33618 0-1.38545.128-2.85564.321-4.3012.212-1.59166-.398-3.225952-1.71-4.24692l-12.123-9.4356-.03-.0233-.031-.0218c-.614-.4299-.826-1.2731-.359-2.0921 0-.0005.001-.001.001-.0015l12.731-22.1296.009-.0148.008-.0149c.418-.7674 1.274-1.0669 2.084-.7825l14.333 5.7576c1.473.5913 3.115.3517 4.369-.5395 2.377-1.6893 4.911-3.2082 7.604-4.439 1.404-.642 2.46-1.948 2.687-3.5457l2.155-15.205c.159-.9147.836-1.4642 1.651-1.4642h25.6c.853 0 1.564.5875 1.718 1.4644l2.155 15.2048c.226 1.5975 1.283 2.9047 2.69 3.5452 2.688 1.2237 5.194 2.7147 7.596 4.43 1.255.8963 2.902 1.14 4.379.5467l14.297-5.7427c.89-.2634 1.725.0552 2.115.7699l.009.0164.009.0162 12.791 22.117c.385.7156.176 1.6901-.413 2.1481zm-85.646 17.98402c0 14.02838 11.472 25.49998 25.5 25.49998s25.5-11.4716 25.5-25.49998c0-14.02843-11.472-25.50002-25.5-25.50002s-25.5 11.47159-25.5 25.50002z"/><path d="m621.564 52.8045v1.5h-1.5-.902c-1.422 0-2.575 1.1526-2.575 2.5743 0 1.4218 1.153 2.5743 2.575 2.5743h33.908c1.422 0 2.574-1.1525 2.574-2.5743 0-1.4217-1.152-2.5743-2.574-2.5743h-.903-1.5v-1.5-65.0518-.402l.201-.348 58.665-101.6117c4.829-8.363-1.207-18.817-10.864-18.817h-125.107c-9.657 0-15.693 10.454-10.864 18.817l58.665 101.6117.201.3481v.4019z"/><path d="m786.118 25.1735-.001-.0003-12.123-9.4356c-1.314-1.0234-1.908-2.6482-1.739-4.213.152-1.4038.217-2.86364.217-4.33515 0-1.53874-.067-3.00544-.2-4.4254-.144-1.5317.459-3.088337 1.719-4.07856l12.054-9.47529.018-.0145.019-.0138c.611-.4501.841-1.2688.381-2.1262l-12.789-22.1153-.01-.0162-.009-.0165c-.418-.7673-1.274-1.0669-2.084-.7824l-14.31 5.748c-1.492.5996-3.153.3422-4.41-.5638-2.361-1.7007-4.888-3.1851-7.58-4.4059-1.41-.6393-2.466-1.9478-2.693-3.5449l-2.158-15.2254-.001-.0122-.002-.0123c-.103-.8238-.775-1.4194-1.645-1.4194h-25.6c-.8 0-1.506.5399-1.722 1.4974l-2.151 15.1719c-.226 1.5975-1.283 2.9046-2.69 3.5452-2.688 1.2236-5.194 2.7147-7.596 4.4299-1.254.8963-2.902 1.14-4.379.5467l-14.297-5.7426c-.89-.2635-1.725.0551-2.115.7698l-.009.0165-.009.0162-12.791 22.117c-.385.7157-.176 1.69.413 2.148l.001.0003 12.123 9.43565c1.314 1.023208 1.908 2.64754 1.74 4.21194-.152 1.42417-.218 2.9087-.218 4.33616 0 1.38544.128 2.85565.321 4.30115.212 1.5917-.398 3.226-1.71 4.247l-12.123 9.4356-.03.0233-.031.0218c-.614.4298-.826 1.2731-.359 2.0921.001.0005.001.001.001.0015l12.731 22.1296.009.0147.008.015c.418.7673 1.274 1.0669 2.084.7824l14.334-5.7575c1.472-.5913 3.114-.3517 4.368.5395 2.377 1.6893 4.911 3.2081 7.604 4.439 1.404.642 2.461 1.9479 2.687 3.5456l2.155 15.205c.159.9148.836 1.4643 1.651 1.4643h25.6c.853 0 1.565-.5875 1.718-1.4644l2.155-15.2049c.226-1.5975 1.283-2.9046 2.69-3.5452 2.688-1.2236 5.194-2.7147 7.596-4.4299 1.255-.8963 2.902-1.14 4.379-.5467l14.297 5.7426c.89.2634 1.725-.0551 2.115-.7698l.009-.0165.009-.0162 12.791-22.1169c.385-.7157.176-1.6901-.413-2.1481zm-85.646-17.98405c0-14.02843 11.472-25.50005 25.5-25.50005 14.029 0 25.5 11.47162 25.5 25.50005 0 14.02845-11.471 25.50005-25.5 25.50005-14.028 0-25.5-11.4716-25.5-25.50005z"/><path d="m248.9 52.8045v1.5h-1.5-.902c-1.422 0-2.575 1.1526-2.575 2.5743 0 1.4218 1.153 2.5743 2.575 2.5743h33.908c1.422 0 2.574-1.1525 2.574-2.5743 0-1.4217-1.152-2.5743-2.574-2.5743h-.903-1.5v-1.5-65.0518-.402l.201-.348 58.665-101.6117c4.829-8.363-1.207-18.817-10.864-18.817h-125.107c-9.657 0-15.693 10.454-10.864 18.817l58.665 101.6117.201.3481v.4019z"/><path d="m413.454 25.0211-.001-.0003-12.123-9.4356c-1.314-1.0234-1.908-2.6481-1.739-4.2129.152-1.40381.217-2.86369.217-4.3352 0-1.53873-.067-3.00543-.2-4.42539-.144-1.53171.459-3.088341 1.719-4.07856l12.054-9.47535.018-.0144.019-.0139c.611-.45.841-1.2688.381-2.1261l-12.789-22.1154-.01-.0162-.009-.0164c-.418-.7674-1.274-1.067-2.084-.7825l-14.31 5.748c-1.493.5997-3.153.3423-4.41-.5638-2.361-1.7006-4.888-3.185-7.58-4.4059-1.41-.6393-2.466-1.9477-2.693-3.5449l-2.158-15.2254-.002-.0122-.001-.0122c-.103-.8238-.775-1.4194-1.645-1.4194h-25.6c-.8 0-1.506.5398-1.722 1.4973l-2.151 15.1719c-.226 1.5975-1.283 2.9047-2.69 3.5452-2.688 1.2237-5.194 2.7147-7.596 4.43-1.254.8963-2.902 1.14-4.379.5467l-14.297-5.7427c-.89-.2634-1.725.0552-2.115.7699l-.009.0164-.009.0162-12.791 22.1171c-.385.7156-.176 1.69.413 2.148l.001.0003 12.123 9.43561c1.314 1.023205 1.908 2.64754 1.74 4.21193-.152 1.42417-.218 2.90871-.218 4.33616 0 1.38545.128 2.85564.321 4.3012.212 1.5917-.398 3.226-1.71 4.2469l-12.123 9.4356-.03.0234-.031.0218c-.614.4298-.826 1.273-.359 2.092 0 .0005.001.001.001.0016l12.731 22.1295.009.0148.008.0149c.418.7674 1.274 1.067 2.084.7825l14.333-5.7576c1.473-.5913 3.115-.3517 4.369.5395 2.377 1.6894 4.911 3.2082 7.604 4.4391 1.404.6419 2.46 1.9479 2.687 3.5456l2.155 15.205c.159.9147.836 1.4642 1.651 1.4642h25.6c.853 0 1.564-.5875 1.718-1.4643l2.155-15.2049c.226-1.5975 1.283-2.9047 2.69-3.5452 2.688-1.2237 5.194-2.7147 7.596-4.43 1.255-.8962 2.902-1.14 4.379-.5467l14.297 5.7427c.89.2634 1.725-.0552 2.115-.7699l.009-.0164.009-.0162 12.791-22.117c.385-.7156.176-1.69-.413-2.1481zm-85.646-17.984c0-14.02843 11.472-25.5 25.5-25.5s25.5 11.47157 25.5 25.5c0 14.0284-11.472 25.5-25.5 25.5s-25.5-11.4716-25.5-25.5z"/></g><path clip-rule="evenodd" d="m401.861 539.49-26.79 46.403c-5.406 9.363 1.351 21.067 12.163 21.067h125.107c10.812 0 17.569-11.704 12.163-21.067l-26.79-46.403z" fill="url(#h)" fill-rule="evenodd"/><path clip-rule="evenodd" d="m403.934 542.063c0-6.764 4.563-12.369 10.523-13.367 2.415-5.934 7.927-10.081 14.34-10.081 6.111 0 11.404 3.766 13.979 9.256.585-.104 1.185-.158 1.797-.158.97 0 1.91.135 2.805.39 1.44-3.462 4.673-5.875 8.431-5.875 3.678 0 6.853 2.312 8.337 5.657 1.434-.986 3.138-1.557 4.966-1.557 3.996 0 7.4 2.729 8.684 6.548 1.83-1.154 3.955-1.814 6.223-1.814 6.865 0 12.43 6.055 12.43 13.525 0 6.765-4.563 12.369-10.523 13.368-2.416 5.934-7.927 10.08-14.34 10.08-6.111 0-11.404-3.766-13.979-9.256-.583.104-1.182.157-1.793.157-.971 0-1.912-.136-2.808-.391-1.439 3.466-4.674 5.881-8.433 5.881-3.678 0-6.853-2.311-8.337-5.656-1.432.983-3.134 1.552-4.959 1.552-3.997 0-7.401-2.731-8.685-6.55-1.831 1.155-3.958 1.817-6.228 1.817-6.865 0-12.43-6.055-12.43-13.526z" fill="#fff" fill-rule="evenodd"/><path d="m435.232 419.231v-1.5h-1.5-.902c-1.422 0-2.575-1.153-2.575-2.575 0-1.421 1.153-2.574 2.575-2.574h33.908c1.422 0 2.574 1.153 2.574 2.574 0 1.422-1.152 2.575-2.574 2.575h-.903-1.5v1.5 65.051.402l.201.348 58.665 101.612c4.829 8.363-1.207 18.817-10.864 18.817h-125.107c-9.657 0-15.693-10.454-10.864-18.817l58.665-101.612.201-.348v-.402z" stroke="#fff" stroke-width="3"/><path d="m599.786 436.979h-.001l-12.123 9.436c-1.314 1.023-1.908 2.648-1.739 4.213.152 1.404.217 2.863.217 4.335 0 1.539-.067 3.005-.2 4.425-.144 1.532.459 3.089 1.719 4.079l12.054 9.475.018.015.019.013c.611.451.841 1.269.381 2.127l-12.789 22.115-.01.016-.009.017c-.418.767-1.274 1.067-2.084.782l-14.31-5.748c-1.493-.6-3.153-.342-4.41.564-2.361 1.701-4.888 3.185-7.58 4.406-1.41.639-2.466 1.948-2.693 3.545l-2.158 15.225-.001.012-.002.013c-.103.823-.775 1.419-1.645 1.419h-25.6c-.8 0-1.506-.54-1.722-1.497l-2.151-15.172c-.226-1.598-1.283-2.905-2.69-3.546-2.688-1.223-5.194-2.714-7.596-4.429-1.254-.897-2.902-1.14-4.379-.547l-14.297 5.742c-.89.264-1.725-.055-2.115-.769l-.009-.017-.009-.016-12.791-22.117c-.385-.716-.176-1.69.413-2.148h.001l12.123-9.436c1.314-1.023 1.908-2.648 1.74-4.212-.152-1.424-.218-2.909-.218-4.336 0-1.386.128-2.856.321-4.301.212-1.592-.398-3.226-1.71-4.247l-12.123-9.436-.03-.023-.031-.022c-.614-.43-.826-1.273-.359-2.092 0-.001.001-.001.001-.002l12.731-22.129.009-.015.008-.015c.418-.767 1.274-1.067 2.084-.782l14.334 5.757c1.472.592 3.114.352 4.368-.539 2.377-1.69 4.911-3.208 7.604-4.439 1.404-.642 2.461-1.948 2.687-3.546l2.155-15.205c.159-.915.836-1.464 1.651-1.464h25.6c.853 0 1.564.587 1.718 1.464l2.155 15.205c.226 1.598 1.283 2.905 2.69 3.545 2.688 1.224 5.194 2.715 7.596 4.43 1.255.897 2.902 1.14 4.379.547l14.297-5.743c.89-.263 1.725.055 2.115.77l.009.017.009.016 12.791 22.117c.385.715.176 1.69-.413 2.148zm-85.646 17.984c0 14.028 11.472 25.5 25.5 25.5s25.5-11.472 25.5-25.5c0-14.029-11.472-25.5-25.5-25.5s-25.5 11.471-25.5 25.5z" stroke="#fff" stroke-width="3"/><path clip-rule="evenodd" d="m29.1969 539.492-26.79039 46.403c-5.40586 9.363 1.35148 21.067 12.16319 21.067h125.1073c10.812 0 17.569-11.704 12.163-21.068l-26.79-46.402z" fill="url(#i)" fill-rule="evenodd"/><path clip-rule="evenodd" d="m31.2695 542.065c0-6.764 4.5635-12.369 10.5233-13.367 2.4156-5.934 7.9273-10.081 14.3402-10.081 6.1113 0 11.4042 3.766 13.9791 9.256.5847-.104 1.185-.158 1.7971-.158.9694 0 1.9094.135 2.8044.39 1.4407-3.462 4.6737-5.875 8.431-5.875 3.6779 0 6.8535 2.312 8.3373 5.656 1.4339-.985 3.1379-1.556 4.966-1.556 3.9961 0 7.3991 2.729 8.6841 6.548 1.83-1.154 3.955-1.815 6.223-1.815 6.865 0 12.43 6.056 12.43 13.526 0 6.765-4.563 12.369-10.523 13.368-2.416 5.934-7.927 10.08-14.34 10.08-6.1114 0-11.4043-3.766-13.9792-9.256-.5833.104-1.1822.157-1.7928.157-.9707 0-1.9119-.136-2.8079-.391-1.4396 3.466-4.6741 5.881-8.4335 5.881-3.6775 0-6.8527-2.311-8.3368-5.656-1.4323.983-3.1336 1.552-4.9586 1.552-3.9973 0-7.4012-2.731-8.6849-6.55-1.8313 1.155-3.9587 1.817-6.2282 1.817-6.8652 0-12.4306-6.055-12.4306-13.526z" fill="#fff" fill-rule="evenodd"/><path d="m62.5681 419.233v-1.5h-1.5-.9025c-1.4218 0-2.5743-1.153-2.5743-2.575 0-1.421 1.1525-2.574 2.5743-2.574h33.9083c1.4218 0 2.5743 1.153 2.5743 2.574 0 1.422-1.1525 2.575-2.5743 2.575h-.9033-1.5v1.5 65.051.402l.201.348 58.6654 101.612c4.829 8.363-1.207 18.817-10.864 18.817h-125.1072c-9.65702 0-15.69267-10.454-10.86416-18.817l58.66546-101.612.201-.348v-.402z" stroke="#fff" stroke-width="3"/><path d="m227.122 436.979h-.001l-12.123 9.436c-1.314 1.023-1.908 2.648-1.739 4.213.152 1.404.217 2.863.217 4.335 0 1.539-.067 3.005-.2 4.425-.144 1.532.459 3.089 1.719 4.079l12.054 9.475.018.015.019.013c.611.451.841 1.269.381 2.127l-12.789 22.115-.01.016-.009.017c-.418.767-1.274 1.067-2.084.782l-14.31-5.748c-1.493-.6-3.153-.342-4.411.564-2.36 1.701-4.887 3.185-7.579 4.406-1.41.639-2.467 1.948-2.693 3.545l-2.158 15.225-.002.012-.001.013c-.103.823-.775 1.419-1.645 1.419h-25.6c-.8 0-1.506-.54-1.722-1.497l-2.151-15.172c-.226-1.598-1.283-2.905-2.69-3.546-2.688-1.223-5.194-2.714-7.596-4.429-1.255-.897-2.902-1.14-4.379-.547l-14.297 5.742c-.89.264-1.725-.055-2.115-.769l-.009-.017-.009-.016-12.791-22.117c-.385-.716-.176-1.69.413-2.148h.001l12.123-9.436c1.314-1.023 1.908-2.648 1.74-4.212-.152-1.424-.218-2.909-.218-4.336 0-1.386.128-2.856.321-4.301.212-1.592-.398-3.226-1.71-4.247l-12.123-9.436-.03-.023-.031-.022c-.614-.43-.826-1.273-.359-2.092 0-.001.001-.001.001-.002l12.731-22.129.009-.015.008-.015c.418-.767 1.274-1.067 2.084-.782l14.333 5.757c1.473.592 3.115.352 4.369-.539 2.377-1.69 4.911-3.208 7.604-4.439 1.404-.642 2.46-1.948 2.687-3.546l2.155-15.205c.159-.915.836-1.464 1.651-1.464h25.6c.853 0 1.564.587 1.718 1.464l2.155 15.205c.226 1.598 1.283 2.905 2.69 3.545 2.688 1.224 5.194 2.715 7.596 4.43 1.255.897 2.902 1.14 4.379.547l14.297-5.743c.89-.263 1.725.055 2.115.77l.009.017.009.016 12.791 22.117c.385.715.176 1.69-.413 2.148zm-85.646 17.984c0 14.028 11.472 25.5 25.5 25.5s25.5-11.472 25.5-25.5c0-14.029-11.472-25.5-25.5-25.5s-25.5 11.471-25.5 25.5z" stroke="#fff" stroke-width="3"/><path clip-rule="evenodd" d="m588.193 380.471-26.79-46.403c-5.406-9.363 1.351-21.067 12.163-21.067h125.107c10.812 0 17.569 11.704 12.163 21.067l-26.79 46.403z" fill="url(#j)" fill-rule="evenodd"/><path clip-rule="evenodd" d="m590.266 377.898c0 6.764 4.563 12.369 10.523 13.367 2.415 5.934 7.927 10.081 14.34 10.081 6.111 0 11.404-3.766 13.979-9.256.585.104 1.185.158 1.797.158.97 0 1.91-.135 2.805-.39 1.44 3.462 4.673 5.875 8.431 5.875 3.678 0 6.853-2.312 8.337-5.657 1.434.986 3.138 1.557 4.966 1.557 3.996 0 7.4-2.729 8.684-6.548 1.83 1.154 3.955 1.814 6.223 1.814 6.865 0 12.43-6.055 12.43-13.525 0-6.765-4.563-12.37-10.523-13.368-2.416-5.934-7.927-10.08-14.34-10.08-6.111 0-11.404 3.766-13.979 9.256-.583-.104-1.182-.157-1.793-.157-.971 0-1.912.135-2.808.39-1.439-3.465-4.674-5.88-8.433-5.88-3.678 0-6.853 2.311-8.337 5.655-1.432-.982-3.134-1.551-4.959-1.551-3.997 0-7.401 2.731-8.685 6.55-1.831-1.156-3.958-1.817-6.228-1.817-6.865 0-12.43 6.055-12.43 13.526z" fill="#fff" fill-rule="evenodd"/><path d="m621.564 500.73v1.5h-1.5-.902c-1.422 0-2.575 1.153-2.575 2.575 0 1.421 1.153 2.574 2.575 2.574h33.908c1.422 0 2.574-1.153 2.574-2.574 0-1.422-1.152-2.575-2.574-2.575h-.903-1.5v-1.5-65.052-.401l.201-.349 58.665-101.611c4.829-8.363-1.207-18.817-10.864-18.817h-125.107c-9.657 0-15.693 10.454-10.864 18.817l58.665 101.611.201.349v.401z" stroke="#fff" stroke-width="3"/><path d="m786.118 473.099h-.001l-12.123-9.436c-1.314-1.023-1.908-2.648-1.739-4.213.152-1.403.217-2.863.217-4.335 0-1.539-.067-3.005-.2-4.425-.144-1.532.459-3.089 1.719-4.079l12.054-9.475.018-.014.019-.014c.611-.45.841-1.269.381-2.126l-12.789-22.116-.01-.016-.009-.017c-.418-.767-1.274-1.066-2.084-.782l-14.31 5.748c-1.492.6-3.153.342-4.41-.564-2.361-1.7-4.888-3.185-7.58-4.406-1.41-.639-2.466-1.947-2.693-3.545l-2.158-15.225-.001-.012-.002-.012c-.103-.824-.775-1.42-1.645-1.42h-25.6c-.8 0-1.506.54-1.722 1.498l-2.151 15.171c-.226 1.598-1.283 2.905-2.69 3.546-2.688 1.223-5.194 2.714-7.596 4.43-1.254.896-2.902 1.14-4.379.546l-14.297-5.742c-.89-.264-1.725.055-2.115.769l-.009.017-.009.016-12.791 22.117c-.385.716-.176 1.69.413 2.148l.001.001 12.123 9.435c1.314 1.023 1.908 2.648 1.74 4.212-.152 1.424-.218 2.909-.218 4.336 0 1.386.128 2.856.321 4.301.212 1.592-.398 3.226-1.71 4.247l-12.123 9.436-.03.023-.031.022c-.614.43-.826 1.273-.359 2.092.001.001.001.001.001.002l12.731 22.129.009.015.008.015c.418.767 1.274 1.067 2.084.782l14.334-5.757c1.472-.591 3.114-.352 4.368.539 2.377 1.69 4.911 3.209 7.604 4.439 1.404.642 2.461 1.948 2.687 3.546l2.155 15.205c.159.915.836 1.464 1.651 1.464h25.6c.853 0 1.565-.587 1.718-1.464l2.155-15.205c.226-1.598 1.283-2.905 2.69-3.545 2.688-1.224 5.194-2.715 7.596-4.43 1.255-.896 2.902-1.14 4.379-.547l14.297 5.743c.89.263 1.725-.055 2.115-.77l.009-.016.009-.017 12.791-22.117c.385-.715.176-1.69-.413-2.148zm-85.646-17.984c0-14.028 11.472-25.5 25.5-25.5 14.029 0 25.5 11.472 25.5 25.5 0 14.029-11.471 25.5-25.5 25.5-14.028 0-25.5-11.471-25.5-25.5z" stroke="#fff" stroke-width="3"/><path clip-rule="evenodd" d="m215.529 380.471-26.79-46.403c-5.406-9.363 1.351-21.067 12.163-21.067h125.107c10.812 0 17.569 11.704 12.163 21.067l-26.79 46.403z" fill="url(#k)" fill-rule="evenodd"/><path clip-rule="evenodd" d="m217.602 377.898c0 6.764 4.563 12.369 10.523 13.367 2.415 5.934 7.927 10.081 14.34 10.081 6.111 0 11.404-3.766 13.979-9.256.585.104 1.185.158 1.797.158.97 0 1.91-.135 2.805-.39 1.44 3.462 4.673 5.875 8.431 5.875 3.678 0 6.853-2.312 8.337-5.657 1.434.986 3.138 1.557 4.966 1.557 3.996 0 7.4-2.729 8.684-6.548 1.83 1.154 3.955 1.814 6.223 1.814 6.865 0 12.43-6.055 12.43-13.525 0-6.765-4.563-12.37-10.523-13.368-2.416-5.934-7.927-10.08-14.34-10.08-6.111 0-11.404 3.766-13.979 9.256-.583-.104-1.182-.157-1.793-.157-.971 0-1.912.135-2.808.39-1.439-3.465-4.674-5.88-8.433-5.88-3.678 0-6.853 2.311-8.337 5.655-1.433-.982-3.134-1.551-4.959-1.551-3.997 0-7.401 2.731-8.685 6.55-1.831-1.156-3.958-1.817-6.228-1.817-6.865 0-12.43 6.055-12.43 13.526z" fill="#fff" fill-rule="evenodd"/><path d="m248.9 500.73v1.5h-1.5-.902c-1.422 0-2.575 1.153-2.575 2.575 0 1.421 1.153 2.574 2.575 2.574h33.908c1.422 0 2.574-1.153 2.574-2.574 0-1.422-1.152-2.575-2.574-2.575h-.903-1.5v-1.5-65.052-.401l.201-.349 58.665-101.611c4.829-8.363-1.207-18.817-10.864-18.817h-125.107c-9.657 0-15.693 10.454-10.864 18.817l58.665 101.611.201.349v.401z" stroke="#fff" stroke-width="3"/><path d="m413.454 472.947h-.001l-12.123-9.436c-1.314-1.023-1.908-2.648-1.739-4.213.152-1.404.217-2.864.217-4.335 0-1.539-.067-3.006-.2-4.426-.144-1.531.459-3.088 1.719-4.078l12.054-9.475.018-.015.019-.014c.611-.45.841-1.268.381-2.126l-12.789-22.115-.01-.016-.009-.017c-.418-.767-1.274-1.067-2.084-.782l-14.31 5.748c-1.493.599-3.153.342-4.41-.564-2.361-1.701-4.888-3.185-7.58-4.406-1.41-.639-2.466-1.948-2.693-3.545l-2.158-15.225-.002-.012-.001-.013c-.103-.824-.775-1.419-1.645-1.419h-25.6c-.8 0-1.506.54-1.722 1.497l-2.151 15.172c-.226 1.598-1.283 2.905-2.69 3.545-2.688 1.224-5.194 2.715-7.596 4.43-1.254.897-2.902 1.14-4.379.547l-14.297-5.743c-.89-.263-1.725.055-2.115.77l-.009.017-.009.016-12.791 22.117c-.385.716-.176 1.69.413 2.148h.001l12.123 9.436c1.314 1.023 1.908 2.647 1.74 4.212-.152 1.424-.218 2.908-.218 4.336 0 1.385.128 2.856.321 4.301.212 1.592-.398 3.226-1.71 4.247l-12.123 9.436-.03.023-.031.022c-.614.43-.826 1.273-.359 2.092 0 0 .001.001.001.001l12.731 22.13.009.015.008.015c.418.767 1.274 1.067 2.084.782l14.333-5.757c1.473-.592 3.115-.352 4.369.539 2.377 1.689 4.911 3.208 7.604 4.439 1.404.642 2.46 1.948 2.687 3.546l2.155 15.205c.159.914.836 1.464 1.651 1.464h25.6c.853 0 1.564-.588 1.718-1.464l2.155-15.205c.226-1.598 1.283-2.905 2.69-3.546 2.688-1.223 5.194-2.714 7.596-4.429 1.255-.897 2.902-1.14 4.379-.547l14.297 5.742c.89.264 1.725-.055 2.115-.769l.009-.017.009-.016 12.791-22.117c.385-.716.176-1.69-.413-2.148zm-85.646-17.984c0-14.029 11.472-25.5 25.5-25.5s25.5 11.471 25.5 25.5c0 14.028-11.472 25.5-25.5 25.5s-25.5-11.472-25.5-25.5z" stroke="#fff" stroke-width="3"/><path clip-rule="evenodd" d="m401.857 763.451-26.79 46.402c-5.406 9.364 1.351 21.068 12.163 21.068h125.107c10.812 0 17.569-11.704 12.163-21.068l-26.79-46.402z" fill="url(#l)" fill-rule="evenodd"/><path clip-rule="evenodd" d="m403.934 766.024c0-6.764 4.563-12.369 10.523-13.367 2.415-5.934 7.927-10.081 14.34-10.081 6.111 0 11.404 3.766 13.979 9.255.585-.103 1.185-.157 1.797-.157.97 0 1.91.135 2.805.389 1.44-3.461 4.673-5.874 8.431-5.874 3.678 0 6.853 2.312 8.337 5.656 1.434-.985 3.138-1.556 4.966-1.556 3.996 0 7.4 2.729 8.684 6.548 1.83-1.154 3.955-1.815 6.223-1.815 6.865 0 12.43 6.056 12.43 13.526 0 6.765-4.563 12.369-10.523 13.368-2.416 5.934-7.927 10.08-14.34 10.08-6.111 0-11.404-3.766-13.979-9.256-.583.104-1.182.157-1.793.157-.971 0-1.912-.136-2.808-.391-1.439 3.466-4.674 5.881-8.433 5.881-3.678 0-6.853-2.311-8.337-5.656-1.432.983-3.134 1.552-4.959 1.552-3.997 0-7.401-2.731-8.685-6.55-1.831 1.155-3.958 1.817-6.228 1.817-6.865 0-12.43-6.056-12.43-13.526z" fill="#fff" fill-rule="evenodd"/><path d="m435.232 643.192v-1.5h-1.5-.902c-1.422 0-2.575-1.153-2.575-2.575 0-1.421 1.153-2.574 2.575-2.574h33.908c1.422 0 2.574 1.153 2.574 2.574 0 1.422-1.152 2.575-2.574 2.575h-.903-1.5v1.5 65.051.402l.201.348 58.665 101.612c4.829 8.363-1.207 18.817-10.864 18.817h-125.107c-9.657 0-15.693-10.454-10.864-18.817l58.665-101.612.201-.348v-.402z" stroke="#fff" stroke-width="3"/><path d="m599.786 660.942h-.001l-12.123 9.436c-1.314 1.023-1.908 2.648-1.739 4.213.152 1.403.217 2.863.217 4.335 0 1.539-.067 3.005-.2 4.425-.144 1.532.459 3.089 1.719 4.079l12.054 9.475.018.015.019.013c.611.45.841 1.269.381 2.127l-12.789 22.115-.01.016-.009.017c-.418.767-1.274 1.066-2.084.782l-14.31-5.748c-1.493-.6-3.153-.342-4.41.564-2.361 1.7-4.888 3.185-7.58 4.406-1.41.639-2.466 1.947-2.693 3.545l-2.158 15.225-.001.012-.002.012c-.103.824-.775 1.42-1.645 1.42h-25.6c-.8 0-1.506-.54-1.722-1.498l-2.151-15.171c-.226-1.598-1.283-2.905-2.69-3.546-2.688-1.223-5.194-2.714-7.596-4.43-1.254-.896-2.902-1.14-4.379-.546l-14.297 5.742c-.89.264-1.725-.055-2.115-.769l-.009-.017-.009-.016-12.791-22.117c-.385-.716-.176-1.69.413-2.148h.001l12.123-9.436c1.314-1.023 1.908-2.648 1.74-4.212-.152-1.424-.218-2.909-.218-4.336 0-1.386.128-2.856.321-4.301.212-1.592-.398-3.226-1.71-4.247l-12.123-9.436-.03-.023-.031-.022c-.614-.43-.826-1.273-.359-2.092 0-.001.001-.001.001-.002l12.731-22.129.009-.015.008-.015c.418-.767 1.274-1.067 2.084-.782l14.334 5.757c1.472.591 3.114.352 4.368-.539 2.377-1.69 4.911-3.208 7.604-4.439 1.404-.642 2.461-1.948 2.687-3.546l2.155-15.205c.159-.915.836-1.464 1.651-1.464h25.6c.853 0 1.564.587 1.718 1.464l2.155 15.205c.226 1.598 1.283 2.905 2.69 3.545 2.688 1.224 5.194 2.715 7.596 4.43 1.255.896 2.902 1.14 4.379.547l14.297-5.743c.89-.263 1.725.055 2.115.77l.009.017.009.016 12.791 22.117c.385.715.176 1.69-.413 2.148zm-85.646 17.984c0 14.028 11.472 25.5 25.5 25.5s25.5-11.472 25.5-25.5c0-14.029-11.472-25.5-25.5-25.5s-25.5 11.471-25.5 25.5z" stroke="#fff" stroke-width="3"/><path clip-rule="evenodd" d="m29.1969 763.455-26.79039 46.402c-5.40586 9.364 1.35148 21.068 12.16319 21.068h125.1073c10.812 0 17.569-11.704 12.163-21.068l-26.79-46.402z" fill="url(#m)" fill-rule="evenodd"/><path clip-rule="evenodd" d="m31.2695 766.028c0-6.764 4.5635-12.369 10.5233-13.367 2.4156-5.935 7.9273-10.081 14.3402-10.081 6.1113 0 11.4042 3.766 13.9791 9.255.5847-.103 1.185-.157 1.7971-.157.9694 0 1.9094.135 2.8044.389 1.4407-3.462 4.6737-5.874 8.431-5.874 3.6779 0 6.8535 2.312 8.3373 5.656 1.4339-.985 3.1379-1.556 4.966-1.556 3.9961 0 7.3991 2.729 8.6841 6.548 1.83-1.154 3.955-1.815 6.223-1.815 6.865 0 12.43 6.056 12.43 13.526 0 6.765-4.563 12.369-10.523 13.368-2.416 5.934-7.927 10.08-14.34 10.08-6.1114 0-11.4043-3.766-13.9792-9.256-.5833.103-1.1822.157-1.7928.157-.9707 0-1.9119-.136-2.8079-.391-1.4396 3.465-4.6741 5.88-8.4335 5.88-3.6775 0-6.8527-2.31-8.3368-5.655-1.4323.982-3.1336 1.552-4.9586 1.552-3.9973 0-7.4012-2.731-8.6849-6.551-1.8313 1.156-3.9587 1.818-6.2282 1.818-6.8652 0-12.4306-6.056-12.4306-13.526z" fill="#fff" fill-rule="evenodd"/><path d="m62.5681 643.195v-1.5h-1.5-.9025c-1.4218 0-2.5743-1.152-2.5743-2.574s1.1525-2.574 2.5743-2.574h33.9083c1.4218 0 2.5743 1.152 2.5743 2.574s-1.1525 2.574-2.5743 2.574h-.9033-1.5v1.5 65.052.402l.201.348 58.6654 101.612c4.829 8.363-1.207 18.817-10.864 18.817h-125.1072c-9.65702 0-15.69267-10.454-10.86416-18.817l58.66546-101.612.201-.348v-.402z" stroke="#fff" stroke-width="3"/><path d="m227.122 660.942h-.001l-12.123 9.436c-1.314 1.023-1.908 2.648-1.739 4.213.152 1.403.217 2.863.217 4.335 0 1.539-.067 3.005-.2 4.425-.144 1.532.459 3.089 1.719 4.079l12.054 9.475.018.015.019.013c.611.45.841 1.269.381 2.127l-12.789 22.115-.01.016-.009.017c-.418.767-1.274 1.066-2.084.782l-14.31-5.748c-1.493-.6-3.153-.342-4.411.564-2.36 1.7-4.887 3.185-7.579 4.406-1.41.639-2.467 1.947-2.693 3.545l-2.158 15.225-.002.012-.001.012c-.103.824-.775 1.42-1.645 1.42h-25.6c-.8 0-1.506-.54-1.722-1.498l-2.151-15.171c-.226-1.598-1.283-2.905-2.69-3.546-2.688-1.223-5.194-2.714-7.596-4.43-1.255-.896-2.902-1.14-4.379-.546l-14.297 5.742c-.89.264-1.725-.055-2.115-.769l-.009-.017-.009-.016-12.791-22.117c-.385-.716-.176-1.69.413-2.148h.001l12.123-9.436c1.314-1.023 1.908-2.648 1.74-4.212-.152-1.424-.218-2.909-.218-4.336 0-1.386.128-2.856.321-4.301.212-1.592-.398-3.226-1.71-4.247l-12.123-9.436-.03-.023-.031-.022c-.614-.43-.826-1.273-.359-2.092 0-.001.001-.001.001-.002l12.731-22.129.009-.015.008-.015c.418-.767 1.274-1.067 2.084-.782l14.333 5.757c1.473.591 3.115.352 4.369-.539 2.377-1.69 4.911-3.208 7.604-4.439 1.404-.642 2.46-1.948 2.687-3.546l2.155-15.205c.159-.915.836-1.464 1.651-1.464h25.6c.853 0 1.564.587 1.718 1.464l2.155 15.205c.226 1.598 1.283 2.905 2.69 3.545 2.688 1.224 5.194 2.715 7.596 4.43 1.255.896 2.902 1.14 4.379.547l14.297-5.743c.89-.263 1.725.055 2.115.77l.009.017.009.016 12.791 22.117c.385.715.176 1.69-.413 2.148zm-85.646 17.984c0 14.028 11.472 25.5 25.5 25.5s25.5-11.472 25.5-25.5c0-14.029-11.472-25.5-25.5-25.5s-25.5 11.471-25.5 25.5z" stroke="#fff" stroke-width="3"/><path clip-rule="evenodd" d="m588.193 604.434-26.79-46.403c-5.406-9.363 1.351-21.067 12.163-21.067h125.107c10.812 0 17.569 11.704 12.163 21.067l-26.79 46.403z" fill="url(#n)" fill-rule="evenodd"/><path clip-rule="evenodd" d="m590.266 601.86c0 6.765 4.563 12.369 10.523 13.368 2.415 5.934 7.927 10.081 14.34 10.081 6.111 0 11.404-3.766 13.979-9.256.585.104 1.185.158 1.797.158.97 0 1.91-.135 2.805-.39 1.44 3.462 4.673 5.874 8.431 5.874 3.678 0 6.853-2.311 8.337-5.656 1.434.985 3.138 1.557 4.966 1.557 3.996 0 7.4-2.729 8.684-6.548 1.83 1.154 3.955 1.814 6.223 1.814 6.865 0 12.43-6.055 12.43-13.526 0-6.764-4.563-12.369-10.523-13.367-2.416-5.934-7.927-10.08-14.34-10.08-6.111 0-11.404 3.766-13.979 9.256-.583-.104-1.182-.158-1.793-.158-.971 0-1.912.136-2.808.391-1.439-3.465-4.674-5.88-8.433-5.88-3.678 0-6.853 2.311-8.337 5.655-1.432-.982-3.134-1.551-4.959-1.551-3.997 0-7.401 2.73-8.685 6.55-1.831-1.156-3.958-1.817-6.228-1.817-6.865 0-12.43 6.055-12.43 13.525z" fill="#fff" fill-rule="evenodd"/><path d="m621.564 724.693v1.5h-1.5-.902c-1.422 0-2.575 1.153-2.575 2.574 0 1.422 1.153 2.575 2.575 2.575h33.908c1.422 0 2.574-1.153 2.574-2.575 0-1.421-1.152-2.574-2.574-2.574h-.903-1.5v-1.5-65.052-.402l.201-.348 58.665-101.611c4.829-8.364-1.207-18.818-10.864-18.818h-125.107c-9.657 0-15.693 10.454-10.864 18.818l58.665 101.611.201.348v.402z" stroke="#fff" stroke-width="3"/><path d="m786.118 697.062h-.001l-12.123-9.436c-1.314-1.023-1.908-2.648-1.739-4.213.152-1.403.217-2.863.217-4.335 0-1.539-.067-3.005-.2-4.425-.144-1.532.459-3.089 1.719-4.079l12.054-9.475.018-.015.019-.013c.611-.451.841-1.269.381-2.127l-12.789-22.115-.01-.016-.009-.017c-.418-.767-1.274-1.067-2.084-.782l-14.31 5.748c-1.492.6-3.153.342-4.41-.564-2.361-1.701-4.888-3.185-7.58-4.406-1.41-.639-2.466-1.948-2.693-3.545l-2.158-15.225-.001-.012-.002-.013c-.103-.823-.775-1.419-1.645-1.419h-25.6c-.8 0-1.506.54-1.722 1.497l-2.151 15.172c-.226 1.598-1.283 2.905-2.69 3.546-2.688 1.223-5.194 2.714-7.596 4.43-1.254.896-2.902 1.14-4.379.546l-14.297-5.742c-.89-.264-1.725.055-2.115.769l-.009.017-.009.016-12.791 22.117c-.385.716-.176 1.69.413 2.148h.001l12.123 9.436c1.314 1.023 1.908 2.648 1.74 4.212-.152 1.424-.218 2.909-.218 4.336 0 1.386.128 2.856.321 4.301.212 1.592-.398 3.226-1.71 4.247l-12.123 9.436-.03.023-.031.022c-.614.43-.826 1.273-.359 2.092.001.001.001.001.001.002l12.731 22.129.009.015.008.015c.418.767 1.274 1.067 2.084.782l14.334-5.757c1.472-.592 3.114-.352 4.368.539 2.377 1.69 4.911 3.208 7.604 4.439 1.404.642 2.461 1.948 2.687 3.546l2.155 15.205c.159.915.836 1.464 1.651 1.464h25.6c.853 0 1.565-.587 1.718-1.464l2.155-15.205c.226-1.598 1.283-2.905 2.69-3.545 2.688-1.224 5.194-2.715 7.596-4.43 1.255-.897 2.902-1.14 4.379-.547l14.297 5.743c.89.263 1.725-.055 2.115-.77l.009-.017.009-.016 12.791-22.117c.385-.715.176-1.69-.413-2.148zm-85.646-17.984c0-14.028 11.472-25.5 25.5-25.5 14.029 0 25.5 11.472 25.5 25.5 0 14.029-11.471 25.5-25.5 25.5-14.028 0-25.5-11.471-25.5-25.5z" stroke="#fff" stroke-width="3"/><path clip-rule="evenodd" d="m215.529 604.434-26.79-46.403c-5.406-9.363 1.351-21.067 12.163-21.067h125.107c10.812 0 17.569 11.704 12.163 21.067l-26.79 46.403z" fill="url(#o)" fill-rule="evenodd"/><path clip-rule="evenodd" d="m217.602 601.86c0 6.765 4.563 12.369 10.523 13.368 2.415 5.934 7.927 10.081 14.34 10.081 6.111 0 11.404-3.766 13.979-9.256.585.104 1.185.158 1.797.158.97 0 1.91-.135 2.805-.39 1.44 3.462 4.673 5.874 8.431 5.874 3.678 0 6.853-2.311 8.337-5.656 1.434.985 3.138 1.557 4.966 1.557 3.996 0 7.4-2.729 8.684-6.548 1.83 1.154 3.955 1.814 6.223 1.814 6.865 0 12.43-6.055 12.43-13.526 0-6.764-4.563-12.369-10.523-13.367-2.416-5.934-7.927-10.08-14.34-10.08-6.111 0-11.404 3.766-13.979 9.256-.583-.104-1.182-.158-1.793-.158-.971 0-1.912.136-2.808.391-1.439-3.465-4.674-5.88-8.433-5.88-3.678 0-6.853 2.311-8.337 5.655-1.433-.982-3.134-1.551-4.959-1.551-3.997 0-7.401 2.73-8.685 6.55-1.831-1.156-3.958-1.817-6.228-1.817-6.865 0-12.43 6.055-12.43 13.525z" fill="#fff" fill-rule="evenodd"/><g stroke="#fff" stroke-width="3"><path d="m248.9 724.693v1.5h-1.5-.902c-1.422 0-2.575 1.153-2.575 2.574 0 1.422 1.153 2.575 2.575 2.575h33.908c1.422 0 2.574-1.153 2.574-2.575 0-1.421-1.152-2.574-2.574-2.574h-.903-1.5v-1.5-65.052-.402l.201-.348 58.665-101.611c4.829-8.364-1.207-18.818-10.864-18.818h-125.107c-9.657 0-15.693 10.454-10.864 18.818l58.665 101.611.201.348v.402z"/><path d="m413.454 696.91h-.001l-12.123-9.436c-1.314-1.024-1.908-2.648-1.739-4.213.152-1.404.217-2.864.217-4.335 0-1.539-.067-3.006-.2-4.426-.144-1.531.459-3.088 1.719-4.078l12.054-9.476.018-.014.019-.014c.611-.45.841-1.269.381-2.126l-12.789-22.115-.01-.017-.009-.016c-.418-.767-1.274-1.067-2.084-.782l-14.31 5.748c-1.493.599-3.153.342-4.41-.564-2.361-1.701-4.888-3.185-7.58-4.406-1.41-.639-2.466-1.948-2.693-3.545l-2.158-15.225-.002-.013-.001-.012c-.103-.824-.775-1.419-1.645-1.419h-25.6c-.8 0-1.506.54-1.722 1.497l-2.151 15.172c-.226 1.598-1.283 2.905-2.69 3.545-2.688 1.224-5.194 2.715-7.596 4.43-1.254.896-2.902 1.14-4.379.547l-14.297-5.743c-.89-.263-1.725.055-2.115.77l-.009.016-.009.017-12.791 22.117c-.385.715-.176 1.69.413 2.148h.001l12.123 9.436c1.314 1.023 1.908 2.647 1.74 4.212-.152 1.424-.218 2.908-.218 4.336 0 1.385.128 2.855.321 4.301.212 1.592-.398 3.226-1.71 4.247l-12.123 9.436-.03.023-.031.022c-.614.429-.826 1.273-.359 2.092 0 0 .001.001.001.001l12.731 22.13.009.015.008.015c.418.767 1.274 1.066 2.084.782l14.333-5.758c1.473-.591 3.115-.351 4.369.54 2.377 1.689 4.911 3.208 7.604 4.439 1.404.642 2.46 1.948 2.687 3.546l2.155 15.205c.159.914.836 1.464 1.651 1.464h25.6c.853 0 1.564-.588 1.718-1.465l2.155-15.204c.226-1.598 1.283-2.905 2.69-3.546 2.688-1.223 5.194-2.714 7.596-4.43 1.255-.896 2.902-1.14 4.379-.546l14.297 5.742c.89.264 1.725-.055 2.115-.769l.009-.017.009-.016 12.791-22.117c.385-.716.176-1.69-.413-2.148zm-85.646-17.984c0-14.029 11.472-25.5 25.5-25.5s25.5 11.471 25.5 25.5c0 14.028-11.472 25.5-25.5 25.5s-25.5-11.472-25.5-25.5z"/><path d="m435.232 867.153v-1.5h-1.5-.902c-1.422 0-2.575-1.153-2.575-2.575s1.153-2.574 2.575-2.574h33.908c1.422 0 2.574 1.152 2.574 2.574s-1.152 2.575-2.574 2.575h-.903-1.5v1.5 65.051.402l.201.348 58.665 101.616c4.829 8.36-1.207 18.81-10.864 18.81h-125.107c-9.657 0-15.693-10.45-10.864-18.81l58.665-101.616.201-.348v-.402z"/><path d="m599.786 884.905h-.001l-12.123 9.436c-1.314 1.023-1.908 2.648-1.739 4.212.152 1.404.217 2.864.217 4.336 0 1.538-.067 3.005-.2 4.425-.144 1.532.459 3.088 1.719 4.079l12.054 9.475.018.014.019.014c.611.45.841 1.269.381 2.126l-12.789 22.116-.01.016-.009.016c-.418.768-1.274 1.067-2.084.783l-14.31-5.748c-1.493-.6-3.153-.342-4.41.564-2.361 1.7-4.888 3.185-7.58 4.406-1.41.639-2.466 1.947-2.693 3.544l-2.158 15.226-.001.012-.002.012c-.103.824-.775 1.42-1.645 1.42h-25.6c-.8 0-1.506-.54-1.722-1.498l-2.151-15.172c-.226-1.597-1.283-2.904-2.69-3.545-2.688-1.223-5.194-2.714-7.596-4.43-1.254-.896-2.902-1.14-4.379-.546l-14.297 5.742c-.89.264-1.725-.055-2.115-.77l-.009-.016-.009-.016-12.791-22.117c-.385-.716-.176-1.69.413-2.148l.001-.001 12.123-9.435c1.314-1.023 1.908-2.648 1.74-4.212-.152-1.424-.218-2.909-.218-4.336 0-1.386.128-2.856.321-4.302.212-1.591-.398-3.225-1.71-4.246l-12.123-9.436-.03-.023-.031-.022c-.614-.43-.826-1.273-.359-2.092 0-.001.001-.001.001-.002l12.731-22.129.009-.015.008-.015c.418-.767 1.274-1.067 2.084-.782l14.334 5.757c1.472.591 3.114.352 4.368-.539 2.377-1.69 4.911-3.209 7.604-4.439 1.404-.642 2.461-1.948 2.687-3.546l2.155-15.205c.159-.915.836-1.464 1.651-1.464h25.6c.853 0 1.564.587 1.718 1.464l2.155 15.205c.226 1.597 1.283 2.905 2.69 3.545 2.688 1.224 5.194 2.715 7.596 4.43 1.255.896 2.902 1.14 4.379.547l14.297-5.743c.89-.263 1.725.055 2.115.77l.009.016.009.017 12.791 22.117c.385.715.176 1.69-.413 2.148zm-85.646 17.984c0 14.028 11.472 25.5 25.5 25.5s25.5-11.472 25.5-25.5c0-14.029-11.472-25.5-25.5-25.5s-25.5 11.471-25.5 25.5z"/><path d="m62.5681 867.158v-1.5h-1.5-.9025c-1.4218 0-2.5743-1.152-2.5743-2.574s1.1525-2.574 2.5743-2.574h33.9083c1.4218 0 2.5743 1.152 2.5743 2.574s-1.1525 2.574-2.5743 2.574h-.9033-1.5v1.5 65.052.402l.201.348 58.6654 101.61c4.829 8.37-1.207 18.82-10.864 18.82h-125.1072c-9.65702 0-15.69267-10.45-10.86416-18.82l58.66546-101.61.201-.348v-.402z"/><path d="m227.122 884.905h-.001l-12.123 9.436c-1.314 1.023-1.908 2.648-1.739 4.212.152 1.404.217 2.864.217 4.336 0 1.538-.067 3.005-.2 4.425-.144 1.532.459 3.088 1.719 4.079l12.054 9.475.018.014.019.014c.611.45.841 1.269.381 2.126l-12.789 22.116-.01.016-.009.016c-.418.768-1.274 1.067-2.084.783l-14.31-5.748c-1.493-.6-3.153-.342-4.411.564-2.36 1.7-4.887 3.185-7.579 4.406-1.41.639-2.467 1.947-2.693 3.544l-2.158 15.226-.002.012-.001.012c-.103.824-.775 1.42-1.645 1.42h-25.6c-.8 0-1.506-.54-1.722-1.498l-2.151-15.172c-.226-1.597-1.283-2.904-2.69-3.545-2.688-1.223-5.194-2.714-7.596-4.43-1.255-.896-2.902-1.14-4.379-.546l-14.297 5.742c-.89.264-1.725-.055-2.115-.77l-.009-.016-.009-.016-12.791-22.117c-.385-.716-.176-1.69.413-2.148l.001-.001 12.123-9.435c1.314-1.023 1.908-2.648 1.74-4.212-.152-1.424-.218-2.909-.218-4.336 0-1.386.128-2.856.321-4.302.212-1.591-.398-3.225-1.71-4.246l-12.123-9.436-.03-.023-.031-.022c-.614-.43-.826-1.273-.359-2.092 0-.001.001-.001.001-.002l12.731-22.129.009-.015.008-.015c.418-.767 1.274-1.067 2.084-.782l14.333 5.757c1.473.591 3.115.352 4.369-.539 2.377-1.69 4.911-3.209 7.604-4.439 1.404-.642 2.46-1.948 2.687-3.546l2.155-15.205c.159-.915.836-1.464 1.651-1.464h25.6c.853 0 1.564.587 1.718 1.464l2.155 15.205c.226 1.597 1.283 2.905 2.69 3.545 2.688 1.224 5.194 2.715 7.596 4.43 1.255.896 2.902 1.14 4.379.547l14.297-5.743c.89-.263 1.725.055 2.115.77l.009.016.009.017 12.791 22.117c.385.715.176 1.69-.413 2.148zm-85.646 17.984c0 14.028 11.472 25.5 25.5 25.5s25.5-11.472 25.5-25.5c0-14.029-11.472-25.5-25.5-25.5s-25.5 11.471-25.5 25.5z"/></g><path clip-rule="evenodd" d="m588.193 828.396-26.79-46.402c-5.406-9.363 1.351-21.067 12.163-21.067h125.107c10.812 0 17.569 11.704 12.163 21.067l-26.79 46.402z" fill="url(#p)" fill-rule="evenodd"/><path clip-rule="evenodd" d="m590.266 825.823c0 6.765 4.563 12.369 10.523 13.368 2.415 5.934 7.927 10.08 14.34 10.08 6.111 0 11.404-3.765 13.979-9.255.585.104 1.185.158 1.797.158.97 0 1.91-.135 2.805-.39 1.44 3.462 4.673 5.874 8.431 5.874 3.678 0 6.853-2.311 8.337-5.656 1.434.985 3.138 1.556 4.966 1.556 3.996 0 7.4-2.729 8.684-6.547 1.83 1.154 3.955 1.814 6.223 1.814 6.865 0 12.43-6.056 12.43-13.526 0-6.764-4.563-12.369-10.523-13.367-2.416-5.934-7.927-10.08-14.34-10.08-6.111 0-11.404 3.766-13.979 9.255-.583-.103-1.182-.157-1.793-.157-.971 0-1.912.136-2.808.391-1.439-3.465-4.674-5.88-8.433-5.88-3.678 0-6.853 2.311-8.337 5.655-1.432-.982-3.134-1.551-4.959-1.551-3.997 0-7.401 2.73-8.685 6.55-1.831-1.156-3.958-1.818-6.228-1.818-6.865 0-12.43 6.056-12.43 13.526z" fill="#fff" fill-rule="evenodd"/><path d="m621.564 948.656v1.5h-1.5-.902c-1.422 0-2.575 1.153-2.575 2.574 0 1.422 1.153 2.575 2.575 2.575h33.908c1.422 0 2.574-1.153 2.574-2.575 0-1.421-1.152-2.574-2.574-2.574h-.903-1.5v-1.5-65.052-.402l.201-.348 58.665-101.611c4.829-8.364-1.207-18.818-10.864-18.818h-125.107c-9.657 0-15.693 10.454-10.864 18.818l58.665 101.611.201.348v.402z" stroke="#fff" stroke-width="3"/><path d="m786.118 921.025h-.001l-12.123-9.436c-1.314-1.023-1.908-2.648-1.739-4.213.152-1.404.217-2.863.217-4.335 0-1.539-.067-3.005-.2-4.425-.144-1.532.459-3.089 1.719-4.079l12.054-9.475.018-.015.019-.014c.611-.45.841-1.268.381-2.126l-12.789-22.115-.01-.016-.009-.017c-.418-.767-1.274-1.067-2.084-.782l-14.31 5.748c-1.492.6-3.153.342-4.41-.564-2.361-1.701-4.888-3.185-7.58-4.406-1.41-.639-2.466-1.948-2.693-3.545l-2.158-15.225-.001-.012-.002-.013c-.103-.823-.775-1.419-1.645-1.419h-25.6c-.8 0-1.506.54-1.722 1.497l-2.151 15.172c-.226 1.598-1.283 2.905-2.69 3.545-2.688 1.224-5.194 2.715-7.596 4.43-1.254.897-2.902 1.14-4.379.547l-14.297-5.743c-.89-.263-1.725.056-2.115.77l-.009.017-.009.016-12.791 22.117c-.385.716-.176 1.69.413 2.148h.001l12.123 9.436c1.314 1.023 1.908 2.647 1.74 4.212-.152 1.424-.218 2.909-.218 4.336 0 1.385.128 2.856.321 4.301.212 1.592-.398 3.226-1.71 4.247l-12.123 9.436-.03.023-.031.022c-.614.43-.826 1.273-.359 2.092.001 0 .001.001.001.001l12.731 22.13.009.015.008.015c.418.767 1.274 1.067 2.084.782l14.334-5.757c1.472-.592 3.114-.352 4.368.539 2.377 1.689 4.911 3.208 7.604 4.439 1.404.642 2.461 1.948 2.687 3.546l2.155 15.205c.159.915.836 1.464 1.651 1.464h25.6c.853 0 1.565-.587 1.718-1.464l2.155-15.205c.226-1.598 1.283-2.905 2.69-3.545 2.688-1.224 5.194-2.715 7.596-4.43 1.255-.897 2.902-1.14 4.379-.547l14.297 5.743c.89.263 1.725-.056 2.115-.77l.009-.017.009-.016 12.791-22.117c.385-.716.176-1.69-.413-2.148zm-85.646-17.984c0-14.028 11.472-25.5 25.5-25.5 14.029 0 25.5 11.472 25.5 25.5s-11.471 25.5-25.5 25.5c-14.028 0-25.5-11.472-25.5-25.5z" stroke="#fff" stroke-width="3"/><path clip-rule="evenodd" d="m215.529 828.396-26.79-46.402c-5.406-9.363 1.351-21.067 12.163-21.067h125.107c10.812 0 17.569 11.704 12.163 21.067l-26.79 46.402z" fill="url(#q)" fill-rule="evenodd"/><path clip-rule="evenodd" d="m217.602 825.823c0 6.765 4.563 12.369 10.523 13.368 2.415 5.934 7.927 10.08 14.34 10.08 6.111 0 11.404-3.765 13.979-9.255.585.104 1.185.158 1.797.158.97 0 1.91-.135 2.805-.39 1.44 3.462 4.673 5.874 8.431 5.874 3.678 0 6.853-2.311 8.337-5.656 1.434.985 3.138 1.556 4.966 1.556 3.996 0 7.4-2.729 8.684-6.547 1.83 1.154 3.955 1.814 6.223 1.814 6.865 0 12.43-6.056 12.43-13.526 0-6.764-4.563-12.369-10.523-13.367-2.416-5.934-7.927-10.08-14.34-10.08-6.111 0-11.404 3.766-13.979 9.255-.583-.103-1.182-.157-1.793-.157-.971 0-1.912.136-2.808.391-1.439-3.465-4.674-5.88-8.433-5.88-3.678 0-6.853 2.311-8.337 5.655-1.433-.982-3.134-1.551-4.959-1.551-3.997 0-7.401 2.73-8.685 6.55-1.831-1.156-3.958-1.818-6.228-1.818-6.865 0-12.43 6.056-12.43 13.526z" fill="#fff" fill-rule="evenodd"/><path d="m248.9 948.656v1.5h-1.5-.902c-1.422 0-2.575 1.153-2.575 2.574 0 1.422 1.153 2.575 2.575 2.575h33.908c1.422 0 2.574-1.153 2.574-2.575 0-1.421-1.152-2.574-2.574-2.574h-.903-1.5v-1.5-65.052-.402l.201-.348 58.665-101.611c4.829-8.364-1.207-18.818-10.864-18.818h-125.107c-9.657 0-15.693 10.454-10.864 18.818l58.665 101.611.201.348v.402z" stroke="#fff" stroke-width="3"/><path d="m413.454 920.873-.001-.001-12.123-9.435c-1.314-1.024-1.908-2.648-1.739-4.213.152-1.404.217-2.864.217-4.335 0-1.539-.067-3.006-.2-4.426-.144-1.531.459-3.088 1.719-4.078l12.054-9.476.018-.014.019-.014c.611-.45.841-1.269.381-2.126l-12.789-22.115-.01-.017-.009-.016c-.418-.767-1.274-1.067-2.084-.782l-14.31 5.748c-1.493.599-3.153.342-4.41-.564-2.361-1.701-4.888-3.185-7.58-4.406-1.41-.639-2.466-1.948-2.693-3.545l-2.158-15.226-.002-.012-.001-.012c-.103-.824-.775-1.419-1.645-1.419h-25.6c-.8 0-1.506.539-1.722 1.497l-2.151 15.172c-.226 1.597-1.283 2.905-2.69 3.545-2.688 1.224-5.194 2.715-7.596 4.43-1.254.896-2.902 1.14-4.379.547l-14.297-5.743c-.89-.263-1.725.055-2.115.77l-.009.016-.009.017-12.791 22.117c-.385.715-.176 1.69.413 2.148h.001l12.123 9.436c1.314 1.023 1.908 2.647 1.74 4.212-.152 1.424-.218 2.908-.218 4.336 0 1.385.128 2.855.321 4.301.212 1.592-.398 3.226-1.71 4.247l-12.123 9.435-.03.024-.031.022c-.614.429-.826 1.273-.359 2.092 0 0 .001.001.001.001l12.731 22.13.009.014.008.015c.418.768 1.274 1.067 2.084.783l14.333-5.758c1.473-.591 3.115-.351 4.369.54 2.377 1.689 4.911 3.208 7.604 4.439 1.404.642 2.46 1.948 2.687 3.545l2.155 15.205c.159.915.836 1.465 1.651 1.465h25.6c.853 0 1.564-.588 1.718-1.465l2.155-15.205c.226-1.597 1.283-2.904 2.69-3.545 2.688-1.223 5.194-2.714 7.596-4.43 1.255-.896 2.902-1.14 4.379-.546l14.297 5.742c.89.264 1.725-.055 2.115-.77l.009-.016.009-.016 12.791-22.117c.385-.716.176-1.69-.413-2.148zm-85.646-17.984c0-14.029 11.472-25.5 25.5-25.5s25.5 11.471 25.5 25.5c0 14.028-11.472 25.5-25.5 25.5s-25.5-11.472-25.5-25.5z" stroke="#fff" stroke-width="3"/></g></svg>