<svg fill="none" height="48" viewBox="0 0 48 48" width="48" xmlns="http://www.w3.org/2000/svg"><path d="m24.0006 18.9996c-2.7613 0-4.9992 2.2391-4.9992 5.0004s2.2379 5.0004 4.9992 5.0004 5.0004-2.2391 5.0004-5.0004-2.2391-5.0004-5.0004-5.0004z"/><g clip-rule="evenodd" fill-rule="evenodd"><path d="m15.1551 35.6936c.5282.2058 1.3231.4494 2.7855.516 1.5806.0728 2.0543.0873 6.06.0873s4.4807-.0145 6.0618-.0873c1.4624-.0664 2.2576-.31 2.7856-.516.7003-.2726 1.2007-.5978 1.7253-1.122.5247-.5241.8494-1.0238 1.122-1.7241.2046-.5283.4494-1.3231.516-2.7856.0727-1.5824.0873-2.0561.0873-6.0618s-.0146-4.4793-.0873-6.0618c-.0664-1.4624-.31-2.2575-.516-2.7855-.2726-.7004-.5966-1.2008-1.122-1.7254-.5253-.5246-1.025-.8506-1.7253-1.122-.5296-.204-1.3232-.4494-2.7856-.516-1.5824-.0715-2.0579-.0872-6.0618-.0872s-4.4789.0145-6.06.0872c-1.4624.0665-2.2575.3101-2.7855.516-.7016.2714-1.2008.5966-1.7254 1.122s-.8494 1.025-1.122 1.7254c-.204.5295-.4494 1.3231-.516 2.7855-.0715 1.5825-.0872 2.0561-.0872 6.0618s.0145 4.4807.0872 6.0618c.0665 1.4625.3101 2.2576.516 2.7856.2714.7003.5966 1.1995 1.122 1.7241.5253.5247 1.025.8494 1.7254 1.122zm8.8455-3.9913c-4.254 0-7.7023-3.4483-7.7023-7.7023s3.4483-7.7023 7.7023-7.7023 7.7023 3.4483 7.7023 7.7023-3.4483 7.7023-7.7023 7.7023zm6.5102-14.7099c-.1977-.2961-.3031-.6441-.303-1.0001.0005-.4772.1903-.9347.5278-1.2721s.7951-.527 1.2723-.5272c.356.0001.7046.1059 1.0006.3038.2959.1979.5265.4791.6626.808.1361.329.1716.6909.102 1.0401-.0696.3491-.2411.6698-.493.9214-.2518.2516-.5726.4229-.9218.4923-.3492.0693-.7111.0335-1.0399-.1029-.3289-.1364-.6099-.3672-.8076-.6633z"/><path d="m24 0c-13.2548 0-24 10.7452-24 24s10.7452 24 24 24 24-10.7452 24-24-10.7452-24-24-24zm-9.8245 9.78756c.9529-.3708 2.0441-.624 3.6409-.69672 1.6002-.07392 2.1119-.09084 6.1854-.09084s4.5848.01812 6.1842.09084c1.5956.07152 2.6862.32592 3.6409.69672.9851.38294 1.8225.89534 2.656 1.73014.8335.8349 1.3461 1.6709 1.7302 2.6572.3707.9529.6239 2.0439.6967 3.6409.0727 1.5994.0896 2.1107.0896 6.1842s-.0169 4.5836-.0896 6.1842c-.0716 1.5968-.326 2.6874-.6967 3.6409-.3841.9863-.8954 1.8237-1.7302 2.6572-.8349.8335-1.6709 1.3461-2.6572 1.7301-.9535.3708-2.0439.624-3.6409.6968-1.5994.0739-2.1107.0908-6.1842.0908s-4.584-.0181-6.1842-.0908c-1.5968-.0728-2.6862-.326-3.6409-.6968-.9869-.384-1.8224-.897-2.6572-1.7301-.8347-.8332-1.3472-1.6709-1.73013-2.6572-.3708-.9535-.624-2.0439-.69672-3.6409-.07392-1.5994-.09084-2.1107-.09084-6.1842s.01692-4.5848.09084-6.1842c.07272-1.5968.32592-2.6874.69672-3.6409.38293-.9869.89533-1.8237 1.73013-2.6572.8349-.8335 1.6703-1.3472 2.6572-1.73014z"/></g></g></svg>
