<svg fill="none" height="48" viewBox="0 0 48 48" width="48" xmlns="http://www.w3.org/2000/svg"><path clip-rule="evenodd" d="m24 0c-13.2548 0-24 10.7452-24 24s10.7452 24 24 24 24-10.7452 24-24-10.7452-24-24-24zm8.6374 35.325c1.575-.0375 3.1125-.0375 4.6875 0 .3375 0 .4125-.1125.4125-.4125v-8.9625c0-.7125-.0375-1.425-.15-2.1375-.45-3-2.25-4.95-5.0625-5.4-2.4375-.375-4.5.225-5.9625 2.3625l-.1875.1875v-1.9125c0-.3-.075-.375-.375-.375h-4.8c-.3 0-.375.075-.375.4125.0375 2.8875.0375 5.8125.0375 8.7375 0 2.4 0 4.7625-.0375 7.125 0 .3.075.375.375.375h4.8c.2625.0375.4125-.0375.375-.3375-.0251-.2515-.0165-.4861-.0081-.7152.0041-.1125.0081-.2236.0081-.3348v-7.875c0-1.125.3375-2.0625 1.2-2.7375 1.6125-1.3125 3.8625-.6 4.425 1.35.1875.6.225 1.2375.225 1.875v8.3625c0 .3375.075.4125.4125.4125zm-14.8125-8.325v7.875c0 .3375-.075.45-.4125.45-1.05-.025-2.1-.0166-3.15-.0083-.525.0042-1.05.0083-1.575.0083-.3 0-.375-.075-.375-.375v-15.9c0-.2625.075-.375.375-.375h4.8375c.3375 0 .375.1125.375.4125-.075 2.625-.075 5.25-.075 7.9125zm-3.4125-10.6125c1.7625.3 3.3-.5625 3.675-2.0625.4875-1.9875-.9-3.675-3-3.6375-1.3875-.0375-2.475.6375-2.925 1.7625-.675 1.8.375 3.6375 2.25 3.9375z" fill-rule="evenodd"/></svg>