<svg fill="none" height="138" viewBox="0 0 139 138" width="139" xmlns="http://www.w3.org/2000/svg"><g opacity=".8"><circle cx="69.8348" cy="69.0562" fill="#89e5d3" r="66.909" stroke="#eafaf7" stroke-width="4"/><path d="m84.6159 59.2018h-2.4635v-4.9271c0-6.7995-5.5184-12.3179-12.3179-12.3179-6.7994 0-12.3178 5.5184-12.3178 12.3179v4.9271h-2.4636c-2.7099 0-4.9271 2.2172-4.9271 4.9272v24.6357c0 2.7099 2.2172 4.9271 4.9271 4.9271h29.5628c2.71 0 4.9272-2.2172 4.9272-4.9271v-24.6357c0-2.71-2.2172-4.9272-4.9272-4.9272zm-14.7814 22.1722c-2.7099 0-4.9271-2.2173-4.9271-4.9272s2.2172-4.9271 4.9271-4.9271c2.71 0 4.9272 2.2172 4.9272 4.9271s-2.2172 4.9272-4.9272 4.9272zm7.6371-22.1722h-15.2741v-4.9271c0-4.2127 3.4243-7.6371 7.637-7.6371s7.6371 3.4244 7.6371 7.6371z" fill="#eafaf7"/></g></svg>