<svg fill="none" height="37" viewBox="0 0 37 37" width="37" xmlns="http://www.w3.org/2000/svg"><path d="m35.9166 23.9711c-.8755 1.142-2.834 1.9922-7.1805 2.1203-5.4477.1605-10.0425-2.238-13.8405-4.2224.0169.0045.0319.0071.0488.0117-8.33106-4.0593-14.405306-3.6563-14.531406-.3309-.06045 1.5945.102699 2.5357.776746 4.1386 2.66565 6.3375 9.24036 10.6184 16.72316 10.8966 7.8819.2931 14.7778-4.3622 17.5149-11.1098.2451-.6045.4232-1.0439.5512-1.3605.2542-.624.0891-.3412-.0624-.1436z" fill="#0096a2"/><path d="m10.2321 16.4863c9.5498 1.7381 14.571-.1281 16.4164-.6286-.0241.0059-.0475.0117-.0741.0176-1.3189.3074-6.0158 1.1466-9.4582-.0072-.3542-.1189-.6968-.2567-1.0192-.4205-3.027-1.5366-6.1165-4.147-10.2739-5.3482-3.2227-.93081-4.941298.8144-4.6397 2.0722.3679 1.5392 2.8665 3.1895 9.0487 4.3147z" fill="#0096a2"/><path d="m26.6475 15.8578c.1072-.026.1891-.0475.2353-.0618-.0689.0163-.1534.0397-.2353.0618z" fill="#00a1ac"/><path d="m11.9458 8.78771c2.017.18655 4.2822.1547 6.1477.06565.0065 0 .013-.00065.0202-.00065.2002-.0091.4088-.0208.6175-.03185.1781-.0104.3523-.0208.52-.0312.0468-.00325.0942-.00585.141-.0091.2392-.0156.4654-.03185.678-.0481.1449-.01105.2899-.0221.4368-.0338.1137-.0091.2203-.0182.3224-.0273.2112-.0182.3978-.0351.5538-.05005.13-.01235.2314-.02275.3178-.0312.1502-.0156.2392-.02535.2392-.02535-1.8148.182-3.3449.1261-5.2104-.3393-.5889-.1469-1.2096-.3328-1.8856-.56745-2.3049-.8008-4.0014-2.79501-6.5533-3.19541-2.5519-.40105-3.13495 1.30975-2.4375 2.33741.69745 1.027 1.6952 1.5808 6.0924 1.9877z" fill="#0096a2"/><g fill="#89e5d3"><path d="m16.7305 7.44934c1.8655.4654 3.3962.5213 5.2104.3393 0 0-.0891.00976-.2392.02536 3.5717-.35165 7.2566-.97825 8.3076-1.74265 1.4183-1.0309.8307-2.43556-1.1901-2.56036-2.0209-.1248-5.1344 1.22396-7.1104 2.30621-1.105.60515-2.808 1.26164-4.9783 1.63214z"/><path d="m24.5275.877203c-1.1596-1.3156-4.8581.474497-7.4204.895697-1.7179.28275-3.2799-.30485-4.5877-.7397-1.6204-.538847-2.1937 1.51385-.0565 1.43325 1.7712-.0663 4.0183.15925 6.2146.42705 3.8662.47125 7.0096-.7007 5.85-2.016297z"/><path d="m17.1152 15.0933c3.4424 1.1538 8.1393.3146 9.4582.0072.5557-.1469 1.1056-.3094 1.6438-.494 6.0619-2.0813 7.8117-4.2445 6.2101-5.64529-2.0033-1.75175-6.6105 1.94679-10.2167 3.89349-2.2126 1.1947-4.6332 1.898-7.0954 2.2386z"/><path d="m27.9517 17.1779c-7.044 1.2318-6.9134 5.5146-13.0065 3.9273-.0169-.0045-.0318-.0071-.0487-.0117 3.7973 1.9845 8.3921 4.383 13.8404 4.2224 5.0986-.1501 6.9108-1.2935 7.5446-2.7365.1865-.4251.2756-.8742.31-1.3338.1749-2.3146-2.8886-5.0732-8.6398-4.0677z"/></g></svg>