<svg width="62" height="83" viewBox="0 0 62 83" fill="none" xmlns="http://www.w3.org/2000/svg">
<path d="M25.0026 57.4034C25.0026 56.8511 25.4503 56.4034 26.0026 56.4034H49.5993C50.1515 56.4034 50.5993 56.8511 50.5993 57.4034V81.0001C50.5993 81.5524 50.1515 82.0001 49.5993 82.0001H26.0026C25.4503 82.0001 25.0026 81.5524 25.0026 81.0001V57.4034ZM26.7946 31.7962C26.9376 31.2628 27.4859 30.9462 28.0194 31.0891L39.6105 34.1949C40.1439 34.3379 40.4605 34.8862 40.3176 35.4197L37.2118 47.0108C37.0688 47.5443 36.5205 47.8609 35.987 47.7179L24.3959 44.6121C23.8624 44.4691 23.5459 43.9208 23.6888 43.3873L26.7946 31.7962ZM43.1848 6.23997C43.0283 5.71035 43.3307 5.15407 43.8603 4.99749L55.3679 1.59527C55.8975 1.43868 56.4538 1.74109 56.6104 2.27072L60.0126 13.7783C60.1692 14.3079 59.8668 14.8642 59.3371 15.0208L47.8295 18.423C47.2999 18.5796 46.7436 18.2772 46.5871 17.7476L43.1848 6.23997ZM8.71397 11.0378C9.02708 10.5828 9.64971 10.4678 10.1047 10.781L19.9898 17.5841C20.4448 17.8972 20.5598 18.5199 20.2467 18.9748L13.4435 28.86C13.1304 29.315 12.5078 29.4299 12.0528 29.1168L2.16763 22.3137C1.71268 22.0006 1.59769 21.3779 1.9108 20.923L8.71397 11.0378Z" stroke="currentColor" stroke-width="2"/>
</svg>
