<svg fill="none" height="59" viewBox="0 0 60 59" width="60" xmlns="http://www.w3.org/2000/svg"><path d="m34.9212 2.94251 21.8836 21.95689m-21.2421-.0032 21.9458-21.80918m-56.5085 32.51848c0-1.1046.89543-2 2-2h20c1.1046 0 2 .8954 2 2v20c0 1.1045-.8954 2-2 2h-20c-1.10457 0-2-.8955-2-2zm32.6055 0c0-1.1046.8954-2 2-2h20c1.1045 0 2 .8954 2 2v20c0 1.1045-.8955 2-2 2h-20c-1.1046 0-2-.8955-2-2zm-32.6055-32.6055c0-1.10457.89543-2 2-2h20c1.1046 0 2 .89543 2 2v20c0 1.1046-.8954 2-2 2h-20c-1.10457 0-2-.8954-2-2zm33.2129.60547c0-1.10457.8954-2 2-2h20c1.1046 0 2 .89543 2 2v20.00003c0 1.1045-.8954 2-2 2h-20c-1.1046 0-2-.8955-2-2z" stroke="currentColor" stroke-width="2"/></svg>
