<svg width="58" height="57" viewBox="0 0 58 57" fill="none" xmlns="http://www.w3.org/2000/svg">
<path d="M32.4546 6.02074L32.4968 5.02163L32.4546 6.02074ZM49.2687 26.5511C49.6472 26.9532 50.2801 26.9724 50.6822 26.5938L57.2355 20.425C57.6377 20.0464 57.6568 19.4136 57.2782 19.0114C56.8997 18.6093 56.2668 18.5901 55.8647 18.9687L50.0395 24.4521L44.5561 18.6269C44.1776 18.2248 43.5447 18.2057 43.1426 18.5842C42.7404 18.9628 42.7213 19.5957 43.0998 19.9978L49.2687 26.5511ZM25.5443 51.7015L25.5021 52.7006L25.5443 51.7015ZM8.73021 31.1712C8.35166 30.769 7.71878 30.7499 7.31664 31.1285L0.763348 37.2973C0.361206 37.6758 0.34208 38.3087 0.72063 38.7109C1.09918 39.113 1.73206 39.1321 2.1342 38.7536L7.95935 33.2702L13.4427 39.0953C13.8213 39.4975 14.4542 39.5166 14.8563 39.138C15.2585 38.7595 15.2776 38.1266 14.899 37.7245L8.73021 31.1712ZM8.89091 25.8657C9.85774 26.1211 9.85765 26.1214 9.85759 26.1216C9.8576 26.1216 9.85756 26.1218 9.85757 26.1217C9.8576 26.1216 9.85771 26.1212 9.8579 26.1205C9.85828 26.1191 9.859 26.1164 9.86005 26.1125C9.86215 26.1048 9.8656 26.0922 9.87041 26.0749C9.88004 26.0403 9.89513 25.9871 9.91591 25.9163C9.95748 25.7749 10.0218 25.5638 10.1105 25.2932C10.288 24.7517 10.5629 23.9734 10.949 23.0394C11.7223 21.1681 12.9347 18.6885 14.6909 16.2394C18.2009 11.3444 23.808 6.65692 32.4125 7.01985L32.4968 5.02163C22.9825 4.62032 16.8076 9.85535 13.0655 15.0739C11.1957 17.6815 9.91438 20.3064 9.1006 22.2755C8.69305 23.2616 8.40105 24.0874 8.21003 24.6701C8.11448 24.9615 8.04409 25.1924 7.99705 25.3525C7.97353 25.4325 7.95584 25.4949 7.94376 25.5382C7.93771 25.5599 7.93307 25.5769 7.9298 25.5889C7.92817 25.595 7.92688 25.5998 7.92593 25.6033C7.92545 25.6051 7.92506 25.6066 7.92475 25.6077C7.9246 25.6083 7.92443 25.6089 7.92435 25.6092C7.92421 25.6098 7.92408 25.6102 8.89091 25.8657ZM32.4125 7.01985C36.7564 7.20308 39.9168 8.4779 42.2342 10.2399C44.5601 12.0085 46.0934 14.3115 47.1036 16.6293C48.1149 18.9498 48.5907 21.26 48.8118 22.9985C48.9221 23.8654 48.9682 24.5838 48.9869 25.0818C48.9962 25.3306 48.9987 25.5239 48.9989 25.6526C48.999 25.717 48.9985 25.7651 48.998 25.796C48.9978 25.8114 48.9976 25.8225 48.9974 25.8292C48.9973 25.8325 48.9973 25.8347 48.9973 25.8357C48.9972 25.8362 48.9972 25.8365 48.9972 25.8364C48.9972 25.8364 48.9972 25.8362 48.9972 25.8362C48.9973 25.8358 48.9973 25.8355 49.9968 25.8657C50.9964 25.8959 50.9964 25.8953 50.9964 25.8947C50.9964 25.8944 50.9964 25.8937 50.9964 25.8931C50.9965 25.8919 50.9965 25.8904 50.9966 25.8887C50.9967 25.8851 50.9968 25.8804 50.9969 25.8745C50.9972 25.8628 50.9975 25.8465 50.9978 25.8258C50.9984 25.7844 50.999 25.7253 50.9989 25.6498C50.9986 25.4986 50.9958 25.2812 50.9855 25.0068C50.9649 24.4583 50.9146 23.6801 50.7958 22.7462C50.5589 20.8832 50.0463 18.3755 48.937 15.8302C47.8265 13.2823 46.1066 10.6719 43.4447 8.6479C40.7743 6.61737 37.2122 5.22052 32.4968 5.02163L32.4125 7.01985ZM49.108 31.8566C48.1411 31.6012 48.1412 31.6009 48.1413 31.6006C48.1413 31.6006 48.1413 31.6005 48.1413 31.6005C48.1413 31.6006 48.1412 31.601 48.141 31.6018C48.1406 31.6032 48.1399 31.6059 48.1388 31.6097C48.1367 31.6175 48.1333 31.6301 48.1285 31.6474C48.1188 31.6819 48.1037 31.7352 48.083 31.8059C48.0414 31.9474 47.9771 32.1585 47.8884 32.4291C47.7109 32.9706 47.4359 33.7489 47.0499 34.6829C46.2766 36.5542 45.0642 39.0338 43.308 41.4829C39.7979 46.3779 34.1909 51.0653 25.5864 50.7024L25.5021 52.7006C35.0164 53.1019 41.1913 47.8669 44.9333 42.6484C46.8032 40.0408 48.0845 37.4159 48.8983 35.4468C49.3058 34.4607 49.5978 33.6348 49.7889 33.0522C49.8844 32.7608 49.9548 32.5299 50.0018 32.3698C50.0253 32.2898 50.043 32.2274 50.0551 32.184C50.0612 32.1623 50.0658 32.1454 50.0691 32.1333C50.0707 32.1273 50.072 32.1225 50.073 32.1189C50.0734 32.1172 50.0738 32.1157 50.0741 32.1146C50.0743 32.114 50.0744 32.1133 50.0745 32.1131C50.0747 32.1125 50.0748 32.112 49.108 31.8566ZM25.5864 50.7024C21.2424 50.5192 18.082 49.2444 15.7647 47.4823C13.4388 45.7138 11.9055 43.4107 10.8953 41.0929C9.88397 38.7725 9.40822 36.4623 9.18708 34.7237C9.07682 33.8569 9.03065 33.1385 9.01197 32.6405C9.00264 32.3917 9.0002 32.1984 9.00001 32.0696C8.99992 32.0053 9.00039 31.9571 9.00085 31.9263C9.00108 31.9108 9.00131 31.8997 9.00146 31.8931C9.00153 31.8898 9.00159 31.8876 9.00162 31.8866C9.00163 31.886 9.00164 31.8858 9.00164 31.8858C9.00164 31.8858 9.00163 31.8861 9.00163 31.8861C9.00162 31.8864 9.00161 31.8868 8.00206 31.8566C7.00252 31.8264 7.00251 31.8269 7.00249 31.8275C7.00248 31.8278 7.00246 31.8285 7.00244 31.8291C7.00241 31.8303 7.00237 31.8318 7.00232 31.8336C7.00222 31.8372 7.00211 31.8419 7.00197 31.8478C7.00171 31.8595 7.00138 31.8758 7.00107 31.8965C7.00046 31.9379 6.99991 31.9969 7.00001 32.0725C7.00023 32.2236 7.00309 32.441 7.01338 32.7154C7.03395 33.2639 7.08428 34.0422 7.20307 34.9761C7.44002 36.839 7.95254 39.3467 9.06189 41.892C10.1724 44.4399 11.8923 47.0504 14.5541 49.0744C17.2246 51.1049 20.7867 52.5017 25.5021 52.7006L25.5864 50.7024Z" fill="currentColor"/>
</svg>
