<svg fill="none" height="306" width="628" preserveAspectRatio="xMaxYMax" xmlns="http://www.w3.org/2000/svg" xmlns:xlink="http://www.w3.org/1999/xlink"><linearGradient id="a" gradientUnits="userSpaceOnUse" x1="287.895" x2="287.443" y1=".353" y2="197.532"><stop offset=".211" stop-color="#fff"/><stop offset=".958" stop-color="#89e5d3"/></linearGradient><linearGradient id="b" gradientUnits="userSpaceOnUse" x1="472.502" x2="472.502" y1="101.59" y2="259.296"><stop offset="0" stop-color="#fff"/><stop offset="1" stop-color="#89e5d3"/></linearGradient><linearGradient id="c" gradientUnits="userSpaceOnUse" x1="147.348" x2="138.151" y1=".354" y2="241.531"><stop offset=".453" stop-color="#fff"/><stop offset="1" stop-color="#89e5d3"/></linearGradient><path d="m307.543.353-63.382 53.127-27.511 79.131h-18.71l-16.271 28.929-40.126 103.091 170.77 14.261 192.234-14.261-65.323-57.366-54.933-102.021-11.974 5.239-27.691-27.69z" fill="url(#a)"/><path d="m504.082 170.874-21.797 19.594-74.789 22.398-50.856 20.301-38.897 31.465 164.542 24.526 77.318-10.265 67.657-14.261-55.526-46.396-20.394-27.768z" fill="url(#b)"/><path d="m147.208 126.081-41.993-13.064-65.322 70.922-14.93-13.065-23.968 93.759 104.219 40.389 150.241-40.389-14.931-51.766-53.19-28.928-40.127-57.858z" fill="url(#c)"/></svg>
