<svg fill="none" height="410" viewBox="0 0 628 410" width="628" xmlns="http://www.w3.org/2000/svg" preserveAspectRatio="xMaxYMax" xmlns:xlink="http://www.w3.org/1999/xlink">
  <radialGradient id="a1" cx="0" cy="0" gradientTransform="matrix(0 -237.981 237.981 0 292.5 305.219)" gradientUnits="userSpaceOnUse" r="1">
    <stop offset="0" stop-color="#0096a2"/>
    <stop offset="1"/></radialGradient>
  <linearGradient id="b1" gradientUnits="userSpaceOnUse" x1="287.895" x2="285.209" y1="104.49" y2="372.723">
    <stop offset=".210912" stop-color="#fff"/>
    <stop offset=".958333"/></linearGradient>
  <linearGradient id="c1" gradientUnits="userSpaceOnUse" x1="472.501" x2="472.501" y1="205.728" y2="370.369">
    <stop offset="0" stop-color="#fff"/>
    <stop offset="1"/>
  </linearGradient>
  <linearGradient id="d1" gradientUnits="userSpaceOnUse" x1="147.348" x2="135.143" y1="104.492" y2="373.311">
    <stop offset=".219777" stop-color="#fff"/>
    <stop offset="1"/>
  </linearGradient>
  <path clip-rule="evenodd" d="m493.038 314c13.132-28.268 20.462-59.778 20.462-93 0-122.0549-98.945-221-221-221s-221 98.9451-221 221c0 33.222 7.3305 64.732 20.4622 93z" fill="url(#a1)" fill-rule="evenodd"/>
  <path d="m307.543 104.49-63.382 53.129-27.511 79.131h-18.71l-16.271 28.928-40.126 103.091 170.77 14.262 192.234-14.262-65.323-57.365-54.933-102.021-11.974 5.239-27.691-27.691z" fill="url(#b1)"/>
  <path d="m504.081 275.012-21.797 19.594-74.789 22.398-50.856 20.301-38.897 31.465 164.542 24.526 77.318-10.265 67.658-14.261-55.527-46.395-20.394-27.769z" fill="url(#c1)"/>
  <path d="m147.208 230.219-41.993-13.065-65.3218 70.922-14.9308-13.064-23.966306 93.758 104.218906 40.39 150.241-40.39-14.931-51.765-53.19-28.929z" fill="url(#d1)"/>
</svg>
