<svg fill="none" height="639" viewBox="0 0 432 639" width="432" xmlns="http://www.w3.org/2000/svg"><path d="m6.57847 639h425.02253v-137.795h-209.831l103.576-104.687c64.289-64.423 97.327-130.635 97.327-196.848 0-60.844-21.43-109.1618-62.503-144.9525-41.074-35.7906-91.077-54.580781-149.115-54.580781-45.539 0-87.506 11.631981-125.0079 34.895981-38.3949 23.2639-66.9679 57.2651-85.718975 102.0033l120.541875 70.687c19.644-44.739 50.003-68.003 91.97-68.003 20.536 0 36.61 6.264 49.11 18.79 11.608 12.527 17.858 27.739 17.858 47.423 0 30.421-21.43 68.003-63.397 110.951l-209.83253 218.324z" fill="#e6dfff" fill-opacity=".2"/></svg>