<svg fill="none" height="643" viewBox="0 0 451 643" width="451" xmlns="http://www.w3.org/2000/svg" xmlns:xlink="http://www.w3.org/1999/xlink"><clipPath id="a"><path d="m.5 0h450.289v642.804h-450.289z"/></clipPath><g clip-path="url(#a)"><path d="m316.008 256.395 108.765-138.429v-116.85467h-404.4976v134.83267h230.1146l-114.159 144.72 54.833 81.798h29.662c27.865 0 49.439 7.191 63.821 19.776 14.383 13.483 21.574 30.562 21.574 50.336 0 20.676-7.191 37.755-21.574 50.338-14.382 13.483-35.956 19.775-63.821 19.775-48.539 0-80.899-21.572-96.18-66.517l-124.046 71.911c17.9776 44.944 46.7418 78.204 86.2928 100.675 39.5512 23.37 83.5952 34.157 133.9332 34.157 63.821 0 117.753-17.976 162.699-55.731 44.044-36.853 66.517-88.09 66.517-154.608 0-41.348-12.585-78.201-36.855-108.764-25.169-30.562-57.528-53.033-97.079-67.415z" fill="#7c5bff" fill-opacity=".2"/></g></svg>