<svg fill="none" height="545" viewBox="0 0 446 545" width="446" xmlns="http://www.w3.org/2000/svg" xmlns:xlink="http://www.w3.org/1999/xlink"><mask id="a" height="379" maskUnits="userSpaceOnUse" width="379" x="-46" y="44"><circle cx="143.518" cy="233.562" fill="#f8f7ff" r="189"/></mask><g mask="url(#a)"><circle cx="143.518" cy="233.562" fill="#160e33" r="189"/></g><path clip-rule="evenodd" d="m412.2 405.502c6.355 10.849 6.68 15.899 6.634 17.373-1.243.794-5.75 3.097-18.322 3.185-16.066.112-38.799-3.621-67.152-11.69-56.363-16.041-130.101-47.805-207.431-91.772-77.3296-43.967-142.3358-91.088-184.9454-131.319-21.4345-20.238-36.2684-37.864-44.3876-51.727-6.355-10.849-6.68-15.899-6.634-17.374 1.243-.794 5.75-3.097 18.3224-3.185 16.0655-.112 38.7987 3.621 67.1519 11.69 3.2058.913 6.4679 1.876 9.7836 2.89l13.42633-19.097c-67.45773-21.515-116.25823-24.372-128.18923-3.388-21.792 38.328 87.6676 141.677 244.484 230.837 156.816 89.16 301.606 130.368 323.398 92.04 14.978-26.343-32.047-83.401-113.835-145.458l-8.301 21.638c19.588 15.087 36.928 29.767 51.609 43.629 21.435 20.238 36.269 37.864 44.388 51.728z" fill="#2f2556" fill-rule="evenodd"/></svg>