<svg fill="none" height="419" viewBox="0 0 420 419" width="420" xmlns="http://www.w3.org/2000/svg"><circle cx="210.171" cy="209.671" r="204.895" stroke="#000" stroke-width="8.86783"/><g fill="#000"><path d="m126.955 52.0478v-30.3316l-37.9148 17.9697-30.3316 27.5277-37.914 53.0804-7.5833 30.331 2.5378 22.749-4.1408 15.166-5.97945 7.583-4.786077 12.093 4.786077 40.987 15.16575 45.497 30.3316-53.08v-37.914l-30.3316-15.166v-15.166l-5.0455-20.231 5.0455-25.266 15.1658-15.166 15.1658 15.166 3.0077 9.098-3.0077 13.65 14.2179-15.165h31.2794l37.9145-22.749 22.749-75.829z"/><path d="m51.1262 158.208-10.7591-2.424 7.9396 6.538 10.4019 3.469z"/><path d="m65.3436 175.866-6.635-5.137-4.5747 5.137z"/><path d="m172.452 52.0478v-22.7487h15.166v37.9145l-30.331 7.5829z"/><path d="m222.196 82.1444-19.412-11.1983-22.749 18.1562-7.583 23.6087-3.791 22.749h11.374l15.166-11.011 22.748-14.931z"/><path d="m206.943 158.208h-11.742v-7.583l11.742-3.157z"/><path d="m210.366 208.216 30.332-27.259h25.621l12.293-5.091 7.583-38.891 3.29-27.457-6.953-6.721 10.651-13.6947-37.533-49.4164-45.284-34.94469 47.82 5.23775 34.997 11.73724 53.675 38.983 37.14 42.0978 16.382 39.926 5.698 33.143-14.245 12.674 19.231 30.331v22.749l-44.16-7.728-9.972 28.232-23.641 17.411-31.93-7.583 31.93 15.166h10.108l3.459 16.575-32.157 38.462h-21.518l-26.864-47.455 16.213 57.427 39.292-2.748-20.463 42.202-42.954 18.239-20.901 4.22h-50.498l-14.556-29.861-45.497-11.397-24.507-20.655-5.8245-15.67 5.8245-26.353 9.341-15.404 37.914-22.748 60.663 22.748 37.915-7.582 22.749-7.583-4.711-15.166-18.038 7.583-10.775-5.74 10.024-11.386-6.832 1.96-5.044-.001-2.539 15.167-24.437-22.75 4.281 12.922-4.281 9.828-1.735-9.828-7.074-12.922-4.668.001-9.761 4.128-5.405 11.038-15.166 7.583-15.166-7.583 7.584-15.166h15.165v-22.749l19.009-2.812 11.323-4.771 22.748 7.583 15.166-24.437-15.166 13.378-7.583 3.476z"/><path d="m185.44 218.871 6.021-18.185-11.426 7.53-15.166 7.179z"/><path d="m172.452 208.216 4.329-7.53-4.329-4.563-7.583 4.563z"/></g></svg>