<svg fill="none" height="188" viewBox="0 0 201 188" width="201" xmlns="http://www.w3.org/2000/svg" xmlns:xlink="http://www.w3.org/1999/xlink"><linearGradient id="a"><stop offset="0" stop-color="#0096a2"/><stop offset="1" stop-color="#89e5d3"/></linearGradient><linearGradient id="b" gradientUnits="userSpaceOnUse" x1="78.6564" x2="91.6383" xlink:href="#a" y1="162.294" y2="133.984"/><linearGradient id="c" gradientUnits="userSpaceOnUse" x1="89.2842" x2="108.021" xlink:href="#a" y1="124.435" y2="104.293"/><path d="m63.9966 158.341c0-16.031 12.9958-29.027 29.0268-29.027h14.9526c16.031 0 29.027 12.996 29.027 29.027 0 0-13.795 14.156-38.1969 14.156-24.4014 0-34.8095-14.156-34.8095-14.156z" fill="url(#b)"/><circle cx="101.091" cy="108.003" fill="url(#c)" r="19.7315"/><g fill="#d5f6f0"><path d="m189.518 165.299.975 8.628 6.79-5.412-5.411 6.791 8.628.975-8.628.975 5.411 6.79-6.79-5.412-.975 8.628-.975-8.628-6.79 5.412 5.411-6.79-8.628-.975 8.628-.975-5.411-6.791 6.79 5.412z"/><path d="m12.7905 87.3864 4.591 8.1514 9.2819-1.1699-8.1514 4.591 1.1698 9.2821-4.591-8.152-9.28185 1.17 8.15135-4.5907z"/><path d="m16.8389 5.59165-3.1757 5.86045 5.8007 3.2835-6.555-1.2093-1.3303 6.5315-.8754-6.6079-6.62295.7532 6.01395-2.8746-2.76289-6.066 4.59229 4.8313z"/><path d="m49.4247 55.2177-1.9441 3.8353 2.8161 3.2494-3.8353-1.9441-3.2494 2.8161 1.9441-3.8353-2.8161-3.2494 3.8353 1.9441z"/><path d="m167.881 126.107-4.109-.633-.708 4.097-.668-4.104-4.115.592 3.696-1.903-1.835-3.731 2.952 2.927 2.982-2.897-1.872 3.712z"/></g></svg>