<svg width="315" height="196" viewBox="0 0 315 196" fill="none" xmlns="http://www.w3.org/2000/svg">
<path d="M289.662 107.009L289.507 108.177L290.432 108.905L310.891 124.987L310.917 125.007L310.943 125.026C311.974 125.786 312.341 127.163 311.588 128.565L292.059 162.333L292.046 162.355L292.034 162.378C291.337 163.655 289.909 164.148 288.573 163.676L264.282 153.919L263.184 153.478L262.249 154.203C257.398 157.964 252.064 161.123 246.246 163.49L245.147 163.937L244.981 165.112L241.316 190.966L241.314 190.982L241.312 190.999C241.14 192.374 240.014 193.365 238.576 193.365H199.49C198.149 193.365 196.986 192.452 196.637 190.893L192.983 165.112L192.817 163.937L191.718 163.49C185.91 161.128 180.672 157.97 175.699 154.191L174.768 153.483L173.682 153.919L149.433 163.659C147.986 164.091 146.587 163.582 145.93 162.378L145.918 162.355L145.905 162.333L126.375 128.562C125.734 127.376 126.073 125.764 127.064 124.993L127.065 124.993L147.727 108.911L148.697 108.156L148.495 106.943C148.01 104.031 147.811 100.791 147.811 97.7143C147.811 94.7199 148.199 91.4862 148.699 88.4856L148.901 87.273L147.931 86.5179L127.268 70.4357L127.227 70.4036L127.184 70.3736C126.138 69.6414 125.806 68.2198 126.57 66.8817C126.57 66.8809 126.571 66.88 126.571 66.8792L146.009 33.0916L146.021 33.0713L146.032 33.0507C146.729 31.7737 148.157 31.2809 149.492 31.7525L173.783 41.5096L174.865 41.9442L175.796 41.2415C180.675 37.5571 186.016 34.2988 191.819 31.9383L192.918 31.4912L193.085 30.3164L196.745 4.49063C197.005 2.99045 198.127 2.06366 199.49 2.06366H238.576C239.991 2.06366 241.171 3.04293 241.422 4.4909L245.082 30.3164L245.249 31.4912L246.348 31.9383C252.156 34.3008 257.394 37.4586 262.366 41.2376L263.298 41.9458L264.384 41.5096L288.633 31.7696C290.079 31.3372 291.479 31.8468 292.135 33.0507L292.148 33.0733L292.161 33.0956L311.691 66.8665C312.332 68.0523 311.993 69.6644 311.002 70.4353L311.001 70.4357L290.339 86.5179L289.368 87.273L289.57 88.4857C290.056 91.3985 290.255 94.5376 290.255 97.7143C290.255 100.989 290.057 104.053 289.662 107.009ZM180.326 97.7143C180.326 119.008 197.74 136.421 219.033 136.421C240.326 136.421 257.739 119.008 257.739 97.7143C257.739 76.421 240.326 59.0077 219.033 59.0077C197.74 59.0077 180.326 76.421 180.326 97.7143Z" fill="white" stroke="white" stroke-width="4.12732"/>
<mask id="path-2-inside-1_10943_20489" fill="white">
<path fill-rule="evenodd" clip-rule="evenodd" d="M19.6122 150.752L1.87308 181.477C-1.70638 187.677 2.76795 195.427 9.92688 195.427H92.7658C99.9247 195.427 104.399 187.677 100.82 181.477L83.0805 150.752H19.6122Z"/>
</mask>
<path fill-rule="evenodd" clip-rule="evenodd" d="M19.6122 150.752L1.87308 181.477C-1.70638 187.677 2.76795 195.427 9.92688 195.427H92.7658C99.9247 195.427 104.399 187.677 100.82 181.477L83.0805 150.752H19.6122Z" fill="url(#paint0_linear_10943_20489)"/>
<path d="M1.87308 181.477L3.02362 182.141L1.87308 181.477ZM19.6122 150.752V149.423H18.8452L18.4616 150.088L19.6122 150.752ZM100.82 181.477L101.97 180.813L100.82 181.477ZM83.0805 150.752L84.231 150.088L83.8475 149.423H83.0805V150.752ZM3.02362 182.141L20.7627 151.416L18.4616 150.088L0.722538 180.813L3.02362 182.141ZM9.92688 194.098C3.79066 194.098 -0.0444878 187.455 3.02362 182.141L0.722538 180.813C-3.36828 187.898 1.74525 196.755 9.92688 196.755V194.098ZM92.7658 194.098H9.92688V196.755H92.7658V194.098ZM99.669 182.141C102.737 187.455 98.902 194.098 92.7658 194.098V196.755C100.947 196.755 106.061 187.898 101.97 180.813L99.669 182.141ZM81.9299 151.416L99.669 182.141L101.97 180.813L84.231 150.088L81.9299 151.416ZM83.0805 149.423H19.6122V152.08H83.0805V149.423Z" fill="white" mask="url(#path-2-inside-1_10943_20489)"/>
<mask id="path-4-inside-2_10943_20489" fill="white">
<path fill-rule="evenodd" clip-rule="evenodd" d="M20.9854 152.456C20.9854 147.977 24.007 144.266 27.9532 143.605C29.5526 139.676 33.2022 136.93 37.4484 136.93C41.495 136.93 44.9997 139.424 46.7046 143.059C47.0918 142.99 47.4893 142.954 47.8947 142.954C48.5363 142.954 49.1585 143.044 49.7509 143.212C50.705 140.92 52.8456 139.323 55.3335 139.323C57.7689 139.323 59.8716 140.853 60.8541 143.068C61.8036 142.416 62.932 142.037 64.1426 142.037C66.7889 142.037 69.0423 143.844 69.8927 146.373C71.1045 145.609 72.512 145.171 74.0134 145.171C78.5591 145.171 82.2442 149.181 82.2442 154.128C82.2442 158.607 79.2224 162.318 75.2761 162.979C73.6766 166.908 70.0272 169.653 65.7811 169.653C61.7346 169.653 58.2299 167.16 56.5249 163.525C56.1387 163.593 55.7422 163.629 55.338 163.629C54.6951 163.629 54.0717 163.539 53.4782 163.37C52.5251 165.664 50.3833 167.263 47.894 167.263C45.4591 167.263 43.3567 165.733 42.3739 163.519C41.4256 164.169 40.2993 164.546 39.0912 164.546C36.4443 164.546 34.1904 162.738 33.3404 160.208C32.1278 160.974 30.719 161.412 29.2162 161.412C24.6704 161.412 20.9854 157.402 20.9854 152.456Z"/>
</mask>
<path fill-rule="evenodd" clip-rule="evenodd" d="M20.9854 152.456C20.9854 147.977 24.007 144.266 27.9532 143.605C29.5526 139.676 33.2022 136.93 37.4484 136.93C41.495 136.93 44.9997 139.424 46.7046 143.059C47.0918 142.99 47.4893 142.954 47.8947 142.954C48.5363 142.954 49.1585 143.044 49.7509 143.212C50.705 140.92 52.8456 139.323 55.3335 139.323C57.7689 139.323 59.8716 140.853 60.8541 143.068C61.8036 142.416 62.932 142.037 64.1426 142.037C66.7889 142.037 69.0423 143.844 69.8927 146.373C71.1045 145.609 72.512 145.171 74.0134 145.171C78.5591 145.171 82.2442 149.181 82.2442 154.128C82.2442 158.607 79.2224 162.318 75.2761 162.979C73.6766 166.908 70.0272 169.653 65.7811 169.653C61.7346 169.653 58.2299 167.16 56.5249 163.525C56.1387 163.593 55.7422 163.629 55.338 163.629C54.6951 163.629 54.0717 163.539 53.4782 163.37C52.5251 165.664 50.3833 167.263 47.894 167.263C45.4591 167.263 43.3567 165.733 42.3739 163.519C41.4256 164.169 40.2993 164.546 39.0912 164.546C36.4443 164.546 34.1904 162.738 33.3404 160.208C32.1278 160.974 30.719 161.412 29.2162 161.412C24.6704 161.412 20.9854 157.402 20.9854 152.456Z" fill="white"/>
<path d="M27.9532 143.605L28.114 144.564L28.6495 144.475L28.8543 143.972L27.9532 143.605ZM46.7046 143.059L45.8237 143.472L46.1404 144.147L46.8748 144.016L46.7046 143.059ZM49.7509 143.212L49.4851 144.148L50.3169 144.384L50.6492 143.586L49.7509 143.212ZM60.8541 143.068L59.9647 143.463L60.4397 144.533L61.4051 143.87L60.8541 143.068ZM69.8927 146.373L68.9705 146.683L69.3649 147.856L70.4116 147.196L69.8927 146.373ZM75.2761 162.979L75.1154 162.019L74.5798 162.109L74.375 162.612L75.2761 162.979ZM56.5249 163.525L57.4058 163.111L57.0893 162.437L56.3552 162.567L56.5249 163.525ZM53.4782 163.37L53.7446 162.434L52.9119 162.197L52.5797 162.996L53.4782 163.37ZM42.3739 163.519L43.2632 163.124L42.7887 162.055L41.8238 162.717L42.3739 163.519ZM33.3404 160.208L34.2627 159.899L33.8683 158.725L32.8211 159.386L33.3404 160.208ZM27.7924 142.645C23.3271 143.394 20.0124 147.555 20.0124 152.456H21.9583C21.9583 148.4 24.6869 145.139 28.114 144.564L27.7924 142.645ZM37.4484 135.957C32.7611 135.957 28.7828 138.986 27.052 143.238L28.8543 143.972C30.3225 140.365 33.6433 137.903 37.4484 137.903V135.957ZM47.5855 142.645C45.739 138.709 41.9145 135.957 37.4484 135.957V137.903C41.0755 137.903 44.2603 140.138 45.8237 143.472L47.5855 142.645ZM47.8947 141.981C47.432 141.981 46.9775 142.022 46.5344 142.101L46.8748 144.016C47.2061 143.958 47.5467 143.927 47.8947 143.927V141.981ZM50.0168 142.276C49.3391 142.084 48.6275 141.981 47.8947 141.981V143.927C48.4452 143.927 48.9779 144.004 49.4851 144.148L50.0168 142.276ZM55.3335 138.35C52.4078 138.35 49.9396 140.226 48.8527 142.838L50.6492 143.586C51.4703 141.613 53.2835 140.295 55.3335 140.295V138.35ZM61.7435 142.673C60.6234 140.148 58.1971 138.35 55.3335 138.35V140.295C57.3406 140.295 59.1198 141.558 59.9647 143.463L61.7435 142.673ZM64.1426 141.064C62.7248 141.064 61.4059 141.508 60.3031 142.266L61.4051 143.87C62.2012 143.323 63.1391 143.01 64.1426 143.01V141.064ZM70.8149 146.063C69.8477 143.187 67.2558 141.064 64.1426 141.064V143.01C66.3219 143.01 68.237 144.502 68.9705 146.683L70.8149 146.063ZM70.4116 147.196C71.4761 146.525 72.7049 146.144 74.0134 146.144V144.198C72.3191 144.198 70.733 144.693 69.3738 145.55L70.4116 147.196ZM74.0134 146.144C77.9461 146.144 81.2712 149.64 81.2712 154.128H83.2171C83.2171 148.723 79.1722 144.198 74.0134 144.198V146.144ZM81.2712 154.128C81.2712 158.184 78.5426 161.445 75.1154 162.019L75.4369 163.938C79.9023 163.19 83.2171 159.029 83.2171 154.128H81.2712ZM65.7811 170.626C70.4682 170.626 74.4464 167.597 76.1773 163.346L74.375 162.612C72.9067 166.218 69.5861 168.68 65.7811 168.68V170.626ZM55.6441 163.938C57.4905 167.875 61.315 170.626 65.7811 170.626V168.68C62.1541 168.68 58.9693 166.445 57.4058 163.111L55.6441 163.938ZM55.338 164.602C55.7995 164.602 56.2528 164.561 56.6947 164.483L56.3552 162.567C56.0247 162.625 55.685 162.656 55.338 162.656V164.602ZM53.2118 164.305C53.8908 164.499 54.6037 164.602 55.338 164.602V162.656C54.7864 162.656 54.2527 162.579 53.7446 162.434L53.2118 164.305ZM47.894 168.236C50.8215 168.236 53.2908 166.357 54.3767 163.743L52.5797 162.996C51.7594 164.971 49.9452 166.29 47.894 166.29V168.236ZM41.4846 163.914C42.605 166.438 45.0309 168.236 47.894 168.236V166.29C45.8872 166.29 44.1083 165.029 43.2632 163.124L41.4846 163.914ZM39.0912 165.519C40.506 165.519 41.8225 165.077 42.924 164.322L41.8238 162.717C41.0288 163.262 40.0926 163.573 39.0912 163.573V165.519ZM32.4182 160.518C33.3849 163.395 35.9772 165.519 39.0912 165.519V163.573C36.9113 163.573 34.9959 162.08 34.2627 159.899L32.4182 160.518ZM29.2162 162.385C30.9121 162.385 32.4997 161.89 33.8598 161.031L32.8211 159.386C31.7559 160.058 30.5259 160.439 29.2162 160.439V162.385ZM20.0124 152.456C20.0124 157.861 24.0573 162.385 29.2162 162.385V160.439C25.2835 160.439 21.9583 156.944 21.9583 152.456H20.0124Z" fill="white" mask="url(#path-4-inside-2_10943_20489)"/>
<path d="M41.7921 71.1236V70.0466H40.7152H40.1176C39.2224 70.0466 38.4967 69.321 38.4967 68.4258C38.4967 67.5306 39.2224 66.805 40.1176 66.805H62.5698C63.4649 66.805 64.1906 67.5306 64.1906 68.4258C64.1906 69.321 63.4649 70.0466 62.5698 70.0466H61.9716H60.8947V71.1236V114.197V114.486L61.039 114.736L99.884 182.017C103.049 187.499 99.0927 194.351 92.7628 194.351H9.92394C3.59404 194.351 -0.362149 187.499 2.8028 182.017L41.6478 114.736L41.7921 114.486V114.197V71.1236Z" stroke="white" stroke-width="2.15386"/>
<path d="M132.559 16.1631L129.562 7.87627L146.135 1.88157L149.133 10.1684L149.632 11.5501L151.014 11.0503L159.304 8.05182L186.481 82.6392L178.197 85.6354L176.816 86.1352L177.315 87.5169L180.313 95.8037L163.739 101.798L160.742 93.5116L160.242 92.1299L158.86 92.6297L150.568 95.6291L145.003 80.443L144.265 78.4302L142.654 79.8441C137.888 84.0264 131.487 86.4418 124.72 85.8616L124.709 85.8608C117.259 85.2803 110.962 81.3168 106.978 75.5843L106.193 74.4539L105.013 75.1641C95.5501 80.8636 89.1821 91.0968 89.1821 102.857C89.1821 120.743 103.623 135.184 121.509 135.184H202.269C201.511 145.007 193.231 152.816 183.223 152.816H152.366H150.896V154.286V174.857V176.327H152.366H193.509C203.517 176.327 211.797 184.136 212.554 193.959H71.6059C72.363 184.136 80.643 176.327 90.6515 176.327H121.509H122.978V174.857V154.286V152.816H121.509C93.9316 152.816 71.5495 130.434 71.5495 102.857C71.5495 82.0787 84.2348 64.2895 102.329 56.6919L102.998 56.4109L103.182 55.7086C105.996 44.938 115.89 37.2869 127.218 37.6742L129.388 37.7484L128.651 35.7064L123.385 21.1321L131.69 18.0399L133.054 17.5319L132.559 16.1631ZM138.407 61.7143C138.407 55.2456 133.12 49.9592 126.652 49.9592C120.183 49.9592 114.896 55.2456 114.896 61.7143C114.896 68.183 120.183 73.4694 126.652 73.4694C133.12 73.4694 138.407 68.183 138.407 61.7143Z" fill="url(#paint1_linear_10943_20489)" stroke="white" stroke-width="2.93878"/>
<defs>
<linearGradient id="paint0_linear_10943_20489" x1="56.0792" y1="144.445" x2="21.6765" y2="195.426" gradientUnits="userSpaceOnUse">
<stop stop-color="#89E5D3"/>
<stop offset="1" stop-color="#0096A2"/>
</linearGradient>
<linearGradient id="paint1_linear_10943_20489" x1="148.797" y1="-27.5893" x2="22.0497" y2="33.3463" gradientUnits="userSpaceOnUse">
<stop stop-color="#89E5D3"/>
<stop offset="1" stop-color="#0096A2"/>
</linearGradient>
</defs>
</svg>
