<svg fill="none" height="240" viewBox="0 0 358 240" width="358" xmlns="http://www.w3.org/2000/svg" xmlns:xlink="http://www.w3.org/1999/xlink"><clipPath id="a"><path d="m0 0h358v240h-358z"/></clipPath><g clip-path="url(#a)"><path d="m297.956 87.1402 59.664-8.1505-22.737 55.7173-59.686 8.206z" fill="#89e5d3"/><path d="m261.086 39.5963 36.927 47.5666-22.759 55.7721-36.905-47.6216z" fill="#eafaf7"/><path d="m261.029 39.5736 59.686-8.2059 36.905 47.6219-59.664 8.1506z" fill="#d5f6f0"/><path d="m284.423 36.3922 12.876-1.7879 36.927 47.5666-12.876 1.7879z" fill="#005e66"/><path d="m335.182 50.0633 7.949 10.286-59.664 8.1505-7.949-10.286z" fill="#005e66"/><path d="m321.351 83.9589 12.876-1.7879-22.759 55.772-12.876 1.788z" fill="#002f33"/><path d="m275.52 58.214 7.948 10.2859-22.759 55.7721-7.949-10.286z" fill="#0096a2"/><path d="m287.197 9.48496 20.395 3.21854 10.39 45.7829-20.394-3.2186z" fill="#005e66"/><path d="m353.898 42.1952-16.846-11.914-39.456 25.442 16.847 11.9139z" fill="#0096a2"/><path d="m124.169 255.644 54.711-94.679 54.639 94.637-54.657 94.773z" fill="#89e5d3"/><path d="m14.9141 255.632 109.3499-.043 54.693 94.731-109.4045-.052z" fill="#d5f6f0"/><path d="m14.8188 255.686 54.6573-94.772 109.4039.051-54.711 94.679z" fill="#eafaf7"/><path d="m36.2931 218.579 11.7655-20.465 109.3504-.042-11.766 20.465z" fill="#0096a2"/><path d="m112.404 160.964 23.605.044-54.7111 94.678-23.6057-.043z" fill="#0096a2"/><path d="m145.643 218.537 11.765-20.465 54.693 94.731-11.766 20.464z" fill="#002f33"/><path d="m.773113 184.649 27.317487-25.68 77.2554 36.047-27.3175 25.681z" fill="#0096a2"/><path d="m121.947 125.353-35.845 10.911-7.4095 84.929 35.8445-10.911z" fill="#005e66"/><path d="m98.829-4.66853 57.724-65.06347 27.498 82.4566-57.697 65.1455z" fill="#89e5d3"/><path d="m13.6895-22.089 85.2223 17.39317 27.5252 82.53863-85.2496-17.4751z" fill="#d5f6f0"/><path d="m13.6064-22.0614 57.697-65.1455 85.2496 17.4751-57.7243 65.06353z" fill="#eafaf7"/><path d="m121.475-30.1638 12.43-14.073 27.526 82.5386-12.43 14.0729z" fill="#002f33"/><path d="m47.0234-15.2628 18.3888 3.7954 27.5253 82.5386-18.3888-3.7954z" fill="#005e66"/></g></svg>