<svg fill="none" height="440" viewBox="0 0 523 440" width="523" xmlns="http://www.w3.org/2000/svg" xmlns:xlink="http://www.w3.org/1999/xlink">
  <linearGradient id="a3" gradientUnits="userSpaceOnUse" x1="528.82" x2="70.6716" y1=".828104" y2="403.608">
    <stop offset="0" stop-color="#0096a2"/>
    <stop offset="1" stop-color="#eafaf7"/>
  </linearGradient>
  <mask id="b3" fill="#fff">
    <path d="m465.216 68.9475 2.535 2.0155 54.511-65.79988s-.717-.65018-2.606-2.0895-2.872-2.245495-2.872-2.245495z" fill="#fff"/>
    <path d="m12.8019 223.609c-.4605 1.077-.9102 2.163-1.3488 3.256-.4386 1.094-.8639 2.189-1.2759 3.286l80.034 30.054c.1887-.502.384-1.005.586-1.509.202-.503.4084-1.002.6193-1.495z" fill="#fff"/>
    <path d="m6.47449 241.252c-.66048 2.259-1.26693 4.522-1.81999 6.79l83.056 20.258c.2478-1.016.5204-2.033.8182-3.052z" fill="#fff"/>
    <path d="m1.32777 266.472c.27438-2.319.60235-4.638.98456-6.956l84.35207 13.908c-.1702 1.032-.316 2.064-.438 3.094z" fill="#fff"/>
    <path d="m.395283 278.144c-.097772 2.346-.141661 4.689-.13234 7.026l85.490257-.34c-.0041-1.041.0154-2.083.0589-3.125z" fill="#fff"/>
    <path d="m.754176 296.869c.187245 2.338.427474 4.668.719914 6.989l84.82021-10.688c-.131-1.039-.2384-2.081-.322-3.126z" fill="#fff"/>
    <path d="m3.37603 315.413c.46783 2.297.98725 4.581 1.55751 6.852l82.91506-20.828c-.2569-1.023-.4906-2.051-.7009-3.084z" fill="#fff"/>
    <path d="m8.21123 333.506c.73994 2.223 1.52973 4.429 2.36867 6.615l79.8179-30.623c-.3792-.988-.7361-1.985-1.0704-2.989z" fill="#fff"/>
    <path d="m15.1816 350.889c1.0005 2.118 2.0489 4.213 3.1443 6.284l75.5734-39.967c-.4948-.936-.9686-1.882-1.4209-2.84z" fill="#fff"/>
    <path d="m24.1851 367.311c1.2466 1.981 2.5388 3.936 3.8758 5.861l70.2259-48.754c-.601-.866-1.1826-1.746-1.7442-2.638z" fill="#fff"/>
    <path d="m35.0972 382.533c1.4752 1.815 2.9934 3.599 4.5539 5.35l63.8289-56.873c-.697-.782-1.376-1.58-2.037-2.393z" fill="#fff"/>
    <path d="m47.7666 396.324c1.683 1.622 3.4064 3.209 5.1694 4.76l56.46-64.195c-.783-.689-1.55-1.395-2.299-2.117z" fill="#fff"/>
    <path d="m62.0162 408.477c1.8655 1.404 3.7684 2.77 5.7079 4.096l48.2459-70.577c-.863-.59-1.71-1.198-2.539-1.822z" fill="#fff"/>
    <path d="m77.6357 418.81c2.021 1.167 4.0762 2.294 6.165 3.377l39.3673-75.888c-.942-.488-1.866-.995-2.772-1.518z" fill="#fff"/>
    <path d="m94.3827 427.183c1.0778.461 2.1634.91 3.2567 1.349s2.1886.864 3.2856 1.276l30.054-80.034c-.502-.189-1.005-.384-1.509-.586-.503-.202-1.001-.409-1.495-.619z" fill="#fff"/>
    <path d="m112.026 433.511c2.259.66 4.522 1.267 6.79 1.82l20.258-83.056c-1.016-.248-2.033-.521-3.052-.819z" fill="#fff"/>
    <path d="m130.29 437.673c2.318.382 4.637.71 6.956.984l10.046-84.898c-1.03-.122-2.062-.268-3.094-.438z" fill="#fff"/>
    <path d="m148.918 439.59c2.346.098 4.689.141 7.026.132l-.34-85.49c-1.041.004-2.083-.016-3.125-.059z" fill="#fff"/><path d="m167.643 439.231c2.338-.187 4.668-.428 6.989-.72l-10.688-84.82c-1.039.131-2.081.238-3.126.322z" fill="#fff"/><path d="m186.187 436.609c2.297-.468 4.581-.987 6.852-1.557l-20.828-82.916c-1.023.257-2.051.491-3.084.701z" fill="#fff"/><path d="m204.28 431.774c2.223-.74 4.429-1.53 6.615-2.369l-30.623-79.818c-.988.379-1.985.736-2.989 1.071z" fill="#fff"/><path d="m221.663 424.803c2.118-1 4.213-2.048 6.284-3.144l-39.967-75.573c-.936.495-1.882.968-2.84 1.421z" fill="#fff"/><path d="m238.085 415.8c1.981-1.247 3.936-2.539 5.861-3.876l-48.754-70.226c-.866.601-1.746 1.183-2.638 1.744z" fill="#fff"/><path d="m253.307 404.888c1.815-1.475 3.599-2.994 5.35-4.554l-56.873-63.829c-.782.697-1.58 1.376-2.393 2.037z" fill="#fff"/><path d="m267.098 392.218c1.622-1.683 3.209-3.406 4.76-5.169l-64.195-56.46c-.689.783-1.395 1.55-2.117 2.299z" fill="#fff"/><path d="m279.251 377.969c1.404-1.866 2.77-3.769 4.096-5.708l-70.577-48.246c-.59.863-1.198 1.71-1.822 2.539z" fill="#fff"/><path d="m289.584 362.349c1.167-2.021 2.294-4.076 3.377-6.165l-75.888-39.367c-.488.942-.995 1.866-1.518 2.772z" fill="#fff"/><path d="m299.306 342.346c-.439 1.093-.888 2.179-1.349 3.256l-78.614-33.592c.21-.493.417-.992.619-1.495.202-.504.397-1.007.586-1.509l80.034 30.054c-.412 1.097-.837 2.192-1.276 3.286z" fill="#fff"/><path d="m306.105 321.169c-.553 2.268-1.16 4.531-1.82 6.79l-82.055-23.996c.298-1.019.571-2.036.819-3.052z" fill="#fff"/><path d="m173.513 130.554c2.319.274 4.638.602 6.956.984l-13.908 84.352c-1.032-.17-2.064-.316-3.094-.438z" fill="#fff"/><path d="m161.841 129.621c-2.346-.098-4.689-.141-7.026-.132l.341 85.49c1.04-.004 2.082.016 3.124.059z" fill="#fff"/><path d="m143.116 129.98c-2.338.187-4.668.428-6.989.72l10.689 84.82c1.038-.131 2.08-.238 3.125-.322z" fill="#fff"/><path d="m124.573 132.602c-2.298.468-4.582.987-6.853 1.558l20.828 82.915c1.023-.257 2.051-.491 3.084-.701z" fill="#fff"/><path d="m106.479 137.437c-2.223.74-4.429 1.53-6.6154 2.369l30.6234 79.818c.989-.379 1.985-.736 2.99-1.071z" fill="#fff"/><path d="m89.096 144.408c-2.1175 1-4.2128 2.048-6.2841 3.144l39.9671 75.573c.936-.495 1.882-.968 2.84-1.421z" fill="#fff"/><path d="m66.8126 157.287c1.9258-1.337 3.8802-2.629 5.8613-3.876l45.5311 72.358c-.892.561-1.772 1.143-2.638 1.744z" fill="#fff"/><path d="m57.4525 164.323c-1.8153 1.475-3.5995 2.994-5.3509 4.554l56.8734 63.829c.782-.697 1.58-1.376 2.393-2.037z" fill="#fff"/><path d="m43.6615 176.993c-1.6224 1.683-3.2096 3.406-4.7602 5.169l64.1947 56.46c.689-.783 1.395-1.55 2.117-2.299z" fill="#fff"/><path d="m31.5084 191.242c-1.4043 1.866-2.7701 3.769-4.096 5.708l70.5764 48.246c.5903-.863 1.1979-1.71 1.822-2.539z" fill="#fff"/><path d="m21.1751 206.862c-1.1674 2.021-2.2936 4.076-3.3772 6.165l75.8877 39.367c.4887-.942.995-1.866 1.5182-2.772z" fill="#fff"/><path d="m193.729 222.616 2.808 1.613 44.041-73.221s-.807-.536-2.89-1.676-3.176-1.79-3.176-1.79z" fill="#fff"/><path d="m218.729 216.592-2.275-2.305 59.366-61.442s.88.918 2.582 2.573c1.703 1.656 2.337 2.387 2.337 2.387z" fill="#fff"/><path d="m292.786 178.094 1.586 2.824 75.329-40.329s-.418-.873-1.623-2.92c-1.205-2.046-1.811-3.164-1.811-3.164z" fill="#fff"/><path d="m406.347 226.683-.002-3.238 85.411-2.099s-.018 1.272.032 3.646c.051 2.374-.011 3.34-.011 3.34z" fill="#fff"/><path d="m327.206 130.661-2.464-2.103 53.9-66.2883s.955.8398 2.793 2.3438 2.532 2.1787 2.532 2.1787z" fill="#fff"/></mask><g stroke="url(#a3)" stroke-width="2"><path d="m465.216 68.9475 2.535 2.0155 54.511-65.79988s-.717-.65018-2.606-2.0895-2.872-2.245495-2.872-2.245495z" mask="url(#b3)"/><path d="m12.8019 223.609c-.4605 1.077-.9102 2.163-1.3488 3.256-.4386 1.094-.8639 2.189-1.2759 3.286l80.034 30.054c.1887-.502.384-1.005.586-1.509.202-.503.4084-1.002.6193-1.495z" mask="url(#b)"/><path d="m6.47449 241.252c-.66048 2.259-1.26693 4.522-1.81999 6.79l83.056 20.258c.2478-1.016.5204-2.033.8182-3.052z" mask="url(#b)"/><path d="m1.32777 266.472c.27438-2.319.60235-4.638.98456-6.956l84.35207 13.908c-.1702 1.032-.316 2.064-.438 3.094z" mask="url(#b)"/><path d="m.395283 278.144c-.097772 2.346-.141661 4.689-.13234 7.026l85.490257-.34c-.0041-1.041.0154-2.083.0589-3.125z" mask="url(#b)"/><path d="m.754176 296.869c.187245 2.338.427474 4.668.719914 6.989l84.82021-10.688c-.131-1.039-.2384-2.081-.322-3.126z" mask="url(#b)"/><path d="m3.37603 315.413c.46783 2.297.98725 4.581 1.55751 6.852l82.91506-20.828c-.2569-1.023-.4906-2.051-.7009-3.084z" mask="url(#b)"/><path d="m8.21123 333.506c.73994 2.223 1.52973 4.429 2.36867 6.615l79.8179-30.623c-.3792-.988-.7361-1.985-1.0704-2.989z" mask="url(#b)"/><path d="m15.1816 350.889c1.0005 2.118 2.0489 4.213 3.1443 6.284l75.5734-39.967c-.4948-.936-.9686-1.882-1.4209-2.84z" mask="url(#b)"/><path d="m24.1851 367.311c1.2466 1.981 2.5388 3.936 3.8758 5.861l70.2259-48.754c-.601-.866-1.1826-1.746-1.7442-2.638z" mask="url(#b)"/><path d="m35.0972 382.533c1.4752 1.815 2.9934 3.599 4.5539 5.35l63.8289-56.873c-.697-.782-1.376-1.58-2.037-2.393z" mask="url(#b)"/><path d="m47.7666 396.324c1.683 1.622 3.4064 3.209 5.1694 4.76l56.46-64.195c-.783-.689-1.55-1.395-2.299-2.117z" mask="url(#b)"/><path d="m62.0162 408.477c1.8655 1.404 3.7684 2.77 5.7079 4.096l48.2459-70.577c-.863-.59-1.71-1.198-2.539-1.822z" mask="url(#b)"/><path d="m77.6357 418.81c2.021 1.167 4.0762 2.294 6.165 3.377l39.3673-75.888c-.942-.488-1.866-.995-2.772-1.518z" mask="url(#b)"/><path d="m94.3827 427.183c1.0778.461 2.1634.91 3.2567 1.349s2.1886.864 3.2856 1.276l30.054-80.034c-.502-.189-1.005-.384-1.509-.586-.503-.202-1.001-.409-1.495-.619z" mask="url(#b)"/><path d="m112.026 433.511c2.259.66 4.522 1.267 6.79 1.82l20.258-83.056c-1.016-.248-2.033-.521-3.052-.819z" mask="url(#b)"/><path d="m130.29 437.673c2.318.382 4.637.71 6.956.984l10.046-84.898c-1.03-.122-2.062-.268-3.094-.438z" mask="url(#b)"/><path d="m148.918 439.59c2.346.098 4.689.141 7.026.132l-.34-85.49c-1.041.004-2.083-.016-3.125-.059z" mask="url(#b)"/><path d="m167.643 439.231c2.338-.187 4.668-.428 6.989-.72l-10.688-84.82c-1.039.131-2.081.238-3.126.322z" mask="url(#b)"/><path d="m186.187 436.609c2.297-.468 4.581-.987 6.852-1.557l-20.828-82.916c-1.023.257-2.051.491-3.084.701z" mask="url(#b)"/><path d="m204.28 431.774c2.223-.74 4.429-1.53 6.615-2.369l-30.623-79.818c-.988.379-1.985.736-2.989 1.071z" mask="url(#b)"/><path d="m221.663 424.803c2.118-1 4.213-2.048 6.284-3.144l-39.967-75.573c-.936.495-1.882.968-2.84 1.421z" mask="url(#b)"/><path d="m238.085 415.8c1.981-1.247 3.936-2.539 5.861-3.876l-48.754-70.226c-.866.601-1.746 1.183-2.638 1.744z" mask="url(#b)"/><path d="m253.307 404.888c1.815-1.475 3.599-2.994 5.35-4.554l-56.873-63.829c-.782.697-1.58 1.376-2.393 2.037z" mask="url(#b)"/><path d="m267.098 392.218c1.622-1.683 3.209-3.406 4.76-5.169l-64.195-56.46c-.689.783-1.395 1.55-2.117 2.299z" mask="url(#b)"/><path d="m279.251 377.969c1.404-1.866 2.77-3.769 4.096-5.708l-70.577-48.246c-.59.863-1.198 1.71-1.822 2.539z" mask="url(#b)"/><path d="m289.584 362.349c1.167-2.021 2.294-4.076 3.377-6.165l-75.888-39.367c-.488.942-.995 1.866-1.518 2.772z" mask="url(#b)"/><path d="m299.306 342.346c-.439 1.093-.888 2.179-1.349 3.256l-78.614-33.592c.21-.493.417-.992.619-1.495.202-.504.397-1.007.586-1.509l80.034 30.054c-.412 1.097-.837 2.192-1.276 3.286z" mask="url(#b)"/><path d="m306.105 321.169c-.553 2.268-1.16 4.531-1.82 6.79l-82.055-23.996c.298-1.019.571-2.036.819-3.052z" mask="url(#b)"/><path d="m173.513 130.554c2.319.274 4.638.602 6.956.984l-13.908 84.352c-1.032-.17-2.064-.316-3.094-.438z" mask="url(#b)"/><path d="m161.841 129.621c-2.346-.098-4.689-.141-7.026-.132l.341 85.49c1.04-.004 2.082.016 3.124.059z" mask="url(#b)"/><path d="m143.116 129.98c-2.338.187-4.668.428-6.989.72l10.689 84.82c1.038-.131 2.08-.238 3.125-.322z" mask="url(#b)"/><path d="m124.573 132.602c-2.298.468-4.582.987-6.853 1.558l20.828 82.915c1.023-.257 2.051-.491 3.084-.701z" mask="url(#b)"/><path d="m106.479 137.437c-2.223.74-4.429 1.53-6.6154 2.369l30.6234 79.818c.989-.379 1.985-.736 2.99-1.071z" mask="url(#b)"/><path d="m89.096 144.408c-2.1175 1-4.2128 2.048-6.2841 3.144l39.9671 75.573c.936-.495 1.882-.968 2.84-1.421z" mask="url(#b)"/><path d="m66.8126 157.287c1.9258-1.337 3.8802-2.629 5.8613-3.876l45.5311 72.358c-.892.561-1.772 1.143-2.638 1.744z" mask="url(#b)"/><path d="m57.4525 164.323c-1.8153 1.475-3.5995 2.994-5.3509 4.554l56.8734 63.829c.782-.697 1.58-1.376 2.393-2.037z" mask="url(#b)"/><path d="m43.6615 176.993c-1.6224 1.683-3.2096 3.406-4.7602 5.169l64.1947 56.46c.689-.783 1.395-1.55 2.117-2.299z" mask="url(#b)"/><path d="m31.5084 191.242c-1.4043 1.866-2.7701 3.769-4.096 5.708l70.5764 48.246c.5903-.863 1.1979-1.71 1.822-2.539z" mask="url(#b)"/><path d="m21.1751 206.862c-1.1674 2.021-2.2936 4.076-3.3772 6.165l75.8877 39.367c.4887-.942.995-1.866 1.5182-2.772z" mask="url(#b)"/><path d="m193.729 222.616 2.808 1.613 44.041-73.221s-.807-.536-2.89-1.676-3.176-1.79-3.176-1.79z" mask="url(#b)"/><path d="m218.729 216.592-2.275-2.305 59.366-61.442s.88.918 2.582 2.573c1.703 1.656 2.337 2.387 2.337 2.387z" mask="url(#b)"/><path d="m292.786 178.094 1.586 2.824 75.329-40.329s-.418-.873-1.623-2.92c-1.205-2.046-1.811-3.164-1.811-3.164z" mask="url(#b)"/><path d="m406.347 226.683-.002-3.238 85.411-2.099s-.018 1.272.032 3.646c.051 2.374-.011 3.34-.011 3.34z" mask="url(#b)"/><path d="m327.206 130.661-2.464-2.103 53.9-66.2883s.955.8398 2.793 2.3438 2.532 2.1787 2.532 2.1787z" mask="url(#b)"/></g></svg>
