<svg width="1440" height="720" viewBox="0 0 1440 720" fill="none" xmlns="http://www.w3.org/2000/svg">
<g clip-path="url(#clip0_12910_25198)">
<rect width="1440" height="720" fill="url(#paint0_radial_12910_25198)"/>
<rect width="1440" height="720" fill="url(#paint1_radial_12910_25198)" fill-opacity="0.13"/>
<path d="M1027.56 375.154L996.364 362.194L1011.13 350.851L1027.56 375.154Z" fill="#0096A2"/>
<path d="M1014.06 372.215L1033.77 384.125L1015.69 384.522L1014.06 372.215Z" fill="#00474D"/>
<rect width="34.1387" height="12.4141" transform="matrix(0.924059 0.382249 0.130992 0.991383 982.512 359.135)" fill="#005E66"/>
<path d="M992.478 371.477C993.206 371.779 993.713 371.39 993.61 370.608C993.506 369.827 992.832 368.95 992.104 368.648C991.376 368.347 990.869 368.736 990.973 369.517C991.076 370.299 991.75 371.176 992.478 371.477Z" fill="#D5F6F0"/>
<path d="M998.247 372.526C998.35 373.308 997.843 373.697 997.115 373.396C996.387 373.094 995.713 372.217 995.61 371.436C995.506 370.654 996.013 370.265 996.741 370.566C997.469 370.868 998.143 371.745 998.247 372.526Z" fill="#D5F6F0"/>
<path d="M1001.75 375.314C1002.48 375.615 1002.99 375.226 1002.88 374.445C1002.78 373.663 1002.11 372.786 1001.38 372.485C1000.65 372.183 1000.14 372.573 1000.25 373.354C1000.35 374.135 1001.02 375.013 1001.75 375.314Z" fill="#D5F6F0"/>
<path d="M1006.39 377.232C1007.12 377.533 1007.62 377.144 1007.52 376.363C1007.42 375.582 1006.74 374.704 1006.02 374.403C1005.29 374.102 1004.78 374.491 1004.88 375.272C1004.99 376.053 1005.66 376.931 1006.39 377.232Z" fill="#D5F6F0"/>
<rect width="34.1387" height="12.4141" transform="matrix(0.924059 0.382249 -0.793067 0.609134 992.358 351.572)" fill="#0096A2"/>
<path d="M987.446 349.091L993.733 357.509L993.995 357.617L988.259 355.245L987.446 349.091Z" fill="#005E66"/>
<path d="M1015.56 384.372L984.271 371.483L969.503 382.826L1015.56 384.372Z" fill="#018A95"/>
<path d="M1023.89 364.62L1033.84 384.176L1014 372.176L1023.89 364.62Z" fill="#017983"/>
<path d="M1019.23 375.329L1026.69 370.078L1028.97 374.526L1024.13 378.27L1019.23 375.329Z" fill="#89E5D3"/>
<circle cx="141.249" cy="682.773" r="218.341" fill="url(#paint2_radial_12910_25198)"/>
<g filter="url(#filter0_di_12910_25198)">
<ellipse cx="-21.0823" cy="611.91" rx="19.9453" ry="8.23813" transform="rotate(-57.3765 -21.0823 611.91)" fill="#00BECC"/>
</g>
<g filter="url(#filter1_di_12910_25198)">
<ellipse cx="35.6009" cy="611.143" rx="28.8535" ry="16.1996" transform="rotate(-57.3765 35.6009 611.143)" fill="#00BECC"/>
</g>
<g filter="url(#filter2_d_12910_25198)">
<ellipse cx="58.4744" cy="764.111" rx="28.8535" ry="26.4116" transform="rotate(-107.099 58.4744 764.111)" fill="#00BECC"/>
</g>
<g filter="url(#filter3_di_12910_25198)">
<ellipse cx="194.328" cy="565.107" rx="29.9091" ry="26.0478" transform="rotate(19.2236 194.328 565.107)" fill="#00BECC"/>
</g>
<circle cx="1184.03" cy="171.361" r="31.9706" fill="url(#paint3_radial_12910_25198)"/>
<circle cx="1184.03" cy="171.361" r="31.9706" fill="url(#paint4_linear_12910_25198)"/>
<g filter="url(#filter4_f_12910_25198)">
<path d="M1178.05 200.225C1182.12 199.35 1194.36 201.588 1203.52 194.255C1212.69 186.922 1212.43 177.704 1214.18 174.789" stroke="white" stroke-opacity="0.35" stroke-width="1.28158"/>
</g>
<path d="M501.056 248.804L496.628 266.06L512.992 273.101L495.736 268.673L488.695 285.038L493.123 267.782L476.759 260.74L494.015 265.168L501.056 248.804Z" fill="#EAFAF7"/>
<path d="M522.402 301.145L520.664 307.354L527.05 306.461L520.804 308.061L524.77 313.144L520.261 308.535L517.842 314.511L519.58 308.302L513.194 309.195L519.44 307.595L515.474 302.512L519.982 307.121L522.402 301.145Z" fill="#EAFAF7"/>
<path d="M544.28 286.226L544.45 292.795L550.967 293.643L544.397 293.812L543.549 300.329L543.38 293.76L536.863 292.912L543.433 292.742L544.28 286.226Z" fill="#EAFAF7"/>
<path d="M549.828 308.175L552.892 311.672L557.161 309.828L553.663 312.892L555.507 317.161L552.443 313.663L548.175 315.507L551.672 312.443L549.828 308.175Z" fill="#EAFAF7"/>
<path d="M921.147 410.99L924.596 419.453L933.49 417.353L925.027 420.802L927.127 429.697L923.678 421.234L914.784 423.334L923.246 419.885L921.147 410.99Z" fill="#EAFAF7"/>
<path d="M944.761 436.4L944.105 441.368L949.109 441.107L944.181 442.017L945.976 446.696L943.587 442.291L939.692 445.444L943.144 441.811L938.942 439.081L943.464 441.241L944.761 436.4Z" fill="#EAFAF7"/>
<path d="M947.148 457.2L947.756 460.289L950.682 459.127L947.932 460.66L949.941 463.083L947.634 460.942L945.95 463.602L947.273 460.745L944.223 459.965L947.349 460.342L947.148 457.2Z" fill="#EAFAF7"/>
<path d="M851.396 477.525L852.004 480.614L854.93 479.452L852.18 480.985L854.189 483.409L851.882 481.267L850.197 483.927L851.521 481.07L848.471 480.291L851.597 480.667L851.396 477.525Z" fill="#EAFAF7"/>
<path d="M403.131 271.222L413.353 274.553L418.223 264.968L414.893 275.19L424.478 280.06L414.255 276.73L409.385 286.315L412.716 276.092L403.131 271.222Z" fill="#EAFAF7"/>
<path d="M423.758 266.324L429.72 268.469L432.761 262.911L430.615 268.873L436.174 271.914L430.212 269.768L427.171 275.327L429.317 269.365L423.758 266.324Z" fill="#EAFAF7"/>
<path d="M484.681 296.254L493.135 294.976L490.334 286.897L494.162 294.542L500.98 289.383L494.892 295.386L501.906 300.275L494.315 296.34L491.833 304.522L493.229 296.087L484.681 296.254Z" fill="#EAFAF7"/>
<circle cx="1263.8" cy="137.858" r="10.5581" transform="rotate(-8.79531 1263.8 137.858)" fill="url(#paint5_radial_12910_25198)"/>
<circle cx="1263.8" cy="137.858" r="10.5581" transform="rotate(-64.5201 1263.8 137.858)" fill="url(#paint6_linear_12910_25198)" fill-opacity="0.28"/>
<g filter="url(#filter5_f_12910_25198)">
<path d="M1263.3 147.58C1264.59 147.089 1268.69 147.201 1271.31 144.345C1273.94 141.489 1273.38 138.494 1273.81 137.454" stroke="white" stroke-opacity="0.35" stroke-width="0.423231"/>
</g>
<g filter="url(#filter6_f_12910_25198)">
<path d="M799.231 55.5C876.407 55.6161 1050.6 72.205 1141.66 113.641C1387.72 225.601 1530.23 365.338 1568.83 515.484" stroke="#ABEDE0" stroke-opacity="0.44" stroke-width="23"/>
</g>
<rect width="1440" height="720" fill="url(#paint7_radial_12910_25198)"/>
</g>
<defs>
<filter id="filter0_di_12910_25198" x="-53.872" y="578.537" width="73.5758" height="82.7387" filterUnits="userSpaceOnUse" color-interpolation-filters="sRGB">
<feFlood flood-opacity="0" result="BackgroundImageFix"/>
<feColorMatrix in="SourceAlpha" type="matrix" values="0 0 0 0 0 0 0 0 0 0 0 0 0 0 0 0 0 0 127 0" result="hardAlpha"/>
<feOffset dx="3.99822" dy="7.99644"/>
<feGaussianBlur stdDeviation="11.9947"/>
<feComposite in2="hardAlpha" operator="out"/>
<feColorMatrix type="matrix" values="0 0 0 0 0 0 0 0 0 0 0 0 0 0 0 0 0 0 0.57 0"/>
<feBlend mode="normal" in2="BackgroundImageFix" result="effect1_dropShadow_12910_25198"/>
<feBlend mode="normal" in="SourceGraphic" in2="effect1_dropShadow_12910_25198" result="shape"/>
<feColorMatrix in="SourceAlpha" type="matrix" values="0 0 0 0 0 0 0 0 0 0 0 0 0 0 0 0 0 0 127 0" result="hardAlpha"/>
<feOffset dy="15.9929"/>
<feGaussianBlur stdDeviation="7.99644"/>
<feComposite in2="hardAlpha" operator="arithmetic" k2="-1" k3="1"/>
<feColorMatrix type="matrix" values="0 0 0 0 0 0 0 0 0 0 0 0 0 0 0 0 0 0 0.25 0"/>
<feBlend mode="normal" in2="shape" result="effect2_innerShadow_12910_25198"/>
</filter>
<filter id="filter1_di_12910_25198" x="-5.08167" y="569.32" width="89.3615" height="99.6387" filterUnits="userSpaceOnUse" color-interpolation-filters="sRGB">
<feFlood flood-opacity="0" result="BackgroundImageFix"/>
<feColorMatrix in="SourceAlpha" type="matrix" values="0 0 0 0 0 0 0 0 0 0 0 0 0 0 0 0 0 0 127 0" result="hardAlpha"/>
<feOffset dx="3.99822" dy="7.99644"/>
<feGaussianBlur stdDeviation="11.9947"/>
<feComposite in2="hardAlpha" operator="out"/>
<feColorMatrix type="matrix" values="0 0 0 0 0 0 0 0 0 0 0 0 0 0 0 0 0 0 0.57 0"/>
<feBlend mode="normal" in2="BackgroundImageFix" result="effect1_dropShadow_12910_25198"/>
<feBlend mode="normal" in="SourceGraphic" in2="effect1_dropShadow_12910_25198" result="shape"/>
<feColorMatrix in="SourceAlpha" type="matrix" values="0 0 0 0 0 0 0 0 0 0 0 0 0 0 0 0 0 0 127 0" result="hardAlpha"/>
<feOffset dx="-5.70081" dy="15.9929"/>
<feGaussianBlur stdDeviation="7.99644"/>
<feComposite in2="hardAlpha" operator="arithmetic" k2="-1" k3="1"/>
<feColorMatrix type="matrix" values="0 0 0 0 0 0 0 0 0 0 0 0 0 0 0 0 0 0 0.25 0"/>
<feBlend mode="normal" in2="shape" result="effect2_innerShadow_12910_25198"/>
</filter>
<filter id="filter2_d_12910_25198" x="11.8446" y="719.46" width="101.256" height="105.294" filterUnits="userSpaceOnUse" color-interpolation-filters="sRGB">
<feFlood flood-opacity="0" result="BackgroundImageFix"/>
<feColorMatrix in="SourceAlpha" type="matrix" values="0 0 0 0 0 0 0 0 0 0 0 0 0 0 0 0 0 0 127 0" result="hardAlpha"/>
<feOffset dx="3.99822" dy="7.99644"/>
<feGaussianBlur stdDeviation="11.9947"/>
<feComposite in2="hardAlpha" operator="out"/>
<feColorMatrix type="matrix" values="0 0 0 0 0 0 0 0 0 0 0 0 0 0 0 0 0 0 0.57 0"/>
<feBlend mode="normal" in2="BackgroundImageFix" result="effect1_dropShadow_12910_25198"/>
<feBlend mode="normal" in="SourceGraphic" in2="effect1_dropShadow_12910_25198" result="shape"/>
</filter>
<filter id="filter3_di_12910_25198" x="144.814" y="522.614" width="107.024" height="100.98" filterUnits="userSpaceOnUse" color-interpolation-filters="sRGB">
<feFlood flood-opacity="0" result="BackgroundImageFix"/>
<feColorMatrix in="SourceAlpha" type="matrix" values="0 0 0 0 0 0 0 0 0 0 0 0 0 0 0 0 0 0 127 0" result="hardAlpha"/>
<feOffset dx="3.99822" dy="7.99644"/>
<feGaussianBlur stdDeviation="11.9947"/>
<feComposite in2="hardAlpha" operator="out"/>
<feColorMatrix type="matrix" values="0 0 0 0 0 0 0 0 0 0 0 0 0 0 0 0 0 0 0.57 0"/>
<feBlend mode="normal" in2="BackgroundImageFix" result="effect1_dropShadow_12910_25198"/>
<feBlend mode="normal" in="SourceGraphic" in2="effect1_dropShadow_12910_25198" result="shape"/>
<feColorMatrix in="SourceAlpha" type="matrix" values="0 0 0 0 0 0 0 0 0 0 0 0 0 0 0 0 0 0 127 0" result="hardAlpha"/>
<feOffset dy="15.9929"/>
<feGaussianBlur stdDeviation="7.99644"/>
<feComposite in2="hardAlpha" operator="arithmetic" k2="-1" k3="1"/>
<feColorMatrix type="matrix" values="0 0 0 0 0 0 0 0 0 0 0 0 0 0 0 0 0 0 0.25 0"/>
<feBlend mode="normal" in2="shape" result="effect2_innerShadow_12910_25198"/>
</filter>
<filter id="filter4_f_12910_25198" x="1171.51" y="168.051" width="49.6319" height="39.208" filterUnits="userSpaceOnUse" color-interpolation-filters="sRGB">
<feFlood flood-opacity="0" result="BackgroundImageFix"/>
<feBlend mode="normal" in="SourceGraphic" in2="BackgroundImageFix" result="shape"/>
<feGaussianBlur stdDeviation="3.20394" result="effect1_foregroundBlur_12910_25198"/>
</filter>
<filter id="filter5_f_12910_25198" x="1261.11" y="135.258" width="15.0116" height="14.6357" filterUnits="userSpaceOnUse" color-interpolation-filters="sRGB">
<feFlood flood-opacity="0" result="BackgroundImageFix"/>
<feBlend mode="normal" in="SourceGraphic" in2="BackgroundImageFix" result="shape"/>
<feGaussianBlur stdDeviation="1.05808" result="effect1_foregroundBlur_12910_25198"/>
</filter>
<filter id="filter6_f_12910_25198" x="698.214" y="-57" width="982.751" height="676.347" filterUnits="userSpaceOnUse" color-interpolation-filters="sRGB">
<feFlood flood-opacity="0" result="BackgroundImageFix"/>
<feBlend mode="normal" in="SourceGraphic" in2="BackgroundImageFix" result="shape"/>
<feGaussianBlur stdDeviation="50.5" result="effect1_foregroundBlur_12910_25198"/>
</filter>
<radialGradient id="paint0_radial_12910_25198" cx="0" cy="0" r="1" gradientUnits="userSpaceOnUse" gradientTransform="translate(720 431.807) rotate(90) scale(288.193 394.366)">
<stop stop-color="#3D4243"/>
<stop offset="1"/>
</radialGradient>
<radialGradient id="paint1_radial_12910_25198" cx="0" cy="0" r="1" gradientUnits="userSpaceOnUse" gradientTransform="translate(614.331 720) rotate(-63.0716) scale(305.913 1510.82)">
<stop stop-color="#002F33" stop-opacity="0.85"/>
<stop offset="0.195263" stop-color="#00191C"/>
<stop offset="0.512823" stop-color="#00BECC" stop-opacity="0.37"/>
<stop offset="0.622701" stop-color="#0096A2"/>
<stop offset="0.856614"/>
<stop offset="0.930344" stop-color="#89E5D3" stop-opacity="0.26"/>
<stop offset="1" stop-color="#89E5D3" stop-opacity="0"/>
</radialGradient>
<radialGradient id="paint2_radial_12910_25198" cx="0" cy="0" r="1" gradientUnits="userSpaceOnUse" gradientTransform="translate(78.4761 762.065) rotate(-48.1663) scale(324.562)">
<stop offset="0.742011" stop-color="#002F33"/>
<stop offset="1" stop-color="#00BECC"/>
</radialGradient>
<radialGradient id="paint3_radial_12910_25198" cx="0" cy="0" r="1" gradientUnits="userSpaceOnUse" gradientTransform="translate(1174.38 161.601) rotate(22.0459) scale(43.662 43.2297)">
<stop stop-color="#89E5D3"/>
<stop offset="0.45071" stop-color="#005E66"/>
<stop offset="0.802869" stop-color="#184D52"/>
</radialGradient>
<linearGradient id="paint4_linear_12910_25198" x1="1169.3" y1="207.422" x2="1209.79" y2="171.361" gradientUnits="userSpaceOnUse">
<stop offset="0.1893" stop-color="#002F33" stop-opacity="0.2"/>
<stop offset="0.415812" stop-color="#ABEDE0" stop-opacity="0.15"/>
<stop offset="0.677289" stop-color="#002F33" stop-opacity="0.13"/>
<stop offset="0.847674" stop-color="#ABEDE0" stop-opacity="0.24"/>
<stop offset="1" stop-color="#002F33" stop-opacity="0.15"/>
</linearGradient>
<radialGradient id="paint5_radial_12910_25198" cx="0" cy="0" r="1" gradientUnits="userSpaceOnUse" gradientTransform="translate(1261.25 133.273) rotate(61.3191) scale(9.28961)">
<stop stop-color="#ABEDE0"/>
<stop offset="1" stop-color="#181A1B"/>
</radialGradient>
<linearGradient id="paint6_linear_12910_25198" x1="1258.93" y1="149.767" x2="1272.3" y2="137.858" gradientUnits="userSpaceOnUse">
<stop offset="0.1893" stop-color="white" stop-opacity="0.37"/>
<stop offset="0.244895" stop-color="#0096A2" stop-opacity="0.62"/>
<stop offset="0.314887" stop-color="#00BECC" stop-opacity="0.42"/>
<stop offset="0.479825" stop-color="white" stop-opacity="0.54"/>
<stop offset="0.669018" stop-color="#0096A2" stop-opacity="0.62"/>
<stop offset="0.792127" stop-color="white" stop-opacity="0.4"/>
<stop offset="0.824849" stop-color="#0096A2" stop-opacity="0.62"/>
<stop offset="0.908801" stop-color="#FAFAFA" stop-opacity="0.25"/>
</linearGradient>
<radialGradient id="paint7_radial_12910_25198" cx="0" cy="0" r="1" gradientUnits="userSpaceOnUse" gradientTransform="translate(720 431.807) rotate(159.235) scale(770.019 1170.36)">
<stop stop-color="#3D4243" stop-opacity="0"/>
<stop offset="1" stop-opacity="0.44"/>
</radialGradient>
<clipPath id="clip0_12910_25198">
<rect width="1440" height="720" fill="white"/>
</clipPath>
</defs>
</svg>
