<svg fill="none" height="48" viewBox="0 0 48 48" width="48" xmlns="http://www.w3.org/2000/svg"><path clip-rule="evenodd" d="m24 0c-13.2548 0-24 10.7452-24 24s10.7452 24 24 24 24-10.7452 24-24-10.7452-24-24-24zm11.7625 19.5625v-.75c1.1625-.825 2.1375-1.875 2.8875-3.075-1.05.4875-2.175.7875-3.375.9375 1.2-.75 2.1375-1.875 2.5875-3.2625-1.1625.675-2.4 1.1625-3.75 1.425-1.05-1.125-2.5875-1.8375-4.275-1.8375-3.2625 0-5.8875 2.625-5.8875 5.8875 0 .45.0375.9375.15 1.35-4.875-.2625-9.225-2.5875-12.1125-6.15-.4875.8625-.7875 1.875-.7875 2.9625 0 2.0625 1.05 3.8625 2.625 4.9125-.975-.0375-1.875-.3-2.6625-.75v.075c0 2.85 2.025 5.2125 4.725 5.7375-.4875.15-1.0125.225-1.5375.225-.4125 0-.75-.0375-1.125-.1125.7125 2.325 2.8875 4.05 5.475 4.0875-2.025 1.575-4.575 2.5125-7.3125 2.5125-.45 0-.9375-.0375-1.3875-.075 2.625 1.65 5.7 2.625 9.0375 2.625 10.8 0 16.725-8.9625 16.725-16.725z" fill-rule="evenodd"/></svg>