<svg fill="none" height="48" viewBox="0 0 48 48" width="48" xmlns="http://www.w3.org/2000/svg"><path d="m21.0098 28.4975 7.8089-4.4975-7.8089-4.4975z"/><path clip-rule="evenodd" d="m24 0c-13.2548 0-24 10.7452-24 24s10.7452 24 24 24 24-10.7452 24-24-10.7452-24-24-24zm14.3821 16.7842c-.346-1.285-1.3592-2.2982-2.6442-2.6441-2.3476-.6425-11.738-.6425-11.738-.6425s-9.3904 0-11.738.6177c-1.2603.346-2.29815 1.3839-2.64411 2.6689-.61779 2.3476-.61779 7.2158-.61779 7.2158s0 4.8929.61779 7.2158c.34596 1.285 1.35911 2.2981 2.64411 2.6441 2.3723.6425 11.738.6425 11.738.6425s9.3904 0 11.738-.6178c1.285-.3459 2.2982-1.3591 2.6442-2.6441.6178-2.3476.6178-7.2158.6178-7.2158s.0247-4.8929-.6178-7.2405z" fill-rule="evenodd"/></g></svg>
