<svg fill="none" height="78" viewBox="0 0 116 78" width="116" xmlns="http://www.w3.org/2000/svg" xmlns:xlink="http://www.w3.org/1999/xlink"><linearGradient id="a"><stop offset="0" stop-color="#89e5d3"/><stop offset="1" stop-color="#002f33"/></linearGradient><linearGradient id="b" gradientUnits="userSpaceOnUse" x1="87.7181" x2="87.7181" xlink:href="#a" y1=".822266" y2="67.0421"/><linearGradient id="c" gradientUnits="userSpaceOnUse" x1="63.5087" x2="75.6815" y1="22.5805" y2="72.3022"><stop offset="0" stop-color="#0096a2"/><stop offset="1" stop-color="#002f33"/></linearGradient><linearGradient id="d" gradientUnits="userSpaceOnUse" x1="10.364" x2="35.9341" xlink:href="#a" y1="14.5642" y2="67.042"/><linearGradient id="e" gradientUnits="userSpaceOnUse" x1="43.8857" x2="64.6963" xlink:href="#a" y1="24.3619" y2="78"/><path d="m94.425 7.60639c0 3.74681-3.0374 6.78411-6.7841 6.78411-3.7468 0-6.7841-3.0373-6.7841-6.78411 0-3.74677 3.0373-6.784124 6.7841-6.784124 3.7467 0 6.7841 3.037354 6.7841 6.784124z" fill="url(#b)"/><path clip-rule="evenodd" d="m96.6537 43.9532c-.218.0731-.4519.1161-.6979.1235l.0001.0103v20.0735c0 1.5914-1.2902 2.8816-2.8816 2.8816-1.5915 0-2.8816-1.2902-2.8816-2.8816v-20.0735-.0092h-3.9026v20.026c0 1.5915-1.2901 2.8816-2.8816 2.8816-1.5914 0-2.8815-1.2901-2.8815-2.8815v-20.0261h-.701c-.3043 0-.591-.0545-.8534-.1529-.2551.0988-.5325.1529-.8225.1529-1.259 0-2.2796-1.0206-2.2796-2.2795v-22.7456c-.4793-1.4964.6228-3.1422 2.3076-3.1422h19.0317c.443 0 .8461.1141 1.1909.3095.7567.3708 1.2778 1.1487 1.2778 2.0482v23.5301c0 1.2589-1.0206 2.2795-2.2796 2.2795-.261 0-.5117-.0438-.7452-.1246zm-3.5121-14.0681c.0905-.1059.1717-.2195.2426-.3396l1.7351-2.9347v7.582l-1.9036-4.1595c-.023-.0503-.0477-.0997-.0741-.1482zm-10.804-.2754-1.908-3.0737v7.8617l1.9417-4.3382c.0355-.0794.0753-.1567.119-.2316-.0549-.0698-.1058-.1426-.1527-.2182z" fill="url(#b)" fill-rule="evenodd"/><path d="m48.9743 6.92035c0 3.74675-3.0373 6.78415-6.7841 6.78415s-6.7841-3.0374-6.7841-6.78415c0-3.74676 3.0373-6.78412 6.7841-6.78412s6.7841 3.03736 6.7841 6.78412z" fill="#002f33"/><path clip-rule="evenodd" d="m51.203 43.2672c-.218.073-.4519.1161-.6978.1235v.0103 20.0734c0 1.5915-1.2902 2.8816-2.8816 2.8816-1.5915 0-2.8816-1.2901-2.8816-2.8815v-20.0735-.0092h-3.9025v20.026c0 1.5915-1.2902 2.8816-2.8816 2.8816-1.5915 0-2.8816-1.2901-2.8816-2.8816v-20.026h-.701c-.3043 0-.591-.0545-.8534-.1529-.2551.0987-.5325.1529-.8225.1529-1.259 0-2.2796-1.0206-2.2796-2.2796v-22.7455c-.4792-1.4965.6228-3.1422 2.3076-3.1422h19.0318c.4429 0 .8461.114 1.1908.3095.7567.3708 1.2778 1.1486 1.2778 2.0482v23.53c0 1.259-1.0206 2.2796-2.2796 2.2796-.261 0-.5117-.0439-.7452-.1246zm-3.5121-14.0682c.0905-.1059.1717-.2195.2426-.3395l1.7352-2.9347v7.582l-1.9037-4.1595c-.023-.0503-.0477-.0997-.0741-.1483zm-10.804-.2753-1.908-3.0737v7.8616l1.9417-4.3381c.0355-.0794.0753-.1567.119-.2316-.0548-.0699-.1058-.1427-.1527-.2182z" fill="#002f33" fill-rule="evenodd"/><path d="m71.1147 20.2506c3.723 0 6.741-3.0181 6.741-6.741 0-3.72299-3.018-6.74105-6.741-6.74105-3.7229 0-6.741 3.01806-6.741 6.74105 0 3.7229 3.0181 6.741 6.741 6.741z" fill="url(#c)"/><path d="m63.3026 50.4281c-1.7258 0-3.1249-1.399-3.1249-3.1248v-21.9161c0-2.1573 1.7488-3.9061 3.9061-3.9061h2.3436v.0782c.2525-.0513.5137-.0782.7813-.0782h7.8121c.2889 0 .5704.0314.8415.0909v-.0909h2.3436c2.1573 0 3.9061 1.7488 3.9061 3.9061v21.9161c0 1.7258-1.3991 3.1248-3.1249 3.1248-.0201 0-.0402-.0002-.0603-.0005v18.7496c0 1.7259-1.399 3.1249-3.1248 3.1249s-3.1249-1.3991-3.1249-3.1249v-18.7491h-3.1248v18.7491c0 1.7259-1.3991 3.1249-3.1249 3.1249s-3.1248-1.3991-3.1248-3.1249z" fill="url(#c)"/><path d="m24.937 14.9903c3.7229 0 6.741-3.018 6.741-6.74099 0-3.72296-3.0181-6.74101-6.741-6.74101-3.723 0-6.741 3.01805-6.741 6.74101 0 3.72299 3.018 6.74099 6.741 6.74099z" fill="url(#d)"/><path d="m17.1249 45.1679c-1.7259 0-3.1249-1.3991-3.1249-3.1249v-21.916c0-2.1573 1.7488-3.9061 3.9061-3.9061h2.3436v.0781c.2524-.0512.5137-.0781.7812-.0781h7.8121c.2889 0 .5705.0314.8415.0909v-.0909h2.3437c2.1572 0 3.906 1.7488 3.906 3.9061v21.916c0 1.7258-1.399 3.1249-3.1248 3.1249-.0202 0-.0402-.0002-.0603-.0006v18.7497c0 1.7258-1.399 3.1248-3.1248 3.1248s-3.1249-1.399-3.1249-3.1248v-18.7491h-3.1248v18.7491c0 1.7258-1.3991 3.1248-3.1249 3.1248s-3.1248-1.399-3.1248-3.1248z" fill="url(#d)"/><g fill="url(#e)"><path d="m62.5529 18.5644c0 3.7468-3.0373 6.7841-6.7841 6.7841s-6.7841-3.0373-6.7841-6.7841 3.0373-6.7841 6.7841-6.7841 6.7841 3.0373 6.7841 6.7841z"/><path clip-rule="evenodd" d="m64.7816 54.9112c-.218.0731-.4518.1161-.6978.1235v.0103 20.0735c0 1.5915-1.2902 2.8816-2.8816 2.8816-1.5915 0-2.8816-1.2901-2.8816-2.8816v-20.0735-.0092h-3.9025v20.0261c0 1.5914-1.2902 2.8815-2.8816 2.8815-1.5915 0-2.8816-1.2901-2.8816-2.8815v-20.0261h-.701c-.3043 0-.591-.0545-.8534-.1529-.2551.0988-.5325.1529-.8225.1529-1.259 0-2.2796-1.0206-2.2796-2.2795v-22.7456c-.4792-1.4964.6228-3.1422 2.3076-3.1422h19.0318c.4429 0 .8461.1141 1.1908.3095.7568.3708 1.2778 1.1487 1.2778 2.0482v23.5301c0 1.2589-1.0206 2.2795-2.2796 2.2795-.2609 0-.5117-.0438-.7452-.1246zm-3.5121-14.0681c.0905-.1059.1717-.2195.2427-.3396l1.7351-2.9347v7.582l-1.9037-4.1595c-.023-.0503-.0477-.0997-.0741-.1482zm-10.804-.2753-1.9079-3.0738v7.8617l1.9416-4.3382c.0355-.0794.0753-.1567.119-.2316-.0548-.0698-.1058-.1426-.1527-.2181z" fill-rule="evenodd"/></g></svg>