<svg fill="none" height="80" viewBox="0 0 116 80" width="116" xmlns="http://www.w3.org/2000/svg" xmlns:xlink="http://www.w3.org/1999/xlink"><linearGradient id="a" gradientUnits="userSpaceOnUse" x1="31.0905" x2="58.3688" y1="31.8409" y2="80"><stop offset="0" stop-color="#89e5d3"/><stop offset="1" stop-color="#184d52"/></linearGradient><clipPath id="b"><path d="m0 0h116v80h-116z"/></clipPath><g clip-path="url(#b)"><path d="m50.6486 0h-13.5252v13.5252h-6.7627v13.5252h-6.7626v52.9497h40.5757v-52.9497h-6.7626v-13.5252h-6.7626z" fill="url(#a)"/><g fill="#184d52"><path d="m30.3604 33.813h2.70504v13.5252h-2.70504z"/><path d="m30.3604 60.8633h2.70504v13.5252h-2.70504z"/><path d="m30.3604 54.1006h2.70504v2.70504h-2.70504z"/><path d="m36.4468 33.813h2.70504v13.5252h-2.70504z"/><path d="m36.4468 16.2305h2.70504v10.8202h-2.70504z"/><path d="m36.4468 60.8633h2.70504v13.5252h-2.70504z"/><path d="m36.4468 54.1006h2.70504v2.70504h-2.70504z"/><path d="m42.5332 33.813h2.70504v13.5252h-2.70504z"/><path d="m42.5332 16.2305h2.70504v10.8202h-2.70504z"/><path d="m42.5332 60.8633h2.70504v13.5252h-2.70504z"/><path d="m42.5332 54.1006h2.70504v2.70504h-2.70504z"/><path d="m48.6196 33.813h2.70504v13.5252h-2.70504z"/><path d="m48.6196 16.2305h2.70504v10.8202h-2.70504z"/><path d="m48.6196 60.8633h2.70504v13.5252h-2.70504z"/><path d="m48.6196 54.1006h2.70504v2.70504h-2.70504z"/><path d="m54.7061 33.813h2.70504v13.5252h-2.70504z"/><path d="m54.7061 60.8633h2.70504v13.5252h-2.70504z"/><path d="m54.7061 54.1006h2.70504v2.70504h-2.70504z"/></g></g></svg>