<svg fill="none" height="96" viewBox="0 0 116 96" width="116" xmlns="http://www.w3.org/2000/svg" xmlns:xlink="http://www.w3.org/1999/xlink"><linearGradient id="a" gradientUnits="userSpaceOnUse" x1="29.6255" x2="80.0859" y1="48" y2="96"><stop offset="0" stop-color="#89e5d3"/><stop offset="1" stop-color="#005e66"/></linearGradient><g clip-rule="evenodd" fill-rule="evenodd"><path d="m34.6652 0h4 7.7334 4 .2815.1612c1.1028 0 1.9968.894 1.9968 1.9968 0 1.10281-.894 1.99681-1.9968 1.99681h-.1612-.2815v.00639 3.99361 27.88179l15.6215 27.0572h.0037l13.1295 22.741c2.1413 3.7089.3887 8.1671-3.1598 9.7407-.8427.3742-1.7869.5857-2.8043.5857h-61.3146c-5.29883 0-8.61058-5.7362-5.96118-10.3251l28.75178-49.7996v-27.88169-3.99361-.00639h-.2811-.1612c-1.1028 0-1.9968-.894-1.9968-1.99681 0-1.1028.894-1.9968 1.9968-1.9968h.1612zm26.7361 62.9326h-37.7388l14.4668-25.0573.5359-.9282v-1.0718-31.8753h7.7334v31.8754 1.0718l.5359.9282z" fill="url(#a)"/><path d="m20.061 64.1937c0-3.3154 2.2367-6.0623 5.1577-6.5515 1.1839-2.9084 3.8852-4.9405 7.0282-4.9405 2.9951 0 5.5892 1.8455 6.8511 4.536.2865-.0508.5806-.0773.8804-.0773.4751 0 .9357.0664 1.3743.1911.7061-1.6969 2.2906-2.8793 4.1322-2.8793 1.8024 0 3.3587 1.1327 4.086 2.7719.7027-.4828 1.5378-.7627 2.4337-.7627 1.9587 0 3.6267 1.3376 4.2561 3.2092.8969-.5655 1.9386-.8892 3.0498-.8892 3.3646 0 6.0921 2.9679 6.0921 6.629 0 3.3152-2.2365 6.062-5.1573 6.5514-1.184 2.9081-3.8851 4.94-7.0279 4.94-2.9951 0-5.589-1.8453-6.851-4.5358-.286.0507-.5796.0771-.8789.0771-.4757 0-.937-.0666-1.3762-.1916-.7055 1.6981-2.2907 2.8815-4.1331 2.8815-1.8022 0-3.3584-1.1325-4.0857-2.7714-.7021.4815-1.536.7605-2.4306.7605-1.959 0-3.6273-1.3381-4.2564-3.2102-.8975.5665-1.9401.8908-3.0523.8908-3.3646 0-6.0922-2.9679-6.0922-6.629z" fill="#fff"/></g></svg>