<svg fill="none" height="116" viewBox="0 0 116 116" width="116" xmlns="http://www.w3.org/2000/svg" xmlns:xlink="http://www.w3.org/1999/xlink"><clipPath id="a"><path d="m0 0h116v116h-116z"/></clipPath><g clip-path="url(#a)" fill="#002f33"><path d="m50.3729 97.9201 1.1384-.2075c.8105-.0638 1.6153-.1878 2.4248-.2685.2996-.0282.4517-.1353.5635-.4349.3672-.9607.7945-1.8979 1.1711-2.8558.0294-.0869.04-.1792.0309-.2705-.009-.0914-.0375-.1797-.0835-.2592-.54-.7269-1.111-1.4312-1.6745-2.1402l-.5538-.7007s3.3553-3.8399 4.3214-4.8197c0 0 .3674.173 1.1008.7243.7119.5353 1.3984 1.1044 2.1177 1.6303.0799.0442.1682.0709.2592.0786.091.0076.1825-.0042.2686-.0345.9748-.3756 1.9415-.7725 2.9-1.1908.081-.0414.1521-.0996.2088-.1706.0567-.0711.0976-.1535.1199-.2416.1409-.9119.2404-1.8304.3597-2.7451l.1248-1.0695c1.4863-.0144 5.0249-.0159 6.5119-.0015l.1569 1.0419c.1258.9297.2141 1.8651.3531 2.793.0235.153.1982.3427.3494.4085.9447.4075 1.9082.7729 2.8521 1.1823.2319.1005.3812.1193.586-.0469.6912-.5635 1.3974-1.1035 2.0998-1.6501.648-.5033 1.1166-.4968 1.6989.0742 1.0606 1.0399 2.1108 2.0908 3.1507 3.1526.4508.4583.4508 1.0152.0479 1.5205-.5738.7203-1.1532 1.4378-1.7026 2.1769-.0476.0795-.0778.1683-.0886.2604-.0109.0921-.0021.1854.0257.2739.3844 1.0017.7914 1.9978 1.2208 2.9883.0611.1399.2818.2742.4433.2977.8818.1277 1.7702.2094 2.654.3259.8057.1061 1.1384-.1782 1.1384.6323.0056 1.393-.0059 3.4339-.0115 4.8259v.958c-.8865.122-2.9263.586-3.8053.727-.0954.026-.1842.071-.2606.134s-.1386.141-.1827.229c-.4141.939-.7823 1.905-1.1936 2.848-.1108.253-.0939.429.0742.634.5682.707 1.1269 1.421 1.6904 2.134.4292.546.6652.799.6652.799-1.0512 1.072-3.5068 3.621-4.578 4.677 0 0-.3282-.233-.9359-.692-.7221-.547-1.4227-1.122-2.1515-1.659-.0763-.049-.1622-.081-.2517-.093-.0896-.013-.1808-.006-.2676.019-.9736.381-1.9383.783-2.8944 1.207-.1606.071-.3475.268-.3756.43-.1428.927-.2311 1.862-.355 2.792l-.1613.851c-1.5333.02-4.9518.214-6.4864.194l-.1299-1.042c-.1296-.93-.2498-1.86-.3532-2.794-.0281-.252-.1136-.353-.3643-.448-.9645-.37-1.9102-.773-2.8521-1.193-.2292-.101-.3757-.124-.5832.045-.7278.591-2.2507 1.824-3.0029 2.384l-.7282-.73c-1.1001-1.064-2.8961-2.742-3.9629-3.841l.7483-.98c.5569-.716 1.1269-1.419 1.6716-2.145.0439-.072.0719-.152.0821-.235s.0024-.168-.023-.248c-.3756-.939-.7944-1.865-1.1598-2.81-.1202-.311-.2469-.469-.6048-.504-.8452-.072-1.6753-.216-2.5149-.298l-1.1824-.044zm18.0463-5.8948c-5.0046.016-9.1038 4.1322-9.0803 9.1287.0084 2.42.9776 4.737 2.6945 6.443 1.7168 1.706 4.0408 2.66 6.4609 2.653 4.998-.022 9.0823-4.151 9.056-9.154-.0263-5.0024-4.1265-9.0866-9.1311-9.0707z"/><path d="m65.6333 55.9626 1.8047-.3288c1.2848-.1012 2.5607-.2977 3.844-.4258.4749-.0446.7161-.2144.8933-.6893.5821-1.523 1.2595-3.0088 1.8565-4.5274.0467-.1378.0635-.284.0491-.4288s-.0596-.2849-.1325-.4108c-.856-1.1523-1.7612-2.2689-2.6545-3.393l-.8779-1.1107s5.3191-6.0874 6.8506-7.6407c0 0 .5824.2743 1.7452 1.1483 1.1284.8486 2.2167 1.7508 3.3571 2.5845.1267.07.2667.1124.4109.1245.1442.012.2893-.0065.4258-.0546 1.5454-.5955 3.0778-1.2247 4.5974-1.8877.1283-.0657.2412-.1579.331-.2706.0899-.1127.1547-.2433.1901-.383.2233-1.4456.3811-2.9016.5702-4.3517l.1979-1.6955c2.3562-.0228 7.9659-.0252 10.3231-.0024l.2488 1.6518c.1995 1.4738.3399 2.9567.5599 4.4276.037.2426.314.5434.554.6476 1.497.6461 3.025 1.2253 4.521 1.8744.368.1593.605.189.929-.0745 1.096-.8932 2.215-1.7493 3.329-2.6158 1.027-.7979 1.77-.7875 2.693.1177 1.682 1.6485 3.347 3.3145 4.995 4.9978.715.7265.715 1.6094.076 2.4103-.91 1.1419-1.828 2.2793-2.699 3.451-.076.1262-.123.2669-.141.4129-.017.146-.003.294.041.4342.61 1.5881 1.255 3.1671 1.936 4.7373.096.2218.446.4347.702.472 1.398.2024 2.807.332 4.208.5166 1.277.1682 1.804-.2824 1.804 1.0024.009 2.2084-.009 5.443-.018 7.6503v1.5182c-1.405.1935-4.639.9294-6.032 1.1527-.152.041-.292.1135-.414.2128-.121.0993-.219.2232-.289.3634-.657 1.4887-1.24 3.0192-1.892 4.514-.176.4019-.149.6803.117 1.0064.901 1.1195 1.787 2.2525 2.68 3.3825.68.865 1.055 1.2662 1.055 1.2662-1.667 1.7002-5.56 5.74-7.258 7.4144 0 0-.52-.3688-1.484-1.0968-1.144-.8665-2.255-1.7791-3.41-2.6307-.121-.0769-.257-.127-.399-.147s-.287-.0095-.425.0309c-1.543.6035-3.072 1.2412-4.588 1.9131-.255.1131-.551.4243-.596.6819-.2259 1.4694-.3658 2.9522-.5624 4.4261l-.2557 1.3484c-2.4307.0317-7.8501.3405-10.2827.3087l-.2061-1.6526c-.2054-1.4739-.396-2.9493-.5598-4.4292-.0446-.3989-.1801-.5597-.5776-.7101-1.529-.5866-3.0282-1.2253-4.5214-1.8907-.3633-.1608-.5955-.1966-.9245.0699-1.1539.938-3.568 2.892-4.7605 3.7808l-1.1545-1.1576c-1.7438-1.6872-4.5911-4.3473-6.2823-6.0902l1.1862-1.5531c.8829-1.1345 1.7866-2.2496 2.6501-3.4004.0696-.1134.114-.2404.1301-.3724.0162-.1321.0038-.266-.0363-.3928-.5955-1.4888-1.2595-2.9568-1.8387-4.4545-.1905-.4942-.3915-.7444-.9587-.7994-1.3399-.1147-2.656-.3425-3.987-.472l-1.8744-.0699zm28.6087-9.3448c-7.9337.0253-14.4323 6.5506-14.395 14.4709.0134 3.8366 1.5498 7.5109 4.2715 10.2151 2.7217 2.7041 6.4059 4.2167 10.2426 4.2052 7.9229-.0342 14.3979-6.5804 14.3559-14.5111-.041-7.9307-6.541-14.4054-14.475-14.3801z"/></g></svg>