<svg viewBox="0 0 2321 750" xmlns="http://www.w3.org/2000/svg"><path d="m1931.5 16c47.7-.4 95 8.5 139.3 26.4 44.2 17.9 84.5 44.3 118.6 77.7 34 33.4 61.2 73.2 79.8 117.1 18.7 43.9 28.5 91.1 28.9 138.8-1.8 96.1-41.1 187.6-109.7 255-68.6 67.3-160.8 105.1-256.9 105.1s-188.3-37.7-256.9-105.1c-68.6-67.3-108-158.9-109.7-255 .4-47.7 10.3-94.9 28.9-138.8 18.7-43.9 45.8-83.7 79.8-117.1s74.3-59.8 118.6-77.7 91.6-26.8 139.3-26.4zm-1385.7 600h-118.2v-100.2h-211.8l-66 100.2h-127.8l316-480h207.8zm-118.2-375.6h-30.5l-114.8 174.4h145.3zm334.8 128.4h218.3l-69 104.7h-149.3v142.5h-118.2v-480h336.6v104.7h-218.4zm703.9-63.8c0 151.6-122.7 168.6-175.5 168.6h-108.7v142.4h-118.2v-480l226.9.3c52.8 0 175.5 17.1 175.5 168.7zm-186.8 63.8c46.6 0 70.2-20 70.2-63.5s-23.6-64.6-70.2-64.6h-97.4v128.1z"/></svg>