<svg viewBox="0 0 1455 1455" xmlns="http://www.w3.org/2000/svg"><g transform="translate(0 402.638)"><path d="m1330.7 718.2-165.6-.6v165.6h165.6z"/><path d="m565.9 883.2 1.1-417.6h124.9l124.8 417.6h198.1l176.6-565.2h-182.2l-90.2 334.1-92.4-334.1h-579.5v147.6h140.5l1.3 417.6zm-243.3-610.2c46.4-3.5 89.7-26.2 119.4-54.1 14-14.2 24.4-30.7 33.7-52.3v105.1h153.2l2.4-191.3h141v-118.3h-141v-72.7h214.4l.6 382.5h148.8v-309.1l89.7 309.1h115.7l89.5-308.1v308.1h146.7v-506.9h-223.1l-70.9 289.2-72.5-289.2h-594.4v286.2c-19.8-31.9-46.8-53.3-73.2-59.8 0-.2 3.9-3 8.7-6.2 34.9-23.2 50.2-54.3 48.4-98.3-1.4-33.7-12.7-60.8-34.2-81.3-20.1-19.3-44.8-31-79.8-37.7 0 0-6.5-1.6-9.6-1.9s-8.5-1-8.5-1h-309.4v506.9c2.8 1.9 278.3 3.1 304.4 1.1zm-145-124.5v-89.2h51.6c29.8 0 55 .6 59.7 1.3 15.8 2.5 27.5 10.4 33 22.3 2.2 4.8 2.7 8.1 2.7 20.1 0 12.5-.4 15.2-3 21-6.3 14-19.8 21.7-42.2 24.1-12.7 1.4-100.5 1.7-101.8.4zm0-259.2h47.6c53.3 0 60.2.8 70.9 7.9 8.7 5.8 12.1 12.8 12.1 24.6 0 12.1-3 20.7-9 26.5-11.6 11.1-18.4 12.2-75.6 12.2h-45.9z"/></g></svg>