<svg viewBox="0 0 580 143.5" xmlns="http://www.w3.org/2000/svg"><path d="m49.9 109.4c10.2.2 20.4-1.9 29.7-6l.3-.3 1.3-24.4h-1.8c-3.4 15.7-9.3 27.3-28.4 27.3-23.4 0-36.8-21.6-36.8-51.2s13.2-51.4 35.7-51.4c17.9 0 26.6 11.8 29.7 28.2h1.8l-1.3-26.9-.3-.2c-.3 0-.8.2-1.1.2-2.5-.2-12-4.7-28.7-4.7-30.5 0-49.5 22-49.5 56.2s19 53.2 49.4 53.2zm83.7-1.6v-1.4c-10.7-.7-16.1-2.1-16.1-14v-38.2c3.4 0 16.3.3 20.5 1.3 6.1 1.6 8.1 5.7 9.5 16.3h1.9c-.2-3.9-.5-10.2-.5-17.9v-1.9c0-7.8.3-14 .5-17.9h-1.9c-1.4 10.6-3.4 14.7-9.5 16.3-4.2 1-17.1 1.3-20.5 1.3v-30.4c0-5.6 0-11 .2-16.3h15.5c10.3 0 15.8.8 20 2.1 9.9 3.2 12.1 10.2 14.5 20.3h1.8l-1.3-26.2-.2-.1c-6.4.6-12.8.9-19.2.8h-36.8c-6.9 0-16.5-.3-20.5-.3v1.4c8.6.8 13.4 2.1 13.4 14v75.2c0 12-4.8 13.2-13.4 14v1.4c5.5 0 12.8-.2 20.8-.2 8.3.3 15.8.4 21.3.4zm50.4-90.7v75.2c0 12-4.8 13.2-13.4 14v1.4c5.5 0 5.3-.2 15.2-.2 6.5 0 11.1.2 16.6.2v-1.4c-9-.8-13.9-2.1-13.9-14v-60.2c0-9.7-.2-16.3-.2-16.3 2.3 3.5 5.3 7.7 10.5 14.5l60.1 79.2h2v-92.4c0-11.9 4.8-13.2 13.4-14v-1.5c-5.5 0-5.2.3-15 .3-6.4 0-10.8-.3-16.3-.3v1.4c8.6.8 13.4 2.1 13.4 14v51.4c0 9.5.2 17 .2 17-2.1-3.2-5.5-7.9-9.5-13.2l-53.6-70.6c-3.9.3-7.9.4-11.8.3-5.3 0-7.6-.3-11.3-.3v1.4c8.6.9 13.6 2.2 13.6 14.1zm155.1 90.7c8.1 0 14.5 0 18.6.3.3 0 1.8-26.8 1.8-27.8h-1.5c-5.3 17.6-8.7 24.4-31.5 24.4h-8.5c-13.4 0-14.9-2.4-14.9-11.6v-39c3.4 0 18.1.3 22.3 1.3 6.1 1.6 8.1 5.7 9.5 16.3h1.9c-.2-3.9-.5-10.2-.5-17.9v-1.8c0-7.8.3-14 .5-17.9h-1.9c-1.5 10.6-3.4 14.7-9.5 16.3-4.2 1-18.9 1.3-22.3 1.3v-29.4c0-5.6 0-11.9.2-17.3h16.6c9.2 0 16.1.8 20.3 2.1 9.8 3.2 12.1 10.2 14.5 20.3h1.8l-1.3-26.2-.2-.2c-6.2.6-12.5.9-18.7.8h-38.1c-6.9 0-16.5-.3-20.5-.3v1.3c8.5.8 13.4 2.1 13.4 14.1v75.4c0 12-4.8 13.2-13.4 14v1.4c5.5 0 12.8-.2 19.2-.2 5.6.2 7.6.3 42.2.3zm34.7-87.6c10.7 31.5 18.4 54.2 23.4 68.9l6.6 19.7h5c2.1-6.5 4.8-14 7.6-22.1 5-14.4 10-30.7 15.2-46.3 1.6-5.2 3.5-11.5 5.2-17.1h.2c1.3 4.8 4.2 13.1 5.5 17.3 6.8 20.2 13.4 38.9 16.6 48.6 3.1 9.2 6.1 19.7 6.1 19.7h5c10.3-27.8 19.2-57 32.1-93 2.6-7.3 5-11.8 13.6-12.9v-1.4c-3.9.2-9.5.3-14.5.3-4.4 0-9.7-.2-15.3-.3v1.3c5 .5 12.4 1.6 12.4 5.3 0 1.8-1 4.4-2.7 9.9-3.1 9.7-7.4 24.7-16.6 51.6-2.6 7.6-6.6 20.2-6.6 20.2h-.2c-1.6-5.8-5-14.7-6.8-20.2-6.8-21-15.8-47.3-22.6-67.8h-4.3v.2l-.2-.2c-4.2 13.9-12.1 40.7-21 67.8-2.1 6.6-4.7 14.8-6.1 19.8h-.3c-1.5-5.2-5.2-14.8-6.8-19.7-6.6-19.7-13.1-37.9-19.7-57-.6-1.5-.9-3.1-1.1-4.7 0-4 9.2-5.3 11.6-5.3v-1.2c-6 .2-12.3.3-17.3.3s-12.1-.2-19.4-.3v1.3c10.4 1.6 11 4.4 15.4 17.3zm166.4 36.5 8.2 4c9.2 4.5 19.2 9.8 19.2 23.7 0 11.9-6.8 21.6-23.9 21.6-16.8 0-24.2-11.3-28.2-28.2h-1.8c.2 8.4.7 16.9.8 25.5 1.4.8 11.6 6.1 29 6.1 22 0 36.5-9.8 36.5-29.8 0-18.4-16.6-25.8-27.6-31l-9.2-4.5c-9.8-4.7-17.1-9.5-17.1-21.3 0-12.1 8.5-19.4 22-19.4 15.7 0 21.6 11 24.9 24.2h1.6l-1-24.4-.8-.3c-.3.2-.7.3-1.1.3-1.8 0-10.7-3.2-23.5-3.2-15.8 0-34 6.9-34 27.1 0 16.1 12.3 23.1 26 29.6zm-540.2 71.2h2.3v12.9h11.2v2.2h-13.5zm20-1.5h-.2c-.7 0-1.2-.6-1.2-1.6-.1-.9.6-1.6 1.4-1.7h.1c.9 0 1.7.8 1.7 2.4 0 1.3-.9 2.9-2.7 4.6l-.6-.6c.6-1 1.1-2 1.5-3.1zm9.1 1.5h2.4v15.2h-2.4zm8 0h1.2l9.6 10.6v-10.6h2.3v15.1h-1.2l-9.6-10.6v10.6h-2.3zm21 15.1h-2.3v-15.1h13.9v2.2h-11.6v3.8h7.5v2.2h-7.5zm13.7-7.5c0-4.5 3.7-8 9.2-8s9.3 3.4 9.3 8-3.7 8-9.3 8-9.2-3.6-9.2-8zm16.1 0c0-3.2-2.7-5.8-6.8-5.8s-6.8 2.5-6.8 5.8 2.7 5.8 6.8 5.8 6.8-2.6 6.8-5.8zm19-7.6h14.2v2.2h-11.8v3.8h7.7v2.2h-7.8v4.8h12.4v2.2h-14.8zm22.1 2.1h-6.4v-2.1h15.1v2.1h-6.4v13h-2.3zm38.8 5.5c0 4.3-3 7.5-8.2 7.5h-6.7v-15.1h6.7c5.1 0 8.2 3.3 8.2 7.6zm-12.5-5.4v10.7h4.4c3.8 0 5.8-2.2 5.8-5.4s-2.2-5.4-5.8-5.4zm21.4-2.2h1.5l7.7 15.1h-2.5l-2-3.8h-8l-1.9 3.8h-2.5zm3.7 9.3-2.9-5.8-3 5.8zm10.4-7.2h-6.4v-2.1h15.1v2.1h-6.4v13h-2.4zm14.8-2.1h1.5l7.7 15.1h-2.5l-2-3.8h-8l-2 3.8h-2.3zm3.7 9.3-2.9-5.8-3 5.8zm35.6-1.7c0 4.3-3 7.5-8.2 7.5h-6.7v-15.1h6.7c5 0 8.2 3.3 8.2 7.6zm-12.6-5.4v10.7h4.4c3.8 0 5.8-2.2 5.8-5.4s-2.2-5.4-5.8-5.4zm19-2.1v9.7c0 3 1.1 3.7 5.1 3.7s5.1-.7 5.1-3.7v-9.7h2.4v10.3c0 3.7-2.2 5.2-7.5 5.2s-7.4-1.5-7.4-5.3v-10.2zm38.4 15.5c-5.4 0-9.1-3.4-9.1-8s3.8-8 9.1-8c3-.1 5.9 1.2 7.8 3.5l-1.9 1.3c-1.4-1.8-3.6-2.8-5.9-2.7-3.9 0-6.7 2.5-6.7 5.8s2.8 5.8 6.7 5.8c2.5.1 4.9-1.1 6.3-3.3l1.9 1.3c-1.9 2.8-5 4.4-8.2 4.3zm11.2-8c0-4.5 3.7-8 9.2-8s9.3 3.4 9.3 8-3.7 8-9.3 8-9.2-3.6-9.2-8zm16 0c0-3.2-2.7-5.8-6.8-5.8s-6.8 2.5-6.8 5.8 2.7 5.8 6.8 5.8 6.8-2.6 6.8-5.8zm9 7.5h-2.4v-15h10.5c3.1 0 4.9 1.6 4.9 4.2 0 2.2-1.6 4-3.7 4.2l4.2 6.6h-2.6l-4.3-6.6h-6.5zm8-8.8c1.6 0 2.5-.7 2.5-2.1s-.9-2-2.5-2h-8v4.1zm12 8.8h-2.4v-15.1h11c3.1 0 4.9 1.5 4.9 4.2 0 2.4-1.7 4.3-4.7 4.3h-8.9zm8.6-8.8c1.6 0 2.5-.8 2.5-2.1s-.8-2-2.4-2h-8.7v4.1zm7.3 1.3c0-4.5 3.7-8 9.2-8s9.3 3.4 9.3 8-3.7 8-9.3 8-9.2-3.6-9.2-8zm16.1 0c0-3.2-2.7-5.8-6.9-5.8s-6.8 2.5-6.8 5.8 2.7 5.8 6.8 5.8 6.9-2.6 6.9-5.8zm9 7.5h-2.4v-15h10.5c3.1 0 4.9 1.6 4.9 4.2 0 2.2-1.6 4-3.7 4.2l4.2 6.6h-2.6l-4.3-6.6h-6.5zm8-8.8c1.6 0 2.5-.7 2.5-2.1s-.9-2-2.5-2h-8v4.1zm13.7-6.3h1.5l7.8 15.1h-2.5l-2-3.8h-8l-2 3.8h-2.5zm3.7 9.3-2.9-5.8-3 5.8zm10.4-7.2h-6.4v-2.1h15.1v2.1h-6.4v13h-2.4zm11.4-2.1h14.1v2.2h-11.8v3.8h7.8v2.2h-7.8v4.8h12.5v2.2h-14.8zm33.3 15.1h-2.4v-15.1h14v2.2h-11.6v3.8h7.5v2.2h-7.5zm15.1-15.1h2.4v15.2h-2.4zm8 0h1.2l9.6 10.6v-10.6h2.3v15.1h-1.2l-9.6-10.6v10.6h-2.3zm23.4 0h1.5l7.7 15.1h-2.5l-2-3.8h-8l-2 3.8h-2.5zm3.7 9.3-2.9-5.8-3 5.8zm8.2-9.3h1.2l9.6 10.6v-10.6h2.4v15.1h-1.2l-9.6-10.6v10.6h-2.3zm26.5 15.6c-5.4 0-9.1-3.4-9.1-8s3.8-8 9.1-8c3-.1 5.9 1.2 7.7 3.5l-1.9 1.3c-1.4-1.8-3.6-2.8-5.9-2.7-3.9 0-6.7 2.5-6.7 5.8s2.8 5.8 6.7 5.8c2.5.1 4.9-1.1 6.3-3.3l1.9 1.3c-1.7 2.8-4.8 4.4-8.1 4.3zm12.5-15.6h14.2v2.2h-11.8v3.8h7.7v2.2h-7.7v4.8h12.4v2.2h-14.8z"/></svg>