<svg viewBox="0 0 52 13.6" xmlns="http://www.w3.org/2000/svg"><path d="m5 1.3h1.1c.7-.1 1.4 0 2 .3.9.4 1.5 1.2 1.7 2.1.2.5.2.5.6.3h.3v-3.8h-10.7v.7h.4c.4 0 .8.2 1 .5.5.6.5 1.4.5 5.2 0 4.1-.1 5.1-.5 5.6-.2.3-.5.4-.8.4-.6.2-.6.2-.6.4v.3h6.8c.1-.2.1-.4 0-.6-.2 0-.3-.1-.5-.1s-.4-.1-.5-.1c-.5-.4-.8-1-.7-1.6-.2-.7-.2-1.9-.2-2.9v-.8h.4c.5 0 1 0 1.5.2.5.3.8.8.9 1.3v.3h.6v-4.4h-.6v.4c-.1.6-.4 1-.9 1.3-.3.1-.5.1-.8.1h-1.1v-1.1c0-1.1.1-3.5.1-3.9zm46.8 7.9c-.5-.8-1.2-1.3-2.1-1.6-.7-.2-1.3-.5-1.8-1-.2-.2-.3-.6-.3-.9s.1-.6.4-.8c.3-.3.8-.4 1.2-.3.9.3 1.6 1 1.8 1.9.2.4.2.4.5.3l.2-.1v-2.5l-.1-.1c-1-.3-2-.5-3.1-.4-.9 0-1.8.4-2.4 1s-.9 1.3-.9 2.2c0 .6.2 1.2.7 1.6.5.5 1.1.8 1.7 1 1.5.6 2 1 2 1.7 0 .6-.4 1.2-1 1.3-.3.1-.7.1-1.1 0-.9-.4-1.6-1.1-1.9-2.1l-.1-.3h-.2c-.1 0-.2 0-.2.1h-.1v2.8h.2c.7.2 1.4.4 2.1.5h1c.4 0 .9 0 1.3-.1 1.1-.2 2-1 2.4-2 .1-.3.2-.6.2-.9-.1-.5-.2-.9-.4-1.3zm-9.4-5.2c-1.2-.5-2.6-.5-3.8.1-1.1.5-1.9 1.5-2.3 2.7-.2.6-.3 1.3-.3 2 0 .4 0 .7.1 1.1.3 1.8 1.8 3.3 3.6 3.6.6.1 1.2.1 1.8 0s1.2-.3 1.7-.6c.4-.2.8-.6 1.1-1 0-.1-.1-.2-.2-.3-.1 0-.2.1-.3.2-.5.3-1.1.5-1.7.5-.8.1-1.6-.3-2.1-.8-.2-.2-.4-.4-.5-.7-.3-.6-.5-1.3-.5-2v-.5h5.5v-.2-.6c-.1-1.4-.9-2.8-2.1-3.5zm-2.8 3.5h-.7v-.6c.2-1.5.8-2.4 1.5-2.4s1 .9 1.1 2.5v.5zm-14.4-3.8c-.3 0-.7.1-1 .2-.7.3-1.2.9-1.5 1.6l-.1.2v-2h-.1c-.1 0-3.8.7-3.9.8s-.1.1-.1.2 0 .2.1.2l.3.1c.2 0 .4.1.6.3.2.3.3.9.3 3.4 0 1.1 0 2.2-.1 3.3-.1.3-.3.6-.7.6l-.3.1h-.1v.6h5.6v-.3-.3c-.3 0-.7-.1-1-.1-.4-.2-.6-.6-.5-1-.2-.6-.3-2.3-.2-3.6s0-1.4.1-1.5c.3-.3.7-.4 1.2-.4.4 0 .8.1 1.1.3.1.1.3.1.4.2 0 0 1-2.4 1-2.5-.3-.3-.7-.5-1.1-.4zm-6.7 4.2c-.1-1.4-.8-2.8-2.1-3.6-1.5-.8-3.2-.8-4.7-.1-1 .5-1.8 1.5-2.2 2.6-.4 1.3-.4 2.6 0 3.8.2.7.6 1.3 1.1 1.8.6.6 1.4 1 2.3 1.1h1.7c.2 0 .4-.1.6-.1 1.7-.5 2.9-1.8 3.2-3.6.1-.6.1-1.2.1-1.9zm-4.2 5c-1 .3-1.8-.7-2-2.7-.1-1.1-.1-2.1 0-3.2.2-1.6.7-2.5 1.5-2.5.3 0 .6.1.8.4.7.7 1 2 1 4 .1 1.1-.1 2.3-.5 3.3-.1.3-.4.5-.8.7 0-.1 0 0 0 0zm18-9h-.8c-.5 0-1.1.1-1.6.3l-.3.1v-2.1c.1-.7.1-1.5 0-2.2-.1 0-3.9.7-4 .8v.2c0 .2 0 .2.5.3.1 0 .2.1.4.1.2.2.3.4.4.7.1.8.2 1.5.1 2.3v8.8l.3.1c.4.1 1.5.3 1.9.3.7.1 1.5.1 2.2 0 1.7-.2 3.1-1.3 3.7-2.8.2-.5.3-1 .4-1.5.1-.7 0-1.4-.1-2.1-.3-1.7-1.5-3-3.1-3.3zm-2.6 8.8c0-.1-.1-4.5-.1-6.3v-1.3l.3-.1h.6c.2 0 .4 0 .6.1.8.5 1.2 1.4 1.3 2.3.1.7.1 1.5 0 2.2-.1 1.1-.5 2.1-1.2 2.9-.2.2-.4.3-.7.4h-.6c-.2 0-.2-.1-.2-.2z"/></svg>