<svg id="Calque_1" data-name="Calque 1" xmlns="http://www.w3.org/2000/svg" viewBox="0 0 497.22 217.44">
  <g id="lvKQio.tif">
    <path class="cls-1" d="M175.36 400.45l17.79 25.94.64-.19v-3-72.18c0-5.27.16-4.67 4.8-4.69h21.82a1.73 1.73 0 011.95 1.87V423.74c0 1.27-.17 2.53-.29 4.11h-3.31c-17.81 0-35.61-.05-53.42 0a5 5 0 01-4.74-2.61c-3.71-5.82-7.56-11.55-11.36-17.31-2.37-3.59-2.42-3.61-7.21-2.82v22c-2.41.8-24.41.92-27.57.22-.08-.9-.26-1.9-.26-2.89v-74.7-1.68a1.64 1.64 0 011.75-1.76h1.12c13.89 0 27.79 0 41.68.17a41.25 41.25 0 0116.56 3.67c11.7 5.27 16.88 16.24 15.47 28.56-1 9.12-5.72 15.77-13.51 20.39-.54.42-1.05.8-1.91 1.36zm-33.24-16a10.65 10.65 0 002 .38c3.63 0 7.27-.08 10.9-.19a11.09 11.09 0 002.75-.46c3.81-1.11 5.5-3.52 5.33-7.46a6.35 6.35 0 00-6.14-6.44c-4.71-.35-9.47-.12-14.21-.12-.14 0-.29.21-.61.46zM466 427.75c-1.23.05-2.24.13-3.25.14-6.06 0-12.13-.09-18.19.07a5.55 5.55 0 01-4.93-2.42c-8.26-10.36-16.59-20.65-24.91-31-.61-.76-1.26-1.49-1.89-2.24l-.57.23v35.06c-1.18.11-2.07.26-3 .27h-21.55c-3 0-3.13-.1-3.13-3.17v-40-33.86-2.24c.13-1.8.41-2.08 2.16-2.23h1.12c6.62 0 13.25.06 19.87 0a5.15 5.15 0 014.49 2.19c7.67 9.63 15.43 19.19 23.16 28.77.75.93 1.54 1.84 2.4 2.87 1-.93.69-2 .69-2.93v-26.58c0-4.27 0-4.27 4.39-4.27h19.31c4 0 4.07 0 4.07 4v74.16c-.02.99-.18 1.99-.24 3.18zM285.71 385.3c1.86.84 3.22 1.43 4.56 2 14.65 6.7 13.71 26 3.56 33.79a30.81 30.81 0 01-14.83 6.13 72.57 72.57 0 01-9.74.66c-13.8.07-27.59 0-41.39 0h-3c-.14-1.29-.33-2.28-.33-3.27v-74.94c0-.56 0-1.12.08-1.67a1.57 1.57 0 011.6-1.6c.74 0 1.49-.06 2.24-.06 13.61 0 27.22-.06 40.83 0a91.23 91.23 0 0110.85.85 25.62 25.62 0 019.17 3.25c12.44 6.91 12.39 25.51.42 32.52-1.17.75-2.37 1.41-4.02 2.34zm-25.11 10.25v.11h-6.14c-2.04 0-2.49.33-2.56 2.39s-.08 4.28 0 6.42c.06 1.92.33 2.18 2.39 2.2 3.72 0 7.45.1 11.17-.05a15.15 15.15 0 004.86-1.06 4.54 4.54 0 002.91-4.92c-.2-2.46-2.12-4.36-5.09-4.7-2.5-.27-5.03-.27-7.53-.39zm-.79-17.63v-.06h5.85a5.61 5.61 0 001.1-.15c3.34-.7 4.86-2.89 4.21-6-.44-2.13-2.31-3.6-5.26-3.72-3.9-.16-7.81-.08-11.71-.13-1.35 0-2.13.5-2.12 1.94v6.13a1.8 1.8 0 002.07 2zM535.15 377.1v19.82c-4.44.17-8.7.07-12.95.09s-8.58 0-12.87 0h-12.72a13.68 13.68 0 00-.14 7.91c4.53.23 9.17.08 13.81.11s9.32 0 14 0h13.81c.76 2.26 1 18.14.37 22.6-5.65.52-11.39.16-17.12.23s-11.75 0-17.62 0h-34.85c-.12-1.35-.29-2.34-.29-3.34v-74.69-1.68a1.65 1.65 0 011.76-1.75h64.34c1 0 2 .13 2.92.2.64 2.21.8 18.67.23 22.49-1.07.1-2.23.3-3.39.31h-34.69c-1.1 0-2.19.09-3.54.15v6.93c1.37.08 2.55.22 3.73.22h31.33c1.29.11 2.56.3 3.88.4z" transform="translate(-41.58 -261.95)"/>
    <path class="cls-1" d="M381.89 346.61c.09 1.12.19 1.85.19 2.58 0 15.29.07 30.59-.12 45.88a36.12 36.12 0 01-6.11 20c-4.43 6.59-10.78 10.5-18.3 12.5a61 61 0 01-29.88.47c-15.09-3.52-23.92-13.57-25.77-29a75.64 75.64 0 01-.56-8.65c-.06-13.33 0-26.67 0-40 0-4 .06-4.06 4-4.06h20.7c3.73 0 3.79.06 3.79 3.71v39.72a30 30 0 00.69 6.91c1.19 4.88 4.84 7.73 9.88 8a20.26 20.26 0 004.18-.16c4.4-.68 7.35-3.19 8.4-7.52a30 30 0 00.76-6.91c.07-12.59 0-25.18 0-37.77v-2.24c0-3.68.09-3.75 3.77-3.76h20.7c1.21.06 2.3.2 3.68.3zM209.93 343.92c-1.25.13-2.13.31-3 .31h-24.06a3.55 3.55 0 01-3.89-2.77c-.74-2.21-1.7-4.34-2.53-6.52a2.32 2.32 0 00-2.46-1.77c-8.48.06-17 0-25.77 0-.88 2.21-1.72 4.45-2.64 6.65-1.87 4.48-.75 4.32-6.38 4.33h-21c-1.08 0-2.16-.17-3.58-.29a23.43 23.43 0 01.73-2.62q16.08-38.46 32.17-76.92a3.35 3.35 0 013.56-2.42c7.46.06 14.92.07 22.38 0 1.91 0 2.81.8 3.51 2.47q15.93 38.18 31.93 76.33c.36.95.61 1.92 1.03 3.22zm-41.25-30.77l-6.42-17h-.61l-6.4 17c4.65.07 8.75.18 13.44 0zM42.16 262.71c8.8-.2 17.69-.1 26.89-.1.12 1.57.3 2.83.3 4.09v49.23c0 4.32 0 4.32 4.26 4.32h34.41c4 0 4 0 4 4v16.78c0 2.94-.21 3.16-3.22 3.16H44.74c-.9 0-1.81-.15-2.62-.22-.72-2.7-.74-78.35.04-81.26zM90.74 370.12v53.52c0 1.28-.15 2.55-.24 4H63.17c-.1-1.29-.29-2.55-.29-3.81v-49.8c0-1.19-.12-2.37-.2-3.92H42.3c-.94-2.75-1-20.9-.06-23.57.91 0 1.91-.15 2.91-.15H109.22c2.6.1 2.84.3 2.86 3v17.91c0 2.63-.22 2.82-2.92 2.84H94.33zM483.79 478.75h-4.28c-.09-1.18-.24-2.18-.24-3.17v-25.45-1.68a1.49 1.49 0 011.58-1.58c.65 0 1.31-.07 2 0 2.05.11 2.32.36 2.64 2.47.79 5.24 1.57 10.49 2.36 15.73a9.11 9.11 0 00.59 1.36c.46-2.83.83-5.05 1.18-7.28.5-3.22 1-6.45 1.49-9.67.4-2.42.63-2.6 3.06-2.6.91 0 1.82.15 2.65.23.59 2.29.7 28.39.14 31.64h-4c-.57-5.6 0-11.12-.14-16.67L490 478.39c-3 .86-3.39.7-3.84-1.88-.71-4.11-1.36-8.24-2.39-12.32zM265.19 478.67a10.56 10.56 0 01-1.46.34c-2.43.19-2.92-.13-3.52-2.51-.9-3.52-1.74-7.06-2.61-10.59a5.4 5.4 0 00-1-2.33v15.05c-.93.16-1.64.34-2.36.39-1.33.1-2.15-.45-2.15-1.9v-2-24.62-1.12c0-1.23 0-2.46 1.74-2.64 2.14-.23 3 .18 3.49 2.13.93 3.6 1.8 7.23 2.7 10.84a7.91 7.91 0 001 2.54v-11.17-2.24c.14-1.73.52-2.1 2.26-2.09a10.82 10.82 0 011.81.3c.57 2.23.72 28.06.1 31.62zM437.06 462.68v-15.6l3.79-.2c.7 2.3.89 27.6.29 31.7a11.67 11.67 0 01-2 .4c-1.88.07-2.27-.19-2.75-2-1-3.7-1.83-7.42-2.75-11.13-.24-1-.51-1.93-.92-3.45v13.33c0 3.49-.8 4-4.42 2.67-.06-.67-.19-1.4-.2-2.13V449.7c0-2.57.95-3.24 3.46-2.82 1.49.25 1.59 1.42 1.85 2.46 1 4 1.92 8 2.88 11.94.12.51.34 1 .51 1.49zM120.21 466.2l4 12.5c-1.37.13-2.26.24-3.15.3a2.28 2.28 0 01-2.6-2c-.69-2.61-1.49-5.19-2.25-7.78a1.87 1.87 0 00-.89-1.2v8.21c0 2.43-.46 2.82-2.74 2.73-1.86-.07-2.23-.36-2.24-2.37q-.06-13.69 0-27.37c0-2 .29-2.33 2.21-2.4a41.93 41.93 0 015.58.09c2.61.25 4.1 1.41 4.31 4a67.81 67.81 0 010 10.85c-.1 1.39-1.32 2.71-2.23 4.44zm-4.78-9.85a30.63 30.63 0 000 3.34c0 .44.54.84.84 1.25.45-.38 1.26-.73 1.28-1.13.12-2.31.1-4.64 0-7 0-.34-.74-.9-1.1-.88a1.46 1.46 0 00-1 1 27.58 27.58 0 00-.02 3.41zM403 462.87c0-3.35-.07-6.7 0-10 .14-5.28 4-7.82 9-6a4.31 4.31 0 013 3.06 15.84 15.84 0 01.49 3.57v19.56c0 6.34-4.75 7.19-9.28 5.88a4 4 0 01-2.85-3.17 19 19 0 01-.38-3.31c-.06-1.58 0-3.16 0-4.74v-4.75zm7.46.33V454c0-1 .39-2.61-1.24-2.58-1.41 0-1.07 1.53-1.08 2.46V472a3.58 3.58 0 000 .56c.12.79-.06 1.87 1.11 1.93s1.16-1 1.22-1.8v-1.67q-.03-3.92-.03-7.82zM226.91 462.7c0-3.26-.07-6.52 0-9.77.14-5.09 3.22-7.46 8.14-6.39a4.77 4.77 0 014.18 4.84c.11 3.16.05 6.33.06 9.49v12.85c-.05 3.74-1.8 5.49-5.44 5.61-4.37.15-6.57-1.37-6.79-5.18s0-7.63 0-11.45zm5.07.24v8.91c0 1-.48 2.63 1.17 2.62s1.2-1.61 1.2-2.64v-17.82a5.9 5.9 0 00-.21-1.92 1.07 1.07 0 00-2 0A6.36 6.36 0 00232 454v8.94zM466.51 463.21v10.35c-.06 3.86-1.87 5.66-5.64 5.76-4.33.11-6.51-1.46-6.6-5.39q-.27-11 0-22.09c.08-3.82 2.49-5.57 6.66-5.4 3.71.15 5.55 2 5.61 5.86.02 3.64-.03 7.27-.03 10.91zm-7.34-.4c0 3-.06 5.94 0 8.91 0 1.06-.63 2.83 1.24 2.8 1.55 0 1.16-1.65 1.17-2.68v-17.82a6 6 0 00-.21-1.92c-.12-.35-.7-.83-1-.77a1.74 1.74 0 00-1.13.92 5.87 5.87 0 00-.14 1.93c.08 2.82.08 5.75.08 8.62zM185.83 460.76c6-1 6.29-.8 6.28 4.92v7.27c-.1 6.57-4.77 7-9 6a4 4 0 01-3.09-3.28 17.15 17.15 0 01-.35-3.32v-19-.56c.14-5.32 4.37-8 9.3-5.83a4.2 4.2 0 012.68 3 22.8 22.8 0 01.44 4.71c0 1.61-.56 2-2.36 2-2 0-2.43-.3-2.61-2a19.41 19.41 0 00-.23-2.49 1 1 0 00-2-.06 7.17 7.17 0 00-.3 2.19v17.34a7.11 7.11 0 00.3 2.19 1.31 1.31 0 001 .71c.35 0 1-.5 1-.76-.1-3 1.31-6.22-.93-9.09-.96-1.15-.64-2.53-.13-3.94zM168.27 478.71a15.23 15.23 0 01-1.63.29c-2.7.15-3-.16-3.35-2.82-.13-1.09-.28-2.19-.45-3.42h-2.44l-1 6h-4.57c.06-1.26 0-2.27.17-3.27q1.56-12.77 3.18-25.54c.14-1.07-.11-2.58 1.19-2.88a12 12 0 014.4 0c.41.06.86 1.09 1 1.74.37 2.11.62 4.23.88 6.36q1.33 11 2.62 21.9a15.92 15.92 0 010 1.64zm-6.56-11.16c.85-3 0-5.92-.13-8.88.12 2.95-1.58 5.93.13 8.88zM84.91 478.76l3.93-31.66h6l3.94 31.58H94l-1-5.95h-2.43l-.86 6zM91 467.53c1.8-1.21 1.8-4.55.59-7.89zM278.3 468.94h4.63v4.09c0 .81.24 1.63 1.2 1.46a1.81 1.81 0 001.08-1.33c.24-3.78.15-7.36-3.39-10-3.82-2.89-5.2-9-3.47-13.42 1-2.43 3.5-3.68 6.74-3.3 3 .35 4.82 2 5.06 4.67.15 1.65 0 3.32 0 4.94a4.72 4.72 0 01-4.64.11 27.05 27.05 0 00-.37-3.48c-.11-.5-.74-.89-1.13-1.33-.37.45-1 .86-1.06 1.35-.37 3.12.13 5.89 3 7.85 3.11 2.11 4.35 5.21 4.22 8.92-.05 1.68.06 3.36 0 5a4.84 4.84 0 01-4.81 4.83 14.29 14.29 0 01-2.79 0 4.73 4.73 0 01-4.38-3.72 11.76 11.76 0 01.11-6.64zM63.37 447c2.51 0 4.93-.15 7.32 0 2.56.2 4.06 1.49 4.26 4a76.59 76.59 0 010 10.32c-.14 2.41-1.73 3.84-4.13 4.26-.82.14-1.65.23-2.81.38-.57 4.08.1 8.27-.42 12.68l-4 .29c-.88-2.28-1.06-28.44-.22-31.93zm4.52 5.21v7.8c0 .34.55 1 .78.93.46-.06 1.23-.46 1.25-.74.11-2.48.16-5 0-7.45.03-1-.85-1.02-2.03-.57zM391 456.23a16.86 16.86 0 01-2.25.4c-2 .05-2.42-.34-2.57-2.35a10.57 10.57 0 00-.24-2.2 1.32 1.32 0 00-1-.72 1.36 1.36 0 00-1 .73 6.18 6.18 0 00-.17 1.93v18.72c0 .89.13 1.87 1.24 1.73.45-.06.83-1 1.17-1.56.12-.21 0-.55 0-.83.18-3.59.86-4 4.75-2.77 0 1.86.07 3.8 0 5.73a4.37 4.37 0 01-.76 2.06c-1.75 2.62-4.46 2.43-7.05 2.09a4.53 4.53 0 01-4.1-4 26.13 26.13 0 01-.31-4.17v-17a19.47 19.47 0 01.1-2.23c.41-3.5 2.16-5.11 5.64-5.35 4.54-.31 6.93 2.29 6.63 6.23-.18 1.07-.08 2.18-.08 3.56zM533.74 460.16l4.11.61v4l-4.09.64v8.52l4.74.69v4.05a34.59 34.59 0 01-9.31.09c-.84-2.37-.93-28.75-.1-31.68h9.44v4.26l-4.79.65zM361.47 452v8.09l4.07.59c1.21 3.71 1 3.93-4 4.83v8.36l5.09.64v4a9.3 9.3 0 01-2 .52c-1.77.08-3.54.09-5.31 0-2.67-.07-2.88-.28-2.91-2.89v-9-17.34c0-2.84.21-3 3-3.11h4.48c2.59.06 2.91.32 3 2.25.07 2.22-.28 2.55-2.8 2.72-.88.14-1.68.25-2.62.34zM209.82 460.16l3.91.46c.77 1.35 1.13 3 .08 3.89s-2.55.73-4.22 1.12v8.22c1.42.15 2.67.29 3.93.4s1.6 1 1.58 2.17.1 2.42-1.49 2.51a30.14 30.14 0 01-8.73-.3v-31.44c3-.73 5.86-.43 8.72-.32 1.39.06 1.52 1.13 1.51 2.22s.06 2.35-1.49 2.55c-1.19.15-2.39.19-3.8.3zM137.29 452.18l-1.47-.44c-1.84-.51-2.18-1-2-3 .13-1.59.43-1.93 2.4-2 3-.05 6.1 0 9.35.06v4.31l-3.06 1c0 .93-.14 1.93-.15 2.92v22.08c0 1.31-.72 1.84-1.93 1.84-.83 0-1.65-.08-2.76-.14-.12-1.19-.31-2.27-.31-3.34v-19.84c-.07-1.07-.07-2.18-.07-3.45zM324.26 447.49v26.23c.93.19 1.62.35 2.32.47 1.82.32 2.13.69 2.07 2.59-.05 1.73-.39 2.17-2.11 2.26s-3.54 0-5.3 0c-1.41 0-2-.75-2-2.09v-1.4-25.13c-.03-3.84.96-4.42 5.02-2.93zM515.11 478.58a14.75 14.75 0 01-2 .37c-2.21.08-2.64-.27-2.65-2.5v-27.36a12.24 12.24 0 01.22-1.65 4.73 4.73 0 014.45-.1zM344.43 446.73c-.6 3.13-1.15 5.94-1.67 8.75-.22 1.17-1 1.48-2 1.4s-1.32-.91-1.34-1.77c-.05-2-.08-4.09 0-6.14.05-2.4.48-2.79 2.8-2.69a17.68 17.68 0 012.21.45zM365.62 439.21c-.84 1.89-1.53 3.58-2.32 5.22a1.62 1.62 0 01-2.34.78c-.44-.25-.6-1.18-.69-1.83a5.31 5.31 0 01.28-1.63c.66-3.27 1.13-3.54 5.07-2.54z" transform="translate(-41.58 -261.95)"/>
  </g>
</svg>
