<svg viewBox="0 0 510 75.3" xmlns="http://www.w3.org/2000/svg"><path d="m-395 420.6h.7c2.5-1.7 3.5-2.8 5.3-4.5v-.1h-.1l-.3.3c-.2.2-.6.5-1.1.9-1 .8-2.5 1.9-4.5 3.3zm3.4.2h-5.1v-2c.5-.2.9-.4 1.3-.6 2.3-.9 3.4-1.6 3.5-1.6.1-.1 5.3-2.8 9.6-6.7s5-3.6 10.3-9.4l.7-.8c-2.6 3.8-6.4 7.9-12.5 13.4-.7.6-1.3 1.2-2 1.9-2.3 1.9-4.3 4.1-5.8 5.8" transform="matrix(1.0244 0 0 -1.0244 581.308 480.703)"/><path d="m-379.2 409.3c-3.7 3.5-8.7 8.4-12 12.1h-1c2.3-2.7 5.2-5.6 7.8-8 6.5-5.9 10.5-10.1 13.1-14.2l-1.3 1.5c-5.3 5.8-6 5.5-10.3 9.4-4.3 4-9.6 6.7-9.6 6.7s-1.6 1-4.9 2.2v-1.6c4.5-1.6 6.5-2.8 6.5-2.8s6.7-3.7 11.5-8.4c4.2-4 5.1-5.1 6.1-6.2 0 0 2-1.4 3-1.8.1.1-1.6 4.3-8.9 11.1" transform="matrix(1.0244 0 0 -1.0244 581.789 481.046)"/><path d="m-379.2 409.3c-3.7 3.6-8.8 8.4-12 12.1h-1.1v-.1c2.3-2.6 5.2-5.6 7.8-8 6.5-5.9 10.4-10.1 13.1-14.2h.1l-1.3 1.5c-5.2 5.8-6 5.5-10.3 9.4-4.3 4-9.5 6.7-9.5 6.7l-.1-.1.1.1s-1.6 1-5 2.2v-1.7c2.3-.8 3.9-1.5 5-2 .5-.3.9-.4 1.2-.6.3-.1.4-.2.4-.2s.4-.2 1.1-.7c2.1-1.3 6.7-4.3 10.4-7.7 4.2-4 5.2-5.1 6.1-6.2 0 0 2-1.4 3-1.8h.1v.1c-.1.2-1.7 4.3-9.1 11.2 3.7-3.5 5.9-6.2 7.2-8.1.7-.9 1.1-1.7 1.4-2.2l.3-.6c0-.1.1-.2.1-.2h.1v.1c-.4.2-1.2.7-1.8 1-.6.4-1.1.8-1.1.8-.9 1.1-1.9 2.1-6.1 6.2-4.9 4.7-11.5 8.4-11.5 8.4s-2 1.2-6.6 2.8v-.1h.1v1.6h-.1c1.7-.6 3-1.2 3.8-1.6.4-.2.7-.3.9-.4s.3-.2.3-.2.3-.2.9-.5c1.7-.9 5.4-3.2 8.7-6.2 4.3-4 5-3.6 10.3-9.4l1.3-1.5h.1v.1c-2.7 4.1-6.6 8.3-13.1 14.2-2.7 2.4-5.5 5.4-7.8 8h-.1v-.1h1v.1-.1c3.2-3.7 8.2-8.5 12-12.1z" transform="matrix(1.0244 0 0 -1.0244 581.789 481.046)"/><path d="m-389.2 416.2c-1.9 1.8-2.8 2.8-5.4 4.5h-.6c4.1-2.8 6-4.5 6-4.5" transform="matrix(1.0244 0 0 -1.0244 581.482 480.837)"/><path d="m-389.2 416.2c-1.9 1.8-2.8 2.8-5.4 4.6h-.6v-.1c2-1.4 3.5-2.5 4.5-3.3.5-.4.8-.7 1.1-.9.3-.3.4-.4.4-.3h.1v.1s-1.9 1.7-6 4.5v-.1h.6v.1c2.5-1.8 3.5-2.8 5.4-4.5z" transform="matrix(1.0244 0 0 -1.0244 581.482 480.837)"/><path d="m-390.7 420.8h-.8c2.2-2.6 4.9-5.3 7.5-7.6 6.5-5.9 10.4-10.1 13.1-14.2v-.1h-.1l-1.3 1.5c-5.3 5.8-6 5.5-10.3 9.4-3.3 3-7 5.3-8.7 6.2-.6.3-.9.5-.9.5s-.1.1-.3.2-.5.3-.9.5c-.8.4-1.9.9-3.5 1.5v-1.4c4.4-1.6 6.4-2.7 6.4-2.7s6.6-3.7 11.5-8.4c4.2-4 5.2-5.1 6.1-6.2.1 0 .6-.4 1.1-.8.6-.4 1.2-.8 1.7-1v.1c-.1.1-.2.3-.3.6-.3.5-.7 1.2-1.4 2.2-1.3 1.9-3.6 4.6-7.2 8.1v.1-.3c-3.6 3.4-8.4 8.1-11.7 11.8" transform="matrix(1.0244 0 0 -1.0244 581.44 480.697)"/><path d="m-397.1 417.5v-.1c2.1-.8 3.7-1.5 4.7-1.9.6-.2.9-.4 1.2-.6l.4-.2s.4-.2 1.1-.7c2.1-1.3 6.7-4.3 10.4-7.7 4.2-4.1 5.2-5.1 6.1-6.2 0 0 2-1.4 3-1.8h.1v.1s-1.7 4.2-9 11v-.1c3.6-3.4 5.9-6.2 7.2-8.1.7-1 1.1-1.7 1.4-2.2l.3-.6c-.5.2-1.1.6-1.7 1s-1 .7-1.1.8c-1 1.1-1.9 2.1-6.1 6.2-4.9 4.7-11.5 8.4-11.5 8.4s-2.1 1.2-6.5 2.7m5.4 3.6h-.1c2.2-2.6 5-5.4 7.6-7.7 6.1-5.5 9.9-9.5 12.6-13.4l-.7.8c-5.3 5.8-6 5.5-10.3 9.4s-9.4 6.6-9.6 6.7c0 0-1.1.7-3.5 1.6-.4.2-.8.3-1.3.5 1.6-.6 2.7-1.1 3.5-1.5.4-.2.7-.4.9-.5s.3-.2.3-.2.3-.2.9-.5c1.7-1 5.4-3.3 8.7-6.2 4.3-3.9 5-3.6 10.2-9.4l1.3-1.5h.1v.1c-2.7 4.1-6.6 8.3-13.1 14.2-2.5 2.3-5.3 5.1-7.5 7.6m.9.1h-.1c3.2-3.7 8.1-8.4 11.8-11.8v.1c-3.7 3.4-8.5 8-11.7 11.7" transform="matrix(1.0244 0 0 -1.0244 581.789 481.045)"/><path d="m-394.4 420.5h-.4c2-1.4 3.5-2.5 4.4-3.3-1.1 1.1-2.1 2-4 3.3" transform="matrix(1.0244 0 0 -1.0244 581.328 480.705)"/><path d="m-395 420.6h.4c1.9-1.3 2.9-2.2 4-3.3-.9.8-2.4 1.9-4.4 3.3m.5.2h-.6v-.1c2-1.4 3.5-2.6 4.5-3.3.5-.4.9-.7 1.1-.9s.3-.3.4-.3h.1v.1c-1.9 1.8-2.8 2.8-5.4 4.5z" transform="matrix(1.0244 0 0 -1.0244 581.482 480.836)"/><path d="m-560.6 450.7h33.1v-11.2h-4c-1.9 0-2.5-.8-2.5-2.7v-25.2c0-1.2 1-2.3 2.7-2.3h9.5c1.2 0 2.8.9 2.8 2.6v9.1h13.2v-22.9h-54.8v11.2h3.9c1.8 0 2.7.6 2.7 2.4v25.1c0 1.6-.3 2.7-2.5 2.7h-4.1z" transform="matrix(1.0244 0 0 -1.0244 576.257 479.783)"/><path d="m-501.8 450.7h54.4v-16.9h-13.6v2.8c0 1.7-.9 2.9-3.5 2.9h-11.9v-9.5h12.8v-10.2h-12.8v-10.5h12.4c1.6 0 3 1 3 2.9v2.9h13.6v-17h-54.4v11.2h2.9c1.6 0 2.6.6 2.6 2.2v25.3c0 1.7-.3 2.8-2.5 2.8h-3.1z" transform="matrix(1.0244 0 0 -1.0244 578.05 479.783)"/><path d="m-422.6 450.7h55.7v-16.9h-13.6v2.9c0 1.5-.9 2.8-3 2.8h-12.3v-9.5h11.4v-10.2h-11.4v-7.6c0-2.1.9-2.9 3.6-2.9h4.3v-11.2h-34.7v11.2h4.6c1.3 0 2.2.9 2.2 2.2v25.3c0 1.6-.3 2.8-2.4 2.8h-4.4z" transform="matrix(1.0244 0 0 -1.0244 580.468 479.783)"/><path d="m-337.8 437.3c0 2 .6 2.6 2.5 2.6h4.1v11.2h-32.9v-11.1h4.2c2.2 0 2.5-1 2.5-2.6v-25.2c0-2-1.2-2.4-2.6-2.4h-4.1v-11.1h32.9v11.1h-4c-1.6 0-2.6.6-2.6 2.5z" transform="matrix(1.0244 0 0 -1.0244 583.049 480.193)"/><path d="m-284.3 450.7h11.7v-18.5h-11.7s-3.4 8.1-12.8 8.1c-7.1 0-12.6-5.1-12.6-14.6 0-16.1 8.9-17.4 12.7-17.4 7.9 0 9.7 5.6 9.7 7.8h-7.3v9.7h25.2s-.1-3.9-.1-6.7c0-1.3-1.3-21.9-29.6-21.9-20.4 0-31.1 11.7-31.1 28.3 0 11 8.6 26 29.4 26 11.6 0 16.6-4.7 16.6-4.7z" transform="matrix(1.0244 0 0 -1.0244 584.688 479.783)"/><path d="m-210 410.5c-2.2 0-2.9 2-4.3 5.3-1.1 2.7-13.9 36.2-13.9 36.2h-20.3s-13.8-37.2-14.4-38.8c-.8-1.9-1.9-2.6-4-2.6h-2.9v-11.1h24.8v10.5h-3.4c-1.5 0-1.8 1.1-1.3 2.7.6 1.8 1.6 4.7 1.6 4.7h15s.8-2.6 1.6-5c.6-1.8-1.3-2.5-2.5-2.5h-2.9v-10.6h29.9v11.1zm-35.8 14.1 5.2 15.5h.2l4.9-15.5z" transform="matrix(1.0244 0 0 -1.0244 586.952 481.01)"/><path d="m-142 410.5c-2 0-2.4 1-3.4 2.3s-7.3 11.2-7.3 11.2 9.2 2.6 9.2 12.4-8.2 13.3-11.7 14.2-11 1.3-13.1 1.3h-35.9v-11.2h3.5c2.2 0 2.5-1.1 2.5-2.6v-25c0-1.1-.2-2.6-2.6-2.6h-3.4v-11.1h31.7v11.1h-3.2c-2.2 0-2.5 1.2-2.5 2.5v8.5h7.1l13-22.2h19.9v11.1h-3.8zm-29.1 20.2h-7.2v10.8h7.8c2.3 0 6.3-.8 6.3-5.5.1-3.6-2.5-5.3-6.9-5.3" transform="matrix(1.0244 0 0 -1.0244 589.021 481.01)"/><path d="m-110.1 451.5c-22.1 0-30.1-14.8-30.1-26.6 0-15.7 11.1-27.7 29.9-27.7 16.7 0 29.9 9.2 29.9 27.1 0 16.9-12.6 27.2-29.7 27.2m.4-43.2c-4.8 0-9.9 2.9-9.9 17.5 0 9 3.5 14.6 9.4 14.6 5.6 0 9.7-3.7 9.7-15.6-.1-12.9-4.4-16.5-9.2-16.5" transform="matrix(1.0244 0 0 -1.0244 589.994 479.76)"/><path d="m-418.2 451v-.2h.5c-.2.1-.4.1-.5.2m-10.1 3.7.6-6.5c.6-.7 1.2-1.3 1.8-1.9l-.6 7h.1l.6-7.1 1.8-1.5-.6 7.5h.1l.6-7.6c.3-.3.7-.5 1.1-.8v7h.1v.4h.1v-.4h1.5c-2.6 1-5 2.4-7.2 3.9m-2 1.4.5-5.5c.6-.8 1.2-1.5 1.9-2.2l-.6 6.4h.1c-.6.4-1.2.8-1.9 1.3m-1.9 1.5.3-4.2c.6-.9 1.2-1.8 1.9-2.7l-.5 5.4c-.5.6-1.1 1-1.7 1.5m-1.9 1.6.2-2.4c.5-.9 1.1-1.9 1.7-2.9.1-.1.1-.2.2-.3l-.3 4c-.6.6-1.2 1.1-1.8 1.6m-1.8 1.7c.1-.4.4-.9.7-1.6l1.1-2.2-.1 2.2c-.6.6-1.2 1.1-1.7 1.6m-2.7 2.8c.1-2.9.6-6 1.1-8.1.2-.9.4-1.8.7-2.8 0-.1.1-.2.1-.2-.6.3-1 .6-1.3.9-.3.2-.6.4-.9.8.1-.2.1-.4.2-.7s.3-.7.4-1.1c.5-1.3 1.3-3 2.3-4.9 2-3.7 4.9-8 8.8-9.9v-.1l-.1-.1h-.7c.2-.1.3-.1.3-.1-1.8.2-3.5.8-4.3 1.1l.3-.3c.4-.4 1.1-1 2.2-1.9 2.2-1.7 6-4.2 12.4-7.5v-.1s-.2-.1-.7-.1h-.8c-.7 0-1.7.1-2.9.4.1 0 .1-.1.2-.1.3-.2.8-.5 1.3-.8 1.1-.7 2.5-1.5 4.2-2.4v11.1c0 1.6-.3 2.8-2.5 2.8h-4.4v3.4c-6.5 4.5-11.7 13.6-13.4 18.2-1.5 1.5-2.4 2.5-2.4 2.5" transform="matrix(1.0244 0 0 -1.0244 580.6 479.776)"/><path d="m-407.5 442.4.8-9.7c.7-.8 1.3-1.5 1.9-2.1l-.8 8.8h-.1c-.3.6-.7 1.3-1.2 2-.2.3-.5.6-.6 1m-15.6.8v-3.5h4.4c2.2 0 2.5-1.2 2.5-2.7v-11.1c.1-.1.3-.1.4-.2 3.5-1.9 7.9-3.9 11.3-4.5v16s-.3.8-1 2l.8-8.8v-.9h-.1c-.6.9-4.2 6.1-16.7 12.8-.6.2-1.1.6-1.6.9m.1 7.8h-.1v-7c.2-.2.5-.3.8-.5zm4.9 0h-.5l.1-.7v-.1h-.1-.1c0-.1 0-.2-.1-.2-.9.2-1.8.6-2.6.9h-1.5l.6-7.5c.6-.4 1.2-.7 1.8-1.1l-.7 8h.1l.7-8.1s.1 0 .1-.1c.6-.3 1.1-.6 1.6-.9l-.7 8.3h.2l.7-8.4c.6-.3 1.2-.7 1.8-1.1l-.9 10h.1l.9-10.1c.6-.4 1.2-.8 1.8-1.1l-.9 10.3h.1l.9-10.3 1.8-1.2-.9 10.4h.1l.9-10.5c.6-.4 1.2-.9 1.8-1.3l-.9 10.4h.1l.9-10.5c.6-.5 1.3-1 1.9-1.6l-.9 10.1h.1l.9-10.2c.7-.6 1.3-1.1 1.8-1.7l-.8 9.7c-2.2 2.9-5.6 6.3-10.3 8.5" transform="matrix(1.0244 0 0 -1.0244 580.928 480.04)"/><path d="m-405.7 440.5c-1.3 2.2-3.9 6.2-6.7 8.1-4.1 2.9-7.4 4.2-7.4 4.2l.9-1.8s-6.9 2.6-9.9 4.7c-4.4 3.2-10.7 9.4-10.7 9.4-.3-4.5 1.6-11.2 1.6-11.2-.9.4-2.3 2.3-2.3 2.3 3-12.8 10.7-17.7 10.7-17.7-.5 0-4.5 1.4-4.5 1.4 3.9-5.5 14.8-10.3 14.8-10.3-1.2 0-4.9.8-4.9.8 9.9-7.8 19.9-10.1 19.9-10.1v.9c-7 1-18.2 8.4-18.2 8.4 3.4-.9 4.7-.3 4.7-.3-12.8 6.6-15.2 9.9-15.2 9.9 2.3-1.2 5.1-1.2 5.1-1.2-7.7 3.8-11.9 16.9-11.9 16.9 1.4-1.4 2.3-1.7 2.3-1.7-2 7.5-2 11.6-2 11.6.2-.5 4-4.9 11.1-9.7 4.8-3.2 9.7-4.7 9.7-4.7l-.2 1.3s1.1 0 6.1-3.7c3.4-2.5 5.9-6.3 7-8.5z" transform="matrix(1.0244 0 0 -1.0244 580.98 480.096)"/><path d="m-405.7 440.5h.1c-1.3 2.2-3.9 6.2-6.7 8.2-4.2 2.9-7.5 4.2-7.5 4.2h-.1v-.1l.9-1.8h.1v.1s-.4.1-1.1.4c-2.1.8-6.5 2.7-8.7 4.3s-4.9 4-7 5.9c-1.1 1-2 1.8-2.7 2.5l-1 1h-.1v-1.2c0-4.4 1.6-10 1.6-10h.1v.1c-.4.2-1 .8-1.5 1.3-.2.3-.4.5-.6.7-.1.2-.2.3-.2.3h-.1v-.1c3.1-12.8 10.7-17.8 10.7-17.8v.1c-.1 0-.4.1-.9.2-.7.2-1.6.5-2.3.7s-1.3.4-1.3.4h-.1v-.1c3.9-5.5 14.9-10.4 14.9-10.4v.1c-.6 0-1.8.2-2.9.4s-2 .4-2 .4h-.1v-.1c9.9-7.8 20-10.1 20-10.1h.1v.9l-.1.1c-3.5.5-8 2.6-11.7 4.6-1.8 1-3.5 1.9-4.6 2.6-.6.3-1 .7-1.3.9s-.5.3-.5.3v-.1c1.5-.4 2.5-.5 3.3-.5 1 0 1.5.2 1.5.2v.2c-6.4 3.3-10.2 5.7-12.4 7.4-1.1.9-1.8 1.5-2.2 1.9-.2.2-.3.4-.4.5l-.1.1c2.3-1.2 5.1-1.2 5.1-1.2l.1.1v.1c-3.8 1.9-6.8 6.1-8.8 9.9-1 1.9-1.8 3.6-2.3 4.9-.2.7-.4 1.2-.6 1.5-.1.4-.2.6-.2.6h-.1c1.4-1.5 2.3-1.8 2.4-1.8v.1c-1 3.8-1.5 6.7-1.8 8.6-.1 1-.2 1.7-.2 2.2s-.1.8-.1.8h-.1c.1-.2.3-.5.8-1.1 1.5-1.7 5-5.1 10.3-8.7 4.8-3.2 9.7-4.7 9.7-4.7v.1l-.2 1.3h-.1c.1 0 1.3-.2 6-3.7 3.3-2.5 5.8-6.3 7-8.5h.1v.1l-.1 1h-.2l.1-1h.2c-1.2 2.1-3.7 6-7.1 8.5-5 3.6-6.1 3.7-6.1 3.7l.2-1.3h.1v.1s-.3.1-.9.2c-1.6.6-5.2 2-8.8 4.4-3.5 2.4-6.3 4.7-8.1 6.5-.9.9-1.7 1.6-2.2 2.2s-.8.9-.8 1h-.1v-.1s.1-4.1 2-11.7h.1c-.2.1-1.1.4-2.3 1.7h-.1v-.1s4.2-13.1 11.9-17v.2h-.5c-.9 0-2.8.3-4.5 1.1h-.1v-.1s2.4-3.4 15.2-10v.2h-.1c-.2-.1-.6-.2-1.3-.2s-1.8.1-3.3.5h-.1v-.1s11.1-7.4 18.2-8.4h-.1v-.9h.1v.1s-.2 0-.4.1c-2.1.6-10.9 3.2-19.5 10v-.1s3.7-.8 4.9-.8h.1v.1s-.2.1-.5.2c-2.1 1-11 5.3-14.4 10.1v-.1s1-.3 2.1-.7c.5-.2 1.1-.3 1.5-.5.4-.1.8-.2.9-.2h.1v.1s-.1.1-.3.2c-1.5 1.1-7.6 6.3-10.3 17.5h-.1s.3-.5.8-1 1.1-1.1 1.5-1.3h.1v.1s-.1.3-.2.9c-.5 1.8-1.4 5.8-1.4 9.1 0 .4 0 .8.1 1.2h-.1v-.1s6.3-6.1 10.7-9.3c3-2.1 9.9-4.8 9.9-4.8h.1v.1l-.9 1.8h-.1v-.1s.2-.1.6-.2c1.1-.5 3.8-1.8 6.8-3.9 2.8-2 5.5-6 6.7-8.1h.1-.1.1z" transform="matrix(1.0244 0 0 -1.0244 580.98 480.096)"/><path d="m-404.7 429.9c-.6.9-4.2 6.1-16.7 12.8-7.5 4-13.5 14.7-15.2 19.5 0 0 5.2-13.8 16.4-19.6 7-3.6 13-8.5 15.5-11.9z" transform="matrix(1.0244 0 0 -1.0244 581.01 480.42)"/><path d="m-404.7 429.9h.1c-.6.9-4.3 6.1-16.8 12.8-7.4 4-13.5 14.7-15.2 19.5h-.1s5.2-13.9 16.4-19.6c7-3.6 13-8.5 15.4-11.9h.1-.1l.2-.8h.2-.2.2l-.1.8c-2.4 3.4-8.5 8.3-15.5 12-5.6 2.9-9.7 7.8-12.4 11.9-1.3 2.1-2.4 4-3 5.4-.3.7-.6 1.2-.7 1.7l-.3.6h-.1v-.3c1.7-4.8 7.7-15.5 15.2-19.6 12.5-6.7 16.2-11.9 16.7-12.8h.1z" transform="matrix(1.0244 0 0 -1.0244 581.01 480.42)"/><path d="m-433.5 456.6-.2 3.2z" transform="matrix(1.0244 0 0 -1.0244 580.13 479.606)"/><path d="m-433.8 459.7.2-3.2h.1l-.2 3.2z" transform="matrix(1.0244 0 0 -1.0244 580.13 479.512)"/><path d="m-431.5 453.2-.4 4.8z" transform="matrix(1.0244 0 0 -1.0244 580.201 479.708)"/><path d="m-431.9 457.9.4-4.9h.1l-.4 4.9z" transform="matrix(1.0244 0 0 -1.0244 580.18 479.564)"/><path d="m-429.5 450.3-.5 6z" transform="matrix(1.0244 0 0 -1.0244 580.252 479.795)"/><path d="m-430 456.2.5-6h.1l-.5 6z" transform="matrix(1.0244 0 0 -1.0244 580.242 479.618)"/><path d="m-427.5 447.9-.6 6.9z" transform="matrix(1.0244 0 0 -1.0244 580.314 479.87)"/><path d="m-428.1 454.6.6-6.9h.1l-.6 6.9z" transform="matrix(1.0244 0 0 -1.0244 580.304 479.664)"/><path d="m-421.8 443.2-.7 8.2z" transform="matrix(1.0244 0 0 -1.0244 580.488 480.015)"/><path d="m-422.5 451.1.7-8.2h.1l-.7 8.2z" transform="matrix(1.0244 0 0 -1.0244 580.468 479.772)"/><path d="m-425.6 446.2-.6 7.3z" transform="matrix(1.0244 0 0 -1.0244 580.375 479.922)"/><path d="m-426.2 453.3.6-7.3h.1l-.6 7.3z" transform="matrix(1.0244 0 0 -1.0244 580.355 479.706)"/><path d="m-423.7 444.2-.7 8.2z" transform="matrix(1.0244 0 0 -1.0244 580.437 479.983)"/><path d="m-424.4 452.2.7-8.2h.1l-.7 8.2z" transform="matrix(1.0244 0 0 -1.0244 580.416 479.739)"/><path d="m-419.9 442.2-.7 8.2z" transform="matrix(1.0244 0 0 -1.0244 580.55 480.043)"/><path d="m-420.7 450.2.7-8.2h.1l-.7 8.2z" transform="matrix(1.0244 0 0 -1.0244 580.529 479.802)"/><path d="m-418.1 441-.7 8.7z" transform="matrix(1.0244 0 0 -1.0244 580.6 480.08)"/><path d="m-418.8 449.5.7-8.7h.1l-.7 8.7z" transform="matrix(1.0244 0 0 -1.0244 580.58 479.822)"/><path d="m-416.2 439.9-.9 10.4z" transform="matrix(1.0244 0 0 -1.0244 580.662 480.114)"/><path d="m-417.1 450.1.9-10.4h.1l-.9 10.4z" transform="matrix(1.0244 0 0 -1.0244 580.631 479.804)"/><path d="m-414.3 438.5-.9 10.9z" transform="matrix(1.0244 0 0 -1.0244 580.724 480.155)"/><path d="m-415.3 449.1.9-10.9h.1l-.9 10.9z" transform="matrix(1.0244 0 0 -1.0244 580.693 479.833)"/><path d="m-412.4 437.3-.9 11z" transform="matrix(1.0244 0 0 -1.0244 580.775 480.195)"/><path d="m-413.4 448 .9-11.1h.1l-.9 11z" transform="matrix(1.0244 0 0 -1.0244 580.744 479.868)"/><path d="m-410.6 436-.9 10.9z" transform="matrix(1.0244 0 0 -1.0244 580.836 480.233)"/><path d="m-411.5 446.6.9-10.9h.1l-.9 10.9z" transform="matrix(1.0244 0 0 -1.0244 580.806 479.91)"/><path d="m-408.6 434.3-.9 10.7z" transform="matrix(1.0244 0 0 -1.0244 580.898 480.284)"/><path d="m-409.6 444.7.9-10.8h.1l-.9 10.7z" transform="matrix(1.0244 0 0 -1.0244 580.867 479.967)"/><path d="m-406.7 432.6-.9 10.4z" transform="matrix(1.0244 0 0 -1.0244 580.949 480.337)"/><path d="m-407.7 442.7.9-10.4h.1l-.9 10.4z" transform="matrix(1.0244 0 0 -1.0244 580.918 480.029)"/><path d="m-404.8 430.2-.8 9.7z" transform="matrix(1.0244 0 0 -1.0244 581.01 480.41)"/><path d="m-405.7 439.6.8-9.7h.1l-.8 9.7z" transform="matrix(1.0244 0 0 -1.0244 580.98 480.124)"/><path d="m-438.5 464.3v-1c0-3.3.9-7.3 1.4-9.1.2-.6.2-1 .2-1v-.1h-.1c-.4.2-1 .8-1.5 1.3-.3.3-.5.6-.7.8 2.7-11 8.8-16.1 10.3-17.2.2-.1.3-.2.3-.2v-.2c-.2 0-.5.1-1 .2-.4.1-1 .3-1.5.5-.8.2-1.5.5-1.9.6 3.5-4.7 12.1-9 14.3-10 .3-.1.5-.2.5-.2v-.1l-.1-.1c-1 0-3.8.6-4.7.7 8.6-6.6 17.2-9.3 19.3-9.8.2 0 .3-.1.4-.1v.7c-7.1 1-18.1 8.4-18.1 8.4v.1h.1c1.5-.4 2.5-.5 3.3-.5.7 0 1 .1 1.2.1-12.7 6.5-15 9.9-15 9.9v.1h.1c1.7-.9 3.7-1.1 4.6-1.1h.2c-7.5 4-11.7 16.8-11.7 16.8v.1h.1c1.1-1.1 1.9-1.6 2.2-1.7-1.9 7.5-2 11.6-2 11.6h.2c0-.1.3-.5.8-1 .4-.5 1-1.1 1.8-1.8h.1s0-.1.1-.2c.1 0 .1-.1.2-.2.5-.4 1.1-1 1.7-1.5v.2h.1v-.3c.6-.5 1.1-1 1.8-1.5h.1v-.1c1.3-1.1 2.8-2.2 4.5-3.3 3.6-2.4 7.2-3.8 8.8-4.4.3-.1.6-.2.7-.2l-.2 1.2h.1s1.1-.1 6.1-3.7c2-1.5 3.7-3.5 5.1-5.3v-.1c.8-1.1 1.4-2.1 1.9-2.9v.7c-1.3 2.2-3.9 6.1-6.7 8.1-3.1 2.1-5.7 3.5-6.8 3.9-.2.1-.3.1-.4.2l.8-1.6v-.1h-.1s-6.9 2.6-9.8 4.7c-4.1 3-9.8 8.5-10.6 9.3" transform="matrix(1.0244 0 0 -1.0244 579.986 479.368)"/><path d="m-438.6 464.5v-.1-1.2c0-4 1.3-9 1.6-9.9-.4.2-.9.8-1.3 1.2-.2.2-.4.5-.6.7s-.2.3-.2.3h-.1v-.1c2.7-11.6 9.2-16.7 10.5-17.6-.2.1-.4.1-.7.2-.7.2-1.6.5-2.3.8-.7.2-1.3.4-1.3.4h-.1v-.2c3.6-5 12.9-9.4 14.6-10.2-.7 0-1.7.2-2.6.3-1.1.2-2 .4-2 .4h-.1v-.1c9.9-7.8 20-10.1 20-10.1h.1v1.1h-.3c-3.5.6-7.8 2.6-11.4 4.5-.1.1-.3.1-.4.2-1.7.9-3.1 1.8-4.2 2.4-.6.3-1 .7-1.3.8-.1.1-.1.1-.2.1 1.3-.3 2.2-.4 2.9-.4 1 0 1.4.2 1.4.2h.1v.1c-6.4 3.3-10.2 5.8-12.4 7.4-1.1.8-1.8 1.5-2.2 1.9l-.4.4c2.2-1.1 4.8-1.1 4.8-1.1h.1v.1c-3.8 1.9-6.8 6.1-8.8 9.9-1 1.9-1.8 3.6-2.3 4.9-.2.4-.3.8-.4 1.1 0 .2-.1.3-.1.4s-.1.2-.1.3c1.2-1.3 2.1-1.6 2.1-1.6h.1v.1c-.2 1-.4 1.9-.7 2.7-.6 2.5-.9 4.4-1.1 5.9-.2 1-.2 1.7-.3 2.2v.5c.1-.2.4-.5.7-.9.4-.5 1.1-1.2 2-2 0 .1-.1.1-.1.2-.8.7-1.3 1.3-1.8 1.8-.5.6-.8.9-.8 1.1h-.1l-.1-.1s.1-4.1 2-11.6c-.3.1-1.1.6-2.2 1.7h-.1v-.1s4.1-12.8 11.7-16.8h-.2c-.9.1-2.9.3-4.6 1.1h-.1v-.1s2.4-3.4 15-9.9c-.2-.1-.6-.1-1.2-.1-.8 0-1.8.1-3.3.5h-.1v-.1s11.1-7.3 18.1-8.3v-.8c-.1 0-.2 0-.4.1-2 .6-10.7 3.1-19.3 9.8.9-.2 3.7-.8 4.7-.8l.1.1v.1s-.2.1-.5.2c-2.1 1-10.8 5.3-14.3 10 .3-.1 1.1-.4 1.9-.6.5-.2 1.1-.3 1.5-.5.4-.1.8-.2 1-.2v.1s-.1.1-.3.2c-1.5 1.1-7.6 6.2-10.3 17.2.1-.2.4-.5.7-.8.5-.6 1.1-1.1 1.5-1.3h.1v.1s-.1.4-.3 1c-.4 1.8-1.4 5.8-1.4 9.1v1c.8-.8 6.5-6.3 10.6-9.3 2.9-2.1 9.9-4.7 9.9-4.7h.1v.1l-.8 1.6c.1 0 .2-.1.4-.2 1.1-.5 3.8-1.8 6.8-4 2.8-1.9 5.4-5.9 6.7-8.1v-.2c-.4.8-1.1 1.8-1.8 2.9v-.2c.8-1.1 1.4-2.2 1.9-3h.1v.1l-.1.9h-.1.1-.1.1c-1.3 2.2-3.9 6.2-6.7 8.1-1.4 1-2.6 1.8-3.7 2.4-2.2 1.2-3.7 1.8-3.7 1.8h-.1l.8-1.6c-.2.1-.6.2-1 .4-2 .8-6.5 2.7-8.7 4.3s-4.9 3.9-7 5.9c-1 1-2 1.8-2.6 2.5l-1 1h-.1z" transform="matrix(1.0244 0 0 -1.0244 579.976 479.363)"/><path d="m-435.6 461.1c0-.1.1-.2.1-.3.6-.5 1.1-1 1.8-1.6v.2c-.6.6-1.2 1-1.7 1.5-.1.2-.1.2-.2.2" transform="matrix(1.0244 0 0 -1.0244 580.068 479.467)"/><path d="m-433.6 459.4v-.2c.6-.5 1.1-.9 1.8-1.5v.1c-.7.6-1.3 1.1-1.8 1.6" transform="matrix(1.0244 0 0 -1.0244 580.13 479.52)"/><path d="m-431.8 457.8v-.2c1.3-1 2.8-2.1 4.4-3.2 4.7-3.2 9.6-4.7 9.6-4.7h.1v.1l-.1.7-.1.5c.3-.1 1.7-.6 6-3.6 2-1.5 3.7-3.5 5-5.3v.1h.1c-1.3 1.8-3 3.8-5 5.3-5 3.7-6.1 3.7-6.1 3.7v-.1l.2-1.2c-.1 0-.4.1-.7.2-1.6.6-5.3 2-8.8 4.4-1.7 1.3-3.2 2.4-4.6 3.3" transform="matrix(1.0244 0 0 -1.0244 580.19 479.567)"/><path d="m-433 455.6c.4-.8 1-1.7 1.5-2.5v.1c-.6.9-1 1.7-1.5 2.4" transform="matrix(1.0244 0 0 -1.0244 580.15 479.634)"/><path d="m-431.4 453.2c.7-1 1.3-2 2-2.9v.2c-.7.9-1.4 1.8-2 2.7" transform="matrix(1.0244 0 0 -1.0244 580.201 479.708)"/><path d="m-429.4 450.4h-.1c2.5-3.3 5.5-6.4 8.8-8.2 11.8-6.3 15.7-11.3 16.6-12.6v.6c-.5.7-1.1 1.4-1.9 2.1v-.2h-.2v.4c-.6.6-1.1 1.1-1.8 1.7v-.3h-.1v.4c-.6.5-1.2 1-1.9 1.6v-.2h-.1v.3c-.6.4-1.2.9-1.8 1.3v-.4h-.2v.5l-1.8 1.2v-.3h-.1v.4c-.6.4-1.2.8-1.8 1.1v-.2h-.1v.3c-.6.4-1.2.7-1.8 1.1v-.2h-.2v.3c-.6.3-1.1.6-1.7.9h-.2v.1c-.6.3-1.2.7-1.8 1v-.1h-.1v.2c-.6.4-1.2.8-1.8 1.3v-.4h-.1l-.1.5-1.8 1.5h-.1v.1c-.6.6-1.3 1.2-1.9 1.9v-.1.3c-.7.7-1.3 1.5-1.9 2.2" transform="matrix(1.0244 0 0 -1.0244 580.263 479.794)"/><path d="m-435.7 461.3c1.7-4.8 7.7-15.5 15.2-19.6 12.5-6.7 16.2-11.9 16.7-12.8h.1l.1.1h-.1.1-.1.1l-.1.8s0 .1-.1.1l.1-.6h-.1v-.1c-.9 1.3-4.8 6.3-16.6 12.6-3.3 1.8-6.4 4.9-8.9 8.2-.7 1-1.4 1.9-2 2.9-.5.8-1 1.7-1.5 2.5.4-.8.9-1.6 1.5-2.4v.3c-.1.1-.1.2-.2.3-.7 1-1.2 2-1.8 2.9v-.1h-.1v.4l-1.1 2.2c-.3.7-.6 1.2-.8 1.6 0 .1 0 .1-.1.2 0 .1-.1.2-.1.3z" transform="matrix(1.0244 0 0 -1.0244 580.068 479.46)"/><path d="m-431.4 453.4v-.2c.6-.9 1.2-1.8 2-2.7v.2c-.7.9-1.4 1.8-2 2.7" transform="matrix(1.0244 0 0 -1.0244 580.201 479.703)"/><path d="m-429.4 450.6v-.2c.6-.8 1.2-1.5 1.9-2.2v.2c-.7.7-1.4 1.4-1.9 2.2" transform="matrix(1.0244 0 0 -1.0244 580.263 479.787)"/><path d="m-427.4 448.3v-.2c.6-.6 1.2-1.2 1.9-1.8v.2c-.7.5-1.4 1.2-1.9 1.8" transform="matrix(1.0244 0 0 -1.0244 580.314 479.859)"/><path d="m-425.5 446.3v-.2l1.8-1.5v.2z" transform="matrix(1.0244 0 0 -1.0244 580.375 479.917)"/><path d="m-423.6 444.8v-.2c.6-.4 1.2-.9 1.8-1.3v.2c-.2.1-.5.3-.7.5-.4.2-.8.5-1.1.8" transform="matrix(1.0244 0 0 -1.0244 580.437 479.965)"/><path d="m-421.7 443.4v-.1c.6-.4 1.2-.7 1.8-1v.1c-.6.3-1.2.6-1.8 1" transform="matrix(1.0244 0 0 -1.0244 580.498 480.006)"/><path d="m-419.9 442.3v-.1s.1 0 .1-.1c.6-.3 1.1-.6 1.7-.9v.2c-.5.3-1.1.6-1.6.9-.1-.1-.1-.1-.2 0" transform="matrix(1.0244 0 0 -1.0244 580.55 480.04)"/><path d="m-418 441.4v-.1c.6-.3 1.2-.7 1.8-1.1v.2c-.6.3-1.2.6-1.8 1" transform="matrix(1.0244 0 0 -1.0244 580.61 480.07)"/><path d="m-416.2 440.3v-.1c.6-.4 1.2-.8 1.8-1.1v.1c-.5.3-1.1.7-1.8 1.1" transform="matrix(1.0244 0 0 -1.0244 580.662 480.104)"/><path d="m-414.3 439.1v-.2l1.8-1.2v.2c-.6.3-1.2.7-1.8 1.2" transform="matrix(1.0244 0 0 -1.0244 580.724 480.14)"/><path d="m-412.4 437.8v-.2c.6-.5 1.2-.9 1.8-1.4v.2c-.6.5-1.2.9-1.8 1.4" transform="matrix(1.0244 0 0 -1.0244 580.775 480.178)"/><path d="m-410.6 436.4v-.2c.7-.5 1.3-1 1.9-1.6v.2c-.6.5-1.2 1.1-1.9 1.6" transform="matrix(1.0244 0 0 -1.0244 580.836 480.222)"/><path d="m-408.6 434.8v-.2c.7-.6 1.3-1.2 1.8-1.7v.2c-.5.5-1.1 1.1-1.8 1.7" transform="matrix(1.0244 0 0 -1.0244 580.898 480.27)"/><path d="m-406.7 433v-.2c.8-.8 1.4-1.5 1.9-2.1v.2c-.6.6-1.2 1.3-1.9 2.1" transform="matrix(1.0244 0 0 -1.0244 580.949 480.325)"/><path d="m-433.8 459.7v-.4l.1-2.4v-.4h.1v.2l-.2 2.3z" transform="matrix(1.0244 0 0 -1.0244 580.13 479.512)"/><path d="m-431.9 457.9.4-4.5v-.4h.1v.2l-.3 4.2v.5z" transform="matrix(1.0244 0 0 -1.0244 580.18 479.564)"/><path d="m-429.9 456.2h-.1l.5-5.5v-.5h.1v.2l-.4 5.5z" transform="matrix(1.0244 0 0 -1.0244 580.242 479.618)"/><path d="m-428 454.6h-.1l.5-6.4v-.5h.2v.4z" transform="matrix(1.0244 0 0 -1.0244 580.304 479.664)"/><path d="m-422.4 451.1h-.1l.7-7.9v-.3h.2v.3l-.6 7.5v.4z" transform="matrix(1.0244 0 0 -1.0244 580.468 479.772)"/><path d="m-426.2 453.3h.1zm.7-7.2-.6 7.1z" fill="#73a5c1" transform="matrix(1.0244 0 0 -1.0244 580.355 479.706)"/><path d="m-426.2 453.3h-.1l.6-7v-.3h.2v.2l-.6 7.1z" transform="matrix(1.0244 0 0 -1.0244 580.355 479.706)"/><path d="m-424.4 452.2.7-7.5v-.2l.1-.5v.6l-.6 7.6z" transform="matrix(1.0244 0 0 -1.0244 580.416 479.739)"/><path d="m-420.6 450.2h.1zm.8-8.1-.7 8.1z" transform="matrix(1.0244 0 0 -1.0244 580.529 479.802)"/><path d="m-420.6 450.2h-.1l.7-8v-.3h.1v.2l-.7 8.1h-.1z" transform="matrix(1.0244 0 0 -1.0244 580.529 479.802)"/><path d="m-418.8 449.5h.1zm.8-8.4-.7 8.4z" transform="matrix(1.0244 0 0 -1.0244 580.58 479.822)"/><path d="m-418.8 449.5h-.1l.7-8.3v-.5h.1v.4z" transform="matrix(1.0244 0 0 -1.0244 580.58 479.822)"/><path d="m-417.1 450.1.9-10v-.3h.2v.3l-.9 10.1h-.2z" transform="matrix(1.0244 0 0 -1.0244 580.631 479.804)"/><path d="m-415.3 449.1.9-10.2v-.6h.1v.5l-.9 10.4z" transform="matrix(1.0244 0 0 -1.0244 580.693 479.833)"/><path d="m-413.4 448 .9-10.4v-.7h.2v.6l-.9 10.4h-.1z" transform="matrix(1.0244 0 0 -1.0244 580.744 479.868)"/><path d="m-411.5 446.6.9-10.4v-.5h.1v.4l-.9 10.5z" transform="matrix(1.0244 0 0 -1.0244 580.806 479.91)"/><path d="m-409.5 444.7h.1zm.9-10.2-.9 10.2z" transform="matrix(1.0244 0 0 -1.0244 580.867 479.968)"/><path d="m-409.5 444.7h-.1l.9-10.1v-.6h.1v.5z" transform="matrix(1.0244 0 0 -1.0244 580.867 479.967)"/><path d="m-407.6 442.7h-.1l.9-9.9v-.6h.2v.4l-.8 9.7v.3h-.2z" transform="matrix(1.0244 0 0 -1.0244 580.928 480.029)"/><path d="m-405.6 439.6.8-8.9v-.8h.2v.5l-.8 8.8v.3h-.2z" transform="matrix(1.0244 0 0 -1.0244 580.98 480.123)"/></svg>