<svg viewBox="0 0 2312 323.7" xmlns="http://www.w3.org/2000/svg"><path d="m1981.1 21.9h67v64.1h-130.9l7-7-.4 48.2-7-7.1 89.5.2h7v67.7h-96.2l7-7-.4 60.8-7-7.1 123.6.2h7v65h-191.8v-278h64.7l-6.3 10.2-10.8-21.9-5-10.2h74.8l2 3.6 12.3 21.9-6.1-3.6z"/><path d="m1981.1 29h59.9v49.9h-123.9l-.4 48.2 89.5.2v53.7h-89.2l-.4 60.8 123.7.2v51h-177.8v-264h57.6l-10.8-21.9h59.3z"/><path d="m79.4 234 92.7.2h7v65.9h-162.3v-278.5h69.7v219.4z"/><path d="m79.4 241 92.7.3v51.8h-148.2v-264.4h55.5z"/><path d="m394.9 86.7h-124.2l7-6.8c-.3 10.7-.4 21.4-.4 32v16.2l-7-7.1 88.9.4h7v67.6h-95.6l7-7-.4 60.2-7-7.1 124.9.4h7v64.6h-192.6v-278.1h192.5v64.6z"/><path d="m394.9 79.6h-124.2c-.6 16-.2 32.4-.4 48.5l88.9.4v53.5h-88.6l-.4 60.2 124.9.4v50.6h-178.5v-264.2h178.4v50.6z"/><path d="m2272.1 56.2c10 16.8 15.1 33.2 15.6 50.2l.2 7.3h-67.6l-.5-6.5c-.8-9.9-6.7-21.4-18-24.8l1.5.3c-2.4-.2-4.7-.7-7-1.6-1.2-.4-2.1-.7-2.8-.8l4.4-1.2a8.31 8.31 0 0 1 -8.6.3c.8.4 2.3.6 3.9.1l-1.4.5-1.5-.1c-18.5-1.3-29.9.5-37.5 13.6l.2-.4c-3.3 6.5-1.1 14 2.2 18.9l-.6-.8c4.4 5 12.3 6.8 19.9 8.6 4.2 1 8.1 1.9 11.7 3.3l-.9-.3c7.9 2.1 15.7 4.3 23.5 6.8l-7.1 1.8-.4.4c2.2-2.7 5.9-3.5 9-1.9l1 .5.8.8.6.6-8.6-1.1c1.9-1.2 5.1-2.1 9.1.3l.2.1c-.2-.1-1.5-.8-3.4-.5l1.3-.2 1.4.3c28.5 6 67.8 18.2 79 55.2 8.6 31.6 4.1 74.5-25.3 99.5-35.6 28.6-80.8 26.4-112.4 19.6-27.1-6-59.6-29.5-66.8-61.4l.1.4c-2-7.2-4.3-16.8-4.4-27.9l-.1-7.1h66.9l.5 6.4c.9 10.7 8 20.7 17 24.1l.2.1.2.1c15.3 6.6 36 6 51.8-1.6l-.3.2c10.2-5.6 9.9-17.4 9.3-22.2-1-6.2-11.3-10.5-17.5-13.2l.7.3c-12.1-3.8-24.9-7-37.4-10.2-11.2-2.8-22.8-5.8-33.6-9l-.5-.2-.5-.2c-1.4-.7-3.2-1.4-5.1-2.1-3.5-1.3-7.4-2.8-10.9-5.1l1 .6c-28.6-12.5-40.2-46.2-38.9-72.1v.5c-.7-34.6 16-64.8 43.6-78.9 15.5-7.7 27.9-10 41.8-11.2l-2.3.6c2.6-1.2 5.9-1.4 7.9-1.2h-1c9.6-.5 23.6-.8 34.9 1.9l-.3-.1c25.7 4.7 47.6 18.8 61.6 39.5l.1.2h.1z"/><path d="m2266 59.8c8.8 14.7 14.1 29.9 14.6 46.8h-53.8c-1.1-13.4-9.4-26.9-23-30.9-3.8-.2-6.3-2.1-9.7-2.3-1.1.7-1.8-.9-3.2-.4-17.4-1.2-34-.4-44.1 17.1-4.4 8.7-2.2 18.8 2.6 26 8.5 9.7 24.5 9.9 34.2 13.8 6.8 1.7 16.1 4.5 23.2 6.7.1-.1.3-.4.5-.2l.6.6c1.2-.7 2.2 1.1 3.5.9 28.5 6 63.8 17.7 73.7 50.3 8.5 31.2 2.6 70.3-23.1 92.1-32.3 26-73.8 25.1-106.4 18-25.9-5.7-55.1-27.8-61.4-56-2.3-8.4-4-16.8-4.1-26.1h53.2c1.1 12.7 9.4 25.5 21.6 30.1 17 7.3 40.1 6.7 57.6-1.7 10.7-5.8 14.4-17.5 12.9-29.2-1.6-10.1-13.7-15.4-21.7-18.8-23.3-7.3-48.6-12.4-71-19.2-4.5-2.2-10.6-3.6-15.2-6.7-25-11-35.9-40.8-34.7-65.3-.6-29.6 12.8-58.7 39.7-72.5 13.8-6.8 24.9-9.3 39.2-10.5 1.4-.5 2.9-.7 4.4-.6 10.4-.5 23-.6 33 1.7 21.3 3.7 42.7 15.1 56.9 36.3z"/><path d="m608.5 80.6v69.8l-7-7h61.8-.4c5.5-.3 10.9-2.6 14.4-6.1l-.4.4c7.8-9.1 6.9-25 4.7-36.8l.1.4c-1.6-6.2-9-11.3-15-12.3l-.8-.1-.7-.3c-.4-.2-1.6-.3-2.3-.4-1-.1-1.9-.3-2.8-.5l1.8.2-60.5-.2zm71.5-58.6c25.8 2.5 48.8 17.7 61.1 40.6 18.2 36.8 14.7 85.6-8.2 116.4-8 10.4-17.8 18.4-28.6 23.5l-4.5 2.1-3.5-3.5-.4-.4 7.9 1.4c-9.5 4.4-19.7 6.7-31.9 7.1h-70.4l7-7-.2 91v7h-69.6v-278.5h7.1l133.5.3z"/><path d="m679.3 29c23.5 2.4 44.3 16.2 55.5 36.9 16.2 32.8 14.6 78.8-7.7 108.8-7 9-15.8 16.6-25.9 21.3l-.4-.4c-9.5 4.4-19.1 6.1-29.2 6.5h-70.2l-.2 91h-55.6v-264.3zm-77.8 51.6v69.8h61.8c6.6-.4 13.9-3 19-8.2 9.6-11.2 8.9-28.8 6.3-42.6-2.3-9.3-12.2-16.2-20.7-17.5-1.8-.7-4.5-.8-5.8-1.2z"/><path d="m851.5 81.3v62.9l-7.1-7h59.5l-1 .1.4-.1c7.7-1.1 14.9-2.1 18.4-7.2 4.8-7.4 5.6-21 1.7-30-2.9-7.3-11.6-10.4-16.5-11.6l1.6.2-64.1-.2zm62.2-58.8h1.4c1.9-.1 4.7-.2 7.8 1.2l-2.8-.6c24.1.3 54.7 15.6 66.4 44.5 12 28.5 15.6 69.5-10.6 98.9-8 8.5-16.7 13.7-25 18.7l2.8-9 52.9 113.7 4.6 10-11 .1-67.9.4h-4.9l-1.8-4.5-38.5-98.9 6.4 4.5c-10.3-.3-20.8-.3-31-.3h-18l7.1-7-.2 99.2v7h-68.8v-278.2h7.1l123.4.2h.4z"/><path d="m912.9 29.5c2.3.2 4.6-.5 7.1.6 22.9.2 49.8 15.2 59.9 40.1 12.5 29.7 13 66.4-9.4 91.5-7.1 7.6-15 12.3-23.4 17.3l52.9 113.7-67.9.4-38.5-98.9c-16.3-.5-32.8-.1-49.2-.3l-.2 99.2h-54.7v-263.8zm-68.4 51.8v62.9h59.5c8.8-1.2 18.3-2.4 23.6-10.2 6.5-10 7.1-26 2.3-36.8-3.5-9-12.9-13.5-21.3-15.6z"/><path d="m1530 75c5.2 11 8.6 24.5 9.5 38.1l.5 7.5h-69l-.5-6.5c-1.1-15.3-15.1-26.1-21.1-30.1l.5.3c-8.4-4.6-18.1-6.7-24.1-5.4l-.8.1h-.8c-14.8-.2-32.2 11.5-40.4 27.2-12.8 26.9-14.6 63.8-4.7 98.3 5.3 18.3 22.6 34.8 38.6 36.8l.4.1.4.1c17.4 4.4 36.9-2.4 47.3-16.6l-.3.4c3.4-5.3 6.8-11.1 8.9-17.3l6.6 9.4-50.6-.3h-7v-64.6h119v149.7h-51.3l-1-5.8-4.6-26.5 12.2 3.5c-9 9.9-18.7 20.1-30.5 26l-.2.1-.2.1c-13.2 5.7-23.7 9.7-38.7 9.7l5-2.1-.6.6-1.9 1.9-2.7.2c-40.9 2.4-83-20.7-102.5-56l.2.2c-28.2-46.7-24.4-104.4-19.7-134.6l.1-.6.2-.5c.6-1.6.9-3.2 1.2-4.9.6-2.6 1.2-5.6 2.7-8.8l-.5 1.5c9.4-41.9 42.6-78.1 80.8-88 36.7-8.1 68.5-5 94.9 9 17.3 8.6 35 27.4 44.7 47.8z"/><path d="m1523.7 78c5.2 11 8 23.8 8.8 35.4h-54.9c-1.1-15-12.1-27.4-24.2-35.4-8.5-4.6-20.2-8-29-6.1-17.7-.2-37.3 12.8-46.8 30.9-15.4 32.2-14.4 71.8-5.2 103.6 5.7 19.6 24.6 39.4 44.5 41.8 19.4 4.9 42.2-2.2 54.7-19.2 3.8-6 7.3-12.1 9.6-18.8l-50.5-.2v-50.6h105v135.6h-38.3l-4.6-26.6c-8.1 8.9-17.6 19-28.4 24.5-12.2 5.2-22.1 9.1-35.9 9.1l-.6.6c-35.7 2-76.5-17.2-95.9-52.4-22.9-37.9-25.5-87.4-18.8-129.9 1.6-4.8 1.6-8.8 3.5-12.8 8.3-37 38-73 75.7-82.7 31.1-6.8 62.2-6.2 89.8 8.4 17.6 9 33.3 27.6 41.5 44.8z"/><path d="m1154.2 81c-7.6-1.5-15.5-.8-24 2.3-32.3 11.9-36 55.2-36 73.3v-.3c1 27.2 3 49.7 18.5 69.9l-.4-.5c14.2 15.4 33.1 20.8 50.5 14.5l.3-.1.3-.1c20-5.7 31.3-27.8 34.9-45 .1-.3.1-.9.2-1.5.2-1.8.5-4 1.4-6.1l-.6 2.4c.2-2.3.5-4.6.8-6.8.5-4.2 1-8.1.7-11.6l-.3-3.3 2.4-2.4.6-.6-2.1 5c0-23.2-1.7-47.4-13.8-67.4-7.3-11.9-19.8-20.3-32.6-21.8h-.3zm102 2.7c12.8 27.9 14.7 60 14.9 84.7v1.9l-.9 1.6-.5.9.9-3.7c1.6 49.6-20.2 109.2-72.6 130.8l-.4.2-.4.1c-2.3.7-4.5 1.5-6.8 2.4-3.2 1.2-6.5 2.4-9.5 3.2l-8.9 2.4v-9.2l8.7 6.6c-43.2 10.6-85.1.6-114.7-27.4-25.1-25.7-38.4-59.5-40.7-103.3l.1.9c-.8-4.5-.8-9.8-.8-15 0-3.6 0-7.4-.3-10.5l-.1-.8.1-.8c.4-2.9.7-7.5 1.1-11.9l.7-8.1c3.7-37.9 25.4-88.3 74.2-105.9 44.1-17.2 94.5-8.6 128.2 22.1 11.9 11.2 21.6 25 27.7 38.8z"/><path d="m1249.8 86.7c11.3 24.7 14 53.9 14.3 81.9l-.5.9c1.6 48.4-20.2 104.3-68.2 124-4.6 1.3-11.1 4.1-16.1 5.5v-.2c-38.1 9.4-78.4 2.6-108.2-25.7-26.4-27.1-36.5-61.3-38.5-98.6-1.2-6.8-.2-17-1-24.9.6-4.9 1.2-13.8 1.8-20.2 3.9-39.5 26.3-84.3 69.6-99.9 40.5-15.8 88.7-8.8 121.1 20.7 10.8 10.4 19.5 22.8 25.7 36.5zm-94.2-12.6c-9.1-1.8-18.3-.9-27.8 2.6-31.8 11.7-40.6 50.1-40.7 79.9 1 26.1 2.6 51.2 20 73.9 15.4 16.7 36.8 24.1 58.1 16.3 21.6-6.1 35.3-28.8 39.8-50.3.4-1.9.4-4.5 1.1-6.1.5-6.5 2-13.3 1.4-19.6l.6-.6c0-24.6-1.9-49.8-14.9-71-8.5-14.1-22.9-23.4-37.6-25.1z"/><path d="m1662.8 81.3v62.9l-7-7h59.5l-1 .1h.4c7.7-1.1 14.9-2.1 18.4-7.2 4.8-7.5 5.6-21 1.6-30-2.8-7.3-11.6-10.3-16.5-11.6l1.6.2-64.1-.2zm62.2-58.8h1.4c1.9-.1 4.7-.2 7.8 1.2l-2.8-.6c24.1.3 54.6 15.6 66.4 44.5 12 28.5 15.6 69.5-10.7 98.8-8 8.5-16.6 13.7-25.1 18.7l2.8-9 52.9 113.7 4.6 10-11 .1-67.9.4h-4.8l-1.8-4.5-38.5-98.9 6.4 4.5c-10.3-.3-20.8-.3-31.1-.2h-18l7.1-7-.3 99.2v7h-68.8v-278.2h7l123.4.2h.4z"/><path d="m1724.3 29.6c2.3.2 4.6-.5 7.1.6 22.9.2 49.8 15.2 59.9 40.1 12.5 29.7 13 66.4-9.4 91.5-7.1 7.5-15 12.3-23.4 17.3l52.9 113.7-67.8.4-38.6-99.2h-49.3v99.1h-54.8v-263.8zm-68.5 51.7v62.9h59.5c8.8-1.2 18.3-2.4 23.6-10.2 6.5-10 7.1-26 2.3-36.8-3.5-9-12.9-13.5-21.3-15.6z"/></svg>