<svg viewBox="0 0 192 60" xmlns="http://www.w3.org/2000/svg"><path clip-rule="evenodd" d="m0 0h192v60h-192z" fill="#fff" fill-rule="evenodd"/><path clip-rule="evenodd" d="m0 56h192v4h-192z" fill-rule="evenodd"/><path d="m35 52h-14v-33h6v29h8z"/><path d="m48.3 33.2c0 6.5-6.1 9.4-8.7 9.6.3 3.8 2 5.3 3.8 5.3.7 0 1.2 0 1.7-.1v3.9c-.5.1-1.3.2-2.1.2-3.9 0-9.1-2.2-9.1-13.3 0-11.5 4.8-13.2 7.9-13.2 2.8.1 6.5 2.1 6.5 7.6zm-5.1-.3c0-2.4-.6-3.3-1.5-3.3-1.3 0-2.4 1.5-2.4 7.9 0 .5 0 .9.1 1.3 1.5-.2 3.8-2.4 3.8-5.9z"/><path d="m73.8 20.7c0 12-9.8 16.2-12.8 16.8v14.5h-7v-45h5.9c7.2 0 13.9 3.5 13.9 13.7zm-7.1 0c0-6.8-2.7-8.6-5.7-8.6v19.7c2-.2 5.7-3 5.7-11.1z"/><path d="m88 52h-6v-2l-1.8 2c-.4.1-.6.1-.8.1-4 0-7.6-4.1-7.6-9.8 0-9.3 7.8-12.6 10.3-13v-.6c0-1.7-1-2.5-2.7-2.5-1.6 0-2.6.2-4 .5l.1-4.6s1.5-.5 4.3-.5c4.8 0 8.3 2.1 8.3 8.7v21.7zm-6-6.3v-11.6c-1 .1-4.1 2.7-4.1 8.3 0 3.6 1.2 5 2.3 5 .9 0 1.8-1 1.8-1.7z"/><path d="m102 27c-3.1 0-5 2.5-5 6v19h-6v-29.7l5-.3v2.4c1-.8 2.5-2.3 5.5-2.3h.5z"/><path d="m104 19v-6h6v6zm6 33v-30h-6v30z"/><path d="m126.9 43.4c0 5.2-4.5 8.7-9.8 8.7-2.3 0-4.2-.3-5.8-1l2.5-4.5c.9.4 1.7.5 2.7.5 2 0 3.6-1.3 3.6-3.1 0-2.1-.8-3.6-3.1-6.3-4-3.8-5-5.6-5-8.7 0-4.2 3.8-7.5 8.6-7.5 2.2 0 3.7.4 5 .9l-2.3 4.2c-.6-.3-1.3-.4-2.4-.4-1.4 0-2.6 1-2.6 2.3 0 1.2.5 2.3 3.1 4.7 3.7 3.5 5.5 6 5.5 10.2z"/><path d="m128 19v-6h6v6zm6 33v-30h-6v30z"/><path d="m152.5 30.3c0 7.5-7.1 10.8-10.1 11.1.3 4.4 1.9 6.1 4 6.1.8 0 1.5 0 1.5-.1v4.5c0 .1-1.1.2-2.1.2-4.5 0-10.3-2.5-10.3-15.3 0-13.3 5.6-15.2 9.2-15.2 3.5.1 7.8 2.4 7.8 8.7zm-5.9-.4c0-2.7-.6-3.8-1.8-3.8-1.5 0-2.7 1.7-2.7 9.1 0 .6 0 1 .1 1.4 1.8 0 4.4-2.6 4.4-6.7z"/><path d="m171 52h-6v-21.5c0-2.1-1-3.9-2.5-3.9s-2.5 1.8-2.5 3.9v21.5h-6v-30h5v1.5l2.2-1.8c.3-.1.5-.1 1.1-.1 5.4 0 8.8 3.3 8.8 10.4v20z"/></svg>