<svg viewBox="0 0 141.7 33.2" xmlns="http://www.w3.org/2000/svg"><path d="m8.8 5.9v16.6c0 1.6.5 2.3 2.5 2.3h2.4c2.7 0 4-1.1 5-3.1l.9-1.9 1.4.4-1.1 6.3h-19.6v-1.4c3.4-.7 3.6-.8 3.6-2.2v-17c0-1.4-.2-1.5-3.6-2.2v-1.3h12.2v1.4c-3.5.6-3.7.7-3.7 2.1m27.3 7.4c0 2.2-1.3 4.8-9.7 5.2.2 3.4 2 5.7 4.9 5.7 1.6 0 3.1-.7 4.5-1.9l.8.9c-1.5 2.3-4 3.8-7 3.8-4.7 0-8.1-3.4-8.1-8.7 0-5.1 4.2-9.2 9-9.2 4 0 5.6 2.5 5.6 4.2m-5.8-2.7c-2.7 0-3.8 2.8-3.9 6.5 5.8-.9 6-3.1 6-4.4 0-1.5-1.2-2.1-2.1-2.1m13.1 16.4c-4.2 0-5.8-1.7-5.8-3.5 0-1.4 1.3-2.6 3.1-2.2l.5.6c-1.1 1.9-.3 3.6 2.5 3.6 1.8 0 3-.9 3-2.4 0-1.7-1.4-2.4-3.6-3.3-3.1-1.2-4.9-2.7-4.9-5.5s2.5-5.2 6.2-5.2c4 0 5.8 1.9 5.8 3.5 0 1.3-1.2 2.6-3.2 2.2l-.4-.6c1.2-1.7.6-3.6-2.1-3.6-1.6 0-2.7 1-2.7 2.4 0 1.6 1.7 2.4 3.7 3.1 3.1 1.1 5.6 2.5 5.6 5.6-.2 3.1-2.4 5.3-7.7 5.3m11.2-24.6h19.5l.2 6.4h-1.3l-.7-2c-.7-2-2.1-2.6-4.1-2.6h-5.1v9h5c1.1 0 1.1-.2 1.9-3.3h1.4v8.8h-1.4c-.7-3-.8-3.5-1.9-3.5h-5v7.4c0 1.6.5 2.3 2.5 2.3h2.4c2.7 0 4-1.1 5-3.1l.9-1.9 1.4.4-1.1 6.3h-19.6v-1.4c3.4-.7 3.6-.8 3.6-2.2v-17.1c0-1.4-.2-1.5-3.6-2.2zm35.6 19.8.8.9c-1.5 2.3-4 3.8-7 3.8-4.7 0-8.1-3.4-8.1-8.7 0-5.1 3.8-9.2 8.8-9.2 3.9 0 5.7 2.1 5.7 3.8 0 1.4-.9 2.8-3.4 2.4l-.4-.6c.7-1.6.9-4.1-1.8-4.1-2.8 0-3.9 3.2-3.9 7.1s1.8 6.5 5 6.5c1.5.1 3-.6 4.3-1.9m12.8 2.4v-9.4c0-2-.7-2.8-2.2-2.8-2.2 0-4 3.4-4 8.6v5.6h-4.6v-22.7c0-1.3-.1-1.4-2.3-2.2v-1.3h7.1c-.2 1.5-.2 12.8-.2 13.6h.1c1.2-2.9 3.3-4.8 6.2-4.8 2.6 0 4.5 1.8 4.5 5.3v8.5c0 1.6.3 1.8 2.7 2.3v1.4c-2.1.2-3.7.4-4.7.4-1.7-.1-2.6-.8-2.6-2.5m15.6.9c3.1 0 3.9-3.6 3.9-7.2 0-4-.6-7.7-3.9-7.7-3.1 0-3.9 3.6-3.9 7.2-.1 4 .6 7.7 3.9 7.7m-.4 1.5c-5 0-8.4-3.3-8.4-8.4 0-5.7 3.6-9.5 9.2-9.5 5 0 8.4 3.3 8.4 8.4-.1 5.7-3.6 9.5-9.2 9.5m15.8 0c-4.2 0-5.8-1.7-5.8-3.5 0-1.4 1.3-2.6 3.1-2.2l.5.6c-1.1 1.9-.3 3.6 2.5 3.6 1.8 0 3-.9 3-2.4 0-1.7-1.4-2.4-3.6-3.3-3.1-1.2-4.9-2.7-4.9-5.5s2.5-5.2 6.2-5.2c4 0 5.8 1.9 5.8 3.5 0 1.3-1.2 2.6-3.2 2.2l-.4-.6c1.2-1.7.6-3.6-2.1-3.6-1.6 0-2.7 1-2.7 2.4 0 1.6 1.7 2.4 3.7 3.1 3.1 1.1 5.6 2.5 5.6 5.6-.2 3.1-2.4 5.3-7.7 5.3m-133.8 4h141.3v1.8h-141.3z"/></svg>