<svg viewBox="0 0 213 128" xmlns="http://www.w3.org/2000/svg"><path d="m212.6 127.6h-212.5v-127.6h212.5zm-210.4-2.1h208.4v-123.4h-208.4z"/><path d="m49 109.2v-35.1l-8.9 30.2-8.7-30.2v35.1h-12.7v-90.7h10.2l11.3 37.1h.1l12.4-37.1h8.9v90.7z"/><path d="m87 104.3h-9.5l-1.3 4.9h-12.1l12.2-67h11.8l12.4 67h-12.4zm-2-13-2.9-21.1-2.8 21.1z"/><path d="m104.4 109.2v-54.9h-8.7v-12.1h29.2v12.1h-8.5v54.9zm77.7 0v-54.9h-10.3v54.9h-12.1v-90.7h12.1v23.7h10.3v-23.7h12v90.7zm-55.4-54.5c.8-6.9 6.3-13.2 15.2-13.2 9 0 14.8 7.5 14.8 13.7v10.4h-12.2v-7.6c0-3.5-1.4-4.1-2.8-4.1-1.5 0-2.8.6-2.8 4.1v35.2c0 3.5 1.1 4.1 2.8 4.1s2.8-.7 2.8-4.1v-6h12.2v9c-.4 6.4-5.8 13.4-14.8 13.4s-14.5-6.4-15.2-13.3z"/><path d="m74.3 32.3c-.7 0-1.5-.1-2.2-.1v6.7h-3.8v-20.3c2-.2 3.9-.3 5.7-.3 6.2 0 9.3 3.1 9.3 6.9-.1 4.2-3.3 7.1-9 7.1m.2-10.8c-.9 0-1.7.1-2.5.2v7.5c.8.1 1.5.1 2.1.1 3.5 0 5.1-1.6 5.1-4 0-2-1.5-3.8-4.7-3.8m26.6 17.4-2.2-4.7h-8.9l-2.2 4.7h-4l10.4-20.8h.6l10.3 20.8zm-6.7-14.3-3.2 6.9h6.4zm26.8 14.3-4.9-7.4h-3.5v7.4h-3.8v-20.3c1.8-.2 3.7-.3 5.9-.3 6.4 0 9.2 2.8 9.2 6.5 0 2.7-1.6 4.8-4.4 5.9l5.9 8.2zm-5.8-17.5c-.9 0-1.8 0-2.6.2v7c.7.1 1.5.1 2.2.1 3.3 0 5-1.4 5-3.8.1-2.1-1.6-3.5-4.6-3.5m14.7-3h3.8v20.5h-3.8zm15.8 20.8c-2.5 0-5.1-.8-7.1-2l1.3-3.1c1.8 1.2 3.9 1.9 5.9 1.9 2.4 0 3.4-1.3 3.4-2.7s-.7-2.3-4.2-3.7c-3.9-1.5-5.3-3.4-5.3-5.8 0-3 2.7-5.7 7.4-5.7 2.2 0 4.3.7 5.6 1.5l-1.2 3.1c-1.2-.8-3-1.4-4.5-1.4-2.4 0-3.5 1.2-3.5 2.5 0 1.4 1.1 2.2 3.9 3.3 4.4 1.8 5.7 3.4 5.7 6.1 0 3.2-2.8 6-7.4 6"/><path d="m72.4 39.3h-4.6v-21h.3c2-.2 3.9-.3 5.7-.3 5.9 0 9.7 2.9 9.7 7.3 0 4.6-3.7 7.5-9.3 7.5l-1.5-.1h-.3zm-3.8-.8h3.1v-6.7h2.6c5.3 0 8.6-2.6 8.6-6.8 0-4-3.5-6.5-8.9-6.5-1.7 0-3.4.1-5.3.3zm5.6-8.9c-.6 0-1.3 0-2-.1h-.6v-8.2h.3c.8-.1 1.7-.2 2.6-.2 3.5 0 5.1 2.1 5.1 4.2 0 2.7-2 4.3-5.4 4.3m-1.8-.8c.6 0 1.2.1 1.7.1 3 0 4.7-1.3 4.7-3.6 0-1.6-1.1-3.4-4.3-3.4-.7 0-1.4 0-2.1.1zm33.3 10.5h-4.9l-2.2-4.7h-8.4l-2.2 4.7h-4.8l10.8-21.5h1zm-4.4-.8h3.2l-9.9-20h-.1l-10 20h3.1l2.2-4.7h9.4zm-3.1-6.7h-7.6l3.8-8.1zm-6.3-.7h5.1l-2.6-5.5zm34.5 8.2h-5.4l-4.9-7.3h-2.8v7.4h-4.6v-21h.3c2.1-.2 4-.3 6-.3 6 0 9.6 2.6 9.6 6.8 0 2.7-1.5 4.9-4.2 6.1zm-5-.8h3.5l-5.7-8 .5-.2c2.6-1.1 4.1-3.1 4.1-5.6 0-3.9-3.2-6.1-8.8-6.1-1.9 0-3.6.1-5.5.3v19.6h3.1v-7.4h.4c.8 0 1.5.1 2.2.1h1.4zm-6.3-9.4c-.9 0-1.6 0-2.2-.1h-.3v-7.7h.3c.8-.2 1.8-.2 2.6-.2 3.1 0 5.1 1.5 5.1 3.9-.1 2.6-2.1 4.1-5.5 4.1m-1.9-.9c.5 0 1.2.1 1.8.1 2.1 0 4.6-.6 4.6-3.4 0-1.9-1.6-3.1-4.3-3.1-.7 0-1.5 0-2.2.1v6.3zm21.1 11.1h-4.6v-21.3h4.6zm-3.8-.8h3.1v-19.7h-3.1zm15.4 1.1c-2.4 0-5.1-.8-7.2-2.1l-.3-.2 1.6-3.9.4.3c1.8 1.2 3.8 1.8 5.6 1.8 1.9 0 3-.9 3-2.3 0-1.1-.3-1.9-4-3.3-3.9-1.5-5.6-3.4-5.6-6.2 0-3 2.7-6.1 7.8-6.1 2.5 0 4.6.8 5.9 1.5l.3.2-1.5 3.8-.4-.2c-1-.6-2.8-1.4-4.3-1.4-1.9 0-3.1.8-3.1 2.1 0 1.1.9 1.8 3.7 3 4.4 1.8 6 3.4 6 6.5-.1 3.3-2.8 6.5-7.9 6.5m-6.6-2.5c2 1.2 4.4 1.8 6.6 1.8 4.6 0 7-2.9 7-5.7 0-2.3-.9-3.9-5.5-5.7-2.7-1.1-4.1-2-4.1-3.7 0-1.3 1-2.9 3.9-2.9 1.5 0 3.2.6 4.3 1.3l.9-2.3c-1.4-.8-3.4-1.3-5.2-1.3-4.6 0-7 2.7-7 5.3 0 2.5 1.5 4.1 5.1 5.5 3.4 1.3 4.5 2.3 4.5 4 0 1.4-1 3.1-3.8 3.1-1.8 0-3.9-.6-5.7-1.7z"/></svg>