<svg viewBox="0 0 601.2 626.71" xmlns="http://www.w3.org/2000/svg"><path d="m574.04 456.66-43.08-44.51v-108.34l43.08-43.93 20.08 19.86v156.49zm-43.08-264.79v-108.34l43.08-44.54 20.08 20.46v156.49l-20.08 19.85zm-137.54-120.39-43.67-44.52 20.06-19.87h172.96l19.46 19.87-43.08 44.52zm-11.79 120.39-43.68 43.92-19.48-19.85v-156.49l19.48-20.46 43.68 44.54zm-53.11 358.24 3.82 1.75 1.77 3.85-1.77 12.15 1.77 9.9-1.77 1.12 2.89 20.47 1.11 1.27 1.59-1.27 12.27 6.69 1.43 1.62-1.43 6.71-10.99 2.71-12.29-2.71h-3.81l-6.71-3.99-17.69 6.7-11-3.99-2.71-2.71-1.59 1.28-2.39-3.97 1.28-20.48-1.28-8.31 1.28-11.02-1.12-6.4-1.91-2.54-5.09.95h-2.72l-1.91-2.57-1.43-.3-1.6-1.59-1.27-2.57 4.14-3.19 8.93-.65 12.11 2.87 1.12 3.85-2.71 16.47 1.59 1.27-1.59 8.33 2.71 17.57v1.27l8.28 2.73 8.29-1.29 8.28-9.42v-4.32l4.96-6.55 2.87-17.92 1.59-1.41v-2.42l-4.46-2.71h-12.13l-1.11-4.46 8.28-3.85 7.83 2.88zm-104.49-358.24v-108.34l43.07-44.54 20.08 20.47v156.49l-20.08 19.85zm-137.41-120.17-43.85-44.37 19.97-19.94 173.09-.31 19.48 19.87-43.08 44.52zm-11.93 340.44-43.67 44.52-19.47-20.46v-156.47l19.47-19.86 43.67 43.93zm-50.07 191.36 1.28-23.36 1.11-1.1-2.4-4.34 1.28-9.42v-2.72l-2.7-2.71h-5.59l-5.43-3.99v-2.89l5.43-4.31 12.12 4.31 2.7 2.89h4.47l3.83-5.61 6.69-1.59 5.59 4.31 4.3 4.01 6.7-1.12 3.83-4.31h7.02l1.28-1.3 8.28 4 2.7 11.01-2.7 18.87 2.7 20.48v1.59l3.98 1.12h4.3v7.03l-30.3 1.27-1.11-1.27-13.71 1.27h-5.57l-2.39-3.98 7.98-5.43 2.7-2.73-1.28-8.32 1.28-1.12-1.28-9.9 1.28-1.29-1.28-11.02 3.98-3.84-3.98-5.45-9.4-1.27-7.02 6.73-2.87 8.33-.96 1.1 2.7 24.29v2.9l3.83 2.71 1.59 1.59v5.44l-12.58 2.71-19.91-2.71 2.23-7.03 12.6-1.12zm33.96-6.73 2.7 7.85-1.27 1.59h5.09l4.3 1.12 6.71-2.71-1.28-7.85 2.87-4.31-1.57-10.69 2.7-2.72v-11.05l-6.7-6.71-4.31-1.44-5.42 8.15-3.83 12.14 2.7 4zm65.05 5.13 1.12 1.6h5.57l2.7-2.72-1.11-4.5-1.6-.94h1.6l2.7-13.91-1.59-10.53 1.59-11.04-2.7-2.72-4.47 3.84-5.43-2.39-1.12-1.45-2.7 1.45h-5.57l-1.28-11.04 23.28 2.9 1.11-1.59h3.99l4.3 5.59 1.28 25.88-2.88 5.44 1.59 10.54v4.5l2.7 2.72 14.99-1.6h5.59l2.7 2.72 1.12 7.03-2.7 3.99-5.59 1.27-9.41-1.27-1.11 1.27h-2.87l-1.44-1.27-1.28 1.27-4.3-1.27-13.23 2.89-7.17-1.62-1.11-1.27-1.27 1.27-7.02-1.27h-3.99l-4.3-5.46 1.6-5.58zm20.41-74.65 1.28 6.55-2.88 4.47-4.94 2.72-10.04-2.72-.96-7.17 2.7-3.85 6.54-3.98zm-101.21-279.42 31.87-31.89h149.34l31.28 31.89-31.28 31.9h-149.35zm193 240.74h-172.94l-20.06-19.84 43.67-44.57h125.73l43.08 44.57zm-44.92 117.64 7.81-1.59 2.7-2.9 1.59-11.98-1.59-20.61v-3.84l-10.53-6.7-2.7-4.31v-4.01l3.83-2.72 9.4 2.72 5.59-3.84 5.42 5.13h1.11l4.46 4.31 16.11-8.33 11 1.12 9.25 9.92 1.75 16.12-1.75 31.52 8.93 5.25-4.47 4.16-8.29-1.27-11.01 1.27h-5.42l-2.87-2.72v-3.99l13.87-2.72h1.43l1.28-1.59-1.28-7.85v-5.58l1.28-1.43-2.71-24.46-9.57-5.44-8.29 4.16-11 15.03-3.83 9.42 1.11 9.59-1.11 3.66v1.77l3.83 3.85 9.88-.97-2.7 6.56v1.44l-2.71 2.72-4.47-1.44-3.83 1.44-1.12-1.44-5.58 1.44-7.01-1.44-9.58 1.44-2.7-2.72h-1.12l1.12-4.32 4.49-3.83zm36.35 0-1.11.15.17-.15zm191.34-29.58h1.89v2.42h-1.89zm-36.84-26.37 2.72-24.45h8.28l3.84 6.88-2.4 2.71 1.28 11.01-1.28 1.13v1.12l5.1 2.89 12.76-1.3 7.8 1.3 1.43 4.31-2.7 3.99h-6.55l-1.76-1.29-13.7 2.71v2.73l-3.84 3.98 2.72 14.86 1.12 1.29-3.84 4.33 6.56 3.98-2.72 2.71v4.32l4.46 2.26h.95l2.88-6.57h1.6l1.12 1.59 11.01-11.01h2.7l2.72 5.45-1.43 3.97v4.32l-5.58 6.73v2.71h-1.12l-2.87 5.44-6.56 2.72v1.28l-1.59 1.27-9.4-1.27h-3.98l-7.02-8.3-2.72-6.55 1.42-4.01-1.42-7.03 2.72-31.16-7.82-1.44-11 1.44-4.3-2.71v-5.61l5.42-4.31 14.99 1.58zm73.2 11.03 6.68-4.16 4.3-3.98 3.98-1.59 21.53 1.59 11.17 12.14 4.13 8.31v5.43l-1.43 1.11 1.43 1.3-1.43 4.32-6.69-1.6-7.17 2.88-3.83-2.88-6.69 1.6-2.72 2.73v-1.45l-8.28-1.27-10.99 1.27-1.27 1.45 2.87 9.59 8.14 6.56 10.68 4.31 5.44-1.59 1.59 1.59 13.39-12.16h4.31l1.27 4.01-2.7 5.44-9.58 8.15-14.83 3.99-4.47-2.72h-7.8l-9.72-9.42v-2.71l-5.11-5.44-2.7-15.04-1.76-1.59 4.46-12.31zm23.25 4 3.83 3.84v1.77l-3.83 6.53 9.4-1.1v-11.04l-3.97-3.99h-4.3l-7.8-1.44-1.59 1.44 1.59 1.27-1.59 1.13v4.49l1.59.95h1.12zm-10.98 13.75 4.31-2.71v-2.72h-7.03zm-148.78-142.82v-156.49l19.49-19.86 43.67 43.93v108.35l-43.67 44.51zm200.71-12.06 43.08 44.57-19.46 19.84h-172.97l-20.06-19.84 43.69-44.57zm13.44 164.31h2.7l5.6 6.7 5.59 2.89h.95v1.42l-.95 1.29 3.81 2.72 5.44-1.77 1.27 1.77v1.14l-1.27 1.59 1.27 1.12 5.43-2.71 1.59 1.59h3.98l1.12-1.59 5.42-2.91v-3.66l4.46-4-2.71-4.31-4.46-3.98-7.8-2.9-9.88 1.31-7.67-2.4-11.17-5.45-2.69-5.43 1.27-12.31 5.42-5.61 7.17-2.72h17.55l9.4 5.61 5.58-4.31 1.12-1.3 3.98 4 1.44 4.31-2.7 5.45 1.27 6.88v.94h-2.4l-7.17-9.29-8.14-6.69-16.1-1.59-5.6 4.31-3.82 3.98-1.59 5.45 2.72 5.59 10.97 2.7 10.99 1.1 13.23 2.71 5.58 2.73 6.7 9.59-1.12 7.03v4l-12.11 10.88-14.99 3.97-13.87-3.97-12.11 1.28h-2.72l-2.72-2.72 1.3-23.18z"/></svg>