<svg width="56" height="40" viewBox="0 0 56 40" fill="none" xmlns="http://www.w3.org/2000/svg">
<g clip-path="url(#clip0_13844_26378)">
<path d="M36.8302 7.22548C36.8302 7.60881 36.8004 7.98515 36.7429 8.35234C36.772 8.35188 36.8011 8.35165 36.8303 8.35165C39.7798 8.35165 42.1709 10.7427 42.1709 13.6922C42.1709 14.5328 41.9767 15.328 41.6307 16.0355C42.5509 17.4357 43.0862 19.1114 43.0862 20.9122C43.0862 25.8228 39.1054 29.8036 34.1948 29.8036C33.2516 29.8036 32.3427 29.6568 31.4897 29.3847V39.274H24.7427V29.402C23.8757 29.6632 22.9563 29.8036 22.0041 29.8036C16.7697 29.8036 12.5264 25.5603 12.5264 20.3259C12.5264 17.4194 13.8346 14.8186 15.8943 13.08C15.3733 12.2555 15.0718 11.2785 15.0718 10.231C15.0718 7.28145 17.4628 4.89039 20.4123 4.89039C21.1999 4.89039 21.9476 5.06084 22.6206 5.36686C23.4407 2.277 26.2568 0 29.6048 0C33.5953 0 36.8302 3.23496 36.8302 7.22548Z" fill="url(#paint0_radial_13844_26378)"/>
</g>
<defs>
<radialGradient id="paint0_radial_13844_26378" cx="0" cy="0" r="1" gradientUnits="userSpaceOnUse" gradientTransform="translate(27.8064 39.274) rotate(-90) scale(34.8052 27.0826)">
<stop stop-color="#D7DADB"/>
<stop offset="1" stop-color="#798384"/>
</radialGradient>
<clipPath id="clip0_13844_26378">
<rect width="56" height="40" fill="white"/>
</clipPath>
</defs>
</svg>
