<svg width="56" height="40" viewBox="0 0 56 40" fill="none" xmlns="http://www.w3.org/2000/svg">
<g clip-path="url(#clip0_13844_26384)">
<path d="M10.5515 12.9253C11.414 14.7923 14.4636 15.6838 17.2139 16.0551C17.1867 16.1602 17.161 16.266 17.1368 16.3724C14.9383 15.8733 12.2471 15.4651 11.224 16.0025C9.81875 16.7406 8.40127 18.6028 7.86816 19.4416C10.0789 19.8889 14.6848 20.6494 15.4229 20.1126C15.728 19.8907 16.2729 19.5879 16.8764 19.278C16.9931 21.9717 18.0867 24.4119 19.812 26.2533C20.6678 27.1667 21.0609 28.4528 21.0609 29.7045C21.0609 33.4112 24.0658 36.4162 27.7725 36.4162C31.4793 36.4162 34.4842 33.4112 34.4842 29.7045C34.4842 28.4528 34.8773 27.1667 35.7331 26.2533C37.4583 24.4119 38.5519 21.9717 38.6686 19.278C39.2721 19.5879 39.817 19.8907 40.1221 20.1126C40.8603 20.6494 45.4662 19.8889 47.6769 19.4416C47.1438 18.6028 45.7263 16.7406 44.321 16.0025C43.2979 15.4651 40.6067 15.8733 38.4082 16.3724C38.3841 16.266 38.3584 16.1602 38.3311 16.0551C41.0814 15.6838 44.131 14.7923 44.9935 12.9253C46.259 10.1862 44.8204 5.07236 43.943 2.85785C44.1792 4.97112 44.2874 9.37989 42.8294 10.1089C41.7681 10.6395 38.389 10.9878 35.5745 11.177C33.5941 9.14993 30.8302 7.89159 27.7725 7.89159C24.7148 7.89159 21.9509 9.14993 19.9706 11.177C17.156 10.9878 13.7769 10.6395 12.7156 10.1089C11.2577 9.37989 11.3658 4.97112 11.6021 2.85785C10.7246 5.07236 9.28606 10.1862 10.5515 12.9253Z" fill="url(#paint0_radial_13844_26384)"/>
</g>
<defs>
<radialGradient id="paint0_radial_13844_26384" cx="0" cy="0" r="1" gradientUnits="userSpaceOnUse" gradientTransform="translate(27.7726 36.4161) rotate(-90) scale(29.7398 35.279)">
<stop stop-color="#D7DADB"/>
<stop offset="1" stop-color="#798384"/>
</radialGradient>
<clipPath id="clip0_13844_26384">
<rect width="56" height="40" fill="white"/>
</clipPath>
</defs>
</svg>
