<svg width="56" height="40" viewBox="0 0 56 40" fill="none" xmlns="http://www.w3.org/2000/svg">
<g clip-path="url(#clip0_13844_26387)">
<path fill-rule="evenodd" clip-rule="evenodd" d="M28.1426 2.92631L27.1918 0L26.241 2.92631L23.1641 2.92631L25.6533 4.73487L24.7025 7.66119L27.1918 5.85263L29.6811 7.66119L28.7302 4.73487L31.2195 2.92631L28.1426 2.92631ZM28.1426 35.2544L27.1918 32.3281L26.241 35.2544H23.1641L25.6533 37.063L24.7025 39.9893L27.1918 38.1808L29.6811 39.9893L28.7302 37.063L31.2195 35.2544H28.1426ZM43.3559 16.1641L44.3067 19.0904H47.3836L44.8943 20.8989L45.8451 23.8252L43.3559 22.0167L41.0206 23.7134L41.8819 26.3642H44.9588L42.4695 28.1727L43.4203 31.0991L40.931 29.2905L38.4418 31.0991L39.3926 28.1727L36.9033 26.3642H39.9802L40.931 23.4379L40.9617 23.5324L41.8174 20.8989L39.3281 19.0904H42.405L43.2663 16.4396L40.931 14.7429L38.4418 16.5514L39.3926 13.6251L36.9033 11.8166H39.9802L40.931 8.89026L41.8819 11.8166H44.9588L42.4695 13.6251L43.3251 16.2586L43.3559 16.1641ZM11.9785 19.0904L11.1172 16.4396L13.4525 14.7429L15.9418 16.5514L14.991 13.6251L17.4803 11.8166H14.4033L13.4525 8.89026L12.5017 11.8166H9.4248L11.9141 13.6251L11.0584 16.2586L11.0277 16.1641L10.0769 19.0904H7L9.48927 20.8989L8.53845 23.8252L11.0277 22.0167L13.363 23.7134L12.5017 26.3642H9.4248L11.9141 28.1727L10.9633 31.0991L13.4525 29.2905L15.9418 31.0991L14.991 28.1727L17.4803 26.3642H14.4033L13.4525 23.4379L13.4218 23.5324L12.5662 20.8989L15.0554 19.0904H11.9785ZM19.4926 2.42465L20.4434 5.35097L23.5203 5.35097L21.031 7.15953L21.9818 10.0858L19.4926 8.27728L17.0033 10.0858L17.9541 7.15953L15.4648 5.35097L18.5418 5.35097L19.4926 2.42465ZM35.416 5.35097L34.4652 2.42465L33.5144 5.35097L30.4375 5.35097L32.9268 7.15953L31.976 10.0858L34.4652 8.27728L36.9545 10.0858L36.0037 7.15953L38.4929 5.35097L35.416 5.35097ZM19.4926 29.9035L20.4434 32.8298H23.5203L21.031 34.6383L21.9818 37.5647L19.4926 35.7561L17.0033 37.5647L17.9541 34.6383L15.4648 32.8298H18.5418L19.4926 29.9035ZM35.416 32.8298L34.4652 29.9035L33.5144 32.8298H30.4375L32.9268 34.6383L31.976 37.5647L34.4652 35.7561L36.9545 37.5647L36.0037 34.6383L38.4929 32.8298H35.416Z" fill="url(#paint0_radial_13844_26387)"/>
</g>
<defs>
<radialGradient id="paint0_radial_13844_26387" cx="0" cy="0" r="1" gradientUnits="userSpaceOnUse" gradientTransform="translate(27.1919 39.9893) rotate(-90) scale(35.4391 35.7885)">
<stop stop-color="#D7DADB"/>
<stop offset="1" stop-color="#798384"/>
</radialGradient>
<clipPath id="clip0_13844_26387">
<rect width="56" height="40" fill="white"/>
</clipPath>
</defs>
</svg>
