<svg width="56" height="40" viewBox="0 0 56 40" fill="none" xmlns="http://www.w3.org/2000/svg">
<g clip-path="url(#clip0_13841_26375)">
<path d="M40.3063 12.2186C40.3063 15.0434 39.3477 17.6443 37.7381 19.7138L37.7654 19.7029C37.7654 19.7029 37.7061 19.7684 37.5997 19.8884C37.4083 20.1255 37.2082 20.3553 36.9999 20.5773C35.8693 21.897 33.7854 24.4448 32.8393 26.3424C32.4245 27.1743 32.1172 28.3678 31.9294 29.2418H32.1605L32.8043 30.3032L32.1605 31.318L32.8043 32.3794L32.1793 33.3645L32.8043 34.395L32.1605 35.4098L32.8043 36.4712L32.1605 37.486L31.3252 37.486C31.3252 37.486 29.5527 39.274 28.119 39.274C26.6854 39.274 24.9128 37.486 24.9128 37.486L24.0147 37.486L23.433 36.4712L24.0147 35.4098L23.433 34.395L23.9978 33.3645L23.433 32.3794L24.0147 31.318L23.433 30.3032L24.0147 29.2418H24.3487C24.1277 28.3902 23.8003 27.2258 23.4557 26.3424C22.8658 24.8301 21.4276 22.9658 20.2566 21.598C17.575 19.3567 15.8691 15.9868 15.8691 12.2186C15.8691 5.47044 21.3396 0 28.0877 0C34.8358 0 40.3063 5.47044 40.3063 12.2186Z" fill="url(#paint0_radial_13841_26375)"/>
</g>
<defs>
<radialGradient id="paint0_radial_13841_26375" cx="0" cy="0" r="1" gradientUnits="userSpaceOnUse" gradientTransform="translate(28.0878 39.274) rotate(-90) scale(34.8052 21.6565)">
<stop stop-color="#D7DADB"/>
<stop offset="1" stop-color="#798384"/>
</radialGradient>
<clipPath id="clip0_13841_26375">
<rect width="56" height="40" fill="white"/>
</clipPath>
</defs>
</svg>
