<svg width="1266" height="563" viewBox="0 0 1266 563" fill="none" xmlns="http://www.w3.org/2000/svg">
<path d="M20.0625 367.281H273.434L531 340" stroke="white" stroke-width="7.01907"/>
<path d="M528 339L782.881 238.304L1035.33 18.7062" stroke="white" stroke-width="7.01907" stroke-dasharray="8 16"/>
<g filter="url(#filter0_d_14051_26505)">
<circle cx="1034.66" cy="22.5541" r="19.4459" fill="#9FFFEC"/>
<circle cx="1034.67" cy="22.555" r="11.6676" fill="white"/>
</g>
<g filter="url(#filter1_d_14051_26505)">
<circle cx="22.4459" cy="366.554" r="19.4459" fill="#9FFFEC"/>
<circle cx="22.4459" cy="366.555" r="11.6676" fill="white"/>
</g>
<g filter="url(#filter2_d_14051_26505)">
<circle cx="275.501" cy="366.554" r="19.4459" fill="#9FFFEC"/>
<circle cx="275.501" cy="366.555" r="11.6676" fill="white"/>
</g>
<g filter="url(#filter3_d_14051_26505)">
<circle cx="528.446" cy="339.446" r="19.4459" fill="#9FFFEC"/>
<circle cx="528.446" cy="339.447" r="11.6676" fill="white"/>
</g>
<g filter="url(#filter4_d_14051_26505)">
<circle cx="781.61" cy="237.446" r="19.4459" fill="#9FFFEC"/>
<circle cx="781.61" cy="237.447" r="11.6676" fill="white"/>
</g>
<path d="M4.376 431H18.456V429.368H6.808L13.752 422.232C16.024 419.928 17.944 417.464 17.944 414.68C17.944 410.52 14.712 408.248 11.288 408.248C8.376 408.248 5.848 409.656 4.504 412.408L5.944 413.272C7 411.032 8.856 409.88 11.288 409.88C14.008 409.88 16.216 411.608 16.216 414.68C16.216 416.888 14.552 419 12.6 421.016L4.376 429.464V431ZM29.6425 431.352C35.0185 431.352 38.0265 426.712 38.0265 419.8C38.0265 412.888 35.0185 408.248 29.6425 408.248C24.2665 408.248 21.2585 412.888 21.2585 419.8C21.2585 426.712 24.2665 431.352 29.6425 431.352ZM29.6425 429.72C25.4825 429.72 22.9865 426.072 22.9865 419.8C22.9865 413.528 25.4825 409.88 29.6425 409.88C33.8025 409.88 36.2985 413.528 36.2985 419.8C36.2985 426.072 33.8025 429.72 29.6425 429.72ZM40.7823 431H54.8623V429.368H43.2143L50.1583 422.232C52.4303 419.928 54.3503 417.464 54.3503 414.68C54.3503 410.52 51.1183 408.248 47.6943 408.248C44.7823 408.248 42.2543 409.656 40.9103 412.408L42.3503 413.272C43.4062 411.032 45.2623 409.88 47.6943 409.88C50.4143 409.88 52.6223 411.608 52.6223 414.68C52.6223 416.888 50.9583 419 49.0063 421.016L40.7823 429.464V431ZM66.0488 431.352C71.4248 431.352 74.4328 426.712 74.4328 419.8C74.4328 412.888 71.4248 408.248 66.0488 408.248C60.6727 408.248 57.6648 412.888 57.6648 419.8C57.6648 426.712 60.6727 431.352 66.0488 431.352ZM66.0488 429.72C61.8888 429.72 59.3928 426.072 59.3928 419.8C59.3928 413.528 61.8888 409.88 66.0488 409.88C70.2088 409.88 72.7048 413.528 72.7048 419.8C72.7048 426.072 70.2088 429.72 66.0488 429.72Z" fill="white"/>
<path d="M13.08 477.448C18.872 477.448 22.2 472.712 22.2 465.8C22.2 458.888 18.872 454.152 13.08 454.152C7.288 454.152 3.96 458.888 3.96 465.8C3.96 472.712 7.288 477.448 13.08 477.448ZM13.08 472.456C10.392 472.456 9.08 470.12 9.08 465.8C9.08 461.48 10.392 459.144 13.08 459.144C15.768 459.144 17.08 461.48 17.08 465.8C17.08 470.12 15.768 472.456 13.08 472.456ZM48.2763 477L42.2923 469L48.1163 461H42.5163L37.7163 468.008V454.6H32.9163V477H37.7163V469.928L42.8363 477H48.2763ZM60.8165 461V462.632C59.7605 461.32 58.2245 460.552 56.1445 460.552C51.6005 460.552 48.2725 464.264 48.2725 468.68C48.2725 473.096 51.6005 476.808 56.1445 476.808C58.2245 476.808 59.7605 476.04 60.8165 474.728V476.2C60.8165 478.472 59.4405 479.624 57.2005 479.624C55.0885 479.624 54.1605 478.728 53.5525 477.608L49.4565 479.976C50.9285 482.6 53.7125 483.848 57.0405 483.848C61.2965 483.848 65.4885 481.576 65.4885 476.2V461H60.8165ZM56.9445 472.392C54.6725 472.392 53.0725 470.888 53.0725 468.68C53.0725 466.472 54.6725 464.968 56.9445 464.968C59.2165 464.968 60.8165 466.472 60.8165 468.68C60.8165 470.888 59.2165 472.392 56.9445 472.392Z" fill="#9FFFEC"/>
<path d="M5.8 511V498H4.74V512H12.4V511H5.8ZM22.6955 502V504.26C21.8555 502.76 20.3155 501.78 18.3955 501.78C15.5555 501.78 13.2155 504.04 13.2155 507C13.2155 509.96 15.5555 512.22 18.3955 512.22C20.3155 512.22 21.8555 511.24 22.6955 509.74V512H23.7155V502H22.6955ZM18.4755 511.26C16.0955 511.26 14.2355 509.38 14.2355 507C14.2355 504.62 16.0955 502.74 18.4755 502.74C20.8555 502.74 22.6955 504.62 22.6955 507C22.6955 509.38 20.8555 511.26 18.4755 511.26ZM31.3661 501.78C29.8261 501.78 28.5461 502.42 27.7861 503.9V502H26.7861V512H27.7861V506.72C27.7861 504.02 29.3261 502.74 31.2861 502.74C33.1661 502.74 34.2261 503.94 34.2261 505.78V512H35.2461V505.78C35.2461 503.36 33.7461 501.78 31.3661 501.78ZM42.6552 512.22C44.6152 512.22 46.2952 511.22 47.0952 509.68L46.2552 509.18C45.5952 510.42 44.2752 511.26 42.6552 511.26C40.2352 511.26 38.4152 509.38 38.4152 507C38.4152 504.62 40.2352 502.74 42.6552 502.74C44.2552 502.74 45.6152 503.56 46.1952 504.82L47.0152 504.34C46.2952 502.78 44.6152 501.78 42.6552 501.78C39.6352 501.78 37.3952 504.04 37.3952 507C37.3952 509.96 39.6352 512.22 42.6552 512.22ZM53.6884 501.78C50.6284 501.78 48.5084 504.06 48.5084 507C48.5084 510.02 50.6884 512.22 53.7684 512.22C55.7484 512.22 57.3084 511.32 58.1284 509.96L57.2484 509.44C56.6684 510.5 55.4284 511.26 53.7884 511.26C51.5084 511.26 49.7884 509.78 49.5484 507.52H58.6084C58.6084 507.36 58.6284 507.2 58.6284 507.04C58.6284 504.3 56.7284 501.78 53.6884 501.78ZM53.6884 502.74C55.6484 502.74 57.3684 504.1 57.5884 506.54H49.5484C49.7484 504.32 51.4084 502.74 53.6884 502.74ZM71.6458 501.78C70.3058 501.78 69.0258 502.42 68.3058 503.82C67.7858 502.5 66.6458 501.78 65.1858 501.78C63.9058 501.78 62.7058 502.34 61.9658 503.72V502H60.9658V512H61.9658V506.42C61.9658 503.86 63.4258 502.74 65.0658 502.74C66.6058 502.74 67.6258 503.76 67.6258 505.66V512H68.6258V506.42C68.6258 503.86 69.9458 502.74 71.6258 502.74C73.1858 502.74 74.2858 503.76 74.2858 505.66V512H75.2858V505.66C75.2858 503.16 73.7658 501.78 71.6458 501.78ZM82.6142 501.78C79.5542 501.78 77.4342 504.06 77.4342 507C77.4342 510.02 79.6142 512.22 82.6942 512.22C84.6742 512.22 86.2342 511.32 87.0542 509.96L86.1742 509.44C85.5942 510.5 84.3542 511.26 82.7142 511.26C80.4342 511.26 78.7142 509.78 78.4742 507.52H87.5342C87.5342 507.36 87.5542 507.2 87.5542 507.04C87.5542 504.3 85.6542 501.78 82.6142 501.78ZM82.6142 502.74C84.5742 502.74 86.2942 504.1 86.5142 506.54H78.4742C78.6742 504.32 80.3342 502.74 82.6142 502.74ZM94.4716 501.78C92.9316 501.78 91.6516 502.42 90.8916 503.9V502H89.8916V512H90.8916V506.72C90.8916 504.02 92.4316 502.74 94.3916 502.74C96.2716 502.74 97.3316 503.94 97.3316 505.78V512H98.3516V505.78C98.3516 503.36 96.8516 501.78 94.4716 501.78ZM106.301 502.98V502H103.321V499.2L102.301 499.5V502H100.101V502.98H102.301V509.48C102.301 511.76 103.681 512.4 106.301 512V511.1C104.261 511.28 103.321 511.24 103.321 509.48V502.98H106.301ZM122.852 498V504.32C122.032 502.78 120.492 501.78 118.552 501.78C115.692 501.78 113.372 504.04 113.372 507C113.372 509.96 115.692 512.22 118.552 512.22C120.492 512.22 122.032 511.22 122.852 509.68V512H123.852V498H122.852ZM118.612 511.26C116.232 511.26 114.372 509.38 114.372 507C114.372 504.62 116.232 502.74 118.612 502.74C120.992 502.74 122.852 504.62 122.852 507C122.852 509.38 120.992 511.26 118.612 511.26ZM131.423 501.78C128.363 501.78 126.243 504.06 126.243 507C126.243 510.02 128.423 512.22 131.503 512.22C133.483 512.22 135.043 511.32 135.863 509.96L134.983 509.44C134.403 510.5 133.163 511.26 131.523 511.26C129.243 511.26 127.523 509.78 127.283 507.52H136.343C136.343 507.36 136.363 507.2 136.363 507.04C136.363 504.3 134.463 501.78 131.423 501.78ZM131.423 502.74C133.383 502.74 135.103 504.1 135.323 506.54H127.283C127.483 504.32 129.143 502.74 131.423 502.74ZM144.032 512H145.032V497.4H144.032V512ZM156.914 502V504.26C156.074 502.76 154.534 501.78 152.614 501.78C149.774 501.78 147.434 504.04 147.434 507C147.434 509.96 149.774 512.22 152.614 512.22C154.534 512.22 156.074 511.24 156.914 509.74V512H157.934V502H156.914ZM152.694 511.26C150.314 511.26 148.454 509.38 148.454 507C148.454 504.62 150.314 502.74 152.694 502.74C155.074 502.74 156.914 504.62 156.914 507C156.914 509.38 155.074 511.26 152.694 511.26ZM4.54 535H5.54V520.4H4.54V535ZM13.122 524.78C10.062 524.78 7.94203 527.06 7.94203 530C7.94203 533.02 10.122 535.22 13.202 535.22C15.182 535.22 16.742 534.32 17.562 532.96L16.682 532.44C16.102 533.5 14.862 534.26 13.222 534.26C10.942 534.26 9.22203 532.78 8.98203 530.52H18.042C18.042 530.36 18.062 530.2 18.062 530.04C18.062 527.3 16.162 524.78 13.122 524.78ZM13.122 525.74C15.082 525.74 16.802 527.1 17.022 529.54H8.98203C9.18203 527.32 10.842 525.74 13.122 525.74ZM27.3488 525L23.5688 533.96L19.8088 525H18.7288L22.9688 535H24.1888L28.4088 525H27.3488ZM36.173 521.06H34.973L33.373 523.6H34.353L36.173 521.06ZM34.333 524.78C31.273 524.78 29.153 527.06 29.153 530C29.153 533.02 31.333 535.22 34.413 535.22C36.393 535.22 37.953 534.32 38.773 532.96L37.893 532.44C37.313 533.5 36.073 534.26 34.433 534.26C32.153 534.26 30.433 532.78 30.193 530.52H39.253C39.253 530.36 39.273 530.2 39.273 530.04C39.273 527.3 37.373 524.78 34.333 524.78ZM34.333 525.74C36.293 525.74 38.013 527.1 38.233 529.54H30.193C30.393 527.32 32.053 525.74 34.333 525.74ZM46.1103 524.78C43.0503 524.78 40.9303 527.06 40.9303 530C40.9303 533.02 43.1103 535.22 46.1903 535.22C48.1703 535.22 49.7303 534.32 50.5503 532.96L49.6703 532.44C49.0903 533.5 47.8503 534.26 46.2103 534.26C43.9303 534.26 42.2103 532.78 41.9703 530.52H51.0303C51.0303 530.36 51.0503 530.2 51.0503 530.04C51.0503 527.3 49.1503 524.78 46.1103 524.78ZM46.1103 525.74C48.0703 525.74 49.7903 527.1 50.0103 529.54H41.9703C42.1703 527.32 43.8303 525.74 46.1103 525.74ZM67.5397 521V527.32C66.7197 525.78 65.1797 524.78 63.2397 524.78C60.3797 524.78 58.0597 527.04 58.0597 530C58.0597 532.96 60.3797 535.22 63.2397 535.22C65.1797 535.22 66.7197 534.22 67.5397 532.68V535H68.5397V521H67.5397ZM63.2997 534.26C60.9197 534.26 59.0597 532.38 59.0597 530C59.0597 527.62 60.9197 525.74 63.2997 525.74C65.6797 525.74 67.5397 527.62 67.5397 530C67.5397 532.38 65.6797 534.26 63.2997 534.26ZM76.1103 524.78C73.0503 524.78 70.9303 527.06 70.9303 530C70.9303 533.02 73.1103 535.22 76.1903 535.22C78.1703 535.22 79.7303 534.32 80.5503 532.96L79.6703 532.44C79.0903 533.5 77.8503 534.26 76.2103 534.26C73.9303 534.26 72.2103 532.78 71.9703 530.52H81.0303C81.0303 530.36 81.0503 530.2 81.0503 530.04C81.0503 527.3 79.1503 524.78 76.1103 524.78ZM76.1103 525.74C78.0703 525.74 79.7903 527.1 80.0103 529.54H71.9703C72.1703 527.32 73.8303 525.74 76.1103 525.74ZM93.4397 521.74V520.78C90.8197 520.58 89.4397 522 89.4397 524.46V525H87.7197V525.98H89.4397V535H90.4597V525.98H93.4397V525H90.4597V524.46C90.4597 522.52 91.3997 521.58 93.4397 521.74ZM98.9052 535.22C101.805 535.22 104.145 532.96 104.145 530C104.145 527.04 101.805 524.78 98.9052 524.78C95.9852 524.78 93.6452 527.04 93.6452 530C93.6452 532.96 95.9852 535.22 98.9052 535.22ZM98.9052 534.26C96.5252 534.26 94.6652 532.38 94.6652 530C94.6652 527.62 96.5252 525.74 98.9052 525.74C101.285 525.74 103.125 527.62 103.125 530C103.125 532.38 101.285 534.26 98.9052 534.26ZM111.132 524.78C109.592 524.78 108.312 525.42 107.552 526.9V525H106.552V535H107.552V529.72C107.552 527.02 109.092 525.74 111.052 525.74C112.932 525.74 113.992 526.94 113.992 528.78V535H115.012V528.78C115.012 526.36 113.512 524.78 111.132 524.78ZM126.661 521V527.32C125.841 525.78 124.301 524.78 122.361 524.78C119.501 524.78 117.181 527.04 117.181 530C117.181 532.96 119.501 535.22 122.361 535.22C124.301 535.22 125.841 534.22 126.661 532.68V535H127.661V521H126.661ZM122.421 534.26C120.041 534.26 118.181 532.38 118.181 530C118.181 527.62 120.041 525.74 122.421 525.74C124.801 525.74 126.661 527.62 126.661 530C126.661 532.38 124.801 534.26 122.421 534.26ZM131.411 527.62C131.411 526.42 132.511 525.74 133.811 525.74C134.911 525.74 135.951 526.22 136.371 527.26L137.211 526.78C136.671 525.56 135.431 524.78 133.811 524.78C131.771 524.78 130.411 526.04 130.411 527.62C130.411 531.22 136.471 529.66 136.471 532.38C136.471 533.64 135.291 534.26 133.891 534.26C132.391 534.26 131.311 533.58 130.951 532.5L130.091 533C130.571 534.28 131.891 535.22 133.891 535.22C136.031 535.22 137.471 534.02 137.471 532.38C137.471 528.72 131.411 530.3 131.411 527.62Z" fill="#BCC2C2"/>
<path d="M257.43 431H271.51V429.368H259.862L266.806 422.232C269.078 419.928 270.998 417.464 270.998 414.68C270.998 410.52 267.766 408.248 264.342 408.248C261.43 408.248 258.902 409.656 257.558 412.408L258.998 413.272C260.054 411.032 261.91 409.88 264.342 409.88C267.062 409.88 269.27 411.608 269.27 414.68C269.27 416.888 267.606 419 265.654 421.016L257.43 429.464V431ZM282.696 431.352C288.072 431.352 291.08 426.712 291.08 419.8C291.08 412.888 288.072 408.248 282.696 408.248C277.32 408.248 274.312 412.888 274.312 419.8C274.312 426.712 277.32 431.352 282.696 431.352ZM282.696 429.72C278.536 429.72 276.04 426.072 276.04 419.8C276.04 413.528 278.536 409.88 282.696 409.88C286.856 409.88 289.352 413.528 289.352 419.8C289.352 426.072 286.856 429.72 282.696 429.72ZM293.836 431H307.916V429.368H296.268L303.212 422.232C305.484 419.928 307.404 417.464 307.404 414.68C307.404 410.52 304.172 408.248 300.748 408.248C297.836 408.248 295.308 409.656 293.964 412.408L295.404 413.272C296.46 411.032 298.316 409.88 300.748 409.88C303.468 409.88 305.676 411.608 305.676 414.68C305.676 416.888 304.012 419 302.06 421.016L293.836 429.464V431ZM315.735 408.6L309.879 410.616L310.295 412.088L315.479 410.456V431H317.175V408.6H315.735Z" fill="white"/>
<path d="M266.134 477.448C271.926 477.448 275.254 472.712 275.254 465.8C275.254 458.888 271.926 454.152 266.134 454.152C260.342 454.152 257.014 458.888 257.014 465.8C257.014 472.712 260.342 477.448 266.134 477.448ZM266.134 472.456C263.446 472.456 262.134 470.12 262.134 465.8C262.134 461.48 263.446 459.144 266.134 459.144C268.822 459.144 270.134 461.48 270.134 465.8C270.134 470.12 268.822 472.456 266.134 472.456ZM301.33 477L295.346 469L301.17 461H295.57L290.77 468.008V454.6H285.97V477H290.77V469.928L295.89 477H301.33ZM313.87 461V462.632C312.814 461.32 311.278 460.552 309.198 460.552C304.654 460.552 301.326 464.264 301.326 468.68C301.326 473.096 304.654 476.808 309.198 476.808C311.278 476.808 312.814 476.04 313.87 474.728V476.2C313.87 478.472 312.494 479.624 310.254 479.624C308.142 479.624 307.214 478.728 306.606 477.608L302.51 479.976C303.982 482.6 306.766 483.848 310.094 483.848C314.35 483.848 318.542 481.576 318.542 476.2V461H313.87ZM309.998 472.392C307.726 472.392 306.126 470.888 306.126 468.68C306.126 466.472 307.726 464.968 309.998 464.968C312.27 464.968 313.87 466.472 313.87 468.68C313.87 470.888 312.27 472.392 309.998 472.392Z" fill="#9FFFEC"/>
<path d="M262.554 498H257.794V512H258.854V506.66H262.554C265.074 506.66 266.914 504.8 266.914 502.34C266.914 499.86 265.074 498 262.554 498ZM262.554 505.66H258.854V499H262.554C264.474 499 265.854 500.4 265.854 502.34C265.854 504.26 264.474 505.66 262.554 505.66ZM270.137 503.96V502H269.137V512H270.137V506.44C270.137 503.88 271.757 502.82 273.477 502.82V501.86C272.117 501.86 270.817 502.38 270.137 503.96ZM279.398 501.78C276.338 501.78 274.218 504.06 274.218 507C274.218 510.02 276.398 512.22 279.478 512.22C281.458 512.22 283.018 511.32 283.838 509.96L282.958 509.44C282.378 510.5 281.138 511.26 279.498 511.26C277.218 511.26 275.498 509.78 275.258 507.52H284.318C284.318 507.36 284.338 507.2 284.338 507.04C284.338 504.3 282.438 501.78 279.398 501.78ZM279.398 502.74C281.358 502.74 283.078 504.1 283.298 506.54H275.258C275.458 504.32 277.118 502.74 279.398 502.74ZM297.356 501.78C296.016 501.78 294.736 502.42 294.016 503.82C293.496 502.5 292.356 501.78 290.896 501.78C289.616 501.78 288.416 502.34 287.676 503.72V502H286.676V512H287.676V506.42C287.676 503.86 289.136 502.74 290.776 502.74C292.316 502.74 293.336 503.76 293.336 505.66V512H294.336V506.42C294.336 503.86 295.656 502.74 297.336 502.74C298.896 502.74 299.996 503.76 299.996 505.66V512H300.996V505.66C300.996 503.16 299.476 501.78 297.356 501.78ZM304.324 499.58C304.764 499.58 305.124 499.22 305.124 498.78C305.124 498.36 304.764 498 304.324 498C303.884 498 303.524 498.36 303.524 498.78C303.524 499.22 303.884 499.58 304.324 499.58ZM303.824 512H304.824V502H303.824V512ZM312.406 501.78C309.346 501.78 307.226 504.06 307.226 507C307.226 510.02 309.406 512.22 312.486 512.22C314.466 512.22 316.026 511.32 316.846 509.96L315.966 509.44C315.386 510.5 314.146 511.26 312.506 511.26C310.226 511.26 308.506 509.78 308.266 507.52H317.326C317.326 507.36 317.346 507.2 317.346 507.04C317.346 504.3 315.446 501.78 312.406 501.78ZM312.406 502.74C314.366 502.74 316.086 504.1 316.306 506.54H308.266C308.466 504.32 310.126 502.74 312.406 502.74ZM320.684 503.96V502H319.684V512H320.684V506.44C320.684 503.88 322.304 502.82 324.024 502.82V501.86C322.664 501.86 321.364 502.38 320.684 503.96ZM326.34 504.62C326.34 503.42 327.44 502.74 328.74 502.74C329.84 502.74 330.88 503.22 331.3 504.26L332.14 503.78C331.6 502.56 330.36 501.78 328.74 501.78C326.7 501.78 325.34 503.04 325.34 504.62C325.34 508.22 331.4 506.66 331.4 509.38C331.4 510.64 330.22 511.26 328.82 511.26C327.32 511.26 326.24 510.58 325.88 509.5L325.02 510C325.5 511.28 326.82 512.22 328.82 512.22C330.96 512.22 332.4 511.02 332.4 509.38C332.4 505.72 326.34 507.3 326.34 504.62ZM258.094 522.58C258.534 522.58 258.894 522.22 258.894 521.78C258.894 521.36 258.534 521 258.094 521C257.654 521 257.294 521.36 257.294 521.78C257.294 522.22 257.654 522.58 258.094 522.58ZM257.594 535H258.594V525H257.594V535ZM266.256 524.78C264.716 524.78 263.436 525.42 262.676 526.9V525H261.676V535H262.676V529.72C262.676 527.02 264.216 525.74 266.176 525.74C268.056 525.74 269.116 526.94 269.116 528.78V535H270.136V528.78C270.136 526.36 268.636 524.78 266.256 524.78ZM280.207 525L276.427 533.96L272.667 525H271.587L275.827 535H277.047L281.267 525H280.207ZM287.191 524.78C284.131 524.78 282.011 527.06 282.011 530C282.011 533.02 284.191 535.22 287.271 535.22C289.251 535.22 290.811 534.32 291.631 532.96L290.751 532.44C290.171 533.5 288.931 534.26 287.291 534.26C285.011 534.26 283.291 532.78 283.051 530.52H292.111C292.111 530.36 292.131 530.2 292.131 530.04C292.131 527.3 290.231 524.78 287.191 524.78ZM287.191 525.74C289.151 525.74 290.871 527.1 291.091 529.54H283.051C283.251 527.32 284.911 525.74 287.191 525.74ZM294.758 527.62C294.758 526.42 295.858 525.74 297.158 525.74C298.258 525.74 299.298 526.22 299.718 527.26L300.558 526.78C300.018 525.56 298.778 524.78 297.158 524.78C295.118 524.78 293.758 526.04 293.758 527.62C293.758 531.22 299.818 529.66 299.818 532.38C299.818 533.64 298.638 534.26 297.238 534.26C295.738 534.26 294.658 533.58 294.298 532.5L293.438 533C293.918 534.28 295.238 535.22 297.238 535.22C299.378 535.22 300.818 534.02 300.818 532.38C300.818 528.72 294.758 530.3 294.758 527.62ZM307.968 525.98V525H304.988V522.2L303.968 522.5V525H301.768V525.98H303.968V532.48C303.968 534.76 305.348 535.4 307.968 535V534.1C305.928 534.28 304.988 534.24 304.988 532.48V525.98H307.968ZM310.867 522.58C311.307 522.58 311.667 522.22 311.667 521.78C311.667 521.36 311.307 521 310.867 521C310.427 521 310.067 521.36 310.067 521.78C310.067 522.22 310.427 522.58 310.867 522.58ZM310.367 535H311.367V525H310.367V535ZM315.129 527.62C315.129 526.42 316.229 525.74 317.529 525.74C318.629 525.74 319.669 526.22 320.089 527.26L320.929 526.78C320.389 525.56 319.149 524.78 317.529 524.78C315.489 524.78 314.129 526.04 314.129 527.62C314.129 531.22 320.189 529.66 320.189 532.38C320.189 533.64 319.009 534.26 317.609 534.26C316.109 534.26 315.029 533.58 314.669 532.5L313.809 533C314.289 534.28 315.609 535.22 317.609 535.22C319.749 535.22 321.189 534.02 321.189 532.38C321.189 528.72 315.129 530.3 315.129 527.62ZM323.684 527.62C323.684 526.42 324.784 525.74 326.084 525.74C327.184 525.74 328.224 526.22 328.644 527.26L329.484 526.78C328.944 525.56 327.704 524.78 326.084 524.78C324.044 524.78 322.684 526.04 322.684 527.62C322.684 531.22 328.744 529.66 328.744 532.38C328.744 533.64 327.564 534.26 326.164 534.26C324.664 534.26 323.584 533.58 323.224 532.5L322.364 533C322.844 534.28 324.164 535.22 326.164 535.22C328.304 535.22 329.744 534.02 329.744 532.38C329.744 528.72 323.684 530.3 323.684 527.62ZM336.371 524.78C333.311 524.78 331.191 527.06 331.191 530C331.191 533.02 333.371 535.22 336.451 535.22C338.431 535.22 339.991 534.32 340.811 532.96L339.931 532.44C339.351 533.5 338.111 534.26 336.471 534.26C334.191 534.26 332.471 532.78 332.231 530.52H341.291C341.291 530.36 341.311 530.2 341.311 530.04C341.311 527.3 339.411 524.78 336.371 524.78ZM336.371 525.74C338.331 525.74 340.051 527.1 340.271 529.54H332.231C332.431 527.32 334.091 525.74 336.371 525.74ZM354.328 524.78C352.988 524.78 351.708 525.42 350.988 526.82C350.468 525.5 349.328 524.78 347.868 524.78C346.588 524.78 345.388 525.34 344.648 526.72V525H343.648V535H344.648V529.42C344.648 526.86 346.108 525.74 347.748 525.74C349.288 525.74 350.308 526.76 350.308 528.66V535H351.308V529.42C351.308 526.86 352.628 525.74 354.308 525.74C355.868 525.74 356.968 526.76 356.968 528.66V535H357.968V528.66C357.968 526.16 356.448 524.78 354.328 524.78ZM365.297 524.78C362.237 524.78 360.117 527.06 360.117 530C360.117 533.02 362.297 535.22 365.377 535.22C367.357 535.22 368.917 534.32 369.737 532.96L368.857 532.44C368.277 533.5 367.037 534.26 365.397 534.26C363.117 534.26 361.397 532.78 361.157 530.52H370.217C370.217 530.36 370.237 530.2 370.237 530.04C370.237 527.3 368.337 524.78 365.297 524.78ZM365.297 525.74C367.257 525.74 368.977 527.1 369.197 529.54H361.157C361.357 527.32 363.017 525.74 365.297 525.74ZM377.154 524.78C375.614 524.78 374.334 525.42 373.574 526.9V525H372.574V535H373.574V529.72C373.574 527.02 375.114 525.74 377.074 525.74C378.954 525.74 380.014 526.94 380.014 528.78V535H381.034V528.78C381.034 526.36 379.534 524.78 377.154 524.78ZM388.983 525.98V525H386.003V522.2L384.983 522.5V525H382.783V525.98H384.983V532.48C384.983 534.76 386.363 535.4 388.983 535V534.1C386.943 534.28 386.003 534.24 386.003 532.48V525.98H388.983ZM391.457 527.62C391.457 526.42 392.557 525.74 393.857 525.74C394.957 525.74 395.997 526.22 396.417 527.26L397.257 526.78C396.717 525.56 395.477 524.78 393.857 524.78C391.817 524.78 390.457 526.04 390.457 527.62C390.457 531.22 396.517 529.66 396.517 532.38C396.517 533.64 395.337 534.26 393.937 534.26C392.437 534.26 391.357 533.58 390.997 532.5L390.137 533C390.617 534.28 391.937 535.22 393.937 535.22C396.077 535.22 397.517 534.02 397.517 532.38C397.517 528.72 391.457 530.3 391.457 527.62Z" fill="#BCC2C2"/>
<path d="M510.484 423H524.564V421.368H512.916L519.86 414.232C522.132 411.928 524.052 409.464 524.052 406.68C524.052 402.52 520.82 400.248 517.396 400.248C514.484 400.248 511.956 401.656 510.612 404.408L512.052 405.272C513.108 403.032 514.964 401.88 517.396 401.88C520.116 401.88 522.324 403.608 522.324 406.68C522.324 408.888 520.66 411 518.708 413.016L510.484 421.464V423ZM535.751 423.352C541.127 423.352 544.135 418.712 544.135 411.8C544.135 404.888 541.127 400.248 535.751 400.248C530.375 400.248 527.367 404.888 527.367 411.8C527.367 418.712 530.375 423.352 535.751 423.352ZM535.751 421.72C531.591 421.72 529.095 418.072 529.095 411.8C529.095 405.528 531.591 401.88 535.751 401.88C539.911 401.88 542.407 405.528 542.407 411.8C542.407 418.072 539.911 421.72 535.751 421.72ZM546.891 423H560.971V421.368H549.323L556.267 414.232C558.539 411.928 560.459 409.464 560.459 406.68C560.459 402.52 557.227 400.248 553.803 400.248C550.891 400.248 548.363 401.656 547.019 404.408L548.459 405.272C549.515 403.032 551.371 401.88 553.803 401.88C556.523 401.88 558.731 403.608 558.731 406.68C558.731 408.888 557.067 411 555.115 413.016L546.891 421.464V423ZM563.766 423H577.846V421.368H566.198L573.142 414.232C575.414 411.928 577.334 409.464 577.334 406.68C577.334 402.52 574.102 400.248 570.678 400.248C567.766 400.248 565.238 401.656 563.894 404.408L565.334 405.272C566.39 403.032 568.246 401.88 570.678 401.88C573.398 401.88 575.606 403.608 575.606 406.68C575.606 408.888 573.942 411 571.99 413.016L563.766 421.464V423Z" fill="white"/>
<path d="M526.388 454.056C526.388 449.416 523.028 446.152 518.068 446.152C513.14 446.152 509.748 449.416 509.748 454.056C509.748 458.408 512.756 461.576 517.204 461.928L512.34 469H518.228L525.076 458.6C525.908 457.352 526.388 455.784 526.388 454.056ZM514.868 454.056C514.868 452.104 516.372 450.952 518.068 450.952C519.796 450.952 521.268 452.072 521.268 454.056C521.268 456.04 519.796 457.16 518.068 457.16C516.372 457.16 514.868 456.008 514.868 454.056ZM554.695 452.552C552.423 452.552 550.951 453.384 550.055 454.664C549.159 453.32 547.751 452.552 545.863 452.552C543.719 452.552 542.311 453.384 541.575 454.472V453H536.775V469H541.575V459.976C541.575 458.088 542.471 456.968 544.071 456.968C545.607 456.968 546.375 457.992 546.375 459.592V469H551.175V459.976C551.175 458.088 552.071 456.968 553.671 456.968C555.207 456.968 555.975 457.992 555.975 459.592V469H560.775V459.176C560.775 455.176 558.375 452.552 554.695 452.552ZM566.456 451.592C568.024 451.592 569.336 450.28 569.336 448.712C569.336 447.144 568.024 445.832 566.456 445.832C564.888 445.832 563.576 447.144 563.576 448.712C563.576 450.28 564.888 451.592 566.456 451.592ZM564.056 469H568.856V453H564.056V469ZM572.368 469H577.168V445.64H572.368V469ZM580.681 469H585.481V445.64H580.681V469ZM591.393 451.592C592.961 451.592 594.273 450.28 594.273 448.712C594.273 447.144 592.961 445.832 591.393 445.832C589.825 445.832 588.513 447.144 588.513 448.712C588.513 450.28 589.825 451.592 591.393 451.592ZM588.993 469H593.793V453H588.993V469ZM604.986 469.448C609.69 469.448 613.466 465.768 613.466 461C613.466 456.232 609.69 452.552 604.986 452.552C600.282 452.552 596.506 456.232 596.506 461C596.506 465.768 600.282 469.448 604.986 469.448ZM604.986 464.776C602.906 464.776 601.306 463.272 601.306 461C601.306 458.728 602.906 457.224 604.986 457.224C607.066 457.224 608.666 458.728 608.666 461C608.666 463.272 607.066 464.776 604.986 464.776ZM625.557 452.552C623.445 452.552 621.845 453.32 620.981 454.504V453H616.181V469H620.981V460.264C620.981 457.992 622.197 456.968 623.957 456.968C625.493 456.968 626.741 457.896 626.741 459.88V469H631.541V459.176C631.541 454.856 628.789 452.552 625.557 452.552ZM639.381 457.672C639.381 457.096 639.893 456.776 640.725 456.776C641.781 456.776 642.421 457.352 642.869 458.184L646.965 455.976C645.621 453.704 643.317 452.552 640.725 452.552C637.397 452.552 634.453 454.312 634.453 457.8C634.453 463.336 642.325 462.408 642.325 464.168C642.325 464.808 641.749 465.16 640.597 465.16C639.189 465.16 638.293 464.488 637.877 463.272L633.717 465.64C634.965 468.232 637.397 469.448 640.597 469.448C644.053 469.448 647.253 467.88 647.253 464.2C647.253 458.28 639.381 459.496 639.381 457.672ZM669.422 446.6V454.504C668.366 453.288 666.798 452.552 664.654 452.552C660.462 452.552 657.006 456.232 657.006 461C657.006 465.768 660.462 469.448 664.654 469.448C666.798 469.448 668.366 468.712 669.422 467.496V469H674.222V446.6H669.422ZM665.614 464.904C663.406 464.904 661.806 463.4 661.806 461C661.806 458.6 663.406 457.096 665.614 457.096C667.822 457.096 669.422 458.6 669.422 461C669.422 463.4 667.822 464.904 665.614 464.904ZM682.031 462.92H693.391C693.519 462.312 693.583 461.672 693.583 461C693.583 456.168 690.127 452.552 685.455 452.552C680.399 452.552 676.943 456.232 676.943 461C676.943 465.768 680.335 469.448 685.807 469.448C688.847 469.448 691.215 468.328 692.783 466.152L688.943 463.944C688.303 464.648 687.183 465.16 685.871 465.16C684.111 465.16 682.639 464.584 682.031 462.92ZM681.935 459.336C682.383 457.704 683.599 456.808 685.423 456.808C686.863 456.808 688.303 457.48 688.815 459.336H681.935ZM719.666 469L713.682 461L719.506 453H713.906L709.106 460.008V446.6H704.306V469H709.106V461.928L714.226 469H719.666ZM732.206 453V454.632C731.15 453.32 729.614 452.552 727.534 452.552C722.99 452.552 719.662 456.264 719.662 460.68C719.662 465.096 722.99 468.808 727.534 468.808C729.614 468.808 731.15 468.04 732.206 466.728V468.2C732.206 470.472 730.83 471.624 728.59 471.624C726.478 471.624 725.55 470.728 724.942 469.608L720.846 471.976C722.318 474.6 725.102 475.848 728.43 475.848C732.686 475.848 736.878 473.576 736.878 468.2V453H732.206ZM728.334 464.392C726.062 464.392 724.462 462.888 724.462 460.68C724.462 458.472 726.062 456.968 728.334 456.968C730.606 456.968 732.206 458.472 732.206 460.68C732.206 462.888 730.606 464.392 728.334 464.392Z" fill="#9FFFEC"/>
<path d="M515.608 490H510.848V504H511.908V498.66H515.608C518.128 498.66 519.968 496.8 519.968 494.34C519.968 491.86 518.128 490 515.608 490ZM515.608 497.66H511.908V491H515.608C517.528 491 518.908 492.4 518.908 494.34C518.908 496.26 517.528 497.66 515.608 497.66ZM523.191 495.96V494H522.191V504H523.191V498.44C523.191 495.88 524.811 494.82 526.531 494.82V493.86C525.171 493.86 523.871 494.38 523.191 495.96ZM532.453 493.78C529.393 493.78 527.273 496.06 527.273 499C527.273 502.02 529.453 504.22 532.533 504.22C534.513 504.22 536.073 503.32 536.893 501.96L536.013 501.44C535.433 502.5 534.193 503.26 532.553 503.26C530.273 503.26 528.553 501.78 528.313 499.52H537.373C537.373 499.36 537.393 499.2 537.393 499.04C537.393 496.3 535.493 493.78 532.453 493.78ZM532.453 494.74C534.413 494.74 536.133 496.1 536.353 498.54H528.313C528.513 496.32 530.173 494.74 532.453 494.74ZM550.41 493.78C549.07 493.78 547.79 494.42 547.07 495.82C546.55 494.5 545.41 493.78 543.95 493.78C542.67 493.78 541.47 494.34 540.73 495.72V494H539.73V504H540.73V498.42C540.73 495.86 542.19 494.74 543.83 494.74C545.37 494.74 546.39 495.76 546.39 497.66V504H547.39V498.42C547.39 495.86 548.71 494.74 550.39 494.74C551.95 494.74 553.05 495.76 553.05 497.66V504H554.05V497.66C554.05 495.16 552.53 493.78 550.41 493.78ZM557.379 491.58C557.819 491.58 558.179 491.22 558.179 490.78C558.179 490.36 557.819 490 557.379 490C556.939 490 556.579 490.36 556.579 490.78C556.579 491.22 556.939 491.58 557.379 491.58ZM556.879 504H557.879V494H556.879V504ZM565.461 493.78C562.401 493.78 560.281 496.06 560.281 499C560.281 502.02 562.461 504.22 565.541 504.22C567.521 504.22 569.081 503.32 569.901 501.96L569.021 501.44C568.441 502.5 567.201 503.26 565.561 503.26C563.281 503.26 561.561 501.78 561.321 499.52H570.381C570.381 499.36 570.401 499.2 570.401 499.04C570.401 496.3 568.501 493.78 565.461 493.78ZM565.461 494.74C567.421 494.74 569.141 496.1 569.361 498.54H561.321C561.521 496.32 563.181 494.74 565.461 494.74ZM573.738 495.96V494H572.738V504H573.738V498.44C573.738 495.88 575.358 494.82 577.078 494.82V493.86C575.718 493.86 574.418 494.38 573.738 495.96ZM579.395 496.62C579.395 495.42 580.495 494.74 581.795 494.74C582.895 494.74 583.935 495.22 584.355 496.26L585.195 495.78C584.655 494.56 583.415 493.78 581.795 493.78C579.755 493.78 578.395 495.04 578.395 496.62C578.395 500.22 584.455 498.66 584.455 501.38C584.455 502.64 583.275 503.26 581.875 503.26C580.375 503.26 579.295 502.58 578.935 501.5L578.075 502C578.555 503.28 579.875 504.22 581.875 504.22C584.015 504.22 585.455 503.02 585.455 501.38C585.455 497.72 579.395 499.3 579.395 496.62ZM597.707 493.78C594.647 493.78 592.527 496.06 592.527 499C592.527 502.02 594.707 504.22 597.787 504.22C599.767 504.22 601.327 503.32 602.147 501.96L601.267 501.44C600.687 502.5 599.447 503.26 597.807 503.26C595.527 503.26 593.807 501.78 593.567 499.52H602.627C602.627 499.36 602.647 499.2 602.647 499.04C602.647 496.3 600.747 493.78 597.707 493.78ZM597.707 494.74C599.667 494.74 601.387 496.1 601.607 498.54H593.567C593.767 496.32 595.427 494.74 597.707 494.74ZM614.811 490.54V489.58C612.171 489.38 610.811 490.8 610.811 493.26V494H606.431V493.46C606.431 491.52 607.371 490.58 609.411 490.74V489.78C606.791 489.58 605.411 491 605.411 493.46V494H603.691V494.98H605.411V504H606.431V494.98H610.811V504H611.831V494.98H614.811V494H611.831V493.26C611.831 491.32 612.751 490.38 614.811 490.54ZM620.187 493.78C617.127 493.78 615.007 496.06 615.007 499C615.007 502.02 617.187 504.22 620.267 504.22C622.247 504.22 623.807 503.32 624.627 501.96L623.747 501.44C623.167 502.5 621.927 503.26 620.287 503.26C618.007 503.26 616.287 501.78 616.047 499.52H625.107C625.107 499.36 625.127 499.2 625.127 499.04C625.127 496.3 623.227 493.78 620.187 493.78ZM620.187 494.74C622.147 494.74 623.867 496.1 624.087 498.54H616.047C616.247 496.32 617.907 494.74 620.187 494.74ZM632.292 494.98V494H629.312V491.2L628.292 491.5V494H626.092V494.98H628.292V501.48C628.292 503.76 629.672 504.4 632.292 504V503.1C630.252 503.28 629.312 503.24 629.312 501.48V494.98H632.292ZM634.766 496.62C634.766 495.42 635.866 494.74 637.166 494.74C638.266 494.74 639.306 495.22 639.726 496.26L640.566 495.78C640.026 494.56 638.786 493.78 637.166 493.78C635.126 493.78 633.766 495.04 633.766 496.62C633.766 500.22 639.826 498.66 639.826 501.38C639.826 502.64 638.646 503.26 637.246 503.26C635.746 503.26 634.666 502.58 634.306 501.5L633.446 502C633.926 503.28 635.246 504.22 637.246 504.22C639.386 504.22 640.826 503.02 640.826 501.38C640.826 497.72 634.766 499.3 634.766 496.62Z" fill="#BCC2C2"/>
<path d="M763.539 303H777.619V301.368H765.971L772.915 294.232C775.187 291.928 777.107 289.464 777.107 286.68C777.107 282.52 773.875 280.248 770.451 280.248C767.539 280.248 765.011 281.656 763.667 284.408L765.107 285.272C766.163 283.032 768.019 281.88 770.451 281.88C773.171 281.88 775.379 283.608 775.379 286.68C775.379 288.888 773.715 291 771.763 293.016L763.539 301.464V303ZM788.806 303.352C794.182 303.352 797.19 298.712 797.19 291.8C797.19 284.888 794.182 280.248 788.806 280.248C783.43 280.248 780.422 284.888 780.422 291.8C780.422 298.712 783.43 303.352 788.806 303.352ZM788.806 301.72C784.646 301.72 782.15 298.072 782.15 291.8C782.15 285.528 784.646 281.88 788.806 281.88C792.966 281.88 795.462 285.528 795.462 291.8C795.462 298.072 792.966 301.72 788.806 301.72ZM799.945 303H814.025V301.368H802.377L809.321 294.232C811.593 291.928 813.513 289.464 813.513 286.68C813.513 282.52 810.281 280.248 806.857 280.248C803.945 280.248 801.417 281.656 800.073 284.408L801.513 285.272C802.569 283.032 804.425 281.88 806.857 281.88C809.577 281.88 811.785 283.608 811.785 286.68C811.785 288.888 810.121 291 808.169 293.016L799.945 301.464V303ZM824.444 289.912L829.82 282.2V280.6H816.924V282.2H827.868L822.204 290.232L822.94 291.352H823.42C826.748 291.352 829.18 293.304 829.18 296.536C829.18 299.768 826.748 301.72 823.484 301.72C820.668 301.72 818.588 300.504 817.756 298.264L816.348 299.096C817.436 301.848 820.22 303.352 823.484 303.352C827.452 303.352 830.876 300.856 830.876 296.536C830.876 292.6 827.996 290.264 824.444 289.912Z" fill="white"/>
<path d="M768.339 326.6L762.483 328.712L763.731 333.096L767.699 332.008V349H772.819V326.6H768.339ZM786.941 335.688L790.813 330.76V326.6H776.413V331.4H784.605L780.541 336.552L782.493 339.464H783.549C785.661 339.464 786.589 340.584 786.589 341.96C786.589 343.336 785.661 344.456 783.549 344.456C781.597 344.456 780.637 343.56 780.125 342.088L775.709 344.648C777.085 347.944 780.157 349.448 783.549 349.448C787.869 349.448 791.709 346.888 791.709 341.96C791.709 338.856 789.693 336.648 786.941 335.688ZM820.343 332.552C818.071 332.552 816.599 333.384 815.703 334.664C814.807 333.32 813.399 332.552 811.511 332.552C809.367 332.552 807.959 333.384 807.223 334.472V333H802.423V349H807.223V339.976C807.223 338.088 808.119 336.968 809.719 336.968C811.255 336.968 812.023 337.992 812.023 339.592V349H816.823V339.976C816.823 338.088 817.719 336.968 819.319 336.968C820.855 336.968 821.623 337.992 821.623 339.592V349H826.423V339.176C826.423 335.176 824.023 332.552 820.343 332.552ZM832.104 331.592C833.672 331.592 834.984 330.28 834.984 328.712C834.984 327.144 833.672 325.832 832.104 325.832C830.536 325.832 829.224 327.144 829.224 328.712C829.224 330.28 830.536 331.592 832.104 331.592ZM829.704 349H834.504V333H829.704V349ZM838.017 349H842.817V325.64H838.017V349ZM846.329 349H851.129V325.64H846.329V349ZM857.042 331.592C858.61 331.592 859.922 330.28 859.922 328.712C859.922 327.144 858.61 325.832 857.042 325.832C855.474 325.832 854.162 327.144 854.162 328.712C854.162 330.28 855.474 331.592 857.042 331.592ZM854.642 349H859.442V333H854.642V349ZM870.634 349.448C875.338 349.448 879.114 345.768 879.114 341C879.114 336.232 875.338 332.552 870.634 332.552C865.93 332.552 862.154 336.232 862.154 341C862.154 345.768 865.93 349.448 870.634 349.448ZM870.634 344.776C868.554 344.776 866.954 343.272 866.954 341C866.954 338.728 868.554 337.224 870.634 337.224C872.714 337.224 874.314 338.728 874.314 341C874.314 343.272 872.714 344.776 870.634 344.776ZM891.205 332.552C889.093 332.552 887.493 333.32 886.629 334.504V333H881.829V349H886.629V340.264C886.629 337.992 887.845 336.968 889.605 336.968C891.141 336.968 892.389 337.896 892.389 339.88V349H897.189V339.176C897.189 334.856 894.437 332.552 891.205 332.552ZM905.03 337.672C905.03 337.096 905.542 336.776 906.374 336.776C907.43 336.776 908.07 337.352 908.518 338.184L912.614 335.976C911.27 333.704 908.966 332.552 906.374 332.552C903.046 332.552 900.102 334.312 900.102 337.8C900.102 343.336 907.974 342.408 907.974 344.168C907.974 344.808 907.398 345.16 906.246 345.16C904.838 345.16 903.942 344.488 903.526 343.272L899.366 345.64C900.614 348.232 903.046 349.448 906.246 349.448C909.702 349.448 912.902 347.88 912.902 344.2C912.902 338.28 905.03 339.496 905.03 337.672ZM935.07 326.6V334.504C934.014 333.288 932.446 332.552 930.302 332.552C926.11 332.552 922.654 336.232 922.654 341C922.654 345.768 926.11 349.448 930.302 349.448C932.446 349.448 934.014 348.712 935.07 347.496V349H939.87V326.6H935.07ZM931.262 344.904C929.054 344.904 927.454 343.4 927.454 341C927.454 338.6 929.054 337.096 931.262 337.096C933.47 337.096 935.07 338.6 935.07 341C935.07 343.4 933.47 344.904 931.262 344.904ZM947.68 342.92H959.04C959.168 342.312 959.232 341.672 959.232 341C959.232 336.168 955.776 332.552 951.104 332.552C946.048 332.552 942.592 336.232 942.592 341C942.592 345.768 945.984 349.448 951.456 349.448C954.496 349.448 956.864 348.328 958.432 346.152L954.592 343.944C953.952 344.648 952.832 345.16 951.52 345.16C949.76 345.16 948.288 344.584 947.68 342.92ZM947.584 339.336C948.032 337.704 949.248 336.808 951.072 336.808C952.512 336.808 953.952 337.48 954.464 339.336H947.584ZM985.314 349L979.33 341L985.154 333H979.554L974.754 340.008V326.6H969.954V349H974.754V341.928L979.874 349H985.314ZM997.855 333V334.632C996.799 333.32 995.263 332.552 993.183 332.552C988.639 332.552 985.311 336.264 985.311 340.68C985.311 345.096 988.639 348.808 993.183 348.808C995.263 348.808 996.799 348.04 997.855 346.728V348.2C997.855 350.472 996.479 351.624 994.239 351.624C992.127 351.624 991.199 350.728 990.591 349.608L986.495 351.976C987.967 354.6 990.751 355.848 994.079 355.848C998.335 355.848 1002.53 353.576 1002.53 348.2V333H997.855ZM993.983 344.392C991.711 344.392 990.111 342.888 990.111 340.68C990.111 338.472 991.711 336.968 993.983 336.968C996.255 336.968 997.855 338.472 997.855 340.68C997.855 342.888 996.255 344.392 993.983 344.392Z" fill="#9FFFEC"/>
<path d="M770.323 384.22C774.363 384.22 777.543 381 777.543 377C777.543 373 774.363 369.78 770.323 369.78C766.283 369.78 763.103 373 763.103 377C763.103 381 766.283 384.22 770.323 384.22ZM770.323 383.2C766.863 383.2 764.163 380.44 764.163 377C764.163 373.56 766.863 370.8 770.323 370.8C773.783 370.8 776.483 373.56 776.483 377C776.483 380.44 773.783 383.2 770.323 383.2ZM785.331 373.78C783.391 373.78 781.851 374.78 781.031 376.32V370H780.031V384H781.031V381.68C781.851 383.22 783.391 384.22 785.331 384.22C788.191 384.22 790.511 381.96 790.511 379C790.511 376.04 788.191 373.78 785.331 373.78ZM785.271 383.26C782.891 383.26 781.031 381.38 781.031 379C781.031 376.62 782.891 374.74 785.271 374.74C787.651 374.74 789.511 376.62 789.511 379C789.511 381.38 787.651 383.26 785.271 383.26ZM793.509 370C793.069 370 792.709 370.36 792.709 370.78C792.709 371.22 793.069 371.58 793.509 371.58C793.949 371.58 794.309 371.22 794.309 370.78C794.309 370.36 793.949 370 793.509 370ZM793.009 385.14C793.009 386.74 792.269 387.42 790.689 387.26V388.22C792.849 388.42 794.009 387.26 794.009 385.14V374H793.009V385.14ZM801.582 373.78C798.522 373.78 796.402 376.06 796.402 379C796.402 382.02 798.582 384.22 801.662 384.22C803.642 384.22 805.202 383.32 806.022 381.96L805.142 381.44C804.562 382.5 803.322 383.26 801.682 383.26C799.402 383.26 797.682 381.78 797.442 379.52H806.502C806.502 379.36 806.522 379.2 806.522 379.04C806.522 376.3 804.622 373.78 801.582 373.78ZM801.582 374.74C803.542 374.74 805.262 376.1 805.482 378.54H797.442C797.642 376.32 799.302 374.74 801.582 374.74ZM813.439 384.22C815.399 384.22 817.079 383.22 817.879 381.68L817.039 381.18C816.379 382.42 815.059 383.26 813.439 383.26C811.019 383.26 809.199 381.38 809.199 379C809.199 376.62 811.019 374.74 813.439 374.74C815.039 374.74 816.399 375.56 816.979 376.82L817.799 376.34C817.079 374.78 815.399 373.78 813.439 373.78C810.419 373.78 808.179 376.04 808.179 379C808.179 381.96 810.419 384.22 813.439 384.22ZM825.19 374.98V374H822.21V371.2L821.19 371.5V374H818.99V374.98H821.19V381.48C821.19 383.76 822.57 384.4 825.19 384V383.1C823.15 383.28 822.21 383.24 822.21 381.48V374.98H825.19ZM828.09 371.58C828.53 371.58 828.89 371.22 828.89 370.78C828.89 370.36 828.53 370 828.09 370C827.65 370 827.29 370.36 827.29 370.78C827.29 371.22 827.65 371.58 828.09 371.58ZM827.59 384H828.59V374H827.59V384ZM836.392 370.74V369.78C833.772 369.58 832.392 371 832.392 373.46V374H830.672V374.98H832.392V384H833.412V374.98H836.392V374H833.412V373.46C833.412 371.52 834.352 370.58 836.392 370.74Z" fill="#BCC2C2"/>
<path d="M999.594 87H1013.67V85.368H1002.03L1008.97 78.232C1011.24 75.928 1013.16 73.464 1013.16 70.68C1013.16 66.52 1009.93 64.248 1006.51 64.248C1003.59 64.248 1001.07 65.656 999.722 68.408L1001.16 69.272C1002.22 67.032 1004.07 65.88 1006.51 65.88C1009.23 65.88 1011.43 67.608 1011.43 70.68C1011.43 72.888 1009.77 75 1007.82 77.016L999.594 85.464V87ZM1024.86 87.352C1030.24 87.352 1033.24 82.712 1033.24 75.8C1033.24 68.888 1030.24 64.248 1024.86 64.248C1019.48 64.248 1016.48 68.888 1016.48 75.8C1016.48 82.712 1019.48 87.352 1024.86 87.352ZM1024.86 85.72C1020.7 85.72 1018.2 82.072 1018.2 75.8C1018.2 69.528 1020.7 65.88 1024.86 65.88C1029.02 65.88 1031.52 69.528 1031.52 75.8C1031.52 82.072 1029.02 85.72 1024.86 85.72ZM1036 87H1050.08V85.368H1038.43L1045.38 78.232C1047.65 75.928 1049.57 73.464 1049.57 70.68C1049.57 66.52 1046.34 64.248 1042.91 64.248C1040 64.248 1037.47 65.656 1036.13 68.408L1037.57 69.272C1038.62 67.032 1040.48 65.88 1042.91 65.88C1045.63 65.88 1047.84 67.608 1047.84 70.68C1047.84 72.888 1046.18 75 1044.22 77.016L1036 85.464V87ZM1068.41 80.696H1065.53V73.656H1063.83V80.696H1053.66L1062.14 64.6H1060.28L1051.77 80.696V82.296H1063.83V87H1065.53V82.296H1068.41V80.696Z" fill="white"/>
<path d="M1007.34 118.472H1005.51L1005.74 115.4H1013.9V110.6H1000.94L1000.01 123.464H1007.02C1008.97 123.464 1009.9 124.584 1009.9 125.96C1009.9 127.336 1008.97 128.456 1006.86 128.456C1004.75 128.456 1003.79 127.56 1003.27 126.088L998.858 128.648C1000.23 131.944 1003.31 133.448 1006.86 133.448C1011.18 133.448 1015.02 130.888 1015.02 125.96C1015.02 121.032 1011.5 118.472 1007.34 118.472ZM1034.05 124.68H1031.81V119.88H1026.63V124.68H1021.96L1029.09 110.6H1023.59L1016.45 124.68V129.416H1026.63V133H1031.81V129.416H1034.05V124.68ZM1062.05 116.552C1059.78 116.552 1058.31 117.384 1057.41 118.664C1056.52 117.32 1055.11 116.552 1053.22 116.552C1051.08 116.552 1049.67 117.384 1048.93 118.472V117H1044.13V133H1048.93V123.976C1048.93 122.088 1049.83 120.968 1051.43 120.968C1052.97 120.968 1053.73 121.992 1053.73 123.592V133H1058.53V123.976C1058.53 122.088 1059.43 120.968 1061.03 120.968C1062.57 120.968 1063.33 121.992 1063.33 123.592V133H1068.13V123.176C1068.13 119.176 1065.73 116.552 1062.05 116.552ZM1073.82 115.592C1075.38 115.592 1076.7 114.28 1076.7 112.712C1076.7 111.144 1075.38 109.832 1073.82 109.832C1072.25 109.832 1070.94 111.144 1070.94 112.712C1070.94 114.28 1072.25 115.592 1073.82 115.592ZM1071.42 133H1076.22V117H1071.42V133ZM1079.73 133H1084.53V109.64H1079.73V133ZM1088.04 133H1092.84V109.64H1088.04V133ZM1098.75 115.592C1100.32 115.592 1101.63 114.28 1101.63 112.712C1101.63 111.144 1100.32 109.832 1098.75 109.832C1097.18 109.832 1095.87 111.144 1095.87 112.712C1095.87 114.28 1097.18 115.592 1098.75 115.592ZM1096.35 133H1101.15V117H1096.35V133ZM1112.35 133.448C1117.05 133.448 1120.83 129.768 1120.83 125C1120.83 120.232 1117.05 116.552 1112.35 116.552C1107.64 116.552 1103.87 120.232 1103.87 125C1103.87 129.768 1107.64 133.448 1112.35 133.448ZM1112.35 128.776C1110.27 128.776 1108.67 127.272 1108.67 125C1108.67 122.728 1110.27 121.224 1112.35 121.224C1114.43 121.224 1116.03 122.728 1116.03 125C1116.03 127.272 1114.43 128.776 1112.35 128.776ZM1132.92 116.552C1130.8 116.552 1129.2 117.32 1128.34 118.504V117H1123.54V133H1128.34V124.264C1128.34 121.992 1129.56 120.968 1131.32 120.968C1132.85 120.968 1134.1 121.896 1134.1 123.88V133H1138.9V123.176C1138.9 118.856 1136.15 116.552 1132.92 116.552ZM1146.74 121.672C1146.74 121.096 1147.25 120.776 1148.08 120.776C1149.14 120.776 1149.78 121.352 1150.23 122.184L1154.32 119.976C1152.98 117.704 1150.68 116.552 1148.08 116.552C1144.76 116.552 1141.81 118.312 1141.81 121.8C1141.81 127.336 1149.68 126.408 1149.68 128.168C1149.68 128.808 1149.11 129.16 1147.96 129.16C1146.55 129.16 1145.65 128.488 1145.24 127.272L1141.08 129.64C1142.32 132.232 1144.76 133.448 1147.96 133.448C1151.41 133.448 1154.61 131.88 1154.61 128.2C1154.61 122.28 1146.74 123.496 1146.74 121.672ZM1176.78 110.6V118.504C1175.73 117.288 1174.16 116.552 1172.01 116.552C1167.82 116.552 1164.37 120.232 1164.37 125C1164.37 129.768 1167.82 133.448 1172.01 133.448C1174.16 133.448 1175.73 132.712 1176.78 131.496V133H1181.58V110.6H1176.78ZM1172.97 128.904C1170.77 128.904 1169.17 127.4 1169.17 125C1169.17 122.6 1170.77 121.096 1172.97 121.096C1175.18 121.096 1176.78 122.6 1176.78 125C1176.78 127.4 1175.18 128.904 1172.97 128.904ZM1189.39 126.92H1200.75C1200.88 126.312 1200.94 125.672 1200.94 125C1200.94 120.168 1197.49 116.552 1192.81 116.552C1187.76 116.552 1184.3 120.232 1184.3 125C1184.3 129.768 1187.69 133.448 1193.17 133.448C1196.21 133.448 1198.57 132.328 1200.14 130.152L1196.3 127.944C1195.66 128.648 1194.54 129.16 1193.23 129.16C1191.47 129.16 1190 128.584 1189.39 126.92ZM1189.29 123.336C1189.74 121.704 1190.96 120.808 1192.78 120.808C1194.22 120.808 1195.66 121.48 1196.17 123.336H1189.29ZM1227.03 133L1221.04 125L1226.87 117H1221.27L1216.47 124.008V110.6H1211.67V133H1216.47V125.928L1221.59 133H1227.03ZM1239.57 117V118.632C1238.51 117.32 1236.97 116.552 1234.89 116.552C1230.35 116.552 1227.02 120.264 1227.02 124.68C1227.02 129.096 1230.35 132.808 1234.89 132.808C1236.97 132.808 1238.51 132.04 1239.57 130.728V132.2C1239.57 134.472 1238.19 135.624 1235.95 135.624C1233.84 135.624 1232.91 134.728 1232.3 133.608L1228.21 135.976C1229.68 138.6 1232.46 139.848 1235.79 139.848C1240.05 139.848 1244.24 137.576 1244.24 132.2V117H1239.57ZM1235.69 128.392C1233.42 128.392 1231.82 126.888 1231.82 124.68C1231.82 122.472 1233.42 120.968 1235.69 120.968C1237.97 120.968 1239.57 122.472 1239.57 124.68C1239.57 126.888 1237.97 128.392 1235.69 128.392Z" fill="#9FFFEC"/>
<path d="M1006.38 168.22C1010.42 168.22 1013.6 165 1013.6 161C1013.6 157 1010.42 153.78 1006.38 153.78C1002.34 153.78 999.158 157 999.158 161C999.158 165 1002.34 168.22 1006.38 168.22ZM1006.38 167.2C1002.92 167.2 1000.22 164.44 1000.22 161C1000.22 157.56 1002.92 154.8 1006.38 154.8C1009.84 154.8 1012.54 157.56 1012.54 161C1012.54 164.44 1009.84 167.2 1006.38 167.2ZM1021.39 157.78C1019.45 157.78 1017.91 158.78 1017.09 160.32V154H1016.09V168H1017.09V165.68C1017.91 167.22 1019.45 168.22 1021.39 168.22C1024.25 168.22 1026.57 165.96 1026.57 163C1026.57 160.04 1024.25 157.78 1021.39 157.78ZM1021.33 167.26C1018.95 167.26 1017.09 165.38 1017.09 163C1017.09 160.62 1018.95 158.74 1021.33 158.74C1023.71 158.74 1025.57 160.62 1025.57 163C1025.57 165.38 1023.71 167.26 1021.33 167.26ZM1029.56 154C1029.12 154 1028.76 154.36 1028.76 154.78C1028.76 155.22 1029.12 155.58 1029.56 155.58C1030 155.58 1030.36 155.22 1030.36 154.78C1030.36 154.36 1030 154 1029.56 154ZM1029.06 169.14C1029.06 170.74 1028.32 171.42 1026.74 171.26V172.22C1028.9 172.42 1030.06 171.26 1030.06 169.14V158H1029.06V169.14ZM1037.64 157.78C1034.58 157.78 1032.46 160.06 1032.46 163C1032.46 166.02 1034.64 168.22 1037.72 168.22C1039.7 168.22 1041.26 167.32 1042.08 165.96L1041.2 165.44C1040.62 166.5 1039.38 167.26 1037.74 167.26C1035.46 167.26 1033.74 165.78 1033.5 163.52H1042.56C1042.56 163.36 1042.58 163.2 1042.58 163.04C1042.58 160.3 1040.68 157.78 1037.64 157.78ZM1037.64 158.74C1039.6 158.74 1041.32 160.1 1041.54 162.54H1033.5C1033.7 160.32 1035.36 158.74 1037.64 158.74ZM1049.49 168.22C1051.45 168.22 1053.13 167.22 1053.93 165.68L1053.09 165.18C1052.43 166.42 1051.11 167.26 1049.49 167.26C1047.07 167.26 1045.25 165.38 1045.25 163C1045.25 160.62 1047.07 158.74 1049.49 158.74C1051.09 158.74 1052.45 159.56 1053.03 160.82L1053.85 160.34C1053.13 158.78 1051.45 157.78 1049.49 157.78C1046.47 157.78 1044.23 160.04 1044.23 163C1044.23 165.96 1046.47 168.22 1049.49 168.22ZM1061.24 158.98V158H1058.26V155.2L1057.24 155.5V158H1055.04V158.98H1057.24V165.48C1057.24 167.76 1058.62 168.4 1061.24 168V167.1C1059.2 167.28 1058.26 167.24 1058.26 165.48V158.98H1061.24ZM1064.14 155.58C1064.58 155.58 1064.94 155.22 1064.94 154.78C1064.94 154.36 1064.58 154 1064.14 154C1063.7 154 1063.34 154.36 1063.34 154.78C1063.34 155.22 1063.7 155.58 1064.14 155.58ZM1063.64 168H1064.64V158H1063.64V168ZM1072.45 154.74V153.78C1069.83 153.58 1068.45 155 1068.45 157.46V158H1066.73V158.98H1068.45V168H1069.47V158.98H1072.45V158H1069.47V157.46C1069.47 155.52 1070.41 154.58 1072.45 154.74Z" fill="#BCC2C2"/>
<defs>
<filter id="filter0_d_14051_26505" x="1012.3" y="0.191266" width="52.5037" height="52.504" filterUnits="userSpaceOnUse" color-interpolation-filters="sRGB">
<feFlood flood-opacity="0" result="BackgroundImageFix"/>
<feColorMatrix in="SourceAlpha" type="matrix" values="0 0 0 0 0 0 0 0 0 0 0 0 0 0 0 0 0 0 127 0" result="hardAlpha"/>
<feOffset dx="3.88918" dy="3.88918"/>
<feGaussianBlur stdDeviation="3.40304"/>
<feColorMatrix type="matrix" values="0 0 0 0 0 0 0 0 0 0 0 0 0 0 0 0 0 0 0.1 0"/>
<feBlend mode="normal" in2="BackgroundImageFix" result="effect1_dropShadow_14051_26505"/>
<feBlend mode="normal" in="SourceGraphic" in2="effect1_dropShadow_14051_26505" result="shape"/>
</filter>
<filter id="filter1_d_14051_26505" x="0.0831118" y="344.191" width="52.5037" height="52.504" filterUnits="userSpaceOnUse" color-interpolation-filters="sRGB">
<feFlood flood-opacity="0" result="BackgroundImageFix"/>
<feColorMatrix in="SourceAlpha" type="matrix" values="0 0 0 0 0 0 0 0 0 0 0 0 0 0 0 0 0 0 127 0" result="hardAlpha"/>
<feOffset dx="3.88918" dy="3.88918"/>
<feGaussianBlur stdDeviation="3.40304"/>
<feColorMatrix type="matrix" values="0 0 0 0 0 0 0 0 0 0 0 0 0 0 0 0 0 0 0.1 0"/>
<feBlend mode="normal" in2="BackgroundImageFix" result="effect1_dropShadow_14051_26505"/>
<feBlend mode="normal" in="SourceGraphic" in2="effect1_dropShadow_14051_26505" result="shape"/>
</filter>
<filter id="filter2_d_14051_26505" x="253.138" y="344.191" width="52.5037" height="52.504" filterUnits="userSpaceOnUse" color-interpolation-filters="sRGB">
<feFlood flood-opacity="0" result="BackgroundImageFix"/>
<feColorMatrix in="SourceAlpha" type="matrix" values="0 0 0 0 0 0 0 0 0 0 0 0 0 0 0 0 0 0 127 0" result="hardAlpha"/>
<feOffset dx="3.88918" dy="3.88918"/>
<feGaussianBlur stdDeviation="3.40304"/>
<feColorMatrix type="matrix" values="0 0 0 0 0 0 0 0 0 0 0 0 0 0 0 0 0 0 0.1 0"/>
<feBlend mode="normal" in2="BackgroundImageFix" result="effect1_dropShadow_14051_26505"/>
<feBlend mode="normal" in="SourceGraphic" in2="effect1_dropShadow_14051_26505" result="shape"/>
</filter>
<filter id="filter3_d_14051_26505" x="506.083" y="317.083" width="52.5037" height="52.504" filterUnits="userSpaceOnUse" color-interpolation-filters="sRGB">
<feFlood flood-opacity="0" result="BackgroundImageFix"/>
<feColorMatrix in="SourceAlpha" type="matrix" values="0 0 0 0 0 0 0 0 0 0 0 0 0 0 0 0 0 0 127 0" result="hardAlpha"/>
<feOffset dx="3.88918" dy="3.88918"/>
<feGaussianBlur stdDeviation="3.40304"/>
<feColorMatrix type="matrix" values="0 0 0 0 0 0 0 0 0 0 0 0 0 0 0 0 0 0 0.1 0"/>
<feBlend mode="normal" in2="BackgroundImageFix" result="effect1_dropShadow_14051_26505"/>
<feBlend mode="normal" in="SourceGraphic" in2="effect1_dropShadow_14051_26505" result="shape"/>
</filter>
<filter id="filter4_d_14051_26505" x="759.247" y="215.083" width="52.5037" height="52.504" filterUnits="userSpaceOnUse" color-interpolation-filters="sRGB">
<feFlood flood-opacity="0" result="BackgroundImageFix"/>
<feColorMatrix in="SourceAlpha" type="matrix" values="0 0 0 0 0 0 0 0 0 0 0 0 0 0 0 0 0 0 127 0" result="hardAlpha"/>
<feOffset dx="3.88918" dy="3.88918"/>
<feGaussianBlur stdDeviation="3.40304"/>
<feColorMatrix type="matrix" values="0 0 0 0 0 0 0 0 0 0 0 0 0 0 0 0 0 0 0.1 0"/>
<feBlend mode="normal" in2="BackgroundImageFix" result="effect1_dropShadow_14051_26505"/>
<feBlend mode="normal" in="SourceGraphic" in2="effect1_dropShadow_14051_26505" result="shape"/>
</filter>
</defs>
</svg>
