<svg width="1266" height="563" viewBox="0 0 1266 563" fill="none" xmlns="http://www.w3.org/2000/svg">
<path d="M20.0625 367.281H273.434L531 340" stroke="white" stroke-width="7.01907"/>
<path d="M528 339L782.881 238.304L1035.33 18.7061" stroke="white" stroke-width="7.01907" stroke-dasharray="8 16"/>
<g filter="url(#filter0_d_14070_26504)">
<circle cx="1034.66" cy="22.5541" r="19.4459" fill="#9FFFEC"/>
<circle cx="1034.67" cy="22.555" r="11.6676" fill="white"/>
</g>
<g filter="url(#filter1_d_14070_26504)">
<circle cx="22.4459" cy="366.554" r="19.4459" fill="#9FFFEC"/>
<circle cx="22.4459" cy="366.555" r="11.6676" fill="white"/>
</g>
<g filter="url(#filter2_d_14070_26504)">
<circle cx="275.501" cy="366.554" r="19.4459" fill="#9FFFEC"/>
<circle cx="275.501" cy="366.555" r="11.6676" fill="white"/>
</g>
<g filter="url(#filter3_d_14070_26504)">
<circle cx="528.446" cy="339.446" r="19.4459" fill="#9FFFEC"/>
<circle cx="528.446" cy="339.447" r="11.6676" fill="white"/>
</g>
<g filter="url(#filter4_d_14070_26504)">
<circle cx="781.61" cy="237.446" r="19.4459" fill="#9FFFEC"/>
<circle cx="781.61" cy="237.447" r="11.6676" fill="white"/>
</g>
<path d="M4.376 431H18.456V429.368H6.808L13.752 422.232C16.024 419.928 17.944 417.464 17.944 414.68C17.944 410.52 14.712 408.248 11.288 408.248C8.376 408.248 5.848 409.656 4.504 412.408L5.944 413.272C7 411.032 8.856 409.88 11.288 409.88C14.008 409.88 16.216 411.608 16.216 414.68C16.216 416.888 14.552 419 12.6 421.016L4.376 429.464V431ZM29.6425 431.352C35.0185 431.352 38.0265 426.712 38.0265 419.8C38.0265 412.888 35.0185 408.248 29.6425 408.248C24.2665 408.248 21.2585 412.888 21.2585 419.8C21.2585 426.712 24.2665 431.352 29.6425 431.352ZM29.6425 429.72C25.4825 429.72 22.9865 426.072 22.9865 419.8C22.9865 413.528 25.4825 409.88 29.6425 409.88C33.8025 409.88 36.2985 413.528 36.2985 419.8C36.2985 426.072 33.8025 429.72 29.6425 429.72ZM40.7823 431H54.8623V429.368H43.2143L50.1583 422.232C52.4303 419.928 54.3503 417.464 54.3503 414.68C54.3503 410.52 51.1183 408.248 47.6943 408.248C44.7823 408.248 42.2543 409.656 40.9103 412.408L42.3503 413.272C43.4062 411.032 45.2623 409.88 47.6943 409.88C50.4143 409.88 52.6223 411.608 52.6223 414.68C52.6223 416.888 50.9583 419 49.0063 421.016L40.7823 429.464V431ZM66.0488 431.352C71.4248 431.352 74.4328 426.712 74.4328 419.8C74.4328 412.888 71.4248 408.248 66.0488 408.248C60.6727 408.248 57.6648 412.888 57.6648 419.8C57.6648 426.712 60.6727 431.352 66.0488 431.352ZM66.0488 429.72C61.8888 429.72 59.3928 426.072 59.3928 419.8C59.3928 413.528 61.8888 409.88 66.0488 409.88C70.2088 409.88 72.7048 413.528 72.7048 419.8C72.7048 426.072 70.2088 429.72 66.0488 429.72Z" fill="white"/>
<path d="M13.08 477.448C18.872 477.448 22.2 472.712 22.2 465.8C22.2 458.888 18.872 454.152 13.08 454.152C7.288 454.152 3.96 458.888 3.96 465.8C3.96 472.712 7.288 477.448 13.08 477.448ZM13.08 472.456C10.392 472.456 9.08 470.12 9.08 465.8C9.08 461.48 10.392 459.144 13.08 459.144C15.768 459.144 17.08 461.48 17.08 465.8C17.08 470.12 15.768 472.456 13.08 472.456ZM48.2763 477L42.2923 469L48.1163 461H42.5163L37.7163 468.008V454.6H32.9163V477H37.7163V469.928L42.8363 477H48.2763ZM60.8165 461V462.632C59.7605 461.32 58.2245 460.552 56.1445 460.552C51.6005 460.552 48.2725 464.264 48.2725 468.68C48.2725 473.096 51.6005 476.808 56.1445 476.808C58.2245 476.808 59.7605 476.04 60.8165 474.728V476.2C60.8165 478.472 59.4405 479.624 57.2005 479.624C55.0885 479.624 54.1605 478.728 53.5525 477.608L49.4565 479.976C50.9285 482.6 53.7125 483.848 57.0405 483.848C61.2965 483.848 65.4885 481.576 65.4885 476.2V461H60.8165ZM56.9445 472.392C54.6725 472.392 53.0725 470.888 53.0725 468.68C53.0725 466.472 54.6725 464.968 56.9445 464.968C59.2165 464.968 60.8165 466.472 60.8165 468.68C60.8165 470.888 59.2165 472.392 56.9445 472.392Z" fill="#9FFFEC"/>
<path d="M5.8 511V498H4.74V512H12.4V511H5.8ZM22.6955 502V504.26C21.8555 502.76 20.3155 501.78 18.3955 501.78C15.5555 501.78 13.2155 504.04 13.2155 507C13.2155 509.96 15.5555 512.22 18.3955 512.22C20.3155 512.22 21.8555 511.24 22.6955 509.74V512H23.7155V502H22.6955ZM18.4755 511.26C16.0955 511.26 14.2355 509.38 14.2355 507C14.2355 504.62 16.0955 502.74 18.4755 502.74C20.8555 502.74 22.6955 504.62 22.6955 507C22.6955 509.38 20.8555 511.26 18.4755 511.26ZM33.9861 502V507.28C33.9861 509.98 32.4461 511.26 30.4861 511.26C28.6061 511.26 27.5461 510.06 27.5461 508.22V502H26.5261V508.22C26.5261 510.64 28.0261 512.22 30.4061 512.22C31.9461 512.22 33.2261 511.58 33.9861 510.1V512H34.9861V502H33.9861ZM42.6552 501.78C41.1152 501.78 39.8352 502.42 39.0752 503.9V502H38.0752V512H39.0752V506.72C39.0752 504.02 40.6152 502.74 42.5752 502.74C44.4552 502.74 45.5152 503.94 45.5152 505.78V512H46.5352V505.78C46.5352 503.36 45.0352 501.78 42.6552 501.78ZM53.9442 512.22C55.9042 512.22 57.5842 511.22 58.3842 509.68L57.5442 509.18C56.8842 510.42 55.5642 511.26 53.9442 511.26C51.5242 511.26 49.7042 509.38 49.7042 507C49.7042 504.62 51.5242 502.74 53.9442 502.74C55.5442 502.74 56.9042 503.56 57.4842 504.82L58.3042 504.34C57.5842 502.78 55.9042 501.78 53.9442 501.78C50.9242 501.78 48.6842 504.04 48.6842 507C48.6842 509.96 50.9242 512.22 53.9442 512.22ZM65.1552 501.78C63.6152 501.78 62.3352 502.42 61.5752 503.9V498H60.5752V512H61.5752V506.72C61.5752 504.02 63.1152 502.74 65.0752 502.74C66.9552 502.74 68.0152 503.94 68.0152 505.78V512H69.0352V505.78C69.0352 503.36 67.5352 501.78 65.1552 501.78ZM81.7763 512.22C84.6763 512.22 87.0163 509.96 87.0163 507C87.0163 504.04 84.6763 501.78 81.7763 501.78C78.8563 501.78 76.5163 504.04 76.5163 507C76.5163 509.96 78.8563 512.22 81.7763 512.22ZM81.7763 511.26C79.3963 511.26 77.5363 509.38 77.5363 507C77.5363 504.62 79.3963 502.74 81.7763 502.74C84.1563 502.74 85.9963 504.62 85.9963 507C85.9963 509.38 84.1563 511.26 81.7763 511.26ZM93.7522 498.74V497.78C91.1322 497.58 89.7522 499 89.7522 501.46V502H88.0322V502.98H89.7522V512H90.7722V502.98H93.7522V502H90.7722V501.46C90.7722 499.52 91.7122 498.58 93.7522 498.74ZM9.26 521.74V520.78C6.64 520.58 5.26 522 5.26 524.46V525H3.54V525.98H5.26V535H6.28V525.98H9.26V525H6.28V524.46C6.28 522.52 7.22 521.58 9.26 521.74ZM18.0095 525V530.28C18.0095 532.98 16.4695 534.26 14.5095 534.26C12.6295 534.26 11.5695 533.06 11.5695 531.22V525H10.5495V531.22C10.5495 533.64 12.0495 535.22 14.4295 535.22C15.9695 535.22 17.2495 534.58 18.0095 533.1V535H19.0095V525H18.0095ZM26.6786 524.78C25.1386 524.78 23.8586 525.42 23.0986 526.9V525H22.0986V535H23.0986V529.72C23.0986 527.02 24.6386 525.74 26.5986 525.74C28.4786 525.74 29.5386 526.94 29.5386 528.78V535H30.5586V528.78C30.5586 526.36 29.0586 524.78 26.6786 524.78ZM42.2077 521V527.32C41.3877 525.78 39.8477 524.78 37.9077 524.78C35.0477 524.78 32.7277 527.04 32.7277 530C32.7277 532.96 35.0477 535.22 37.9077 535.22C39.8477 535.22 41.3877 534.22 42.2077 532.68V535H43.2077V521H42.2077ZM37.9677 534.26C35.5877 534.26 33.7277 532.38 33.7277 530C33.7277 527.62 35.5877 525.74 37.9677 525.74C40.3477 525.74 42.2077 527.62 42.2077 530C42.2077 532.38 40.3477 534.26 37.9677 534.26ZM47.2783 526.96V525H46.2783V535H47.2783V529.44C47.2783 526.88 48.8983 525.82 50.6183 525.82V524.86C49.2583 524.86 47.9583 525.38 47.2783 526.96ZM60.84 525V527.26C60 525.76 58.46 524.78 56.54 524.78C53.7 524.78 51.36 527.04 51.36 530C51.36 532.96 53.7 535.22 56.54 535.22C58.46 535.22 60 534.24 60.84 532.74V535H61.86V525H60.84ZM56.62 534.26C54.24 534.26 52.38 532.38 52.38 530C52.38 527.62 54.24 525.74 56.62 525.74C59 525.74 60.84 527.62 60.84 530C60.84 532.38 59 534.26 56.62 534.26ZM65.4306 522.58C65.8706 522.58 66.2306 522.22 66.2306 521.78C66.2306 521.36 65.8706 521 65.4306 521C64.9906 521 64.6306 521.36 64.6306 521.78C64.6306 522.22 64.9906 522.58 65.4306 522.58ZM64.9306 535H65.9306V525H64.9306V535ZM69.6927 527.62C69.6927 526.42 70.7927 525.74 72.0927 525.74C73.1927 525.74 74.2327 526.22 74.6527 527.26L75.4927 526.78C74.9527 525.56 73.7127 524.78 72.0927 524.78C70.0527 524.78 68.6927 526.04 68.6927 527.62C68.6927 531.22 74.7527 529.66 74.7527 532.38C74.7527 533.64 73.5727 534.26 72.1727 534.26C70.6727 534.26 69.5927 533.58 69.2327 532.5L68.3727 533C68.8527 534.28 70.1727 535.22 72.1727 535.22C74.3127 535.22 75.7527 534.02 75.7527 532.38C75.7527 528.72 69.6927 530.3 69.6927 527.62ZM78.5752 522.58C79.0152 522.58 79.3752 522.22 79.3752 521.78C79.3752 521.36 79.0152 521 78.5752 521C78.1352 521 77.7752 521.36 77.7752 521.78C77.7752 522.22 78.1352 522.58 78.5752 522.58ZM78.0752 535H79.0752V525H78.0752V535ZM86.7372 524.78C85.1972 524.78 83.9172 525.42 83.1572 526.9V525H82.1572V535H83.1572V529.72C83.1572 527.02 84.6972 525.74 86.6572 525.74C88.5372 525.74 89.5972 526.94 89.5972 528.78V535H90.6172V528.78C90.6172 526.36 89.1172 524.78 86.7372 524.78ZM102.326 525V527.32C101.506 525.78 99.9663 524.78 98.0263 524.78C95.1663 524.78 92.8463 527.04 92.8463 530C92.8463 532.96 95.1663 535.22 98.0263 535.22C99.9663 535.22 101.506 534.22 102.326 532.68V534.52C102.326 536.8 100.846 538.26 98.3463 538.26C96.1463 538.26 95.0263 537.38 94.5063 536.32L93.6263 536.82C94.3463 538.28 96.0063 539.22 98.3463 539.22C101.106 539.22 103.326 537.52 103.326 534.52V525H102.326ZM98.0863 534.26C95.7063 534.26 93.8463 532.38 93.8463 530C93.8463 527.62 95.7063 525.74 98.0863 525.74C100.466 525.74 102.326 527.62 102.326 530C102.326 532.38 100.466 534.26 98.0863 534.26Z" fill="#BCC2C2"/>
<path d="M257.43 431H271.51V429.368H259.862L266.806 422.232C269.078 419.928 270.998 417.464 270.998 414.68C270.998 410.52 267.766 408.248 264.342 408.248C261.43 408.248 258.902 409.656 257.558 412.408L258.998 413.272C260.054 411.032 261.91 409.88 264.342 409.88C267.062 409.88 269.27 411.608 269.27 414.68C269.27 416.888 267.606 419 265.654 421.016L257.43 429.464V431ZM282.696 431.352C288.072 431.352 291.08 426.712 291.08 419.8C291.08 412.888 288.072 408.248 282.696 408.248C277.32 408.248 274.312 412.888 274.312 419.8C274.312 426.712 277.32 431.352 282.696 431.352ZM282.696 429.72C278.536 429.72 276.04 426.072 276.04 419.8C276.04 413.528 278.536 409.88 282.696 409.88C286.856 409.88 289.352 413.528 289.352 419.8C289.352 426.072 286.856 429.72 282.696 429.72ZM293.836 431H307.916V429.368H296.268L303.212 422.232C305.484 419.928 307.404 417.464 307.404 414.68C307.404 410.52 304.172 408.248 300.748 408.248C297.836 408.248 295.308 409.656 293.964 412.408L295.404 413.272C296.46 411.032 298.316 409.88 300.748 409.88C303.468 409.88 305.676 411.608 305.676 414.68C305.676 416.888 304.012 419 302.06 421.016L293.836 429.464V431ZM315.735 408.6L309.879 410.616L310.295 412.088L315.479 410.456V431H317.175V408.6H315.735Z" fill="white"/>
<path d="M266.134 477.448C271.926 477.448 275.254 472.712 275.254 465.8C275.254 458.888 271.926 454.152 266.134 454.152C260.342 454.152 257.014 458.888 257.014 465.8C257.014 472.712 260.342 477.448 266.134 477.448ZM266.134 472.456C263.446 472.456 262.134 470.12 262.134 465.8C262.134 461.48 263.446 459.144 266.134 459.144C268.822 459.144 270.134 461.48 270.134 465.8C270.134 470.12 268.822 472.456 266.134 472.456ZM301.33 477L295.346 469L301.17 461H295.57L290.77 468.008V454.6H285.97V477H290.77V469.928L295.89 477H301.33ZM313.87 461V462.632C312.814 461.32 311.278 460.552 309.198 460.552C304.654 460.552 301.326 464.264 301.326 468.68C301.326 473.096 304.654 476.808 309.198 476.808C311.278 476.808 312.814 476.04 313.87 474.728V476.2C313.87 478.472 312.494 479.624 310.254 479.624C308.142 479.624 307.214 478.728 306.606 477.608L302.51 479.976C303.982 482.6 306.766 483.848 310.094 483.848C314.35 483.848 318.542 481.576 318.542 476.2V461H313.87ZM309.998 472.392C307.726 472.392 306.126 470.888 306.126 468.68C306.126 466.472 307.726 464.968 309.998 464.968C312.27 464.968 313.87 466.472 313.87 468.68C313.87 470.888 312.27 472.392 309.998 472.392Z" fill="#9FFFEC"/>
<path d="M265.554 499V498H257.794V512H258.854V505.6H265.314V504.6H258.854V499H265.554ZM268.445 499.58C268.885 499.58 269.245 499.22 269.245 498.78C269.245 498.36 268.885 498 268.445 498C268.005 498 267.645 498.36 267.645 498.78C267.645 499.22 268.005 499.58 268.445 499.58ZM267.945 512H268.945V502H267.945V512ZM273.027 503.96V502H272.027V512H273.027V506.44C273.027 503.88 274.647 502.82 276.367 502.82V501.86C275.007 501.86 273.707 502.38 273.027 503.96ZM278.684 504.62C278.684 503.42 279.784 502.74 281.084 502.74C282.184 502.74 283.224 503.22 283.644 504.26L284.484 503.78C283.944 502.56 282.704 501.78 281.084 501.78C279.044 501.78 277.684 503.04 277.684 504.62C277.684 508.22 283.744 506.66 283.744 509.38C283.744 510.64 282.564 511.26 281.164 511.26C279.664 511.26 278.584 510.58 278.224 509.5L277.364 510C277.844 511.28 279.164 512.22 281.164 512.22C283.304 512.22 284.744 511.02 284.744 509.38C284.744 505.72 278.684 507.3 278.684 504.62ZM291.893 502.98V502H288.913V499.2L287.893 499.5V502H285.693V502.98H287.893V509.48C287.893 511.76 289.273 512.4 291.893 512V511.1C289.853 511.28 288.913 511.24 288.913 509.48V502.98H291.893ZM304.345 498.74V497.78C301.725 497.58 300.345 499 300.345 501.46V502H298.625V502.98H300.345V512H301.365V502.98H304.345V502H301.365V501.46C301.365 499.52 302.305 498.58 304.345 498.74ZM313.094 502V507.28C313.094 509.98 311.554 511.26 309.594 511.26C307.714 511.26 306.654 510.06 306.654 508.22V502H305.634V508.22C305.634 510.64 307.134 512.22 309.514 512.22C311.054 512.22 312.334 511.58 313.094 510.1V512H314.094V502H313.094ZM321.764 501.78C320.224 501.78 318.944 502.42 318.184 503.9V502H317.184V512H318.184V506.72C318.184 504.02 319.724 502.74 321.684 502.74C323.564 502.74 324.624 503.94 324.624 505.78V512H325.644V505.78C325.644 503.36 324.144 501.78 321.764 501.78ZM337.293 498V504.32C336.473 502.78 334.933 501.78 332.993 501.78C330.133 501.78 327.813 504.04 327.813 507C327.813 509.96 330.133 512.22 332.993 512.22C334.933 512.22 336.473 511.22 337.293 509.68V512H338.293V498H337.293ZM333.053 511.26C330.673 511.26 328.813 509.38 328.813 507C328.813 504.62 330.673 502.74 333.053 502.74C335.433 502.74 337.293 504.62 337.293 507C337.293 509.38 335.433 511.26 333.053 511.26ZM341.863 499.58C342.303 499.58 342.663 499.22 342.663 498.78C342.663 498.36 342.303 498 341.863 498C341.423 498 341.063 498.36 341.063 498.78C341.063 499.22 341.423 499.58 341.863 499.58ZM341.363 512H342.363V502H341.363V512ZM350.025 501.78C348.485 501.78 347.205 502.42 346.445 503.9V502H345.445V512H346.445V506.72C346.445 504.02 347.985 502.74 349.945 502.74C351.825 502.74 352.885 503.94 352.885 505.78V512H353.905V505.78C353.905 503.36 352.405 501.78 350.025 501.78ZM365.614 502V504.32C364.794 502.78 363.254 501.78 361.314 501.78C358.454 501.78 356.134 504.04 356.134 507C356.134 509.96 358.454 512.22 361.314 512.22C363.254 512.22 364.794 511.22 365.614 509.68V511.52C365.614 513.8 364.134 515.26 361.634 515.26C359.434 515.26 358.314 514.38 357.794 513.32L356.914 513.82C357.634 515.28 359.294 516.22 361.634 516.22C364.394 516.22 366.614 514.52 366.614 511.52V502H365.614ZM361.374 511.26C358.994 511.26 357.134 509.38 357.134 507C357.134 504.62 358.994 502.74 361.374 502.74C363.754 502.74 365.614 504.62 365.614 507C365.614 509.38 363.754 511.26 361.374 511.26ZM370.383 504.62C370.383 503.42 371.483 502.74 372.783 502.74C373.883 502.74 374.923 503.22 375.343 504.26L376.183 503.78C375.643 502.56 374.403 501.78 372.783 501.78C370.743 501.78 369.383 503.04 369.383 504.62C369.383 508.22 375.443 506.66 375.443 509.38C375.443 510.64 374.263 511.26 372.863 511.26C371.363 511.26 370.283 510.58 369.923 509.5L369.063 510C369.543 511.28 370.863 512.22 372.863 512.22C375.003 512.22 376.443 511.02 376.443 509.38C376.443 505.72 370.383 507.3 370.383 504.62ZM262.174 535.22C265.074 535.22 267.414 532.96 267.414 530C267.414 527.04 265.074 524.78 262.174 524.78C259.254 524.78 256.914 527.04 256.914 530C256.914 532.96 259.254 535.22 262.174 535.22ZM262.174 534.26C259.794 534.26 257.934 532.38 257.934 530C257.934 527.62 259.794 525.74 262.174 525.74C264.554 525.74 266.394 527.62 266.394 530C266.394 532.38 264.554 534.26 262.174 534.26ZM274.15 521.74V520.78C271.53 520.58 270.15 522 270.15 524.46V525H268.43V525.98H270.15V535H271.17V525.98H274.15V525H271.17V524.46C271.17 522.52 272.11 521.58 274.15 521.74ZM281.531 522.58C281.971 522.58 282.331 522.22 282.331 521.78C282.331 521.36 281.971 521 281.531 521C281.091 521 280.731 521.36 280.731 521.78C280.731 522.22 281.091 522.58 281.531 522.58ZM281.031 535H282.031V525H281.031V535ZM289.693 524.78C288.153 524.78 286.873 525.42 286.113 526.9V525H285.113V535H286.113V529.72C286.113 527.02 287.653 525.74 289.613 525.74C291.493 525.74 292.553 526.94 292.553 528.78V535H293.573V528.78C293.573 526.36 292.073 524.78 289.693 524.78ZM300.982 524.78C299.442 524.78 298.162 525.42 297.402 526.9V525H296.402V535H297.402V529.72C297.402 527.02 298.942 525.74 300.902 525.74C302.782 525.74 303.842 526.94 303.842 528.78V535H304.862V528.78C304.862 526.36 303.362 524.78 300.982 524.78ZM312.271 535.22C315.171 535.22 317.511 532.96 317.511 530C317.511 527.04 315.171 524.78 312.271 524.78C309.351 524.78 307.011 527.04 307.011 530C307.011 532.96 309.351 535.22 312.271 535.22ZM312.271 534.26C309.891 534.26 308.031 532.38 308.031 530C308.031 527.62 309.891 525.74 312.271 525.74C314.651 525.74 316.491 527.62 316.491 530C316.491 532.38 314.651 534.26 312.271 534.26ZM326.867 525L323.087 533.96L319.327 525H318.247L322.487 535H323.707L327.927 525H326.867ZM338.152 525V527.26C337.312 525.76 335.772 524.78 333.852 524.78C331.012 524.78 328.672 527.04 328.672 530C328.672 532.96 331.012 535.22 333.852 535.22C335.772 535.22 337.312 534.24 338.152 532.74V535H339.172V525H338.152ZM333.932 534.26C331.552 534.26 329.692 532.38 329.692 530C329.692 527.62 331.552 525.74 333.932 525.74C336.312 525.74 338.152 527.62 338.152 530C338.152 532.38 336.312 534.26 333.932 534.26ZM347.362 525.98V525H344.382V522.2L343.362 522.5V525H341.162V525.98H343.362V532.48C343.362 534.76 344.742 535.4 347.362 535V534.1C345.322 534.28 344.382 534.24 344.382 532.48V525.98H347.362ZM350.262 522.58C350.702 522.58 351.062 522.22 351.062 521.78C351.062 521.36 350.702 521 350.262 521C349.822 521 349.462 521.36 349.462 521.78C349.462 522.22 349.822 522.58 350.262 522.58ZM349.762 535H350.762V525H349.762V535ZM358.424 535.22C361.324 535.22 363.664 532.96 363.664 530C363.664 527.04 361.324 524.78 358.424 524.78C355.504 524.78 353.164 527.04 353.164 530C353.164 532.96 355.504 535.22 358.424 535.22ZM358.424 534.26C356.044 534.26 354.184 532.38 354.184 530C354.184 527.62 356.044 525.74 358.424 525.74C360.804 525.74 362.644 527.62 362.644 530C362.644 532.38 360.804 534.26 358.424 534.26ZM370.65 524.78C369.11 524.78 367.83 525.42 367.07 526.9V525H366.07V535H367.07V529.72C367.07 527.02 368.61 525.74 370.57 525.74C372.45 525.74 373.51 526.94 373.51 528.78V535H374.53V528.78C374.53 526.36 373.03 524.78 370.65 524.78ZM378.039 527.62C378.039 526.42 379.139 525.74 380.439 525.74C381.539 525.74 382.579 526.22 382.999 527.26L383.839 526.78C383.299 525.56 382.059 524.78 380.439 524.78C378.399 524.78 377.039 526.04 377.039 527.62C377.039 531.22 383.099 529.66 383.099 532.38C383.099 533.64 381.919 534.26 380.519 534.26C379.019 534.26 377.939 533.58 377.579 532.5L376.719 533C377.199 534.28 378.519 535.22 380.519 535.22C382.659 535.22 384.099 534.02 384.099 532.38C384.099 528.72 378.039 530.3 378.039 527.62Z" fill="#BCC2C2"/>
<path d="M510.484 423H524.564V421.368H512.916L519.86 414.232C522.132 411.928 524.052 409.464 524.052 406.68C524.052 402.52 520.82 400.248 517.396 400.248C514.484 400.248 511.956 401.656 510.612 404.408L512.052 405.272C513.108 403.032 514.964 401.88 517.396 401.88C520.116 401.88 522.324 403.608 522.324 406.68C522.324 408.888 520.66 411 518.708 413.016L510.484 421.464V423ZM535.751 423.352C541.127 423.352 544.135 418.712 544.135 411.8C544.135 404.888 541.127 400.248 535.751 400.248C530.375 400.248 527.367 404.888 527.367 411.8C527.367 418.712 530.375 423.352 535.751 423.352ZM535.751 421.72C531.591 421.72 529.095 418.072 529.095 411.8C529.095 405.528 531.591 401.88 535.751 401.88C539.911 401.88 542.407 405.528 542.407 411.8C542.407 418.072 539.911 421.72 535.751 421.72ZM546.891 423H560.971V421.368H549.323L556.267 414.232C558.539 411.928 560.459 409.464 560.459 406.68C560.459 402.52 557.227 400.248 553.803 400.248C550.891 400.248 548.363 401.656 547.019 404.408L548.459 405.272C549.515 403.032 551.371 401.88 553.803 401.88C556.523 401.88 558.731 403.608 558.731 406.68C558.731 408.888 557.067 411 555.115 413.016L546.891 421.464V423ZM563.766 423H577.846V421.368H566.198L573.142 414.232C575.414 411.928 577.334 409.464 577.334 406.68C577.334 402.52 574.102 400.248 570.678 400.248C567.766 400.248 565.238 401.656 563.894 404.408L565.334 405.272C566.39 403.032 568.246 401.88 570.678 401.88C573.398 401.88 575.606 403.608 575.606 406.68C575.606 408.888 573.942 411 571.99 413.016L563.766 421.464V423Z" fill="white"/>
<path d="M526.388 454.056C526.388 449.416 523.028 446.152 518.068 446.152C513.14 446.152 509.748 449.416 509.748 454.056C509.748 458.408 512.756 461.576 517.204 461.928L512.34 469H518.228L525.076 458.6C525.908 457.352 526.388 455.784 526.388 454.056ZM514.868 454.056C514.868 452.104 516.372 450.952 518.068 450.952C519.796 450.952 521.268 452.072 521.268 454.056C521.268 456.04 519.796 457.16 518.068 457.16C516.372 457.16 514.868 456.008 514.868 454.056ZM554.695 452.552C552.423 452.552 550.951 453.384 550.055 454.664C549.159 453.32 547.751 452.552 545.863 452.552C543.719 452.552 542.311 453.384 541.575 454.472V453H536.775V469H541.575V459.976C541.575 458.088 542.471 456.968 544.071 456.968C545.607 456.968 546.375 457.992 546.375 459.592V469H551.175V459.976C551.175 458.088 552.071 456.968 553.671 456.968C555.207 456.968 555.975 457.992 555.975 459.592V469H560.775V459.176C560.775 455.176 558.375 452.552 554.695 452.552ZM566.456 451.592C568.024 451.592 569.336 450.28 569.336 448.712C569.336 447.144 568.024 445.832 566.456 445.832C564.888 445.832 563.576 447.144 563.576 448.712C563.576 450.28 564.888 451.592 566.456 451.592ZM564.056 469H568.856V453H564.056V469ZM572.368 469H577.168V445.64H572.368V469ZM580.681 469H585.481V445.64H580.681V469ZM591.393 451.592C592.961 451.592 594.273 450.28 594.273 448.712C594.273 447.144 592.961 445.832 591.393 445.832C589.825 445.832 588.513 447.144 588.513 448.712C588.513 450.28 589.825 451.592 591.393 451.592ZM588.993 469H593.793V453H588.993V469ZM604.986 469.448C609.69 469.448 613.466 465.768 613.466 461C613.466 456.232 609.69 452.552 604.986 452.552C600.282 452.552 596.506 456.232 596.506 461C596.506 465.768 600.282 469.448 604.986 469.448ZM604.986 464.776C602.906 464.776 601.306 463.272 601.306 461C601.306 458.728 602.906 457.224 604.986 457.224C607.066 457.224 608.666 458.728 608.666 461C608.666 463.272 607.066 464.776 604.986 464.776ZM625.557 452.552C623.445 452.552 621.845 453.32 620.981 454.504V453H616.181V469H620.981V460.264C620.981 457.992 622.197 456.968 623.957 456.968C625.493 456.968 626.741 457.896 626.741 459.88V469H631.541V459.176C631.541 454.856 628.789 452.552 625.557 452.552ZM658.197 469L652.213 461L658.037 453H652.437L647.637 460.008V446.6H642.837V469H647.637V461.928L652.757 469H658.197ZM670.737 453V454.632C669.681 453.32 668.145 452.552 666.065 452.552C661.521 452.552 658.193 456.264 658.193 460.68C658.193 465.096 661.521 468.808 666.065 468.808C668.145 468.808 669.681 468.04 670.737 466.728V468.2C670.737 470.472 669.361 471.624 667.121 471.624C665.009 471.624 664.081 470.728 663.473 469.608L659.377 471.976C660.849 474.6 663.633 475.848 666.961 475.848C671.217 475.848 675.409 473.576 675.409 468.2V453H670.737ZM666.865 464.392C664.593 464.392 662.993 462.888 662.993 460.68C662.993 458.472 664.593 456.968 666.865 456.968C669.137 456.968 670.737 458.472 670.737 460.68C670.737 462.888 669.137 464.392 666.865 464.392Z" fill="#9FFFEC"/>
<path d="M518.608 491V490H510.848V504H511.908V497.6H518.368V496.6H511.908V491H518.608ZM521.5 491.58C521.94 491.58 522.3 491.22 522.3 490.78C522.3 490.36 521.94 490 521.5 490C521.06 490 520.7 490.36 520.7 490.78C520.7 491.22 521.06 491.58 521.5 491.58ZM521 504H522V494H521V504ZM526.082 495.96V494H525.082V504H526.082V498.44C526.082 495.88 527.702 494.82 529.422 494.82V493.86C528.062 493.86 526.762 494.38 526.082 495.96ZM531.739 496.62C531.739 495.42 532.839 494.74 534.139 494.74C535.239 494.74 536.279 495.22 536.699 496.26L537.539 495.78C536.999 494.56 535.759 493.78 534.139 493.78C532.099 493.78 530.739 495.04 530.739 496.62C530.739 500.22 536.799 498.66 536.799 501.38C536.799 502.64 535.619 503.26 534.219 503.26C532.719 503.26 531.639 502.58 531.279 501.5L530.419 502C530.899 503.28 532.219 504.22 534.219 504.22C536.359 504.22 537.799 503.02 537.799 501.38C537.799 497.72 531.739 499.3 531.739 496.62ZM544.948 494.98V494H541.968V491.2L540.948 491.5V494H538.748V494.98H540.948V501.48C540.948 503.76 542.328 504.4 544.948 504V503.1C542.908 503.28 541.968 503.24 541.968 501.48V494.98H544.948ZM553.68 495.96V494H552.68V504H553.68V498.44C553.68 495.88 555.3 494.82 557.02 494.82V493.86C555.66 493.86 554.36 494.38 553.68 495.96ZM562.941 493.78C559.881 493.78 557.761 496.06 557.761 499C557.761 502.02 559.941 504.22 563.021 504.22C565.001 504.22 566.561 503.32 567.381 501.96L566.501 501.44C565.921 502.5 564.681 503.26 563.041 503.26C560.761 503.26 559.041 501.78 558.801 499.52H567.861C567.861 499.36 567.881 499.2 567.881 499.04C567.881 496.3 565.981 493.78 562.941 493.78ZM562.941 494.74C564.901 494.74 566.621 496.1 566.841 498.54H558.801C559.001 496.32 560.661 494.74 562.941 494.74ZM570.508 496.62C570.508 495.42 571.608 494.74 572.908 494.74C574.008 494.74 575.048 495.22 575.468 496.26L576.308 495.78C575.768 494.56 574.528 493.78 572.908 493.78C570.868 493.78 569.508 495.04 569.508 496.62C569.508 500.22 575.568 498.66 575.568 501.38C575.568 502.64 574.388 503.26 572.988 503.26C571.488 503.26 570.408 502.58 570.048 501.5L569.188 502C569.668 503.28 570.988 504.22 572.988 504.22C575.128 504.22 576.568 503.02 576.568 501.38C576.568 497.72 570.508 499.3 570.508 496.62ZM586.091 494V499.28C586.091 501.98 584.551 503.26 582.591 503.26C580.711 503.26 579.651 502.06 579.651 500.22V494H578.631V500.22C578.631 502.64 580.131 504.22 582.511 504.22C584.051 504.22 585.331 503.58 586.091 502.1V504H587.091V494H586.091ZM590.18 504H591.18V489.4H590.18V504ZM599.382 494.98V494H596.402V491.2L595.382 491.5V494H593.182V494.98H595.382V501.48C595.382 503.76 596.762 504.4 599.382 504V503.1C597.342 503.28 596.402 503.24 596.402 501.48V494.98H599.382ZM601.856 496.62C601.856 495.42 602.956 494.74 604.256 494.74C605.356 494.74 606.396 495.22 606.816 496.26L607.656 495.78C607.116 494.56 605.876 493.78 604.256 493.78C602.216 493.78 600.856 495.04 600.856 496.62C600.856 500.22 606.916 498.66 606.916 501.38C606.916 502.64 605.736 503.26 604.336 503.26C602.836 503.26 601.756 502.58 601.396 501.5L600.536 502C601.016 503.28 602.336 504.22 604.336 504.22C606.476 504.22 607.916 503.02 607.916 501.38C607.916 497.72 601.856 499.3 601.856 496.62Z" fill="#BCC2C2"/>
<path d="M763.539 303H777.619V301.368H765.971L772.915 294.232C775.187 291.928 777.107 289.464 777.107 286.68C777.107 282.52 773.875 280.248 770.451 280.248C767.539 280.248 765.011 281.656 763.667 284.408L765.107 285.272C766.163 283.032 768.019 281.88 770.451 281.88C773.171 281.88 775.379 283.608 775.379 286.68C775.379 288.888 773.715 291 771.763 293.016L763.539 301.464V303ZM788.806 303.352C794.182 303.352 797.19 298.712 797.19 291.8C797.19 284.888 794.182 280.248 788.806 280.248C783.43 280.248 780.422 284.888 780.422 291.8C780.422 298.712 783.43 303.352 788.806 303.352ZM788.806 301.72C784.646 301.72 782.15 298.072 782.15 291.8C782.15 285.528 784.646 281.88 788.806 281.88C792.966 281.88 795.462 285.528 795.462 291.8C795.462 298.072 792.966 301.72 788.806 301.72ZM799.945 303H814.025V301.368H802.377L809.321 294.232C811.593 291.928 813.513 289.464 813.513 286.68C813.513 282.52 810.281 280.248 806.857 280.248C803.945 280.248 801.417 281.656 800.073 284.408L801.513 285.272C802.569 283.032 804.425 281.88 806.857 281.88C809.577 281.88 811.785 283.608 811.785 286.68C811.785 288.888 810.121 291 808.169 293.016L799.945 301.464V303ZM824.444 289.912L829.82 282.2V280.6H816.924V282.2H827.868L822.204 290.232L822.94 291.352H823.42C826.748 291.352 829.18 293.304 829.18 296.536C829.18 299.768 826.748 301.72 823.484 301.72C820.668 301.72 818.588 300.504 817.756 298.264L816.348 299.096C817.436 301.848 820.22 303.352 823.484 303.352C827.452 303.352 830.876 300.856 830.876 296.536C830.876 292.6 827.996 290.264 824.444 289.912Z" fill="white"/>
<path d="M768.339 326.6L762.483 328.712L763.731 333.096L767.699 332.008V349H772.819V326.6H768.339ZM786.941 335.688L790.813 330.76V326.6H776.413V331.4H784.605L780.541 336.552L782.493 339.464H783.549C785.661 339.464 786.589 340.584 786.589 341.96C786.589 343.336 785.661 344.456 783.549 344.456C781.597 344.456 780.637 343.56 780.125 342.088L775.709 344.648C777.085 347.944 780.157 349.448 783.549 349.448C787.869 349.448 791.709 346.888 791.709 341.96C791.709 338.856 789.693 336.648 786.941 335.688ZM820.343 332.552C818.071 332.552 816.599 333.384 815.703 334.664C814.807 333.32 813.399 332.552 811.511 332.552C809.367 332.552 807.959 333.384 807.223 334.472V333H802.423V349H807.223V339.976C807.223 338.088 808.119 336.968 809.719 336.968C811.255 336.968 812.023 337.992 812.023 339.592V349H816.823V339.976C816.823 338.088 817.719 336.968 819.319 336.968C820.855 336.968 821.623 337.992 821.623 339.592V349H826.423V339.176C826.423 335.176 824.023 332.552 820.343 332.552ZM832.104 331.592C833.672 331.592 834.984 330.28 834.984 328.712C834.984 327.144 833.672 325.832 832.104 325.832C830.536 325.832 829.224 327.144 829.224 328.712C829.224 330.28 830.536 331.592 832.104 331.592ZM829.704 349H834.504V333H829.704V349ZM838.017 349H842.817V325.64H838.017V349ZM846.329 349H851.129V325.64H846.329V349ZM857.042 331.592C858.61 331.592 859.922 330.28 859.922 328.712C859.922 327.144 858.61 325.832 857.042 325.832C855.474 325.832 854.162 327.144 854.162 328.712C854.162 330.28 855.474 331.592 857.042 331.592ZM854.642 349H859.442V333H854.642V349ZM870.634 349.448C875.338 349.448 879.114 345.768 879.114 341C879.114 336.232 875.338 332.552 870.634 332.552C865.93 332.552 862.154 336.232 862.154 341C862.154 345.768 865.93 349.448 870.634 349.448ZM870.634 344.776C868.554 344.776 866.954 343.272 866.954 341C866.954 338.728 868.554 337.224 870.634 337.224C872.714 337.224 874.314 338.728 874.314 341C874.314 343.272 872.714 344.776 870.634 344.776ZM891.205 332.552C889.093 332.552 887.493 333.32 886.629 334.504V333H881.829V349H886.629V340.264C886.629 337.992 887.845 336.968 889.605 336.968C891.141 336.968 892.389 337.896 892.389 339.88V349H897.189V339.176C897.189 334.856 894.437 332.552 891.205 332.552ZM923.846 349L917.862 341L923.686 333H918.086L913.286 340.008V326.6H908.486V349H913.286V341.928L918.406 349H923.846ZM936.386 333V334.632C935.33 333.32 933.794 332.552 931.714 332.552C927.17 332.552 923.842 336.264 923.842 340.68C923.842 345.096 927.17 348.808 931.714 348.808C933.794 348.808 935.33 348.04 936.386 346.728V348.2C936.386 350.472 935.01 351.624 932.77 351.624C930.658 351.624 929.73 350.728 929.122 349.608L925.026 351.976C926.498 354.6 929.282 355.848 932.61 355.848C936.866 355.848 941.058 353.576 941.058 348.2V333H936.386ZM932.514 344.392C930.242 344.392 928.642 342.888 928.642 340.68C928.642 338.472 930.242 336.968 932.514 336.968C934.786 336.968 936.386 338.472 936.386 340.68C936.386 342.888 934.786 344.392 932.514 344.392Z" fill="#9FFFEC"/>
<path d="M777.223 377.48H770.203V378.48H776.143C775.923 381.1 773.863 383.2 770.463 383.2C766.703 383.2 764.163 380.44 764.163 377C764.163 373.56 766.703 370.8 770.383 370.8C772.583 370.8 774.543 371.96 775.463 373.72L776.403 373.16C775.243 371.14 772.983 369.78 770.383 369.78C766.123 369.78 763.103 373 763.103 377C763.103 381 766.123 384.22 770.463 384.22C774.643 384.22 777.223 381.4 777.223 378.02V377.48ZM784.26 384.22C787.16 384.22 789.5 381.96 789.5 379C789.5 376.04 787.16 373.78 784.26 373.78C781.34 373.78 779 376.04 779 379C779 381.96 781.34 384.22 784.26 384.22ZM784.26 383.26C781.88 383.26 780.02 381.38 780.02 379C780.02 376.62 781.88 374.74 784.26 374.74C786.64 374.74 788.48 376.62 788.48 379C788.48 381.38 786.64 383.26 784.26 383.26ZM800.706 374V376.26C799.866 374.76 798.326 373.78 796.406 373.78C793.566 373.78 791.226 376.04 791.226 379C791.226 381.96 793.566 384.22 796.406 384.22C798.326 384.22 799.866 383.24 800.706 381.74V384H801.726V374H800.706ZM796.486 383.26C794.106 383.26 792.246 381.38 792.246 379C792.246 376.62 794.106 374.74 796.486 374.74C798.866 374.74 800.706 376.62 800.706 379C800.706 381.38 798.866 383.26 796.486 383.26ZM804.797 384H805.797V369.4H804.797V384Z" fill="#BCC2C2"/>
<path d="M1016.59 87H1030.67V85.368H1019.03L1025.97 78.232C1028.24 75.928 1030.16 73.464 1030.16 70.68C1030.16 66.52 1026.93 64.248 1023.51 64.248C1020.59 64.248 1018.07 65.656 1016.72 68.408L1018.16 69.272C1019.22 67.032 1021.07 65.88 1023.51 65.88C1026.23 65.88 1028.43 67.608 1028.43 70.68C1028.43 72.888 1026.77 75 1024.82 77.016L1016.59 85.464V87ZM1041.86 87.352C1047.24 87.352 1050.24 82.712 1050.24 75.8C1050.24 68.888 1047.24 64.248 1041.86 64.248C1036.48 64.248 1033.48 68.888 1033.48 75.8C1033.48 82.712 1036.48 87.352 1041.86 87.352ZM1041.86 85.72C1037.7 85.72 1035.2 82.072 1035.2 75.8C1035.2 69.528 1037.7 65.88 1041.86 65.88C1046.02 65.88 1048.52 69.528 1048.52 75.8C1048.52 82.072 1046.02 85.72 1041.86 85.72ZM1053 87H1067.08V85.368H1055.43L1062.38 78.232C1064.65 75.928 1066.57 73.464 1066.57 70.68C1066.57 66.52 1063.34 64.248 1059.91 64.248C1057 64.248 1054.47 65.656 1053.13 68.408L1054.57 69.272C1055.62 67.032 1057.48 65.88 1059.91 65.88C1062.63 65.88 1064.84 67.608 1064.84 70.68C1064.84 72.888 1063.18 75 1061.22 77.016L1053 85.464V87ZM1085.41 80.696H1082.53V73.656H1080.83V80.696H1070.66L1079.14 64.6H1077.28L1068.77 80.696V82.296H1080.83V87H1082.53V82.296H1085.41V80.696Z" fill="white"/>
<path d="M1024.34 118.472H1022.51L1022.74 115.4H1030.9V110.6H1017.94L1017.01 123.464H1024.02C1025.97 123.464 1026.9 124.584 1026.9 125.96C1026.9 127.336 1025.97 128.456 1023.86 128.456C1021.75 128.456 1020.79 127.56 1020.27 126.088L1015.86 128.648C1017.23 131.944 1020.31 133.448 1023.86 133.448C1028.18 133.448 1032.02 130.888 1032.02 125.96C1032.02 121.032 1028.5 118.472 1024.34 118.472ZM1051.05 124.68H1048.81V119.88H1043.63V124.68H1038.96L1046.09 110.6H1040.59L1033.45 124.68V129.416H1043.63V133H1048.81V129.416H1051.05V124.68ZM1079.05 116.552C1076.78 116.552 1075.31 117.384 1074.41 118.664C1073.52 117.32 1072.11 116.552 1070.22 116.552C1068.08 116.552 1066.67 117.384 1065.93 118.472V117H1061.13V133H1065.93V123.976C1065.93 122.088 1066.83 120.968 1068.43 120.968C1069.97 120.968 1070.73 121.992 1070.73 123.592V133H1075.53V123.976C1075.53 122.088 1076.43 120.968 1078.03 120.968C1079.57 120.968 1080.33 121.992 1080.33 123.592V133H1085.13V123.176C1085.13 119.176 1082.73 116.552 1079.05 116.552ZM1090.82 115.592C1092.38 115.592 1093.7 114.28 1093.7 112.712C1093.7 111.144 1092.38 109.832 1090.82 109.832C1089.25 109.832 1087.94 111.144 1087.94 112.712C1087.94 114.28 1089.25 115.592 1090.82 115.592ZM1088.42 133H1093.22V117H1088.42V133ZM1096.73 133H1101.53V109.64H1096.73V133ZM1105.04 133H1109.84V109.64H1105.04V133ZM1115.75 115.592C1117.32 115.592 1118.63 114.28 1118.63 112.712C1118.63 111.144 1117.32 109.832 1115.75 109.832C1114.18 109.832 1112.87 111.144 1112.87 112.712C1112.87 114.28 1114.18 115.592 1115.75 115.592ZM1113.35 133H1118.15V117H1113.35V133ZM1129.35 133.448C1134.05 133.448 1137.83 129.768 1137.83 125C1137.83 120.232 1134.05 116.552 1129.35 116.552C1124.64 116.552 1120.87 120.232 1120.87 125C1120.87 129.768 1124.64 133.448 1129.35 133.448ZM1129.35 128.776C1127.27 128.776 1125.67 127.272 1125.67 125C1125.67 122.728 1127.27 121.224 1129.35 121.224C1131.43 121.224 1133.03 122.728 1133.03 125C1133.03 127.272 1131.43 128.776 1129.35 128.776ZM1149.92 116.552C1147.8 116.552 1146.2 117.32 1145.34 118.504V117H1140.54V133H1145.34V124.264C1145.34 121.992 1146.56 120.968 1148.32 120.968C1149.85 120.968 1151.1 121.896 1151.1 123.88V133H1155.9V123.176C1155.9 118.856 1153.15 116.552 1149.92 116.552ZM1182.56 133L1176.57 125L1182.4 117H1176.8L1172 124.008V110.6H1167.2V133H1172V125.928L1177.12 133H1182.56ZM1195.1 117V118.632C1194.04 117.32 1192.5 116.552 1190.42 116.552C1185.88 116.552 1182.55 120.264 1182.55 124.68C1182.55 129.096 1185.88 132.808 1190.42 132.808C1192.5 132.808 1194.04 132.04 1195.1 130.728V132.2C1195.1 134.472 1193.72 135.624 1191.48 135.624C1189.37 135.624 1188.44 134.728 1187.83 133.608L1183.74 135.976C1185.21 138.6 1187.99 139.848 1191.32 139.848C1195.58 139.848 1199.77 137.576 1199.77 132.2V117H1195.1ZM1191.22 128.392C1188.95 128.392 1187.35 126.888 1187.35 124.68C1187.35 122.472 1188.95 120.968 1191.22 120.968C1193.5 120.968 1195.1 122.472 1195.1 124.68C1195.1 126.888 1193.5 128.392 1191.22 128.392Z" fill="#9FFFEC"/>
<path d="M1030.28 161.48H1023.26V162.48H1029.2C1028.98 165.1 1026.92 167.2 1023.52 167.2C1019.76 167.2 1017.22 164.44 1017.22 161C1017.22 157.56 1019.76 154.8 1023.44 154.8C1025.64 154.8 1027.6 155.96 1028.52 157.72L1029.46 157.16C1028.3 155.14 1026.04 153.78 1023.44 153.78C1019.18 153.78 1016.16 157 1016.16 161C1016.16 165 1019.18 168.22 1023.52 168.22C1027.7 168.22 1030.28 165.4 1030.28 162.02V161.48ZM1037.31 168.22C1040.21 168.22 1042.55 165.96 1042.55 163C1042.55 160.04 1040.21 157.78 1037.31 157.78C1034.39 157.78 1032.05 160.04 1032.05 163C1032.05 165.96 1034.39 168.22 1037.31 168.22ZM1037.31 167.26C1034.93 167.26 1033.07 165.38 1033.07 163C1033.07 160.62 1034.93 158.74 1037.31 158.74C1039.69 158.74 1041.53 160.62 1041.53 163C1041.53 165.38 1039.69 167.26 1037.31 167.26ZM1053.76 158V160.26C1052.92 158.76 1051.38 157.78 1049.46 157.78C1046.62 157.78 1044.28 160.04 1044.28 163C1044.28 165.96 1046.62 168.22 1049.46 168.22C1051.38 168.22 1052.92 167.24 1053.76 165.74V168H1054.78V158H1053.76ZM1049.54 167.26C1047.16 167.26 1045.3 165.38 1045.3 163C1045.3 160.62 1047.16 158.74 1049.54 158.74C1051.92 158.74 1053.76 160.62 1053.76 163C1053.76 165.38 1051.92 167.26 1049.54 167.26ZM1057.85 168H1058.85V153.4H1057.85V168Z" fill="#BCC2C2"/>
<defs>
<filter id="filter0_d_14070_26504" x="1012.3" y="0.191266" width="52.5037" height="52.504" filterUnits="userSpaceOnUse" color-interpolation-filters="sRGB">
<feFlood flood-opacity="0" result="BackgroundImageFix"/>
<feColorMatrix in="SourceAlpha" type="matrix" values="0 0 0 0 0 0 0 0 0 0 0 0 0 0 0 0 0 0 127 0" result="hardAlpha"/>
<feOffset dx="3.88918" dy="3.88918"/>
<feGaussianBlur stdDeviation="3.40304"/>
<feColorMatrix type="matrix" values="0 0 0 0 0 0 0 0 0 0 0 0 0 0 0 0 0 0 0.1 0"/>
<feBlend mode="normal" in2="BackgroundImageFix" result="effect1_dropShadow_14070_26504"/>
<feBlend mode="normal" in="SourceGraphic" in2="effect1_dropShadow_14070_26504" result="shape"/>
</filter>
<filter id="filter1_d_14070_26504" x="0.0831118" y="344.191" width="52.5037" height="52.504" filterUnits="userSpaceOnUse" color-interpolation-filters="sRGB">
<feFlood flood-opacity="0" result="BackgroundImageFix"/>
<feColorMatrix in="SourceAlpha" type="matrix" values="0 0 0 0 0 0 0 0 0 0 0 0 0 0 0 0 0 0 127 0" result="hardAlpha"/>
<feOffset dx="3.88918" dy="3.88918"/>
<feGaussianBlur stdDeviation="3.40304"/>
<feColorMatrix type="matrix" values="0 0 0 0 0 0 0 0 0 0 0 0 0 0 0 0 0 0 0.1 0"/>
<feBlend mode="normal" in2="BackgroundImageFix" result="effect1_dropShadow_14070_26504"/>
<feBlend mode="normal" in="SourceGraphic" in2="effect1_dropShadow_14070_26504" result="shape"/>
</filter>
<filter id="filter2_d_14070_26504" x="253.138" y="344.191" width="52.5037" height="52.504" filterUnits="userSpaceOnUse" color-interpolation-filters="sRGB">
<feFlood flood-opacity="0" result="BackgroundImageFix"/>
<feColorMatrix in="SourceAlpha" type="matrix" values="0 0 0 0 0 0 0 0 0 0 0 0 0 0 0 0 0 0 127 0" result="hardAlpha"/>
<feOffset dx="3.88918" dy="3.88918"/>
<feGaussianBlur stdDeviation="3.40304"/>
<feColorMatrix type="matrix" values="0 0 0 0 0 0 0 0 0 0 0 0 0 0 0 0 0 0 0.1 0"/>
<feBlend mode="normal" in2="BackgroundImageFix" result="effect1_dropShadow_14070_26504"/>
<feBlend mode="normal" in="SourceGraphic" in2="effect1_dropShadow_14070_26504" result="shape"/>
</filter>
<filter id="filter3_d_14070_26504" x="506.083" y="317.083" width="52.5037" height="52.504" filterUnits="userSpaceOnUse" color-interpolation-filters="sRGB">
<feFlood flood-opacity="0" result="BackgroundImageFix"/>
<feColorMatrix in="SourceAlpha" type="matrix" values="0 0 0 0 0 0 0 0 0 0 0 0 0 0 0 0 0 0 127 0" result="hardAlpha"/>
<feOffset dx="3.88918" dy="3.88918"/>
<feGaussianBlur stdDeviation="3.40304"/>
<feColorMatrix type="matrix" values="0 0 0 0 0 0 0 0 0 0 0 0 0 0 0 0 0 0 0.1 0"/>
<feBlend mode="normal" in2="BackgroundImageFix" result="effect1_dropShadow_14070_26504"/>
<feBlend mode="normal" in="SourceGraphic" in2="effect1_dropShadow_14070_26504" result="shape"/>
</filter>
<filter id="filter4_d_14070_26504" x="759.247" y="215.083" width="52.5037" height="52.504" filterUnits="userSpaceOnUse" color-interpolation-filters="sRGB">
<feFlood flood-opacity="0" result="BackgroundImageFix"/>
<feColorMatrix in="SourceAlpha" type="matrix" values="0 0 0 0 0 0 0 0 0 0 0 0 0 0 0 0 0 0 127 0" result="hardAlpha"/>
<feOffset dx="3.88918" dy="3.88918"/>
<feGaussianBlur stdDeviation="3.40304"/>
<feColorMatrix type="matrix" values="0 0 0 0 0 0 0 0 0 0 0 0 0 0 0 0 0 0 0.1 0"/>
<feBlend mode="normal" in2="BackgroundImageFix" result="effect1_dropShadow_14070_26504"/>
<feBlend mode="normal" in="SourceGraphic" in2="effect1_dropShadow_14070_26504" result="shape"/>
</filter>
</defs>
</svg>
