<svg width="171" height="171" viewBox="0 0 171 171" fill="none" xmlns="http://www.w3.org/2000/svg">
<path d="M101.102 54.7413L100.073 56.294H101.936H111.039C112.635 56.294 113.588 58.0699 112.706 59.3993L96.2258 84.2511L95.1961 85.8038H97.0592H112.28C114.139 85.8038 114.993 88.1191 113.578 89.3256L58.2161 136.536C56.5997 137.914 54.233 136.155 55.0872 134.21L71.115 97.7128L71.7307 96.3107H70.1994H57.3031C55.7079 96.3107 54.7546 94.5348 55.6363 93.2053L72.1168 68.3535L73.1464 66.8008H71.2834H59.5883C58.2587 66.8008 57.2993 65.5276 57.6658 64.2495L67.9935 28.2329C68.2395 27.3752 69.0238 26.7842 69.9161 26.7842H115.916C117.511 26.7842 118.464 28.5601 117.583 29.8895L101.102 54.7413Z" stroke="currentColor" stroke-width="2"/>
</svg>
