<svg width="171" height="171" viewBox="0 0 171 171" fill="none" xmlns="http://www.w3.org/2000/svg">
<path d="M96.5296 100.574C96.0919 98.2615 96.0909 93.023 99.5888 90.5716C103.087 88.1202 106.353 89.9788 107.549 91.2144M122.059 67.9205C123.428 69.8354 125.63 74.5889 123.485 78.2829C121.341 81.977 117.596 81.6626 115.992 81.0437M104.439 104.323C105.485 106.432 106.788 108.863 104.081 112.167C101.374 115.471 97.7278 114.562 96.243 113.695M94.8133 68.5893C94.6399 66.2418 94.3487 63.4983 98.1013 61.4582C101.854 59.4181 106.445 61.606 107.494 62.969M99.5891 90.5712C97.8596 89.7711 95.4578 89.8181 94.7386 84.4927C94.0193 79.1672 97.1613 77.5004 98.2037 75.8434M122.526 79.8397C123.994 81.0547 126.328 81.6221 125.665 86.9547C125.001 92.2874 121.538 93.0973 120.107 94.4336M125.699 108.235C124.427 106.246 120.907 102.511 116.995 103.481C116.543 103.593 116.489 103.622 116.08 103.76M116.08 103.76C112.957 104.814 112.033 106.97 111.463 107.773M116.08 103.76C114.521 102.676 111.924 101.164 111.924 96.9623C111.924 92.7609 114.476 91.924 115.386 90.889M112.485 58.4364C110.745 59.4372 107.369 60.7554 106.683 65.2245C105.998 69.6935 108.424 73.7618 109.584 76.1378M87.4453 107.755L87.4453 52.6339C88.2702 48.4378 92.4544 40.2424 102.592 41.0294C112.729 41.8164 113.547 52.962 112.689 58.4364C116.903 57.0728 124.379 57.1091 127.835 64.2386C131.292 71.3681 128.67 77.2066 127.835 78.7442C130.946 80.6547 135.409 84.7045 135.409 93.2497C135.409 101.795 128.091 105.845 125.311 107.755C126.153 111.588 125.319 119.36 120.262 122.261C115.206 125.162 111.006 123.263 110.165 122.261C108.932 124.807 106.209 129.316 103.108 130.167C100.007 131.019 96.7526 130.964 92.8048 126.405C88.857 121.846 87.4453 107.755 87.4453 107.755Z" stroke="currentColor" stroke-width="2" stroke-linecap="round"/>
<path d="M74.2877 100.574C74.7255 98.2615 74.7264 93.023 71.2286 90.5716C67.7307 88.1202 64.4645 89.9788 63.2687 91.2144M48.7583 67.9205C47.3894 69.8354 45.1877 74.5889 47.332 78.2829C49.4763 81.977 53.2211 81.6626 54.8254 81.0437M66.378 104.323C65.3327 106.432 64.0291 108.863 66.7361 112.167C69.4432 115.471 73.0896 114.562 74.5744 113.695M76.0041 68.5893C76.1775 66.2418 76.4687 63.4983 72.7161 61.4582C68.9635 59.4181 64.3723 61.606 63.3238 62.969M71.2283 90.5712C72.9578 89.7711 75.3596 89.8181 76.0788 84.4927C76.7981 79.1672 73.6561 77.5004 72.6137 75.8434M48.2917 79.8397C46.8236 81.0547 44.4893 81.6221 45.1528 86.9547C45.8162 92.2874 49.2795 93.0973 50.7102 94.4336M45.1188 108.235C46.3902 106.246 49.9108 102.511 53.8221 103.481C54.2748 103.593 54.3286 103.622 54.7374 103.76M54.7374 103.76C57.8599 104.814 58.7843 106.97 59.3549 107.773M54.7374 103.76C56.2969 102.676 58.8936 101.164 58.8936 96.9623C58.8936 92.7609 56.3418 91.924 55.431 90.889M58.3321 58.4364C60.0726 59.4372 63.4488 60.7554 64.1343 65.2245C64.8198 69.6935 62.3938 73.7618 61.2332 76.1378M83.3721 107.755L83.3721 52.6339C82.5471 48.4378 78.363 40.2424 68.2258 41.0294C58.0885 41.8164 57.2702 52.962 58.1282 58.4364C53.9143 57.0728 46.4385 57.1091 42.9819 64.2386C39.5254 71.3681 42.1471 77.2066 42.9819 78.7442C39.8712 80.6547 35.4088 84.7045 35.4088 93.2497C35.4088 101.795 42.7268 105.845 45.5063 107.755C44.6649 111.588 45.4983 119.36 50.5551 122.261C55.6119 125.162 59.8112 123.263 60.6526 122.261C61.8849 124.807 64.6087 129.316 67.7097 130.167C70.8107 131.019 74.0648 130.964 78.0126 126.405C81.9604 121.846 83.3721 107.755 83.3721 107.755Z" stroke="currentColor" stroke-width="2" stroke-linecap="round"/>
</svg>
