<svg width="171" height="171" viewBox="0 0 171 171" fill="none" xmlns="http://www.w3.org/2000/svg">
<rect x="26.7085" y="54.9487" width="118" height="61.1579" rx="4.85436" stroke="currentColor" stroke-width="2"/>
<mask id="path-2-inside-1_9531_16108" fill="white">
<path fill-rule="evenodd" clip-rule="evenodd" d="M32.0244 63.2646C32.0244 61.6078 33.3676 60.2646 35.0244 60.2646H136.393C138.05 60.2646 139.393 61.6078 139.393 63.2646V72.8959C139.393 72.896 139.393 72.8961 139.393 72.8961V72.8961C133.579 72.8961 128.866 78.5514 128.866 85.5277C128.866 92.5039 133.579 98.1592 139.393 98.1592V98.1592C139.393 98.1592 139.393 98.1593 139.393 98.1595V107.791C139.393 109.448 138.05 110.791 136.393 110.791H35.0244C33.3676 110.791 32.0244 109.448 32.0244 107.791V101.159C32.0244 99.5024 33.4041 98.2043 34.9684 97.6585C39.349 96.1302 42.5506 91.2776 42.5506 85.5277C42.5506 79.7778 39.349 74.9252 34.9684 73.3968C33.4041 72.851 32.0244 71.553 32.0244 69.8961V63.2646Z"/>
</mask>
<path d="M34.9684 97.6585L34.3096 95.7702L34.9684 97.6585ZM136.393 58.2646H35.0244V62.2646H136.393V58.2646ZM141.393 72.8959V63.2646H137.393V72.8959H141.393ZM130.866 85.5277C130.866 79.2991 135.01 74.8961 139.393 74.8961V70.8961C132.149 70.8961 126.866 77.8038 126.866 85.5277H130.866ZM139.393 96.1592C135.01 96.1592 130.866 91.7562 130.866 85.5277H126.866C126.866 93.2515 132.149 100.159 139.393 100.159V96.1592ZM141.393 107.791V98.1595H137.393V107.791H141.393ZM35.0244 112.791H136.393V108.791H35.0244V112.791ZM30.0244 101.159V107.791H34.0244V101.159H30.0244ZM40.5506 85.5277C40.5506 90.6026 37.7329 94.5758 34.3096 95.7702L35.6273 99.5469C40.9652 97.6845 44.5506 91.9526 44.5506 85.5277H40.5506ZM34.3096 75.2852C37.7329 76.4796 40.5506 80.4527 40.5506 85.5277H44.5506C44.5506 79.1028 40.9652 73.3708 35.6273 71.5084L34.3096 75.2852ZM30.0244 63.2646V69.8961H34.0244V63.2646H30.0244ZM34.0244 101.159C34.0244 100.7 34.48 99.9471 35.6273 99.5469L34.3096 95.7702C32.3281 96.4615 30.0244 98.3046 30.0244 101.159H34.0244ZM35.0244 108.791C34.4721 108.791 34.0244 108.343 34.0244 107.791H30.0244C30.0244 110.552 32.263 112.791 35.0244 112.791V108.791ZM137.393 107.791C137.393 108.343 136.945 108.791 136.393 108.791V112.791C139.154 112.791 141.393 110.552 141.393 107.791H137.393ZM137.393 72.8959C137.393 71.7914 138.288 70.8961 139.393 70.8961V74.8961C140.497 74.8961 141.393 74.0006 141.393 72.8959H137.393ZM139.393 100.159C138.286 100.159 137.393 99.2614 137.393 98.1595H141.393C141.393 97.0572 140.5 96.1592 139.393 96.1592V100.159ZM35.0244 58.2646C32.263 58.2646 30.0244 60.5032 30.0244 63.2646H34.0244C34.0244 62.7124 34.4721 62.2646 35.0244 62.2646V58.2646ZM35.6273 71.5084C34.48 71.1082 34.0244 70.3553 34.0244 69.8961H30.0244C30.0244 72.7507 32.3281 74.5939 34.3096 75.2852L35.6273 71.5084ZM136.393 62.2646C136.945 62.2646 137.393 62.7124 137.393 63.2646H141.393C141.393 60.5032 139.154 58.2646 136.393 58.2646V62.2646Z" fill="currentColor" mask="url(#path-2-inside-1_9531_16108)"/>
<path d="M100.498 85.5284C100.498 95.6189 93.7134 103.476 85.7084 103.476C77.7034 103.476 70.9189 95.6189 70.9189 85.5284C70.9189 75.4379 77.7034 67.5811 85.7084 67.5811C93.7134 67.5811 100.498 75.4379 100.498 85.5284Z" stroke="currentColor" stroke-width="2"/>
<rect x="129.792" y="32.2541" width="15.0414" height="136.364" rx="3" transform="rotate(45 129.792 32.2541)" fill="black" stroke="currentColor" stroke-width="2"/>
</svg>
