<svg width="171" height="171" viewBox="0 0 171 171" fill="none" xmlns="http://www.w3.org/2000/svg">
<path d="M134.809 87.3481C134.809 107.337 122.84 124.532 105.674 132.154C104.712 132.582 103.559 132.081 103.181 131.011L95.9551 110.571C95.6055 109.583 96.091 108.404 97.1455 107.818C104.335 103.829 109.204 96.1577 109.204 87.3481C109.204 74.427 98.7298 63.9523 85.8086 63.9523C72.8874 63.9523 62.4128 74.427 62.4128 87.3481C62.4128 96.1577 67.2822 103.829 74.4717 107.818C75.5262 108.404 76.0117 109.583 75.6621 110.571L68.4364 131.011C68.0581 132.081 66.9054 132.582 65.9434 132.154C48.7774 124.532 36.8086 107.337 36.8086 87.3481C36.8086 60.2862 58.7466 38.3481 85.8086 38.3481C112.871 38.3481 134.809 60.2862 134.809 87.3481Z" stroke="currentColor" stroke-width="2"/>
</svg>
