<svg width="171" height="171" viewBox="0 0 171 171" fill="none" xmlns="http://www.w3.org/2000/svg">
<mask id="path-1-inside-1_9531_16157" fill="white">
<path fill-rule="evenodd" clip-rule="evenodd" d="M57.5205 106.018C57.5205 101.874 60.3163 98.4401 63.9674 97.8285C65.4481 94.1954 68.8235 91.6572 72.7506 91.6572C76.4941 91.6572 79.7362 93.9635 81.3138 97.326C81.6723 97.2623 82.0404 97.2291 82.4157 97.2291C83.0092 97.2291 83.5847 97.3121 84.1327 97.4677C85.015 95.3459 86.996 93.8673 89.2984 93.8673C91.5532 93.8673 93.4998 95.2854 94.4079 97.3369C95.2862 96.7337 96.3298 96.3841 97.4494 96.3841C99.8969 96.3841 101.981 98.0549 102.769 100.393C103.89 99.6864 105.192 99.2819 106.58 99.2819C110.786 99.2819 114.195 102.992 114.195 107.568C114.195 111.712 111.399 115.146 107.748 115.757C106.268 119.391 102.892 121.929 98.9645 121.929C95.2209 121.929 91.9785 119.623 90.401 116.26C90.044 116.323 89.6775 116.356 89.3038 116.356C88.7092 116.356 88.1326 116.273 87.5837 116.117C86.7024 118.241 84.7201 119.722 82.416 119.722C80.1616 119.722 78.2153 118.304 77.307 116.253C76.4296 116.855 75.3876 117.203 74.2699 117.203C71.8213 117.203 69.7362 115.531 68.9497 113.191C67.8281 113.899 66.5253 114.304 65.1355 114.304C60.9299 114.304 57.5205 110.594 57.5205 106.018Z"/>
</mask>
<path d="M63.9674 97.8285L64.2978 99.801L65.3983 99.6166L65.8195 98.5833L63.9674 97.8285ZM81.3138 97.326L79.5032 98.1755L80.1544 99.5635L81.6639 99.2951L81.3138 97.326ZM84.1327 97.4677L83.5863 99.3916L85.2968 99.8774L85.9795 98.2356L84.1327 97.4677ZM94.4079 97.3369L92.5791 98.1465L93.5544 100.35L95.5403 98.9855L94.4079 97.3369ZM102.769 100.393L100.873 101.031L101.684 103.441L103.835 102.085L102.769 100.393ZM107.748 115.757L107.418 113.785L106.317 113.969L105.896 115.003L107.748 115.757ZM90.401 116.26L92.2117 115.411L91.5611 114.024L90.0525 114.291L90.401 116.26ZM87.5837 116.117L88.1311 114.193L86.4186 113.706L85.7363 115.35L87.5837 116.117ZM77.307 116.253L79.1356 115.443L78.1611 113.243L76.1762 114.603L77.307 116.253ZM68.9497 113.191L70.8454 112.554L70.0346 110.142L67.8825 111.499L68.9497 113.191ZM63.637 95.856C58.9187 96.6463 55.5205 101.005 55.5205 106.018H59.5205C59.5205 102.742 61.7138 100.234 64.2978 99.801L63.637 95.856ZM72.7506 89.6572C67.9172 89.6572 63.8661 92.7779 62.1153 97.0737L65.8195 98.5833C67.0301 95.6129 69.7299 93.6572 72.7506 93.6572V89.6572ZM83.1244 96.4765C81.2559 92.494 77.3563 89.6572 72.7506 89.6572V93.6572C75.6318 93.6572 78.2165 95.4331 79.5032 98.1755L83.1244 96.4765ZM82.4157 95.2291C81.9223 95.2291 81.4371 95.2727 80.9638 95.3569L81.6639 99.2951C81.9075 99.2518 82.1585 99.2291 82.4157 99.2291V95.2291ZM84.6792 95.5438C83.9559 95.3384 83.1966 95.2291 82.4157 95.2291V99.2291C82.8219 99.2291 83.2136 99.2857 83.5863 99.3916L84.6792 95.5438ZM89.2984 91.8673C86.0957 91.8673 83.4414 93.9212 82.286 96.6998L85.9795 98.2356C86.5886 96.7706 87.8964 95.8673 89.2984 95.8673V91.8673ZM96.2368 96.5274C95.0461 93.8377 92.4342 91.8673 89.2984 91.8673V95.8673C90.6722 95.8673 91.9534 96.7331 92.5791 98.1465L96.2368 96.5274ZM97.4494 94.3841C95.9042 94.3841 94.4691 94.8686 93.2756 95.6884L95.5403 98.9855C96.1033 98.5988 96.7554 98.3841 97.4494 98.3841V94.3841ZM104.664 99.7549C103.636 96.7028 100.856 94.3841 97.4494 94.3841V98.3841C98.9374 98.3841 100.326 99.407 100.873 101.031L104.664 99.7549ZM103.835 102.085C104.653 101.569 105.588 101.282 106.58 101.282V97.2819C104.795 97.2819 103.126 97.8036 101.702 98.7012L103.835 102.085ZM106.58 101.282C109.526 101.282 112.195 103.934 112.195 107.568H116.195C116.195 102.049 112.046 97.2819 106.58 97.2819V101.282ZM112.195 107.568C112.195 110.844 110.002 113.352 107.418 113.785L108.078 117.73C112.797 116.94 116.195 112.58 116.195 107.568H112.195ZM98.9645 123.929C103.798 123.929 107.85 120.808 109.6 116.512L105.896 115.003C104.685 117.973 101.985 119.929 98.9645 119.929V123.929ZM88.5904 117.109C90.4587 121.092 94.3585 123.929 98.9645 123.929V119.929C96.0832 119.929 93.4983 118.153 92.2117 115.411L88.5904 117.109ZM89.3038 118.356C89.7951 118.356 90.2782 118.313 90.7496 118.229L90.0525 114.291C89.8098 114.333 89.5599 114.356 89.3038 114.356V118.356ZM87.0362 118.04C87.7607 118.246 88.5215 118.356 89.3038 118.356V114.356C88.8969 114.356 88.5045 114.299 88.1311 114.193L87.0362 118.04ZM82.416 121.722C85.6212 121.722 88.277 119.665 89.431 116.883L85.7363 115.35C85.1278 116.817 83.8191 117.722 82.416 117.722V121.722ZM75.4783 117.063C76.6692 119.752 79.2808 121.722 82.416 121.722V117.722C81.0424 117.722 79.7614 116.856 79.1356 115.443L75.4783 117.063ZM74.2699 119.203C75.8125 119.203 77.2454 118.72 78.4378 117.903L76.1762 114.603C75.6138 114.989 74.9627 115.203 74.2699 115.203V119.203ZM67.0539 113.828C68.0806 116.882 70.8614 119.203 74.2699 119.203V115.203C72.7812 115.203 71.3918 114.179 70.8454 112.554L67.0539 113.828ZM65.1355 116.304C66.922 116.304 68.5923 115.781 70.0168 114.882L67.8825 111.499C67.0639 112.016 66.1285 112.304 65.1355 112.304V116.304ZM55.5205 106.018C55.5205 111.536 59.6697 116.304 65.1355 116.304V112.304C62.1901 112.304 59.5205 109.652 59.5205 106.018H55.5205Z" fill="currentColor" mask="url(#path-1-inside-1_9531_16157)"/>
<path d="M76.7753 30.7761V29.7761H75.7753H75.2224C74.3962 29.7761 73.7265 29.1063 73.7265 28.2801C73.7265 27.4539 74.3962 26.7842 75.2224 26.7842H95.9949C96.8211 26.7842 97.4908 27.4539 97.4908 28.2801C97.4908 29.1063 96.8211 29.7761 95.9949 29.7761H95.4415H94.4415V30.7761V69.8234C94.4415 70.5256 94.6264 71.2153 94.9774 71.8234L130.514 133.375C133.441 138.445 129.783 144.781 123.929 144.781H47.2877C41.4342 144.781 37.7757 138.445 40.7025 133.375L76.2394 71.8234C76.5905 71.2153 76.7753 70.5256 76.7753 69.8234V30.7761Z" stroke="currentColor" stroke-width="2"/>
</svg>
