<svg fill="none" height="126" width="104" xmlns="http://www.w3.org/2000/svg" xmlns:xlink="http://www.w3.org/1999/xlink"><linearGradient id="a"><stop offset="0" stop-color="#89e5d3"/><stop offset="1" stop-color="#005e66"/></linearGradient><linearGradient id="b" gradientUnits="userSpaceOnUse" x1="71.577" x2="23.189" xlink:href="#a" y1="33.039" y2="86.353"/><linearGradient id="c" gradientUnits="userSpaceOnUse" x1="84.324" x2="19.13" xlink:href="#a" y1="22.609" y2="103.738"/><linearGradient id="d" gradientUnits="userSpaceOnUse" x1="58.058" x2="46.725" xlink:href="#a" y1="57.343" y2="68.279"/><circle cx="52.277" cy="63.065" r="33.465" stroke="url(#b)" stroke-width="7.007"/><path clip-rule="evenodd" d="m52.276 11.31a2.957 2.957 0 0 0 -2.957 2.957v41.404h5.915v-41.404a2.957 2.957 0 0 0 -2.958-2.957zm0 103.51a2.957 2.957 0 0 1 -2.957-2.957v-41.404h5.521l4.183-4.183 29.277 29.277a2.957 2.957 0 1 1 -4.182 4.183l-28.884-28.884v41.011a2.957 2.957 0 0 1 -2.958 2.957zm48.151-54.723a2.957 2.957 0 0 1 0 5.915h-41.404v-5.915zm-99.81 2.958a2.957 2.957 0 0 1 2.957-2.958h41.406v5.915h-41.406a2.957 2.957 0 0 1 -2.957-2.957zm15.07-36.661a2.957 2.957 0 0 1 4.182 0l29.277 29.277-4.182 4.183-29.278-29.277a2.957 2.957 0 0 1 0-4.183zm.406 68.662a2.958 2.958 0 0 0 4.183 4.182l29.277-29.277-4.183-4.182zm72.841-68.662a2.957 2.957 0 0 0 -4.182 0l-29.277 29.277 4.182 4.183 29.278-29.277a2.958 2.958 0 0 0 0-4.183z" fill="url(#c)" fill-rule="evenodd"/><circle cx="52.274" cy="63.065" r="5.739" stroke="url(#d)" stroke-width="7.007"/></svg>