<svg fill="none" height="204" width="209" xmlns="http://www.w3.org/2000/svg" xmlns:xlink="http://www.w3.org/1999/xlink"><radialGradient id="a" cx="0" cy="0" gradientTransform="matrix(0 43.6113 -43.6113 0 97.658 88.402)" gradientUnits="userSpaceOnUse" r="1"><stop offset=".036" stop-color="#89e5d3"/><stop offset=".531" stop-color="#005e66"/></radialGradient><radialGradient id="b" cx="0" cy="0" gradientTransform="matrix(0 23.788 -23.788 0 23.904 68.288)" gradientUnits="userSpaceOnUse" r="1"><stop offset="0" stop-color="#89e5d3"/><stop offset="1" stop-color="#002f33"/></radialGradient><radialGradient id="c" cx="0" cy="0" gradientTransform="matrix(0 50.2748 -50.2748 0 157.84 153.1)" gradientUnits="userSpaceOnUse" r="1"><stop offset=".255" stop-color="#fff"/><stop offset="1" stop-color="#89e5d3"/></radialGradient><path d="m97.657 44.79 2.704 37.083 28.134-24.31-24.31 28.134 37.084 2.704-37.084 2.703 24.31 28.134-28.134-24.31-2.704 37.084-2.703-37.084-28.134 24.31 24.31-28.134-37.084-2.703 37.084-2.704-24.31-28.134 28.134 24.31 2.704-37.084z" fill="url(#a)"/><path d="m23.903 44.5 2.22 21.568 21.568 2.22-21.568 2.22-2.22 21.568-2.22-21.568-21.568-2.22 21.568-2.22z" fill="url(#b)"/><path d="m157.84 102.826 6.826 43.449 43.449 6.826-43.449 6.826-6.826 43.449-6.825-43.449-43.449-6.826 43.449-6.826z" fill="url(#c)"/><path d="m171.308 20.222 1.264 15.094 11.566-9.78-9.779 11.567 15.094 1.264-15.094 1.263 9.779 11.567-11.566-9.78-1.264 15.094-1.264-15.093-11.566 9.779 9.779-11.567-15.094-1.263 15.094-1.264-9.779-11.567 11.566 9.78z" fill="#0096a2"/><path d="m72.878.662 1.212 21.688 19.388-9.793-18.174 11.893 18.176 11.894-19.39-9.792-1.213 21.686-1.213-21.686-19.388 9.792 18.174-11.894-18.173-11.894 19.388 9.793 1.212-21.687z" fill="#d5f6f0"/></svg>