<svg fill="none" height="592" width="521" xmlns="http://www.w3.org/2000/svg"><path clip-rule="evenodd" d="m340.046 349.252c-1.371 25.573-3.71 49.966-6.877 72.721-21.29-8.634-43.585-18.805-66.416-30.404a1009.788 1009.788 0 0 0 37.084-20.395 1008.681 1008.681 0 0 0 36.209-21.922zm.354-7.088a1001.884 1001.884 0 0 1 -39.456 23.999 1002.18 1002.18 0 0 1 -40.507 22.168 1001.57 1001.57 0 0 1 -40.508-22.169 999.695 999.695 0 0 1 -39.451-23.996 1000.534 1000.534 0 0 1 -1.056-46.166c0-15.715.361-31.134 1.056-46.167a1000.326 1000.326 0 0 1 39.449-23.995 999.831 999.831 0 0 1 40.51-22.169 1000.971 1000.971 0 0 1 40.508 22.168 1001.831 1001.831 0 0 1 39.455 23.998 1001.951 1001.951 0 0 1 1.055 46.165c0 15.714-.361 31.132-1.055 46.164zm5.638 3.255c-1.368 27.759-3.87 54.207-7.336 78.773 26.514 10.507 51.38 18.576 73.674 23.992 26.824 6.518 49.593 9.112 66.888 7.679 17.506-1.45 27.946-6.86 32.505-14.757s4.024-19.643-3.473-35.528c-7.407-15.694-21.038-34.116-40.094-54.088-15.838-16.599-35.26-34.1-57.617-51.808-19.54 15.284-41.193 30.673-64.547 45.737zm59.86-49.42c-18.122 14.12-38.077 28.342-59.536 42.314.58-13.819.88-27.947.88-42.313 0-14.367-.3-28.494-.88-42.314 21.459 13.972 41.414 28.194 59.536 42.313zm9.356 0c76.051 60.47 118.42 118.74 101.527 148.001-16.894 29.26-88.541 21.703-178.934-13.924-14.342 96.097-43.621 161.924-77.408 161.924-33.788 0-63.067-65.828-77.409-161.925-90.395 35.628-162.044 43.186-178.938 13.925s25.475-87.531 101.527-148.001c-76.05-60.469-118.42-118.738-101.526-147.999s88.543-21.704 178.937 13.924c14.342-96.096 43.621-161.924 77.409-161.924 33.787 0 63.066 65.827 77.408 161.923 90.392-35.626 162.038-43.183 178.932-13.923 16.894 29.261-25.475 87.53-101.525 147.999zm-76.552-128.191c26.513-10.507 51.379-18.576 73.672-23.992 26.825-6.518 49.593-9.112 66.889-7.679 17.505 1.45 27.945 6.86 32.504 14.757 4.56 7.897 4.025 19.643-3.472 35.528-7.407 15.695-21.038 34.116-40.094 54.088-15.838 16.598-35.259 34.099-57.616 51.807-19.54-15.284-41.193-30.673-64.547-45.737-1.369-27.759-3.87-54.207-7.336-78.772zm-6.378-3.682c-4.158-28.216-9.603-53.786-16.059-75.801-7.768-26.49-16.906-47.505-26.794-61.767-10.009-14.435-19.914-20.771-29.032-20.771-9.119 0-19.024 6.336-29.033 20.771-9.888 14.262-19.026 35.278-26.794 61.767-6.456 22.016-11.901 47.586-16.059 75.802 23.006 9.28 47.161 20.337 71.884 33.031 24.724-12.694 48.879-23.752 71.887-33.032zm-65.571 36.304c22.831-11.599 45.126-21.769 66.416-30.404 3.167 22.755 5.506 47.148 6.877 72.72a1011.796 1011.796 0 0 0 -36.207-21.92 1010.716 1010.716 0 0 0 -37.086-20.396zm-12.632 0c-22.831-11.598-45.124-21.768-66.413-30.403-3.167 22.754-5.506 47.146-6.877 72.717a1010.112 1010.112 0 0 1 36.203-21.918 1009.103 1009.103 0 0 1 37.087-20.396zm-79.281 46.148c1.368-27.758 3.869-54.205 7.335-78.769-26.515-10.508-51.382-18.577-73.677-23.994-26.824-6.517-49.593-9.111-66.888-7.679-17.506 1.45-27.946 6.86-32.505 14.757-4.56 7.897-4.024 19.643 3.473 35.529 7.407 15.694 21.038 34.115 40.094 54.087 15.838 16.599 35.26 34.1 57.616 51.808 19.541-15.285 41.195-30.675 64.552-45.739zm-64.552 53.104c19.541 15.284 41.195 30.675 64.552 45.739 1.368 27.758 3.869 54.205 7.335 78.769-26.515 10.508-51.383 18.578-73.678 23.995-26.825 6.517-49.593 9.111-66.889 7.679-17.505-1.45-27.945-6.86-32.504-14.757-4.56-7.897-4.025-19.643 3.472-35.529 7.407-15.694 21.038-34.115 40.094-54.087 15.839-16.6 35.26-34.1 57.618-51.809zm77.42 122.29c-3.167-22.754-5.506-47.146-6.877-72.717a1010.17 1010.17 0 0 0 36.204 21.919 1010.526 1010.526 0 0 0 37.086 20.395c-22.831 11.598-45.124 21.769-66.413 30.403zm.845 5.9c4.158 28.217 9.603 53.787 16.059 75.803 7.768 26.489 16.906 47.505 26.794 61.767 10.009 14.435 19.914 20.771 29.033 20.771 9.118 0 19.023-6.336 29.032-20.771 9.888-14.262 19.026-35.278 26.794-61.767 6.456-22.015 11.901-47.585 16.059-75.801-23.008-9.281-47.163-20.338-71.887-33.033-24.723 12.694-48.878 23.751-71.884 33.031zm-73.578-131.873c18.124-14.12 38.079-28.342 59.54-42.316-.58 13.821-.88 27.949-.88 42.317 0 14.367.3 28.495.88 42.316-21.461-13.974-41.416-28.196-59.54-42.317zm134.733 39.935c22.055 0 39.935-17.879 39.935-39.934s-17.88-39.934-39.935-39.934-39.934 17.879-39.934 39.934 17.879 39.934 39.934 39.934z" fill="#181a1b" fill-rule="evenodd"/></svg>