<svg width="209" height="212" fill="none" xmlns="http://www.w3.org/2000/svg"><path d="M175.418 144.991c2.425 4.346 4.021 11.516 1.608 16.155-2.414 4.639-8.699 9.635-13.331 10.144-4.206.462-7.191-.093-11.336-1.798-1.557-.641-2.076-.752-4.271-1.977-4.191-2.34-5.245-4.823-5.808-6.187.86.644 2.636 1.542 3.521 1.65.706.086 2.553-.003 2.639-.517.617-3.654-6.243-5.205-8.453-5.411-2.32-.216-5.725-1.261-10.331-2.738s-9.955-10.809-9.955-10.809 6.015 1.529 6.894.636c2.524-2.563-15.33-6.964-17.624-10.553 2.463 1.234 3.464.644 2.111-.872-3.444-3.862-22.27-17.411-22.27-17.411l18.526 6.595s17.417 7.05 18.11 4.878c.814-2.552-4.499-5.181-4.499-5.181 5.897 2.89 11.765 1.407 17.359 4.049 3.439 1.623 6.231 7.996 9.858 9.629.898.405 3.313 2.196 3.775.659.377-1.254-2.511-3.101-3.497-3.393.959-.163 6.292.463 8.653 1.691 2.081 1.083 5.473 6.275 6.783 5.734.365-.151 1.051-.795.511-1.802-.498-.93-.806-1.303-2.025-1.86 1.829-.152 3.272.428 4.836 1.328 1.565.9 5.163 9.056 5.989 8.281.39-.573.094-1.663-.503-3.108-.303-.733-.51-1.234-1.157-1.905.733.409 1.462-.253 3.887 4.093z" fill="url(#paint0_linear)"/><path d="M162.196 165.621c4.966 2.188 10.765-.062 12.954-5.027 2.189-4.966-.062-10.765-5.027-12.954s-16.96-2.67-19.149 2.295c-2.189 4.966 6.257 13.497 11.222 15.686z" fill="#005E66"/><path stroke="#fff" stroke-width="1.254" d="M56.565 75.168l56.859 29.331M60.358 89.064l56.858 29.331M32.4 101.97l56.859 29.331M21.723 87.858l56.859 29.331"/><path d="M108.166 59.716c-1.081 2.18-1.691 5.723-.401 7.932 1.289 2.21 4.957 2.989 7.232 3.127 2.066.126 3.792.212 5.083-.598-.423.217-1.001.236-1.164.232-.338-.009-1.112-.196-1.411-.504.562.2 2.695-.099 3.855-.478 2.232-.731 3.145-1.836 3.388-2.516-.405.335-1.252.816-1.682.89-.343.058-1.247.059-1.302-.19.573.013 1.626-.73 2.551-1.299.68-.417 2.153-2.28 2.175-2.687-.382.492-1.197.625-1.442.637a.987.987 0 01-.636-.227l10.945-6.371-2.928.81 9.245-6.927-2.54.164 10.646-8.562-8.896 3.664 2.548-2.513-11.281 5.327 2.075-2.639c-2.813 1.553-8.475 5.03-9.233 5.505-.755.472-6.45 3.766-7.722 4.752-.136-.287.206-.881.643-1.38.421-.482 1.031-1.227 1.505-1.393-.472-.057-1.508-.028-2.632.628-.991.579-2.956 1.847-3.461 2.418.024-.313.065-.481.669-1.4.264-.402.759-.568 1.382-.905-.897-.031-2.498 1.057-3.241 1.534-.743.477-2.432 2.44-2.86 3.365-.065-.385.13-1.091.467-1.72.381-.712.601-.816.999-1.339-.855.58-1.494.482-2.576 2.663z" fill="url(#paint1_linear)"/><circle cx="113.264" cy="64.145" r="4.807" transform="rotate(19.67 113.264 64.145)" fill="#EAFAF7"/><path stroke="#fff" stroke-width=".613" d="M168.345 37.029l-26.159 17.188M169.563 22.014l-26.159 17.187M178.138 20.854l-26.159 17.187"/><defs><linearGradient id="paint0_linear" x1="93.891" y1="115.978" x2="175.362" y2="161.748" gradientUnits="userSpaceOnUse"><stop offset=".553" stop-color="#89E5D3"/><stop offset="1" stop-color="#EAFAF7"/></linearGradient><linearGradient id="paint1_linear" x1="144.237" y1="45.033" x2="108.994" y2="65.63" gradientUnits="userSpaceOnUse"><stop offset=".5" stop-color="#0096A2"/><stop offset="1" stop-color="#89E5D3"/></linearGradient></defs></svg>