<svg fill="none" height="126" width="104" xmlns="http://www.w3.org/2000/svg" xmlns:xlink="http://www.w3.org/1999/xlink"><linearGradient id="a"><stop offset="0" stop-color="#89e5d3"/><stop offset="1" stop-color="#005e66"/></linearGradient><linearGradient id="b" gradientUnits="userSpaceOnUse" x1="21.376" x2="58.71" xlink:href="#a" y1="43.974" y2="43.974"/><linearGradient id="c" gradientUnits="userSpaceOnUse" x1="44.065" x2="81.398" xlink:href="#a" y1="51.107" y2="51.107"/><path d="m11.043 16.555 35.314 92.365" stroke="#fff" stroke-width="3.375"/><path d="m11.897 17.157s12.595-1.238 20.508 0c8.882 1.39 21.783 7.451 21.783 7.451l17.663 46.183s-13.868-6.168-23.355-7.451c-7.328-.991-18.936 0-18.936 0z" fill="url(#b)"/><path d="m34.585 24.29s12.893 5.123 21.586 6.559c7.985 1.318 20.705.892 20.705.892l17.664 46.183s-12.848.09-20.916-1.277c-8.567-1.45-21.376-6.174-21.376-6.174l-17.663-46.182z" fill="url(#c)"/></svg>