<svg fill="none" height="374" viewBox="0 0 305 374" width="305" xmlns="http://www.w3.org/2000/svg" xmlns:xlink="http://www.w3.org/1999/xlink"><linearGradient id="a" gradientUnits="userSpaceOnUse" x1="172.426" x2="163.073" y1="169.82" y2="333.911"><stop offset="0" stop-color="#89e5d3"/><stop offset="1" stop-color="#005e66"/></linearGradient><linearGradient id="b" gradientUnits="userSpaceOnUse" x1="271.626" x2="167.106" y1="22.4697" y2="173.461"><stop offset="0" stop-color="#89e5d3"/><stop offset="1" stop-color="#eafaf7"/></linearGradient><mask id="c" height="185" maskUnits="userSpaceOnUse" width="175" x="26" y="164"><path clip-rule="evenodd" d="m200.789 236.95-104.9726-72.665-58.3425 84.282c-20.0658 28.988-12.8334 68.753 16.1538 88.819 28.9873 20.066 68.7523 12.833 88.8183-16.154zm-39.365-27.249-26.243-18.167-58.6731 84.76c-5.0164 7.247-3.2083 17.188 4.0385 22.205 7.2468 5.016 17.1881 3.208 22.2046-4.039z" fill="#0096a2" fill-rule="evenodd"/></mask><g mask="url(#c)"><path d="m95.8164 164.285h127.669v166.34h-127.669z" fill="url(#a)" transform="matrix(.82222352 .56916472 -.56916472 .82222352 110.539129 -25.329306)"/><path d="m105.74 121.916h155.596v72.402h-155.596z" fill="#eafaf7" transform="matrix(.82222352 .56916472 -.56916472 .82222352 88.188372 -38.509681)"/></g><path d="m230.512 74.6943 13.77 27.5187 3.172-96.47584-19.69 47.05344-8.938-16.1303-16.148 43.5824-7.416-16.3388-28.332 75.7061 32.412 56.165 8.725-76.63 14.598 26.414z" fill="url(#b)"/></svg>