<svg fill="none" height="126" width="104" xmlns="http://www.w3.org/2000/svg" xmlns:xlink="http://www.w3.org/1999/xlink"><linearGradient id="a" gradientUnits="userSpaceOnUse" x1="56.582" x2="37.522" y1="62.078" y2="96.548"><stop offset="0" stop-color="#fff"/><stop offset="1" stop-color="#d5f6f0"/></linearGradient><linearGradient id="b" gradientUnits="userSpaceOnUse" x1="72.102" x2="31.58" y1="33.95" y2="102.351"><stop offset="0" stop-color="#abede0"/><stop offset="1" stop-color="#0096a2"/></linearGradient><linearGradient id="c" gradientUnits="userSpaceOnUse" x1="63.605" x2="45.246" y1="36.903" y2="94.758"><stop offset="0" stop-color="#abede0"/><stop offset="1" stop-color="#005e66"/></linearGradient><circle cx="52.005" cy="65.065" fill="url(#a)" r="40.837"/><circle cx="52" cy="65.065" r="39.271" stroke="url(#b)" stroke-width="6.398"/><g fill="#abede0"><path d="m38.237 51.303 13.762 13.762.01-4.686zm-.002 0 13.762 13.762-4.686.01z"/><path d="m65.622 78.689-13.762-13.762 4.686-.01zm0 .001-13.762-13.76-.01 4.686 13.772 9.076zm0-27.526-13.762 13.762-.01-4.686z"/><path d="m65.623 51.164-13.762 13.762 4.686.01zm-27.523 27.523 13.76-13.762-4.686-.01zm-.001.002 13.762-13.762.01 4.686z"/><path d="m51.993 34.915v30.302l5.17-5.148zm-.001-.002v30.302l-5.17-5.149z"/><path d="m51.993 95.214v-30.301l5.17 5.148zm-.001.003v-30.302l-5.17 5.149zm30.304-30.305h-30.302l5.149-5.17z"/><path d="m82.299 64.913h-30.302l5.148 5.17zm-60.604-.001h30.302l-5.148-5.17zm-.002.001h30.302l-5.149 5.17z"/></g><path d="m63.605 36.903-9.39 28.861-13.797 27.462 9.39-28.86z" fill="url(#c)"/></svg>