<svg fill="none" height="367" width="393" xmlns="http://www.w3.org/2000/svg" xmlns:xlink="http://www.w3.org/1999/xlink"><linearGradient id="a" gradientUnits="userSpaceOnUse" x1="244.446" x2="153.333" y1="167.27" y2="239.509"><stop offset="0" stop-color="#005e66"/><stop offset=".5" stop-color="#89e5d3"/></linearGradient><circle cx="222.545" cy="192.517" fill="#fff" r="71.346"/><path d="m204.297 230.591c-32.088-13.375-58.842-30.147-76.19-46.207-8.697-8.051-14.726-15.644-18.005-22.25-3.291-6.627-3.421-11.375-2.047-14.671s4.838-6.546 11.862-8.874c7-2.32 16.637-3.383 28.477-2.873 23.619 1.017 54.364 8.214 86.452 21.589 32.087 13.376 58.842 30.148 76.189 46.208 8.697 8.051 14.726 15.644 18.006 22.249 3.291 6.627 3.42 11.376 2.046 14.672s-4.837 6.546-11.861 8.874c-7 2.319-16.637 3.382-28.478 2.873-23.618-1.017-54.364-8.214-86.451-21.59z" stroke="url(#a)" stroke-width="14.748"/><path clip-rule="evenodd" d="m281.968 231.507-126.077-63.671c5.278-15.733 16.039-29.706 31.468-38.779 33.966-19.972 77.692-8.628 97.665 25.338 14.615 24.855 12.461 54.936-3.056 77.112z" fill="#fff" fill-rule="evenodd"/><path d="m311.151 0 1.71 15.134 11.911-9.492-9.492 11.911 15.134 1.71-15.134 1.71 9.492 11.912-11.911-9.493-1.71 15.135-1.71-15.135-11.911 9.493 9.492-11.911-15.134-1.71 15.134-1.71-9.492-11.912 11.911 9.492zm-187.265 324.169 8.053 14.298 16.282-2.052-14.298 8.053 2.052 16.282-8.054-14.299-16.281 2.052 14.298-8.053zm122.317-286.15-5.571 10.28 10.175 5.76-11.498-2.122-2.333 11.457-1.536-11.59-11.617 1.32 10.549-5.042-4.846-10.64 8.055 8.474zm139.158 84.583-3.41 6.727 4.94 5.7-6.727-3.41-5.7 4.94 3.41-6.728-4.94-5.7 6.728 3.411zm-203.919 210.208-7.208-1.11-1.243 7.186-1.172-7.198-7.218 1.038 6.484-3.338-3.218-6.545 5.178 5.135 5.23-5.083-3.283 6.512zm-180.558-68.55c-.675 5.743.793 14.15 5.443 18.06 4.65 3.911 13.474 2.721 18.673 1.212 4.721-1.371 8.648-2.558 10.888-5.4-.771.822-2.049 1.328-2.417 1.449-.762.25-2.645.45-3.559 0 1.419 0 5.949-2.375 8.239-4.151 4.407-3.418 5.565-6.619 5.565-8.334-.638 1.074-2.147 2.825-3.049 3.334-.72.406-2.742 1.13-3.063.616 1.29-.428 3.053-2.932 4.667-4.943 1.186-1.477 2.992-6.818 2.713-7.748-.459 1.405-2.174 2.355-2.713 2.578-.619.257-1.377.11-1.604 0l19.382-22.997-5.9 4.151 15.137-22.879-5.55 2.397 16.966-27.656-16.966 15.303 3.688-7.655-20.968 20.93 2.53-7.56c-5.048 5.719-14.931 18.024-16.248 19.69-1.31 1.659-11.413 13.578-13.468 16.8-.534-.533-.244-2.135.333-3.599.558-1.415 1.325-3.569 2.254-4.32-1.102.251-3.394 1.144-5.384 3.51-1.754 2.086-5.134 6.494-5.807 8.174-.197-.72-.24-1.129.376-3.667.268-1.109 1.245-1.876 2.368-3.129-2.03.648-4.74 4.362-6.022 6.022-1.28 1.66-3.488 7.401-3.705 9.812-.455-.81-.583-2.544-.332-4.222.284-1.895.692-2.303 1.165-3.791-1.449 1.982-2.957 2.271-3.632 8.013z" fill="#0096a2"/><circle cx="15.828" cy="270.088" fill="#eafaf7" r="11.415"/></svg>