<svg fill="none" height="126" width="104" xmlns="http://www.w3.org/2000/svg" xmlns:xlink="http://www.w3.org/1999/xlink"><linearGradient id="a"><stop offset="0" stop-color="#fff"/><stop offset="1" stop-color="#d5f6f0"/></linearGradient><linearGradient id="b" gradientUnits="userSpaceOnUse" x1="22.789" x2="39.736" xlink:href="#a" y1="39.224" y2="56.128"/><linearGradient id="c" gradientUnits="userSpaceOnUse" x1="17.766" x2="39.717" xlink:href="#a" y1="75.333" y2="54.354"/><linearGradient id="d" gradientUnits="userSpaceOnUse" x1="30.113" x2="16.947" xlink:href="#a" y1="101.774" y2="112.795"/><linearGradient id="e" gradientUnits="userSpaceOnUse" x1="54.407" x2="42.632" y1="26.474" y2="54.594"><stop offset=".305" stop-color="#fff"/><stop offset="1" stop-color="#d5f6f0"/></linearGradient><linearGradient id="f" gradientUnits="userSpaceOnUse" x1="57.793" x2="40.27" xlink:href="#a" y1="69.965" y2="57.545"/><linearGradient id="g" gradientUnits="userSpaceOnUse" x1="58.753" x2="31.453" xlink:href="#a" y1="105.441" y2="84.112"/><linearGradient id="h" gradientUnits="userSpaceOnUse" x1="88.922" x2="58.953" y1="36.722" y2="39.794"><stop offset=".1" stop-color="#fff"/><stop offset="1" stop-color="#d5f6f0"/></linearGradient><linearGradient id="i" gradientUnits="userSpaceOnUse" x1="84.643" x2="57.229" xlink:href="#a" y1="77.168" y2="52.819"/><linearGradient id="j" gradientUnits="userSpaceOnUse" x1="71.151" x2="91.811" xlink:href="#a" y1="107.711" y2="84.482"/><clipPath id="k"><path d="m0 0h10.796v15.114h-10.796z" transform="matrix(.97613709 -.21715522 .21715522 .97613709 18.595959 94.853329)"/></clipPath><path d="m15.144 25.779 24.593-1.926 1.036 30.741h-23.763l-1.866-28.814z" fill="url(#b)"/><path d="m16.84 54.594h23.917l-1.02 30.741h-24.594l1.696-30.74z" fill="url(#c)"/><path d="m15.144 85.335h24.593v30.741l-23.52-1.311z" fill="url(#d)"/><path d="m39.738 23.853 24.593 1.971v29.911l-23.572-1.14-1.02-30.742z" fill="url(#e)"/><path d="m40.734 54.594 23.575 1.028-.778 29.713h-23.793l.996-30.74z" fill="url(#f)"/><path d="m39.738 85.335 23.828-.214.765 29.007-24.593 1.948v-30.74z" fill="url(#g)"/><path d="m64.329 25.844 24.593-1.99-.772 30.74-23.821 1.141v-29.89z" fill="url(#h)"/><g clip-path="url(#k)"><path d="m27.815 96.938-.812-.729-1.69 3.983-3.22-2.89-.425 1.004 3.219 2.89-1.69 3.982.811.729 1.69-3.982 3.22 2.89.426-1.004-3.22-2.89 1.69-3.983z" fill="#005e66"/></g><path clip-rule="evenodd" d="m83.172 22.313a7.877 7.877 0 1 0 -13.102-.012l6.554 13.849z" fill="#0096a2" fill-rule="evenodd"/><path d="m64.25 55.735 23.9-1.14.773 30.74h-25.43l.758-29.6z" fill="url(#i)"/><path d="m63.532 85.335h25.391l-1.63 29.782-22.963-.988z" fill="url(#j)"/></svg>