<svg fill="none" height="126" width="104" xmlns="http://www.w3.org/2000/svg" xmlns:xlink="http://www.w3.org/1999/xlink"><linearGradient id="a" gradientUnits="userSpaceOnUse" x1="64.187" x2="33.936" y1="28.762" y2="101.396"><stop offset="0" stop-color="#89e5d3"/><stop offset="1" stop-color="#005e66"/></linearGradient><linearGradient id="b" gradientUnits="userSpaceOnUse" x1="95.392" x2="88.53" y1="9.828" y2="29.15"><stop offset="0" stop-color="#fff"/><stop offset="1" stop-color="#abede0"/></linearGradient><linearGradient id="c" gradientUnits="userSpaceOnUse" x1="93.355" x2="89.924" y1="15.498" y2="25.159"><stop offset="0" stop-color="#abede0"/><stop offset="1" stop-color="#fff"/></linearGradient><path d="m93.428 36.752-4.775.81-6.7 7.254-9.634-2.175-2.933-9.43 6.701-7.255.143-4.58a16.102 16.102 0 0 0 -10.81 5.16c-4.538 4.914-5.447 11.886-2.858 17.62l-36.808 39.855c-5.922-2.126-12.8-.667-17.338 4.246a16.102 16.102 0 0 0 -4.286 11.186l4.554-.506 6.7-7.255 9.633 2.175 2.933 9.431-6.7 7.254-.428 4.825a16.11 16.11 0 0 0 11.333-5.186c4.537-4.913 5.446-11.886 2.857-17.62l36.808-39.854c5.922 2.126 12.8.667 17.338-4.246a16.108 16.108 0 0 0 4.27-11.709z" fill="url(#a)"/><path d="m88.538 11.88 9.433 2.236 2.78 9.287-6.653 7.05-9.433-2.236-2.78-9.287z" fill="url(#b)"/><path d="m89.929 16.523 4.716 1.118 1.39 4.644-3.326 3.525-4.717-1.118-1.39-4.643z" fill="url(#c)"/></svg>